<?xml version="1.0" encoding="UTF-8"?>
<svg width="1200pt" height="1200pt" version="1.1" viewBox="0 0 1200 1200" xmlns="http://www.w3.org/2000/svg">
 <g fill="#2170b1">
  <path d="m75 1125v-1050h637.5c20.738 0 37.5-16.762 37.5-37.5s-16.762-37.5-37.5-37.5h-637.5c-41.398 0-75 33.602-75 75v1050c0 41.398 33.602 75 75 75h1050c41.398 0 75-33.602 75-75v-637.5c0-20.738-16.762-37.5-37.5-37.5s-37.5 16.762-37.5 37.5v637.5z"/>
  <path d="m1200 262.5c0 20.738-16.762 37.5-37.5 37.5s-37.5-16.762-37.5-37.5v-134.48l-498.49 498.49c-6.7852 6.7891-16.16 10.988-26.512 10.988-20.738 0-37.5-16.762-37.5-37.5 0-10.352 4.1992-19.727 10.988-26.512l498.49-498.49h-134.48c-20.738 0-37.5-16.762-37.5-37.5s16.762-37.5 37.5-37.5h225c20.738 0 37.5 16.762 37.5 37.5z"/>
 </g>
</svg>
