<svg id="Layer_1" data-name="Layer 1" xmlns="http://www.w3.org/2000/svg" viewBox="0 0 422.5 757.1"><defs><style>.cls-1{fill:#b0bbdb;}.cls-2{fill:#b2bfe0;}.cls-3{fill:#e3edf5;}.cls-4{fill:#193fa4;}.cls-5{fill:#204ab8;}.cls-6{fill:#1c44ae;}.cls-7{fill:#1d46b1;}.cls-8{fill:#224ebe;}.cls-9{fill:#1e47b3;}.cls-10{fill:#163a9e;}.cls-11{fill:#2451c3;}.cls-12{fill:#224dbc;}.cls-13{fill:#15399c;}.cls-14{fill:#163a9d;}.cls-15{fill:#163b9e;}.cls-16{fill:#173ca0;}.cls-17{fill:#183ea3;}.cls-18{fill:#16399c;}.cls-19{fill:#15389b;}.cls-20{fill:#1e48b4;}.cls-21{fill:#1a41a9;}.cls-22{fill:#1e47b2;}.cls-23{fill:#1c45ae;}.cls-24{fill:#204ab6;}.cls-25{fill:#1e47b1;}.cls-26{fill:#1d46b0;}.cls-27{fill:#15399b;}.cls-28{fill:#1b43ab;}.cls-29{fill:#1a42a9;}.cls-30{fill:#1b42ab;}.cls-31{fill:#1940a7;}.cls-32{fill:#224eba;}.cls-33{fill:#1f49b4;}.cls-34{fill:#214bb8;}.cls-35{fill:#2450be;}.cls-36{fill:#2654c4;}.cls-37{fill:#2552c1;}.cls-38{fill:#2857c8;}.cls-39{fill:#214cb8;}.cls-40{fill:#204ab5;}.cls-41{fill:#234fbd;}.cls-42{fill:#1d46af;}.cls-43{fill:#2552c0;}.cls-44{fill:#2857c9;}.cls-45{fill:#1b43aa;}.cls-46{fill:#1b44ac;}.cls-47{fill:#1c44ac;}.cls-48{fill:#1f4ab5;}.cls-49{fill:#2756c8;}.cls-50{fill:#2450c1;}.cls-51{fill:#2655c8;}.cls-52{fill:#204bb7;}.cls-53{fill:#2c5dce;}.cls-54{fill:#2959c9;}.cls-55{fill:#2755c3;}.cls-56{fill:#234fbb;}.cls-57{fill:#2551bf;}</style></defs><path class="cls-1" d="M325.63,753.8c1.94.1,3.89.2,5.75.2h769.19c1.59,0,3.19.1,4.78.2.26.2.35.4.26.6s-.17.3-.26.3H322.71a.93.93,0,0,1,.09-1.3l.09-.1A2.31,2.31,0,0,1,325.63,753.8Z"/><path class="cls-2" d="M322.71,754.2v.9H5.62c-.35-.2-.44-.4-.35-.6s.18-.3.27-.3l30.86-.3c1.59-1.6,3.53-1.3,5.39-1.4,14.24-.4,28.56-.2,42.8-.2,30.59,0,61.27-.3,91.87.2,2.47-.1,4.86-.1,7.34,0h2.74c33.33-.3,66.67-.1,100-.1,10.25,0,20.51-.1,30.77,0C319.26,752.7,321.3,752.2,322.71,754.2Z"/><path class="cls-3" d="M5.54,754.1v.9H1.65v-5.4C4.3,749.7,3.77,753.2,5.54,754.1Z"/><path class="cls-4" d="M317.94,753.8c-1.15.1-2.21.2-3.36.2H189.19c-1.15,0-2.21-.1-3.36-.2-2-3-1.06-5.8.71-8.4,1.24-1.7,2.65-3.4,4.51-4,8-2.5,8.75-9.4,8.22-17a3.74,3.74,0,0,0-1.15-2.3,4.13,4.13,0,0,0-1.15-.5,13.51,13.51,0,0,0-5.66.1,3,3,0,0,1-3.8-2.2c-.26-.4-.44-.8-.71-1.2a8.29,8.29,0,0,1-.7-1.2,2.12,2.12,0,0,0-.36-.6c-.7-4.3,2.66-7.7,2.12-11.9a9.08,9.08,0,0,1,.36-1.5c2.47-8.1.53-11.6-7-12.2a9.88,9.88,0,0,1-2.38-.4,3.32,3.32,0,0,1-1.51-1.5c-1.77-8.3-.7-10,6.37-9.8,2.74.1,10.43-4.7,11.41-6.8.79-1.7.61-3.1-1-3.2-4.15-.1-5.48-3.8-7.51-6.7-1.59-2.6-.8-5.8-1.86-8.5a27.83,27.83,0,0,0-8.84-13.1c-3.8-3.3-6.72-7.7-11.23-10.3-3.1-1.7-4.51-5.6-5.84-9-1.5-3.8-2.74-7-6.81-8.7-2.74-1.1-3-5.4-2.83-8.7a10.06,10.06,0,0,0-2.3-7.4,11.93,11.93,0,0,1-2.65-5.7,11.17,11.17,0,0,0-2.47-5.8c-3.45-3.6-4.51-8-4.6-13,0-2.8-1.59-5.2-3-7.3a43.94,43.94,0,0,1-4.15-9.1c-1.15-2.4-1.33-5.2-1.95-7.8a12.83,12.83,0,0,1-.09-3.2,173.85,173.85,0,0,1-.62-25.3c.62-1.4,1.42-2.6,1.15-4.5-.88-7.9.09-15.7.71-23.6.27-3.1,1.24-6.5-2.12-8.7a2.73,2.73,0,0,1-.71-3.4,1.9,1.9,0,0,1,.35-.5c2.3-2.8,2.57-6.3,2.39-9.7-.53-8.9,1.77-17.6.89-26.4a10.63,10.63,0,0,1,.44-1.7,9.55,9.55,0,0,0,.88-5.2c-.26-7.2.62-14.3,1.59-21.4.45-3-1.41-6,.18-9,6.72-2.4,6.72-9.8,8.67-15.6,1.06-3.1,1.85-6.2,3.71-8.7,3.45-4.8,6.54-4.6,9.46.5,2.57,4.5,2.65,4.6,4.95.3,1.24-2.3,2.66-2.2,4.87-1.5,9.63,3.1,9.63,12.7,10.34,20.9.8,8.8.53,17.7,1.24,26.6a14.19,14.19,0,0,0,1.86,7.1c-.27-7,3-11.6,2.91-17.6-.08-5,.71-10.2,3.54-14.5,3.27-4.9,3.89-10.2,2.39-15.9-1.42-5.1-2.12-10.2.26-15.3,1.07-2.3.36-5,.18-7.5-.44-5.8-.35-11.5,2-16.8,2.47.8,1.41,3.1,1.76,4.9.09-7.3.09-7.3,2.92-7.9h0a3.16,3.16,0,0,1,0,3.3v1.1a7.37,7.37,0,0,1,0,5.5,128.51,128.51,0,0,0,.89,16.5,11.07,11.07,0,0,1-.27,4.8,3.36,3.36,0,0,0-.09,2.6c2,4.1,1.42,8.3.89,12.6-.36,2.5.44,5.3,1,7.9a22.8,22.8,0,0,1-.09,10.1,14,14,0,0,0-.09,6.9,21.92,21.92,0,0,1,.62,5.9c0,1.1-.26,2.4.18,3.2,2.3,4,1.85,8.1,1.24,12.5-.36,2.4,1.94,4.4,1.59,7.1-.09.6.62,1.4.53,2-1.59,7.5.79,14.4,2.74,21.3.09.2-.35.5-.53.8-.09.1-.27.3-.27.4,3.36,9.9,1.24,21.7,8.4,30.2,2.39,2.8-1.06,5.9.62,8.6,0,.9.18,2.3.89,2.4,3.62.5,4.68,3.7,5,6.8.35,3.3,1.15,6.4,1.41,9.6a7.93,7.93,0,0,0,1.24,3.8c3.45,4.4,4.86,10.1,7.34,15.1a20.2,20.2,0,0,0,2.83,4.9c.71.8,1.68,1.8,1.15,2.8-1.24,2.8.26,4.4,1.77,6.1a4.27,4.27,0,0,1,1.15,2.3c.35,7.1,4.68,11.4,8.48,16.3,2.83,3.6,5.57,7.4,7,12.1a7.22,7.22,0,0,0,2.12,3.5c3.89,2.8,6,7.2,8.49,11.3,3,1.5,3.71,4.9,4.6,7.9a8.73,8.73,0,0,0,4.86,6.2c3.54,1.6,6.72,3.8,8.67,8.1a10,10,0,0,0,8,6.2c2.12,1.9,4.15,3.7,7.25,3.4,1.59-.2,2.91,1.5,4.06,2.6,2.13,1.9,3.89,4.2,7,4,.88,0,1.86,1.2,2.83,1.9a49.58,49.58,0,0,1,7.34,8,6.84,6.84,0,0,1-.18,8c-2,3-5,3.3-7.87,2.3-5-1.8-10.26-3.1-14.94-5.9a126.31,126.31,0,0,0-14-7.2c-4.42-2-6.72-6.6-9.46-10.5-1.6-2.3,0-3.6,2.12-4.2-1.77-3.9-4.16-6-8.31-4.8-2.83.8-5.66-.6-8.49-1.2-4-2.7-6.72-6.9-8.85-11.3-3.09-6.4-7.25-11.9-10.34-18.3-1.86-3.8-5.39-6.4-7.34-11.1-.8,7.1,16.45,34.4,31.74,51.1.71.7,1.33,1,1.51-.5.17-2,1.15-3.1,2.92-2.5s3.62,1.9,3,4.1c-2.12,7.8,4.33,10.2,7.25,14.6,1.33,2,3.89,3.2,6.19,4,3.1,1,3.54,3.1,2.57,6.2-.71,2.4-3.19,4.8-1.15,7.5a9.66,9.66,0,0,0,7.78,3.5c2.39.1,4,.6,5,3.2,1.41,3.7,5.22,3.2,7.51,5.3a17.31,17.31,0,0,0,5.84,3.9c1.59-2.7-2-8.3,3.71-8.3a7.35,7.35,0,0,1,1.42.4,6.48,6.48,0,0,1,1.86,1.3c1.41,2.3,3.53,2.2,5.57,2.1a9.37,9.37,0,0,1,8.13,3.6,11.75,11.75,0,0,1,1.06,3.6c1.15,5.2.8,5.9-4,6.6a10.6,10.6,0,0,0-5.39,2c-1.15.9-2.3,2.1-1.33,3.5,2.3,3.3.09,5.6-1.06,8.3a9.75,9.75,0,0,1,15.74-1.5c2.83,3.2,5.13,3.5,8.4,1.5,2.92-1.8,5.84-.2,8,1.9s1.68,5.7,1.68,8.6c0,2-1.95,2.6-3.63,2.9-5.21.9-8.66,3.4-8.4,10.2a6.58,6.58,0,0,1-3.62,6,27.57,27.57,0,0,0-7.43,6A13.66,13.66,0,0,1,317.94,753.8Z"/><path class="cls-4" d="M177.08,753.8c-1.24.1-2.57.2-3.89.2H44.53c-1.15,0-2.21-.1-3.36-.2-1.5-4.8-2.12-10.2-6.1-13.7.44-7.8-5.66-12.3-7.69-18.7-1.77-5.5-4.78-10.8-4.07-17.3.26-2.6.09-5.1-2.48-7-2.12-1.5-.88-5.1-1.85-7.5-.8-.2-1.86-.3-1.51-1.5.8-2.8,0-4.4-1.94-6.4s-4.16-4.6-3.36-8.8c.53-3,.79-6.5-1.86-9.1-1.33-1.3-.44-2.9-.26-4.5.35-2.6,1.23-5.6-2.22-6.7-.79-.3-.88-.9-.44-1.6,1-1.5-.26-2.3-.7-3.3a7,7,0,0,1-1.07-4.6c1.33-6.8-.17-13.5-.79-20.3q-.27-2.7-.27-5.4V245.3c0-1.9-.62-4,1-5.7C8.37,245.2,6.6,251.3,7,257.2,7.22,286.1,7,315,7,343.9c-.44,18.3-.09,36.5-.18,55.5C9,397.8,9,395.9,9,394.3c.18-5.5,2.48-10,5-14.5,1.77-3.1,4.07-4.5,7.34-3.2,2.92,1.2,6.37,1,8.85,4.3,0-7.5.17-14.3,3.62-20.4,1.24-2.2,1.06-4.9,1.68-7.3.8-3.4,1.68-7.1,5.31-7.6s5.3,2.6,6.36,6.1a144,144,0,0,1-.7,25.5c-.45,3.1,1.41,6.4.26,9.1-5.66,13.6-.44,28-2.74,41.8-.44,2.4-1.41,5.3-.27,8,1.07,4.8-2.21,9.2-1.23,13.9,2.12,10.7.7,21.4,1,32.1.18,7.1,2.21,13.9,2.39,21,.09,2.9.79,5.8,0,8.6-1.68,7,.62,13.7,1,20.6,1.77,8.1,1,16.8,4,24.6a374.29,374.29,0,0,1,8,39.7,65.61,65.61,0,0,0,2.56,11c1.68,9.1,5.84,17.2,7.78,26.1,2.57,9.1,5.22,18.2,8.58,27a279.07,279.07,0,0,0,12.2,28.2c3.36,5.2,7.25,9.9,10.61,15.1a4.79,4.79,0,0,0,4,2.5,5.89,5.89,0,0,1,5.93,1.2,4,4,0,0,0,5.21.6,11,11,0,0,0-.62-3,7.25,7.25,0,0,1-.17-1.4,2.07,2.07,0,0,1,1.15-1.6,2.52,2.52,0,0,1,1.23.3,21.19,21.19,0,0,1,2.22,1.9c1.06,1,1.06,3.9,3.27,2.7,1.68-.9,1.59-2.8,1.23-4.7.62-4.8-2.65-9.2-1-14.1a1.6,1.6,0,0,1,1.33-.3,5.14,5.14,0,0,1,1.15.8c1.68,2.5,2.74,5.5,4.15,8.2a9.18,9.18,0,0,0,1.33,2.2c2.39-.7,5.48,1.7,7-2.3.35-.8.53-1.7.88-2.5.62-1.4,1.5-2.5,2.92-2.2a3.15,3.15,0,0,1,2.39,3.6c-.36,10,5.74,15.8,11.23,22,1.41,1.6,2.65,3.1,2.74,5.4.17,4.4,3.62,7.7,3.09,12.4-.09,1.2,1.24,1.4,2.12,1.8A26.38,26.38,0,0,1,177.08,753.8Z"/><path class="cls-4" d="M210.86,75.1v1.1c1,4.4,1.41,8.3-4.25,8.8-1.68.1-2,2.5-3,3.9-1.68,2.5-3.36,6.1-7.07,3.4.71,1.4,1.59,2.8,1.5,4.7s.89,2.4,2.3,2.8c5.4,1.7,6.28,4.2,3.72,10.1h0c-1.06,1.6-1.51,4-4,3.4-1.42-1.1-2.74-1.6-3.72.7a11.23,11.23,0,0,1-3.71,4.6c-1.24.4-1.59-.5-1.86-1.6a4.22,4.22,0,0,1,.09-1.5c.18-.9.44-1.7.62-2.5-3.18,2.7-5.84,6.5-10.35,6.6-.26.3-.61.5-.88.8a9.8,9.8,0,0,0-1.33,2,8.77,8.77,0,0,1-.61,1,7.69,7.69,0,0,1-.71,1c-.09.2-.27.3-.36.5a7.85,7.85,0,0,0-1.23,2.8,6.51,6.51,0,0,1-.45,1.2,17.91,17.91,0,0,1-.88,1.9c-2.39,5-5.75,9.3-7.69,14.6-5.22,12-9.82,24.4-14.15,36.8A360.59,360.59,0,0,0,141.27,222c-5.4,9.9-6.72,21.4-10,32.1-.53,1.9-.7,3.9-1.32,5.8-1.95,4.1-1.33,8.8-2.66,13a5.74,5.74,0,0,1-.44,1.4,25.58,25.58,0,0,0-1,4.3c-.09.5-.27,1-.35,1.5-3.54,16.6-9.2,32.7-10.35,49.9a50.86,50.86,0,0,0-2.74,19c.27,9.6-1.15,19-2.74,28.4a14.2,14.2,0,0,1-1,2.4c-1.07,2.5-1.77,5.6-5.22,3.6-3-6.4-2.21-13.5-2.48-20.3a60.66,60.66,0,0,0,.45-18.3,14.78,14.78,0,0,1,.44-7.4,9.83,9.83,0,0,0,.7-5.3c-1.85-13.9-1.76-28-1.5-42,.09-2.5-.26-4.5-2.21-6.2-2.47-2.2-2.3-4.8.62-6.3,2.56-1.3,2.83-3.3,2.74-6.1-.18-11.5-.79-23.1.53-34.5a4.86,4.86,0,0,0-.88-3.5c-.71-1-1.42-2.5-.89-3.5,2.74-5.1.36-10.7.89-16,.7-7.2,1.59-14.6,1.15-22a6.6,6.6,0,0,1,.53-3.2c1.68-2.5-.89-4.9-.27-7.4,2-9.6,3.63-19,.89-29.2-1-3.5.7-9.4,3.18-13.6,2.12-5.2.88-10.8,1.5-16.4l-.44.5c-1.06,1.5-.8,5.3-3.27,4.3-2.3-.9-1.33-4.1-.71-6.2a30.65,30.65,0,0,0,1.06-10.6c1-9.7,3.1-19,5.13-28.4.71-2.7,1.24-5.5,1.86-8.2.44-1.8.62-4,3-4a10.49,10.49,0,0,1-.61,3.7c-.71,2.1.35,3.3,1.85,4.4,1.15-1.4.53-2.9.71-4.2s-.09-2.5.8-3.6c6.72-8.4,11.4-18.6,17.59-27.5,2.57-3.2,8.93-2.5,10.79,1.1.53,1.1.71,2.4,1.86,2.9.79-4.4-1.77-8.4-1.06-12.7.61-.8,1.14-1.7,1.76-2.5.36-.5,1-1.3,0-1.7-2.91-1.3-1.5-2.9-.26-4.4a34.42,34.42,0,0,0,2.92-4.2c2.12-3.9,5.83-4.6,9.46-5.4a2.13,2.13,0,0,1,2.3,1.5,16.31,16.31,0,0,1,1.15,3.5c1.06,5.2,1.06,5.3,5.83,5.7,7.7-3.2,9.46-1.5,12.82,7,2.39,6.2,4.51,12.5,6.28,18.9a4.16,4.16,0,0,0,2.65,2.8c3.36,1.7,5.66,5.3,9.2,6.8.62.3,1.24,1,1.15,1.6-.44,5.6,2.48,7.7,6.63,8.9C210.41,72.5,210.24,74.2,210.86,75.1Z"/><path class="cls-5" d="M111.64,81.6a21.79,21.79,0,0,1-.53,4.8c-1.68,8.1-3.62,16.3-4.24,24.7a.86.86,0,0,1-1.06.2c-3.8,2.8-6.81,5.8-7.69,11.5C97,130.3,97,138.4,91.75,144.5c-1.06.9-2.12,1.4-3.36.6-1.86-3.4-.71-7-.62-10.6.18-4.9.88-10.1-5-12.3-2.65-1-2.65-4.6-2.56-7.6.08-1.7,1.76-4.3-1.24-4.7-2.3-.3-5.66-1-6,2.6-1,8.4-8,12.5-10.52,19.8a2.33,2.33,0,0,1-2.92,1.8c-.08,0-.17-.1-.26-.1a4.67,4.67,0,0,1-2.48-4.3c-.26-2.8,2.21-6.9-1.32-8.2-2.83-1-3.63,4-6.1,5.3a4.14,4.14,0,0,0-1.24,1.6c-3.19,4.7-7.08,5.3-11.14,1.9-1.24-1.1-1.15-2.4-.8-3.9,1.33-6.5,3.71-12.6,5.57-18.9.35-2.4.89-4.9,1.42-7.2h0c.88-1.7,1.15-3.7,1.94-5.4a4.68,4.68,0,0,1,.18-1.1c3.09-6.6,5.13-13.7,7.16-20.8a8,8,0,0,1,1.33-2.1c1.15,1.8,1.23,4.4,3.62,5.4,1.68.7,3,.9,4.33-.7,2-2.4,3.45-6.8,7.08-4.9s5.39,6,5.22,11.7c3.27-5.5,3.71-11.4,5.92-16.5a113.18,113.18,0,0,0,4.42-12c.62-2.1,1.24-4.5,3.71-4s3.28,2.7,3.45,5.2a112.53,112.53,0,0,1,0,18.9c0,.6-.35,1.4.18,2,1-1.1,1.42-2.9,2.83-3.5,3.89-1.9,7.16-4,6-9.9-.26-1.5.89-3,2.21-4a2.85,2.85,0,0,1,2-.1c1.85,1.2,1.85,3,1.59,5.1-.62,5.3-2.57,10.4-2.57,15.8,0,2.3-1.76,2.7-3.09,3.6a2.15,2.15,0,0,0-.62,3.2c.8,1.1,1.77.5,2.56-.1C105.45,83.8,108,81.5,111.64,81.6Z"/><path class="cls-6" d="M5.62,257.1V239.7c1.6-7.1,3.45-14.1,5.13-21.2,1.15-5.1,2.57-10.3,3.89-15.4a4.08,4.08,0,0,1,1.6-2.6c1.59,2,.53,4.2.08,6.2-.53,2.5-.26,4.3,2.39,4.7a7.25,7.25,0,0,1,2.74,1.1c4.78,2.8,4.95,2.7,6.72-3,.62-2.1.89-4.2,1.51-6.3,1.94-6.4,6-7.7,10.78-3.6a21.21,21.21,0,0,1,2.48,2.6c1.68,2.2,2.83,1.9,3.71-.8,3-9.9,10.61-15.2,17.51-20.7,5.39-4.3,7.87-2.7,9.64,4.7.44,1.7,1.15,3.4,1.68,5.1,1.5,4.8-.18,9-2,13.1-1.69,9.9-4.69,19.6-5,29.8a2.29,2.29,0,0,1-1.68,2.3c-2.56-2.7-1.23-6.1-1.32-9.2-.09-1.7,1.32-3.9-.89-4.7-1.94-.7-4.59-1-5.74,1.3-2.3,4.7-5.57,6.7-10.26,6.2-1.59-.1-1.86,1.6-2.39,3a47,47,0,0,0-2.65,16.5,27.78,27.78,0,0,1-1.68,11.7c-.35,1-.88,2.1-1.95,2.2-1.32.1-1.94-1.1-2.38-2.2a26.43,26.43,0,0,1-1.33-7.4,15.68,15.68,0,0,0-1.68-7.3c-1.33-2.4-3.45-4.2-5.92-4.2-2.83,0-3.19,3.1-3.89,5.5-1,3.3-1.51,6.7-2.3,10a11,11,0,0,1-4.07,6.5c-1.15.9-2.83,1.4-3.45,0C13.05,258.6,9.25,258.1,5.62,257.1Z"/><path class="cls-7" d="M74.06,190.6c-.44-3-2.38-5.5-2-8.8.18-1.6-1.06-2-2.3-2-3.45-.2-6.1,2-8.49,4.3-3.45,3.2-6.19,7.3-10,10.2a9.19,9.19,0,0,0-3.09,5.4,16.64,16.64,0,0,1-.89,3.6c-1.68,4.1-2,4.2-4.51.7a26.42,26.42,0,0,0-3.36-3.9c-4-3.4-7.34-2.1-8.66,3.3a79.78,79.78,0,0,1-2.83,10.3,8.64,8.64,0,0,1-1.77,3.2c-.71.7-1.5.8-2-.1a8.29,8.29,0,0,0-7.78-4.5c-2.12,0-2.21-1.8-1.77-3.5a54.34,54.34,0,0,0,1.69-8.4c-.18-7.5,1.85-14.5,3.36-21.6,1.59-7.3,3.71-14.4,5.65-21.6a4.08,4.08,0,0,1,1.6-2.6c1.76,2.9.17,5.6-.45,8.3-.7,2.9-.44,4.6,2.66,4.6,2.83,0,4.24,2.1,5.3,5.3,2.92-2.7,3.45-6.4,4.42-9.6,1.15-3.9,1.86-8,6.37-8.2,3-.1,6.63,4.1,7.78,8.5a6.33,6.33,0,0,0,.62,2.2c3.71-1.9,4.33-6.4,6-9.8,2.83-6.1,7.7-11.3,7.87-18.9a3.29,3.29,0,0,1,2.48-3.5,3.17,3.17,0,0,1,3.54,2.9h0c1,4.6,3.89,8.3,3.89,13.3,0,3.4,1.06,5.2,4.51,3.2,1.5-.9,3.71-2.3,4.59,1.2a3.68,3.68,0,0,1-.26,1.4c-.8,1.4-2.57,2.4-1.68,4.6.09.5.17.9.26,1.4a19.36,19.36,0,0,1-.09,5.1,8.14,8.14,0,0,1-.35,1.5c-.26.7-.53,1.4-.79,2.2-2,5.6-1.86,12.1-5.4,17.2C76.89,189,76.27,191.1,74.06,190.6Z"/><path class="cls-8" d="M103,58.8c-.8,2.4-3,4.4-.71,7.4.44.6-.18,2.8-1.5,3.7-1.15.7-2,1.9-3.27,2.3-2.48.9-4.34,2.1-4.78,5.3-.18,1-.79,2.2-2,1.8-1.59-.5-1-1.8-.8-3.1,1.15-7.1.62-14.3.44-21.5a4.72,4.72,0,0,0-1.06-3c-1.41-1.8-3-1.6-3.62.6-1.68,6.2-4.16,12-6.37,17.9-1.24,3.4-2,7.2-3.09,10.7-.45,1.6-.45,4.2-2.74,3.4-1.77-.6-1.24-2.5-.89-4.1.44-2.3-2.39-8.2-4.24-9.1-1.06-.5-1.86.1-2.66.8-1.59,1.4-2.3,3.5-3.53,5.1s-2.74,3.4-4.69.8c-1.15-1.5-2.83-1.5-4.33-2,.17-1.9.35-3.4.53-5a196.53,196.53,0,0,0,7.6-19.2c2.66-7.5,7.87-13.5,11-20.7.44-1.1,1.5-1.8,1.68-3.2.44-2.6,2-4.3,3.8-5.9.62-.6.44-1.6,1-2.2h0c.53-.9,1.77-2.2,2.12-1.4,2.13,3.8,3.45.3,5.13-.4s3.45-3.8,5.66-.7a3.65,3.65,0,0,1,0,1.4,27.29,27.29,0,0,0-1.5,3.8c-.09.4-.27.9-.36,1.3-.26,1.1-.53,2.3-.7,3.4a6.23,6.23,0,0,1-.36,1.4c-1,3.6-2.3,7.1-3.27,10.7,2.12-2.6,6-2.2,7.34-6.2.62-1.9,1.5-3.4,1-5.6-.79-3.1,1-5.2,2.92-6.9,1.06-.9,2.83-1.6,4.16-.8s1.32,2.8,1,4.4c-.71,3.4-.62,6.9-1.86,10.1-.17.5-.35.9-.53,1.4A29.07,29.07,0,0,0,97.5,47.8c0,1.5-.8,2.7-1.68,5.3,3.62-4.5,4.15-10.9,9.9-11,1.15,1,1.15,3,2.56,3.8,3.36-.2,6.72-1.1,10.17-.3a3.07,3.07,0,0,1,.36,1.5c.26,4-1,7.8-1.42,11.7h0c-.79,3.2-.79,6.7-1.94,9.8v1.1c-1.6,1.5-1.68,3.6-2,5.6s-.35,4.6-1.77,6.4c-2.91,2.4-6.8,3.1-9.28,6.5-.88,1.3-2.12.3-3.1-.2-1.59-.7-1.23-2.4-1-3.8s.62-3.6,2.48-3.4c2.39.3,2.56-.9,1.94-2.7a5.87,5.87,0,0,1,.45-4.6c1.76-3.8.61-8.4,2.47-12.2.27-.5-.53-1.6-.79-2.5a1.88,1.88,0,0,0-.09-.7,8.4,8.4,0,0,1,.09-1.5,15,15,0,0,0,.53-3.9C104.48,54.8,104.66,57.3,103,58.8Z"/><path class="cls-9" d="M85.56,155.7c-.09-1.4.26-3.1-2-2.3a9.05,9.05,0,0,0-2.91,1.8c-2.21,1.8-2.83,1.6-4-.9a8.51,8.51,0,0,1-.8-3.6c.18-3,0-5.7-2.21-7.9-1.24-1.3-.35-3.6-1.15-5.2-.62-1.4-.88-3.5-2.83-3.1-1.5.3-1.59,2-1.59,3.5a14.12,14.12,0,0,1-3.8,10.7,9.38,9.38,0,0,0-1.86,3.7c-.62,2.1-1.15,4.2-2.92,5.5a2.48,2.48,0,0,0-1.06,2.3,4.57,4.57,0,0,1-2.56,4.7,3.15,3.15,0,0,0-1,1.2c-.7,1.2-.44,3.8-2.47,3.1-1.42-.5-.62-2.5-.8-3.9-.35-4.2-3.09-8.2-6.45-9.3-2-.7-4.6,1.8-5,5.2-.53,3.8-2.12,7.2-3.36,10.6a8.29,8.29,0,0,1-1.24,2.3c-1.24,1.6-2.56,1.2-3.18-.8-1.24-4.3-1.24-4.3-5.4-4.6-3.36-.2-3.45-.4-2.47-4.2.79-3.3,1.94-6.5,2.12-10,.44-4.3,1.33-8.5,3.62-12.1a16,16,0,0,0,1.86-4.9c1.68-7.5,3.36-14.9,6.46-21.9,1.06-2.5.08-5.9,2.56-7.9.35-.5.62-.5,1,0-1.77,6.3-4.24,12.3-5.39,18.8-.27,1.4-.27,2.7,1.24,2.9,2,.2,4.06.1,5.57,2.4.62.9,1.85-.7,2-1.5,1.06-4.9,5.93-6.2,7.52-10.6.79-2.2,4.33-.8,5.13,2a9,9,0,0,1-.09,5.3,6.56,6.56,0,0,0-.44,3.2,3.46,3.46,0,0,0,1.94,2.9c1.5.5,2-1.2,2.12-2.3.53-3.2,2.21-5.2,4.34-7.3,2.56-2.6,4.86-5.8,5-10.1a8.18,8.18,0,0,1,1.59-4.5c1.15-1.7,2.56-.9,4-.5.44.1.88-.2,1.41-.3,4.42-.6,5.22.4,3.54,5.2-.89,2.6.18,4.6.53,6.8a2,2,0,0,0,2.39,1.6c.08,0,.26-.1.35-.1,2.12-.8,3.63-.9,2.83,2.5,3.36,6.7.09,13.8.88,20.6a2.45,2.45,0,0,1,.53,2.2,21.71,21.71,0,0,1-.61,2.3C87.24,151.3,88.83,154.9,85.56,155.7Z"/><path class="cls-5" d="M204.13,172.1c.27,4.2-1.85,7.9-1.94,12-1.15,4.3-2.12,8.7-2.92,13.1h0c-1.32,4.2-.35,8.8-1.94,12.9-.71,2-1,4.2-2,6.1-.53.9-.71,2.2-1.5,2.7-4.33,2.7-8,5.8-8.76,12a1.43,1.43,0,0,1-1.85,1.1h0a2.2,2.2,0,0,1-1.15-2.2c.17-3.2.53-6.5,1-9.7s.27-5.8-2.65-7.3a4.63,4.63,0,0,1-2.39-4.3c-.09-2.1-1.15-3.7-2.21-5.3.53-4.5,2.92-8.7,2.12-13.5.09-1.8.27-4,1.68-4.8,3.54-2.3,4.6-6.3,5.84-10.1,1.77-5.1,4.07-9.7,7.87-13.2,1.59-1.5,1.77-3.8,2.47-5.7a4.25,4.25,0,0,1,1.42-1.7c2.12-.7,3.71-.2,3.09,2.7-1.32,5.7-.17,12.4-4.77,16.9a1.55,1.55,0,0,0-.09,2h0c.44.6,1.06.5,1.77.5C200.07,176,201.48,172.8,204.13,172.1Z"/><path class="cls-10" d="M317.94,753.8a30.5,30.5,0,0,0,12.82-9.8,8.36,8.36,0,0,1,4.06-2.6c3.28-1,4.16-3.6,4.25-6.9.35-6.6,2.39-9,8.49-9.8,3.71-.5,3.53-.5,3.27-4.9-.18-2.8-.53-4.6-3.18-5.7-2.3-1-3.89-1.3-6.11.4-3.44,2.6-4.77,2.2-7.51-1.8-1-1.4-1.77-2.6-3.54-1.7-.88.4-1.41-.2-2.12-.7-4.42-3.1-6.1-2.5-8.67,2.5a9.57,9.57,0,0,1-1.76,2.5,1.42,1.42,0,0,1-2.13.2h0c-.79-.9,0-1.6.45-2.3.7-1,1.32-2.1,2-3,1.24-1.7,1.86-2.9-.18-4.8-1.85-1.8-1.24-3.4,1-5.1a11.92,11.92,0,0,1,8-2.8c2.74.1,3.1-.5,2-3.3-.62-1.8-.36-3.6-.53-5.3,1.41-1.2,2.12,0,2.91,1.1a20.48,20.48,0,0,1,.45,12.2c-.62,2.3-1.42,2-2.57,1.6-.88-.3-1.59-1.3-2.47-1.6-1.68-.6-2.92.6-3.45,2.2-.71,2.1,1.06,2.4,2.21,2.7a19.15,19.15,0,0,0,4.77.3c1.51,0,3.45,0,4,1.3,1.33,3.1,3.36,2.2,5.48,2,2.39-.2,4.78,0,7.25-.1a5.14,5.14,0,0,1,5.22,4,43,43,0,0,1,1.33,9.6c.17,2.3-.8,3.7-3.1,3.9a16.13,16.13,0,0,0-6.28,2.3c-2.91,1.7-3.71,4.2-2.74,8,3.81-1.2,7.61.1,11.41-.4,2.83-.4,6.1,3.3,6.45,6.7.18,1.4.09,2.9.27,4.3.18,1.2,1.59,1.9,1.24,3.4-1.06,1.2-2,.4-3-.1-1.32-.7-2.56-1.5-4,0-1.59,1.6-3.09.9-4.15-.8-1.51-2.4-3.72-3.8-5.49-5.8-3-3.3-6.72-3.1-9.72.3-2.74,3.1-6.37,4.9-8.84,8.2l-2.92.4Z"/><path class="cls-11" d="M118.36,45.7c-.53.6-1.5,1.8-1.68,1.7-2.74-2.2-5.21-.3-7.87.3-.26.1-.7-.6-1.06-.9v-.7a8.4,8.4,0,0,1,.09-1.5c-.35-4.8,1.06-9.3,2.12-13.8a64.3,64.3,0,0,0-2.21,9.3c-.17,1.2-.09,2.7-1.85,2.4-2.74,1.5-5,3.2-6.1,6.9-.54,1.9-2,3.5-3.19,5.2A1.07,1.07,0,0,1,95,55h0a1.54,1.54,0,0,1-.26-1.9c.79-1.7,1.76-3.4,2.56-5v-.6a2.29,2.29,0,0,1,.26-1.1,6.21,6.21,0,0,1,.54-1.1c.17-.3.35-.7.53-1l.26-.6c.35-1,.44-2.1.71-3.2,1.06-3,2.56-5.8,2.47-9.2.71-4.7,3.63-8.2,5-12.6h0c.53-.6.35-1.6,1-2.2h0c.62-.6.35-1.6,1-2.2.53-1.1,1.06-2.3,2.39-2.5,1.59,1.8-.62,4.1,1,6.7a25.67,25.67,0,0,1,2.83-8.1c1-1.7,2.21-1.6,2.83.4a25.67,25.67,0,0,1,1.68,9C119.43,28.2,120.75,37,118.36,45.7Z"/><path class="cls-12" d="M204.13,172.1c-.88,4.6-4.95,4.4-7.6,6.2-1.24.8-2.65-.3-2.83-2s-1-4.4,1.68-4.6c2-.1,2.21-1.3,1.77-2.8a5.56,5.56,0,0,1,.71-4.6c1.59-2.8.17-6.3,1.59-9.2.18-.3-1.33-.4-2.12-.5-2-3.7-.53-6.8,1.32-9.9a2.39,2.39,0,0,1,2.12-.5,2.64,2.64,0,0,1,1.15.9c5.31,3.6,5.84,3.3,6.9-3.3,1-5.9,1.15-11.8,1.59-17.7,0-1.3,0-2.7.09-4a5.51,5.51,0,0,1,.8-2.3.88.88,0,0,1,1.32-.1h0a13.82,13.82,0,0,1,0,7.6c.8,9.1-1.68,17.7-3.18,26.5A84.86,84.86,0,0,1,204.13,172.1Z"/><path class="cls-13" d="M331.38,689.7c-1-.5-1.77-1.2-2.92-1.1-2.65-2.2-5.48-3.6-8.84-3.2-2.21.2-4-.9-5.66-2.2a10.77,10.77,0,0,0-1-1.1c-.88-.8-2-1-2.83-2-1.41-1.6-4.33-2.6-3.71-5.1s3.54-2.7,5.57-3.5a4.55,4.55,0,0,1,2.83-.1,10.73,10.73,0,0,1-8.13-3.4,2.52,2.52,0,0,1-.62-2.9,1.6,1.6,0,0,1,2.12-.8c4.42,1.9,8.05-.9,11.94-2.6a1.46,1.46,0,0,1,.62-.2c1.41,1,3.36,1,4.42,3a2,2,0,0,0,2.83,1s.08,0,.08-.1c3.1-1.8,4.25,1.2,5.93,2.9a1.6,1.6,0,0,1,.35,2.1c-.09.1-.09.2-.17.3-1.24,1.5-.8,3.9-2.39,5.2-1.24-.1-1.68-1.5-2.74-2-1.68-.8-3.45-.8-4.07,1.3-1,2.9-2.48,2.9-4.51,2-.18-.1-.27-.1-.44-.2-2.12-.1-4.6-1.3-6.28,1-.88,1.3,3.8,6.6,6,6.2,4.25-.7,7.34,1.8,10.79,3.7C331.2,688.2,331.29,689,331.38,689.7Z"/><path class="cls-14" d="M210.86,75.1a7.81,7.81,0,0,0-4.07-2.5c-2.74-.9-4.95-2.7-4.69-6.6a3.71,3.71,0,0,0-2.39-4.1c-3.71-1.6-6.1-5.7-10-7.2-1-.4-.88-1.8-1.15-2.9C188,49.4,187,47,186.8,44.5c-.53-5.6-4.51-9.3-5.74-14.6-1.06-4.3-4.34-6.3-7.87-4.5a9,9,0,0,1-2.83.5c6-4.5,12-1.8,13.53,5.9.17.9.08,2,.53,2.6,2.74,3.7,3.36,8.4,4.51,12.8.88,3.5,2.12,6.4,5.48,7.6,1.77.6,2.92,2.1,4.15,3.6s2.13,1.3,3-.5c.71-1.4,2-2.8,2.12-4.2.09-4,2.39-5.4,5.4-6.8-.36,3,1,5.5.79,8.3s-.53,4.9-3.27,5.9c-1.86.6-3.8,1.7-3.36,4.5a4.06,4.06,0,0,0,4.42,3.9C211.12,69.8,210.94,72.5,210.86,75.1Z"/><path class="cls-15" d="M19.06,689.7c1.33,5.2,4.43,9.6,6.19,14.6.27.7.71,1.6.27,2-2.56,2.7-.27,4.8.62,7.1a15.31,15.31,0,0,1,1.41,4.6c.09,4.3,2.3,7.1,4.78,9.5a6.48,6.48,0,0,1,2.21,5,12.41,12.41,0,0,0,3.8,9.3,12.24,12.24,0,0,1,2.92,11.9H36.4c-1.86-1.3-3-2.7-2.13-5.7.62-2,2.48-4.8-1-6.9-1.06-.6-.09-4.4,0-6.6.18-3.1-.53-4.3-3.09-4.7-1.86-.3-3.28-1.5-2.57-4.2a5.23,5.23,0,0,0-.44-2.6c-1.06-2.8-4.33-4.8-2.48-8.7a.69.69,0,0,0-.26-.5c-5.75-2.7-2-7.4-1.86-11.4.09-1.1.53-2.5-.35-3C18.27,697.4,19.15,693.4,19.06,689.7Z"/><path class="cls-16" d="M194.5,344.3c-2,.2-1.86,2-1.95,3.6-.09,1.8.62,3.9-1.15,5.5-1.68-1.7.18-4.5-1.77-5.8-1.15-4.1.36-8.5-.79-12.6a7.5,7.5,0,0,1,.53-5.2,18.46,18.46,0,0,0,1.15-14.7,4.55,4.55,0,0,1-.27-1.6c2-7.2,1.06-15,3.63-22.1.17-.2.35-.3.53-.5,1.68,1,2.39,2.4,1.32,4.4-.53.9-1.68,2.1-1.06,2.8,3.28,4.2.27,8.6.62,12.9.44,5.5-.09,11.1.71,16.7.44,3.1-.44,6.4-.8,9.6-.26,2.1-2.74.9-3.27,2.6C192.11,342,194.76,342.1,194.5,344.3Z"/><path class="cls-14" d="M106.78,18.4c-.35,4.7-3,8.5-3.89,13.1-1.15,2.5-1.06,5.7-3.27,7.8-1.86-1.3-1.42-2.9-.53-4.5h0c1.5-5.9,3.62-11.8,2-18.6-4.33,2.3-7.43,5.1-7.87,10.5a6,6,0,0,1-.88,2.5c-.89,1.3-2,3-3.45,2.2s-.89-2.7-.35-4.2h0c1.06-1.2-.09-3.1,1-4.4h0c.71-1.4.88-3.1,1.94-4.4h0c1.24-2-.79-5.9,2.92-6.5.27,1-.62,2.9,1.42,2.4,1-.2,2.56-.3,1.94-2.2s0-3,1.15-4.2c1-1.1,1.5-2.9,3.36-1.9a4.63,4.63,0,0,1,2.48,4.2c-.09,3.8.53,7.7-.89,11.7C105.72,21.4,105.45,19.1,106.78,18.4Z"/><path class="cls-17" d="M194.5,215.7c1.23-1.5.35-4.1,1.94-5.5,2.3,3.1.18,5.8-.79,9.1,1.5-2.8,2.3-6.6,5.57-2.5v3.3a10.87,10.87,0,0,0-1,1.1c-1.68,1.7-.17,4.5-1.15,6.1-2.12,3.3-.53,6.3-.35,9.6.35,6.5.27,13.1-2.39,19.2l-.53-.6c-1.59-3.9.27-7.7.36-11.6.35-5.7.35-5.7-3.72-3.6-2.3-.8-2-3-2.12-5.1C191.67,228.6,192.64,222,194.5,215.7Z"/><path class="cls-14" d="M204.13,110c.09-.5.18-1.1.27-1.6.8-5.3-.18-6.7-4.77-7.1-3.1-.3-3.36-.4-2.83-3.8.26-1.7-.27-2.6-.8-4-.71-1.5-2.3-2.6-2-4.6,1.94-.5,2.12,1.3,2.91,2.3,1.33,1.8,2.75,1.7,4,0a12.38,12.38,0,0,0,2.21-3.5c1.06-2.9,2.13-5.2,5.57-4.2,1.33.4,2-.9,2.13-2.3.09-1.6.09-3.3.09-4.9,1.94,5.9,1.41,7.5-3.28,10.1-.88.5-1.94.7-2.21,1.9-.62,2.6-2.21,3.8-4.06,5.1A4.93,4.93,0,0,0,200,94.9a1.72,1.72,0,0,0,.09,2.2l.17.2c.62.5,1.15,0,1.6-.6s.61-1.7,1.85-2.3a34,34,0,0,1,2.39,11.2C206.17,107.3,205.9,109.1,204.13,110Z"/><path class="cls-14" d="M287.08,633c-4.43.3-7.79-1.2-9.2-6.5a5.68,5.68,0,0,0-3.18-3.8c-1.42-.7-2.83-1.7-4.25-2.5a14.11,14.11,0,0,1-6.54-8.8,18.43,18.43,0,0,0-2.92-6.7c4.07.9,5.48,2.3,5.75,6.3a9.52,9.52,0,0,0,1.86,5.8,1.17,1.17,0,0,0,1.76-.4h0c1.77-2.1,2.92-2,4.43.6s2.82,5.7,4.42,8C281.33,627.9,283.54,631.5,287.08,633Z"/><path class="cls-14" d="M211.83,507.7c-.53-.5-1.15-1.1-.89-1.8,1.15-3.4-.26-5.8-2-8.1-3.8-5-3.63-11.4-4.42-17.4a22.39,22.39,0,0,0-1.15-6c-.8-1.9-2.12-3.8-.18-5.9,2.65,5.2,2.57,11.1,3.27,16.8.27,2.2-.08,5.3,3.63,4.3,1.24-.3,1.41,1.5,1.86,2.7C213.42,497.5,212.8,502.6,211.83,507.7Z"/><path class="cls-18" d="M147.28,33.7c.26,1.2-.62,2.8,1.06,3.7,2.92,1.5,2.83,1.6,1.06,4.4a10.86,10.86,0,0,1-.8,1.2,1.37,1.37,0,0,0,1.07,1.6h0c1,.3,1.94.7,2,2s-1,1.2-1.68,1.5c-1.06.5-2.12,1.1-3-.2a7.55,7.55,0,0,1-1.59-3.9c-.09-1.7-.53-2.4-1.94-1.2a1.57,1.57,0,0,1-2.39-.3c-.09-.1-.09-.2-.18-.3-1.85-2.8-3.53-1.2-5.21.2,1.85-4.8,2.56-5.2,6.72-3,.88.5,1.32.1,2.12-.3C146.57,37.9,145.78,35.1,147.28,33.7Z"/><path class="cls-19" d="M201.22,216.8c-3.45-2.4-4,1.5-5.57,3.6-.71-3.6,1.41-6.7.79-10.1.8-4.4.89-9,2.92-13.1v5.4c0,.7.09,1.8.8,1.7,4.51-.5,1.94,1.9,1.85,4.2A33.38,33.38,0,0,1,201.22,216.8Z"/><path class="cls-20" d="M94.22,11.9c-1.76,1.7-1.06,4.8-2.91,6.5-.18-1.1-.45-2.4-1.77-1.5-2.83,1.8-6,3.2-7.78,6.5-1.42-.8-1-1.6-.8-2.5.89-3.9-1.24-1.6-2.3-1.4.18-1.9,1.33-2.6,2.65-2,3.1,1.3,4.51-.2,5-3.4,2.92-.8,4.16-3.9,6.37-5.7,1.33-1.1,3-2.2,2.3,1.4h0c-.35.5-.18,1.5-.8,2.1Z"/><path class="cls-16" d="M196.44,259.3c1,.7.89,1.7.71,2.9a78.76,78.76,0,0,0-1,19.4,10,10,0,0,1-.71,3.6,18,18,0,0,0-.88,5.8h0c-2.66-.5-2.57-3.1-2.13-4.8.71-2.9.18-5.5.09-8.3,1.5-5.7.27-12,2.74-17.6A2.35,2.35,0,0,1,196.44,259.3Z"/><path class="cls-14" d="M200.33,113.2l3.89-3.3a2.33,2.33,0,0,0,1,2.2c.17.2.26.4.44.5.44,2-.71,3.5-1.24,5.2l-.53,1.2c-.35.8-.71,1.7-1.06,2.5-.71,1.5-1.15,3.2-2.39,4.4-3,1.1-2.47-1.4-2.56-3.2C198.56,119.6,197.24,115.7,200.33,113.2Z"/><path class="cls-14" d="M95.2,9.7C95.11,9,95,8,94.31,8.4a5.91,5.91,0,0,0-3,3.8c-.89,3.1-2.74,2.5-4.78,1.9.89-5.7,4.86-7.5,9.37-8.8C96.35,6.7,96.7,8.3,95.2,9.7Z"/><path class="cls-8" d="M118.36,45.7c.09-2.5-.17-5.1.8-7.5a3.46,3.46,0,0,0,.18-2.1c-1.68-5.5.44-11,.09-16.6.26.4.79.9.79,1.3,0,8.3,1.06,16.6-.79,24.9-.45.5-.71.5-1.07,0Z"/><path class="cls-14" d="M212.8,117.6h-1c-1.51-.4-.18-3.6-2.48-3.1-1.15,1.3-.88,3.8-2.92,4.4-2.74-1.7-.08-4.7-1.32-6.7v-.1c1-2.6,3.45-1.8,5.13-3,1.06-.7,1.76,1,2.21,2.2C213.15,113.4,212.71,115.5,212.8,117.6Z"/><path class="cls-19" d="M202.72,191.1c1.41,2.7,3.18,5.2,1.41,8.2-.53.9-1,2-2.12,1.6-.88-.4-.88-1.5-.7-2.3C201.75,196.1,202.28,193.6,202.72,191.1Z"/><path class="cls-19" d="M199.36,197.2a26.57,26.57,0,0,1,2.92-13.1A41.93,41.93,0,0,1,199.36,197.2Z"/><path class="cls-13" d="M315,652.7a30.59,30.59,0,0,1-6.72-7.6c3.62,1.2,5.48,4.7,7.69,7.6l-.44.4Z"/><path class="cls-4" d="M118.36,45.7h1c.09,4.5-.09,8.9-2,13.1C116.86,54.3,118.89,50.1,118.36,45.7Z"/><path class="cls-13" d="M317,653.7c2.13,2,1.86,5.6,3.89,7.6h0c-5.57,1-4.15-3.6-4.33-6.9Z"/><path class="cls-4" d="M115.45,68.6a26.34,26.34,0,0,1,1.94-9.8C117.39,62.2,117.66,65.7,115.45,68.6Z"/><path class="cls-21" d="M42.23,107.8h-1c0-2.8.26-5.4,1.94-7.6A24.42,24.42,0,0,1,42.23,107.8Z"/><path class="cls-14" d="M212.8,125.2v-7.6A6.65,6.65,0,0,1,212.8,125.2Z"/><path class="cls-21" d="M45.15,94.7a6.51,6.51,0,0,1-1.95,5.4A6.78,6.78,0,0,1,45.15,94.7Z"/><path class="cls-16" d="M194.5,354.1v-5.5a4.13,4.13,0,0,1,.17,5.3Z"/><path class="cls-17" d="M196.44,259.3v1.1c-2.21.2-1.68-1.7-1.77-3.1a2.86,2.86,0,0,1,.62-1.4.85.85,0,0,1,1.15.1h0Z"/><path class="cls-16" d="M194.5,347.5v-3.3C195.73,345.4,195.73,346.4,194.5,347.5Z"/><path class="cls-20" d="M78.84,19.5a2.34,2.34,0,0,1-1,2.2A2.32,2.32,0,0,1,78.84,19.5Z"/><path class="cls-14" d="M107.75,16.3a2.32,2.32,0,0,1-1,2.2A2.25,2.25,0,0,1,107.75,16.3Z"/><path class="cls-14" d="M108.73,14.1a2.35,2.35,0,0,1-1,2.2A2.24,2.24,0,0,1,108.73,14.1Z"/><path class="cls-14" d="M94.22,11.9a2.35,2.35,0,0,1,1-2.2A2.24,2.24,0,0,1,94.22,11.9Z"/><path class="cls-19" d="M200.33,221.1l1-1.1Z"/><path class="cls-13" d="M316,652.7l1,1.1h0C316,654,315.64,653.7,316,652.7Z"/><path class="cls-22" d="M177.08,753.8c-2-1.6-3.89-3.1-4.07-6.3-.09-2.2-2.48-2.7-3.8-3.9-2.74-2.6-5.48-5.7-9.91-4.9.18-2.2,1-4.5.36-6-1.59-3.8-3.19-7.6-3.19-11.9a1.45,1.45,0,0,0-1-1.1c-5.13-2.2-6.81-7.7-9.37-12.4-.35-.6-.53-1.5-1.06-1.7-3.19-1.8-2.92-4.8-2.3-7.9.18-.5.26-1,.44-1.6a2.36,2.36,0,0,0-1.33-2.6c-1.14-.4-1.76.5-2.12,1.6s0,2.6-1.15,3.4a4.17,4.17,0,0,1-1.06-3.3c3.89-15.1.8-29.7-2.74-44.3-.53-2.1-1.24-4.1-1.68-6.2a92.33,92.33,0,0,0-2.74-11.9,8.11,8.11,0,0,1-.44-1.6c-.27-4-2.92-7.8-1.06-12.1,3.71-.5,5.66,1,5.57,5.6s2.3,8.2,4.6,11.6c3.8,5.6,7.78,11,9.28,18.1.53,2.5,2.39,4.2,4.07,5.9a8.34,8.34,0,0,1,2.74,7.1c-2.12,5.6,1.59,9.1,3.62,13.2,2.21.6,4,1.7,3.54,4.8a3.89,3.89,0,0,0,1.59,3.7c4.51,3.6,7.34,9.1,11.5,13.1,1,1,2,2.2,1.59,3.7-1.59,5.9.18,12.9-4.78,17.6a1.87,1.87,0,0,0-.61,1.9c1.14.4,1.76-.6,2.29-1.3,4.43-5.9,7.43-6.4,12.65-1.3,1.94,1.9,3.54,3.3,6.28,3.2a4.35,4.35,0,0,1,4.15,3.9c.62,2.9-.17,6.2-2.3,7.2-6.45,3.1-9,9-10.34,16.1-.09.7,0-.2-.36.4Z"/><path class="cls-23" d="M154,667.9a6.62,6.62,0,0,0-2.21-6.2A17.55,17.55,0,0,1,146,651c-.71-3.9-3.45-7.2-5.75-10.5a61.48,61.48,0,0,1-5.92-9.8c-1.33-3-1.94-5.6-.71-8.9a17.24,17.24,0,0,1-4.77-2.9c-.18-.2-.36-.3-.44-.5-.8-2-.71-4.3-1.77-6.3a5.74,5.74,0,0,1-.44-1.4,33.63,33.63,0,0,0-.89-5,9,9,0,0,1-.35-1.5c-.18-1.3-.62-2.6-.89-3.9-.17-2.1-.79-5,1.51-5.6,2.65-.8,2.47,2.6,3.36,4.3,1,5.7,3.45,10.8,4.51,16.5.79,4.7,7.34,8.5,12,7.7,3.36-.6,8.84,5.6,8.23,9.4-.09.7-.36,1.6-1,1.8-4.68,1.2-2,3.8-1.06,6.2a16.26,16.26,0,0,0,5.31,6.9c5.21,4.1,10.34,8.5,15.74,12.5,6.72,5,9,4.1,12.11-4.5a3.68,3.68,0,0,1,1.06-1.8c1.15,1,1,2.4,1,3.8a11,11,0,0,0,1,5c1.15,2.7-.53,3.7-2.21,4.3-2.57.9-5,2.2-8.14,3.2,2.12,1.1,4.16,1.5,5.66,2.8,1.06.9,2.21,1.9,1.68,3.5-.44,1.4-1.77,1.3-2.92,1.2-.35,0-.62-.1-1-.1-3.45-.1-6.63-.1-5.22,5.6a6.56,6.56,0,0,1-.7,3.6,1.83,1.83,0,0,1-2.3,1.2c-1.24-1.3-1.42-3.7-3.63-3.8-1.86-.1-2.83-2.1-4.6-2.6,2.39,2.5,4.6,5.3,8,6.2,1.5,2.6,2.48,5.7,5.84,6.3,1.41.2,1.77,2.4,2.56,3.7.53,1,1,2.4,2.39,2,.53-.1.71-.7.79-1.3.27-1.5-.53-2.3-1.59-3a7.69,7.69,0,0,1-3-2.5c-.53-.9-1.15-1.8.08-2.7,2.57.3,5.22-.7,7.79,1.5,4.33,3.7,2.3,7.9,1.41,12.1v1.1c-1.24,2.8-3.62,3.2-6,3.6-2,.4-4.6.9-4.51,3.7.09,3.1,2.74,3.5,5,3.7,1.24.2,2.56-.1,3.62.9h0l1,1.1h0c.53,2.5.88,4.8,4.15,3.1a7.69,7.69,0,0,1,6.46.2h0c.53.7,1.41.5,1.94,1.1,1.24,4.9-.09,9.5-1,14.2a4.75,4.75,0,0,1-3.71,4.3,13.84,13.84,0,0,0-3.19,1.2c-4.42,2.3-7.51,5.6-6.54,11.7H184c.62-3.5,1.42-7,1.86-10.6a3.64,3.64,0,0,1,2.57-3.5,36.9,36.9,0,0,0,4-2,6.62,6.62,0,0,0,3.45-4.9c.8-3.6-.88-6.1-4.15-5.5-1.86.3-3.81.9-4.51-1.5-1.24-4-4.78-3.8-7.25-5.4-2.13-1.4-3.36,1.1-4.16,3.2-1.15,2.9-2.92,4.8-6,3.9-.27-.1-.44-.5-.89-1.1,1.42-2.1,2.83-4.4,4.34-6.6s2.65-4,1.5-6.9c-.88-2,.27-3.8,1-5.6.53-1.2.89-2.5-.35-3.4-4.33-3.2-6.54-8.9-10.61-12.4-.71-.6-1.24-1.6-2.21-1.9-2.21-.7-2.66-1.7-1.51-4.3,1.51-3.4-1.15-3.2-3-3.4-.8-2.6.53-4.9,1.15-7.2,1-3.5,3.36-1.3,5.83-1.1-.26-3.1.09-6.3-4-4.6C158.24,670.2,156.3,668.2,154,667.9Z"/><path class="cls-24" d="M108.73,378c.44-4.5.44-9,1.32-13.4,1.15-5.5.8-10.8.8-16.3a72.26,72.26,0,0,1,2.21-16.9c.18-.6.88-.9,1.41-1.4,1.51,1.7.8,3.7.45,5.6a72.36,72.36,0,0,0-1.24,7.5c-.44,5.6-.44,5.6,4.15,3.9a5.57,5.57,0,0,1,5.93,1.4c2.47,2.3,3.8.7,3.89-1.8a27.74,27.74,0,0,1,4.69-15,3.31,3.31,0,0,0-.27-4.3c-.09,0-.09-.1-.18-.1-2.3-2.1-2.12-4.7-1.32-7.4a20.25,20.25,0,0,0,.62-6.9c-.27-4.6,1.32-5.5,5.3-4.4,3.63,1,6.63,2.2,6.81,7.4.88-8.4,1.5-16.6,6.63-23.2,2.92,2.9,1.5,6.5,1.15,9.9a9.45,9.45,0,0,1-.44,1.5,6,6,0,0,1-.8,1.3c-.17.2-.26.4-.44.6-3,3.2-2.12,7.1-1.41,10.9.08.5.17,1,.26,1.6a10.7,10.7,0,0,1,0,2.4c-4.33,7.5-5.92,15.8-6.81,24.7-.7,6.5-2.47,12.9-2.92,19.5.09,10.9-1.59,21.7-2.65,32.5a14.34,14.34,0,0,1-1,4.7c-3.63,4.6-.44,10.1-1.59,15-1.59,6.8-.89,13.9-1.33,20.9a8,8,0,0,1-1.15,4h0c-.53.5-.44,1.9-.88,1.8-4.95-.5-3.45,3.9-3.45,6.4,0,8.5.62,17,.09,25.4-.53,8,1.06,15.6,2.12,23.3.09.5.53,1.2.35,1.5-3.45,6.1.09,12.7-1.06,18.9.09,1.4-.26,2.9.71,4.1.44.5,1.15,1.4.71,1.8-3.36,3.8.88,8.4-1.15,12.4-.53,1.1.62,2.3,1.06,3.5s.71,2.4-.44,3.3c-.27-.1-.45-.2-.71-.3a8,8,0,0,1-2.3-5.8c-.18-11.1-3.8-21.1-7.52-31.1a24.93,24.93,0,0,1-1.5-12.2A14.42,14.42,0,0,0,114,484.1a12,12,0,0,1-2-10.1c.62-3.2,1.41-6.4.26-9.6-.62-1.6.18-4.3-3.09-3.5-1.51.3-1.86-2.6-2.21-4.3-1-4.6-.36-9.3-.62-13.9-.27,6,0,11.9-.27,17.9-.09,1.8.62,4.7-2.47,4.5-1.33-2.2-1-4.6-1-7a45.94,45.94,0,0,0-.53-7.9,6.78,6.78,0,0,1,0-1.8c-.17-7.6,2-15.3-.35-22.9-.62-2,.27-4,1.06-5.7,3.27-6.8,3.8-14.1,3.63-21.5A67.9,67.9,0,0,1,108.73,378Z"/><path class="cls-21" d="M133.75,402c.09-.3.44-.7.35-1-.35-4.3,1.51-8.2,1.51-12.4a53.81,53.81,0,0,1,.88-10.7c.71-3.1,1.42-6.3.18-9.5a3,3,0,0,1,.88-3.4c3-8.4,6.1-16.7,6.81-25.9.35-4.4,2.39-6.8,6.1-6.8,3.19,0,5.4-1.5,7.61-3.8,3.44-3.6,5.48-3.3,8.4.9.62.9.88,2.1,1.68,2.6,8.93,5.4,7.25,15.1,7.34,23.8.08,7.1.61,14.1.08,21.2a5.46,5.46,0,0,0,1.86,4.7,29.78,29.78,0,0,0,3.27-11.5c.89-8.9,4.51-17,5.75-25.7.53-3.5.18-7.4,3.18-9.9a20.07,20.07,0,0,1,0,13.1c-.09,3.4.09,6.8-.79,10.2a11.87,11.87,0,0,0,.26,7,11,11,0,0,1-.88,9.4c-1.95,3-1.06,6-.53,8.7a56.52,56.52,0,0,0,1.41,6.8c1.51,5,0,9.3-2.56,13.2-3.18,4.9-3.8,10.5-3.72,16.3,0,1.8.45,3.6-.7,5.2-1.77,2.4-2.12,5.2-2,8.2a5.07,5.07,0,0,1-.79,3.6c-.45.5-1,1.1-1.51,1.2-1,.1-1.32-.9-1.41-1.8a43.33,43.33,0,0,1-1-5.8c-.45-9.4-1.51-18.8-1-28.2a15.68,15.68,0,0,0-1.77-8.3c-.44-1-1.14-1.8-1.06-3,.18-4.3-.88-7.1-5.3-6.8-1.77.1-1.95-3.9-4.25-2.3-1.68,1.1-.7,3.4-1.32,5a3.56,3.56,0,0,1-2.39,2.5c-1.41.3-1.86-1.1-2.39-2.2-.7-1.6-1.41-3.3-2.21-4.9-1.68-3.3-3.45-3.8-5.66-1.2-2,2.5-4.06,5.2-4.42,8.8-.53,4.7-2.92,8.7-3.71,13.3-.62,3.6-3.63,2.8-5.93,2.9A2.92,2.92,0,0,1,133.75,402Z"/><path class="cls-25" d="M185.83,653.7A12.24,12.24,0,0,1,185,659c-2.3,5.6-5.22,6.9-10,4.3a34.37,34.37,0,0,1-4.78-3.6c-5-4-10.08-8-15.21-12-3.71-2.9-4.95-7.8-7.25-11.9-.8-1.5,1.15-2,2.48-2,3.09-.2,3.36-.8,1.68-3.5a12.79,12.79,0,0,1-1.77-3.1c-.8-2.7-1.68-4-4.87-2.2-2.82,1.6-6.18-.9-8.84-2.8-1.32-1-2.12-3-3.89-3.7a1.85,1.85,0,0,1-.62-1.4c.45-6.1-3.18-11-4-16.7,1.86-1.9,2.21-4.1,1.33-6.8a19.42,19.42,0,0,1-.18-13.6c1.86-5.1,0-10.7-.53-16.1a10.16,10.16,0,0,1-.35-1.5,6.4,6.4,0,0,1,.26-3.6,13.74,13.74,0,0,1,1.86-2.7l.53-.3c2.48,4.6,5.31,9,7.25,13.9a15.12,15.12,0,0,1,.8,8.4,2.76,2.76,0,0,0,.44,2.5c4.51,5,4.69,5.5,6.1,11.3a11.59,11.59,0,0,0,3.54,5.7c1.5,1.5,2.56,3.1,1.5,5.7s.53,5.3,1.15,7.8a2.38,2.38,0,0,0,2.83,2.1h.09c2.83-.9,3.8,1.1,4.16,3.6.88,6.1,4.42,10.3,7.78,14.5a1.64,1.64,0,0,0,1.23.6c3.54-.8,4.6,2.2,5.93,4.8.71,1.4,1.41,3,2.74,3.6C182,642.8,184.5,647.7,185.83,653.7Z"/><path class="cls-16" d="M316,652.7l1,1.1c0,3.4-.26,6.9,3.89,7.6a2.79,2.79,0,0,1-2,2.7,37.53,37.53,0,0,0-6.28,2.4c-2,1.2-3.53-.9-5.3-1.6a5.52,5.52,0,0,0,4.95,4.9,61.62,61.62,0,0,1,7,1.8c.27,1.2-.35,1.6-.7,1.5-4-1.4-7.7-.5-11.5,2,1.86,2.4,4.78,3.9,6.1,6.9-3.62.4-3.62.4-3.09,4.1a16.66,16.66,0,0,1,.17,2.2c0,1.2.36,2.7-1.06,3.2-1.06.4-1.76-.5-2.56-1.1-3.27-2.8-6.37-5.9-10.7-6.4a2.7,2.7,0,0,1-2-2.7c-.27-2.8-1.24-3-3.81-3-3.53,0-7.34-.8-9.72-4.9-.89-1.5-1.06-2.5-.09-3.8a18.45,18.45,0,0,0,2.74-7.8c-3.89-.4-6.63-3.4-9.81-5.3a6.34,6.34,0,0,1-3.19-3.9,7.35,7.35,0,0,0-3.62-4.8c-1.86-1.2-2.21-2.7-1.06-4.9,1.85-3.7,1.76-3.8-2.83-5.1a4.4,4.4,0,0,0-.27,1.5c0,1.3,1.68,3,0,3.8-1.5.7-2.39-1.3-3.09-2.6a11.39,11.39,0,0,1,.79-2.5c1.59-3.2,2.74-5.7-2.47-4.8-2.21.4-4.16-1.4-3.1-4.7,1.24.1,2.65-.2,3.8.2a8.73,8.73,0,0,0,6.55.1,4.15,4.15,0,0,1,5.74,2.5,10.22,10.22,0,0,0,3.28,3.9,1.59,1.59,0,0,1,.61,2c-.08.1-.08.2-.17.3-.53.8-1.15.3-1.68,0a5.89,5.89,0,0,0-1.68-1,1.66,1.66,0,0,0-1.24.6,1.06,1.06,0,0,0,0,1.4l.09.1c4.15,3.3,5.83,9.6,11.85,11.2a29.88,29.88,0,0,1,11.14,5.9c2,1.7,4.95,2.2,7.43,3.4,1.94.9,4.06.8,5.92,2.1,2.65,1.8,5.75,2,8.14-.2s1.94-5.4,1-8.5Z"/><path class="cls-26" d="M128,519.7c-1.59-3.7-.53-8.1-2-11.9-.27-.6.26-1.5.09-2.1-.53-2.3,3.27-2.5,1.94-4.9a5.77,5.77,0,0,1-.53-5.1,1.81,1.81,0,0,0,.18-.5c-4.25-5.4-1.59-11.7-1.77-17.5s-1.33-11.5-.62-17.2c.71-5.9-.35-11.6.18-17.4.09-.7-.09-1.5.44-2,.88-.8,1.5-.1,2,.6.89,1.3,1.6,2.8,3,.6,1.24,3.9.71,7.7.27,11.7a139.12,139.12,0,0,0-.45,20.1c.09,2.2-1.23,3.5-2.65,4.9-1,1-2.48,2.9.8,2.7,1.5-.1,1.94.8,2,2.3,0,2,.53,4.2-.09,5.9-1.5,4.6.71,9.7-1.59,14.1,1.5,3.6-.8,7.7,1.15,11.4C131.8,518.3,129.42,518.7,128,519.7Z"/><path class="cls-27" d="M254.27,628.7c1.42,3.5,1.42,3.5,4.6,2.5,2.21-.7,3.09,1.3,4.15,2.7s.18,2.1-1.06,2.6c-1.68.7-.35,4.3-3,4.1-2.74-1.8-4.42-4.7-6.1-7.5-2.83-4.8-6.9-8.3-10.26-12.5-2.57-3.3-4.07-7.4-7-10.3-.79-.8-.62-2-.88-3-.35-1.2-.62-3-1.42-3.3-3.71-1.7-4-6.2-6.36-9-2.12-2.5-1.68-4.6.44-8,1.68.1,1.86,1.9,2.39,3a20,20,0,0,0,5.3,7.3c2.48,2.1,3,6.1,4.95,9.1C245.07,613.6,248.7,621.9,254.27,628.7Z"/><path class="cls-28" d="M174.25,686.4c.35-2.7.88-5.5-1.86-7.4,3.8-2.9,7.52-4.1,12.2-2.1a6.41,6.41,0,0,0-5.39-4.5c-2.48-.4-3.54-1.9-4.6-5.6,2.57,1.9,4.16,2.1,5.84.5,1.15-1,3-1.2,4.51-1.6a3.15,3.15,0,0,0,2.65-3.3c.8.9,1.86,1.6,2.3,2.7.88,2,1.77,3.3,4,2.5,2-.7,2.74,1.4,3.71,2.6.53.6.44,1.7-.09,1.9-2,.7-2.3,2.3-2.47,4.4a1.81,1.81,0,0,1-1.77,1.9,1.52,1.52,0,0,1-.71-.2,8.25,8.25,0,0,0-3.8-.6c-1.33.1-2,.5-1.77,2.3.35,2.5-1.15,2.1-2.3,1.4-1-.6-1.77-1.5-3-1.5-2.83,0-4.34,2.2-4,5.4.17,1.1.08,2.2.17,3.2C176.28,689.1,175.4,687.6,174.25,686.4Z"/><path class="cls-14" d="M217.31,560.3c-.53,1.2-1.06,2.6-2.74,2.3s-3.18-.8-4.07-2.5c-1.59-2.9-3.18-6-3.27-9.5-.09-1.8-.18-3.1-1.24-4.3a3.84,3.84,0,0,1-.79-3.5,2.14,2.14,0,0,1,1.5-1.9c.79-.2,1.15.5,1.41,1.2a11.54,11.54,0,0,0,3.63,5,1.92,1.92,0,0,1,1,1.8,11.86,11.86,0,0,0,3.8,9.5A1.9,1.9,0,0,1,217.31,560.3Z"/><path class="cls-29" d="M186.8,717c-3.18.7-6.27,1-8.93-1.7-1.94-2-2.12-3.8-.17-5.8a6.23,6.23,0,0,1,4.24-2.2c2.56.2,4.69-1,6.81-2.3.88,3.4-.89,6.1-1.86,9A3.94,3.94,0,0,0,186.8,717Z"/><path class="cls-14" d="M216.87,565.8a3.15,3.15,0,0,1,1.15.8c2.65,4.2,5.57,8.2,7,13.3.36,1.4.44,2.7-1.06,2.9-1.32.1-3.62,1.9-4-.8-.35-3.4-2.56-5.3-4-7.8a9.25,9.25,0,0,1-.88-6.7A1.81,1.81,0,0,1,216.87,565.8Z"/><path class="cls-22" d="M174.25,686.4c1.77-.4,2.74,1,3.89,2.2l1,1.1c.35.2.44.5.35.7s-.26.4-.35.4a6.18,6.18,0,0,0,4.42,3.7,2.71,2.71,0,0,1,2.21,3,6.29,6.29,0,0,1-2.12,4.6,1.29,1.29,0,0,1-1.94-.3c-.09-.1-.09-.2-.18-.3-.89-1.7-2.21-3.1-2.65-5.1-.27-1.3-1-2.5-2.3-2-2.48,1-3-.7-3.54-2.8a16,16,0,0,1-.8-4.2A1.73,1.73,0,0,0,174.25,686.4Z"/><path class="cls-26" d="M133.75,402v3.3c1.68,11.1-1.95,22-1,33.1a3.75,3.75,0,0,1-1.95,4c.27-4.6,1.59-9,.27-13.7-.62-2.1.44-4.9,1-7.3a25.26,25.26,0,0,0,.18-10.6A15.5,15.5,0,0,1,133.75,402Z"/><path class="cls-29" d="M179.11,690.8v-1.1c1.59,0,3.18.1,4.78,0a6.21,6.21,0,0,1,6.19,4.9c1,2.9,1.85,6.7-1.42,9.2-.18-2.1-1.59-4.1.53-6.4,1.33-1.5-2.47-6.3-5.39-6.6A36.69,36.69,0,0,0,179.11,690.8Z"/><path class="cls-29" d="M198.39,721.3c-2.21.1-4.34-.2-6.55.4-3.53,1-3.62.9-4.06-3.7,1.06,1.7,1.59,3.5,4.33,2.4C193.88,719.8,196.44,719.3,198.39,721.3Z"/><path class="cls-21" d="M195.38,386.9c-.09,1.1-.26,2.3-1.41,2.4a1.16,1.16,0,0,1-1.15-1.2v-.2c.09-1.2.26-2.7,1.77-2.7C195.38,385.2,195.38,386.2,195.38,386.9Z"/><path class="cls-25" d="M129,548c1.6,2.2.89,5.2,1.95,7.6h0c-2.12.5-2.48-1.3-2.92-2.9a11.61,11.61,0,0,1,0-2.5A3.14,3.14,0,0,1,129,548Z"/><path class="cls-21" d="M192.73,379.7c.18-.3.35-.9.44-.8,1,.2,1.24,1,1.24,2,0,.3-.36.9-.44.8A1.82,1.82,0,0,1,192.73,379.7Z"/><path class="cls-24" d="M129,548v2.2c-2,0-1.76-1.8-1.94-3.2.26-1.2.35-2.5,1.94-2.3h0Z"/><path class="cls-29" d="M200.33,722.4a1.91,1.91,0,0,1-1.94-1.1A1.91,1.91,0,0,1,200.33,722.4Z"/><path class="cls-16" d="M313.07,682.1l1,1.1Z"/><path class="cls-29" d="M187.78,718l-1-1.1Z"/><path class="cls-22" d="M103,450c1.32,2.4.88,5,1,7.6-4.07,2.9-5,2.5-7.87-1.1a14.92,14.92,0,0,1-3.62-10.8c-.8,4-3.19,5.9-6.28,7.2a6.81,6.81,0,0,1-9.55-5.6,66.15,66.15,0,0,0-2.3-10.4,14.37,14.37,0,0,1,.88-8.4c-2,3.9-5.57,5.6-8.75,7.7-1.68,1.1-3-.3-4.24-1.5-3-2.9-4-6.8-3.9-12.1-4.15,4-8,6.1-12.46,1.5-1.06,4.3.17,8.7-2.66,11.8-.61-.1-1.41-.2-1.32-1.1,1.59-8.7,1.41-17.5,1.24-26.3a79.89,79.89,0,0,0-1.15-12c-.27-1.4.35-1.9.88-2.7a13.88,13.88,0,0,0,2.21-12.6c-.62-1.9-.18-3.5.35-5.6.89-3.5.54-7.4.62-11.1.09-4.2,0-8.3,0-12.5-.08-8,1.51-15.9,2.21-23.8.18-2.1.45-4.4,2.21-5.8a1.23,1.23,0,0,1,1.42,0c1.59,5.7,1.59,11.7,2,17.6.45,5.5.62,5.7,4.78,3.1,5-3,11.94.3,14.59,6.9,2.56,6.3,2.39,13.1,2.74,19.7.44,8.3.44,16.6,1,24.9.36,5.2,2.74,10,2.39,15.4.62-7.7,2.74-14.9,4.24-22.2,2.66-12.3,5.4-24.5,11.68-35.3.53-.9,1.15-1.9,2.21-1.8,1.23.2,1.85,1.3,2,2.7.27,2,.35,4,.53,6,.09,1.5.09,3,1.68,3.4.44,6.9.53,13.9,2,20.7,1.76,2.5,1.76,5.6,1.23,8.3a31.66,31.66,0,0,0,.18,13.8c-1.33-9.4.53-17.9,2.39-26.4l1-1.1c-1.15,11.8-.62,23.7-1.94,35.5-.18,1.3-.36,2.6-1.24,3.4-2,1.8-1.33,5.2-3.1,7.2a1,1,0,0,0,0,1.2c.09.1.09.1.18.1,4.24,1.5.44,5.5,1.86,7.8-2.13,3.1-.53,6.5-.62,9.8-.09,2,0,4-1,5.8a.62.62,0,0,0-.26.7A1.1,1.1,0,0,0,103,450Z"/><path class="cls-30" d="M51.87,322.5h-1a27.34,27.34,0,0,1-1.33-15.3c.8-3.4,1-5.6-2.48-6.6-2.56-.7-2.56-3.4-3.18-6.1-2.92,2-4.68,4.1-4.95,8-.35,6.5-3.27,12.4-3.8,19-.27,3.1-2.57,4.4-5.4,2.3-7.42-5.2-10.16-4.4-14.5,4.5a27,27,0,0,0-2.74,9.8,15.58,15.58,0,0,1-1.77,6.7c-1.5,2.6-3.18,3.7-5.21.5V257a19.35,19.35,0,0,0,2.38-.3c3.63-.9,4.87-.2,6.37,3.4,1.59,3.9,1.86,3.9,4.51,1a9.22,9.22,0,0,0,2.3-4.6c.79-4.2,1.86-8.4,2.92-12.6.53-1.9,1.23-3.7,3.09-4.5.71-.3,1.42-.8,2.3-.3,4.69,2.6,8.05,6.3,8,12.8a28.43,28.43,0,0,0,2,10.5,20.4,20.4,0,0,0,2.83-11c0-4.9-.26-9.8,1-14.5.71-2.6,2.13-4.9,2-7.7,0-1.5.88-2.2,2.3-1.8l2.38.3c3.19.5,5.66-.5,6.72-4.3.89-2.9,2.48-4.6,5.49-3.3a1.61,1.61,0,0,0,1,0c4.42-.1,4.42-.1,3.45,5-.62,3.4-.18,6.9-.27,10.3a3.89,3.89,0,0,1,0,5.2l-.17.2c-3,3.2-2.92,7-2.66,11-1.23,3.7-2.83,7.3-2.3,11.4a3.07,3.07,0,0,1-.61,2.6c-5.13,4.3-4.43,11-4.6,16.8-.27,10.9-1.77,21.6-2.48,32.4C53.37,317.5,54,320.4,51.87,322.5Z"/><path class="cls-31" d="M5.62,345.4c2,1.4,3.63,1.4,4.51-1.5a25.58,25.58,0,0,0,1.24-5.2c.53-6.1,1.68-11.7,6.37-15.6a1.51,1.51,0,0,0,.53-.9c1-1.8,1.5-4,4-4.1a7.86,7.86,0,0,1,6.54,2.8l1.33,1.5c.7.7,1.24,2,2.3,1.5a3.48,3.48,0,0,0,2-3.4c-.27-5.4,1.42-10.3,3.27-15.1.18-.5.53-1.2.36-1.5-2.3-5.6,2.56-7.5,4.33-10.9a1.85,1.85,0,0,1,2.56-.8A2.08,2.08,0,0,1,46,294.7a.38.38,0,0,1-.08.2c-1.24,3.5.17,4.4,3,4.8s4.16,3.7,2.48,6.5-1.24,4.8-.71,7.6.18,5.8.27,8.7c-1.24,4.8-2.57,9.5-2,14.6a4.15,4.15,0,0,1,.09,1.1c-1,4.6-1.95,9.2-2.83,13.8-.09-.4,0-.8-.26-1-1.51-1.7-2.22-4.8-5-4.3-3.1.6-4,4.1-4.07,6.6a26.62,26.62,0,0,1-3.45,11.6c-1,1.7-1.86,3.8-1,6.1a3,3,0,0,1-.18,2.6,5.21,5.21,0,0,0,.18,6.4,3.78,3.78,0,0,1,0,2.6,2.5,2.5,0,0,1-1.24,1.5,1.13,1.13,0,0,1-1.42-.9v-.1c-1-3.3-3.09-4.4-6-4a3.75,3.75,0,0,1-1.41-.4c-5.13-1.9-5-1.8-7.79,3.1-2.56,4.5-4.5,9.1-4.06,14.7a9.46,9.46,0,0,1-.8,3.1c-.62,1.4-1.41,3.3-3,2.9s-.89-2.5-.89-3.8C5.54,380.9,5.54,363.1,5.62,345.4Z"/><path class="cls-32" d="M60.54,608c-2.66-4.5-3.19-9.9-3.63-14.9-.71-8.3-3.36-16-4.6-24.2-.62-4.1-1.59-8.1-2.39-12.1-1.59-2.9-.88-6.3-1.59-9.5-.62-2.7,1.06-4.5,3.63-4.6a7.61,7.61,0,0,0,6.19-3.6c2-2.9,3.71-2.5,5.13,1,.7,1.8.88,3.9,1.59,5.7,1,2.8,2.47,3.7,4.77,1.6a17.56,17.56,0,0,0,4.51-5.6c.71-1.5,1.42-3.7,3.54-2.7,1.68.8,1.94,2.7,1.86,4.6a20.22,20.22,0,0,0-.09,3.3c.35,2.3,1.32,4.9,3.18,4.9,4.25.1,8.58,1.4,12.73,0,2.21-.7,3.72-2.8,4.6-5.3a12.35,12.35,0,0,1,4.42-6.3c.36-.3.71-.5,1.06-.8,1.33-1.1.62-2.5.45-3.8a20.69,20.69,0,0,1,.17-7.4,2.69,2.69,0,0,1,1-1.3c2.12.5,1.85,2.5,2.12,4.2.09,2.2.71,4.4.88,6.7a22.1,22.1,0,0,1-.26,4.8,5.37,5.37,0,0,1-.45,1.3l-.26.6a3.8,3.8,0,0,0-.71,2.2,3.19,3.19,0,0,0,.36,1c.26.3.44.6.7.9.09.2.27.3.36.5a4.49,4.49,0,0,1,.62,1.1,7.83,7.83,0,0,1,.35,1.3c-.09,2.6-.44,5.2-.27,7.8a3.38,3.38,0,0,1-.61,1.3c-2,2,.08,3.9.08,5.9a45.45,45.45,0,0,1-.17,6.9l-.27,1.5c-.62,7.6-4.86,13.3-8.22,19.3-2.57,4.5-5.75,4.5-9.29.9-2.91-2.9-6.8-4.8-7.78-9.9-.35-1.8-1.77-1.3-2.47.1a22,22,0,0,1-4.16,5.9c-2.92,2.9-4.51,2.7-6.63-.9-.71-1.2-1.24-2.6-2-3.7a2.17,2.17,0,0,0-1.94-1.4c-2.3,0-7.43,7.6-7.34,10.3C59.83,599.7,62.83,603.6,60.54,608Z"/><path class="cls-33" d="M43.2,435.8a48.12,48.12,0,0,0,1-11.8,1.88,1.88,0,0,1,1.15-2.1c.62-.2,1.15.3,1.68.8,4.33,4.1,5.66,4,9.46-.6.62-.8.88-2.3,2-1.9s1.15,2,1.15,3.3v3.3c.09,3.4,2.12,5.5,4.07,7.7,1.15,1.3,2.12,1.2,3.27.1,2.92-2.9,7.16-4.2,8.4-9.2a1,1,0,0,1,1.24-.8c.09,0,.18.1.35.2a1.72,1.72,0,0,1,.62,1.9,4.15,4.15,0,0,1-.44.9c-3,4.8-2.21,9.6.09,14.2.7,1.5,1.32,2.5.26,4.3s.89,2.8,1.77,3.9c3.71,4.3,3.1,3.5,6.81,1.5,2.48-1.3,5.13-2.2,4.42-6.4a1.67,1.67,0,0,1,1.24-1.9h.09c.88-.1,1.41.8,1.85,1.5a3.27,3.27,0,0,1,.45,1c.62,2-.62,3.9-.45,5.8.18,2.2,3.36,1.3,3.45,3.9.18,3.4,2.12,3.5,4.42,2.8a9.64,9.64,0,0,0,2.3-.6v7.6c1.59,3.9.89,7.7-.17,11.5-1.15,1.2-1.24,2.7-1.15,4.4.44,4.9-2.66,10.7-5.49,10.7-2.38,0-5.92-6.8-5.74-11,.08-1.5.7-2.8.7-4.8-1.59,1.8-2.12,3.9-3,5.7-1.15,2.6-2.83,4.4-5.66,4.1a6.52,6.52,0,0,1-5.84-4.9c-1.41-4-1.85-8.2-2.65-12.7a28.94,28.94,0,0,1-8.31,8.3c-4.07,2.5-6.37,1.3-7.25-3.8-.18-.9-.09-1.8-.27-2.7-.26-1.9.09-4.6-1.68-5.4s-2.21,2.1-3.45,3.2a9.8,9.8,0,0,1-4.77,2.5c-3.27.5-3.89,2.7-4.07,6.1-.44,10.7,1.77,21.2,1.95,31.9a6.94,6.94,0,0,1-.8,3.3,1,1,0,0,1-1.41.3A131.12,131.12,0,0,0,42.59,490c-.89-4.5-.54-8.9-.89-13.4-.18-1.7.35-3.6-.35-5.3a2.33,2.33,0,0,1,.17-2.5c2.39-2.8,1.42-5.8.36-8.6-1.68-4.5-.18-9.4-1.59-13.9,1.94-2.3,1.32-5.5,2.3-8.1A3.58,3.58,0,0,0,43.2,435.8Z"/><path class="cls-34" d="M46,512.1v-3.3c1.15-1.2,2.39-.9,3.54-.2,3.1,2,4.78.6,5.93-2.8.7-1.9.7-4.8,3-5,2.65-.2,3.45,2.8,4.6,4.9a44.77,44.77,0,0,1,1.59,4.5c1.59,4.1,3.71,4.5,6.37,1,1.85-2.4,2.56-5.4,3.45-8.3.44-1.5.7-3.5,2.65-3.2,1.68.3,2.3,2,2.3,3.7a66.73,66.73,0,0,0,1.41,11.8c.71,3.7,2,5.1,5.75,3.6,3.54-1.4,7.52-.7,11.23-.3,2.48.2,3.27,3.6,4.33,6.1,2.21,5,1.15,10.8,3.54,15.7a16,16,0,0,0-5,7.6c-1.59,4.9-5.92,6.9-10.52,5.6a6.85,6.85,0,0,0-4.25-.1c-5,1.4-8.75-2.5-8-8.3.26-2,1-3.8-1-5.3-1.5.4-1.76,2-2.21,3.2-1.23,3.7-4.6,4.9-6.72,7.6-.62.7-1.5.4-2.12-.2a10,10,0,0,1-2.74-4.9c-.62-2.6-.27-5.9-2.92-7.7-1.94,3.8-3.89,7-8.49,6.2-2.12-.4-3.36,1.3-2.65,3.8.8,3,.18,6.1.8,9a4.22,4.22,0,0,1-1.68-3.1c-.8-6.9-1.42-13.9-2.13-20.9-.35-5.1-1.32-10.1-1.41-15.2A8.35,8.35,0,0,1,46,512.1Z"/><path class="cls-35" d="M60.54,608c.08-4.8-1.68-9.2-2.39-13.8-.44-2.8-.62-4.4,2.21-5.3s4.42-4,6.1-6.6c3.27,1.4,4,4.7,5.39,7.5,1.68,3.3,2.13,3.4,4.6.8,1.86-2,3.72-4,4.42-7A1.87,1.87,0,0,1,83,581.9a2.23,2.23,0,0,1,2.48,2.1c0,7.1,6.19,8,9.29,12,1.14,1.6,4.77.3,5.92-2.6,2.39-6.2,7.43-11,7.6-18.4,0-.3.45-.5.62-.8,3.19,2.4,3.45,6,2.83,9.7a32.48,32.48,0,0,0,.71,13.4,3.83,3.83,0,0,1-.44,2.6c-.09.2-.18.3-.27.5a3.46,3.46,0,0,0-.35,1,1.56,1.56,0,0,0,.26.9c.36.3.8.6,1.24.9a3.57,3.57,0,0,1,.89.8,5.22,5.22,0,0,1,.62,1.2,4.07,4.07,0,0,1,.26,1.4c.09,3.6-.8,6.5-4.07,7.8a3.82,3.82,0,0,0-2.3,3.8c.09,4.7-2.3,8.2-4.33,11.9-1.77,3.3-3.8,3.5-5.48.2-2.83-5.4-7.43-9.6-8.49-17-2.48,3.4-2.48,7-3.89,10-3.1,6.5-5.22,6.9-9.37,1.2-1-1.3-1.77-3-3.45-2.2a6.66,6.66,0,0,0-3.89,5.7c-.18,2.1.62,4.4-1.06,6.2-1.6-2.2-.53-5.5-2.13-7.5-3.53-4.6-3.27-10.7-5.3-15.9A10.42,10.42,0,0,1,60.54,608Z"/><path class="cls-36" d="M89.45,689.7c-.18-.1-.35-.1-.44-.3-2.83-7.1-8.05-12.9-9.2-20.8-.44-2.8-2.65-4.5-2.92-7.2-1.85-5-2.47-9.9.45-14.8,2.21-3.7,3.44-4,6.19-.6,3.18,3.8,4.5,3.6,6.45-1.1a21.52,21.52,0,0,0,1.15-4.7c.26-1.8.71-3.7,2.65-4,1.77-.3,3.1.9,4,2.5,1.77,3.2,4.25,5.9,5.31,9.6.44,1.4,1,2.9,2.56,2.6s2.12-1.6,2.39-3.1c.53-3.2,1.32-6.4,1.15-9.7-.18-3,.71-4.9,3.62-5.1s3.28-2.4,3-5c-.18-2-.35-4-.71-5.9-1.15-5.8-1.32-11.6-1.59-17.5l-1-1.1c-.53-.7-1.42-.5-2-1.1a1.72,1.72,0,0,1,0-2.2h0l1-1.1c.7-.6.17-2.2,1.41-2.4,3.45,3.1,5,6.3,4.78,12.1-.09,4.8,3,10,1.76,15.5,5.22,5.8,4.78,13.3,4.78,20.7,0,2.9,1.24,5.6,2.3,8.2a23.36,23.36,0,0,1,1.77,8.9,5.6,5.6,0,0,0,.61,2.1,20.94,20.94,0,0,1,.89,2.1,17.19,17.19,0,0,1,.18,5.6c-.09.5-.18,1.1-.27,1.6-.53,1.5-.53,3.2-1.68,4.4-3-1-2.74-4.4-3.8-6.8-.62-1.4-.62-3.2-1.42-4.6-1.32-2.3-3.09-5.1-5.48-4.4s-.79,3.8-.79,5.7c0,9.9.53,19.7,4.24,28.9a8.68,8.68,0,0,1-.88,3.7,1.48,1.48,0,0,1-1.15.7,2.71,2.71,0,0,1-1.24-.5c-.18-.1-.36-.3-.53-.4a8.58,8.58,0,0,1-1-.9,3.47,3.47,0,0,1-1.07-2.4,8.12,8.12,0,0,0-.17-2.5l-.53-1.2c-1.51-3.8-4-3.4-6.72-2.1-2.66-2-1.68-4.4-.36-6.5a7.31,7.31,0,0,0,.71-7.1c-1.59-3.6-3.09-7.4-5.48-12.1-.09,4.4-1.15,7-3,9.4s-3.36,4.4-6.81,2.6c-2.65-1.4-4.33,1.3-3.71,5.2C89.1,684.9,91,687.1,89.45,689.7Z"/><path class="cls-37" d="M113.5,604.7c.09.1.35.2.35.4.54,5.5,1.68,10.9,2.48,16.4.35,2.3.62,4.6,1,6.9.62,4.6-.62,6-4.68,5.9-2,0-2.57.8-2.13,3,.8,3.8-1,7.4-1.06,11.2a5.29,5.29,0,0,1-1.94,3.7c-2.12,1.9-4.95,1.4-5.22-1.6-.35-5.1-4.6-7.3-5.66-11.7a2.6,2.6,0,0,0-3.18-1.8c-1.06.3-1.15,1.6-1.15,2.7.18,3.7-1.59,6.5-3.18,9.4-1.33,2.6-2.75,1.9-4.34.7a10.06,10.06,0,0,1-2.65-3.8c-1.41-2.6-2.3-2.5-3.54.3-1.68,4-3.89,8-1.85,12.7a6.41,6.41,0,0,1,.09,2.2c-3.9-8.7-6.37-17.9-8.67-27.2,0-1.3.35-2.7-.09-3.8-1.68-4.4,1.15-6.6,3.27-9,2-2.3,3.89-1.9,5.49.9,1.14,2.1,1.68,5.2,4.42,5.1s2.74-3.6,3.89-5.6c1.41-2.3,1.32-5.2,2.12-7.7.35-1.2.18-2.7,1.77-2.6,1.41.1,2.92,1.5,2.65,2.6-1.15,5.6,3.71,7.5,5,11.5a4.23,4.23,0,0,0,1.24,1.6c1.24,1.2.44,4.5,3,4.3,2-.2,1.51-2.9,2.57-4.2a15.92,15.92,0,0,0,3.27-9.8c0-1.8-.26-5.3,3.63-4.6,2,.4,2.47-2.8,2.83-4.9A7.77,7.77,0,0,0,113.5,604.7Z"/><path class="cls-38" d="M89.45,689.7c-.71-2.8-1.42-5.6-2.3-8.3a3.8,3.8,0,0,1,.53-3.5c2.48-3.8,2.48-3.9,6.19-1.3,1.24.9,2.21.8,2.83-.5,1.68-3.4,5.84-5.7,3.89-10.8-.26-.6.44-1.3,1.06-1.6a1.42,1.42,0,0,1,1.95.8h0c1.85,4.3,3.8,8.6,5.39,13,1,2.7,1.15,5.5-1.41,7.8-1.6,1.4-1.42,3.5,0,5.2,2.56-.5,2.56,2.1,3.36,3.6.17.4.35.9.53,1.3.26.6.53,1.3.88,2,.89,2.5,2.12,4.8,2.48,7.5-.27,4.4-2.83,2-4.51,1.9-1.95-.1-4.25-2.6-5.66,1.1-2.48.5-3.89-1.4-5.13-3.2-3.18-4.5-6-9.2-9.64-13.3C89.63,691.3,89.63,690.4,89.45,689.7Z"/><path class="cls-38" d="M120.31,697.3c-2-3.7-2-8.4-4.51-11.9a4.5,4.5,0,0,1-.27-2.6c1.15-5.3-.53-10.6-.08-16,.17-1.5-.45-2.8-.71-4.2-.35-2.4.88-3.6,2.74-2.8,3.89,1.8,7.07,4.3,7.6,9.5.36,3.1,1.86,5.6,2.92,8.3,2.39,2.7,2.12,6.7,3.8,9.8a3.9,3.9,0,0,1,.45,1.1c-.36,1.2.26.7.7.5a2.9,2.9,0,0,1,1.07.6,5.33,5.33,0,0,1,.35,4.9c-1.33,1.2-1.68,2.7-2,4.5-.35,2.3-1.5,1.9-2.47.3h0a5.44,5.44,0,0,0-1-1.1c-1.23-2.9-3.09-5.5-3.89-8.7l-1-1.1h0c-1.86-1.8-2-4.7-3.8-7.3a75.37,75.37,0,0,1,3.27,15.4C121.81,699.4,121.37,699.5,120.31,697.3Z"/><path class="cls-39" d="M123.14,696.2c-.89-4-1.59-8.1-3.27-11.8a10,10,0,0,1-.27-6.3A18.19,18.19,0,0,1,124,688.6a2.46,2.46,0,0,0-.88,2.8c1.86,3.6,1.5,7.5,1.77,11.4-2.92,6.3-5.75,1.8-8.67,0h0c-2.39-2.4-4.6-4.8-3.09-8.9a1.58,1.58,0,0,1,2.12.2h0a1.59,1.59,0,0,1,0,2.1h0a2.32,2.32,0,0,0,1,2.2,12,12,0,0,0,1,1.1h0c.27.4.71.7,1,1.1h1C121.11,699.8,122.87,698.8,123.14,696.2Z"/><path class="cls-40" d="M104.84,708.2c.35-3.7.26-3.6,3-2.9,1.77.5,3.63.6,5.4,1.4,1,.4,1.15-.9,1.23-1.8.36-.5.62-.5,1,0h0c.88.9.08,2.4,1,3.3,1.15,1.5,1.77,3.4-.89,2.6-2.29-.7-5.12.2-6.8-2.8C107.75,706.3,106.16,707.6,104.84,708.2Z"/><path class="cls-28" d="M116.42,702.8c2.21-.4,3.45,1.1,4.77,3.3,1.15-1.8,1.77-3.9,3.89-3.3.62,3.1-.44,6.1-2.47,7a2,2,0,0,1-2.57-1.3c0-.1-.08-.2-.08-.3C119.43,705.8,117.48,704.7,116.42,702.8Z"/><path class="cls-41" d="M130,699.5c2.12.9,2-.2,1.59-2-.71-2.6.09-3.4,2.3-2.4,1.59,3,3.18-.1,4.77,0v3.3c-.88,2.1-1.68,4.5-4.42,2.2-.62-.5-.88-.1-1.41.4C131.27,702.6,131.19,702.5,130,699.5Z"/><path class="cls-28" d="M115.45,705h-1a18.55,18.55,0,0,1-2.91-7.6c-.36-.3-.62-.8-1-1.1v-1.1c.27-2.6,1.59-1.9,2.92-1.1-.53,3.5,2.48,5.6,2.92,8.7A2.42,2.42,0,0,0,115.45,705Z"/><path class="cls-40" d="M46,512.1c-2.12,6.9.62,13.8,0,20.7-1.76-3.7-.88-8-1.85-11.9-.53-2.2.09-4.6-.45-6.9-.26-1,.62-1.5,1.33-1.9Z"/><path class="cls-28" d="M116.42,708.2c-1.15-.8-1-2.1-1-3.3C116.6,705.7,116.42,707,116.42,708.2Z"/><path class="cls-39" d="M124.2,688.6l1,1.1Z"/><path class="cls-41" d="M129,698.4l1,1.1Z"/><path class="cls-33" d="M51.87,322.5c.62-7.8,1.24-15.6,2-23.3.44-4.8,1.85-9.5.08-14.3,1.86-2.6-1-6.4,1.68-9,.62-.6,1.06-2.9.62-3.5-2.21-3,.18-5,1.51-5.6,2.74-1.1,2.38-3.4,2.29-5.4-.26-3.1-.17-5.9,2.13-8.2.26-.3.17-1,.26-1.5,3,.8,2.21,3.6,2.21,5.7-.09,5.2,2,8.3,6.37,9.5,4,1.1,5.48,4.1,5.3,8.4a37,37,0,0,0,1.42,11.2c1.24,5,2.12,10.3,1.06,15.6-1.5,7.6-.35,15.2-.44,22.8,0,1.7-.27,4.2,1.86,4.4,1.94.2,2.21-2.3,2.82-3.9,2-5.2,2.39-10.9,3.19-16.4.71-5,1.5-9.9,4.07-14.4,1.85-3.2,2.12-7.2,2.74-10.9.53-3.4,1.06-6.8,2.74-9.8,2.56-.8,2.74,1.5,2.39,3-1.15,5.4.7,10.8-.36,16.2-.26,1.3-1.5,5.1,2.48,3.5,1.15-.4,1.24.8,1.24,1.7.08,7-.18,14,.88,20.9.35,2.3-.35,4.7-2.92,4.6s-2.83-2.5-2.39-4.9c.62-3.9,1.42-7.9-.88-11.7,2.56,6.7-1.41,13.4.8,19.9.44-1.2.7-3,2.56-2.6a3.31,3.31,0,0,1,2.56,2.9c.36,3.5,2.13,6.9.8,10.5-1.68,4.1.27,8.1.18,12.1-.09,4.4.35,8.8-1.15,13-1.15.5-.71,2.5-2.57,2.8-.26-3.9-.62-7.7-.7-11.5,0-1.1.26-2.3-1-2.5-.88-.2-1.41.9-1.41,1.8-.09,3-1.86,5-3.36,7a18.52,18.52,0,0,0-3.45,9.9,23.21,23.21,0,0,1-1.59,6.8c-1.42,3.8-3.72,7.2-2.57,11.7.18.7-.53,1.7-.79,2.5-1.68,4.7-3.1,9.5-2.83,14.7.09,2.1-.62,3.9-1.06,5.8-.27,1.1-.89,2.2-2,1.8a2.3,2.3,0,0,1-1.15-2.7c.8-4-.44-7.7-1-11.6-.71-5-2.3-10.2-.79-15.4.7-2.4-1.07-4.5-.71-6.9.71-6.1-.36-12.2-.53-18.2a23,23,0,0,0-4.87-13.2,2.34,2.34,0,0,0-2.12-1c-.79.1-1.68.8-2.3.1-3.18-3.2-5.3-1.1-7.69,1.5-2,2.3-3.63,1.6-4.33-1.6a12.75,12.75,0,0,1-.18-3.2,34.89,34.89,0,0,0-1.06-9.6C51.07,328.8,51.78,325.5,51.87,322.5Z"/><path class="cls-41" d="M179.11,189.5c.71,5.2-.71,9.8-2.92,14.2a9.27,9.27,0,0,1-.62,6.9c-4.95,8.6-5.48,19.3-10.16,28a21.08,21.08,0,0,0-2.48,10.9,11,11,0,0,1-2,6c-1.68,3.3-4.07,6-5.57,9.5-1.51,3.3-3.45,3.2-5.58.2-3.09-4.2-3-9-1.76-13.9a91.89,91.89,0,0,0,2.83-12c-1.95,4.4-4.43,8.7-3.9,13.9a10.35,10.35,0,0,1-1.76,7.6,18.72,18.72,0,0,0-3.1,7.9,94.94,94.94,0,0,1-6.28,19.3c-1.76,4.2-3,4.3-6.72,1.7s-6.36-5.5-3.89-10.8h0c1.06-1.2-.09-3.1,1-4.4h0c2.12-4.4,1.41-9.6,2.91-14.2,1.15-10,4.78-19.3,7.08-29,.79-3.5,1.68-6.9,4.51-9.1,1.15,2.6-.18,7.5,3.8,7.6,3.27.1,3.36-4.3,4.6-6.8a50.84,50.84,0,0,1,3.71-6.9,31.74,31.74,0,0,0,4.78-10.5,104.92,104.92,0,0,1,7.07-18.9A99.28,99.28,0,0,1,169,173.5c.88-2,1.42-4.9,4.33-3.6,2.57,1.1,3.54,5.8,1.51,8.4-2.39,3-4.6,5.9-5.66,9.9-.53,2.1-1.33,4.1-1.86,6.2-.26,1.1-1.15,2.8.27,3.3,1.76.6,1.76-1.5,2.12-2.9a48.32,48.32,0,0,1,1.77-6.2c.53-1.4,1.23-2.7,2.74-2.7s1.59,1.3,1.68,2.7C176.1,191.7,178.14,188.4,179.11,189.5Z"/><path class="cls-39" d="M125.08,278.9a27,27,0,0,1-.26,3.8,2.91,2.91,0,0,0,1.24,3.2c1.85,1.4,4,2.2,5.39,4.4.62,1,1.86.5,2.3-.7.8-2,1.06-4.3,2.12-6,3.1-5,3.72-10.9,5-16.5a20.49,20.49,0,0,1,4.07-8.5c.8-1,1.41-1.9,1-3.3a11.88,11.88,0,0,1,.89-9.8c1-1.7,1-4.1,1.41-6.3s1.68-3.2,3.54-2.5,1.59,3,1,4.1c-1.94,3.3-2,7.2-3.54,10.6-2.47,5.5-.44,10,2.13,14.5a1,1,0,0,0,1.5.4c.09,0,.09-.1.18-.2.53-.4,1.32-1,1.32-1.5.09-4.5,4-6.2,5.48-9.7,1.6,1.8,1.24,4,1.15,6.2-2.56,10.4-6.36,20.3-9,30.6a1.51,1.51,0,0,1-1.6,1.4h-.09c-2.38,7-5.74,13.7-4.86,21.6a9,9,0,0,1-.09,2.2c-.26,1.3-1.06,2.3-2.38,2.2s-1.33-1.4-1.33-2.5c0-1.3,0-2.5-.09-3.8-.09-.9-.35-2-1.33-1.7-2.65,1-4.06-1.4-6.45-2.5-1.06,1.9-2.39,3.7-.62,6.1a2.21,2.21,0,0,1-.09,2.8l-.09.1c-1.23,1.4-.79,3.5-1.5,5.1s-.26,2.6,1.33,3.3c2.38,1,2.38,3.1,1.5,5.3a30.15,30.15,0,0,1-2,3.7c-1.6,2.8-3.54,5-2.66,9.1a7.67,7.67,0,0,1-3.71,8.2c-1-1-1.77-2.4-3-3.1-1.94-1.1-4.15-2.2-6.1.2-.79,1-1.32,2.9-2.92,1.8a4.62,4.62,0,0,1-1.76-4.7c.79-4.2.79-8.6,2.12-12.7a18.15,18.15,0,0,0,.35-3.8c-.44-2.1-.88-4,.27-6.2,1.24-2.5.44-5.6.88-8.4.89-5.2,2.57-10,3.72-15,1.32-5.9,2.65-11.9,4.15-17.7C123.85,281.4,123.93,279.8,125.08,278.9Z"/><path class="cls-36" d="M179.11,189.5a16.07,16.07,0,0,1-1.68,1.9c-1,.8-2,1.2-3.09.2s0-2,.26-2.9c.18-.7.62-1.3-.53-2.3-2.56,2.6-3.18,6.3-3.36,9.9-.09,2.3-.8,2.8-2.3,3.2-3,.8-3.89-.1-2.92-3.6,1.33-4.5,2.74-8.9,4.16-13.3a4.41,4.41,0,0,1,2.48-3.1c1.32-.5,1.68-2.1,2.47-3.2.62-.9-1.15-5.7-2.12-5.9-1.77-.3-1.77,1.5-2.3,2.8-1.77,4.6-3.71,9.1-4.69,14.1-3.89,3.2-8,6-9.37,11.8a3.22,3.22,0,0,1-3.18,2.8c-1.95-.2-2.39-2.1-2.92-3.8-1.77-5.8.35-11,1.95-16.2,3.09-7.6,4.33-16.1,8.31-23.3,1.85-3.3,2.91-7.2,4.15-10.9a4.62,4.62,0,0,1,1.95-2.9c1.85,2.6-.18,4.7-.71,7-.35,1.2-.71,2.5.44,3.4s2.12-.2,2.83-1.1a9.46,9.46,0,0,1,9.11-4.5c3.71.3,5.13-3.1,3.71-7.5-.79-2.6-3.18-5.6,1.15-7.3,1.15,1.9,2.57,3.1,4.69,1.9,1.86-1,2.21-2.9,1.94-4.9a8.87,8.87,0,0,1,0-3.7,9.5,9.5,0,0,1,.45-1.5c1-2.5,1.77-5.1,4.15-6.3,1-.5,2.13-1.2,3.19-.4s.7,2.2.62,3.4c-.36,4.1-.54,8.2-2.3,11.9a12.63,12.63,0,0,0-.62,6.3c-4.25,5.7-3.72,13.2-6.1,20.2,1.85-1.1,1.94-3.3,3.27-4.4s2.47-2.4,4.24-1.6a9.26,9.26,0,0,1-3.45,8.2,15.77,15.77,0,0,0-5.39,9.1c-.62,3.3-3.18,5.7-3.18,9.4,0,1.1-1.33,1.4-2.21,1.7A4.87,4.87,0,0,0,179.11,189.5Z"/><path class="cls-42" d="M103,337.7c.44-3.7-2-6.9-1.59-10.7.09-.8-1.06-1.7-2.39-2.1-1.68,1.5-1.15,5.3-4.69,6a10.84,10.84,0,0,0,.71-8.3c-.35-1.1.09-2.5.27-3.7.53-3.2,1.06-6.2.08-9.5-.7-2.4.36-4.9,1.51-7.3,1.5.8,1.41,2.2,1.24,3.3-.27,1.7-.54,3.2.88,4.4,1,.8.53,1.9.26,3-.44,2.4-.7,4.9-1.32,7.2A2.11,2.11,0,0,0,99,322.6c1.15.9,1.68-.4,2.3-1.1a3.52,3.52,0,0,0,.71-3.1c-1.68-6.9-.45-14-1.07-21-1.32.3-.79,2.6-2.12,2.5-1.59-.1-1.77-1.9-2.21-3.2-.88-2.8.27-5.7.36-8.5.17-5,1.23-10-.62-14.8-1.15-1.5-.53-3.1,0-4.6a28.31,28.31,0,0,0,1.5-18.3c-.88-3.2,1-6,1.06-9,.18-5.2,1-10.4,1-15.7,0-.4.18-.8.09-1.1-3.27-11.6,2.57-22.6,1.42-34.1-.18-2.1,1-3.4,3.09-2.7l.53.5c-.26.8-.88,1.7-.79,2.5.7,5.4-.18,10.7-1,15.9a6.66,6.66,0,0,0,0,3.2c.89,2.9,1.15,5.5-.7,8.2-1.06,1.6-.45,3.5.88,4.9s1.59,2.7,0,4.5c-2,2.3-1.94,3.3.35,5.5,1.51,1.4,1.33,2.8.71,4.3a8.36,8.36,0,0,0-.53,6.2,8.1,8.1,0,0,1-.35,4.8,7.78,7.78,0,0,0,0,5.3,7.15,7.15,0,0,1,0,4.7,7.43,7.43,0,0,0-.09,4.8c1.24,4-.18,8.1.53,12.2.44,2.5-1.33,3.4-3.36,3.5-1,0-2,.3-2.12,1.6a2.16,2.16,0,0,0,1.68,2.7c2.56.7,2.56,2.7,2.65,5.4.18,6.4-.71,12.7-.27,19.2.36,5,1.68,10.3.27,15.4-.53,2,.27,3.5.71,5.2C104,331.6,104.66,334.7,103,337.7Z"/><path class="cls-43" d="M152.05,181.9a10.88,10.88,0,0,1-.62,4.8c-1.94,4-.26,8.1,0,12.1.09.9.54,2.2,1.77,2.2.89,0,1.33-.9,1.68-1.7a6.74,6.74,0,0,0,.62-1.5c.89-6.5,4.95-9.1,10-10.5-3.18,6.8-6.45,13.6-7.6,21.3-.44,3.2-2.3,5.2-3.8,7.3-2.48,3.4-3.81,7.3-5.66,11-.62,1.3-1.06,2.6-1.77,3.8-.88,1.5-1.68,2.2-3.45.7-4.07-3.5-4.15-3.4-2.83-9.3-.44-5.6,1.68-10.7,3.36-15.7,2.3-6.9,4.07-14,6.37-21C150.64,184.2,151,182.8,152.05,181.9Z"/><path class="cls-44" d="M182.91,135c-.7.4-1.59,1-1.32,1.9.44,1.7-.09,3.9,1.41,5,1.95,1.4,1.59,2.7.36,4.3a.81.81,0,0,0-.18.5c-1.42,4.3-1.86,5.2-5.4,4.4-3.89-1-6,1-7.95,4-1.06,1.7-1.86,3.6-4.07,2.2-1.95-1.2-2.3-3-1.15-6,.8-2.1,2.12-4,1.94-6.6,1.15-6,5.49-10,7.7-15.2a10.84,10.84,0,0,0,1-1.1h0c.71-1.4.88-3.1,1.95-4.4h0a12.22,12.22,0,0,0,1-1.1h0c.71-1,1.24-2.2,1.94-3.3h0c2.39.2,4.78.3,6.64-2.1a1.94,1.94,0,0,1,3-.1h0a2.42,2.42,0,0,1,.18,1.4,34.41,34.41,0,0,0-2.21,7.3,7,7,0,0,1-.36,1.3c-.26.9-.53,1.7-.79,2.6a8.3,8.3,0,0,1-.44,1.3C185.12,132.8,185.3,135.4,182.91,135Z"/><path class="cls-25" d="M108.73,139.4c-1.51.8-2,2.2-2,4a26.77,26.77,0,0,0,0,3.8c.35,2.3-3.54,3.7-1.77,5.4,2,1.9.89,3.9,1.42,5.8,2,8.2-.27,15.8-2.48,23.5a2.43,2.43,0,0,0-.53-.5c-1.33-5.3,1.33-10.3.71-15.6-.27-2.1.17-4.3-1.15-6.1-2.3,1.1-2,3.3-2.21,5.2-.36,2.2-1,4.9-3.1,4.8s-1.5-3.1-1.77-4.9a20.22,20.22,0,0,1-.08-2.2c.88-8.4,2.21-16.8,3.53-25.2.27-1.7.45-3.7,2.13-4.6,3.27,2.7.53,6.2,1.32,8.7.27-.6,0-1.9.18-3.1.44-2.7,1.5-5.2,4.24-4.5C109.79,134.4,109.43,137.1,108.73,139.4Z"/><path class="cls-45" d="M108.73,139.4v-1.6c0-1.5-.18-3.2-1.68-3.4-1.86-.2-2.83,1.5-3,3.4-.27,2.6,0,5.4-2.39,7.4-1.5-2.2.36-4.1.27-6-.09-2.1,0-4.3,0-6.4-.62-7.7.17-15.1,3.89-21.8h1c1.06,5.3-2,10.1-1.86,15.3,1.77.2,1.86-1.1,1.86-2.1.09-2.1,1.24-3.3,2.48-4.5.62-.6,1.32-1.3,2-.3a1.56,1.56,0,0,1-.09,2c-1.68,1.8-2.3,3.7-.71,6C108.73,131.3,110.58,135.7,108.73,139.4Z"/><path class="cls-46" d="M107.75,379.1c-.79,6.5-.09,13.3-2.21,19.6a2.21,2.21,0,0,0,.44,2.4c1.77,2.4.36,4.8-.26,7.1a.94.94,0,0,1-1.06.9.45.45,0,0,1-.36-.2c-.35-.2-1-.9-.88-1.1,1.15-4-1-8.1-.18-11.6,1.06-4.4.36-8.5.71-12.8,1.77.1,2.92-.4,3-2.7C106.87,380.2,107.49,379.7,107.75,379.1Z"/><path class="cls-41" d="M189.72,118.7c-1.68-1.9-2.83.2-4.07.9s-1.94,2.8-3.62,3.1c-1.33-.4.26-3.3-1.95-2.9.09-.7.27-1.9.8-1.8,2.48.4,4.69.5,5.75-2.8,2.83.1,3.62-2.5,4.86-4.5a1.42,1.42,0,0,1,1.5-1c.71,1.3-.7,2.3-.44,3.5-.62.6-.35,1.6-1,2.2v1.1C190.78,117.1,191.49,119.3,189.72,118.7Z"/><path class="cls-47" d="M189.72,118.7l1.95-2.2a2.32,2.32,0,0,0,1,2.2c.18.2.27.4.44.6-.26,2.9-2.21,5.2-2.3,8.1v1.1c-1.59.7-1.59,2.9-2.92,3.8-1.59,1.1-2.82,1.3-1.85-1.6h0c.88-.9.09-2.4,1-3.3h0c.8-2.9,1-6.1,2.74-8.7Z"/><path class="cls-47" d="M200.33,113.2c-1.5,3.1-.09,6.9-1.94,9.8-.53-2.1-1-4.3-1.33-6.5-1.41.9-2.39,3.2-4.51,2.1h0c.09-2.9,3.1-3.9,3.45-6.8.09-1.1,2.12-1.6,3.36-1.4S200.24,112.2,200.33,113.2Z"/><path class="cls-48" d="M112.62,111.3c0,2.1-.36,3.8-2.39,3.9-.8,0-1.06-.6-1.06-1.4,0-2.2,1.41-4.7,2.56-4.5C112.62,109.6,112.35,110.7,112.62,111.3Z"/><path class="cls-39" d="M129,260.4c-.08,5-.08,9.9-2.91,14.2C127.38,269.9,126.15,264.6,129,260.4Z"/><path class="cls-42" d="M104,181.9a6.27,6.27,0,0,0,1.33,3.3,2.21,2.21,0,0,1-.36,3.2h0c-3.36-3.7-3.36-4.2-1-6.5Z"/><path class="cls-41" d="M177.17,124.1a6.59,6.59,0,0,1-1.95,4.4C175.13,126.6,175.4,125,177.17,124.1Z"/><path class="cls-39" d="M126.06,274.5c-.18,1.5.44,3.2-1,4.4C125.26,277.4,124.64,275.7,126.06,274.5Z"/><path class="cls-41" d="M180.08,119.8a3.26,3.26,0,0,1-1.94,3.3A3.27,3.27,0,0,1,180.08,119.8Z"/><path class="cls-47" d="M191.67,115.4a2.32,2.32,0,0,1,1-2.2A2.64,2.64,0,0,1,191.67,115.4Z"/><path class="cls-41" d="M175.22,128.5l-1,1.1Z"/><path class="cls-41" d="M178.14,123l-1,1.1Z"/><path class="cls-32" d="M103.86,181.9a2.2,2.2,0,0,0-.35,3.2,6.27,6.27,0,0,1,1.33,3.3c-1.51.1-3.36.1-2.57,2.5s-.71,5-.35,6.5c.7,2.6-.09,4.5-.36,6.7-.17,1.4-.88,2.8-.62,4.2.71,3.2.62,6-2,8-.71.5-1,1.8,0,2.2,3,1.5,2.3,4.2,2,6.8-2.83,2.3-3.45,5.4-3,9.1.53,4.4-1.06,8.6-1.95,12.8a5.07,5.07,0,0,1-1.94,3c-3.36,2.7-12.47,2.5-15.92-.2a5.36,5.36,0,0,1-1.85-4.2c-.18-4.3-1-8.6-.8-13a12.73,12.73,0,0,0-3.09-9.4c-2.66-3.1-3.9-6.7-1.33-10.8,2-3.2.79-6.8.88-10.3,2-3.7,3.89-7.5,2-12a21.87,21.87,0,0,0,5.83-11,50.26,50.26,0,0,1,2.83-10.7,10.87,10.87,0,0,0,1-1.1h0a9.21,9.21,0,0,0,0-6.5v-1.1c-1.24-2.5.79-3.2,1.94-4.4h0c2-2.1.09-5.5,2-7.6a10.84,10.84,0,0,0,1-1.1v-2.2c1.06.1,2-.6,2.92-1.1,1.94,1.2.71,2.6.26,4-1.41,5-4.24,9.7-2.83,15.4a12.21,12.21,0,0,0-2.65,7c-.09,1.4,1.15-.1,1.59.4,2,.8,2.57,2.4,2.12,4.7a7.46,7.46,0,0,0,1.15,6.1c1.77-2.3,1.42-5.1,2-7.5.88-3.7.18-8.2,4-10.5v6.1c1.77-1.8,2.83-3,2.38-5.7a6.9,6.9,0,0,1,2-5.8c1.59-1.6,2.83-1.2,3.27,1.2a44.76,44.76,0,0,1-.35,16.8C104.13,177.9,104,179.9,103.86,181.9Z"/><path class="cls-35" d="M88.48,163.4c-2-3.3-1.42-6.3-.18-9.9,1.15-3.2,2.92-6.1,3-9.7,1-2,1.15-4.5,2.91-6.1a1.35,1.35,0,0,0,.54-.9c-.54-5.4,2.74-10.2,1.94-15.5a4.21,4.21,0,0,1,1-3.8c2.66-3.1,5.84-5.8,7.25-10.3,1.24,1.4.71,2.7.89,3.9l-3.89,21.8c-2,3.7-1.86,7.9-2.3,11.9-.71,6.2-2.48,12.3-2.57,18.6-1.23,3.9-2.91,7.6-2.83,11.8,0,2.4-1,4.6-1.23,6.9a2.08,2.08,0,0,1-2.13,1.8c-1,0-1.32-.8-1.41-1.8-.18-2.5-2.48-4.7-.35-7.6,1.06-1.4-1.07-2.3-1.68-3.5C85.74,168.1,86.53,165.6,88.48,163.4Z"/><path class="cls-6" d="M103,58.8c.35-2.5.71-4.9,1.06-7.4.18-.9.62-1.9,1.5-1.9,1.33,0,1.15,1.4,1.24,2.4.27,2.1-.8,3.8-1,5.8a5.11,5.11,0,0,0-1,1.1H103Z"/><path class="cls-34" d="M72.12,202.6a15.86,15.86,0,0,1-.36,11.6c-1.32,3.3-.88,6.5,1.69,8.6,3,2.3,3.71,5.5,3.44,9-.44,5.3,1.24,10.4.71,15.6a1.66,1.66,0,0,0,1.77,2,4.39,4.39,0,0,1,3.36,1.7c1.06,1.5,2.3,1.1,3.36.2,1.59-1.4,3.18-2.3,5.3-1.3a2.38,2.38,0,0,0,3.28-1.5,4,4,0,0,0,.17-1.1c.27-5,3.36-9.5,1.42-14.8-.62-1.7.62-3.5,1.06-5.2.53-2.1,2.56-.9,3.62-1.9.27,5.2-.79,10.2-1,15.4-.09,1.9.09,3.7-1.06,5.6s-.26,4.7.53,6.6c.8,2.1.89,3.6-.09,5.4a1.71,1.71,0,0,0-.17.5c1.5,5.5-2.48,9.5-3.1,14.4-1.32,6.7-2.56,13.3-3.89,20a3,3,0,0,1-.44,1.5c-4.86,5.7-4.07,13.4-5.22,20.3a107.3,107.3,0,0,1-3.62,14,3.06,3.06,0,0,1-3.28,2.6c-1.76-.3-2.65-2-2.74-3.9s0-4-.08-6c-.09-3.4.26-6.8-.71-10.2-.8-3.1.79-6.2,1.15-9.4A37.74,37.74,0,0,0,75,283.5a7.58,7.58,0,0,1-.36-3.7,61.76,61.76,0,0,0,.18-7.1c-.09-2.4-.79-3.7-3.36-4.2-6.63-1.4-8.13-3.8-8.22-11.3,0-1.9.62-4-1-5.6a9.29,9.29,0,0,0-.09-2.7c-1.42-3.2-.45-5.5,1.85-7.5a6.8,6.8,0,0,0,2.13-6.2c1.5-4.4,1.5-9,1.85-13.6.27-3.6.71-7,2.57-10.1,1-1.7,1.94-3.8.79-6.1a2.46,2.46,0,0,1,.8-2.8Z"/><path class="cls-9" d="M85.56,155.7c-.53,1.5-2,2.5-2,4.4C82.38,157.3,82.55,156.8,85.56,155.7Z"/><path class="cls-9" d="M83.7,161.2a5.49,5.49,0,0,1,0,6.5Z"/><path class="cls-9" d="M83.7,167.7l-1,1.1Z"/><path class="cls-20" d="M88.48,27.2c.17,1.2-.45,2.5.7,3.8,1.51-1.3,2.92-2.5,3.1-5,.44-6.7,4.86-9.3,9.73-12,1.41,7.7-.09,14.4-3,20.9.44-4.8,1.77-9.4,1.86-15.5-1.42,2.9-3.89.8-5.13,3.9-.8,2.1-1.86,3.2-.27,5.1a2.36,2.36,0,0,1,.09,2.9l-.09.1c-1.94,1.6-2.65,3.9-3.36,6.3a1.53,1.53,0,0,1-.53.8c-3.54-2.1-4.77,3.3-8.22,3A85.18,85.18,0,0,1,88.48,27.2Z"/><path class="cls-9" d="M105.81,42.4c1-3.9,1.94-7.8,2.83-11.8.17-.7,0-1.5.17-2.2.27-1.1.8-2.2,2-1.8.88.3.62,1.5.8,2.3.44,2.3-1.24,3.8-1.68,6-.62,3.6-.54,7.2-1.24,10.7a5.44,5.44,0,0,0-1,1.1h0C105.19,46.4,106,44.1,105.81,42.4Z"/><path class="cls-20" d="M99.09,34.8c.09,1.1-.18,2.4.44,3.6,2-2,1.33-5.3,3.45-6.9.44,3.8-1.68,6.6-2.92,9.8-.88.9-.09,2.4-1,3.3a9.74,9.74,0,0,0-1,1.1v1.1a5.44,5.44,0,0,0-1,1.1h0a2.52,2.52,0,0,1-1-2.3c.35-3,.71-6,1.24-8.9A2.82,2.82,0,0,1,99.09,34.8Z"/><path class="cls-20" d="M91.39,18.4a6.54,6.54,0,0,1-1.94,4.4C89.36,20.9,89.63,19.3,91.39,18.4Z"/><path class="cls-20" d="M89.45,22.8c-.18,1.5.44,3.2-1,4.4C88.65,25.7,88,23.9,89.45,22.8Z"/><path class="cls-5" d="M104.84,58.8l1-1.1Z"/><path class="cls-5" d="M88.48,147l-1,1.1Z"/><path class="cls-7" d="M159.83,261.4v-6.5c.54-1.5,2.22-2.5,1.86-4.3-1-5.6,2.12-10.1,3.1-15.1a8,8,0,0,1,1.23-2.3,25,25,0,0,0,3.54-9.9,28.21,28.21,0,0,1,4.51-12.3,6.78,6.78,0,0,0,1.24-4c0-1.3-.18-2.6,1-3.4,1.42-.8,2.57-.6,2.83,1.4.18,1.4.09,2.9.18,4.3.09,1.1.35,2.4,1.59,2.3,1.41-.1,2.65,0,3,1.8.44,2,1.32,3.9.88,6.3a71.23,71.23,0,0,0-1.24,11.4c2.3-3,2.3-6.8,2.74-10.8,4.42,1.8,6.55-1.2,8.4-4.7.09,6.7-1.5,13.2-2.91,19.6-.53,12.1-2.75,24-4.51,35.9-.53,3.7-1.24,7.5-5.13,8.1-2.39.4-5.31-4.2-5-8.8.7-7.4-4.69-9.8-8-13.7-1.42-1.7-3.63-.1-5.13,1.5C162.66,259.5,162.13,261.9,159.83,261.4Z"/><path class="cls-49" d="M196.44,155.7a9.92,9.92,0,0,0-6,7.7,1.62,1.62,0,0,1-1.68,1.5c-1.06-.2-1-1.3-1-2.1a9.69,9.69,0,0,1,.26-3.2c1.15-2.6,1.42-5.4,1.86-8.3.71-5.6.88-5.6,4.6-9.9.53-6.1,3-11.3,5.74-16.3a6.59,6.59,0,0,1,1.95-4.4c.62-.6.44-1.6,1-2.2h0c2.83.6,2.12,3.1,2,5.1a75.17,75.17,0,0,1-2,10c-.62,2.7-1.5,5.4.18,8.3,1.06,1.9.44,3.9-2.12,3.9v-1.1a1.17,1.17,0,0,0-1.77-.2c-.09,0-.09.1-.18.2a28,28,0,0,0-1.94,9.8Z"/><path class="cls-8" d="M99.09,44.6c0-1.2-.18-2.5,1-3.3C100,42.5,100.24,43.8,99.09,44.6Z"/><path class="cls-8" d="M97.14,47.9l1-1.1Z"/><path class="cls-8" d="M107.75,46.8l1-1.1Z"/><path class="cls-8" d="M98.12,45.7l1-1.1Z"/><path class="cls-50" d="M201.22,145.9c1.94-2.3,2-2.5.35-3.8-1.24-1-1-1.9-.71-3.2q1.59-7.05,2.92-14.1c.35-2.1,1-4.3-.62-6.1l2-6.5c1.06.8,1,2,1,3.2s-.09,2.4,1,3.2c1.42,4.2-.09,8-.53,10.9.8-1.8,1.86-5.1,5.4-5.4-.71,8.5-.89,17.1-3.19,25.4-2.12-.1-3.71-1.7-5.66-1.5C201.84,148.2,201.39,147.1,201.22,145.9Z"/><path class="cls-51" d="M211.83,124.1c-1.59,3-5.31,3.9-5.84,8.1.53-4.7-.53-9.3,1.06-13.6a6.54,6.54,0,0,1,1.95-5.4c1.59-1,2.21-.2,2.39,1.5s-.45,3.4.53,5C211.83,121.2,211.83,122.7,211.83,124.1Z"/><path class="cls-50" d="M211.83,119.8c-1.15-1-1-2.4-1-3.7,0-1.6-.45-2.7-2-2.8.35-2,1.24-2.5,2.39-.8,1,1.5.44,3.4.53,5.1Z"/><path class="cls-50" d="M199.36,144.8c.62-1.1,1.33-1.1,1.95,0Z"/><path class="cls-30" d="M189.72,334.5c-1.32,7.1-2.56,14.2-4,21.3a4.21,4.21,0,0,1-1.15,2.3c-1.59,1.7-1.77,3.7-1.68,6a30.91,30.91,0,0,1-.7,6.4c-.71,3.7-2.57,7-2.39,11a2.55,2.55,0,0,1-2.12,2.9h-.27c-1.33,0-1.86-1.2-2.21-2.5-.53-1.9-1.24-3.8-1-5.8,1.06-8-1.24-16.2.71-24.2a3.48,3.48,0,0,0-.09-1.6,27.6,27.6,0,0,1-1.68-11.1c.09-1.8-.62-3.4-2.39-3.5-2.92-.2-3.89-2.6-5.13-5-2.3-4.6-3.54-4.7-6.81-1.2-.88,1-1.85,2-2.74,3.1-1.06,1.3-2.12,1.9-3.8,1.2a4.61,4.61,0,0,0-5.4,1.1,4.91,4.91,0,0,0-.88,5.9c.44,1-.18,2.1-.53,3.1a157.26,157.26,0,0,0-4.6,16.9,5.23,5.23,0,0,1-3.36,4.2c.36-3.8-1-7.9,1.51-11.4a3.35,3.35,0,0,0,0-2.6c-.18-.5-.54-1.2-.36-1.5,3.63-6.1,1.24-13.6,3.54-20,.35-1,.35-2,1.41-2.6,2.39-1.3,2.92-4,3.54-6.6a1.56,1.56,0,0,0,.18-2l-.18-.2V317c-1-4.3-1.06-8.5,1.95-12h0l1-1.1c.35-7.2,4.86-11.6,8.84-16,3.8-4.1,8.49-1.9,11.5,2.5,7.6,11.1,5.57,23.8,6,36.2v2.7c.09,1.7.53,3.4.88,5.7a38.68,38.68,0,0,0,.89-6.4c-.09-5.9,1.85-10,6.45-13.3,5.13-3.7,4.25-10.5,4.95-16.3.45-3.6.89-7.6-2.3-10.5-.61-.6-.7-2.1-.17-2.5,2.74-2.1,3.27-6.3,6.19-8.3-.09,2.7,1.59,5.4-.27,8.3-.44.7-.26,3.5,1.24,4.8-1.33,5.6-.71,11.5-1.77,17.2-.35,1.9-1.68,3.3-1.41,5.6s2.21,3,2.65,4.6c.53,1.8-2.21,2.5-2,4.5a5.25,5.25,0,0,0,.7,2c.71,1.4.89,2.6-.7,3.6C189.81,329.7,189.46,332,189.72,334.5Z"/><path class="cls-6" d="M193.52,277.8a2.31,2.31,0,0,0-.88,1.8c.09,2.9-.88,4.9-3.36,5.8-1.77.7-1.86,2-.35,3,2.38,1.8,3.53,3.8,1.94,6.9,1.59,4.4-1,8.5-.88,12.6.09,5.9-3.36,8.6-6.81,10.8-2.48,1.6-3.1,3.1-3,5.9.09,4.5-.88,8.8-1.94,14.2a19.32,19.32,0,0,1-2.74-12.8,39.6,39.6,0,0,0-.09-8.5c-.44-5.5-.71-11-1-16.5-.08-1.3.27-2.9-.79-3.5-2.92-1.8-4.07-4.8-4.86-8.2-.45-2-1.68-2.3-3.72-2.1-3.45.3-6.19,1.4-7.69,5.1a1.88,1.88,0,0,1-.53.9c-3.72,2.4-5.31,6.5-6.63,10.8-.09-3.6,1-7.3,0-10.9.62-6.2,3.8-11.5,5.13-17.5,1.06-4.8,3-9.4,4.59-14.1,1.51-.6,2-2.3,2.66-3.7,1.32-2.8,3.89-3,6.19-3.5a2.37,2.37,0,0,1,2.56,2c.53,2.6,2.48,3.6,4.16,5,2,1.8,3.71,3.6,2.91,7.2a10.47,10.47,0,0,0,2.21,9c1.15,1.5,2.13,1.4,3.19.1a11.21,11.21,0,0,0,2.21-5.8c1.59-11.9,3.36-23.7,5.13-35.6.09-.3.44-.5.62-.8.17,1.7-.71,4,1.94,4.4a1.83,1.83,0,0,1,1.33,1.4c.44,2.9.44,3,2.56,1.9.27,4.4-1.59,8.6-1,13.1h-1c-.89-.9-1.68-.4-2.39.3.88.8,1.5-1.2,2.39-.3.17,1.5-.45,3.2,1,4.4-2.74,3-.89,7.1-1.77,10.6A45.25,45.25,0,0,0,193.52,277.8Z"/><path class="cls-7" d="M197.41,242.9c-1.41,1.2-1.94,3.9-4.5,3.5-1.07-2.4,3-4.3.7-6.8a4.35,4.35,0,0,1,1.15-2.9c1.06-1.2,2.12-1.3,2.48.4C197.5,239.1,198.39,241,197.41,242.9Z"/><path class="cls-52" d="M200.33,125.2a73.48,73.48,0,0,1-5.74,16.3c-2.13-2.6-.8-5.3.17-7.5,1.86-4.2,1.51-8.7,2.92-12.9-4.86-1-5.22,3.6-7,6.2-.7-3.3,1.15-5.9,1.95-8.7,2-1,3.8-1.9,4.24-5.3,2.48,3.4,1.07,6.7,1.51,9.7C198.39,124.5,198,126.5,200.33,125.2Z"/><path class="cls-50" d="M203.16,118.7a2.32,2.32,0,0,1-1,2.2A2.42,2.42,0,0,1,203.16,118.7Z"/><path class="cls-53" d="M138.61,695.2a2.76,2.76,0,0,0-.62.8c-.61,1.2-.44,3.3-2.12,3.1s-1.85-2.2-2-3.8c-.27-1.8.62-3.9-1-5.4a3.55,3.55,0,0,1-.89-2.4c2.65-7.7-3.71-14-2.47-21.4a11.58,11.58,0,0,0-.89-1.2,6.31,6.31,0,0,1-.88-1.3,4.86,4.86,0,0,1-.18-1.6,10.43,10.43,0,0,0-.8-7.3c-4-7.3-2.47-15.8-3.89-23.6a4.41,4.41,0,0,1,3.63-4.9c2.12-.5,3,1.5,3.71,3.4.27.8,0,1.8.62,2.5h0c1.15,3.9,1.59,8.1,2.92,12a114.7,114.7,0,0,1,5.48,22.6,103.74,103.74,0,0,1,1.24,13.9C140.74,685.5,140.56,690.5,138.61,695.2Z"/><path class="cls-54" d="M130.92,631.9c-1-.6-.8-1.9-1.33-2.8-.7-1.2-1.5-2.8-2.91-2.2-1.6.7-3.63,2.2-3,4.3,1.06,4.1.18,8.2,1.06,12.3.8,3.6,1,7.3,2.92,10.6,1.77,2.9.79,6.2.35,9.4a.45.45,0,0,1-.71.2c-.08-.1-.17-.1-.17-.2,1.06-5.7-2.3-10.3-3.36-15.5a12.52,12.52,0,0,1-.53-4c.62-4.6-.71-9-1-13.5-.08-1.7-1.23-2.3-2.29-3.2-2.83-2.5-3.1-6.5-.62-9.7,1-1.2.53-1.9-.27-2.6-3.62-3-4.07-3.9-2.65-8.9.71-2.4,1.94-4.2-1.77-4.5-1.77-.1-.44-3.5-2-4.5-2-3.1-1-6.9-1.86-10.3-.53-2.1,1.86-3,3.63-3.4,2.12-.3,3.18,1,4,3a159.2,159.2,0,0,1,7.79,21.9c.35.9.17,2.1.88,3h0c1.33,2.3,1.15,5.1,1.94,7.6h0C128.71,623.4,131.1,627.4,130.92,631.9Z"/><path class="cls-28" d="M154,667.9c1.06-.7,1.77-3.2,3.27-.4.88,1.6,2,1.4,3.18.3a3.28,3.28,0,0,1,4.07-.4c1.06.6,2.21,1.2,1.42,2.8-1,1.9.79,3.3.7,5-2.3,1.1-4.06-.3-6.1-1.9-.88,3.3-1.15,6.4-2.65,8.9-2.39-.6-3-2.3-2.3-4.7.27-1,.53-2.7-.8-2.4-3.71.7-2.65-1.4-1.94-3.5C153.29,670.2,153.65,669.1,154,667.9Z"/><path class="cls-54" d="M133.84,643.9c-2-3.7-2.65-7.8-2.92-12C133,635.6,133.48,639.7,133.84,643.9Z"/><path class="cls-55" d="M126.06,609.1c-1.77-3.8-4-7.3-4.34-11.7a4.76,4.76,0,0,0-1.06-2.9c-2.3-1.9-2.91-4.6-3.27-7.5a3,3,0,0,0-2.92-3c-.17-.1-.44-.2-.62-.3-1.68-1.6-1.32-3.9-1.68-5.9a13.93,13.93,0,0,1-.44-4.7c.53-3.1,3.36-5,3.27-8.4-2.21-5.6-2.47-11.9-5.74-17.1-1.68-2.7,1.06-6.3-.53-9.4-.36-2.2-.62-4.4-1-6.5a4.71,4.71,0,0,0,0-4.6,12.35,12.35,0,0,1-.7-11c3.27-7.1,1.06-14.1,1-21.1a53.11,53.11,0,0,1,.26-9.2c.27-1.7.18-4.1,2-4.5,2.12-.4,2.12,2.2,2.92,3.6,3.53,7,3.62,15.2,5.83,22.6,2,6.4,4.78,12.3,5,19.3.09,1.8.62,3.5-.17,5.3-.27.7-.71,1.8-.27,2,4.69,2.9,2.92,8.5,4.25,12.7,0,1.2-.18,2.5,1,3.3v2.2c-1.68,2.2,2.12,4.4,0,6.6h0a2.82,2.82,0,0,0,0,3.3h0c.62,5.6,2,11.2,1,16.9-.44,2.4-1.15,4.6-3.8,4.7-1.86.1-2.74,1.2-2.3,3.2,1.15,4.9-.35,10.1,1.15,14.9.71.8.35,2.1,1.06,2.8v1.1A2.6,2.6,0,0,1,126.06,609.1Z"/><path class="cls-56" d="M125.08,602.5c-1.41-1.9-1.59-4.3-1.85-6.5-.36-3.2-.27-6.4-1-9.6s.45-4.3,3.45-3.7c1.77.3,2.57-.6,3.1-2.5a26.31,26.31,0,0,0,.35-10.5c-.35-2.5-.18-5-.35-7.5,2,7.4,3.45,14.9,0,22.3-.36.8-.89,1.6-.27,2.4,2.12,2.5.89,6.2,2.74,8.9,1.42,2-.08,3.6-3.53,4.5-.53-1.6-1.06-3.2-1.68-5.1-2.13,1.9-.89,4.3-1.24,6.2a.62.62,0,0,1,.26.7C125.26,602.4,125.17,602.5,125.08,602.5Z"/><path class="cls-28" d="M170.45,688.5c-1.15,0-8.23-6.3-8.32-7.3a2,2,0,0,1,.8-1.8c.88-.7,2-.8,2.56.1,1.42,2.3,2.74,4.1,5.66,3.4.89-.2,2.13,1.4,1.77,3.2C172.57,687.7,171.33,688.1,170.45,688.5Z"/><path class="cls-22" d="M129,618.9a19,19,0,0,1-1.94-7.6C129.24,613.3,129,616.1,129,618.9Z"/><path class="cls-22" d="M126.06,609.1v-3.3c1.59,1.5.7,3.6,1,5.5A2.64,2.64,0,0,1,126.06,609.1Z"/><path class="cls-22" d="M125.08,602.5v-1.1c1.15.8.89,2.1,1,3.3A2.45,2.45,0,0,1,125.08,602.5Z"/><path class="cls-57" d="M128,547c-1.68-1.6-1-4.1-1.5-6.1-1.24-4.6-1.06-4.6-5-4.9a3.31,3.31,0,0,1,.7-3c1.24-1.9,1.77-3.7.45-5.9a2.45,2.45,0,0,1-.18-2.1,6,6,0,0,0-1.41-7.3c.08-6.2-5.22-10.8-3.81-17.3.18-.9-.53-2.1-.79-3.1-1.42-5.3-4.16-9.9-5.84-15.2a26.45,26.45,0,0,0-1.41,11.8,52.3,52.3,0,0,1,.35,9.1c-.27,2.7,2.3,4.3,1.68,6.5s-2.65,3.3-3.09,5.8a28.94,28.94,0,0,0,0,10.7c.44,1.9,1.06,3.9-.45,5.6-.17-1.5.45-3.2-1-4.4a.79.79,0,0,1-1.24,0h0a3.79,3.79,0,0,1-.62-1.5,38.08,38.08,0,0,0-1-5.6c-.62-11.1-1.68-22.2.27-33.3a8.58,8.58,0,0,0-1.33-6.6c-.88-1.3-1.86-2.7,0-4.1.35-3.6.62-7.3,1-10.9,1.51-1.4.89-3.4,1-5.1.08-5.4,0-10.9,0-16.3v-3.3c.08-1.1.26-2.3,1.59-2.2,1,.1,1.23,1,1.23,2,0,2,0,4,.09,6,0,4.7-.44,9.4,1.59,14,1.86.1,1.6-2.4,2.92-3,1.33.6,1.42,1.8,1.06,3.1-.26.9-.7,1.8-.17,2.6,2.65,4.2.79,8.4.09,12.6a8.61,8.61,0,0,0,2,7.7,14.19,14.19,0,0,1,2.92,12.6,17.51,17.51,0,0,0,1.5,11,50.23,50.23,0,0,1,3.8,10.9c1.33,6.2,4.78,11.9,3.72,18.8-.45,2.9.88,5.7,1.85,8.3A1.94,1.94,0,0,0,128,547Z"/><path class="cls-26" d="M127.56,437.6c-1.15-2.7-.88-7,.35-7.9a1.28,1.28,0,0,1,1.33.1,1.39,1.39,0,0,1,.53,1.8v.1A15,15,0,0,0,127.56,437.6Z"/><path class="cls-6" d="M149.22,305c-2.12,3.7-2,7.8-1.94,12C145.33,311.5,145.86,308.2,149.22,305Z"/><path class="cls-39" d="M137.64,315.7l-.35-.3a.64.64,0,0,1,.35-.2c.09,0,.27.2.35.3Z"/><path class="cls-6" d="M147.28,318.1c1,.7,1,1.5,0,2.2Z"/><path class="cls-33" d="M103,450c-.62-.4-.62-.7,0-1.1Z"/><path class="cls-6" d="M150.2,303.9l-1,1.1Z"/><path class="cls-24" d="M129,558.9a5.77,5.77,0,0,0-.44-2.6c-1.41-1.7-.79-2.8.44-4a3.28,3.28,0,0,0,1.95,3.3A3.31,3.31,0,0,1,129,558.9Z"/><path class="cls-56" d="M129,562.2q-1.84-1.65,0-3.3Z"/><path class="cls-40" d="M103,476.1a2.09,2.09,0,0,0,.44,2.7l.09.1c2.65,2.3,2.92,5.5,1.94,8.7-1.76,5.7-.7,11.5-.7,17.2.09,5.3.09,10.7.09,16,1.14,1.6-.27,3.8,1,5.4v1.1a5.39,5.39,0,0,1,1,1.1v8.7a4.07,4.07,0,0,1-1,3.3c-3-.8-2.83-3.5-2.92-6a26.34,26.34,0,0,0-3.71-13.2c-.62-1.1-1.06-2-2.57-1.8-2.65.3-5.39,2.8-8.13,0-.62-.6-1.33.8-1.86,1.3a3.67,3.67,0,0,1-5.66-.6,4.61,4.61,0,0,1-.88-2.4c-.53-4.4-2.39-8.6-1.42-13.2.36-1.6-.62-2.7-1.59-4.1-1.68,1.7-1.41,4.1-2.12,6-1.33,3.8-2.92,7.1-6.28,9.2-1.5.9-2.39.5-3.27-.7-1.33-1.7-1.77-3.8-2.39-5.9-.88-2.9-1.86-5.6-4.42-7.7a10.37,10.37,0,0,0-1.86,5.1c-.17,2.3-1.41,3.5-2.92,4.6-2,1.5-3.27.2-4.5-1.3-.89-1-2-.9-3.19-.9,0-6.2-1.15-12.2-1.59-18.3s-.26-12.3-.26-18.5A2.1,2.1,0,0,1,46,469.6h.35a19.42,19.42,0,0,0,2.39-.2,8.91,8.91,0,0,0,7-5.9c1-2.7,2.57-2.6,3.54-.1a16.09,16.09,0,0,1,1.41,6.8,11.13,11.13,0,0,0,.53,4.8c.8,1.8,1.86,2.6,3.45,1.5,3.36-2.3,7.16-4.2,8.67-8.9.44-1.3,1.06-2.3,2.39-2.1,1.5.3,1.41,1.8,1.32,3a34.58,34.58,0,0,0,1.77,11.7c1,3.1,2.56,4.4,5.22,4.7s3.89-1.7,4.33-4.1c.44-2.2,2-3.7,2.39-5.9a1.81,1.81,0,0,1,1.77-1.7.49.49,0,0,1,.35.1,2.21,2.21,0,0,1,1.24,3.1c-3.36,5-.27,8.9,1.41,13,.89,2.1,2.12,2.3,3.27.5,1.77-2.8,4.51-5.3,2.57-9.6C100.59,478.8,100.5,476.5,103,476.1Z"/><path class="cls-37" d="M112.62,573.1a8.36,8.36,0,0,0,1,4.4c-.71,2.4-1.33,4.7,1,6.5h0c-.44.9-1.24,1-2,1.3-1,.4-1.77,1.2-1,2.4,1.85,3,.7,6.3,1.06,9.4a2.33,2.33,0,0,1-1,2.2c-1.59-5.4-2.56-10.9-1-16.5.89-3.3-1.24-5.7-1.86-8.5,1-3.2.53-6.4.27-9.6-.09-1.7-.35-3.2.71-4.6a.4.4,0,0,1,.53-.4c.09,0,.17,0,.17.1.53-.3.09-1,.53-1.4,1.24-3-.53-5.4-1.23-8.1h0l-1-1.1h0l-1-1.1h0a3.16,3.16,0,0,1,0-3.3l1-1.1v-5.4c.53,6,3.1,11.2,4.78,16.7,1.06,3.5,2.65,6.8,3,10.5C113.77,567.1,111.47,569,112.62,573.1Z"/><path class="cls-35" d="M110.67,560h-1c-1.59-3.3.18-6.5,0-9.8a13.28,13.28,0,0,1,2.83,4.8c.62,2.3.18,4.1-1.86,5Z"/><path class="cls-35" d="M109.7,560v10.2c0,1.4.26,2.9-1,4-.36-3.8.79-7.7-1.42-11.3C106.34,561.1,108.2,560.3,109.7,560Z"/><path class="cls-34" d="M105.81,540.4c0-1.2-.18-2.5,1-3.3C108.37,539,107.84,540,105.81,540.4Z"/><path class="cls-35" d="M107.75,544.8v3.3Q105.91,546.45,107.75,544.8Z"/><path class="cls-34" d="M106.78,528.4l-1-1.1h1Z"/><path class="cls-35" d="M108.73,543.7l-1,1.1Z"/><path class="cls-35" d="M107.75,548l1,1.1Z"/><path class="cls-35" d="M108.73,549.1l1,1.1Z"/><path class="cls-37" d="M110.67,600.4v2.2C109.7,601.8,109.7,601.1,110.67,600.4Z"/><path class="cls-37" d="M110.67,602.5a1.92,1.92,0,0,1,2,1.1A1.85,1.85,0,0,1,110.67,602.5Z"/><path class="cls-37" d="M111.64,599.3l-1,1.1Z"/><path class="cls-37" d="M112.62,603.6l1,1.1Z"/><path class="cls-54" d="M129,664.6c2,1,2.13,3.1,1.95,5.1a11.7,11.7,0,0,0,3.54,10c1,1,1.77,2.3.44,3-3.18,1.6-1.68,4.6-2,7h-1v-1.1c-1-4.3-3.27-8.3-2.92-12.9,0-.5.09-1,.09-1.4.09-.7.45-1.3-.09-2v-6.5a.62.62,0,0,1-.26-.7C128.8,664.9,128.89,664.6,129,664.6Z"/><path class="cls-41" d="M113.5,694.1c-1.06,0-2.21-.2-2.92,1.1-1.41-1.1-.88-3.8-2.92-4.4.18-1.4-.35-4.1,2.13-2.3a4,4,0,0,0,4.95.1c.53,2.1-.62,4,.62,5.4Z"/><path class="cls-41" d="M130,674.5a11.92,11.92,0,0,0,.88,7,14.13,14.13,0,0,1,1.06,7.2c-.62-.1-1.5-.2-1.59-1-.53-3.4-2.21-6.4-2.3-9.9.18-1.5-.44-3.2,1-4.4l.45.2A2.36,2.36,0,0,0,130,674.5Z"/><path class="cls-41" d="M123.14,696.2v1c-.09,4.2-.09,4.2-3.89,3.3,0-1.2-.18-2.5,1-3.3C122,699.5,122.17,696.4,123.14,696.2Z"/><path class="cls-41" d="M115.45,696.2V694C116.42,694.8,116.42,695.5,115.45,696.2Z"/><path class="cls-38" d="M127,663.6h1a2.16,2.16,0,0,0,.36.5,2.16,2.16,0,0,1-.36.5Z"/><path class="cls-38" d="M129,664.6v1.1l-1-1.1h0a.63.63,0,0,1,1,0Z"/><path class="cls-38" d="M129,672.3l1,1.1a.63.63,0,0,1-.89.1l-.09-.1h0Z"/><path class="cls-41" d="M117.39,699.5l-1-1.1Z"/><path class="cls-41" d="M118.36,700.6l-1-1.1Z"/><path class="cls-41" d="M110.67,696.2l1,1.1Z"/><path class="cls-41" d="M131.89,689.7l-.35,1.4c-.89-.8-.09-1,.35-1.4Z"/><path class="cls-41" d="M185.83,130.7c.18,1.5.8,2.1,1.59.6s1.51-2.8,3.19-2.8c.08,2.5.7,5-.18,7.5-.62,1.7-5.75,3.8-7,2.6-1-.9-.44-2.4-.53-3.6Z"/><path class="cls-41" d="M189.72,118.7c-.79,3-1.24,6.1-2.92,8.7C186.89,124.1,187,120.8,189.72,118.7Z"/><path class="cls-41" d="M186.8,127.4c0,1.2.18,2.5-1,3.3C185.83,129.5,185.65,128.2,186.8,127.4Z"/><path class="cls-9" d="M84.41,176.4c1.59,1.9,2.83,3.2,3.09,5.3.09.8.71,1.8-.44,2.2a1.76,1.76,0,0,1-2.21-.6A6.89,6.89,0,0,1,84.41,176.4Z"/><path class="cls-9" d="M88.48,163.4a24.34,24.34,0,0,0-1,7.6c-1.06.4-1,2.3-2.65,2.4-.44-3,.8-5.8,1.24-8.6C86.27,163.7,87.5,163.4,88.48,163.4Z"/><path class="cls-34" d="M88.21,239c.27.1.53.3.8.4-.09.3-.18.8-.36.9s-.53-.2-.79-.3C88,239.6,88.12,239.3,88.21,239Z"/><path class="cls-7" d="M195.47,256c-.71.5-.88,1.4-1.24,2.2a1.33,1.33,0,0,1-1.86.8s-.08,0-.08-.1a2.19,2.19,0,0,1-1.42-1.9,1.51,1.51,0,0,1,.89-1.9.3.3,0,0,0,.26-.1c1.15-.2,2.92-2.4,3.45,1Z"/><path class="cls-54" d="M129,664.6h-1v-1.1Z"/><path class="cls-35" d="M112.62,573.1c-.62-.1-1.42-.2-1.51-1-.35-5,.89-6.5,5.4-6.6C116,568.6,113.77,570.5,112.62,573.1Z"/><path class="cls-35" d="M114.47,584c-2.38-1.7-2.56-2.9-1-6.5C113.5,579.7,113.32,582,114.47,584Z"/><path class="cls-34" d="M105.81,526.2c-1.59-1.5-.71-3.6-1-5.4C106.52,522.3,105.63,524.4,105.81,526.2Z"/><path class="cls-55" d="M110.67,560l.35.2C110.94,560.6,110.85,560.6,110.67,560Z"/><path class="cls-36" d="M129,673.4h1v1.1Z"/></svg>