<svg xmlns="http://www.w3.org/2000/svg" width="11.07" height="8.856" viewBox="0 0 11.07 8.856"><defs><style>.a{fill:#133595;}</style></defs><path class="a" d="M6.919,1.66a.83.83,0,1,0-.83-.83.83.83,0,0,0,.83.83ZM6.849,3.753a.552.552,0,0,0,.346.121H8.3a.553.553,0,0,0,0-1.107H7.389L6.158,1.782a.552.552,0,0,0-.706.012L3.514,3.454a.553.553,0,0,0,.053.881l1.414.943V7.2a.553.553,0,1,0,1.107,0V4.981a.553.553,0,0,0-.246-.46l-.715-.477,1.008-.863Zm2.006.675A2.214,2.214,0,1,0,11.07,6.642,2.214,2.214,0,0,0,8.856,4.428Zm0,3.321A1.107,1.107,0,1,1,9.963,6.642,1.107,1.107,0,0,1,8.856,7.749ZM2.214,4.428A2.214,2.214,0,1,0,4.428,6.642,2.214,2.214,0,0,0,2.214,4.428Zm0,3.321A1.107,1.107,0,1,1,3.321,6.642,1.107,1.107,0,0,1,2.214,7.749Z"/></svg>