<svg xmlns="http://www.w3.org/2000/svg" width="489.692" height="455.713" viewBox="0 0 489.692 455.713"><defs><style>.a{opacity:0.33;}.b{fill:#133595;fill-rule:evenodd;}</style></defs><g class="a" transform="translate(-272.712 -209.122)"><path class="b" d="M416.927,664.835c-1.453-1.268-4.3-2.948-7.256-5.03C411.536,660.089,416.942,662.171,416.927,664.835ZM364.586,613.8c-2.193,1.806-.055,3.683,1.349,2.817C364.089,615.939,365.945,614.575,364.586,613.8Zm-6.2-8.124c-2.246,1.075.593,4.58,2.029,2.726C358.99,607.608,359.058,606.592,358.381,605.681ZM320.34,520.821c1.823.008.846,2.294,1.154,3.078a3.868,3.868,0,0,1,1.972-.158C322.14,522.538,322.45,519.141,320.34,520.821Zm-43.085-33.262c-1.95.524-.631-2.664-2.845-1.861,2.6,4.486,1.487,5.556.46,10.572a4.66,4.66,0,0,1,3.237.018C278.471,493.259,276.262,490.768,277.255,487.558Zm10.462-7.661c.3,1.1.274,5.578,1.2,4.067C288.566,482.883,288.656,478.412,287.717,479.9Zm-12.058-4.851c-3.177-.328-2.581,3.379-.279,3.333C275.149,477.037,274.994,475.75,275.66,475.047ZM277.7,447.06c-2.328,1.2-2.7,1.894-4.468,4.285,2.678-.039.442,1.246.013,1.667,2.312.05,2.794,1.659,2.6,3.89-.936.644-2.581.7-3.132,1.675,4.083-.279.334,4.76,2.12,5.5.048-3.078,2.66-.79,3.807-.117C274.428,458.837,277.969,452.983,277.7,447.06Zm-2.532-.1c2.732-.75-.674-3.994,2.689-4.333-1.205-1.387.426-4.947-.931-6.2-1.949,3.422-.156,6.861-3,9.358C274.762,445.834,274.48,446.8,275.166,446.965Zm2.433-11.041c.971-1.144,2.161-2.8.3-3.9C277.814,433.018,275.932,435.125,277.6,435.924ZM279.111,426c.236,1.363-1.193,3.93.192,4.5C279.825,428.825,282.258,426.866,279.111,426Zm28.827-70.151c1.379-3.653,6.232-8.682,1.853-10.908,1.8,4.656-4.2,8.18-4.037,11.094A1.706,1.706,0,0,1,307.938,355.845Zm5.884-14.446c-.926.16-1.423,2.151-1.023,3.242A2.1,2.1,0,0,0,313.822,341.4Zm7.654-12.976c-2-.209-6.127,4.312-4.629,6.344C317.182,332.67,319.7,330.187,321.476,328.423Zm35.9-35.23c-1.164-.689-2.463-3.427-3.532-2.713l1.345,1.33c-.3,1.832-2.537,1.187-1.408,3.305C355.083,295.709,356.238,294.652,357.38,293.193Zm10.4-11.707c-4.811,2.468-7.334,5.469-11.411,9.124.544.592.112,1.124.948,1.743C361.171,286.694,365.852,284.814,367.781,281.486Zm13.936-6.814a9.019,9.019,0,0,0-.564,2.878c1.022-1.259,3.154-7.551,4.035-4.745,4.62-7.444,15.82-11.892,22.425-15.887.385-4.092,2.662.094,1.88-4.745-2.942,1.569-6.906,3.217-9.644,5.026.79-.444,1.53-.6,2.087.2-5.315,3.053-12.087,5.141-16.009,11.694-2.03-.227-2.642,1.815-3.841.51-2.477,3.441-6.813,3.7-7.982,8.054-1.223-1.359-7.383,3.716-4.653,4.024C373.6,280.109,376.189,273.149,381.717,274.672Zm64.711-42.425-2.213.809.878,2.373A2.309,2.309,0,0,0,446.428,232.247Zm149.938,20c-.336-.055-.658-.086-.71.462a1.368,1.368,0,0,0,1.554-.209q1.214.845,2.471,1.582c.464-1.093-.733-1.9-2.023-2.331a3.117,3.117,0,0,0,.152-.413c-.62-1.87-6.012-2.019-4.292.793C593.527,250.192,596.313,252.285,596.366,252.248Zm34.664,15.979c-1.077-.716-1.572-2.2-2.771-.577C628.525,268.71,630.271,269.635,631.031,268.227Zm.29,4.308c1.4-.651.7-2.9.208-4.07-.562,1.108-1.711.081-2.106,1.788C631.7,270.306,629.6,272.246,631.32,272.535ZM676,284.246c2.108.154,2.827,3,4.02,1.4C680.273,284.1,676.946,283.446,676,284.246Zm14.8,36.214c1.731,1.4-.687.534-1.426,2.122,1.52.7,1.91.729,1.449,2.3,2.4-2.664,1.88.56,1.507,1.5l2.783-2.571c-1.01-1.02.312-2.172.314-3.26C693.832,321.1,692.469,318.87,690.8,320.46Zm-71.45-82.087a4.258,4.258,0,0,0-.137-1.33C619.146,237.539,618.822,238.166,619.348,238.373Zm-.126-1.387c-.007,0-.009,0-.016.007s0,.034.005.05C619.214,237.024,619.221,237,619.223,236.986ZM340.756,604.956c-.314,3.646,2.4,8.1,5.773,8.6C341.988,611.2,344.128,606.2,340.756,604.956Zm13.2-6.272-2.32-2.435c-.891-.271,2.545,5.853,2.382,4.307A3.251,3.251,0,0,1,353.952,598.684ZM282.34,416.31c1.667-8.26-3.117,4.851-.5,3.316-1.353,1.987-3.025,3.366-1.406,5.973,2.251-1.5,1.244-2.846.466-3.865a4.571,4.571,0,0,0,2.042-.817C281.878,419.471,283.765,418.139,282.34,416.31Zm39.925-75.759c.974-5.2,4.278-9.811,6.137-13.521-.351.277-.613.894-1.123.568a75.545,75.545,0,0,1,6.558-9.519c-.366.266-.8.2-1.344-.3,1.925-4.478,8.619-4.706,7.914-9.3-3.288.956-3.511,6.294-6.772,4.581-4.171,3.472-5.934,10.829-11.784,13.6,1.11,4.841-4.372,8.6-6.963,10.188C317.332,335.854,321.949,335.555,322.265,340.551ZM341.6,308.022c1.269.092,2.144-2.294,3.424-2.174-3.865-2.78,4.319-2.006,1.82-5.03-2.378,2.978-5.412,4.173-6.838,5.156-.32-.227-.631-.413-.84.03C340.416,306.957,341.329,306.442,341.6,308.022Zm72.1-55.331c2.231-.872,1.855-2.65,3.126-3.858-.515-1.5-3.734-1.13-3.416-.3,1.154.022,2.482,1.282,1.194,2.219-1.38-.159-6.008-1.506-4.3,1.679C411.618,251.7,413.151,250.162,413.7,252.692Zm5.365-.772c2.98-3.164,7.637-4.628,8.081-9.613.684,1.112,2.21-.36,2.887.757-.738.449-2.026.685-1.832,1.533,1.256-1.158,1.718.187,2.867-.625-2.663-2.622-3.085-2.094-4.175-5.018,1.52,5.642-6.88,7.858-9.631,8.217C420.728,246.836,418.578,249.7,419.066,251.919Zm36.709-19.558c-1.663-.149-2.642-1.757-4.332-1.875C451.84,232.809,455.5,233.213,455.774,232.361Zm169.136,3.354c-1.927-.23-1.308-1.647-3.237-1.868a4.233,4.233,0,0,1-1.665,2.745c1.595,1.079,1.705-1.224,3.3-.132-.124.328.212.841.574.217-.334-.167-.639-.348-.346-.805C624.036,235.9,624.68,236.279,624.911,235.715Zm8.158,13.428c.545-1.06,1.989.376,2.422-1.017-.978-1.191,1.8-1.883.19-3.344-1.52,2.617-3.123-2.276-4.159-1.062C633.341,245.5,634.367,247.185,633.069,249.143Zm-7.623-34.991c-2.954-2.083-5.8-3.763-7.256-5.03C618.173,211.786,623.58,213.868,625.446,214.152Zm45.085,46c2.192-1.807.055-3.684-1.348-2.818C671.026,258.018,669.17,259.381,670.53,260.152Zm6.2,8.122c2.246-1.074-.593-4.579-2.029-2.725C676.126,266.349,676.058,267.365,676.735,268.275Zm38.041,84.862c-1.823-.008-.847-2.295-1.154-3.078a3.87,3.87,0,0,1-1.972.159C712.976,351.419,712.666,354.815,714.776,353.136ZM757.86,386.4c1.951-.525.631,2.664,2.844,1.86-2.6-4.485-1.486-5.556-.459-10.572a4.66,4.66,0,0,1-3.237-.018C756.645,380.7,758.854,383.189,757.86,386.4ZM746.2,389.992c.347,1.082.258,5.553,1.2,4.067C747.1,392.961,747.124,388.481,746.2,389.992Zm13.254,8.918c3.177.327,2.581-3.379.279-3.333C759.967,396.919,760.122,398.207,759.456,398.91Zm2.418,22.034c-2.312-.05-2.794-1.658-2.6-3.89.936-.644,2.581-.7,3.132-1.675-4.083.279-.335-4.761-2.119-5.5-.048,3.077-2.662.79-3.807.117,4.21,5.123.67,10.977.941,16.9,2.328-1.2,2.7-1.894,4.468-4.285C759.208,422.65,761.445,421.364,761.874,420.944Zm-1.924,6.047c-2.731.75.674,3.994-2.689,4.333,1.205,1.387-.426,4.947.93,6.2,1.949-3.422.156-6.861,3-9.359C760.354,428.122,760.636,427.157,759.95,426.991Zm-2.433,11.041c-.971,1.144-2.161,2.8-.3,3.9C757.3,440.939,759.184,438.832,757.517,438.032ZM756,447.96c-.235-1.363,1.194-3.93-.191-4.5C755.291,445.131,752.859,447.09,756,447.96Zm-28.827,70.151c-1.379,3.653-6.231,8.682-1.853,10.908-1.8-4.655,4.2-8.179,4.037-11.094A1.706,1.706,0,0,1,727.177,518.111Zm-5.883,14.446c.925-.16,1.423-2.151,1.023-3.241A2.1,2.1,0,0,0,721.294,532.557Zm-7.655,12.977c2,.209,6.127-4.312,4.629-6.344C717.934,541.286,715.412,543.77,713.639,545.534Zm-35.9,35.229c1.164.69,2.463,3.427,3.532,2.713l-1.345-1.33c.3-1.832,2.536-1.187,1.408-3.306C680.032,578.248,678.877,579.3,677.736,580.763Zm-10.4,11.708c4.811-2.468,7.334-5.47,11.411-9.125-.544-.592-.112-1.124-.948-1.743C673.945,587.262,669.264,589.143,667.335,592.471ZM653.4,599.284a9.034,9.034,0,0,0,.565-2.878c-1.022,1.26-3.154,7.552-4.035,4.745-4.62,7.444-15.82,11.892-22.425,15.887-.385,4.092-2.662-.094-1.88,4.745,2.942-1.569,6.906-3.217,9.643-5.025-.79.443-1.53.6-2.087-.205,5.316-3.054,12.088-5.141,16.009-11.693,2.03.226,2.643-1.815,3.842-.511,2.477-3.441,6.812-3.7,7.981-8.054,1.223,1.359,7.383-3.716,4.653-4.024C661.52,593.848,658.927,600.808,653.4,599.284Zm-64.71,42.425,2.213-.809-.878-2.373A2.309,2.309,0,0,0,588.688,641.709Zm-149.938-20c.336.054.658.086.709-.461-1.129-.425-1.842.026-2.152,1.37.619,1.87,6.012,2.019,4.291-.793C441.589,623.764,438.8,621.672,438.75,621.709Zm-31.894-15.4c-.266-1.061-2.011-1.985-2.771-.577C405.161,606.446,405.657,607.925,406.856,606.307Zm-47.736-16.6c-2.109-.154-2.827-3-4.02-1.4C354.843,589.856,358.17,590.51,359.12,589.711ZM735.714,463.155c-5.45,2.5,2.437,8.011-3.084,8.388a2.292,2.292,0,0,0,.726,2.359,22.291,22.291,0,0,1-3.084,1.86c.063.632.735,1.586,1.086.848.615,1.675-.464,2.54-2.171,3.175-1.412,6.17-1.089,11-5.095,15.908,1.709,5.155-3.867,10.918-6.666,14.812-2.129,11.178-11.761,18-12.752,26.672-1.162-1-1.666.079-2.939-1.264-1.1,1.234.245,2.165,1.813,3.066-1.639,1.129-2.059-.185-3.487-.4,1.7,2.115.449,1.9-1.192,3,1.875,2.125,2.023-1.664,3.775,0-2.082.924-5.358,4.2-6.854,2.344-1.493,1.073-.256,1.932,1.168,2.781-4.127,4.887-8.151,3.045-10.04,10.29-.247-1.027-.644-.791-1.469-1.206a2.537,2.537,0,0,0-.513,3.682c-.824,1.482-2.185-.022-3.108.812-1.671,2.015,1.187,4.111-1.083,6.106-1.347-3.482-3.388,2.015-5.518,1.4-.926,1.442.483,3.033-.707,4.474-1.153-.9.551-1.615-.269-2.484-4.446,3.5-4.723,5.6-9.352,8.628-2.138,1.38-4.011,4.455-5.478,5.061-1.679.685-3.42-.625-4.834.058-2.452,1.187-4.831,6.339-7.235,4.44-2.556,3.482-6.18,5.589-10.505,8.21l-.1.059c-.974.591-1.943,1.172-2.987,1.842,1.115,2.543-5.067,3.567-6.528,3.6-1.023,1.3-.015,1.126.875,2.431-1.705.334-3.189-.631-5.092.926-1.215,1.242.248,1.817,1.138,3-.848.845-1.342-.249-1.883-1.077-5.549.708-7.763,8.667-14,7.044-.862,2.876-7.718,1.34-7.3,6.318-1.044-.343-2.459.513-3.005-1.4-1.442.536-.551,2.19-1.011,3.2-1.681-4.024-5.833,1.932-8.378,2.822-2.1.749-5.531-1.764-6.208,2.316-3.791-3.443-6.348,1.323-10.691,2.92-.594.294-.124,1.235,0,1.969-6.717-.34-10.1,3.19-14.254,5.17-1.937.353-3.063-.771-3.93-2.314-2.808,0-2.569,2.283-4.541,2.9-.163-2.955-4.587,1.206-4.818-1.617-1.664,2.6-5.1,2.07-7.5,1.87,1.587.128-2.806-1.42-4.045-1.333-1.652.127-2.587,1.557-4.236,1.8-1.818.255-3.846-1.75-5.679-1.926-2.723-.222-8.047-.89-12.591.182-.833-1.453-1.169-1.13-.6-3.13-4.141,4.777-6.736-.527-10.84.18.284,1.707,2.233,1.567,2.092,3.768-1.578-4.911-9.852-1.409-14.271-2.953,0,2.912,4.934.917,4.16,4.624,2.467-3.513,5.7.109,8.989-1.033-8.679,3.836-21.624,2.439-28.6,2.59,2.028,5.881,14.231.017,16.227,6.466,3.911-1.33,4.47-.919,7.087-2.216-.687,1.688-.491,2.948,1.009,3.8,3.664-4.714,11.348,1.135,13.216-3.873,1.33,3.322,4.195.26,5.719,1.026-.1.913-1.7.3-1.665,1.339.445,3.409,8.2.443,7.374-1.065,2.91,3.265,6.862.126,10.678-1.733,2.6,2.091,13.312,2.857,15.187-1.666,1.013-.04,1.465.814,1.562,2.257,6.038-1.553,9.306-3.2,16.034-2.309-4.907,2.917-9.833,1.051-12.5,5.445.5.555,1.451.372,1.513,1.621,2.163-.855,2.265-1.019,4.173-.255,1.69-1.96,4.922-4.023,7.305-2.388,1.064-3.515,4.67-2.666,6.175-6.222-1.865,3.069,1.539,1.657,3.476,1.591-8.132,6.664-18.783,7.309-25.9,10.785-1.361-.364-4.136-2.979-4.76.189-1.627-.391-2.328-2.149-3.936-2.566.888,1.057-.532,1.117-1.977,2.828-1.109.082-.669-2.009-1.983-1.637-2.45-.177-.724,3.148-3.2,2.953.1-1.091-.587-1.126-1.31-1.109-4.636,5.045-15.585.691-19.953,2.805-4.746-3.036-10.2,1.485-17.254-1.151-2.891,1.4-7.667,2.182-8.424-.408-1.279.282-2.044,1.19-3.162,1.677.335.669,1.34.747,1.063,1.962-.765-2.475-2.607-.688-4.218-.953a209.566,209.566,0,0,1-25.258-5.325c.521-2.272,1.172-1.391,2.649-.8.037-.738.337-1.087.835-1.134a.616.616,0,0,0-1.2-.215c-1.568-.9,1.179-1.495-.13-2.572-4.977,5.019-10.228-1.894-15.352-3.256-.182.343.65.985,1.019.907-6.785,1.457-15.719-.334-17.784-4.291-1.745-.869-1.189,2.9-3.128,1.647,2.516-1.365-1.849-1.927-.534-4.137a2.645,2.645,0,0,1-3.782-1.991c2.279-.576-.178-2.773-.622-3.564-2.278,1.588-4.3.915-6.553.244.7-1.292,2.038-.764,2.5.276,1.083-1.491,1.9-1.829,1.834-4.685-2.32,2-1.294-1.675-4.111-.915.37-.641.3-1.083-.071-1.379,2.268-1.974,3.483-4.28,5.42-3.979a3.709,3.709,0,0,1,.415-2.534c-.932-.445-1.427.279-2.381-.247.8-1.465.067-2.19-1.392-2.586,2.112-.681,2.335-2.809,2-4.622a1.415,1.415,0,0,0,2.075.824c-.555-1.97,1.512-3.819,3.375-4.009.042-.147.087-.273.131-.4-.061-1.139-1.688.51-2.551-.638l1.745-4.039c1.63,1.686,2.478-.4,4.5,1.729.743-.646,1.481-1.282,2.231-1.879-4.427-.54-8.166-2.191-15.1-.01-.009-1.717,1.248-2.432,2.208-3.378.237.943-.81,1.664.04,1.728.835.48,1.4.327,1.675-.95-1.057-.631-1.457-2.089-2.886-2.269-.135.846-1.233.914-1.694,1.507-1.141-.179.108-3.226-1.157-3.232-.659.207-1.588.161-1.694.864,1.637,1.124,1.573.674.557,2.823,1.413.048,2.122.941,2.915,1.741-2.005.566,1.506,1.877-.5,2.449-1.474-.743-.654-.623-.661-2.794a5.14,5.14,0,0,0-4.043-1.506c1.067.489-.5,2.118,1.588,2.167-.4,1.707-1.544.68-2.107,1.788-.474-1.127-1.1-3.221.1-3.959a6.087,6.087,0,0,1-3.574-.661c2.485-1.157,5.737-1.619,6.344-4.489-.642-2.41-5.253-.305-6.68-1.9.663-2.924-1.639-2.582-2.617-3.709-1.264,1.575-6.233.557-5.082-1.156.782.839,3.036,1.479,2.95-.877-1.842.475-2.2-.578-3.387-.8-.143.92-1.513.572-1.327,1.835a28.046,28.046,0,0,0-6.07-2.023c.819-5.227-5.536-1.1-4.264-6.851-1.9.293-1.9-1.017-4.028-.565a21.523,21.523,0,0,1,7.612-3.5c-3.749-2.991-6.46-7.38-12.813-5.435-1.906-3.31-5.592-7.633-11.436-6.866-1.392,6.5,11.076,5.095,10.194,9.713-.024-1.148,3.088-1.7,3.036-.412a1.93,1.93,0,0,0-1.536,1.675c2.379,1.089,7.5-1.832,9.067,1.382-3.462,1.007-10.339,2.174-12.823-.443.654-1.111,3.4.587,3.3-1.554-3.481-.6-5.493-1.883-10.007-.791-.45-2.587-1.833-4.493-2.615-6.794-4.372,0-4.409-2.641-8.374-.723.143-2.059,2.6-.317,2.617-2.583-1.307-2.363-1-.92.891-2.873l-5.274-.979a2.832,2.832,0,0,0-2.009-3.443c-1.276,1.639.469,1.574.428,2.518-1.807-.723-3.036-.457-3.926.388-.385-1.341-2.545-1.7-1.235-3.954,1.443.13,2.9.258,3.151-1.713-.16-.007-.32-.036-.48-.046a2.4,2.4,0,0,1-2.051-.193c-2.208-.224-4.418-.532-6.625-.879,2.46-3.364-5.608-1.533-3.32-4.805,1.888-.656,1.853,1.181,3.361-.256-.523,1.473,1.788,1.546,2.214,2.544.474-.714,1.247-.856,1.473-2.1l-3.457-1.007c2.6-2-1.192-2.413-.682-4.6,3.91,1.677,4.319,6.324,10.426,4.21-.321-3.439-11.2-5.082-5.448-9.51-.4-.822-1.74-1.226-3.19-1.6-.383.6-.61,1.561-1.324,1.431-1.356-5.676-7.339-9.707-7.864-15.781-.56.678-1.56.083-2.255.338,1.525-1.774-1.488-2.061-.74-3.573,2.229.417,2.089,2.569,3.62.926-.806-2.24-1.308-4.559-2.938-6.579.489-1.652,1.609-.948,2.183-2.276-.814-.2-1.476.22-2.452-.54.773-1.194,1.89-1.034,2.539-2.739-1.946-1.036-1.128-1.316-3.178-1.619,1.54-1.237,3.483-.869,5.033-2.078-1.145-1.3-3.142-2.438-1.949-4.3l1.047.544c.245-.266.489-.514.873-.2-1.723,1.1-.05,3.385,1.064,2.507-.9-2.751-1.314-4.633-4.216-6.15,2.416-.988.12-2.147,2.207-2.808-1.152.22-2.361-.476-1.622-1.639,2,1.149,3.751.779,5.283-1a31.427,31.427,0,0,0,2.573,4.043c.971-1.151,2.6.642,3.348-1.472-3.993-.856-4.549-3.208-5.492-5.7-1.776.511-5.154.129-3.983-2.389,1.187.71.8,1.67,2.605,2.252a4.409,4.409,0,0,0,2.327-2.665c-.7-.216-3.449.653-2.879-1.049.493.491,2.845-.235,1.675-1.014-1.495-.987-2.645.513-4.253-1.269.661-1.117,3.668-1.4,2.868-2.292-1.151.7-4.807-.107-4.749-1.682,1.622-.926,1.907.786,2.777.423-1.623-1.24,2.663-1.308,1.1-2.011-2.951,1.26-5.014-1.862-5.074-4.29a1.434,1.434,0,0,1-.274-.082c.084-.156.2-.3.292-.443a3.121,3.121,0,0,1,.154-.77,6.209,6.209,0,0,0-3.587.3,1.776,1.776,0,0,0,.354-1.563c-.835.018-1.674.034-1.851.465.287,1.049,2.269.742,2.1,2.142-3.676.9-.562,3.143.582,4.839-3.062,2.923-.345,7.294-3.071,9.287.788,1.336,2.561,1.706,3.159,3.193-1.459.344-.883,1.688-2.885,1.775.844,3.868,1.617,4.747,2.655,8.755-1.6.267-1.608-1.24-1.9-2.417-.642,1.948-2.637,3.328-3.235,5.336a4.974,4.974,0,0,0,2.1.506c-.6.933-.817,2.039-2.626,2.475-2.071-.258.64-2.87-1.846-2,.464-2.789-1.159-6.934-5.422-6.22-2.074-.264,1.631-.914,1.869-.337-1.951-1.652,1.1-2.208-.38-4.767-.43-.854-2.507,0-2.236-1.579-1.139.107-1.216.767-2.422.838-.028-2.1-.014-6.381-3.114-6.919,1.2-2.755-1.317-6.332,1.984-8.958-4.665-1.522.83-6.835-3.286-8.09.584-.829,2.66-.614,3.739-1.088-2.173-.175-2.554-1.185-.088-1.444-1.421-4.356,2.923-10.908-1.038-14.044,2.738-1.1,3.168-5.611,1.506-7.77a3.455,3.455,0,0,1-1.922.346c-2.506-6.3,2.231-10.233-3.981-14.582-2.464,1.264,1.968,2.231.872,4.209-6.689-5.425,2.336-15.121-1.384-21.638,5.45-2.5-2.436-8.011,3.084-8.388a2.289,2.289,0,0,0-.725-2.358,22.266,22.266,0,0,1,3.084-1.86c-.063-.633-.735-1.586-1.085-.848-.615-1.675.464-2.54,2.171-3.176,1.412-6.17,1.089-11,5.095-15.908-1.709-5.155,3.867-10.918,6.666-14.812,2.128-11.178,11.761-18,12.751-26.673,1.163,1.005,1.666-.079,2.94,1.265,1.1-1.234-.245-2.165-1.813-3.066,1.64-1.129,2.06.185,3.488.4-1.7-2.115-.45-1.9,1.192-3-1.876-2.125-2.024,1.664-3.775,0,2.082-.924,5.357-4.2,6.853-2.344,1.493-1.073.256-1.932-1.168-2.78,4.127-4.887,8.151-3.046,10.04-10.29.247,1.026.644.791,1.469,1.206a2.536,2.536,0,0,0,.513-3.682c.824-1.482,2.184.021,3.108-.812,1.671-2.016-1.187-4.111,1.082-6.106,1.348,3.482,3.389-2.015,5.518-1.4.927-1.442-.482-3.033.707-4.474,1.153.9-.551,1.614.269,2.484,4.445-3.5,4.723-5.6,9.352-8.627,2.138-1.38,4.01-4.456,5.478-5.061,1.679-.686,3.42.625,4.834-.059,2.452-1.187,4.83-6.339,7.235-4.44,3.148-4.288,7.86-6.438,13.587-10.11-1.116-2.543,5.067-3.567,6.528-3.6.882-1.117.247-1.2-.514-2.018a3.577,3.577,0,0,1-2.214-.473c-.121,3.324-5.734,1.97-7.031,1.094.479.062,2.157-1.444.914-1.59a2.852,2.852,0,0,0-2.787,1.729c.706.239,1.359.512,1,1.484-1.955.263-2.795,2.149-4.085,3.379,1.887-4.9-.057-7.762,4.083-7.069.975-2.541,3.526-2.66,4.728-4.912,1.928.234,2.042,1.945,3.532,1.028.329,1.256-2.155,1.442-.481,2.344,3.2-2.093,7.491-4.236,7.319-7.78,2.1.361.9,2.551,2.995,2.927.281-3.678,4.741-2.136,5.839-2.83-1.022.378-1.644,1.537-2.1,2.971-2.118-1.383-4.94.425-3.708,2.4a4.452,4.452,0,0,0,1.752-.125c1.348-1.134,2.594-2.467,3.951-3.5-.209.005-.318-.108-.228-.606,1.207.584.839-1.916,1.4-2.629,4.337,1.786,2.242-4.016,5.709-4.1.257,1.732-2.125,2.257-.913,2.868,2.206-1.028,4.674-1.419,6.635-2.953a1.688,1.688,0,0,1,.425.154,3.5,3.5,0,0,0,.044-.436c.953.313,2.181-.273,2.81,1.055.368-.506.7-.961,1.066-1.382a3.506,3.506,0,0,1,.142-1.476,2.509,2.509,0,0,0,.5.728l.081-.094a1.391,1.391,0,0,1,.3.485c1.976,1.25,5.321-3.179,7.5-3.94,2.1-.749,5.531,1.763,6.208-2.316a4.538,4.538,0,0,0,1.721,1.008,2.306,2.306,0,0,1,.256-.672,1.321,1.321,0,0,0-.013.727c1.757.421,3.354-.691,5.159-1.953a87.583,87.583,0,0,0-9.773,1.3c2.77-4.485,12.614.206,12.51-4.842.865-1.526,2.222-1.2,3.453-1.3-.1.262-.254.536-.379.8,5.28-.44,8.35-3.383,12.013-5.13a3.015,3.015,0,0,1,2.785.841c.435-.377,1.045-.727,3.142.234,1.541-2.889,5.879-2.028,9.471-1.632a11.231,11.231,0,0,1,4.819-.332c.04,0,.078,0,.12.01.145.013.314.024.453.036a.58.58,0,0,0-.28.02,2.583,2.583,0,0,1,.985.536c.308.111.642.224,1,.33.107-.133.286-.241.76-.314a1.245,1.245,0,0,1,.48.626,6.537,6.537,0,0,0,.708.111,1.685,1.685,0,0,1,.418-.813,5.835,5.835,0,0,1,1.914.08,6.035,6.035,0,0,1,2.292-1.044c1.1-.155,2.284.511,3.453,1.107a1.9,1.9,0,0,0,.386-.458c.485.294.615.6.58.907a4.525,4.525,0,0,0,1.261.369c.241.019.6.051.88.076a5.022,5.022,0,0,1,4.94.313,27.256,27.256,0,0,0,6.77-.572c.833,1.453,1.17,1.13.6,3.13,4.142-4.777,6.736.527,10.84-.18-.283-1.707-2.233-1.567-2.092-3.768,1.578,4.912,9.851,1.41,14.271,2.954,0-2.912-4.934-.918-4.16-4.624-2.468,3.513-5.7-.109-8.989,1.033,8.68-3.837,21.624-2.439,28.6-2.59-2.028-5.881-14.232-.017-16.227-6.466-3.911,1.331-4.47.92-7.087,2.216.687-1.688.491-2.948-1.01-3.8-3.663,4.714-11.347-1.135-13.216,3.874-1.331-3.322-4.195-.26-5.719-1.026.1-.913,1.7-.3,1.665-1.339-.445-3.409-8.2-.443-7.374,1.065-2.91-3.266-6.862-.126-10.678,1.733-2.6-2.091-13.312-2.857-15.187,1.666-1.013.04-1.465-.815-1.561-2.258-6.038,1.553-9.306,3.2-16.034,2.309,4.907-2.917,9.832-1.051,12.5-5.444-.5-.555-1.451-.372-1.514-1.621-2.163.855-2.265,1.019-4.173.255-1.69,1.96-4.922,4.022-7.305,2.388-1.063,3.515-4.669,2.666-6.174,6.222,1.865-3.069-1.539-1.657-3.476-1.591,8.132-6.665,18.783-7.309,25.9-10.786,1.362.365,4.137,2.98,4.761-.188,1.628.391,2.329,2.149,3.937,2.566-.888-1.057.532-1.117,1.976-2.828,1.109-.082.669,2.009,1.983,1.637,2.45.177.725-3.149,3.2-2.953-.1,1.091.586,1.126,1.31,1.108,4.637-5.044,15.586-.69,19.953-2.8,4.746,3.036,10.2-1.485,17.253,1.151,2.892-1.4,7.668-2.182,8.424.408,1.279-.282,2.044-1.191,3.163-1.677-.334-.669-1.34-.747-1.062-1.962.764,2.475,2.606.688,4.217.953a209.512,209.512,0,0,1,25.257,5.325c-.521,2.271-1.172,1.39-2.649.8-.036.738-.337,1.087-.835,1.134a.616.616,0,0,0,1.2.214c1.568.9-1.179,1.5.13,2.573,4.977-5.019,10.228,1.894,15.352,3.256.181-.343-.651-.985-1.02-.907,6.785-1.457,15.719.334,17.785,4.291,1.745.869,1.189-2.9,3.128-1.648-2.515,1.365,1.849,1.928.533,4.138a2.644,2.644,0,0,1,3.782,1.991c-2.278.577.179,2.772.622,3.564,2.278-1.587,4.3-.915,6.554-.243-.7,1.292-2.038.763-2.5-.276-1.084,1.491-1.9,1.829-1.834,4.685,2.32-2,1.295,1.675,4.112.915-.371.641-.3,1.083.071,1.379-2.268,1.974-3.484,4.281-5.42,3.979a3.714,3.714,0,0,1-.415,2.535c.932.444,1.427-.279,2.38.248-.8,1.463-.066,2.19,1.392,2.585-2.112.68-2.335,2.809-2,4.622a1.414,1.414,0,0,0-2.075-.823c.548,1.942-1.455,3.754-3.3,3.988.007.022,0,.039.009.062,2.42-1.225,3.01,3.5,4.878.865-1.007,2.927,1.843,1.33,1.914,4.327a31.19,31.19,0,0,1-5.048-2.835l-.649,1.5c1.136.762,2.185,2.615,3.1,3.391-.806.371-2.06.471-2.106,1.319.92,2.094,3.954-1.664,4.591-.292-2.038,2.187,1.554,1.222,2,1.79-1.223.461.088,2.527-.126,3.634,1.041-.457,1.307.263,2.307-.115-1.007-.264-1.977-1.375-.275-2.3.691,1.955,2.344,3.133,3.594.757.848,1.731-1.759.911-.909,2.642,3.044-1.4,1.183.631,2.352,1.2,1.406-.241,1.692-1.329,2.115-2.316-1.513,1.647-2.346-2.036-3.681-2.7,1.586,0,1.014-1.472,2.135-1.774.825.853,1.381,2.054,3.049,1.711,1.018-1.374-.011-2.227-.334-3.582,2.683,2.341,2.121,3.758,1.745,6.875,2.526.005,1.7,3.822,2.609,5.367-.857,1.028-2.62,1.353-3.336,2.5,1.587.768,2.264,2.695,4.068,3.184,1.122-.618,2.412-2.49,2.856-.584-.972,1.192-2.257-.381-2.267,2.19,2.108-1.4,1.131-.122,2.269.706a13.167,13.167,0,0,0,2.286-2.145c-.486-.11-1.933-1.816-.571-2.238.719.713.482,2.529,2.268,1.968.8-1.463-1.434-2,.031-2.368.135.9,1.25.219,1.717-.253.3,1.873-.224,3-1.208,3.721,1,.389.878,2.03,2.211,2.021-.02,1.767-2.3,4.546-.22,4.678,2.189.211,1.072-2.677,3.538-2.2.345,2.165-2.8,1.041-2.461,3.2,1.74,2.277,3.276,4.646,7.027,4.892-2.267,1.771,1.512,1.885,1.9,2.755.266,1.488-2.16,3.284-.581,4.045a58.152,58.152,0,0,1,6.384-.873c-.665.777-.549,1.9-.557,3.428-1.363,1.824-1.625-1.841-2.868.121,1.066,1.323,3,4.348,5.14,3.2-.008-1.3-2.272-1.444-.642-2.8,3.766,1.176,3.9,7.249,7.091,7.428,1.139,4.167-.362,7.9,3.829,7.595-.542,1.28-1.91,2.3-.227,2.8.4-.732,1.134-.994,1.217-2.165l3.468.268c-3.284,2.74,3.712,3.315,1.265,5.3.338-1.552-1.423-1.168-2.247-.265,1.366.554-.434,3.124,1.851,3.1,1.613-1.853,1.376.621,3.2,1,.054,1.862-1.983.165-1.93,2.022.394.176,1.106.171.932.695-1.851.937-2.984-2.772-5.261-.127,2.957.4.375,5.859,4.937,4.048-.275,1.03-1.111,1.08-1.418,2.036,2.172.031,1.561,2.689,3.514,1.669.74-1.355-2.022-.764-.826-2.384,3.337,1.556,2.988,3.624,6.4,3.472-.813,1.408-2.581.814-3.419,2.182,1.487-2.719-2.421-2.876-3.6-1.281,2.09.738,2.06,2.617,3.714,3.623a4.4,4.4,0,0,0,1.779-2.517c2.708.1,2.2,1.852,3.7,2.589-.323,1.781-1.654,1.41-2.374,2.346a4.153,4.153,0,0,1,2.506,1.646c2.006-.1,2.08,2.269,4.47,1.709-1.136,1.24-2.893.044-4-1.009,1.219,2.052,1.748,4.726,4.4,5.357-1.124.848-2.664.552-3.853,1.222.093,2.494,3.027-.4,2.641,1.991-.684-.149-1.353-.237-1.663.671.811.438,2.027,1.425,3.23,1.022a8.5,8.5,0,0,1-.69-3.208c1.024.172,1.735-.483,2.235-1.7a8.164,8.164,0,0,1,1.545,3.362,2.233,2.233,0,0,0,1.384-.105c-.105.406-.613.761-1.172,1a20.434,20.434,0,0,0,.719,2.617c2.134,1.549,3.078-.262,4.461-.854-.606,2.7-1.185,1.1-2.652,3.3-4.29-1.809-3.113-3.859-4.945-5.928-.342,2.042-1.111,1.838-1.536,3.681-2.271.5-2.662-.673-4.956.771.74-1.074-1.469-2.862-1.771-2.277-1.675,2.055,1.947,3.734,3.678,2.288-1.593,1.634.865,3.622,1.991,3.01,1.467-1.407-1.345-1.259-.383-2.491.672.123,1.057-.584,1.442-1.3,2.308,2.093,2.63,6.342,3.322,9.56.617,3.065,1.471,5.312,5.1,4.279a.806.806,0,1,1,.251-1.581c.277.48.509,2.807,1.4,1.872-.134-1.863-2.106-3.209-4.382-4.372,2.673-2.49-1.414-2.813-.2-4.858,2.018.216.322,1.674,1.237,2.264.954-.443,2.083-.395,2.872-1.322,1.632,1.434,3.417.441,2.29,2.762-1.757.588-2.9-2.436-4.7-.069,3.15.915,4.822,2.666,6.458,1.487,1.047-.835-.873-2.309.6-2.628-.326-.933-.666-1.945-1.049-3.419,1.6-.268,1.609,1.24,1.9,2.417.642-1.949,2.637-3.328,3.235-5.336a4.972,4.972,0,0,0-2.1-.506c.6-.933.817-2.039,2.627-2.475,2.072.258-.641,2.87,1.846,2-.465,2.789,1.158,6.935,5.421,6.22,2.075.264-1.631.915-1.868.338,1.951,1.652-1.1,2.208.38,4.767.429.854,2.507,0,2.235,1.578,1.14-.107,1.216-.767,2.422-.838.028,2.1.013,6.381,3.114,6.919-1.2,2.754,1.316,6.332-1.985,8.957,4.665,1.522-.829,6.836,3.288,8.09-.585.828-2.662.614-3.74,1.089,2.173.175,2.554,1.185.088,1.443,1.421,4.357-2.923,10.909,1.039,14.044-2.739,1.1-3.168,5.611-1.508,7.771a3.457,3.457,0,0,1,1.922-.347c2.507,6.3-2.231,10.233,3.981,14.582,2.465-1.264-1.967-2.231-.871-4.208C741.019,446.941,731.994,456.638,735.714,463.155ZM621.209,248.446c.858.205,1.926.978,2.42.254-2.305-.679.2-1.328.4-2.545l-1.66-.631C621.85,247.009,622.679,247.72,621.209,248.446ZM491.924,226.009c-.974-1.431-.017-2-.973-2.386-.653,2.261-1.346-.661-.674-.525-1.839-.381-8.175,1.945-3.931,4.572C487.03,224.749,489.249,226.253,491.924,226.009Zm16.987-4.19c-3.188-.937-7.381,1.8-10.807,2.6C500.728,226.766,507.208,224.971,508.91,221.82Zm8.036-2.586c-.8-.818-2.944-.769-2.892.838A1.84,1.84,0,0,0,516.947,219.234ZM404.089,268.867c-.348-1-.514-2.119-2.006-2.44,1.076.865-.428,3.02-.827,1.007-.919.733-.947,2.049-.652,3.515C403.268,270.253,402.26,269.408,404.089,268.867Zm9.819,356.645c-.858-.206-1.926-.978-2.421-.254,2.305.678-.2,1.328-.4,2.545l1.661.631C413.266,626.947,412.437,626.236,413.907,625.511Zm129.285,22.436c.973,1.43.017,2,.973,2.386.654-2.262,1.347.661.674.525,1.839.38,8.174-1.945,3.931-4.572C548.085,649.207,545.867,647.7,543.192,647.947Zm-16.987,4.19c3.188.937,7.381-1.8,10.808-2.595C534.388,647.191,527.908,648.985,526.206,652.137Zm-8.036,2.586c.8.818,2.944.77,2.892-.837A1.84,1.84,0,0,0,518.169,654.722Zm-89.82-33.993a1.587,1.587,0,0,1,.927-.5c-1.831-.82-2.846.252-3.617,1.935,1.338-.4.433-2.191,2.484-2.138A1.125,1.125,0,0,1,428.349,620.73ZM326.571,469.389c-.363.22-.68.459-1.082.66.129.437.941.35,1.655.345C326.94,470.054,326.743,469.718,326.571,469.389ZM629.882,323.8c-.018.108-.048.218-.062.326a2.574,2.574,0,0,1,.03,2.225,6.9,6.9,0,0,0,.457,1.467c.085-.018.152-.056.241-.071C631.093,325.421,632.264,323.6,629.882,323.8Zm79.391,79.037a2.229,2.229,0,0,1,1.423.115,17.733,17.733,0,0,1-1.162-2.885C708.091,401.232,708.8,402.093,709.273,402.836ZM587.849,290.908a1.341,1.341,0,0,0-.439.606,5.978,5.978,0,0,0,.317.659,5.925,5.925,0,0,1,1.458.636c.2.014.379.022.663.061a1.791,1.791,0,0,0,.29-1.005A3.082,3.082,0,0,1,587.849,290.908ZM619.19,317.58c.453,1.683,2.172.812.843,3.058.128.049.262.092.438.165a2.982,2.982,0,0,0,.861-1.707c.169-1.015.589-2,.905-3.251a3.032,3.032,0,0,1-1.6.9A1.461,1.461,0,0,1,619.19,317.58Zm22.747,35.436a3.348,3.348,0,0,1-.469-.551,9.388,9.388,0,0,1-1.146.907,1.162,1.162,0,0,1-.235-.431c.461,1.334,1.1,2.471,2.722,1.956a1.548,1.548,0,0,0-.009-.29,2.027,2.027,0,0,0-.232.112C641.526,354.493,640.036,354.11,641.938,353.016ZM592.1,295.851l1.764-.956c.792,1.231-.718,6.77,2.294,5.724-.087-.928-.516-1.2-1.152-1.105.78-3.2,3.177-.5,4.067.253.651-1.377-2.15-4.977-3.791-2.127-.207-2.632,3.466-4.578,4.309-2.779.56-1.174-.01-1.51-.8-1.737-.707.067-1.581.332-2.493.383a8.465,8.465,0,0,1-2.544.052,2.3,2.3,0,0,0-.632,1,1.792,1.792,0,0,0,.022-.884,2.8,2.8,0,0,0-.287.059A6.276,6.276,0,0,0,592.1,295.851Zm4.435-2.866a2.566,2.566,0,0,1,.686-.376,1.226,1.226,0,0,1-.7-.86C595.924,292.378,596.258,292.642,596.54,292.984ZM603,298.556c-.091,3.09,2.455,1.634,3.272,3.139.665-.461.328-1.559.357-2.414C604.857,300.391,605.084,298.212,603,298.556Zm36.82,51.674a1.538,1.538,0,0,1-.719.109,3.772,3.772,0,0,1,.322.642c.24-.075.467-.151.745-.226C639.98,350.678,639.9,350.459,639.822,350.23Zm-41.631-54.09c1.072.92,1.791,2.414,3.735,1.739.3-1.48-1.93-1.63-.755-2.563A2.507,2.507,0,0,0,598.19,296.141Zm8.126,10.252a1.409,1.409,0,0,1,1.342-.014,4.873,4.873,0,0,1-1.247-1.943A5.439,5.439,0,0,0,606.317,306.393Zm7.2,5.056a2.551,2.551,0,0,0-.2.319c.071-.079.141-.158.212-.237C613.532,311.5,613.522,311.483,613.521,311.449Zm-5.648-4.932c-.468.5-.624.845-.521,1.075a1.334,1.334,0,0,1-.616.34,4.127,4.127,0,0,0,4.3,2.317c-.844.847-1.482,2.28-.562,2.943a5.575,5.575,0,0,1,.967-.66,3.217,3.217,0,0,0-.113-.725c.539-.608,1.126-.9,1.8-.547a5.843,5.843,0,0,0,.19-1.316c-.6-.222-.918.082-1.815,1.238a4.945,4.945,0,0,1,1.431-3.167c-.021-.05-.038-.1-.061-.15A6.877,6.877,0,0,1,607.873,306.517Zm27.969,47.458c.562.228.882.583.442,1.219a1.661,1.661,0,0,0-.237-.126c.252.278.7.407,1.592.21A1.146,1.146,0,0,0,635.842,353.975Zm-228.7,127.492c.205-.008.39.007.608-.015a4.768,4.768,0,0,0-.54-.286c-.114.013-.2.011-.323.026A2.758,2.758,0,0,1,407.143,481.467Zm11.447,6.761c-.058.288.148.61.262.917a2.109,2.109,0,0,0-2.3.389c.228-.022.455-.048.687-.064.106-.107.2-.177.316-.311a1.589,1.589,0,0,1-.037.285,9.473,9.473,0,0,0,1.236-.171,2.766,2.766,0,0,1,.635-.474,1.166,1.166,0,0,1,.141.027.622.622,0,0,0-.3-.572A1.64,1.64,0,0,0,418.59,488.227Zm-.774,1.932a4.116,4.116,0,0,0,.362-.283c-.13-.045-.232-.091-.37-.135A1.549,1.549,0,0,0,417.816,490.16Zm2.014.32a.6.6,0,0,1-.279.37,5.806,5.806,0,0,0-1.665-.073c.459,1.031,2.184,1.279,3.787,1.422-.153-.326-.292-.658-.44-.985-.194-.031-.194-.091-.076-.169l-.054-.121C420.678,490.792,420.26,490.646,419.829,490.48Zm-3.372-2.113a2.184,2.184,0,0,0,.555-.437,7.152,7.152,0,0,0-1.5.564.351.351,0,0,1,.073.338,2.537,2.537,0,0,0,.525.187c.033-.378,1.3-.433,1.864-.389a.784.784,0,0,1-.358-.2A1.758,1.758,0,0,1,416.458,488.367Zm2.975-1.187c.009.008.039,0,.051.011-.007-.016-.012-.033-.019-.05C419.456,487.154,419.441,487.166,419.433,487.179Zm-.026.5a2.219,2.219,0,0,0-.392.146c.033.005.05.012.085.017C419.216,487.8,419.3,487.728,419.407,487.677Zm-1.225-.254a1.693,1.693,0,0,1-.188.1,2.155,2.155,0,0,0,.307.127C418.634,487.467,418.829,487.353,418.182,487.423Zm-7.977-3.346c-.136.075-.262.152-.4.227a8.453,8.453,0,0,1,1.092-.062C410.665,484.18,410.436,484.132,410.205,484.077Zm-.865-.143c-.11-.012-.221-.032-.328-.035a.471.471,0,0,1,.08.261,1.127,1.127,0,0,0-1.051.025,2.439,2.439,0,0,0,.751.364C408.976,484.345,409.158,484.138,409.34,483.934Zm.627-3.361c-1.067-1.209.137-1.989-1.947-2.5C408.951,479.183,406.425,480.732,409.967,480.573Zm-1.414.493a2.142,2.142,0,0,1,1.014,2.5c.07-.04.124-.027.194-.06a6.729,6.729,0,0,1,3.124-1.847,3.094,3.094,0,0,1-1.408,1.633,2.018,2.018,0,0,1,1.423,1.2,3.988,3.988,0,0,1,2.072,1.1,3.805,3.805,0,0,1,.7.23,1.821,1.821,0,0,1-.419.308,1.287,1.287,0,0,1-.437,1.221c.3-.1.489-.214.76-.319h0a8.291,8.291,0,0,0,3.128-1.8c-3.619-.349-2.68-1.66-1.015-2.7-.06-.166-.11-.336-.169-.5a1.854,1.854,0,0,1-1.514-.6,7.319,7.319,0,0,1-1.306.545,4.587,4.587,0,0,0,.681-.973,2.866,2.866,0,0,0-1.452-.19c2.484-.619-.024-.594-.313-1.142a3.531,3.531,0,0,0,.675-.266,23.285,23.285,0,0,1-2.322-1.639c-.547.368-1.289.693-1.12,1.249.986.484,1.786-.614,2.576-.029-1.421,1-1.82,1.7-1.875,2.6A6.639,6.639,0,0,0,408.553,481.066Zm-7.392-4.767a2.351,2.351,0,0,1,.36-1.281c-1.972.262-1.953-.519-2.49-1.017A3.872,3.872,0,0,0,401.161,476.3Zm-.222-4.136c-3.563.152-.343,1.828.47,2.336C401.863,473.384,401.337,473.354,400.939,472.164ZM621.527,336.406c2-2.424-1.507-2.432-1.563-4.031C618.45,334.374,620.836,335.515,621.527,336.406Zm-15.983-28.284c-1.615.725-2.407,1.977-4.349,2.5a2.163,2.163,0,0,0-.014.558,2.288,2.288,0,0,0,.352-.223c.492-.458.7-.043.8.619a9.272,9.272,0,0,0,2.063-1.429c.213.068.187.251.094.467a2.606,2.606,0,0,1,.134.639c.418-.076.46-.413.478-.747l.984-.43A2.465,2.465,0,0,1,605.543,308.122Zm34.381,44.342a1.37,1.37,0,0,1,.166-.659c-.135.048-.214.094-.328.14C639.815,352.117,639.87,352.292,639.924,352.465Zm-26.41-38.222c-.011-.008-.016-.02-.026-.027,1.971-2.085.357-.885.089-2.387a4.826,4.826,0,0,0-.537.385,4.128,4.128,0,0,0-.244,1.24,5.413,5.413,0,0,0,.542.859C613.405,314.273,613.449,314.277,613.514,314.243Zm2.759-2.532a.679.679,0,0,0-.872-.045A.874.874,0,0,0,616.273,311.711Zm-2.561-4.343c.368-.5.822-.421,1.261-.464a5.531,5.531,0,0,1-.423-.682,1.761,1.761,0,0,0-.865.768C613.7,307.117,613.635,307.251,613.712,307.368ZM602.2,301.213c-1.133.33-.427,1.833-1.336,2.3.925,1.276,1.791-.186,3.433-.969C603.69,301.934,602.8,301.814,602.2,301.213Zm-10.158-7.664a3.258,3.258,0,0,0-2.076-.012,5.737,5.737,0,0,1,1.533,2.644l.383-.208C591.384,295.221,590.948,294.268,592.04,293.548Zm54.287,75.1a1.646,1.646,0,0,0-.693.459c.125.205.185.472.326.662.025.374.7.131,1.3-.048C647.205,369.213,646.116,369.3,646.327,368.644Zm-18.66-36.217c-.019-1.4-.9-1.879-1.52-2.654a2.052,2.052,0,0,1-1.913.322A3.294,3.294,0,0,0,627.667,332.426Zm-.186-11.316a1.907,1.907,0,0,0-.482.326,3.642,3.642,0,0,1,.03.4,5.033,5.033,0,0,0,.925.285A3.415,3.415,0,0,0,627.481,321.11Zm-11.326-7.44a1.4,1.4,0,0,0,.7-.561,1.543,1.543,0,0,0-.384-1.215Zm.835-3.864a17.765,17.765,0,0,0-1.291-1.733,4.948,4.948,0,0,1-1.584-.517,4.56,4.56,0,0,1-.141.974c.2.327.33.572.035.647A3.44,3.44,0,0,0,616.99,309.806Zm-25.247-17.963c.85.863,1.868-.113,3.014.244a1.5,1.5,0,0,0,.221-.133A9.916,9.916,0,0,0,591.742,291.843Zm53.708,78.4c.231.3.645.5,1.392.281a2.278,2.278,0,0,0,.171-.237,3.02,3.02,0,0,1-1.54-.056C645.464,370.231,645.46,370.235,645.451,370.238Zm-2.882-16.506a2.658,2.658,0,0,0-.338-.415A.548.548,0,0,0,642.569,353.732Zm-14.191-25.005a3.28,3.28,0,0,1,.4-.26c-.1-.091-.2-.172-.3-.277ZM617.783,314.4c-1.5,1.038-1.122,1.667-.4,2.023a1.174,1.174,0,0,1,1.733-.181C619.63,315.376,617.04,316.149,617.783,314.4ZM608.1,269.471c-.066.006-.121.01-.192.014.006.019.007.035.014.054C607.975,269.524,608.038,269.494,608.1,269.471ZM428.469,606a3.658,3.658,0,0,0,3.163,1.1,7.989,7.989,0,0,0-.206-1.366A12.86,12.86,0,0,0,428.469,606Zm-1.031,6.331a2.362,2.362,0,0,0,2.477-.494c-1.922.171.3-2.036-1.6-1.878ZM651.669,368.708c-.035.031-.105.055-.145.086l0,.006c2.713-1.126,3.181-.4,2.823,1.624a1.809,1.809,0,0,1,.426-.155,12.88,12.88,0,0,1,.056-2.166,3.828,3.828,0,0,1,.833-.289,1.151,1.151,0,0,0-1.02-.767c1.925-1.569.112-3.469-.912-4.425.524,1.9-.666,1.928-1.968,3.3.116.333.487.646,1.7.558a3.473,3.473,0,0,1-2.453.348c-.011.018-.022.022-.033.039l2.625.113c-.584.667-1.66.442-1.981,1.576C651.632,368.611,651.654,368.657,651.669,368.708Zm2.768,5.2c.079-.277.1-.5.145-.746-.9-.037.158-.671.189-1.566,0-.049,0-.1,0-.149a1.12,1.12,0,0,0-.191-.519c-.771.11-1.294.749-2.088.8a1.508,1.508,0,0,0,.69,2.313A2.23,2.23,0,0,1,654.436,373.911Zm3.184-4.468.392-.667a4.032,4.032,0,0,1-.576.211A1.431,1.431,0,0,0,657.62,369.443Zm4.261-41.889c-.355-.519-.7-1.034-1.06-1.5a1.412,1.412,0,0,1-1.081.26c-.544,1.464.273,1.8,1.755,1.629A.915.915,0,0,0,661.881,327.554Zm45.2,87.178c.809-.419,1.659-.584,2.469-1,0-.037,0-.073,0-.11-1.675-.573-.788-1.487-1.529-2.184a1.548,1.548,0,0,1,.476-.425,6.043,6.043,0,0,0-1.38-1.215,1.991,1.991,0,0,0-.659.119C708.081,411.32,705.571,413.313,707.079,414.732Zm2.254-10.644c.105-.057.186-.126.294-.18-.016-.054-.076-.072-.11-.111A.733.733,0,0,1,709.333,404.088Zm1.642,7.086a1.878,1.878,0,0,0-1.778-.065c.12.211.23.4.331.57.032.023.061.029.093.051A3.6,3.6,0,0,0,710.975,411.174Zm3.83-10.527c-.175.23-.381.468-.529.691a1.593,1.593,0,0,0,.79.1A1.862,1.862,0,0,0,714.805,400.647Zm-1.067,4.809a7.774,7.774,0,0,0,.947-.057c-.116-.369-.283-.657-.756-.3C713.8,405.23,713.808,405.337,713.738,405.457Zm-2.023.562c.025-.136.211-.173.333-.248-.389-.914-.852-1.8-1.294-2.7-.468.828-1.107,1.544-1.567,2.368.658.526,1.321.521,2.583.4-1.1,2.851.133,1.183-2.455,1.852,1.166,1.121.125,2.235,2.462,1.416,0,1.657-1.7,1.137-3.3.839.191.273.362.549.52.82.956-.375,2.16-.37,2.206.287a14.324,14.324,0,0,0,1.715-1.839,10.24,10.24,0,0,0-.729-3.058A1.472,1.472,0,0,0,711.715,406.019Zm-3.276-1.385c.118-.073.233-.145.353-.216a3.083,3.083,0,0,1-.37.2C708.427,404.622,708.433,404.625,708.439,404.633Zm-.907.144c-1.948-.7-2.082,1.855-.97,2.656,1.317-.718.844-1.135.588-1.59a.979.979,0,0,0-.544-.093c.136-.087.288-.169.423-.258C707.02,405.285,707.136,405.054,707.532,404.777Zm-.328,13.03a5.627,5.627,0,0,0,1.735-1.683,7.587,7.587,0,0,1-1.375-1.1A6.552,6.552,0,0,0,707.2,417.807Zm-40.832-91.522c-.557,1.46.278,1.822,1.79,1.7C668.728,326.536,667.869,326.145,666.373,326.285Zm-3.189-.568c-.334-1.132-1.052-.56-1.845,0,.207.1.5.041,1.039-.519a5.064,5.064,0,0,0,.093,1.124A.908.908,0,0,1,663.184,325.717ZM646.006,356.1c-.05.029-.108.048-.156.079,0,.041.017.07.019.109A.547.547,0,0,0,646.006,356.1Zm.836-4.812c.553-2.783-4.183.547-3.224-2.278a2.31,2.31,0,0,0-.97.557c.481.292.43.848.04,1.491a8.494,8.494,0,0,0,.8.9C645.492,351.278,644.706,350.9,646.842,351.285Zm-13.863-23.041c-3.247,2.585,2.358,2.395,3.228,3.565C636.641,329.142,632.79,330.685,632.979,328.244Zm-14.485-32.979c1.383.36,2.281,1.421,3.738,1.7C623.418,295.1,619.276,294.266,618.494,295.265Zm-4.96-27.2a4.448,4.448,0,0,1-.633-.553c-.858.746-1.711,1.483-2.586,2.147,0,.041.006.061,0,.1C611.655,268.432,612.989,268.786,613.534,268.067Zm-7.561-.669a3.432,3.432,0,0,0-2.49-.545c.092.82.109,1.673.765,2.15A10.6,10.6,0,0,1,605.974,267.4Zm1.7-5.772a3.487,3.487,0,0,0-1.3-.094,1.118,1.118,0,0,1-.675.316c-.168.094-.364.116-.507.271,1.345-.119.677.915.794,1.5a5.523,5.523,0,0,0,.971-.073ZM715.834,388.732a3.7,3.7,0,0,0-.928-.994,8.178,8.178,0,0,1,.787,1.146C715.748,388.837,715.773,388.776,715.834,388.732Zm-4.668-3.574a5.068,5.068,0,0,1,1.8.81,2.361,2.361,0,0,1-.291-.43c1.458-.344.883-1.688,2.885-1.775a29.663,29.663,0,0,0-.836-3.069C713.208,382.524,715.272,384.813,711.166,385.159Zm-1.021,5.187c2.679.423,1.656,3.994,3.718,6.008a8.582,8.582,0,0,0,.549-3.062,31.7,31.7,0,0,0-1.312-4.075C712.214,390.012,710.8,388.638,710.145,390.345Zm-2.866,5.484c2.365.145,2.987.806,2.017,2.829.811.206,1.341-.9,1.964-1.52C710.155,396.04,709.508,394.162,707.279,395.83Zm-1.809-9.446c.4,1.742.6,3.517,2.576,4.862C709.071,389.132,707.168,387.743,705.47,386.384Zm-3.292,3.471c-6.959.179,2.8,5.084,1.752,7.459,1.3.349,2.311-2.155,2.159-2.66-.928-.693-1.62-.319-2.422-.5,1.488-2.15,4.254,1.124,5.755-1.028-1.449-.288-3.479-1.57-5.562-.1-.158-1.109,2.944-2.735-.653-2.723,2.008-1.375.517-5.163-1.361-5.444C699.137,385.929,701.869,388.467,702.178,389.855Zm-3.084-4.894c.682-1.415,1.344-2.853-.973-3.317A2.307,2.307,0,0,0,699.095,384.961Zm-37.111-63.618c-.143,2.371,2.981,2.023,4.971,2.71.431-1.385.777-2.73-.432-2.821,1.134-1.52,3.124-1.346,3.783-1.662C669.868,315.524,665.329,321.985,661.983,321.343Zm1.711-2.821c1.171-2.228-1.4-1.291-1.168-2.734C660.858,316.685,662.169,318.854,663.695,318.522Zm-3.87-.378c.686.954.373,2.725,2.959,2.068C662.833,318.636,660.945,318.7,659.825,318.144ZM646.5,355.864a2.04,2.04,0,0,0,2.16.737c-.543.678-1.286.577-1.995.869a3.134,3.134,0,0,0,1.644.125C649.58,355.821,647.879,355.37,646.5,355.864Zm-8.322-21.316c-.137,0-.273,0-.413,0-2.057,2.3,1,3.451,2.271,4.915.268.091.4.4.534.707C641.674,338,638.21,337.073,638.173,334.548Zm-3.083-46.821-1.113.262c-.209,1.882,1.75.9,1.2,3.2a4.332,4.332,0,0,0,2.792-1.223C636.8,288.5,634.9,289.786,635.09,287.727Zm-2.464-4.7c1.8.061,1.672-1.343,2.726-1.851,1.538.5-1.978,1.805-.933,3.78,1.447.822,2.694-1.893,4.506-1.036-.156-3.1-2.966-2.738-4.252-4.373C633.755,280.537,632.558,281.31,632.627,283.031Zm-2.115,2.314c.552,1.312,1.39,2.182,3.428,1.489C633.6,285.245,631.748,285.685,630.511,285.345Zm-4.209-4.179c-.082,1.85,1.614,1.087,1.878,2.423.782-.34.071-1.8.97-2.044C628.979,280.278,627.683,280.641,626.3,281.166Zm-5.645-4.136c1.928,1.109,3.157,3.245,5.586,3.565-.893-1.984-3.006-2.121-3.935-4.113Zm-3.389-3.686a1.081,1.081,0,0,0-.09,1.435,7.134,7.134,0,0,1,2.031,1.962,2.827,2.827,0,0,1,1.3-.869C620.349,273.512,617.756,275.16,617.268,273.344Zm-4.028-3.492c-1.327,2.215,1.724,2.97,2.405,4.056,1.484-1.059.466-1.075.153-2.508,1.6-1.005,1.764.44,3.366-.55C617.854,268.292,615.221,269.52,613.239,269.851Zm7.5-20.233c-1.289-.474-1.209-1.617-3.049-1.8-.592.937-3.018,3.048-2.112,3.919C616.888,250.021,619.138,250.631,620.742,249.618Zm-4.255-6.921a11.379,11.379,0,0,0,4.016-.566c-1.7-.118-.685-1.573-1.8-1.987C618.682,242.663,616.738,240.727,616.488,242.7Zm-6.134-4.035c1.56.832,6.473,1.125,7.719-2.08-1.11.632-5.272,1.142-5.772.059C613.3,238.662,610.916,237.145,610.353,238.662Zm-.056,15.879a16.985,16.985,0,0,1,1.272,5.159,3.141,3.141,0,0,1,1.874.138,5.983,5.983,0,0,1-1.453,1.5,6.4,6.4,0,0,0,.522,1.333,11.746,11.746,0,0,0,3.219-3.332,1.023,1.023,0,0,1-.336-1.512,3.34,3.34,0,0,0,.757.92c.56-.8,1.168-1.66,2-2.7-.26-.594-2.706-3.122-1.887-1.382.763.441-.3.991-.995.982C613.888,253.523,612.761,254.17,610.3,254.541Zm-4.457-.811c2.474,1.109,3.461-1.231,4.363-3.878C606.479,248.11,608.6,253.275,605.84,253.729Zm-3.787-10.343c2.055,1.261,5.753.822,4.663-1.231C605.707,243.7,602.638,241.007,602.053,243.387Zm-6.365-3.044c1.491.373,3.207,1.211,3.723-.3C598.062,238.974,596.869,238.94,595.688,240.342Zm1.917-4.7-1.15-.3c1.287-.957.16-.783.661-2.431C592.489,231.831,597.868,238.141,597.6,235.64Zm-9.882,12.438c1.287,1.865,5.3-.6,4.722,3.77-1.959.824-2.783-1.9-3.7,1.015,1.807-.061,2.24.818,2.89,1.546a13.675,13.675,0,0,1,1.325.706c2.24-.164,5.776-2.66,7.631.306,2.044-2.672,3.167-3.671,5.058-6.36-2.007.2.229-2.061-1.792-1.861C598.991,251.143,593.669,245.163,587.723,248.078Zm-.181-16.163c1.895.088,1.026,2.431,2.747,1.247C591.4,231.035,588.008,230.1,587.541,231.915ZM568.6,230.459l-2.322-.323C565.475,232.464,568.67,232.91,568.6,230.459Zm-3.394-1.107c-1.357-.555-3.991-2.893-4.131.17C562.3,229.984,564.59,231.438,565.2,229.352Zm-8.8,5.4c-4.054,1.271-8.8-2.067-10.875,1.134C548.345,237.233,554.643,238.423,556.406,234.757Zm-131.352,24.5a5.216,5.216,0,0,0,2.13.167,5.39,5.39,0,0,1,2.807-1.527C428.752,256.851,426.333,258.825,425.054,259.258Zm-9.974,6.987c.059-.03.113-.072.171-.1-.053,0-.1,0-.152,0C415.093,266.181,415.087,266.2,415.08,266.245Zm-1.937.481c-.065.085-.152.169-.224.255.161-.022.3-.1.452-.133C413.3,266.806,413.228,266.763,413.143,266.726Zm-4.072,3.1a3.936,3.936,0,0,0,3.023-.9c.527-.538.5-.945.283-1.337A10.213,10.213,0,0,1,409.071,269.828ZM325.219,469.62a8.516,8.516,0,0,0,.816-1.308A45.181,45.181,0,0,1,324.1,462.8c-1.148.773-1.664,1.972-2.925,2.692A12.871,12.871,0,0,1,325.219,469.62Zm2.293,1.419c-.114-.176-.185-.336-.29-.509a3.656,3.656,0,0,1-1.254.563c.063.146.173.314.222.452C326.614,471.123,327.076,471.315,327.512,471.039Zm3.539-11.762c-.937-1.04-2.014-2.11-3.028-3.2a5.656,5.656,0,0,0-1.722,1.605,8.562,8.562,0,0,0,3.867,2.365Zm-.1,38.368c1.614-.961,3.07-2.664,5.251-1.206a12.2,12.2,0,0,0-3.856,3.215c1.461.557,2.736,1.128,1.056,2.463,3.271,1.156,3.783,1.266,5.423,3.194,1.659-.516.941-2.5-.379-3.346,1.419-1.063,1.244,1.811,2.777.026.863-2.818-5.682-3.868-3.08-7.123C335.438,493.723,331.152,494.382,330.95,497.645Zm2.059,8c.038.022.039.09.073.118a3.108,3.108,0,0,1,1.758.262c1.343-1.024-1.293-3.769-2.292-1.734C333.914,504.056,334.021,504.415,333.009,505.649Zm9.092-.125c1.507-1.444.389-2.123-.7-2.83C340.581,503.921,340.817,504.881,342.1,505.524Zm3.275,9.248c.763-2.176-1.071-3.446-3.015-4.756C341.5,512.21,344.624,513.131,345.377,514.772Zm.29,4.942c-1.8.068-1.618,2.671.449,2.584C347.531,520.836,344.728,520.982,345.667,519.713ZM359,559.726c-.322,3.494-3.762,1.841-4.486,4.679a2.964,2.964,0,0,0,2.149.948c.71-3.381,3.647-4.428,4.9-2.3C362.532,560.759,360.055,560.725,359,559.726Zm29.848,19.763c-.22-1.686-3.381-2.463-4.9-1.519C385.319,578.723,386.113,580,388.848,579.489Zm25.525,44.85c1.29.472,1.21,1.616,3.05,1.8.591-.937,3.017-3.048,2.111-3.919C418.228,623.936,415.978,623.325,414.373,624.339Zm4.255,6.92a11.366,11.366,0,0,0-4.016.567c1.7.118.684,1.573,1.8,1.986C416.434,631.293,418.377,633.23,418.628,631.259Zm6.134,4.036c-1.559-.832-6.472-1.126-7.719,2.08,1.11-.632,5.272-1.142,5.772-.06C421.816,635.3,424.2,636.811,424.762,635.3Zm.057-15.879a11.121,11.121,0,0,1-1-3.63c-1.794.026-3-1.605-2.494-2.74a3.165,3.165,0,0,1,2.181,1.006,8.308,8.308,0,0,0-.905-2.772c-2.479,1.641-3.13,3.5-5.643,6.626.259.594,2.706,3.121,1.887,1.382-.763-.441.3-.992,1-.982C421.227,620.434,422.354,619.786,424.819,619.416Zm3.152,1.829c-.677.361-1.893.39-1.132,1.648l-1.134.348a.722.722,0,0,0-.293-.484q-.259.647-.5,1.348C427.723,625.419,427.208,622.8,427.971,621.245Zm5.092,9.325c-2.055-1.262-5.754-.821-4.663,1.232C429.409,630.255,432.478,632.95,433.063,630.569Zm6.366,3.044c-1.492-.372-3.207-1.21-3.723.305C437.054,634.983,438.248,635.017,439.429,633.614Zm-1.917,4.7,1.15.3c-1.287.957-.16.783-.661,2.43C442.628,642.126,437.248,635.816,437.511,638.316Zm9.882-12.437c-1.287-1.865-5.3.6-4.722-3.77,1.96-.824,2.783,1.9,3.7-1.015-2.54.084-2.355-1.69-3.894-2.286a18.007,18.007,0,0,0-3.857.939,10.007,10.007,0,0,1,2.609,1.762,79.006,79.006,0,0,0-8-1.347c-1.308,1.59-2.314,2.672-3.763,4.733,2.007-.2-.229,2.061,1.792,1.861C436.125,622.814,441.447,628.793,447.393,625.879Zm.181,16.163c-1.895-.088-1.026-2.431-2.746-1.247C443.712,642.922,447.108,643.857,447.574,642.042ZM466.52,643.5l2.322.324C469.641,641.493,466.446,641.047,466.52,643.5Zm3.394,1.109c1.357.555,3.991,2.892,4.13-.171C472.817,643.972,470.526,642.519,469.914,644.605Zm8.8-5.405c4.053-1.271,8.8,2.066,10.875-1.134C486.771,636.724,480.473,635.534,478.71,639.2Zm-62.817-2.229c.008,0,.009,0,.016-.007s0-.035,0-.05C415.9,636.933,415.895,636.953,415.893,636.971Zm-.124-1.387a4.205,4.205,0,0,0,.136,1.33C415.97,636.417,416.294,635.791,415.768,635.584ZM694.36,269c.314-3.647-2.4-8.1-5.773-8.6C693.128,262.752,690.987,267.756,694.36,269Zm-13.2,6.272c.765.8,1.535,1.611,2.32,2.435.89.27-2.545-5.853-2.382-4.307A3.245,3.245,0,0,1,681.164,275.273Zm5.1,51.8c-1-4.754-3.3-2.293,0,0Zm68.415,121.281c-2.251,1.5-1.244,2.846-.466,3.864a4.564,4.564,0,0,0-2.042.818c1.064,1.446-.824,2.778.6,4.608-1.667,8.26,3.118-4.851.5-3.317C754.628,452.343,756.3,450.965,754.682,448.357Zm-41.83,85.048c-.975,5.2-4.279,9.811-6.138,13.521.351-.277.612-.894,1.123-.569a75.693,75.693,0,0,1-6.558,9.52c.366-.266.8-.2,1.344.3-1.925,4.478-8.619,4.705-7.915,9.3,3.288-.956,3.513-6.294,6.772-4.581,4.171-3.473,5.935-10.829,11.784-13.6-1.11-4.841,4.372-8.6,6.963-10.189C717.783,538.1,713.167,538.4,712.851,533.405Zm-19.333,32.529c-1.27-.092-2.145,2.294-3.424,2.174,3.864,2.78-4.32,2.005-1.821,5.03,2.378-2.978,5.413-4.173,6.838-5.156.321.227.631.413.84-.03C694.7,567,693.787,567.515,693.518,565.935Zm-72.1,55.331c-2.231.872-1.854,2.65-3.126,3.857.515,1.5,3.733,1.13,3.415.3-1.153-.021-2.481-1.282-1.193-2.219,1.379.159,6.008,1.506,4.3-1.678C623.5,622.257,621.965,623.8,621.415,621.265Zm-5.365.772c-2.98,3.164-7.638,4.628-8.082,9.613-.684-1.113-2.21.359-2.886-.758.738-.448,2.026-.684,1.832-1.532-1.257,1.157-1.718-.187-2.867.624,2.662,2.622,3.085,2.094,4.175,5.018-1.518-5.641,6.88-7.857,9.632-8.217C614.387,627.12,616.537,624.26,616.051,622.037ZM579.342,641.6c1.662.149,2.641,1.756,4.332,1.875C583.276,641.148,579.62,640.744,579.342,641.6Zm-169.136-3.355c1.926.231,1.307,1.648,3.237,1.868a4.237,4.237,0,0,1,1.664-2.746c-1.594-1.079-1.705,1.225-3.3.132.123-.326-.212-.841-.574-.217.334.167.639.349.345.806C411.079,638.056,410.436,637.678,410.205,638.241Zm-8.158-13.428c-.464.9-1.543.093-2.132.66a11.3,11.3,0,0,0-6.922-2.522,17.228,17.228,0,0,0,6.671,2.831c-.01.026-.031.02-.039.049.977,1.191-1.8,1.883-.191,3.344,1.52-2.617,3.122,2.276,4.159,1.062C401.775,628.452,400.748,626.771,402.047,624.813ZM388.643,278c1.989-.066,2.688-1.826,2.958-4.3C390.558,274.976,387.734,276.289,388.643,278Zm46.573-29.922c-1.134.864-2.762.567-3.5,2.321C433.5,251.078,434.621,250.275,435.216,248.079Zm208.921,35.942c-.439,1.8-1.874.016-2.876.577.56,1.746,2.357,1.5,4.066.368-.687-.74-.709-1.351-.071-2.334,2.723-.707,1.905,2.9,4.724,2.124-.64-.638-1.658-.82-1.211-2.769-3.135.378-4.124-1.576-4.282-3.364-1.022,1.289-.651,3.651-3.322,3.645C641.427,284.59,643.711,281.35,644.137,284.021Zm11.985,8.8c.037-2.08-4.138-.642-1.068-2.215-.042-1.463-1.958.069-2.317.286l-.094,2.353C654.794,293.026,654.257,293.7,656.122,292.824Zm-.769,3.577c.787-.888,2.551-.86,4.114-1.019l.1-1.747c-.686.155-1.037-.031-1.143-.477-1.185,1.213-.525,1.119-2.361.84C656.073,295.039,655.28,295.313,655.352,296.4Zm3.036,5.394c2.107-.343,1.882,1.6,3.8,1.482-.349-1.915-2.911-1.667-2.389-4.466C657.907,299.734,659.4,300.033,658.388,301.8Zm7.26,1.317c-1.494-.109-2.508.329-2.537,1.853a2.3,2.3,0,0,0,1.653.5A3.764,3.764,0,0,0,665.648,303.112Zm-1.134,4.09c.973.082,1.641-1.039,1.724-.064.818-.207.7-1.467.918-2.342l-1.745.063C665.348,305.9,664.541,306.118,664.514,307.2Zm6.21.979c-.194-1.491.051-3.406-1.155-4.03C668.742,304.614,668.614,308.666,670.725,308.181Zm8.885,15.8c1.876-.288,1.957.72,3.338.818.892-1.7-1.316-1.209-.429-2.918C681.116,321.976,679.705,322.071,679.61,323.983Zm9,11.317.763-2.223-2.284-.324C686.69,334.187,687.194,335.02,688.611,335.3Zm3.561,5.208c-.813-.38.139-1.8-1.881-1.471a38.5,38.5,0,0,0,1.414,4.272c1.51.524.687-3.023,2.188-2.5C693.838,339.77,692.873,340.547,692.172,340.509Zm6.505,2.377c1.385-.962,1.09-1.958.664-3.387-1.12-.149-1.083,1.728-2.358,1.3C696.717,341.947,698.95,341.736,698.677,342.886Zm-3.145,8.913c-1.025.328-1.709.617-1.416.586.633-.056,1.3-.16,1.975-.271,1.648,1.242.861,3.688,1.552,5.364,3.119.14,1.676-3.758,3.331-5.628-2.108.7-2.411,1.138-3.6.065a11.47,11.47,0,0,1,3.975-.118,3.335,3.335,0,0,1,.563,2.084c1.087-.646,1.309-4.509-1.656-4.6a3.965,3.965,0,0,0,.651,1.716,10.935,10.935,0,0,0-4.068.432c-.014-.014-.019-.015-.033-.029,1.043-2.3,2.384-2.745,1.373-4.425-2.4.894-2.458,1.932-3.29,4.563A3.614,3.614,0,0,1,695.532,351.8Zm13.478,4.7c-.031-.817-.739-1.349-1.76-1.729-.653,2.05.332,1.607-1.639.735-.53.926.151,1.308-.466,2.257C706.807,358.173,707.223,355.808,709.01,356.5Zm3.3,9.8c-1.582.468-.676-.3-2.2-.793-.842.994-.4,1.5-.629,2.255C710.364,367.1,711.663,367.625,712.31,366.293ZM404.594,627.87c-.1,1.328.614,1.546.909,2.331,1.032-.064,1.4-1.34,1.783-.344C408.857,628.5,405.878,627.611,404.594,627.87Zm-6.847-21.923c-.258,1.707,3.156-.894,2.9.8.784-.012.745-3.567,1.734-1.458.493.027.541-.321.563-.683l.011-1.181c-2.148.928-3.915-3.084-7.445-2.561a1.069,1.069,0,0,1-.618,1.259c2.127.34,3.362,1.677,5.762,1.634C400.677,606.73,398.957,604.389,397.747,605.947Zm-4.353-10.123c-.73,1.754-1.7,2.312-3.6,1.528.419,1.8,2.329,2.066,3.99,2.536C392.74,599.167,394.818,596.926,393.395,595.824Zm-8.963,1.956c1.473,2.373,2.868,1.62,5.232,2.524C389.03,598.329,386.569,598.255,384.432,597.78Zm-7.232-9.872c-.878.143-.434,1.773-1.42,1.784,1.683,2.074,6.7.939,6.581,4.633C385.874,590.877,377.71,590.939,377.2,587.908Zm-3.492,4.159c.733,3.12,5.085,2.969,7.891,4.077C380.683,593.207,376.738,593.142,373.707,592.067Zm-5.038,1.735c-.014,1.836,3.116.879,3.381,2.464C373.984,594.832,369.906,594.23,368.669,593.8Zm-1.236-4.821c3.091.367,2.365,4.018,5.535,4.281C371.878,591.159,371.469,588.576,367.433,588.981Zm.413-6.52c-.2,3.187-3.447,2.214-3.654.357.714-1.935,2.388-.69,3.654-.357,1.04-2.163-2.034-1.073-1.194-3.066-3.557,1.939-10.332.335-13.269-.675-2.5,1.985,5.357,3,6.978,1.968-1.928,1.822,1.439,2.767-1.277,3.521,4.08.718,8.259.619,14.359.768C373.289,582.72,370.708,582.543,367.846,582.461Zm-13.95-6.1c1.639.2,3.366-2.129,3.618.418.849-.1.81-1.414,1.113-2.274-.917-.642-2.944-.536-3.321-1.582-.708.309-.944,1.266-2.09.948C353.332,574.763,353.776,575.447,353.9,576.359Zm3.764-5.533c-.884-.846-3.466-2.45-3.743.131C355.651,571.614,356.253,570.649,357.66,570.826ZM352,568.863c-1.628.626-1.441,1.062-3.1.075-.431,1.89,2.233,1.788,2.923,2.935C354.012,571.291,350.923,570.285,352,568.863Zm28.4-288.695c.874.088,1.737.184,1.773.9.844-.041.64-1.4.837-2.278-1.307.125-2.095.919-3.225,1.278C379.847,280.762,380.373,280.5,380.405,280.168Zm243.85-10.362a13.349,13.349,0,0,0,6.035,5.437C632.33,269.984,626.848,270.34,624.256,269.806Zm33.114,30.389.141-1.73c-2.216.851-1.55-1.261-3.394-.768C654.639,298.743,655.8,299.091,657.37,300.194Zm16.406,10.837c1.422-.15-.412-1.533-.2-2.3l-3.527.035C670.793,310.656,673.543,308.316,673.776,311.032Zm11.794,20.939a3.2,3.2,0,0,1,1.9-.337c.837-2.463-1.529-2.872-2.229-4.338C682.133,330.169,688.366,327.877,685.57,331.971Zm17.378,26.342c-.7,1.028-2.019.615-3.027.935.323,1.181,2.769,1.471,1.478,3.336,4.612-.322,2.708,2.662,3.982,4.336,1.4,1.241,1.36-1.509,2.764-.264-1.852-1.54-.833-4.251-3.441-5.459.4-.945,1.252-.883,1.618-1.9-1.308.6-2.745-.536-3.118-1.49C703.309,356.7,702.048,358.114,702.948,358.313ZM414.253,610.59c-.27-1.137.005-1.865,1.02-2.03-.186-3.331-1.833,2.923-2.832.647C410.922,610.072,412.862,611.546,414.253,610.59Z" transform="translate(0 0)"/></g></svg>