<svg id="Layer_1" data-name="Layer 1" xmlns="http://www.w3.org/2000/svg" viewBox="0 0 1478.66 932.26"><defs><style>.cls-1{fill:#133595;}.cls-2{fill:#193fa4;}.cls-3{fill:#204ab8;}.cls-4{fill:#1c44ae;}.cls-5{fill:#1d46b1;}.cls-6{fill:#224ebe;}.cls-7{fill:#1e47b3;}.cls-8{fill:#163a9e;}.cls-9{fill:#2451c3;}.cls-10{fill:#224dbc;}.cls-11{fill:#15399c;}.cls-12{fill:#163a9d;}.cls-13{fill:#163b9e;}.cls-14{fill:#173ca0;}.cls-15{fill:#183ea3;}.cls-16{fill:#16399c;}.cls-17{fill:#15389b;}.cls-18{fill:#1e48b4;}.cls-19{fill:#1a41a9;}.cls-20{fill:#1e47b2;}.cls-21{fill:#1c45ae;}.cls-22{fill:#204ab6;}.cls-23{fill:#1e47b1;}.cls-24{fill:#1d46b0;}.cls-25{fill:#15399b;}.cls-26{fill:#1b43ab;}.cls-27{fill:#1a42a9;}.cls-28{fill:#1b42ab;}.cls-29{fill:#1940a7;}.cls-30{fill:#224eba;}.cls-31{fill:#1f49b4;}.cls-32{fill:#214bb8;}.cls-33{fill:#2450be;}.cls-34{fill:#2654c4;}.cls-35{fill:#2552c1;}.cls-36{fill:#2857c8;}.cls-37{fill:#214cb8;}.cls-38{fill:#204ab5;}.cls-39{fill:#234fbd;}.cls-40{fill:#1d46af;}.cls-41{fill:#2552c0;}.cls-42{fill:#2857c9;}.cls-43{fill:#1b43aa;}.cls-44{fill:#1b44ac;}.cls-45{fill:#1c44ac;}.cls-46{fill:#1f4ab5;}.cls-47{fill:#2756c8;}.cls-48{fill:#2450c1;}.cls-49{fill:#2655c8;}.cls-50{fill:#204bb7;}.cls-51{fill:#2c5dce;}.cls-52{fill:#2959c9;}.cls-53{fill:#2755c3;}.cls-54{fill:#234fbb;}.cls-55{fill:#2551bf;}</style></defs><path class="cls-1" d="M0,942.71V-161.18c3.09-5.47,9.14-4.58,13.92-6.46.65,0,1.3-.06,2-.07,43.32-.32,86.63.63,129.93-.54H356.42c8.73-.34,17.49.7,26.2-.56H1489.06c1,2.07.5,4.29.5,6.43q0,208.32,0,416.63c0,1.05.09,2.32-1.61,2a7.35,7.35,0,0,1-3.63-2.29c-37.34-34.93-82-54.41-132.16-61.52-17.58-2.49-35.3-2.62-53.17-1.68a252,252,0,0,0-68.15,13.37,239.14,239.14,0,0,0-85.68,50.55c-31.36,28.79-52.8,63.45-63.21,104.7-2.88,11.4-5.09,23-4.69,35,.51,15.56-.44,31.1,2.81,46.62,6.83,32.7,20.6,61.95,42,87.46,35.88,42.78,82.36,67.52,136.55,78.61,24.74,5.06,49.74,4.82,74.81,3.09,31.63-2.17,61.38-11.15,89.76-24.77A240.68,240.68,0,0,0,1483,544a15.51,15.51,0,0,1,4.25-3.35c1.65-.7,2.38-.05,2.32,1.68q0,198.45,0,396.88a41.78,41.78,0,0,1-.17,6.52c-1.36,1.66-3.28,1.25-5,1.27-11.92.11-23.84-.27-35.75.55H368.49c-2.36.14-3.35-1-1.58-2.76,3.59-3.57,7.38-7.11,11.93-9.34,3.6-1.76,7.15-.21,10,2.49,4,3.84,8.1,7.27,14.24,4.85.1-8.54-1.37-10.15-9.9-10.48-1.81-.07-3.62-.19-5.44-.2s-3.84.77-4.74-1.52a5.85,5.85,0,0,1,1.22-6.57,15.42,15.42,0,0,1,8.63-4.35c3-.54,3.76-2.22,3.46-5-.93-8.8-2.26-10-11.37-9.82-3.7.08-7.36,1.06-10.59-2.38-1.8-1.91-5.28-.53-7.9-1.26-2-.55-4.14-1.21-3.75-3.82.32-2.21,2-3.32,4.28-3.46,5.55-.35,6.6-1.68,5.7-7.24a13.86,13.86,0,0,0-1.12-3.06,11.15,11.15,0,0,0-10.16-4.95,8.82,8.82,0,0,1-8.44-4.73c-1.88-3.11-.77-5.15,2.43-5.29,4.28-.19,8.52.31,12-3,.57-.55,1.78-.35,2.62,0,2.21,1,4,.89,4.25-2,.23-2.43-1.34-4.1-3.48-3.88-4.37.45-7-2.47-10.09-4.43-2.59-1.9-3.18-5-4.74-7.57-.45-.57-.9-1.14-1.38-1.68-2.77-2.64-5-6-8.85-7.27-8.16-3.22-15.69-7.68-23.52-11.58-4.55-3-8.53-6.44-11.07-11.55-1.47-3-2.95-6.56-8.17-4.93-3,.93-4-2.67-4.24-5.17-.43-3.69-2.2-6-5.65-7.21-4.85-6.42-11.75-11.14-15.14-18.82-2.36-5.37-7-9.16-10.7-13.6-4.18-5.08-5.67-11.31-8-17A202,202,0,0,0,248,726.94a32,32,0,0,1-4.44-12.05c-.53-4.75-1.12-8.92-5.79-11.41-.95-.51-1.14-1.8-1.26-2.9,0-3.06,1.24-6,.83-9.1s-.37-6.49-4.46-7.75c-2.13-.66-2.38-3-2.62-5-.71-5.87-1.11-11.79-3.53-17.32-3.44-12-4.19-24.4-4.79-36.8-.18-3.65-2-6.89-2.19-10.58-.63-11.66-.27-23.37-1.14-35-.6-8.06-1.33-16.11-1.8-24.19a27,27,0,0,1,.06-6.48c.49-2,1.14-3.92.62-6a6.83,6.83,0,0,1-.07-1.43,4.56,4.56,0,0,0-.38-3.32c-.3-.4-.59-.79-.91-1.17-1.72-1.93-2.7-3.62-.19-6,2.93-2.73,2.43-6.77,2.19-10.25-.54-8-.19-15.89-.1-23.84.05-4,1-8.41-.69-12.46.57-9.27,1-18.55,1.88-27.8a10.22,10.22,0,0,0,.05-3.74,9.79,9.79,0,0,1,.1-3.37c1.59-7.5,3.26-14.91,1.35-22.75-1-4,1.48-7.95,2.28-11.94a20.27,20.27,0,0,0,1-2,15.75,15.75,0,0,0,.5-2.89c.43-4.37,2.59-8.82-1.69-12.77-1.31-1.22-.65-3.75-.37-5.71a13.25,13.25,0,0,1,.36-1.54c1-4.2,2.52-8.28,2.59-12.66.46-4,1.85-7.84,2.6-11.8,4.52-14.92,8.92-29.87,9.6-45.59a14.18,14.18,0,0,0,.55-7.69,12.35,12.35,0,0,1-.38-1.48c-.88-6.06.74-7.38-7.57-4.71-1.35,0-1.8-.76-1.87-1.94a5.2,5.2,0,0,1,.4-1.5c1.7-2.92,1-5.9.19-8.88-.42-1.6-.51-2.73-3.09-2.26-3.18.57-3.81-2.21-2-4.05,2.64-2.65,4.44-6.42,7.75-8,4.6-2.17,5.5-5.17,4.1-9.53-.15-.5-.27-1-.37-1.5-.17-2-.8-3.37-3.07-3.8-2.62-.5-4.79-1.88-5.3-4.77-.54-3.05,1.44-4.67,3.79-5.93,4.77-2.59,3.06-6.74,2.63-10.87-2.94,1-3.05,3.78-4,5.9-2.65,5.62-4.13,5.66-9.35,2.72-5.61-3.15-9.19-7.21-10.44-13.58-.93-4.78-3.72-8.92-5.3-13.53-1.85-5.44-6.33-6.59-13.1-4.12-4.75,1.15-7.32-1.09-8.19-5.54-.83-4.28-3.37-4.59-6.85-3.4-5,1.71-7.92,6-8.05,12.12,0,1.8-1.41,2.87-2.25,4.24-1.85,3.9-3.18,8.29-9.31,5.45-2-.93-3.22,1.73-4.24,3.41-5.06,7.95-10.13,15.88-15.9,23.34-2.12,2.74-4.27,5.37-4.34,9.11,0,1.2-.26,2.82-1.86,2.87-1.86.06-2.89-1.33-3.34-3s.34-3.57.57-5.35a14,14,0,0,1,.42-1.54,27.1,27.1,0,0,0,2-9.18,12.68,12.68,0,0,1,.37-1.62A53.68,53.68,0,0,0,131.7,238c1.58-8,.87-16.06.57-24.09-.74-3.06-.84-6.32-2.51-9.09-1.86.39-2,1.82-2.54,2.88-.73,1.35-.58,3.65-2.56,3.7-2.42.07-1.12-3-2.66-3.9a4.84,4.84,0,0,0-1.15,1.4c-.2.38-.42.75-.63,1.13-.28.6-.55,1.2-.81,1.81a12.56,12.56,0,0,1-.62,1.28c-.82,1.09-1.23,3.11-3,2.53s-1.37-2.38-1.07-3.78a15.46,15.46,0,0,0,.06-6.46c-.34-1.65.44-4.14-2.06-4.38-2.29-.22-2.83,1.9-3,3.78-.18,2.81-1.86,3.74-4.36,3.62-1.08-.05-1.4-1-1.6-1.89a5.28,5.28,0,0,1,.14-1.48,21.47,21.47,0,0,1,.79-2c.14-.44.3-.87.44-1.29-2.3-2.15-3.89-.14-5.39,1.09a8.65,8.65,0,0,0-2.61,4.63c-1,4.84-5,4.54-8.51,4.94a9.65,9.65,0,0,0-.92,1c-.48.83-.81,1.72-1.33,2.53-7.12,11.94-15.8,23-20.65,36.21a70.17,70.17,0,0,1-6,12.18c-3.65,7.47-5.06,15.88-9.57,23a20.65,20.65,0,0,0-2.36,5.4c-.13.48-.3,1-.47,1.42-1,2.36-1.3,4.93-2.08,7.36-5.29,15.53-10.17,31.2-16.11,46.5a238.41,238.41,0,0,0-11.92,45.36c-4.75,13.31-7.43,27.23-12,40.61-.79,2.3-.52,4.69-.52,7-.08,121.83.28,243.67.15,365.5,0,10.35,2.32,20.56,1.8,31a11.46,11.46,0,0,0,1.44,5.23c3.63,7.62,4.49,15.85,5.46,24a10.9,10.9,0,0,0,2.85,6.34,15.08,15.08,0,0,1,3.75,8.28c1,3.72.49,7.78,3.84,10.92,2,1.85.36,4.85,0,7.3a7.3,7.3,0,0,0,1.22,5.85c2.4,3.6,3.7,8,5,12.21.5,1.59.65,3.28,2.48,3.87,3.6,1.16,3.94,3.93,4.39,7.21.76,5.58,1.31,11.17,2,16.74.17,1.33.18,2.1-1.38,2.1-10.69,0-21.36,0-32,0C2.05,948.12,1.63,944.7,0,942.71Z"/><path class="cls-2" d="M357.6,946.89c-1.26.06-2.53.17-3.79.17q-70.9,0-141.8,0c-1.27,0-2.53-.11-3.79-.16-2.32-3-1.25-5.78.8-8.37,1.35-1.73,3-3.4,5.08-4,9.14-2.47,9.86-9.36,9.3-17a3.56,3.56,0,0,0-1.3-2.26c-.42-.18-.83-.35-1.26-.49a17,17,0,0,0-6.36.12,3.5,3.5,0,0,1-4.31-2.17c-.27-.41-.51-.83-.77-1.24s-.57-.8-.83-1.21c-.12-.22-.23-.44-.36-.65-.82-4.3,3-7.66,2.39-11.93a6.55,6.55,0,0,1,.43-1.45c2.85-8.06.59-11.56-7.87-12.18a10.57,10.57,0,0,1-2.67-.44,3.47,3.47,0,0,1-1.72-1.55c-2-8.3-.76-10,7.22-9.77,3.14.07,11.82-4.75,12.91-6.82.9-1.73.7-3.15-1.13-3.17-4.69-.06-6.2-3.76-8.48-6.66-1.82-2.57-.93-5.81-2.12-8.54-1.92-5.45-5.32-9.47-10-13.11-4.27-3.34-7.62-7.74-12.72-10.28-3.49-1.74-5.13-5.65-6.64-9-1.7-3.85-3.11-7-7.7-8.68-3.13-1.13-3.38-5.43-3.24-8.68a9,9,0,0,0-2.61-7.36,11,11,0,0,1-3-5.7,10.66,10.66,0,0,0-2.76-5.82c-3.87-3.59-5.11-8-5.16-13.05,0-2.83-1.81-5.19-3.4-7.3-2.13-2.81-3.35-6-4.75-9.1-1.32-2.45-1.49-5.22-2.17-7.84a9.28,9.28,0,0,1-.07-3.24,158.62,158.62,0,0,1-.74-25.32c.75-1.4,1.58-2.62,1.34-4.5-1-7.9.14-15.74.84-23.6.27-3.1,1.41-6.52-2.36-8.72a2.44,2.44,0,0,1-.78-3.36,2.93,2.93,0,0,1,.39-.48c2.58-2.82,2.91-6.28,2.67-9.65-.64-8.86,2-17.58,1-26.44a5.78,5.78,0,0,1,.5-1.66,9,9,0,0,0,1-5.23c-.33-7.22.68-14.34,1.81-21.42.48-3-1.62-6,.19-9,7.65-2.43,7.57-9.83,9.76-15.62,1.16-3.08,2.12-6.16,4.21-8.74,3.88-4.78,7.42-4.6,10.71.52,2.9,4.53,3,4.57,5.65.26,1.44-2.31,3-2.23,5.48-1.52,10.87,3.13,10.87,12.75,11.73,20.88.92,8.77.6,17.72,1.43,26.56.18,2,.05,4,2.14,7.06-.31-6.94,3.43-11.6,3.34-17.56-.08-5,.84-10.25,4-14.46,3.72-4.94,4.41-10.18,2.67-15.93-1.55-5.14-2.36-10.2.34-15.32,1.21-2.32.42-5,.22-7.5-.47-5.76-.35-11.49,2.31-16.84,2.79.78,1.6,3.14,2,4.89.09-7.27.09-7.27,3.3-8h0a2.7,2.7,0,0,1,0,3.28v1.08a6.44,6.44,0,0,1,0,5.46,111.12,111.12,0,0,0,1,16.5,9.51,9.51,0,0,1-.31,4.82,3,3,0,0,0-.11,2.61c2.2,4.09,1.63,8.27,1,12.64-.37,2.55.51,5.33,1.1,7.95a20.06,20.06,0,0,1-.06,10.15,11.65,11.65,0,0,0,0,6.94,19.1,19.1,0,0,1,.68,5.88c0,1.08-.28,2.41.23,3.2,2.55,4,2.13,8.11,1.39,12.49-.4,2.38,2.17,4.44,1.83,7.11-.08.64.75,1.44.6,2-1.84,7.54.95,14.37,3.13,21.3.05.18-.42.53-.64.8s-.34.33-.31.42c3.76,9.89,1.43,21.72,9.46,30.22,2.68,2.83-1.17,5.86.65,8.59,0,.93.18,2.26,1,2.36,4.13.51,5.34,3.66,5.71,6.85s1.28,6.42,1.63,9.62a6.49,6.49,0,0,0,1.44,3.84c3.94,4.38,5.47,10.1,8.33,15.06a20.82,20.82,0,0,0,3.25,4.89c.79.76,1.85,1.76,1.35,2.78-1.42,2.83.3,4.36,2,6.07a4.11,4.11,0,0,1,1.3,2.29c.4,7.12,5.34,11.45,9.6,16.3,3.19,3.62,6.28,7.44,7.92,12.1a6.37,6.37,0,0,0,2.44,3.49c4.43,2.78,6.8,7.23,9.63,11.33,3.39,1.55,4.21,4.87,5.16,7.94a8.83,8.83,0,0,0,5.48,6.15c4,1.65,7.64,3.8,9.8,8.08a11.32,11.32,0,0,0,9,6.17c2.4,1.92,4.74,3.74,8.2,3.43,1.83-.16,3.27,1.54,4.63,2.61,2.41,1.9,4.42,4.17,7.94,4,1.05,0,2.14,1.23,3.21,1.89a56,56,0,0,1,8.36,8.07c2.08,2.74,1.62,5.57-.25,8-2.26,3-5.75,3.27-8.93,2.27-5.68-1.8-11.57-3.14-16.88-5.94a160.33,160.33,0,0,0-15.77-7.24c-4.95-2-7.58-6.59-10.7-10.5-1.8-2.26,0-3.57,2.44-4.16-2-3.88-4.66-6-9.38-4.81-3.24.83-6.43-.57-9.6-1.23-4.51-2.7-7.58-6.94-10-11.29-3.5-6.38-8.21-11.9-11.7-18.29-2.07-3.8-6.12-6.42-8.33-11.1C255,789,274.51,816.26,291.79,833c.8.7,1.5,1,1.68-.49.24-2,1.26-3,3.3-2.46s4.13,1.87,3.45,4.15c-2.35,7.81,4.87,10.16,8.21,14.58,1.5,2,4.37,3.22,7,4,3.47,1,4,3.07,2.92,6.23-.8,2.42-3.63,4.8-1.3,7.5,2.21,2.54,5.56,3.47,8.81,3.54,2.67.05,4.55.61,5.66,3.17,1.59,3.67,5.85,3.19,8.54,5.3a19.24,19.24,0,0,0,6.58,3.85c1.8-2.68-2.31-8.29,4.18-8.25a6.2,6.2,0,0,1,3.63,1.69c1.58,2.3,3.95,2.17,6.32,2.07a11.2,11.2,0,0,1,9.21,3.63,9.9,9.9,0,0,1,1.19,3.58c1.33,5.23.93,5.88-4.48,6.64a13.61,13.61,0,0,0-6.13,2c-1.26.87-2.62,2.07-1.48,3.53,2.56,3.28.1,5.57-1.25,8.26,3.82-5.6,12.49-6.63,17.8-1.48,3.25,3.16,5.83,3.46,9.54,1.46,3.35-1.8,6.56-.18,9,1.91s1.88,5.68,1.9,8.61c0,2-2.24,2.62-4.1,2.9-5.88.89-9.8,3.4-9.52,10.2.11,2.69-1.6,4.73-4.08,5.95a32.29,32.29,0,0,0-8.36,6A19.17,19.17,0,0,1,357.6,946.89Z"/><path class="cls-2" d="M198.34,946.88c-1.45.06-2.9.18-4.35.18q-72.75,0-145.5,0c-1.26,0-2.53-.12-3.8-.17-1.74-4.84-2.41-10.22-6.86-13.7.48-7.85-6.35-12.29-8.67-18.7-2-5.52-5.38-10.84-4.59-17.26.32-2.57.15-5.1-2.81-7-2.36-1.49-1-5.08-2.14-7.5-.88-.18-2.11-.32-1.74-1.52.87-2.81,0-4.37-2.24-6.42s-4.65-4.64-3.8-8.76c.63-3,.94-6.54-2.07-9.09-1.54-1.3-.5-2.93-.25-4.53.4-2.56,1.36-5.59-2.47-6.72-.93-.28-1-.94-.49-1.63,1.11-1.47-.27-2.27-.82-3.32-.76-1.44-1.62-2.87-1.24-4.62,1.49-6.83-.19-13.54-.89-20.27a51.33,51.33,0,0,1-.32-5.41q0-186,0-372.1c0-1.91-.72-4.05,1.06-5.66,3.22,5.63,1.18,11.73,1.61,17.61.27,28.89.13,57.78.1,86.66C5.6,555.24,6,573.5,5.84,592.5c2.44-1.63,2.37-3.5,2.44-5.13.23-5.5,2.79-10,5.66-14.5,2-3.13,4.6-4.48,8.3-3.17,3.34,1.17,7.18,1,10,4.28,0-7.46.16-14.29,4.06-20.39,1.41-2.2,1.24-4.88,1.88-7.32.87-3.36,1.91-7.09,6-7.57s6,2.59,7.24,6.07c.44,8.53.54,17.05-.79,25.51-.49,3.14,1.63,6.43.35,9.14-6.41,13.58-.49,28-3.14,41.82-.47,2.43-1.57,5.3-.26,8,1.21,4.82-2.48,9.19-1.43,13.91,2.36,10.66.77,21.43,1.06,32.14.19,7.11,2.46,13.9,2.74,21,.11,2.88.89,5.75,0,8.63-1.9,7,.68,13.73,1.12,20.58,2,8.11,1.09,16.75,4.5,24.61a320.67,320.67,0,0,1,9,39.68,57.23,57.23,0,0,0,2.9,11c1.91,9,6.57,17.18,8.83,26.12,2.91,9.12,5.93,18.2,9.67,27a262.34,262.34,0,0,0,13.83,28.23c3.74,5.22,8.22,9.86,12,15.07a5.4,5.4,0,0,0,4.52,2.49,7.22,7.22,0,0,1,6.65,1.19,4.93,4.93,0,0,0,5.88.59,10.51,10.51,0,0,0-.69-3,4.44,4.44,0,0,1-.15-1.36,2,2,0,0,1,1.3-1.58,3.4,3.4,0,0,1,1.44.32,14.66,14.66,0,0,1,2.49,1.95c1.16,1,1.17,3.92,3.74,2.7,2-.93,1.78-2.84,1.38-4.65.66-4.78-3.05-9.21-1.12-14.08a2,2,0,0,1,1.46-.33,4.78,4.78,0,0,1,1.3.78c1.95,2.52,3.07,5.52,4.73,8.2.23.39.44.8.66,1.19a9.34,9.34,0,0,0,.83,1c2.67-.67,6.22,1.74,7.87-2.32.36-.84.57-1.73,1-2.54.7-1.37,1.65-2.52,3.35-2.23a3.19,3.19,0,0,1,2.7,3.56c-.44,10,6.54,15.85,12.67,22,1.63,1.64,3,3.09,3.07,5.41.18,4.38,4.07,7.7,3.47,12.36-.15,1.16,1.45,1.37,2.43,1.81C190.13,934,195.63,939.08,198.34,946.88Z"/><path class="cls-2" d="M236.55,268.17v1.09c1.06,4.38,1.59,8.33-4.83,8.8-1.88.14-2.32,2.5-3.37,3.92-1.89,2.54-3.76,6.08-8,3.43.78,1.38,1.84,2.82,1.72,4.73s1,2.38,2.61,2.83c6,1.69,7.08,4.25,4.24,10.07h0c-1.18,1.58-1.73,4-4.53,3.45-1.63-1.14-3.12-1.64-4.2.72a11.36,11.36,0,0,1-4.2,4.55c-1.38.39-1.77-.52-2.07-1.56a5.56,5.56,0,0,1,.05-1.47c.17-.89.53-1.72.74-2.54-3.64,2.7-6.59,6.54-11.65,6.6-.34.27-.68.54-1,.83a13.21,13.21,0,0,0-1.55,2,9.73,9.73,0,0,1-.72,1.05c-.25.34-.52.66-.8,1-.13.17-.27.32-.4.49a8.64,8.64,0,0,0-1.45,2.79,11.27,11.27,0,0,1-.53,1.24c-.3.63-.63,1.25-1,1.86-2.69,5-6.52,9.34-8.75,14.63-5.91,12-11.1,24.36-16,36.83a340.72,340.72,0,0,0-13.14,39.8c-6.15,9.85-7.6,21.36-11.26,32.09-.64,1.86-.84,3.88-1.51,5.76-2.2,4.06-1.5,8.8-3,13a11.59,11.59,0,0,1-.52,1.43,19.83,19.83,0,0,0-1.1,4.35,13.06,13.06,0,0,1-.44,1.51c-4,16.62-10.36,32.66-11.75,49.88a45.49,45.49,0,0,0-3.11,19c.31,9.62-1.34,19-3.12,28.35a14.22,14.22,0,0,1-1.09,2.42c-1.2,2.47-2,5.59-5.91,3.62-3.35-6.45-2.5-13.47-2.75-20.33a52.84,52.84,0,0,0,.51-18.26,13.25,13.25,0,0,1,.52-7.43,9.13,9.13,0,0,0,.8-5.3c-2.07-13.95-2-28-1.66-42,.06-2.45-.26-4.48-2.46-6.19-2.83-2.2-2.64-4.79.71-6.32,2.87-1.32,3.2-3.3,3.14-6.12-.24-11.51-.9-23,.59-34.54a4.61,4.61,0,0,0-1-3.53c-.79-1.05-1.6-2.53-1-3.52,3.1-5.13.38-10.7,1-16,.79-7.15,1.81-14.62,1.3-22a6.63,6.63,0,0,1,.57-3.17c1.94-2.54-1-4.9-.28-7.4,2.17-9.65,4.15-19,1-29.2-1.07-3.5.8-9.45,3.59-13.6,2.38-5.19,1-10.83,1.73-16.36-.17.17-.33.34-.48.52-1.23,1.53-.94,5.27-3.73,4.26-2.58-.94-1.53-4.07-.79-6.22a28,28,0,0,0,1.19-10.64c1.09-9.66,3.46-19.05,5.79-28.45.77-2.71,1.37-5.47,2.06-8.21.45-1.79.69-4,3.38-4a8.67,8.67,0,0,1-.67,3.69c-.83,2.12.39,3.29,2.07,4.38,1.28-1.42.62-2.9.78-4.23s-.1-2.49.87-3.56c7.61-8.45,12.9-18.59,19.85-27.51,2.95-3.16,10.11-2.55,12.18,1.08.61,1.07.84,2.38,2.13,2.94.88-4.37-2-8.38-1.23-12.74.66-.85,1.33-1.68,2-2.55.39-.54,1.07-1.28,0-1.7-3.27-1.28-1.72-2.92-.33-4.42a28.11,28.11,0,0,0,3.3-4.23c2.45-3.9,6.65-4.58,10.68-5.44a2.43,2.43,0,0,1,2.61,1.54,15.44,15.44,0,0,1,1.33,3.48c1.17,5.22,1.2,5.28,6.61,5.69,8.68-3.2,10.67-1.46,14.5,7a190.33,190.33,0,0,1,7.13,18.9,4.5,4.5,0,0,0,3,2.85c3.84,1.66,6.41,5.28,10.37,6.79.68.25,1.38,1,1.32,1.62-.54,5.55,2.81,7.71,7.47,8.86C236,265.53,235.76,267.24,236.55,268.17Z"/><path class="cls-3" d="M124.28,274.71a19.57,19.57,0,0,1-.65,4.76c-1.95,8.15-4.06,16.27-4.81,24.66a1,1,0,0,1-1.23.19c-4.33,2.75-7.73,5.77-8.72,11.51-1.3,7.49-1.3,15.65-7.17,21.72-1.16.88-2.37,1.36-3.77.57-2.07-3.41-.8-7-.67-10.58.19-4.94,1-10.07-5.67-12.32-3-1-3-4.65-2.87-7.62.07-1.74,2-4.3-1.4-4.7-2.56-.3-6.36-1-6.83,2.58-1.14,8.45-9.09,12.5-11.94,19.75A2.62,2.62,0,0,1,65.3,327l-.3-.1a4.65,4.65,0,0,1-2.82-4.3c-.26-2.84,2.46-6.94-1.46-8.18-3.23-1-4.13,3.95-6.87,5.3a5,5,0,0,0-1.44,1.61c-3.56,4.66-8,5.29-12.56,1.86-1.45-1.09-1.26-2.38-.92-3.88,1.46-6.5,4.18-12.57,6.31-18.85.42-2.44,1-4.85,1.63-7.24h0c1-1.71,1.27-3.71,2.19-5.45a3.15,3.15,0,0,1,.16-1c3.52-6.62,5.83-13.7,8.11-20.8a9,9,0,0,1,1.52-2.15c1.3,1.82,1.39,4.42,4.1,5.36,1.92.67,3.37.89,4.87-.73,2.23-2.4,3.92-6.77,8-4.86s6.05,6,5.85,11.69c3.73-5.52,4.2-11.41,6.68-16.51a92.63,92.63,0,0,0,5-12c.68-2.09,1.41-4.51,4.23-4s3.67,2.73,3.93,5.23a108,108,0,0,1,0,19c0,.64-.45,1.35.2,2,1.13-1.13,1.61-2.86,3.16-3.54,4.35-1.89,8.13-4,6.8-9.93-.33-1.47,1-3,2.5-4a3,3,0,0,1,2.29-.07c2.12,1.17,2.06,3,1.79,5.1-.68,5.33-2.92,10.38-2.86,15.84,0,2.33-2,2.67-3.46,3.6-1.17.72-1.72,2-.7,3.2.88,1.07,2,.51,2.89-.1C117.25,276.91,120.22,274.54,124.28,274.71Z"/><path class="cls-4" d="M4.36,450.15V432.71c1.79-7.11,3.92-14.14,5.77-21.24,1.33-5.13,2.86-10.27,4.44-15.36a4.45,4.45,0,0,1,1.78-2.64c1.77,2,.58,4.17.11,6.19-.59,2.55-.3,4.3,2.7,4.69a9.86,9.86,0,0,1,3.07,1.08c5.4,2.77,5.65,2.68,7.55-3,.69-2.07,1-4.24,1.73-6.29,2.21-6.38,6.79-7.72,12.23-3.61a17.42,17.42,0,0,1,2.75,2.61c1.91,2.21,3.2,1.92,4.15-.84,3.4-9.95,12-15.16,19.84-20.7,6.13-4.35,8.87-2.66,11,4.66.5,1.74,1.34,3.36,1.86,5.11,1.66,4.81-.19,9-2.34,13.11-1.92,9.93-5.29,19.57-5.7,29.79a2.37,2.37,0,0,1-1.88,2.34c-2.87-2.67-1.42-6.07-1.55-9.21-.07-1.66,1.52-3.95-.95-4.74-2.2-.71-5.18-1-6.49,1.33-2.62,4.71-6.26,6.7-11.56,6.25-1.76-.15-2.15,1.59-2.67,3a40.35,40.35,0,0,0-2.95,16.47,25,25,0,0,1-1.86,11.72c-.43,1-1,2.05-2.22,2.16-1.53.13-2.22-1.07-2.72-2.24a21.77,21.77,0,0,1-1.5-7.43A14.36,14.36,0,0,0,37,438.59c-1.55-2.37-3.88-4.18-6.67-4.16-3.18,0-3.6,3.15-4.36,5.51-1.05,3.28-1.72,6.67-2.63,10a11.11,11.11,0,0,1-4.59,6.52c-1.3.88-3.24,1.44-3.87,0C12.81,451.62,8.48,451.17,4.36,450.15Z"/><path class="cls-5" d="M81.76,383.68c-.46-3-2.68-5.55-2.32-8.85.18-1.62-1.25-2-2.63-2-3.9-.15-6.9,2-9.6,4.3-3.88,3.24-7,7.33-11.29,10.16a8.45,8.45,0,0,0-3.46,5.39,17.76,17.76,0,0,1-1,3.65c-1.9,4.11-2.27,4.15-5.1.72a23.25,23.25,0,0,0-3.82-3.86c-4.46-3.38-8.33-2.1-9.77,3.32a71.67,71.67,0,0,1-3.21,10.32,7.63,7.63,0,0,1-2,3.15c-.82.67-1.73.85-2.34-.08-2.08-3.19-5-4.5-8.76-4.48-2.38,0-2.5-1.75-2-3.49a44.92,44.92,0,0,0,1.9-8.43c-.25-7.45,2.11-14.47,3.83-21.56,1.77-7.28,4.2-14.4,6.39-21.57a4.42,4.42,0,0,1,1.76-2.64c2.05,2.87.22,5.61-.49,8.27-.77,2.92-.46,4.6,3,4.64,3.2,0,4.8,2.15,6,5.33,3.32-2.7,3.9-6.37,5-9.63,1.25-3.89,2.08-8,7.19-8.22,3.37-.13,7.49,4.11,8.83,8.55a6.1,6.1,0,0,0,.7,2.2c4.16-1.91,4.95-6.4,6.75-9.8,3.24-6.13,8.74-11.26,8.93-18.87A3.44,3.44,0,0,1,77,326.62a3.5,3.5,0,0,1,4,2.9v0c1.06,4.58,4.44,8.33,4.45,13.28,0,3.37,1.21,5.24,5.07,3.24,1.73-.89,4.2-2.34,5.15,1.2a3.81,3.81,0,0,1-.27,1.42c-1,1.39-2.86,2.38-1.9,4.57a10.88,10.88,0,0,1,.28,1.38,19.94,19.94,0,0,1-.1,5.12,8.16,8.16,0,0,1-.43,1.46c-.27.73-.58,1.45-.85,2.18-2.32,5.63-2.15,12.14-6.14,17.19C85,382.1,84.34,384.21,81.76,383.68Z"/><path class="cls-6" d="M114.46,251.82c-.88,2.36-3.36,4.42-.82,7.38.54.63-.16,2.79-1.66,3.65-1.25.72-2.33,1.86-3.66,2.29-2.75.9-4.91,2.09-5.44,5.28-.17,1-.95,2.19-2.28,1.82-1.77-.49-1.09-1.83-.86-3.09,1.34-7.13.66-14.31.53-21.49a4.4,4.4,0,0,0-1.18-2.95c-1.58-1.82-3.36-1.63-4.06.64-1.92,6.18-4.68,12-7.19,17.93-1.42,3.37-2.3,7.15-3.54,10.71-.55,1.57-.51,4.17-3.14,3.38-2-.6-1.35-2.46-1-4.15.55-2.32-2.73-8.2-4.82-9.09-1.15-.49-2,.15-3,.84-1.78,1.36-2.6,3.46-4,5.08s-3.12,3.36-5.26.75c-1.25-1.52-3.21-1.45-4.89-2l.6-5a177,177,0,0,0,8.59-19.18c3-7.55,8.86-13.46,12.4-20.74.52-1.08,1.67-1.85,1.93-3.17.52-2.63,2.34-4.35,4.33-5.92.7-.56.47-1.59,1.1-2.18h0c.65-.86,2-2.16,2.45-1.42,2.42,3.76,3.91.33,5.84-.41s3.92-3.77,6.41-.73a3.18,3.18,0,0,1,0,1.44,33.23,33.23,0,0,0-1.74,3.79c-.12.44-.28.87-.44,1.3A32.7,32.7,0,0,0,99,220a11.38,11.38,0,0,1-.41,1.41c-1,3.61-2.55,7.06-3.74,10.73,2.42-2.65,6.84-2.2,8.32-6.2.69-1.89,1.7-3.4,1-5.59-.91-3.07,1.06-5.23,3.25-6.86,1.25-.92,3.17-1.57,4.65-.77,1.65.88,1.5,2.83,1.13,4.43-.76,3.36-.69,6.89-2.06,10.12a9,9,0,0,1-.63,1.38,27,27,0,0,0-2.13,12.3c0,1.49-.9,2.69-1.91,5.25,4.05-4.53,4.68-10.91,11.15-11,1.35.95,1.28,3,2.88,3.75,3.84-.21,7.65-1.07,11.51-.34a2.79,2.79,0,0,1,.4,1.55c.25,4-1.1,7.79-1.62,11.69h0c-.85,3.24-.9,6.65-2.17,9.8,0,.36,0,.72,0,1.08-1.78,1.48-1.88,3.56-2.31,5.65s-.38,4.55-2,6.35c-3.32,2.43-7.74,3.05-10.48,6.49-1,1.25-2.42.26-3.51-.18-1.78-.72-1.39-2.43-1.12-3.77.31-1.54.72-3.65,2.79-3.39,2.65.33,2.94-.95,2.21-2.71s-.23-3.14.53-4.61c2-3.82.72-8.4,2.82-12.25.28-.51-.56-1.63-.88-2.47,0-.24,0-.49-.07-.73a6.11,6.11,0,0,1,.1-1.48,15,15,0,0,0,.6-3.89C116.18,247.83,116.35,250.32,114.46,251.82Z"/><path class="cls-7" d="M94.84,348.81c-.06-1.41.33-3.13-2.22-2.32a11.14,11.14,0,0,0-3.29,1.77c-2.47,1.82-3.16,1.61-4.48-.93a6.94,6.94,0,0,1-.91-3.64c.19-3,0-5.72-2.47-7.94-1.45-1.31-.38-3.56-1.26-5.17-.74-1.35-1-3.47-3.19-3.05-1.73.33-1.83,2.05-1.79,3.53A13.17,13.17,0,0,1,71,341.75a9.12,9.12,0,0,0-2.1,3.75c-.7,2.08-1.31,4.15-3.26,5.45a2.49,2.49,0,0,0-1.24,2.27A4.55,4.55,0,0,1,61.47,358a3.14,3.14,0,0,0-1.09,1.17c-.8,1.21-.46,3.83-2.8,3.13-1.64-.48-.75-2.54-.89-3.89-.43-4.2-3.51-8.16-7.29-9.27-2.27-.66-5.24,1.83-5.74,5.21-.57,3.84-2.39,7.16-3.8,10.65a8.19,8.19,0,0,1-1.36,2.34c-1.36,1.56-2.94,1.16-3.56-.82-1.37-4.3-1.37-4.3-6.12-4.6-3.81-.24-3.9-.41-2.85-4.21.9-3.29,2.19-6.5,2.36-10,.48-4.34,1.52-8.53,4.12-12.1a13.91,13.91,0,0,0,2.1-4.93c1.89-7.49,3.84-14.95,7.26-21.93,1.24-2.52.1-5.92,2.87-7.89.37-.5.73-.53,1.1,0-2.05,6.26-4.8,12.29-6.12,18.8-.29,1.43-.35,2.68,1.37,2.86,2.33.24,4.57.11,6.28,2.4.65.87,2.12-.66,2.32-1.51,1.16-4.89,6.67-6.18,8.52-10.64.9-2.16,4.9-.78,5.85,2a8,8,0,0,1-.13,5.34,6.15,6.15,0,0,0-.55,3.16,3.32,3.32,0,0,0,2.2,2.87c1.75.5,2.22-1.21,2.41-2.26.59-3.21,2.5-5.18,4.89-7.29,2.91-2.58,5.5-5.8,5.67-10.13A7.77,7.77,0,0,1,80.27,302c1.29-1.66,2.89-.89,4.47-.45.46.13,1-.21,1.57-.27,5-.58,5.93.38,4,5.17-1,2.55.2,4.57.61,6.78a2.22,2.22,0,0,0,3,1.5c2.44-.8,4.1-.88,3.19,2.49,3.83,6.72.15,13.79,1,20.65a2.38,2.38,0,0,1,.62,2.17,18.13,18.13,0,0,1-.72,2.27C96.67,344.36,98.49,347.94,94.84,348.81Z"/><path class="cls-3" d="M228.93,365.15c.28,4.18-2.08,7.88-2.19,12a133,133,0,0,0-3.28,13.08h0c-1.47,4.18-.4,8.81-2.23,12.93-.77,2-1.07,4.24-2.2,6.14-.56.92-.83,2.23-1.71,2.72-4.92,2.7-9.13,5.84-9.89,12a1.71,1.71,0,0,1-2.14,1.13h0a2.07,2.07,0,0,1-1.26-2.2,85,85,0,0,1,1.1-9.66c.4-3.05.3-5.81-3-7.3a4.61,4.61,0,0,1-2.74-4.34c-.11-2.14-1.3-3.68-2.51-5.26.61-4.54,3.26-8.71,2.36-13.51.11-1.83.31-4,1.9-4.85,4-2.25,5.2-6.32,6.65-10.06,2-5.14,4.61-9.69,8.89-13.23,1.77-1.46,2-3.76,2.83-5.73a4.29,4.29,0,0,1,1.62-1.73c2.44-.7,4.25-.23,3.49,2.74-1.48,5.73-.2,12.36-5.41,16.91a1.39,1.39,0,0,0-.07,2h0c.51.65,1.23.53,2,.47C224.31,369.09,226,365.87,228.93,365.15Z"/><path class="cls-8" d="M357.6,946.89c5.59-2.17,10.56-5.15,14.48-9.85a9.59,9.59,0,0,1,4.62-2.64c3.67-1,4.66-3.56,4.84-6.91.36-6.58,2.74-9,9.55-9.84,4.19-.53,4-.51,3.68-4.94-.17-2.78-.63-4.58-3.63-5.69-2.6-1-4.43-1.3-6.94.4-3.92,2.64-5.43,2.16-8.51-1.77-1.1-1.4-2-2.58-4-1.69-1,.44-1.59-.18-2.39-.67-5-3.06-6.94-2.52-9.81,2.47a9.93,9.93,0,0,1-2,2.48,1.72,1.72,0,0,1-2.42.17l0,0c-.89-.89,0-1.61.49-2.31.75-1,1.46-2.06,2.26-3,1.38-1.68,2.1-2.89-.19-4.83-2.1-1.77-1.4-3.39,1.11-5.13a14.05,14.05,0,0,1,9.08-2.77c3.14.14,3.45-.47,2.31-3.29-.73-1.79-.42-3.56-.56-5.34,1.6-1.16,2.42,0,3.27,1.09a18.19,18.19,0,0,1,.45,12.24c-.67,2.32-1.57,2-2.9,1.62-1-.3-1.79-1.29-2.79-1.59-1.9-.57-3.28.63-3.9,2.17-.83,2.08,1.24,2.42,2.46,2.69a24.38,24.38,0,0,0,5.4.28c1.69,0,3.86,0,4.51,1.33,1.55,3.12,3.8,2.23,6.23,2,2.7-.23,5.44,0,8.15-.07a5.7,5.7,0,0,1,5.88,4,44.21,44.21,0,0,1,1.52,9.56c.23,2.35-.94,3.74-3.45,3.88a17.75,17.75,0,0,0-7.12,2.33c-3.34,1.71-4.17,4.16-3.1,8,4.33-1.23,8.58.13,12.9-.38,3.22-.38,6.92,3.27,7.33,6.66.18,1.43.12,2.89.31,4.32.17,1.22,1.78,1.89,1.38,3.4-1.17,1.23-2.3.39-3.42-.14-1.48-.71-2.86-1.51-4.46,0-1.75,1.62-3.51.87-4.66-.75-1.7-2.37-4.18-3.84-6.21-5.83-3.36-3.29-7.6-3.14-11,.27-3.07,3.08-7.15,4.87-10,8.18l-3.32.36Z"/><path class="cls-9" d="M131.89,238.74c-.64.59-1.72,1.8-1.88,1.69-3.08-2.16-5.94-.27-8.87.29-.34.06-.82-.58-1.23-.89,0-.25,0-.49,0-.74a10.41,10.41,0,0,1,.1-1.48c-.36-4.81,1.18-9.26,2.4-13.79a59.64,59.64,0,0,0-2.52,9.27c-.18,1.19-.14,2.71-2.1,2.38-3.14,1.46-5.75,3.25-6.93,6.88-.63,1.92-2.34,3.5-3.64,5.18a1.31,1.31,0,0,1-1.83.39l0,0A1.45,1.45,0,0,1,105,246c.92-1.72,2-3.36,3-5,0-.19,0-.39,0-.58a4.5,4.5,0,0,1,.28-1.15,6.65,6.65,0,0,1,.55-1.06c.21-.35.43-.69.65-1s.18-.37.26-.57c.4-1,.46-2.14.78-3.2,1.18-3,2.87-5.83,2.78-9.22.77-4.68,4.1-8.23,5.58-12.6h0c.63-.59.44-1.6,1.08-2.19h0c.67-.58.43-1.6,1.08-2.19.64-1.07,1.17-2.26,2.67-2.48,1.83,1.82-.71,4.13,1.06,6.68a23,23,0,0,1,3.24-8.11c1.11-1.67,2.46-1.55,3.16.37a23.43,23.43,0,0,1,1.88,9C133.14,221.31,134.57,230.11,131.89,238.74Z"/><path class="cls-10" d="M228.93,365.15c-1,4.6-5.58,4.39-8.6,6.21-1.38.84-3-.31-3.17-1.95s-1.14-4.42,1.91-4.59c2.28-.13,2.48-1.31,2-2.76a5.21,5.21,0,0,1,.78-4.6c1.82-2.83.19-6.3,1.81-9.21.18-.33-1.54-.45-2.4-.53-2.23-3.72-.6-6.84,1.51-9.9a3,3,0,0,1,2.45-.47,4.72,4.72,0,0,1,1.34.86c6,3.56,6.56,3.26,7.79-3.34,1.1-5.87,1.27-11.82,1.84-17.73,0-1.34,0-2.68.15-4a4.69,4.69,0,0,1,.86-2.34,1,1,0,0,1,1.46-.13l0,0h0a11.93,11.93,0,0,1,0,7.63c.85,9.1-1.87,17.73-3.59,26.47A89.06,89.06,0,0,1,228.93,365.15Z"/><path class="cls-11" d="M372.81,882.77c-1.06-.45-2-1.15-3.27-1.09-3-2.2-6.23-3.58-10-3.23-2.55.25-4.48-.86-6.39-2.22-.35-.38-.71-.74-1.09-1.09-1-.84-2.35-1-3.24-2-1.59-1.62-4.86-2.63-4.2-5.14s4-2.75,6.33-3.55a5.45,5.45,0,0,1,3.15-.09A12.69,12.69,0,0,1,345,861a2.33,2.33,0,0,1-.69-2.94,1.82,1.82,0,0,1,2.36-.79c5,1.88,9.14-.94,13.46-2.62l.73-.23c1.62,1,3.84,1,4.95,3a2.38,2.38,0,0,0,3.22,1l.11-.06c3.49-1.76,4.83,1.24,6.75,2.94a1.51,1.51,0,0,1,.42,2.09,1.93,1.93,0,0,1-.22.28c-1.4,1.48-.93,3.92-2.7,5.21-1.4-.11-2-1.55-3.1-2-1.85-.77-3.87-.8-4.64,1.27-1.05,2.87-2.75,2.94-5.07,2A1.55,1.55,0,0,0,360,870c-2.44-.1-5.23-1.35-7.07,1-1,1.32,4.32,6.61,6.76,6.23,4.77-.75,8.32,1.81,12.16,3.68C372.62,881.27,372.69,882.06,372.81,882.77Z"/><path class="cls-12" d="M236.55,268.17a9.06,9.06,0,0,0-4.59-2.49c-3.12-.85-5.57-2.68-5.25-6.56.17-2-.66-3.28-2.73-4.1-4.21-1.65-6.93-5.71-11.31-7.22-1.06-.36-1-1.79-1.26-2.85-.62-2.45-1.77-4.81-2-7.28-.57-5.59-5.07-9.28-6.5-14.55-1.15-4.28-4.9-6.27-8.93-4.53a13.84,13.84,0,0,1-3.18.54c6.83-4.46,13.6-1.83,15.26,5.92.19.88.12,2,.63,2.58,3.07,3.73,3.78,8.38,5.11,12.76,1,3.45,2.4,6.4,6.16,7.6,1.95.62,3.34,2.12,4.74,3.55s2.44,1.29,3.4-.45c.78-1.42,2.35-2.77,2.38-4.17.1-4,2.71-5.4,6.11-6.8-.43,3,1.12,5.49.94,8.34-.17,2.69-.61,4.94-3.7,5.87-2.08.62-4.3,1.65-3.85,4.47s2.34,3.9,5.05,3.95C236.77,262.82,236.57,265.57,236.55,268.17Z"/><path class="cls-13" d="M19.62,882.77c1.54,5.24,5,9.58,7,14.59.28.7.77,1.56.31,2-2.89,2.74-.34,4.82.69,7.14.66,1.48,1.54,3,1.56,4.59.06,4.26,2.62,7.09,5.43,9.52a5.93,5.93,0,0,1,2.48,5c0,3.76,1.32,6.54,4.27,9.35a11.37,11.37,0,0,1,3.33,11.93h-5.5c-2.1-1.35-3.4-2.68-2.37-5.7.7-2,2.79-4.81-1.1-6.94-1.17-.64-.14-4.35,0-6.56.18-3.09-.56-4.3-3.55-4.73-2.15-.31-3.65-1.49-2.94-4.17a4.46,4.46,0,0,0-.5-2.59c-1.22-2.8-4.91-4.76-2.84-8.65,0-.09-.12-.4-.25-.46-6.47-2.74-2.34-7.45-2.06-11.39.07-1.09.64-2.52-.36-3C18.7,890.49,19.67,886.48,19.62,882.77Z"/><path class="cls-14" d="M218,537.33c-2.3.24-2.09,1.95-2.2,3.58-.12,1.84.66,4-1.26,5.51-1.91-1.66.17-4.46-2-5.82-1.25-4.15.39-8.49-.87-12.64a7,7,0,0,1,.6-5.23,16.23,16.23,0,0,0,1.27-14.65,2.71,2.71,0,0,1-.27-1.58c2.26-7.2,1.22-15,4.09-22.09l.64-.48c1.9,1,2.73,2.38,1.46,4.4-.57.91-1.87,2.06-1.19,2.82,3.7,4.17.27,8.63.65,12.92.5,5.51-.08,11.08.83,16.65.5,3.08-.46,6.41-.86,9.61-.25,2.1-3.06.89-3.66,2.64C215.26,535,218.26,535.15,218,537.33Z"/><path class="cls-12" d="M118.84,211.51c-.37,4.72-3.43,8.54-4.39,13.06-1.3,2.51-1.2,5.69-3.72,7.8-2.14-1.27-1.62-2.85-.62-4.51h0c1.67-5.94,4.07-11.79,2.28-18.6-4.87,2.27-8.43,5.06-8.94,10.53a4.65,4.65,0,0,1-1,2.45c-1,1.25-2.24,3-3.9,2.19s-1-2.72-.39-4.21h0c1.21-1.24-.07-3.11,1.1-4.36h0c.8-1.41,1-3.12,2.16-4.37h0c1.36-2-.86-5.87,3.27-6.54.28,1-.68,2.92,1.64,2.4,1.09-.24,2.93-.25,2.18-2.18s0-3,1.25-4.22,1.7-2.9,3.82-1.87a4.3,4.3,0,0,1,2.76,4.2c-.13,3.83.65,7.7-1,11.7C117.57,214.43,117.33,212.14,118.84,211.51Z"/><path class="cls-15" d="M218,408.74c1.41-1.54.4-4.05,2.18-5.45,2.64,3.12.24,5.83-.88,9.08,1.67-2.77,2.64-6.58,6.32-2.53v3.26a12.35,12.35,0,0,0-1.08,1.09c-1.95,1.74-.17,4.47-1.31,6.05-2.38,3.33-.6,6.3-.39,9.58.41,6.49.27,13.12-2.66,19.25l-.6-.6c-1.85-3.93.33-7.72.4-11.57.39-5.68.39-5.68-4.16-3.65-2.62-.84-2.34-3-2.41-5.08C214.76,421.65,215.86,415.07,218,408.74Z"/><path class="cls-12" d="M228.92,303c.09-.54.19-1.07.28-1.61.86-5.27-.25-6.74-5.38-7.12-3.52-.26-3.82-.37-3.17-3.84.32-1.68-.25-2.64-.91-4-.77-1.49-2.57-2.56-2.35-4.63,2.22-.51,2.45,1.3,3.29,2.3,1.51,1.8,3.06,1.74,4.52,0a14.59,14.59,0,0,0,2.53-3.46c1.18-2.91,2.42-5.24,6.3-4.22,1.47.39,2.28-.94,2.4-2.32.15-1.62.09-3.26.12-4.89,2.25,5.89,1.64,7.52-3.73,10.1-1,.46-2.25.74-2.53,1.87-.66,2.56-2.55,3.83-4.61,5a5.86,5.86,0,0,0-1.53,1.53,1.57,1.57,0,0,0,.12,2.21l.22.16c.73.55,1.35,0,1.81-.57s.72-1.67,2.11-2.28a31.28,31.28,0,0,1,2.69,11.16C231.16,300.41,230.94,302.14,228.92,303Z"/><path class="cls-12" d="M322.66,826.11c-5,.26-8.83-1.19-10.37-6.48a6,6,0,0,0-3.59-3.8c-1.64-.73-3.2-1.66-4.77-2.54-3.57-2-6.25-4.66-7.42-8.79a17.75,17.75,0,0,0-3.28-6.73c4.61.92,6.18,2.3,6.49,6.34a9.22,9.22,0,0,0,2.06,5.8,1.44,1.44,0,0,0,2-.39l0,0c2-2.11,3.3-2,5,.59s3.16,5.72,5,8C316.17,821,318.71,824.54,322.66,826.11Z"/><path class="cls-12" d="M237.64,700.79c-.61-.45-1.26-1.13-1-1.79,1.34-3.37-.27-5.78-2.34-8.14-4.35-5-4.13-11.44-4.95-17.37a21.59,21.59,0,0,0-1.3-6c-.86-1.9-2.45-3.84-.23-5.89,3,5.24,2.94,11.12,3.67,16.85.28,2.21-.1,5.33,4.1,4.31,1.35-.32,1.64,1.47,2.07,2.69C239.45,690.56,238.69,695.67,237.64,700.79Z"/><path class="cls-16" d="M164.6,226.76c.34,1.22-.73,2.78,1.16,3.65,3.29,1.52,3.25,1.6,1.2,4.37-.31.43-.6.88-.85,1.25a1.4,1.4,0,0,0,1.18,1.6h0c1.08.28,2.17.7,2.27,2s-1.09,1.19-1.88,1.51c-1.19.46-2.4,1.1-3.44-.2a7.25,7.25,0,0,1-1.77-3.89c-.12-1.73-.62-2.37-2.23-1.15a1.89,1.89,0,0,1-2.67-.3,1.45,1.45,0,0,1-.17-.26c-2.1-2.79-4-1.18-5.9.17,2.15-4.83,2.94-5.17,7.56-3,1,.46,1.51.08,2.36-.33C163.76,231,162.88,228.14,164.6,226.76Z"/><path class="cls-17" d="M225.65,409.84c-3.9-2.39-4.51,1.52-6.31,3.55-.8-3.64,1.61-6.74.86-10.1.94-4.4,1-9,3.26-13.08,0,1.79,0,3.58,0,5.36,0,.7.11,1.79.91,1.7,5.09-.55,2.23,1.94,2.14,4.21C226.44,404.32,226.49,407.1,225.65,409.84Z"/><path class="cls-18" d="M104.64,205c-2,1.72-1.22,4.83-3.27,6.54-.2-1.11-.47-2.38-2-1.55-3.24,1.8-6.78,3.19-8.76,6.47-1.56-.81-1-1.64-.85-2.47,1-3.9-1.38-1.56-2.59-1.36.17-1.94,1.52-2.57,3-2,3.52,1.33,5.06-.19,5.7-3.43,3.3-.8,4.74-3.93,7.23-5.73,1.52-1.1,3.37-2.24,2.57,1.35h0c-.66.58-.47,1.59-1.1,2.18Z"/><path class="cls-14" d="M220.2,452.32c1.06.75,1,1.73.76,2.87a71.38,71.38,0,0,0-1.15,19.35,9.23,9.23,0,0,1-.81,3.62,14.38,14.38,0,0,0-1,5.77h0c-3-.48-2.93-3.1-2.45-4.8.81-2.86.21-5.55.15-8.31,1.66-5.74.26-12,3.13-17.55A3.52,3.52,0,0,1,220.2,452.32Z"/><path class="cls-12" d="M224.56,306.31l4.36-3.27A2.2,2.2,0,0,0,230,305.2l.46.54c.53,2-.78,3.55-1.45,5.25-.19.41-.42.81-.65,1.21-.44.81-.82,1.65-1.22,2.49-.83,1.51-1.31,3.24-2.74,4.4-3.38,1.06-2.77-1.39-2.86-3.23C222.62,312.7,221.12,308.72,224.56,306.31Z"/><path class="cls-12" d="M105.74,202.78c-.1-.65-.19-1.73-1-1.34a6.5,6.5,0,0,0-3.44,3.81c-1,3.12-3.14,2.5-5.37,1.9,1-5.71,5.49-7.47,10.63-8.76C107,199.8,107.37,201.38,105.74,202.78Z"/><path class="cls-6" d="M131.89,238.74c.06-2.52-.24-5.07.86-7.49a3.19,3.19,0,0,0,.19-2.13c-1.9-5.54.45-11.05.07-16.56.3.44.86.88.86,1.32,0,8.3,1.2,16.64-.88,24.86-.36.49-.71.49-1.08,0Z"/><path class="cls-12" d="M238.72,310.68l-1.07,0c-1.65-.38-.17-3.63-2.82-3.06-1.32,1.32-1,3.84-3.29,4.39-3.09-1.66-.07-4.68-1.5-6.71l0-.06c1.07-2.55,3.91-1.81,5.77-3,1.19-.75,2,1,2.47,2.15C239.11,306.41,238.61,308.58,238.72,310.68Z"/><path class="cls-17" d="M227.33,384.2c1.65,2.72,3.55,5.19,1.57,8.21-.58.88-1.06,2-2.39,1.57-1-.37-1-1.48-.81-2.3C226.16,389.17,226.77,386.69,227.33,384.2Z"/><path class="cls-17" d="M223.46,390.22a24.17,24.17,0,0,1,3.28-13.08A34.75,34.75,0,0,1,223.46,390.22Z"/><path class="cls-11" d="M354.28,845.72a31.78,31.78,0,0,1-7.63-7.63c4.1,1.18,6.19,4.66,8.72,7.63l-.55.42Z"/><path class="cls-2" d="M131.91,238.76l1.08,0c.11,4.5-.12,8.95-2.17,13.09C130.25,247.39,132.46,243.19,131.91,238.76Z"/><path class="cls-11" d="M356.46,846.81c2.43,2,2.08,5.56,4.36,7.63h0c-6.26,1-4.67-3.6-4.88-6.9Z"/><path class="cls-2" d="M128.64,261.64a23.75,23.75,0,0,1,2.18-9.81C130.84,255.26,131.05,258.74,128.64,261.64Z"/><path class="cls-19" d="M45.78,300.86h-1.1c0-2.76.33-5.41,2.19-7.62A19.8,19.8,0,0,1,45.78,300.86Z"/><path class="cls-12" d="M238.73,318.3c0-2.55,0-5.09,0-7.63A6.26,6.26,0,0,1,238.73,318.3Z"/><path class="cls-19" d="M49.06,287.79a6.28,6.28,0,0,1-2.19,5.44A6.28,6.28,0,0,1,49.06,287.79Z"/><path class="cls-14" d="M218,547.14v-5.45a3.71,3.71,0,0,1,.2,5.25Z"/><path class="cls-15" d="M220.2,452.32v1.1c-2.53.16-1.9-1.71-2-3.12a3.47,3.47,0,0,1,.67-1.36,1,1,0,0,1,1.34.12h0Z"/><path class="cls-14" d="M218,540.6v-3.27Q220.12,539,218,540.6Z"/><path class="cls-18" d="M87.2,212.59a2.2,2.2,0,0,1-1.1,2.18A2.22,2.22,0,0,1,87.2,212.59Z"/><path class="cls-12" d="M119.93,209.34a2.28,2.28,0,0,1-1.09,2.18A2.14,2.14,0,0,1,119.93,209.34Z"/><path class="cls-12" d="M121,207.14a2.27,2.27,0,0,1-1.08,2.2A2.22,2.22,0,0,1,121,207.14Z"/><path class="cls-12" d="M104.64,205a2.27,2.27,0,0,1,1.1-2.18A2.22,2.22,0,0,1,104.64,205Z"/><path class="cls-17" d="M224.56,414.19l1.09-1.09Z"/><path class="cls-11" d="M355.37,845.72l1.09,1.09h0c-1,.29-1.46,0-1.09-1.09Z"/><path class="cls-20" d="M198.34,946.88c-2.19-1.61-4.36-3-4.57-6.3-.14-2.22-2.77-2.69-4.26-3.91-3.15-2.59-6.16-5.72-11.25-4.93.19-2.24,1.05-4.47.36-6-1.78-3.85-3.63-7.56-3.6-11.93,0-.38-.62-1-1.08-1.13-5.8-2.2-7.73-7.67-10.6-12.36-.36-.61-.64-1.47-1.2-1.74-3.65-1.78-3.31-4.77-2.55-7.92a14,14,0,0,0,.47-1.56,2.28,2.28,0,0,0-1.49-2.61c-1.28-.42-2,.47-2.45,1.56s0,2.6-1.32,3.42a4.06,4.06,0,0,1-1.23-3.34c4.4-15.14.94-29.73-3.15-44.26-.58-2.09-1.41-4.11-1.92-6.22a82.36,82.36,0,0,0-3.09-11.86,10.75,10.75,0,0,1-.5-1.58c-.31-4-3.3-7.81-1.24-12.1,4.17-.49,6.42,1,6.3,5.58s2.61,8.19,5.22,11.63c4.27,5.61,8.8,11,10.49,18.13.6,2.5,2.67,4.25,4.57,5.95,2.13,1.9,3.52,4.12,3.1,7.12-2.36,5.56,1.85,9.08,4.11,13.19,2.5.64,4.5,1.72,4,4.8a3.54,3.54,0,0,0,1.76,3.67c5.1,3.62,8.29,9.12,13,13.15,1.13,1,2.29,2.21,1.83,3.72-1.77,5.86.22,12.89-5.35,17.6a1.79,1.79,0,0,0-.72,1.92c1.32.45,2-.56,2.6-1.33,4.95-5.93,8.42-6.41,14.35-1.3,2.16,1.87,4,3.33,7.06,3.25a4.67,4.67,0,0,1,4.66,3.9c.69,2.91-.16,6.18-2.6,7.22-7.35,3.11-10.15,9-11.67,16.14-.15.69,0-.25-.36.39Z"/><path class="cls-21" d="M172.23,861a6.4,6.4,0,0,0-2.45-6.25A17.14,17.14,0,0,1,163.19,844c-.83-3.9-3.93-7.2-6.46-10.49a63.39,63.39,0,0,1-6.7-9.78c-1.52-3-2.22-5.6-.78-8.93a19.28,19.28,0,0,1-5.37-2.86c-.17-.18-.35-.35-.53-.52-.92-2-.84-4.34-2-6.26a9.05,9.05,0,0,1-.5-1.38,30.18,30.18,0,0,0-1-5,10.64,10.64,0,0,1-.4-1.47c-.25-1.31-.7-2.57-1-3.87-.16-2.14-.89-5,1.7-5.65,3-.77,2.78,2.57,3.77,4.29,1.07,5.68,3.93,10.8,5,16.52.92,4.68,8.26,8.51,13.56,7.66,3.82-.61,10,5.59,9.33,9.4-.12.73-.38,1.62-1.07,1.78-5.34,1.18-2.28,3.8-1.15,6.18a17.3,17.3,0,0,0,6,6.89c5.95,4.12,11.7,8.52,17.75,12.48,7.62,5,10.18,4.08,13.69-4.45a3.9,3.9,0,0,1,1.19-1.77c1.34,1,1.12,2.43,1.07,3.77a8.91,8.91,0,0,0,1.11,4.95c1.34,2.66-.57,3.67-2.47,4.28-2.9.94-5.65,2.25-9.23,3.25,2.42,1.14,4.7,1.47,6.44,2.82,1.15.9,2.46,1.94,1.91,3.52-.46,1.36-2,1.27-3.27,1.23-.36,0-.72-.1-1.07-.11-3.86-.13-7.48-.11-5.9,5.61.31,1.14-.3,2.47-.84,3.63a2.16,2.16,0,0,1-2.56,1.23c-1.36-1.28-1.61-3.73-4.14-3.81-2.14-.06-3.23-2.12-5.2-2.63,2.69,2.51,5.16,5.31,9,6.18,1.74,2.6,2.79,5.74,6.65,6.35,1.57.25,2,2.39,2.88,3.74.64,1,1.06,2.45,2.73,2,.56-.13.78-.71.89-1.26.28-1.51-.63-2.34-1.79-3s-2.63-1.27-3.45-2.53c-.56-.87-1.3-1.85.08-2.71,2.94.3,5.88-.73,8.77,1.46,4.88,3.69,2.6,7.88,1.64,12.1V898c-1.43,2.77-4.08,3.18-6.79,3.6-2.32.36-5.22.87-5.14,3.71.08,3.11,3.13,3.46,5.66,3.74,1.41.16,2.88-.08,4.09.94h0c.35.37.72.73,1.09,1.09h0c.61,2.49,1,4.76,4.74,3.09a9.4,9.4,0,0,1,7.25.18h0c.58.66,1.58.47,2.18,1.09,1.4,4.88,0,9.53-1.07,14.24a4.94,4.94,0,0,1-4.24,4.29,16,16,0,0,0-3.58,1.18c-5,2.28-8.46,5.59-7.45,11.71h-2.18c.73-3.52,1.57-7,2.14-10.56a3.77,3.77,0,0,1,2.86-3.48,39.25,39.25,0,0,0,4.46-2A6.66,6.66,0,0,0,219.4,926c.9-3.65-1-6.14-4.65-5.53-2.11.34-4.29.91-5.12-1.47-1.4-4-5.44-3.8-8.22-5.41-2.36-1.36-3.81,1.11-4.75,3.18-1.32,2.94-3.29,4.78-6.78,4-.27-.06-.46-.49-1-1.11,1.56-2.1,3.21-4.38,4.92-6.62,1.58-2.06,3-4,1.69-6.89-1-2,.3-3.85,1.15-5.64.57-1.2,1-2.45-.37-3.37-4.92-3.24-7.38-8.86-12-12.37-.83-.63-1.4-1.61-2.52-1.9-2.52-.65-3-1.67-1.68-4.28,1.73-3.37-1.26-3.24-3.41-3.4-.86-2.63.61-4.91,1.3-7.23,1.05-3.55,3.79-1.33,6.62-1.07-.31-3.15.12-6.31-4.54-4.64C177,863.26,174.82,861.3,172.23,861Z"/><path class="cls-22" d="M121,571.11c.46-4.47.48-9,1.48-13.37,1.25-5.45.94-10.83.94-16.3A64,64,0,0,1,126,524.55c.16-.57,1-.93,1.58-1.39,1.72,1.73.93,3.72.53,5.63a63.43,63.43,0,0,0-1.38,7.5c-.51,5.58-.53,5.6,4.72,3.93a6.84,6.84,0,0,1,6.65,1.38c2.79,2.29,4.25.71,4.38-1.77a25.19,25.19,0,0,1,5.35-15,3.05,3.05,0,0,0-.26-4.31l-.16-.13c-2.6-2.13-2.4-4.69-1.49-7.41a17.74,17.74,0,0,0,.7-6.94c-.28-4.56,1.5-5.47,5.95-4.39,4.07,1,7.47,2.22,7.69,7.44,1-8.45,1.75-16.65,7.5-23.23,3.25,2.92,1.68,6.47,1.28,9.86a7.29,7.29,0,0,1-.55,1.5,8.1,8.1,0,0,1-.87,1.29c-.16.2-.33.39-.49.58-3.37,3.23-2.38,7.1-1.62,10.95a11.19,11.19,0,0,1,.31,1.55,10,10,0,0,1,0,2.44c-4.94,7.48-6.66,15.81-7.7,24.65-.77,6.5-2.76,12.91-3.33,19.53.06,10.94-1.79,21.7-3.05,32.52a13.44,13.44,0,0,1-1.09,4.68c-4.13,4.59-.46,10.1-1.76,15-1.8,6.85-1,13.92-1.49,20.89a7.51,7.51,0,0,1-1.25,4h0c-.58.5-.53,1.86-1,1.82-5.6-.52-3.91,3.9-3.92,6.35,0,8.47.7,17,.07,25.4-.6,8,1.17,15.59,2.36,23.31.08.53.6,1.22.38,1.55-3.92,6.11.09,12.7-1.2,18.94.1,1.4-.34,2.93.84,4.1.53.53,1.26,1.38.84,1.8-3.75,3.8,1,8.39-1.25,12.37-.6,1.05.66,2.33,1.17,3.46s.81,2.4-.5,3.34l-.78-.3a7.35,7.35,0,0,1-2.57-5.8c-.2-11.11-4.29-21.11-8.48-31.12a22.84,22.84,0,0,1-1.75-12.24,13.45,13.45,0,0,0-3.17-11.12,11,11,0,0,1-2.33-10.15c.71-3.17,1.6-6.37.26-9.62-.67-1.63.21-4.27-3.51-3.51-1.69.34-2.13-2.6-2.53-4.32-1.07-4.58-.37-9.28-.75-13.91-.35,6,0,11.92-.3,17.87-.11,1.79.74,4.66-2.81,4.52-1.48-2.15-1.06-4.6-1.12-7a39.93,39.93,0,0,0-.63-8,7.66,7.66,0,0,1,0-1.79c-.16-7.62,2.32-15.28-.4-22.89-.73-2,.32-4,1.24-5.68,3.66-6.76,4.28-14.08,4.14-21.52A61.13,61.13,0,0,1,121,571.11Z"/><path class="cls-19" d="M149.34,595.09c.15-.34.46-.68.43-1-.41-4.28,1.66-8.2,1.72-12.39a45.69,45.69,0,0,1,1-10.75c.79-3.08,1.59-6.25.2-9.5a2.81,2.81,0,0,1,1-3.43c3.39-8.38,6.95-16.72,7.7-25.86.36-4.42,2.66-6.81,6.87-6.84,3.59,0,6.11-1.5,8.64-3.82,3.94-3.59,6.19-3.25,9.46.9.67.86,1,2.11,1.95,2.6,10.07,5.38,8.2,15.07,8.29,23.77.08,7.06.68,14.13.14,21.2a4.92,4.92,0,0,0,2.07,4.68,27.62,27.62,0,0,0,3.68-11.51c1-8.94,5.06-17,6.52-25.7.58-3.5.25-7.39,3.56-9.94,1.84,4.36,1.5,8.72,0,13.08-.08,3.43.12,6.83-.87,10.25a11,11,0,0,0,.27,7,9.87,9.87,0,0,1-1,9.39c-2.15,3-1.22,5.95-.63,8.67a66,66,0,0,0,1.59,6.81c1.65,5,0,9.29-2.93,13.21-3.64,4.87-4.3,10.48-4.24,16.25,0,1.83.48,3.62-.83,5.17-2,2.39-2.44,5.18-2.25,8.18a4.39,4.39,0,0,1-.9,3.58c-.48.5-1.11,1.15-1.71,1.2-1.06.08-1.46-.88-1.65-1.8a39.73,39.73,0,0,1-1.12-5.83c-.54-9.39-1.69-18.76-1.14-28.19a14.89,14.89,0,0,0-2-8.33c-.54-1-1.3-1.8-1.25-3,.22-4.26-1-7.11-6-6.79-2,.12-2.2-3.9-4.82-2.32-1.86,1.12-.78,3.4-1.51,5a3.85,3.85,0,0,1-2.67,2.5c-1.59.26-2.1-1.11-2.68-2.24-.83-1.62-1.57-3.28-2.47-4.85-1.9-3.3-3.95-3.82-6.43-1.19-2.33,2.47-4.56,5.19-5,8.8-.61,4.69-3.34,8.68-4.18,13.35-.66,3.61-4.08,2.84-6.74,2.9A2.69,2.69,0,0,1,149.34,595.09Z"/><path class="cls-23" d="M208.21,846.81a11.34,11.34,0,0,1-1,5.26c-2.58,5.56-5.85,6.92-11.29,4.26a43.78,43.78,0,0,1-5.42-3.58q-8.59-6-17.16-12c-4.16-3-5.63-7.84-8.16-11.91-.92-1.49,1.28-2,2.79-2.05,3.55-.22,3.83-.75,1.86-3.51a12.86,12.86,0,0,1-2-3.15c-1-2.66-1.87-4-5.46-2.19-3.19,1.58-7-.88-10-2.81-1.51-1-2.4-3-4.45-3.65a1.63,1.63,0,0,1-.69-1.36c.47-6.1-3.6-11-4.47-16.69,2.13-1.93,2.54-4,1.47-6.84-1.7-4.43-2.2-8.73-.23-13.59,2.08-5.14,0-10.75-.64-16.12a12.28,12.28,0,0,1-.36-1.48,7.19,7.19,0,0,1-.08-2.22,5.12,5.12,0,0,1,.43-1.36,15,15,0,0,1,2.09-2.73l.59-.34c2.8,4.59,6,9,8.2,13.86a13,13,0,0,1,.87,8.4,2.29,2.29,0,0,0,.52,2.47c5.05,5,5.32,5.53,6.93,11.25a12.4,12.4,0,0,0,4,5.75c1.71,1.53,2.87,3.07,1.74,5.66s.58,5.28,1.26,7.83a2.74,2.74,0,0,0,3.24,2.13l.11,0c3.24-.9,4.31,1.09,4.72,3.63,1,6.06,5,10.26,8.84,14.53a1.93,1.93,0,0,0,1.44.64c4-.82,5.22,2.19,6.74,4.79.83,1.42,1.56,3,3.14,3.65C203.85,835.83,206.67,840.81,208.21,846.81Z"/><path class="cls-14" d="M355.37,845.72l1.09,1.09c0,3.4-.35,7,4.36,7.63a2.82,2.82,0,0,1-2.27,2.7,41.37,41.37,0,0,0-7.11,2.42c-2.31,1.19-4-.92-6-1.57.42,2.53,2.2,4.4,5.59,4.93,2.81.43,5.46,1.15,7.92,1.77.28,1.24-.39,1.65-.78,1.53-4.53-1.44-8.72-.51-13,2,2.1,2.42,5.38,3.86,6.91,6.93-4.12.45-4.12.45-3.51,4.13a11.14,11.14,0,0,1,.21,2.16c0,1.2.36,2.68-1.25,3.23-1.2.41-2-.47-2.86-1.13-3.67-2.8-7.17-5.88-12.08-6.41a2.67,2.67,0,0,1-2.26-2.7c-.27-2.77-1.44-3-4.3-3-4,0-8.3-.78-11-4.85-1-1.49-1.19-2.51-.15-3.83A16.38,16.38,0,0,0,318,855c-4.4-.42-7.48-3.39-11.12-5.26a6.61,6.61,0,0,1-3.59-3.92,7.43,7.43,0,0,0-4.07-4.77c-2.11-1.16-2.48-2.65-1.19-4.9,2.12-3.67,2-3.76-3.18-5.09a7,7,0,0,0-.32,1.5c0,1.32,1.87,3.05.05,3.82s-2.67-1.26-3.52-2.62a8.46,8.46,0,0,1,.88-2.5c1.76-3.16,3.1-5.67-2.78-4.77-2.55.38-4.73-1.36-3.55-4.72,1.45.06,3-.19,4.33.24a10.82,10.82,0,0,0,7.4.06,5,5,0,0,1,6.51,2.47,10.76,10.76,0,0,0,3.65,3.93,1.49,1.49,0,0,1,.72,2,1.32,1.32,0,0,1-.2.32c-.58.76-1.26.35-1.9,0a6.36,6.36,0,0,0-1.88-1,2,2,0,0,0-1.38.63,1,1,0,0,0,0,1.38l.07.06c4.73,3.34,6.58,9.57,13.4,11.23a36.42,36.42,0,0,1,12.6,5.91c2.34,1.73,5.58,2.23,8.37,3.37,2.17.89,4.58.85,6.69,2.09,3,1.78,6.47,2,9.18-.2s2.25-5.45,1.13-8.49Z"/><path class="cls-24" d="M142.81,712.78c-1.84-3.75-.59-8.09-2.29-11.89-.26-.58.26-1.47.09-2.13-.57-2.3,3.68-2.46,2.22-4.86a5.26,5.26,0,0,1-.61-5.11c.07-.17.22-.44.16-.5-4.78-5.35-1.79-11.68-2-17.53s-1.45-11.5-.71-17.16c.76-5.85-.41-11.63.21-17.43.08-.72-.07-1.49.53-2,1-.76,1.73-.07,2.28.63,1,1.26,1.82,2.83,3.37.58,1.42,3.87.78,7.68.3,11.68a121.89,121.89,0,0,0-.47,20.13c.1,2.23-1.42,3.48-3,4.86-1.1,1-2.77,2.93.85,2.75,1.73-.09,2.24.84,2.26,2.3,0,2,.55,4.19-.09,6-1.67,4.62.81,9.7-1.8,14.13,1.73,3.63-.9,7.71,1.28,11.36C147.1,711.35,144.38,711.8,142.81,712.78Z"/><path class="cls-25" d="M285.6,821.75c1.56,3.5,1.57,3.52,5.21,2.52,2.5-.69,3.5,1.31,4.75,2.7s.16,2.14-1.16,2.63c-1.93.71-.38,4.25-3.35,4.14-3.12-1.76-5-4.67-6.93-7.51-3.23-4.76-7.77-8.29-11.55-12.53-2.9-3.26-4.58-7.41-7.92-10.32-.88-.77-.67-2-1-3-.36-1.2-.72-3-1.57-3.34-4.17-1.68-4.52-6.23-7.2-9-2.35-2.45-1.93-4.61.53-8.05,1.85.12,2.12,1.89,2.72,3a20.5,20.5,0,0,0,6,7.35c2.82,2.11,3.4,6.14,5.6,9.09C275.23,806.7,279.31,815,285.6,821.75Z"/><path class="cls-26" d="M195.13,879.5c.38-2.74,1-5.54-2.07-7.41,4.3-2.89,8.5-4.08,13.83-2.14a7.19,7.19,0,0,0-6.06-4.53c-2.75-.38-4-1.89-5.19-5.56,2.91,1.89,4.65,2.09,6.64.5,1.3-1,3.36-1.21,5.12-1.56a3.22,3.22,0,0,0,3-3.27c.9.88,2.09,1.61,2.62,2.68,1,2,2,3.28,4.52,2.49,2.29-.72,3.07,1.38,4.24,2.63.56.6.47,1.71-.15,1.9-2.3.71-2.61,2.35-2.76,4.41a1.94,1.94,0,0,1-2,1.91,1.91,1.91,0,0,1-.81-.18,11.23,11.23,0,0,0-4.27-.57c-1.5.05-2.27.46-2,2.3.38,2.46-1.26,2.12-2.65,1.36-1.1-.61-2-1.48-3.41-1.46-3.17,0-4.91,2.16-4.45,5.43.15,1.06.12,2.16.17,3.24C197.44,882.14,196.38,880.63,195.13,879.5Z"/><path class="cls-12" d="M243.85,753.36c-.61,1.22-1.24,2.62-3.07,2.29s-3.57-.84-4.62-2.54c-1.83-2.93-3.55-6-3.69-9.48-.07-1.75-.15-3.07-1.42-4.29a3.54,3.54,0,0,1-.88-3.53,2.2,2.2,0,0,1,1.71-1.86c.9-.17,1.29.54,1.61,1.17a11.26,11.26,0,0,0,4.07,5,2,2,0,0,1,1.07,1.77c-.29,4,1.46,7,4.32,9.5A2.3,2.3,0,0,1,243.85,753.36Z"/><path class="cls-27" d="M209.3,910c-3.6.73-7.07,1-10.13-1.73-2.25-2-2.44-3.79-.22-5.82a6.82,6.82,0,0,1,4.84-2.18c2.89.17,5.28-1,7.69-2.26,1,3.38-1,6.13-2.11,9A3.63,3.63,0,0,0,209.3,910Z"/><path class="cls-12" d="M243.25,758.89c.39.23,1,.39,1.26.77,3,4.2,6.33,8.25,8,13.3.44,1.38.46,2.71-1.24,2.86s-4.15,1.89-4.51-.84c-.45-3.4-2.91-5.3-4.47-7.81a8.29,8.29,0,0,1-1-6.65A2.12,2.12,0,0,1,243.25,758.89Z"/><path class="cls-20" d="M195.13,879.5c2-.43,3.11,1,4.36,2.18l1.09,1.09c.38.24.5.49.38.73s-.25.36-.38.36c1,2.16,2.84,3,5,3.69,1.38.4,2.72,1.18,2.55,3a6.29,6.29,0,0,1-2.37,4.65,1.55,1.55,0,0,1-2.16-.31,2.26,2.26,0,0,1-.16-.26c-1-1.68-2.5-3.06-3-5.07-.3-1.33-1.14-2.53-2.63-2-2.82,1-3.41-.69-4-2.79a11.73,11.73,0,0,1-.86-4.18A2.24,2.24,0,0,0,195.13,879.5Z"/><path class="cls-24" d="M149.34,595.09v3.27c1.9,11.1-2.18,22-1.11,33.07a3.63,3.63,0,0,1-2.16,4c.29-4.56,1.76-9,.27-13.75-.67-2.12.45-4.93,1.14-7.32a22.87,22.87,0,0,0,.25-10.63A12.74,12.74,0,0,1,149.34,595.09Z"/><path class="cls-27" d="M200.58,883.86v-1.09c1.8,0,3.61.09,5.4,0A7,7,0,0,1,213,887.7c1.08,2.91,2.12,6.72-1.55,9.24-.19-2.13-1.78-4.07.57-6.39,1.5-1.5-2.85-6.29-6.1-6.64A53.44,53.44,0,0,0,200.58,883.86Z"/><path class="cls-27" d="M222.38,914.37c-2.48.15-4.95-.19-7.44.43-4,1-4.05.89-4.55-3.7,1.16,1.67,1.83,3.48,4.85,2.45C217.33,912.84,220.21,912.37,222.38,914.37Z"/><path class="cls-19" d="M219.05,580c-.06,1.12-.26,2.25-1.59,2.41a1.23,1.23,0,0,1-1.29-1.17,1,1,0,0,1,0-.24c.13-1.21.35-2.67,2-2.68C219,578.28,219,579.26,219.05,580Z"/><path class="cls-23" d="M143.9,741.1c1.79,2.24,1,5.23,2.18,7.63h0c-2.39.48-2.8-1.28-3.3-2.93a8.94,8.94,0,0,1,0-2.53A3.32,3.32,0,0,1,143.9,741.1Z"/><path class="cls-19" d="M216,572.73c.18-.3.4-.86.52-.84,1.08.17,1.42,1,1.4,2,0,.3-.37.86-.49.84C216.3,574.51,216,573.69,216,572.73Z"/><path class="cls-22" d="M143.9,741.1v2.2c-2.28,0-2-1.75-2.18-3.2.29-1.17.45-2.47,2.17-2.26h0Z"/><path class="cls-27" d="M224.56,915.46a2.24,2.24,0,0,1-2.18-1.09A2.24,2.24,0,0,1,224.56,915.46Z"/><path class="cls-14" d="M352.1,875.14l1.09,1.09Z"/><path class="cls-27" d="M210.39,911.1,209.3,910Z"/><path class="cls-20" d="M114.46,643c1.51,2.37,1,5,1.09,7.62-4.55,3-5.6,2.53-8.93-1.13-2.83-3.12-4.37-6.4-4.11-10.84-.93,4-3.6,5.9-7.06,7.19-4.63,1.73-10.18-.64-10.76-5.56-.44-3.67-1.64-7-2.62-10.43-.85-2.94-.11-5.7,1-8.44-2.26,3.9-6.27,5.58-9.9,7.68-1.85,1.08-3.42-.31-4.83-1.51-3.4-2.91-4.52-6.82-4.4-12.08-4.72,4.05-9.1,6.15-14.07,1.53-1.24,4.29.25,8.71-3,11.8-.73-.08-1.64-.25-1.45-1.14,1.77-8.7,1.55-17.5,1.4-26.28a74.41,74.41,0,0,0-1.3-12c-.26-1.44.4-1.93,1-2.73,3-3.78,4.11-7.9,2.5-12.6-.65-1.9-.22-3.53.36-5.55,1-3.48.65-7.37.72-11.09.09-4.17,0-8.35,0-12.52-.08-8,1.69-15.85,2.54-23.78.22-2.09.51-4.35,2.49-5.77a1.89,1.89,0,0,1,1.64,0c1.78,5.71,1.76,11.68,2.34,17.56.54,5.5.66,5.7,5.4,3.12,5.56-3,13.5.34,16.54,6.92,2.9,6.3,2.75,13.07,3.13,19.74.48,8.3.48,16.63,1.08,24.93.37,5.21,3.11,10,2.67,15.41.66-7.67,3-14.88,4.84-22.22,3-12.29,6-24.53,13.2-35.25.63-.94,1.35-1.91,2.53-1.79,1.44.16,2.12,1.3,2.33,2.66.31,2,.44,4,.56,6,.08,1.49.09,3,1.94,3.43.54,6.92.57,13.9,2.18,20.7,2,2.5,2,5.6,1.44,8.3a28,28,0,0,0,.19,13.78c-1.47-9.39.58-17.92,2.73-26.43l1.09-1.09c-1.32,11.8-.68,23.72-2.16,35.51-.17,1.31-.36,2.58-1.4,3.4-2.35,1.84-1.5,5.16-3.47,7.17a.89.89,0,0,0,0,1.25l.2.14c4.84,1.52.46,5.48,2.11,7.82-2.37,3.1-.57,6.52-.72,9.78-.1,2,0,4-1.13,5.76-.29.25-.39.49-.29.73S114.36,643,114.46,643Z"/><path class="cls-28" d="M56.68,515.54H55.6c-2-4.95-2.8-10.14-1.48-15.26.86-3.35,1.14-5.65-2.83-6.63-2.89-.72-2.87-3.38-3.56-6.15-3.26,1.95-5.34,4.07-5.58,8-.4,6.52-3.75,12.41-4.35,19-.28,3.08-2.87,4.35-6.14,2.31-8.39-5.22-11.46-4.37-16.37,4.53a24.12,24.12,0,0,0-3.07,9.82,14.53,14.53,0,0,1-2,6.73c-1.65,2.65-3.62,3.66-5.88.55V450.15a26.68,26.68,0,0,0,2.69-.32c4.06-.87,5.5-.21,7.21,3.41,1.84,3.89,2.12,3.94,5.11,1a8.5,8.5,0,0,0,2.58-4.6c.86-4.24,2.07-8.41,3.29-12.56.56-1.91,1.42-3.75,3.54-4.55.84-.31,1.59-.82,2.56-.35,5.32,2.63,9.13,6.32,9,12.77a25.25,25.25,0,0,0,2.27,10.55,18.79,18.79,0,0,0,3.2-11c0-4.87-.34-9.76,1.14-14.53.8-2.57,2.36-4.87,2.29-7.75,0-1.46,1-2.19,2.64-1.78a27,27,0,0,0,2.69.29c3.64.47,6.36-.46,7.62-4.35.95-2.92,2.85-4.64,6.23-3.33a3.26,3.26,0,0,0,1.08,0c5-.14,5-.14,3.9,5-.7,3.41-.18,6.87-.34,10.3a3.67,3.67,0,0,1,0,5.21l-.21.2c-3.35,3.15-3.32,7-3,11-1.38,3.69-3.23,7.27-2.57,11.44a2.69,2.69,0,0,1-.66,2.55c-5.77,4.34-5,11-5.2,16.77-.3,10.89-2,21.6-2.84,32.4C58.43,510.59,59.14,513.47,56.68,515.54Z"/><path class="cls-29" d="M4.36,538.42c2.25,1.38,4.12,1.41,5.05-1.51a25.34,25.34,0,0,0,1.42-5.2c.55-6.07,1.92-11.71,7.15-15.62a2.94,2.94,0,0,0,.63-.86c1.1-1.81,1.71-4,4.53-4.08a9.59,9.59,0,0,1,7.37,2.76c.52.5,1,1,1.55,1.52.78.68,1.42,2,2.63,1.52a3.37,3.37,0,0,0,2.3-3.38c-.34-5.43,1.64-10.26,3.66-15.1.2-.49.57-1.15.4-1.52-2.62-5.58,2.89-7.46,4.94-10.89a2.23,2.23,0,0,1,2.89-.75,1.93,1.93,0,0,1,1.19,2.46,1.22,1.22,0,0,1-.1.24c-1.35,3.49.17,4.4,3.42,4.77s4.7,3.65,2.76,6.53c-1.8,2.68-1.39,4.83-.83,7.58s.22,5.76.28,8.65c-1.39,4.76-2.87,9.5-2.27,14.56a3.49,3.49,0,0,1,.05,1.07c-1.06,4.6-2.15,9.2-3.23,13.8-.08-.36,0-.82-.26-1-1.66-1.74-2.53-4.85-5.67-4.27-3.48.65-4.5,4.1-4.65,6.65a24.08,24.08,0,0,1-3.92,11.57c-1.06,1.72-2.11,3.85-1.1,6.14a2.72,2.72,0,0,1-.2,2.62c-1.46,2.2-1.61,4.23.19,6.4.44.53.28,1.77.05,2.6a2.68,2.68,0,0,1-1.4,1.5,1.31,1.31,0,0,1-1.65-.85.2.2,0,0,1,0-.11c-1.14-3.25-3.49-4.38-6.77-4a4.07,4.07,0,0,1-1.57-.38c-5.84-1.88-5.66-1.77-8.79,3.14-2.89,4.54-5.06,9.14-4.65,14.69a6.51,6.51,0,0,1-.93,3.06c-.7,1.44-1.59,3.31-3.4,2.86s-1-2.48-1-3.8Q4.32,565.06,4.36,538.42Z"/><path class="cls-30" d="M66.49,801.06c-3-4.52-3.59-9.91-4.09-14.94-.84-8.31-3.79-16-5.17-24.17-.69-4.08-1.8-8.08-2.73-12.12-1.85-2.9-1-6.31-1.78-9.45-.65-2.7,1.2-4.46,4.06-4.58a8.76,8.76,0,0,0,7-3.57c2.32-2.92,4.17-2.53,5.78,1,.84,1.82,1,3.86,1.79,5.71,1.11,2.79,2.78,3.68,5.41,1.61a18.85,18.85,0,0,0,5.08-5.59c.83-1.51,1.63-3.67,4-2.73,1.94.77,2.2,2.71,2.08,4.62a14.82,14.82,0,0,0-.09,3.26c.36,2.3,1.47,4.88,3.64,4.92,4.8.1,9.69,1.39,14.44,0,2.53-.72,4.17-2.85,5.21-5.27a12.51,12.51,0,0,1,5-6.29c.37-.28.77-.55,1.15-.82,1.51-1.07.71-2.46.5-3.77a18.34,18.34,0,0,1,.17-7.38,2.81,2.81,0,0,1,1.08-1.33c2.37.48,2.07,2.51,2.41,4.16.12,2.25.82,4.42,1,6.66a17.73,17.73,0,0,1-.32,4.77,6.38,6.38,0,0,1-.51,1.34l-.34.57a3.9,3.9,0,0,0-.81,2.2,5.76,5.76,0,0,0,.41,1c.26.3.5.61.76.91l.42.47a5.66,5.66,0,0,1,.74,1.09,5.16,5.16,0,0,1,.37,1.33c-.09,2.6-.49,5.2-.33,7.81a4,4,0,0,1-.66,1.31c-2.28,2,.08,3.91.1,5.86a43.87,43.87,0,0,1-.15,6.88c-.09.5-.2,1-.33,1.49-.69,7.58-5.51,13.26-9.33,19.26-2.86,4.49-6.53,4.48-10.53.89-3.29-2.94-7.69-4.85-8.81-9.89-.4-1.8-2-1.26-2.78.06a23.58,23.58,0,0,1-4.67,5.93c-3.32,2.86-5,2.66-7.47-.89-.82-1.19-1.36-2.55-2.22-3.73a2.65,2.65,0,0,0-2.15-1.42c-2.62,0-8.42,7.57-8.28,10.27C65.67,792.74,69.13,796.66,66.49,801.06Z"/><path class="cls-31" d="M46.87,628.87A43.75,43.75,0,0,0,48,617.07a1.83,1.83,0,0,1,1.31-2.1c.73-.17,1.27.33,1.86.82,4.89,4.1,6.44,4,10.65-.6.69-.75,1-2.28,2.25-1.87s1.31,2,1.33,3.26c0,1.09,0,2.18,0,3.26.15,3.4,2.42,5.51,4.64,7.68,1.27,1.25,2.36,1.24,3.73.06,3.34-2.88,8.14-4.21,9.48-9.19a1.14,1.14,0,0,1,1.4-.83,1.19,1.19,0,0,1,.35.15,1.53,1.53,0,0,1,.69,1.87,3.48,3.48,0,0,1-.54.93c-3.45,4.77-2.51,9.55.14,14.22.84,1.48,1.54,2.47.33,4.28s1,2.83,2,3.9c4.17,4.26,3.5,3.45,7.71,1.51,2.85-1.31,5.77-2.25,5-6.36a1.68,1.68,0,0,1,1.38-1.91h.12c1-.07,1.56.79,2.08,1.54a3.46,3.46,0,0,1,.48,1c.67,2-.65,3.91-.45,5.84.22,2.18,3.76,1.3,3.92,3.94.2,3.36,2.36,3.47,5,2.84a19.07,19.07,0,0,0,2.59-.6v7.63c1.79,3.87,1,7.7-.17,11.52-1.34,1.22-1.41,2.66-1.25,4.43.46,4.87-3,10.71-6.15,10.7-2.67,0-6.73-6.82-6.54-11,.06-1.46.83-2.79.75-4.79-1.78,1.83-2.41,3.89-3.34,5.73-1.35,2.64-3.25,4.38-6.41,4.1a7.29,7.29,0,0,1-6.59-4.87c-1.58-4-2.15-8.25-3-12.66a31.38,31.38,0,0,1-9.43,8.3c-4.62,2.5-7.22,1.29-8.16-3.77-.16-.89-.13-1.81-.25-2.7-.26-2,.08-4.6-1.87-5.36s-2.51,2.11-3.88,3.16a11.45,11.45,0,0,1-5.37,2.49c-3.68.52-4.41,2.74-4.58,6.09-.54,10.75,2,21.25,2.22,31.93a6.15,6.15,0,0,1-.94,3.26,1.15,1.15,0,0,1-1.55.25,115.57,115.57,0,0,0-2.49-21.85c-1-4.48-.56-8.94-1-13.39-.17-1.74.36-3.56-.4-5.3a2.22,2.22,0,0,1,.19-2.54c2.69-2.75,1.59-5.78.4-8.56-1.93-4.5-.15-9.38-1.8-13.86,2.18-2.27,1.5-5.47,2.59-8.1A10,10,0,0,0,46.87,628.87Z"/><path class="cls-32" d="M50.14,705.15v-3.27c1.3-1.2,2.71-.92,4-.17,3.45,2,5.39.57,6.68-2.76.75-1.94.78-4.84,3.43-5,3-.21,3.94,2.76,5.18,4.91a48.26,48.26,0,0,1,1.79,4.55c1.84,4.13,4.2,4.45,7.25,1,2.09-2.39,2.89-5.4,3.89-8.32.5-1.48.81-3.51,3-3.16,1.88.29,2.6,2,2.63,3.69a63,63,0,0,0,1.57,11.84c.8,3.74,2.31,5.13,6.51,3.64,4-1.41,8.53-.66,12.73-.34,2.8.21,3.66,3.64,4.9,6.07,2.5,5,1.27,10.82,4,15.7a15.74,15.74,0,0,0-5.71,7.59c-1.84,4.95-6.68,6.92-11.9,5.57a9.36,9.36,0,0,0-4.76-.13c-5.68,1.39-9.91-2.45-9.06-8.34.29-2,1.08-3.83-1.13-5.3-1.66.42-2,2-2.47,3.24-1.37,3.71-5.19,4.89-7.55,7.57-.65.74-1.68.43-2.43-.25a9.41,9.41,0,0,1-3.12-4.88c-.68-2.62-.29-5.91-3.34-7.7-2.18,3.76-4.42,7-9.58,6.15-2.42-.39-3.79,1.32-3,3.81.91,3,.18,6.07.86,9a4.41,4.41,0,0,1-1.91-3.13c-.89-6.94-1.64-13.9-2.44-20.86-.43-5.08-1.53-10.08-1.6-15.2A7.67,7.67,0,0,1,50.14,705.15Z"/><path class="cls-33" d="M66.49,801.06c.09-4.77-1.89-9.16-2.7-13.77-.49-2.77-.66-4.42,2.49-5.29,3.34-.93,5-4,6.88-6.62,3.67,1.4,4.5,4.74,6.07,7.49,1.88,3.3,2.38,3.39,5.16.82,2.14-2,4.21-4,5-7A2.11,2.11,0,0,1,91.75,775c1.43,0,2.81.73,2.81,2.06,0,7.07,7,8,10.48,12,1.35,1.58,5.4.3,6.67-2.64,2.7-6.21,8.38-11,8.6-18.39,0-.27.45-.52.69-.79,3.64,2.36,3.9,6,3.2,9.65A28,28,0,0,0,125,790.3a4.9,4.9,0,0,1,0,1.43,4.81,4.81,0,0,1-.49,1.2c-.1.16-.21.34-.3.51a5.56,5.56,0,0,0-.39,1,1.53,1.53,0,0,0,.32.94,9.68,9.68,0,0,0,1.4.88,4.41,4.41,0,0,1,1.7,2,6.33,6.33,0,0,1,.35,1.41c.1,3.57-.91,6.48-4.63,7.75a3.67,3.67,0,0,0-2.58,3.78c.08,4.7-2.63,8.23-4.88,11.9-2,3.33-4.26,3.5-6.21.25-3.22-5.39-8.38-9.6-9.62-17-2.8,3.4-2.79,7-4.36,10-3.48,6.52-5.89,6.89-10.59,1.18-1-1.28-2-3-3.89-2.19A6.9,6.9,0,0,0,76.38,821c-.2,2.1.69,4.4-1.17,6.18-1.84-2.2-.59-5.49-2.36-7.53-4-4.63-3.73-10.75-6-15.95A9.57,9.57,0,0,1,66.49,801.06Z"/><path class="cls-34" d="M99.19,882.8c-.16-.09-.4-.13-.47-.26-3.16-7.11-9.07-12.87-10.42-20.84-.47-2.77-3-4.47-3.28-7.25-2.14-5-2.82-9.9.53-14.82,2.53-3.73,3.86-4,7-.63,3.56,3.83,5.14,3.6,7.32-1.07a18.27,18.27,0,0,0,1.3-4.69c.32-1.83.76-3.73,3-4,2-.27,3.5.93,4.47,2.54,2,3.23,4.78,5.94,6,9.64.46,1.36,1.06,2.88,2.94,2.63,1.67-.23,2.42-1.61,2.7-3.06.63-3.18,1.52-6.37,1.34-9.65-.16-3,.76-4.93,4.07-5.12s3.7-2.4,3.4-5a59.09,59.09,0,0,0-.81-5.91c-1.28-5.78-1.53-11.64-1.81-17.5-.35-.37-.71-.74-1.09-1.09-.57-.66-1.58-.47-2.18-1.09a1.52,1.52,0,0,1,0-2.15l0,0h0c.38-.35.74-.71,1.09-1.09.84-.6.18-2.19,1.59-2.42,3.93,3.08,5.56,6.34,5.39,12.06-.14,4.84,3.39,10,2,15.5,5.91,5.84,5.44,13.29,5.38,20.71,0,2.91,1.37,5.64,2.59,8.2a20.67,20.67,0,0,1,2,8.88,5.56,5.56,0,0,0,.67,2.1,10.17,10.17,0,0,1,1,2.09A15.3,15.3,0,0,1,145,865a10.55,10.55,0,0,1-.33,1.58c-.57,1.48-.57,3.2-1.85,4.37-3.42-1-3.15-4.42-4.32-6.85-.7-1.43-.66-3.19-1.55-4.59-1.5-2.33-3.5-5-6.24-4.41-2.57.6-.89,3.78-.89,5.7,0,9.86.62,19.67,4.76,28.88a6.92,6.92,0,0,1-1,3.7,1.94,1.94,0,0,1-1.29.72,3.93,3.93,0,0,1-1.42-.45c-.21-.13-.41-.27-.62-.39a10.81,10.81,0,0,1-1.14-.88,3.24,3.24,0,0,1-1.18-2.4,5.85,5.85,0,0,0-.23-2.53c-.22-.4-.4-.82-.59-1.24-1.71-3.77-4.54-3.4-7.64-2.08-3-2-1.9-4.37-.43-6.49,1.6-2.33,2-4.73.83-7.14-1.8-3.65-3.48-7.38-6.2-12.08-.08,4.37-1.29,7-3.38,9.4s-3.85,4.4-7.7,2.62c-3-1.39-4.88,1.26-4.19,5.18C98.83,878,100.88,880.2,99.19,882.8Z"/><path class="cls-35" d="M126.45,797.77c.13.13.36.24.38.38.59,5.52,1.92,10.9,2.78,16.37.37,2.3.72,4.6,1.09,6.91.73,4.55-.66,6-5.32,5.94-2.16,0-2.93.78-2.41,3,.91,3.84-1.13,7.43-1.21,11.23a5.13,5.13,0,0,1-2.15,3.65c-2.43,1.92-5.63,1.38-5.86-1.56-.39-5.06-5.15-7.32-6.39-11.71a2.9,2.9,0,0,0-3.58-1.76c-1.2.33-1.34,1.63-1.29,2.74.2,3.7-1.83,6.46-3.6,9.44-1.51,2.56-3,1.87-4.86.69a10.74,10.74,0,0,1-3-3.78c-1.58-2.6-2.6-2.55-4,.29-1.93,4-4.42,7.95-2.12,12.71a5.42,5.42,0,0,1,.07,2.16c-4.4-8.67-7.23-17.91-9.81-27.24,0-1.27.39-2.7-.07-3.77-1.88-4.37,1.35-6.57,3.71-9s4.44-1.86,6.19.9c1.32,2.08,1.94,5.22,5,5.08s3.09-3.6,4.45-5.6c1.56-2.3,1.53-5.15,2.42-7.7.41-1.16.2-2.72,2-2.58,1.59.13,3.3,1.52,3,2.61-1.31,5.57,4.23,7.51,5.73,11.53a4.81,4.81,0,0,0,1.43,1.61c1.4,1.24.54,4.49,3.37,4.27,2.28-.17,1.73-2.88,2.85-4.22a14.82,14.82,0,0,0,3.71-9.83c0-1.78-.32-5.27,4.13-4.56,2.31.36,2.83-2.81,3.2-4.93A19.58,19.58,0,0,0,126.45,797.77Z"/><path class="cls-36" d="M99.19,882.8c-.84-2.76-1.58-5.56-2.56-8.27a3.28,3.28,0,0,1,.61-3.46c2.78-3.78,2.77-3.88,7-1.26,1.38.85,2.46.84,3.2-.49,1.92-3.41,6.57-5.71,4.41-10.84-.25-.6.47-1.32,1.23-1.56a1.67,1.67,0,0,1,2.24.81l0,0c2.08,4.33,4.31,8.6,6.12,13,1.12,2.73,1.35,5.51-1.55,7.82-1.77,1.4-1.57,3.48,0,5.23,2.89-.52,2.86,2,3.82,3.58.21.44.4.88.59,1.33l1,2c1,2.47,2.38,4.82,2.85,7.5-.29,4.4-3.18,2-5.14,1.94-2.2-.06-4.83-2.63-6.36,1.12-2.78.46-4.42-1.4-5.85-3.2-3.57-4.49-6.82-9.23-10.94-13.27C99.39,884.37,99.39,883.48,99.19,882.8Z"/><path class="cls-36" d="M134.08,890.4c-2.34-3.67-2.27-8.38-5.14-11.87a3.49,3.49,0,0,1-.27-2.63c1.3-5.34-.6-10.65-.06-16,.15-1.5-.54-2.82-.79-4.23-.41-2.36,1-3.63,3.08-2.78,4.37,1.76,8,4.25,8.64,9.51.35,3,2.06,5.61,3.26,8.34,2.69,2.72,2.41,6.73,4.27,9.79a4.24,4.24,0,0,1,.5,1.13c-.4,1.23.34.67.84.52a2.51,2.51,0,0,1,1.18.6,4.91,4.91,0,0,1,.43,4.92c-1.45,1.15-1.9,2.7-2.23,4.5-.41,2.27-1.67,1.87-2.82.35h0c-.35-.37-.68-.76-1.06-1.1-1.44-2.92-3.5-5.52-4.39-8.7-.37-.37-.71-.74-1.07-1.11v0c-2.08-1.79-2.29-4.67-4.34-7.3a69.35,69.35,0,0,1,3.72,15.35C135.85,892.47,135.26,892.58,134.08,890.4Z"/><path class="cls-37" d="M137.35,889.31c-1-4-1.78-8.07-3.67-11.79-.94-1.85-.89-3.8-.26-6.35,2.88,3.24,4.66,6.5,5,10.49a2.21,2.21,0,0,0-1,2.82c2.08,3.58,1.68,7.53,2,11.36-3.27,6.33-6.54,1.85-9.81,0h0c-2.66-2.37-5.22-4.79-3.48-8.88a1.91,1.91,0,0,1,2.39.16h0a1.52,1.52,0,0,1,0,2.15l0,0a2.24,2.24,0,0,0,1.09,2.18,12.46,12.46,0,0,0,1.09,1.09h0c.34.39.76.69,1.09,1.09H133C135,892.81,137,891.91,137.35,889.31Z"/><path class="cls-38" d="M116.62,901.29c.37-3.74.33-3.57,3.38-2.87,2,.47,4.11.56,6.12,1.36,1.08.43,1.27-.89,1.43-1.76.37-.52.73-.49,1.08,0h0c1,.89.06,2.4,1.1,3.26,1.26,1.52,2,3.38-1,2.58-2.57-.68-5.76.18-7.72-2.84C119.92,899.35,118.08,900.66,116.62,901.29Z"/><path class="cls-26" d="M129.72,895.85c2.45-.42,3.9,1.12,5.37,3.28,1.27-1.77,2-3.92,4.44-3.29.72,3.09-.47,6.13-2.8,7a2.22,2.22,0,0,1-2.86-1.29l-.09-.29C133.15,898.82,130.86,897.8,129.72,895.85Z"/><path class="cls-39" d="M145,892.59c2.43.95,2.33-.22,1.76-2-.84-2.6.1-3.4,2.61-2.37,1.82,3,3.63-.14,5.45,0,0,1.09,0,2.18,0,3.28-1.05,2.11-2,4.53-5,2.17-.7-.54-1-.1-1.62.44C146.47,895.64,146.37,895.53,145,892.59Z"/><path class="cls-26" d="M128.63,898h-1.08a17.21,17.21,0,0,1-3.3-7.61c-.37-.35-.66-.78-1.06-1.11,0-.36,0-.72,0-1.08.34-2.59,1.8-1.87,3.27-1.09-.57,3.53,2.85,5.56,3.27,8.72A2.23,2.23,0,0,0,128.63,898Z"/><path class="cls-38" d="M50.14,705.15c-2.43,6.9.75,13.8,0,20.7-2-3.71-1-8-2.07-11.87-.61-2.16,0-4.6-.54-6.89-.25-1,.71-1.53,1.52-2Z"/><path class="cls-26" d="M129.73,901.29c-1.3-.78-1.06-2.07-1.1-3.26C129.91,898.81,129.68,900.09,129.73,901.29Z"/><path class="cls-37" d="M138.46,881.67l1.06,1.11Z"/><path class="cls-39" d="M143.91,891.48l1.06,1.11Z"/><path class="cls-31" d="M56.68,515.54c.73-7.78,1.43-15.56,2.2-23.34.47-4.78,2.09-9.53.13-14.33,2.12-2.65-1.1-6.38,1.91-9,.74-.65,1.19-2.9.68-3.5-2.46-3,.25-5,1.72-5.57,3.1-1.14,2.74-3.39,2.57-5.4-.26-3.14-.2-5.94,2.43-8.16.33-.27.25-1,.35-1.55,3.37.76,2.51,3.62,2.48,5.68-.06,5.15,2.25,8.3,7.17,9.46,4.53,1.08,6.2,4.06,6,8.41a32.76,32.76,0,0,0,1.56,11.17c1.44,5,2.44,10.31,1.23,15.61-1.72,7.56-.43,15.18-.5,22.76,0,1.7-.33,4.19,2.06,4.39,2.22.19,2.48-2.27,3.18-3.88,2.27-5.24,2.74-10.88,3.63-16.43.8-5,1.71-9.93,4.63-14.37,2.1-3.2,2.42-7.19,3-10.95.57-3.42,1.19-6.8,3.13-9.77,2.88-.81,3.09,1.52,2.75,3-1.26,5.38.81,10.78-.38,16.17-.28,1.26-1.67,5.07,2.78,3.5,1.25-.45,1.37.79,1.39,1.68.14,7-.16,14,1,20.93.39,2.25-.43,4.74-3.27,4.58s-3.17-2.5-2.72-4.9c.73-3.93,1.55-7.86-1-11.71,2.86,6.68-1.57,13.42,1,19.92.47-1.23.79-3,2.94-2.63a3.54,3.54,0,0,1,2.9,2.93c.43,3.49,2.41,6.89.85,10.54-1.86,4.07.3,8.07.25,12.11-.06,4.37.38,8.76-1.33,13-1.27.47-.75,2.46-2.89,2.81-.31-3.87-.72-7.68-.85-11.5,0-1.15.3-2.31-1.1-2.54-1-.17-1.55.86-1.6,1.78-.14,3-2.07,5-3.77,7a16.86,16.86,0,0,0-3.91,9.89,22.09,22.09,0,0,1-1.79,6.77c-1.55,3.77-4.21,7.2-2.86,11.72.2.68-.58,1.66-.91,2.49-1.87,4.72-3.51,9.5-3.2,14.69.13,2.08-.7,3.9-1.24,5.8-.3,1.07-1,2.18-2.27,1.77a2.25,2.25,0,0,1-1.3-2.72c.88-4-.49-7.71-1.13-11.6-.81-5-2.62-10.17-.87-15.4.81-2.41-1.16-4.53-.84-6.91.81-6.09-.44-12.16-.64-18.22a21.72,21.72,0,0,0-5.5-13.24,2.62,2.62,0,0,0-2.4-1c-.88.11-1.89.79-2.61.15-3.59-3.22-6-1.14-8.72,1.47-2.33,2.28-4.13,1.58-4.94-1.64a14.53,14.53,0,0,1-.25-3.23,35.35,35.35,0,0,0-1.15-9.6C55.78,521.86,56.6,518.59,56.68,515.54Z"/><path class="cls-39" d="M200.57,382.59c.77,5.15-.77,9.77-3.27,14.17a8.37,8.37,0,0,1-.68,6.86c-5.6,8.63-6.22,19.27-11.5,28a20,20,0,0,0-2.84,10.92,9.91,9.91,0,0,1-2.31,6c-1.93,3.26-4.58,6-6.33,9.45s-3.91,3.15-6.28.24c-3.46-4.24-3.43-9-2-13.87,1.16-4,2.57-7.85,3.15-12-2.2,4.41-5,8.7-4.38,13.95a9.38,9.38,0,0,1-2,7.56,18.74,18.74,0,0,0-3.53,7.89,87.6,87.6,0,0,1-7.13,19.3c-2,4.17-3.4,4.3-7.58,1.69s-7.19-5.47-4.39-10.82h0c1.22-1.23-.06-3.1,1.09-4.35h0c2.39-4.43,1.61-9.58,3.27-14.17,1.35-10,5.37-19.34,8-29,.94-3.47,1.85-6.93,5.07-9.13,1.33,2.65-.23,7.48,4.3,7.59,3.73.09,3.76-4.31,5.19-6.82a41.83,41.83,0,0,1,4.22-6.89,27.56,27.56,0,0,0,5.35-10.5,97.38,97.38,0,0,1,8-18.95,77.25,77.25,0,0,1,5-13.15c1-2,1.63-4.92,4.9-3.64,2.89,1.13,4,5.8,1.68,8.39-2.66,3-5.22,5.94-6.41,9.89-.62,2.08-1.48,4.09-2.07,6.18-.32,1.13-1.32,2.84.28,3.3,2,.59,2-1.53,2.35-2.85a37.39,37.39,0,0,1,2-6.2c.6-1.36,1.42-2.67,3.09-2.7s1.75,1.34,1.93,2.67C197.25,384.73,199.53,381.45,200.57,382.59Z"/><path class="cls-37" d="M139.53,471.94a20.64,20.64,0,0,1-.32,3.77c-.43,1.58.38,2.45,1.44,3.18,2,1.43,4.51,2.17,6.07,4.42.72,1,2.1.47,2.6-.68.87-2,1.16-4.31,2.35-6,3.47-5,4.16-10.87,5.74-16.45a20.87,20.87,0,0,1,4.61-8.51c.93-1,1.6-1.9,1.1-3.33a10.63,10.63,0,0,1,1-9.81c1.07-1.75,1.11-4.15,1.58-6.26s1.9-3.2,4-2.5,1.84,3,1.1,4.12c-2.15,3.29-2.3,7.24-4,10.59C164,450,166.31,454.5,169.26,459a1.19,1.19,0,0,0,1.66.41,1.46,1.46,0,0,0,.21-.16c.58-.41,1.45-1,1.46-1.53.13-4.51,4.51-6.24,6.17-9.71,1.79,1.77,1.4,4,1.27,6.16-2.9,10.37-7.21,20.28-10.18,30.63a1.62,1.62,0,0,1-1.85,1.37l-.13,0c-2.67,7-6.47,13.65-5.48,21.56a5.83,5.83,0,0,1-.14,2.16c-.33,1.35-1.16,2.33-2.66,2.17s-1.48-1.38-1.51-2.49,0-2.53-.08-3.8c-.05-1-.41-2-1.54-1.66-3,1-4.63-1.43-7.26-2.48-1.16,1.95-2.66,3.7-.73,6.1a2,2,0,0,1-.12,2.83l-.09.08c-1.4,1.44-.91,3.45-1.68,5.08s-.25,2.64,1.52,3.28c2.73,1,2.73,3.12,1.69,5.34a31.52,31.52,0,0,1-2.27,3.67c-1.79,2.76-4,4.95-3,9.13a7.35,7.35,0,0,1-4.22,8.2c-1.07-1-2-2.4-3.37-3.08-2.22-1.12-4.71-2.23-6.9.24-.91,1-1.53,2.92-3.31,1.82a4.19,4.19,0,0,1-2-4.67c.89-4.21.86-8.58,2.41-12.69a14.33,14.33,0,0,0,.35-3.75c-.49-2.09-1-4,.27-6.2,1.44-2.53.48-5.58,1-8.41.95-5.16,2.9-10,4.21-15,1.55-5.92,3-11.86,4.73-17.75C138.12,474.47,138.16,472.86,139.53,471.94Z"/><path class="cls-34" d="M200.57,382.59a17.93,17.93,0,0,1-1.89,1.91c-1.07.81-2.31,1.23-3.46.17s0-2,.3-2.91c.2-.67.68-1.33-.62-2.25-2.88,2.63-3.63,6.34-3.75,9.85-.08,2.3-.89,2.77-2.63,3.17-3.42.78-4.37-.13-3.26-3.55,1.45-4.48,3.09-8.89,4.69-13.31a4.39,4.39,0,0,1,2.82-3.07c1.48-.47,1.93-2.09,2.8-3.22.67-.87-1.27-5.71-2.4-5.87-2-.29-2,1.54-2.59,2.82-2,4.59-4.17,9.14-5.27,14.08-4.36,3.15-9,6-10.56,11.76a3.54,3.54,0,0,1-3.6,2.8c-2.21-.15-2.71-2.06-3.3-3.79-2-5.78.42-11,2.19-16.23,3.48-7.63,4.85-16.08,9.4-23.34,2.07-3.31,3.26-7.19,4.7-10.87a4.59,4.59,0,0,1,2.24-2.86c2.08,2.61-.18,4.7-.84,7-.37,1.23-.8,2.54.46,3.43,1.41,1,2.38-.15,3.15-1.12a11.24,11.24,0,0,1,10.31-4.5c4.22.27,5.77-3.07,4.22-7.5-.89-2.56-3.56-5.64,1.27-7.29,1.34,1.88,2.92,3.05,5.33,1.86,2.1-1,2.46-2.85,2.2-4.9a8.27,8.27,0,0,1,0-3.67,11.47,11.47,0,0,1,.5-1.5c1.06-2.47,2-5.06,4.66-6.3,1.1-.51,2.36-1.16,3.55-.39s.78,2.16.66,3.41c-.41,4.08-.65,8.16-2.57,11.92-1,2-.89,4.17-.68,6.32-4.8,5.72-4.2,13.24-6.88,20.15,2.11-1.14,2.22-3.29,3.66-4.36s2.77-2.43,4.84-1.61a8.94,8.94,0,0,1-3.95,8.21,15.36,15.36,0,0,0-6.08,9.12c-.66,3.26-3.59,5.71-3.56,9.38,0,1.05-1.47,1.36-2.51,1.71A4.82,4.82,0,0,0,200.57,382.59Z"/><path class="cls-40" d="M114.46,530.79c.53-3.74-2.16-6.94-1.77-10.72.08-.79-1.25-1.66-2.66-2.08-1.9,1.52-1.27,5.34-5.34,6a9.4,9.4,0,0,0,.76-8.32c-.36-1.08.08-2.48.3-3.7.56-3.17,1.22-6.23.13-9.53-.81-2.44.39-4.88,1.69-7.32,1.75.79,1.56,2.17,1.35,3.28-.31,1.66-.61,3.16,1,4.4,1.06.84.58,1.92.35,3-.53,2.4-.78,4.88-1.47,7.23-.42,1.43.27,2.05,1.15,2.64,1.33.87,1.94-.36,2.63-1.11a3.24,3.24,0,0,0,.77-3.06c-1.93-6.89-.53-14-1.19-21-1.5.29-.92,2.6-2.45,2.48-1.82-.13-2-1.92-2.48-3.17-1-2.83.27-5.66.37-8.5.16-5,1.39-10-.73-14.84-1.25-1.54-.62-3.14,0-4.61,2.67-5.92,3.59-12,1.69-18.31-1-3.24,1.06-6,1.18-9,.22-5.24,1.12-10.43,1.12-15.69,0-.35.22-.75.12-1.06-3.7-11.55,2.93-22.61,1.62-34.07-.24-2.14,1.08-3.36,3.46-2.72l.59.51c-.32.84-1,1.74-.9,2.51.84,5.41-.2,10.65-1.06,15.93a6.83,6.83,0,0,0,0,3.21c1,2.9,1.26,5.49-.76,8.19-1.22,1.63-.5,3.48,1,4.88s1.83,2.66,0,4.45c-2.35,2.3-2.23,3.27.4,5.53,1.66,1.43,1.52,2.79.77,4.28a7.42,7.42,0,0,0-.64,6.2,7,7,0,0,1-.4,4.79,6.75,6.75,0,0,0,0,5.29,5.88,5.88,0,0,1,0,4.74,6.47,6.47,0,0,0-.06,4.78c1.44,4-.2,8.14.56,12.23.46,2.45-1.49,3.42-3.81,3.46-1.14,0-2.22.28-2.44,1.64s.41,2.32,1.94,2.7c2.9.7,2.91,2.69,3,5.37.15,6.39-.83,12.69-.34,19.17.37,5,1.88,10.3.26,15.39-.64,2,.34,3.55.77,5.23C115.61,524.64,116.41,527.74,114.46,530.79Z"/><path class="cls-41" d="M170.05,375a9.23,9.23,0,0,1-.72,4.78c-2.23,4-.33,8.09,0,12.12.09.94.63,2.23,2,2.23,1,0,1.52-.86,1.94-1.68a5.34,5.34,0,0,0,.69-1.47c1-6.49,5.64-9.07,11.32-10.52-3.62,6.81-7.31,13.64-8.6,21.32-.54,3.17-2.64,5.22-4.32,7.26-2.8,3.4-4.3,7.34-6.35,11-.7,1.26-1.24,2.62-2,3.82-1,1.5-1.94,2.19-3.87.71-4.61-3.52-4.72-3.38-3.18-9.3-.53-5.64,1.93-10.69,3.77-15.67,2.55-6.94,4.57-14,7.16-21C168.4,377.27,168.79,375.86,170.05,375Z"/><path class="cls-42" d="M204.94,328.11c-.83.4-1.84,1-1.54,1.92.52,1.68-.08,3.89,1.62,5,2.2,1.4,1.83,2.72.41,4.31a1.42,1.42,0,0,0-.23.48c-1.61,4.32-2.15,5.23-6.07,4.37-4.41-1-6.84,1-9,4-1.21,1.65-2.08,3.58-4.6,2.24-2.25-1.19-2.6-3-1.26-6,.94-2.12,2.44-4,2.15-6.56,1.33-6,6.16-10,8.74-15.22.38-.35.74-.72,1.08-1.1h0c.84-1.4,1-3.12,2.18-4.37h0a12.46,12.46,0,0,0,1.09-1.09h0c.85-1,1.41-2.21,2.18-3.27h0c2.73.17,5.38.34,7.5-2.05a2.4,2.4,0,0,1,3.39-.15l0,.05a2,2,0,0,1,.24,1.39,29,29,0,0,0-2.49,7.29,10.08,10.08,0,0,1-.41,1.32c-.32.86-.6,1.73-.87,2.6a8.12,8.12,0,0,1-.53,1.29C207.42,325.83,207.6,328.42,204.94,328.11Z"/><path class="cls-23" d="M121,332.46c-1.73.79-2.24,2.23-2.19,4a30.11,30.11,0,0,0,0,3.8c.37,2.35-4,3.71-2,5.41,2.25,1.92,1,3.94,1.58,5.8,2.35,8.18-.32,15.84-2.84,23.49l-.56-.54c-1.48-5.28,1.46-10.31.82-15.58-.25-2.08.2-4.26-1.25-6.14-2.57,1.12-2.18,3.32-2.52,5.18-.4,2.21-1.08,4.94-3.5,4.79s-1.69-3.11-2-4.94a13.38,13.38,0,0,1-.09-2.19c1-8.45,2.52-16.81,4-25.19.3-1.73.48-3.65,2.35-4.64,3.68,2.67.65,6.19,1.55,8.68.34-.57,0-1.9.23-3.15.46-2.69,1.71-5.2,4.76-4.49S121.82,330.12,121,332.46Z"/><path class="cls-43" d="M121,332.46c0-.53,0-1.07,0-1.61,0-1.48-.18-3.21-1.9-3.35-2.1-.18-3.21,1.51-3.41,3.4-.29,2.62,0,5.35-2.66,7.43-1.68-2.22.42-4.06.35-6-.08-2.15,0-4.29,0-6.44-.74-7.7.2-15.06,4.36-21.78h1.09c1.2,5.32-2.33,10.1-2.15,15.34,2,.17,2.07-1.07,2.1-2.08.07-2.07,1.42-3.26,2.77-4.47.66-.59,1.48-1.3,2.3-.29a1.5,1.5,0,0,1,0,2c-1.87,1.82-2.65,3.7-.76,6C121,324.34,123.07,328.75,121,332.46Z"/><path class="cls-44" d="M119.91,572.2c-.9,6.52-.07,13.27-2.55,19.58a2.1,2.1,0,0,0,.52,2.4c2,2.43.42,4.79-.28,7.14a1.09,1.09,0,0,1-1.22.93,1.12,1.12,0,0,1-.43-.16c-.43-.24-1.08-.88-1-1.13,1.31-4-1.14-8.08-.18-11.63,1.19-4.37.43-8.54.78-12.77,2,.15,3.27-.42,3.37-2.7C119,573.3,119.57,572.75,119.91,572.2Z"/><path class="cls-39" d="M212.57,311.76c-1.95-1.93-3.2.15-4.58.9s-2.23,2.82-4.14,3.11c-1.53-.44.28-3.26-2.19-2.93.1-.73.32-1.87.92-1.78,2.83.45,5.34.52,6.52-2.77,3.16.12,4.1-2.45,5.5-4.48a1.86,1.86,0,0,1,1.74-1c.77,1.3-.81,2.29-.52,3.53-.68.57-.41,1.61-1.07,2.19,0,.36,0,.72,0,1.08C213.84,310.12,214.59,312.32,212.57,311.76Z"/><path class="cls-45" d="M212.57,311.76l2.17-2.19a2.26,2.26,0,0,0,1.09,2.18l.47.65c-.27,2.89-2.48,5.15-2.63,8.08,0,.36,0,.72,0,1.07-1.76.71-1.82,2.94-3.31,3.82-1.8,1.06-3.24,1.29-2.13-1.63h0c1-.86.13-2.37,1.09-3.26h0c1.1-2.9,1.31-6.14,3.27-8.72Z"/><path class="cls-45" d="M224.56,306.31c-1.74,3.05-.08,6.85-2.17,9.82a52.41,52.41,0,0,1-1.48-6.45c-1.59.89-2.71,3.22-5.07,2.08h0c.1-2.9,3.53-3.86,3.91-6.81.14-1.07,2.41-1.62,3.79-1.38S224.46,305.28,224.56,306.31Z"/><path class="cls-46" d="M125.35,304.37c0,2.08-.37,3.78-2.73,3.92-.86,0-1.23-.59-1.23-1.36,0-2.18,1.65-4.73,2.86-4.47S125.14,303.78,125.35,304.37Z"/><path class="cls-37" d="M143.89,453.42c-.07,5-.08,9.93-3.27,14.17C142.06,463,140.75,457.67,143.89,453.42Z"/><path class="cls-40" d="M115.55,375c0,1.35.79,2.29,1.52,3.3s.87,2.3-.43,3.23h0c-3.69-3.76-3.76-4.18-1.08-6.53Z"/><path class="cls-39" d="M198.38,317.2a5.79,5.79,0,0,1-2.17,4.36C196.12,319.7,196.41,318,198.38,317.2Z"/><path class="cls-37" d="M140.62,467.59c-.15,1.5.51,3.21-1.09,4.36C139.68,470.44,139,468.74,140.62,467.59Z"/><path class="cls-39" d="M201.66,312.84a3.24,3.24,0,0,1-2.18,3.27A3.33,3.33,0,0,1,201.66,312.84Z"/><path class="cls-45" d="M214.76,308.49a2.22,2.22,0,0,1,1.07-2.19A2.22,2.22,0,0,1,214.76,308.49Z"/><path class="cls-39" d="M196.21,321.56l-1.08,1.1Z"/><path class="cls-39" d="M199.48,316.11l-1.09,1.09Z"/><path class="cls-30" d="M115.54,375c-1.29.92-1.23,2.08-.42,3.23s1.54,2,1.51,3.3c-1.68.06-3.81.12-2.9,2.53s-.83,5-.35,6.53c.79,2.56-.06,4.54-.39,6.69-.22,1.4-1,2.82-.65,4.21.8,3.2.71,6-2.3,8.05-.78.54-1.06,1.76,0,2.22,3.41,1.49,2.58,4.2,2.24,6.83-3.17,2.26-3.89,5.38-3.42,9.06.55,4.45-1.23,8.56-2.17,12.78a5.18,5.18,0,0,1-2.17,3.05c-3.8,2.68-14.15,2.52-18-.18a4.9,4.9,0,0,1-2.08-4.16c-.21-4.33-1.13-8.61-.92-13a12.09,12.09,0,0,0-3.45-9.39c-3-3.12-4.38-6.7-1.53-10.76,2.28-3.25.91-6.84,1-10.29,2.19-3.73,4.35-7.47,2.18-12a20.52,20.52,0,0,0,6.61-11.05c.83-3.64,1.52-7.35,3.2-10.75.4-.32.72-.72,1.09-1.08h0a8.34,8.34,0,0,0,0-6.54v-1.09c-1.38-2.5.93-3.17,2.18-4.36h0c2.23-2.11.12-5.47,2.18-7.63.4-.32.72-.73,1.09-1.09v-2.18c1.23.07,2.2-.64,3.27-1.09,2.22,1.22.76,2.55.28,4-1.6,5-4.78,9.71-3.17,15.39a11.51,11.51,0,0,0-3,7c-.14,1.43,1.29-.12,1.84.44,2.3.78,3,2.44,2.44,4.66a6.65,6.65,0,0,0,1.32,6.05c2-2.34,1.62-5.06,2.29-7.45,1-3.69.23-8.22,4.5-10.54v6.05c2-1.84,3.23-3,2.67-5.67a6.39,6.39,0,0,1,2.27-5.8c1.8-1.61,3.25-1.17,3.74,1.23a40.08,40.08,0,0,1-.42,16.82A29.93,29.93,0,0,0,115.54,375Z"/><path class="cls-33" d="M98.11,356.44c-2.3-3.29-1.58-6.34-.16-9.91,1.25-3.15,3.29-6.14,3.43-9.71,1.08-2,1.26-4.54,3.26-6.08.27-.21.63-.6.6-.86-.62-5.39,3.13-10.19,2.2-15.53a3.82,3.82,0,0,1,1.13-3.8c3-3.14,6.61-5.84,8.19-10.33,1.4,1.42.79,2.73,1,3.91q-2.17,10.9-4.36,21.79c-2.18,3.68-2.11,7.91-2.59,11.92-.76,6.23-2.8,12.26-2.87,18.6-1.4,3.85-3.31,7.58-3.24,11.81,0,2.42-1.07,4.57-1.42,6.89a2.21,2.21,0,0,1-2.41,1.8c-1.08-.05-1.54-.85-1.6-1.84-.16-2.5-2.77-4.71-.37-7.58,1.2-1.43-1.18-2.29-1.86-3.45C95.05,361.19,95.86,358.71,98.11,356.44Z"/><path class="cls-4" d="M114.46,251.82c.41-2.47.8-4.94,1.24-7.41.17-.94.74-1.85,1.68-1.86,1.54,0,1.28,1.36,1.44,2.39.32,2.07-.9,3.83-1.09,5.79a11.21,11.21,0,0,0-1.09,1.09h-2.18Z"/><path class="cls-32" d="M79.58,395.67a14.24,14.24,0,0,1-.4,11.59c-1.47,3.26-1,6.54,1.88,8.55,3.37,2.32,4.18,5.5,3.88,8.95-.46,5.27,1.41,10.37.77,15.62-.16,1.37.85,1.95,2,2.05a5.29,5.29,0,0,1,3.85,1.74c1.23,1.47,2.63,1.11,3.84.18,1.83-1.4,3.58-2.3,6-1.34a2.85,2.85,0,0,0,3.75-1.48,2.92,2.92,0,0,0,.24-1c.28-5,3.8-9.52,1.61-14.8-.72-1.72.72-3.48,1.18-5.21.56-2.14,2.89-.93,4.11-1.92.32,5.17-.89,10.24-1.1,15.38-.08,1.92.1,3.74-1.17,5.62s-.27,4.7.58,6.61c.94,2.08,1,3.63-.08,5.44-.09.15-.22.36-.17.5,1.7,5.5-2.77,9.5-3.51,14.4q-2.2,10-4.42,20a3.13,3.13,0,0,1-.51,1.51c-5.54,5.75-4.62,13.4-5.86,20.35a96.08,96.08,0,0,1-4.14,14,3.47,3.47,0,0,1-3.74,2.56c-2-.31-3-1.95-3.08-3.94s0-4-.06-6c-.15-3.41.25-6.8-.76-10.23-.92-3.11.93-6.22,1.31-9.37.8-6.62.23-12.79-2.56-18.78a6.26,6.26,0,0,1-.36-3.65,50.31,50.31,0,0,0,.17-7.05c-.06-2.4-.93-3.69-3.75-4.22-7.5-1.4-9.18-3.82-9.33-11.34,0-1.9.74-4-1.06-5.64,0-.9.24-1.94-.12-2.67-1.56-3.18-.52-5.5,2.07-7.46A6.32,6.32,0,0,0,73,428.36c1.7-4.38,1.68-9,2.11-13.6.34-3.6.76-7,2.87-10.14,1.11-1.66,2.16-3.81.86-6.11a2,2,0,0,1,.62-2.8Z"/><path class="cls-7" d="M94.84,348.81c-.61,1.51-2.34,2.46-2.18,4.36C91.15,350.38,91.4,349.89,94.84,348.81Z"/><path class="cls-7" d="M92.66,354.26a5,5,0,0,1,0,6.54Z"/><path class="cls-7" d="M92.66,360.8l-1.09,1.08Z"/><path class="cls-18" d="M98.11,220.22c.18,1.19-.46,2.52.82,3.76,1.68-1.34,3.35-2.5,3.55-5,.53-6.67,5.47-9.33,11-12,1.58,7.7-.08,14.44-3.38,20.92.53-4.77,2-9.42,2.12-15.49-1.59,2.9-4.36.79-5.77,3.94-.93,2.09-2.08,3.15-.29,5.11a2,2,0,0,1,.08,2.87l-.09.09c-2.21,1.61-3,3.91-3.78,6.31a2.48,2.48,0,0,1-.56.83c-4-2.06-5.38,3.28-9.32,3C93.68,229.39,95.91,224.81,98.11,220.22Z"/><path class="cls-7" d="M117.73,235.48c1.09-3.93,2.2-7.84,3.24-11.78.19-.68,0-1.47.19-2.16.29-1.08.87-2.2,2.2-1.8,1,.3.72,1.48.9,2.34.48,2.28-1.43,3.84-1.86,5.95-.72,3.57-.57,7.2-1.4,10.71a10.2,10.2,0,0,0-1.09,1.09h0C117,239.48,117.94,237.19,117.73,235.48Z"/><path class="cls-18" d="M110.11,227.86c.07,1.14-.23,2.35.48,3.59,2.18-2,1.49-5.29,3.86-6.88.54,3.81-1.89,6.64-3.26,9.82-1,.86-.13,2.38-1.09,3.27-.38.34-.71.74-1.09,1.09v1.08a8.09,8.09,0,0,0-1.09,1.1h0a2.42,2.42,0,0,1-1-2.33c.41-3,.84-6,1.39-8.93C108.43,228.78,109.28,228.25,110.11,227.86Z"/><path class="cls-18" d="M101.37,211.5a6,6,0,0,1-2.17,4.37C99.09,214,99.39,212.34,101.37,211.5Z"/><path class="cls-18" d="M99.21,215.87c-.16,1.5.49,3.21-1.1,4.35C98.26,218.72,97.59,217,99.21,215.87Z"/><path class="cls-3" d="M116.64,251.82l1.09-1.09Z"/><path class="cls-3" d="M98.11,340.09,97,341.18Z"/><path class="cls-5" d="M178.78,454.51q0-3.27,0-6.54c.63-1.47,2.45-2.51,2.11-4.28-1.07-5.57,2.35-10.05,3.5-15.08a7.23,7.23,0,0,1,1.36-2.28,23.58,23.58,0,0,0,4-9.89,25.85,25.85,0,0,1,5.09-12.27,5.87,5.87,0,0,0,1.4-4c0-1.25-.17-2.57,1.08-3.44,1.63-.83,2.87-.56,3.15,1.4.21,1.42.07,2.88.18,4.32.08,1.11.41,2.36,1.75,2.28,1.61-.1,3,0,3.45,1.75.55,2,1.52,3.91.95,6.28a57.2,57.2,0,0,0-1.35,11.44c2.63-3,2.55-6.8,3.11-10.77,5,1.76,7.38-1.19,9.47-4.72.08,6.74-1.7,13.16-3.27,19.62-.63,12.11-3.11,23.95-5.08,35.87-.6,3.66-1.35,7.46-5.84,8.1-2.71.38-6-4.18-5.56-8.8.76-7.39-5.33-9.8-9.15-13.74-1.63-1.67-4.08-.05-5.76,1.53C182,452.6,181.38,455,178.78,454.51Z"/><path class="cls-47" d="M220.2,348.81a10.11,10.11,0,0,0-6.77,7.74,1.74,1.74,0,0,1-1.9,1.52c-1.18-.18-1.1-1.27-1.1-2.13a7.56,7.56,0,0,1,.32-3.17c1.34-2.63,1.64-5.41,2.06-8.26.83-5.64,1-5.61,5.21-9.87.65-6.06,3.41-11.28,6.54-16.34a6.22,6.22,0,0,1,2.17-4.37c.67-.57.49-1.57,1.1-2.18h0c3.16.63,2.41,3.15,2.18,5.08a68.64,68.64,0,0,1-2.16,10c-.73,2.71-1.73,5.38.18,8.29,1.23,1.89.54,3.87-2.37,3.86v-1.09a1.43,1.43,0,0,0-2-.15,1.14,1.14,0,0,0-.16.15,25.9,25.9,0,0,0-2.18,9.81Z"/><path class="cls-6" d="M110.1,237.66c0-1.2-.19-2.49,1.09-3.27C111.15,235.59,111.38,236.88,110.1,237.66Z"/><path class="cls-6" d="M107.92,240.93l1.09-1.1Z"/><path class="cls-6" d="M119.91,239.84l1.09-1.1Z"/><path class="cls-6" d="M109,238.75l1.09-1.09Z"/><path class="cls-48" d="M225.65,339c2.15-2.32,2.26-2.46.4-3.8-1.36-1-1.14-1.88-.8-3.22,1.19-4.68,2.26-9.41,3.28-14.14.44-2.07,1.1-4.25-.71-6.1l2.21-6.48c1.2.8,1.06,2.05,1.07,3.24s-.12,2.43,1.08,3.23c1.57,4.2-.09,8-.61,10.92.92-1.79,2.09-5.14,6.06-5.45-.75,8.5-1,17.08-3.55,25.4-2.39-.13-4.18-1.74-6.45-1.5C226.31,341.24,225.79,340.2,225.65,339Z"/><path class="cls-49" d="M237.63,317.2c-1.81,3-6,3.88-6.6,8.1.63-4.68-.62-9.27,1.15-13.57a6.52,6.52,0,0,1,2.16-5.44c1.79-1,2.48-.16,2.72,1.55s-.49,3.44.57,5Z"/><path class="cls-48" d="M237.63,312.85c-1.34-1-1.07-2.41-1.08-3.74,0-1.55-.46-2.67-2.21-2.82.38-2,1.37-2.49,2.68-.78,1.14,1.5.48,3.4.63,5.13C237.65,311.38,237.64,312.12,237.63,312.85Z"/><path class="cls-48" d="M223.47,337.91c.72-1.12,1.45-1.12,2.18,0Z"/><path class="cls-28" d="M212.57,527.52c-1.49,7.1-2.95,14.21-4.49,21.3a4.67,4.67,0,0,1-1.25,2.33c-1.82,1.67-2,3.74-1.9,6a24,24,0,0,1-.83,6.41c-.81,3.68-2.89,7-2.74,11a2.66,2.66,0,0,1-2.38,2.9h-.25c-1.5,0-2.1-1.16-2.51-2.46-.6-1.9-1.39-3.78-1.08-5.83,1.21-8-1.38-16.18.83-24.18a2.62,2.62,0,0,0-.11-1.59A25.15,25.15,0,0,1,194,532.23c.1-1.84-.71-3.36-2.66-3.49-3.32-.22-4.44-2.65-5.8-5-2.6-4.56-4-4.74-7.74-1.16-1,1-2.09,2-3.08,3.08-1.2,1.3-2.4,1.91-4.3,1.16a5.77,5.77,0,0,0-6.12,1.14,4.57,4.57,0,0,0-1,5.91c.5,1-.2,2.1-.56,3.12a150.59,150.59,0,0,0-5.23,16.89A5.46,5.46,0,0,1,153.7,558c.37-3.84-1.09-7.94,1.74-11.43a2.58,2.58,0,0,0,0-2.58c-.19-.5-.59-1.23-.39-1.52,4.13-6.09,1.44-13.55,4-20,.4-1,.37-2,1.55-2.6,2.71-1.32,3.3-4,4-6.6a1.41,1.41,0,0,0,.19-2,1.14,1.14,0,0,0-.19-.19v-1.09c-1.06-4.32-1.21-8.48,2.18-12h0c.37-.35.73-.72,1.09-1.09.36-7.18,5.45-11.6,10-16,4.26-4.13,9.6-1.94,13.05,2.53,8.57,11.1,6.27,23.85,6.84,36.22,0,.9,0,1.81,0,2.71.15,1.75.62,3.42,1,5.7a33.59,33.59,0,0,0,1-6.39c-.15-5.94,2.08-10.05,7.28-13.34,5.77-3.65,4.82-10.55,5.62-16.28.5-3.56,1-7.65-2.56-10.51-.7-.56-.84-2.09-.24-2.5,3.11-2.14,3.71-6.35,7-8.27-.1,2.71,1.85,5.37-.29,8.25-.52.7-.3,3.54,1.38,4.83-1.53,5.61-.83,11.48-2.05,17.16-.4,1.87-1.86,3.26-1.57,5.57s2.48,3,3,4.58c.62,1.77-2.55,2.5-2.33,4.54a5.61,5.61,0,0,0,.78,2c.79,1.44,1,2.62-.75,3.61C212.74,522.74,212.35,525,212.57,527.52Z"/><path class="cls-4" d="M216.93,470.86a2.21,2.21,0,0,0-1,1.81c.1,2.85-1,4.88-3.81,5.84-2,.68-2.1,2-.43,3,2.74,1.76,4,3.79,2.15,6.9,1.76,4.4-1.05,8.46-1,12.6.08,5.9-3.83,8.57-7.72,10.76-2.8,1.57-3.53,3.12-3.44,5.87.14,4.52-1,8.84-2.22,14.15-3-4.54-3.73-8.7-3.05-12.84a31.61,31.61,0,0,0-.11-8.47c-.53-5.48-.79-11-1.14-16.5-.08-1.26.28-2.9-.89-3.54-3.34-1.81-4.57-4.79-5.48-8.2-.54-2-1.93-2.25-4.18-2.06-3.93.33-7,1.37-8.66,5.12a2,2,0,0,1-.59.9c-4.16,2.44-6,6.47-7.46,10.77-.12-3.64,1.1-7.27,0-10.9.74-6.21,4.31-11.47,5.75-17.5,1.16-4.84,3.4-9.42,5.16-14.11,1.72-.65,2.2-2.31,3-3.71,1.53-2.76,4.39-3,7-3.5a2.67,2.67,0,0,1,2.94,2c.64,2.6,2.81,3.57,4.67,5,2.32,1.76,4.23,3.61,3.27,7.21-.86,3.24.2,6.4,2.48,9.05,1.26,1.46,2.41,1.37,3.62.07a10.4,10.4,0,0,0,2.55-5.83c1.83-11.87,3.83-23.73,5.8-35.58,0-.3.46-.54.7-.8.21,1.7-.75,4,2.18,4.35a1.94,1.94,0,0,1,1.47,1.39c.5,2.94.46,3,2.89,1.88.27,4.41-1.78,8.63-1.1,13.07h-1.08c-1-.86-1.9-.4-2.75.32,1,.79,1.73-1.15,2.75-.32.15,1.5-.51,3.22,1.09,4.36-3.08,3-1,7.1-2,10.61C217.6,466.17,217.35,468.58,216.93,470.86Z"/><path class="cls-5" d="M221.29,436c-1.59,1.24-2.2,3.87-5.12,3.48-1.17-2.37,3.44-4.26.76-6.76a4,4,0,0,1,1.25-2.85c1.18-1.17,2.42-1.26,2.79.44S222.38,434,221.29,436Z"/><path class="cls-50" d="M224.56,318.3c-1.29,5.8-3.8,11.12-6.54,16.34-2.44-2.56-.86-5.3.23-7.5,2.07-4.16,1.67-8.73,3.35-12.9-5.47-1-5.87,3.63-7.93,6.24-.8-3.28,1.27-5.86,2.17-8.72,2.16-1,4.33-1.92,4.82-5.33,2.79,3.4,1.23,6.73,1.73,9.7C222.45,317.52,221.89,319.52,224.56,318.3Z"/><path class="cls-48" d="M227.82,311.75a2.18,2.18,0,0,1-1.1,2.18A2.27,2.27,0,0,1,227.82,311.75Z"/><path class="cls-51" d="M154.79,888.22a3.86,3.86,0,0,0-.74.77c-.65,1.18-.53,3.34-2.41,3.06s-2.1-2.2-2.3-3.84c-.27-1.83.73-3.92-1.09-5.44-.62-.7-1.22-1.79-1-2.42,3-7.66-4.22-14-2.76-21.36a6.42,6.42,0,0,0-1-1.18,11.12,11.12,0,0,1-1-1.25,4.85,4.85,0,0,1-.19-1.65,9.34,9.34,0,0,0-.87-7.29c-4.5-7.28-2.81-15.76-4.37-23.61-.48-2.45,1.6-4.45,4.15-4.93s3.45,1.53,4.2,3.41c.32.8,0,1.81.69,2.52h0c1.33,3.93,1.84,8.09,3.27,12a104.71,104.71,0,0,1,6.25,22.57,95.16,95.16,0,0,1,1.4,13.89C157.16,878.54,157,883.52,154.79,888.22Z"/><path class="cls-52" d="M146.08,825c-1.1-.6-1-1.88-1.5-2.76-.76-1.21-1.72-2.85-3.29-2.2-1.76.72-4.06,2.19-3.43,4.29,1.22,4.07.21,8.21,1.21,12.33.88,3.63,1.08,7.34,3.32,10.58,2,2.94.85,6.22.42,9.37a.61.61,0,0,1-1.09,0c1.17-5.75-2.62-10.33-3.82-15.51a10.49,10.49,0,0,1-.58-4c.66-4.57-.84-9-1.12-13.46-.1-1.68-1.4-2.34-2.56-3.25-3.21-2.5-3.52-6.52-.67-9.66,1.12-1.24.64-1.92-.3-2.59-4.12-3-4.6-3.94-3-8.93.77-2.39,2.19-4.22-2-4.53-2-.14-.47-3.47-2.3-4.5-2.31-3.08-1.14-6.9-2.09-10.33-.57-2.07,2.11-3,4.09-3.42,2.38-.3,3.61,1,4.55,3a153,153,0,0,1,8.85,21.93c.44.94.16,2.13.95,3h0c1.46,2.34,1.32,5.13,2.18,7.64h0C143.61,816.47,146.35,820.49,146.08,825Z"/><path class="cls-26" d="M172.23,861c1.16-.66,2-3.16,3.68-.44,1,1.62,2.29,1.41,3.64.28a4,4,0,0,1,4.59-.38c1.18.56,2.51,1.21,1.61,2.81-1.09,1.93.93,3.28.82,5-2.61,1.12-4.6-.26-6.94-1.92-1,3.31-1.32,6.36-3,8.85-2.68-.59-3.35-2.25-2.57-4.73.32-1,.55-2.66-.88-2.4-4.2.73-3-1.45-2.19-3.55C171.38,863.3,171.81,862.14,172.23,861Z"/><path class="cls-52" d="M149.35,837c-2.34-3.66-3-7.78-3.27-12C148.4,828.67,149,832.8,149.35,837Z"/><path class="cls-53" d="M140.62,802.14c-2-3.76-4.48-7.27-4.85-11.72a4.31,4.31,0,0,0-1.24-2.91c-2.6-1.89-3.26-4.62-3.73-7.47a3.16,3.16,0,0,0-3.26-3l-.74-.29c-1.88-1.56-1.46-3.86-1.92-5.88a11.6,11.6,0,0,1-.48-4.68c.61-3.06,3.77-5,3.69-8.37-2.46-5.59-2.77-11.92-6.48-17.15-1.9-2.66,1.19-6.32-.61-9.4-.36-2.18-.73-4.35-1.09-6.53a4.21,4.21,0,0,0,0-4.61,11.22,11.22,0,0,1-.82-11c3.71-7.1,1.23-14.07,1.07-21.1a42.91,42.91,0,0,1,.33-9.2c.34-1.72.16-4.1,2.34-4.46,2.38-.39,2.44,2.15,3.3,3.64,4,7,4,15.18,6.57,22.6C134.9,707,138.17,713,138.38,720c.06,1.79.66,3.54-.15,5.3-.3.66-.76,1.75-.26,2,5.26,2.91,3.26,8.49,4.83,12.73,0,1.2-.18,2.49,1.08,3.28v2.16c-1.91,2.18,2.41,4.36,0,6.55h0a2.5,2.5,0,0,0,0,3.27h0c.67,5.61,2.25,11.16,1.07,16.89-.51,2.45-1.3,4.59-4.31,4.67-2.11.06-3.05,1.23-2.56,3.16,1.27,4.92-.36,10.08,1.31,14.94.79.79.42,2.07,1.21,2.86,0,.35,0,.71,0,1.07A2.69,2.69,0,0,1,140.62,802.14Z"/><path class="cls-54" d="M139.53,795.6c-1.64-1.88-1.78-4.32-2.05-6.54-.4-3.19-.32-6.4-1.06-9.62s.49-4.28,3.94-3.71c2,.34,2.93-.64,3.48-2.46a24.14,24.14,0,0,0,.44-10.46c-.36-2.54-.23-5-.39-7.53,2.27,7.43,3.88,14.88,0,22.31-.43.82-1,1.6-.27,2.42,2.36,2.49,1,6.16,3.14,9,1.57,2-.09,3.64-4,4.45l-1.9-5.15c-2.36,1.88-1,4.28-1.37,6.25.3.24.39.48.29.73S139.63,795.6,139.53,795.6Z"/><path class="cls-26" d="M190.76,881.54c-1.33,0-9.33-6.31-9.44-7.27a1.86,1.86,0,0,1,.93-1.8c1-.68,2.28-.8,2.93.11,1.61,2.28,3.1,4.08,6.43,3.39,1-.21,2.44,1.35,2,3.15S191.84,881.17,190.76,881.54Z"/><path class="cls-20" d="M143.88,812a16.53,16.53,0,0,1-2.17-7.64C144.23,806.35,143.9,809.19,143.88,812Z"/><path class="cls-20" d="M140.62,802.14v-3.27c1.83,1.52.83,3.61,1.09,5.45A2.29,2.29,0,0,1,140.62,802.14Z"/><path class="cls-20" d="M139.53,795.6c0-.37,0-.73,0-1.09,1.28.79,1.05,2.08,1.07,3.28A2.29,2.29,0,0,1,139.53,795.6Z"/><path class="cls-55" d="M142.8,740c-1.91-1.62-1.1-4.07-1.74-6.09-1.45-4.56-1.2-4.64-5.58-4.86a3.14,3.14,0,0,1,.75-3c1.4-1.9,2-3.71.54-5.88a2.45,2.45,0,0,1-.24-2.06c1.4-2.89.8-5.25-1.58-7.27.12-6.16-5.88-10.77-4.35-17.34.21-.91-.57-2.05-.88-3.08-1.63-5.27-4.73-9.9-6.56-15.22A23.49,23.49,0,0,0,121.54,687a46.62,46.62,0,0,1,.45,9.14c-.27,2.66,2.59,4.33,1.91,6.53s-3,3.35-3.5,5.84a25.42,25.42,0,0,0,0,10.74c.46,1.94,1.24,3.85-.53,5.55-.16-1.5.5-3.21-1.1-4.36a1,1,0,0,1-1.43,0l0,0a4.29,4.29,0,0,1-.72-1.47,39.89,39.89,0,0,0-1.06-5.63c-.73-11.12-1.88-22.25.3-33.34a7.84,7.84,0,0,0-1.46-6.64c-1-1.29-2.08-2.74,0-4.08.37-3.63.73-7.27,1.1-10.9,1.66-1.42,1-3.36,1.06-5.1.07-5.45,0-10.9,0-16.34,0-1.09,0-2.18,0-3.27s.25-2.29,1.75-2.18c1.1.08,1.4,1,1.42,2,0,2,0,4,0,6,0,4.67-.47,9.42,1.78,14,2.06.12,1.83-2.4,3.27-3,1.53.6,1.58,1.8,1.16,3.12-.28.87-.78,1.77-.18,2.59,3,4.17.86,8.45.08,12.56-.61,3.2.13,5.33,2.29,7.72,3.15,3.49,4.6,7.53,3.33,12.62a15.93,15.93,0,0,0,1.68,11,46.08,46.08,0,0,1,4.3,10.9c1.46,6.22,5.36,11.9,4.15,18.76-.51,2.94,1,5.65,2.11,8.32A2.29,2.29,0,0,0,142.8,740Z"/><path class="cls-24" d="M142.26,630.67c-1.35-2.72-1-7,.42-7.92a1.76,1.76,0,0,1,1.47.08,1.31,1.31,0,0,1,.58,1.78l0,.07A17.51,17.51,0,0,0,142.26,630.67Z"/><path class="cls-4" d="M166.78,498.1c-2.44,3.69-2.32,7.84-2.18,12C162.43,504.54,163,501.31,166.78,498.1Z"/><path class="cls-37" d="M153.67,508.73l-.38-.31c.14-.08.3-.23.43-.22s.26.19.38.29Z"/><path class="cls-4" d="M164.6,511.18c1.12.72,1.12,1.45,0,2.18Z"/><path class="cls-31" d="M114.46,643c-.75-.37-.75-.73,0-1.09Z"/><path class="cls-4" d="M167.87,497l-1.08,1.09Z"/><path class="cls-22" d="M143.89,752c-.14-.88,0-2-.48-2.56-1.63-1.67-.93-2.82.47-4a3.33,3.33,0,0,0,2.19,3.29A3.29,3.29,0,0,1,143.89,752Z"/><path class="cls-54" d="M143.89,755.27c-1.4-1.08-1.4-2.18,0-3.27Z"/><path class="cls-38" d="M114.46,669.19a1.92,1.92,0,0,0,.52,2.68l.11.08c3,2.27,3.35,5.5,2.22,8.7-2,5.72-.84,11.48-.78,17.24,0,5.32.07,10.65.11,16,1.28,1.64-.25,3.83,1.09,5.45v1.09a6.3,6.3,0,0,1,1.09,1.1v8.71a3.83,3.83,0,0,1-1.09,3.27c-3.35-.77-3.25-3.46-3.26-6a24.66,24.66,0,0,0-4.16-13.23c-.7-1.1-1.19-2-2.89-1.83-3,.34-6.07,2.78-9.22,0-.67-.6-1.47.78-2.13,1.32a4.56,4.56,0,0,1-6.44-.59,4.49,4.49,0,0,1-1-2.44c-.57-4.4-2.7-8.62-1.6-13.24.38-1.58-.69-2.68-1.79-4.08-1.9,1.73-1.61,4.09-2.35,6-1.49,3.8-3.34,7.12-7.13,9.2-1.7.93-2.66.52-3.74-.67-1.53-1.66-2-3.8-2.72-5.86-1-2.89-2.13-5.63-5-7.66a9.5,9.5,0,0,0-2.07,5.11c-.25,2.26-1.59,3.47-3.34,4.63-2.29,1.51-3.67.2-5.14-1.26-1-1-2.3-.94-3.58-1,0-6.15-1.31-12.17-1.82-18.26s-.26-12.32-.3-18.49a2.16,2.16,0,0,1,2.32-2.42,19,19,0,0,0,2.71-.18c3.56-.69,6.31-2.28,7.85-5.9,1.14-2.65,2.88-2.62,4-.09a14.56,14.56,0,0,1,1.6,6.82,9.37,9.37,0,0,0,.58,4.8c.86,1.82,2.08,2.56,3.88,1.46,3.83-2.34,8.11-4.22,9.77-8.93.47-1.33,1.24-2.35,2.73-2.13,1.74.25,1.59,1.79,1.51,3a29.91,29.91,0,0,0,2,11.69c1.06,3.09,2.9,4.4,5.88,4.65s4.36-1.72,4.93-4.07c.54-2.19,2.33-3.66,2.73-5.88a1.82,1.82,0,0,1,2-1.65,1.57,1.57,0,0,1,.43.09c1.4.5,2.17,2,1.37,3.07-3.8,5-.33,8.87,1.64,13,1,2.1,2.38,2.32,3.67.5,2-2.82,5.14-5.29,2.89-9.61C111.78,671.88,111.7,669.57,114.46,669.19Z"/><path class="cls-35" d="M125.36,766.17a7.35,7.35,0,0,0,1.09,4.36c-.78,2.37-1.5,4.73,1.09,6.54h0c-.51.86-1.42,1-2.26,1.27-1.14.4-2,1.18-1.09,2.4,2.1,3,.76,6.27,1.16,9.4a2.22,2.22,0,0,1-1.09,2.18c-1.76-5.41-2.86-10.86-1.12-16.52,1-3.25-1.38-5.71-2.14-8.54,1.11-3.16.61-6.41.33-9.6-.14-1.68-.45-3.2.75-4.57a.52.52,0,0,1,.6-.44.58.58,0,0,1,.22.08c.61-.27.11-1,.57-1.37,1.45-3-.64-5.44-1.39-8.08h0c-.35-.38-.71-.74-1.08-1.09h0c-.36-.37-.72-.74-1.09-1.09h0a2.66,2.66,0,0,1,0-3.27c.37-.35.73-.72,1.08-1.09v-5.45c.56,6,3.51,11.17,5.36,16.72,1.17,3.48,3,6.79,3.36,10.52C126.72,760.2,124.11,762.08,125.36,766.17Z"/><path class="cls-33" d="M123.18,753.09h-1.09c-1.79-3.26.2-6.53,0-9.8a12.62,12.62,0,0,1,3.2,4.84c.74,2.28.25,4-2.12,5Z"/><path class="cls-33" d="M122.09,753.09c0,3.4,0,6.81,0,10.22,0,1.4.28,2.91-1.08,4-.43-3.77.9-7.65-1.56-11.34C118.25,754.15,120.39,753.33,122.09,753.09Z"/><path class="cls-32" d="M117.73,733.48c0-1.2-.2-2.49,1.09-3.27C120.61,732,120.05,733,117.73,733.48Z"/><path class="cls-33" d="M119.91,737.84v3.26Q117.81,739.48,119.91,737.84Z"/><path class="cls-32" d="M118.82,721.49l-1.09-1.1h1.09Z"/><path class="cls-33" d="M121,736.75l-1.09,1.09Z"/><path class="cls-33" d="M119.91,741.11,121,742.2Z"/><path class="cls-33" d="M121,742.2l1.09,1.09Z"/><path class="cls-35" d="M123.18,793.41v2.18C122.06,794.87,122.06,794.14,123.18,793.41Z"/><path class="cls-35" d="M123.18,795.59a2.26,2.26,0,0,1,2.18,1.09A2.22,2.22,0,0,1,123.18,795.59Z"/><path class="cls-35" d="M124.27,792.32l-1.09,1.09Z"/><path class="cls-35" d="M125.36,796.68l1.09,1.09Z"/><path class="cls-52" d="M143.89,857.71c2.29,1,2.37,3,2.15,5a10.9,10.9,0,0,0,4.05,10c1.13,1,2,2.28.51,3-3.57,1.62-1.95,4.57-2.35,7h-1.09v-1.09c-1.15-4.3-3.65-8.26-3.25-12.94a14,14,0,0,1,.11-1.44c.1-.66.49-1.34-.12-2V858.8c-.34-.24-.45-.49-.34-.73S143.79,857.71,143.89,857.71Z"/><path class="cls-39" d="M126.45,887.13c-1.2,0-2.49-.19-3.27,1.09-1.56-1.11-1-3.79-3.27-4.36.24-1.39-.37-4.07,2.39-2.29a5.14,5.14,0,0,0,5.62.12c.6,2.08-.69,4,.71,5.44Z"/><path class="cls-39" d="M145,867.52a10.28,10.28,0,0,0,1,7,12.16,12.16,0,0,1,1.18,7.19c-.7-.15-1.67-.18-1.8-1-.55-3.39-2.54-6.41-2.55-9.93.15-1.5-.52-3.21,1.09-4.35l.5.2A2.29,2.29,0,0,0,145,867.52Z"/><path class="cls-39" d="M137.35,889.31c0,.34,0,.7,0,1-.14,4.17-.14,4.17-4.36,3.31,0-1.19-.2-2.48,1.09-3.26C136,892.52,136.2,889.5,137.35,889.31Z"/><path class="cls-39" d="M128.63,889.31v-2.18C129.75,887.86,129.74,888.58,128.63,889.31Z"/><path class="cls-36" d="M141.71,856.62h1.09l.41.54-.41.55Z"/><path class="cls-36" d="M143.89,857.71v1.09l-1.09-1.09h0a.71.71,0,0,1,1-.09Z"/><path class="cls-36" d="M143.89,865.34l1.09,1.08a.71.71,0,0,1-1,.09l-.08-.09h0Z"/><path class="cls-39" d="M130.81,892.58l-1.09-1.09Z"/><path class="cls-39" d="M131.9,893.67l-1.09-1.09Z"/><path class="cls-39" d="M123.19,889.3l1.07,1.11Z"/><path class="cls-39" d="M147.16,882.77l-.4,1.42c-1-.8,0-1,.4-1.42Z"/><path class="cls-39" d="M208.21,323.74c.17,1.54.85,2.08,1.8.59s1.7-2.79,3.64-2.78c.06,2.5.84,5-.16,7.5-.69,1.72-6.54,3.78-7.91,2.64-1.1-.91-.51-2.37-.64-3.59Z"/><path class="cls-39" d="M212.57,311.76c-.87,3-1.42,6.1-3.27,8.72C209.4,317.2,209.46,313.91,212.57,311.76Z"/><path class="cls-39" d="M209.3,320.48c0,1.2.19,2.48-1.09,3.26C208.24,322.54,208,321.26,209.3,320.48Z"/><path class="cls-7" d="M93.52,369.44c1.77,1.88,3.16,3.22,3.54,5.27.15.81.81,1.83-.47,2.25a2.17,2.17,0,0,1-2.49-.64C92.7,374.48,92.15,372.47,93.52,369.44Z"/><path class="cls-7" d="M98.11,356.44A20.11,20.11,0,0,0,97,364.06c-1.22.43-1.08,2.35-3,2.42-.53-3,.91-5.78,1.41-8.61C95.62,356.8,97,356.51,98.11,356.44Z"/><path class="cls-32" d="M97.81,432.08l.91.39c-.13.3-.2.78-.41.86s-.59-.21-.9-.34Z"/><path class="cls-5" d="M219.11,449.06c-.83.51-1,1.41-1.36,2.2a1.61,1.61,0,0,1-2.12.82l-.12-.06a2.4,2.4,0,0,1-1.63-1.93,1.53,1.53,0,0,1,1-1.92,1.22,1.22,0,0,1,.26-.06c1.4-.2,3.42-2.47,4,.95Z"/><path class="cls-52" d="M143.89,857.71H142.8v-1.09Z"/><path class="cls-33" d="M125.36,766.17c-.69-.13-1.64-.18-1.71-1-.39-5,1-6.47,6.07-6.64C129.23,761.64,126.7,763.56,125.36,766.17Z"/><path class="cls-33" d="M127.54,777.07c-2.66-1.72-2.85-2.86-1.09-6.54C126.43,772.77,126.24,775,127.54,777.07Z"/><path class="cls-32" d="M117.73,719.31c-1.82-1.52-.82-3.61-1.09-5.45C118.46,715.39,117.46,717.48,117.73,719.31Z"/><path class="cls-53" d="M123.18,753.09c.15.09.44.2.43.25C123.53,753.71,123.36,753.62,123.18,753.09Z"/><path class="cls-34" d="M143.89,866.43H145v1.09Z"/><rect class="cls-1" x="1006.96" y="152.14" width="482.73" height="521.19"/></svg>