<svg xmlns="http://www.w3.org/2000/svg" width="22.207" height="25.379" viewBox="0 0 22.207 25.379"><defs><style>.a{fill:#ee7600;}</style></defs><path class="a" d="M19.828,3.172H17.448V.595A.6.6,0,0,0,16.854,0h-.4a.6.6,0,0,0-.595.595V3.172H6.345V.595A.6.6,0,0,0,5.75,0h-.4a.6.6,0,0,0-.595.595V3.172H2.379A2.38,2.38,0,0,0,0,5.552V23a2.38,2.38,0,0,0,2.379,2.379H19.828A2.38,2.38,0,0,0,22.207,23V5.552A2.38,2.38,0,0,0,19.828,3.172ZM2.379,4.759H19.828a.8.8,0,0,1,.793.793V7.931H1.586V5.552A.8.8,0,0,1,2.379,4.759ZM19.828,23.793H2.379A.8.8,0,0,1,1.586,23V9.517H20.621V23A.8.8,0,0,1,19.828,23.793ZM7.336,15.862H5.353a.6.6,0,0,1-.595-.595V13.285a.6.6,0,0,1,.595-.595H7.336a.6.6,0,0,1,.595.595v1.983A.6.6,0,0,1,7.336,15.862Zm4.759,0H10.112a.6.6,0,0,1-.595-.595V13.285a.6.6,0,0,1,.595-.595h1.983a.6.6,0,0,1,.595.595v1.983A.6.6,0,0,1,12.095,15.862Zm4.759,0H14.871a.6.6,0,0,1-.595-.595V13.285a.6.6,0,0,1,.595-.595h1.983a.6.6,0,0,1,.595.595v1.983A.6.6,0,0,1,16.854,15.862Zm-4.759,4.759H10.112a.6.6,0,0,1-.595-.595V18.043a.6.6,0,0,1,.595-.595h1.983a.6.6,0,0,1,.595.595v1.983A.6.6,0,0,1,12.095,20.621Zm-4.759,0H5.353a.6.6,0,0,1-.595-.595V18.043a.6.6,0,0,1,.595-.595H7.336a.6.6,0,0,1,.595.595v1.983A.6.6,0,0,1,7.336,20.621Zm9.517,0H14.871a.6.6,0,0,1-.595-.595V18.043a.6.6,0,0,1,.595-.595h1.983a.6.6,0,0,1,.595.595v1.983A.6.6,0,0,1,16.854,20.621Z"/></svg>