<svg xmlns="http://www.w3.org/2000/svg" width="28.313" height="28.313" viewBox="0 0 28.313 28.313"><defs><style>.a{fill:#ee7600;}</style></defs><path class="a" d="M22.157,8A14.156,14.156,0,1,0,36.313,22.156,14.154,14.154,0,0,0,22.157,8Zm12.33,14.156a12.33,12.33,0,1,1-12.33-12.33A12.329,12.329,0,0,1,34.486,22.156Zm-8.5,5.04-4.635-3.368a.689.689,0,0,1-.28-.554v-9.11a.687.687,0,0,1,.685-.685h.8a.687.687,0,0,1,.685.685v8.351l4.024,2.928a.685.685,0,0,1,.148.959l-.468.645a.69.69,0,0,1-.959.148Z" transform="translate(-8 -8)"/></svg>