<svg xmlns="http://www.w3.org/2000/svg" width="26.357" height="26.357" viewBox="0 0 26.357 26.357"><defs><style>.a{fill:#ee7600;}</style></defs><path class="a" d="M21.179,8A13.179,13.179,0,1,0,34.357,21.179,13.176,13.176,0,0,0,21.179,8ZM32.657,21.179A11.478,11.478,0,1,1,21.179,9.7,11.478,11.478,0,0,1,32.657,21.179Zm-7.913,4.692-4.315-3.135a.642.642,0,0,1-.26-.515V13.739a.64.64,0,0,1,.638-.638h.744a.64.64,0,0,1,.638.638v7.774l3.746,2.726a.637.637,0,0,1,.138.893l-.436.6a.642.642,0,0,1-.893.138Z" transform="translate(-8 -8)"/></svg>