<svg id="Layer_1" data-name="Layer 1" xmlns="http://www.w3.org/2000/svg" viewBox="0 0 547.18 465.08"><defs><style>.cls-1{fill:#255fd3;}.cls-2{fill:#fff;}.cls-3{fill:#1f328d;}.cls-4{fill:#8fb6eb;}.cls-5{fill:#f5f0b8;}.cls-6{fill:#2660d3;}.cls-7{fill:#f9fbfd;}.cls-8{fill:#fdfdf8;}.cls-9{fill:#c0d1f3;}.cls-10{fill:#c8d7f4;}.cls-11{fill:#f9fafb;}.cls-12{fill:#eff3fc;}.cls-13{fill:#c6e2f0;}.cls-14{fill:#8da1ce;}.cls-15{fill:#133595;}.cls-16{fill:#18308a;}.cls-17{fill:#22368c;}.cls-18{fill:#c0d7ed;}.cls-19{fill:#1f328c;}.cls-20{fill:#153797;}.cls-21{fill:#fbfbfc;}.cls-22{fill:#fbfafb;}.cls-23{fill:#eff5fc;}.cls-24{fill:#f5f1f4;}.cls-25{fill:#396cd7;}.cls-26{fill:#f6f9fd;}.cls-27{fill:#3067d5;}.cls-28{fill:#163c9f;}.cls-29{fill:#ecece3;}.cls-30{fill:#2761d3;}.cls-31{fill:#4c606c;}.cls-32{fill:#062a8f;}.cls-33{fill:#4b5f6d;}.cls-34{fill:#21408b;}.cls-35{fill:#1d3c8e;}.cls-36{fill:#394f73;}.cls-37{fill:#3d5572;}.cls-38{fill:#2159ca;}.cls-39{fill:#ef6b1f;}.cls-40{fill:#ef6c21;}.cls-41{fill:#ef6c20;}.cls-42{fill:#f06d22;}.cls-43{fill:#f07027;}.cls-44{fill:#f06d23;}.cls-45{fill:#f06e23;}.cls-46{fill:#6767d5;}.cls-47{fill:#f6a779;}.cls-48{fill:#5265d5;}.cls-49{fill:#3267d5;}.cls-50{fill:#5e81dc;}.cls-51{fill:#4c7bdb;}.cls-52{fill:#6e92e1;}.cls-53{fill:#133693;}.cls-54{fill:#203e8c;}.cls-55{fill:#22418a;}.cls-56{fill:#1e3d8d;}.cls-57{fill:#1b3a90;}.cls-58{fill:#1c3d8e;}.cls-59{fill:#fefdf8;}.cls-60{fill:#fdfdf7;}.cls-61{fill:#fdfdf6;}.cls-62{fill:#fdfdf5;}.cls-63{fill:#f7f2f3;}.cls-64{fill:#e3edfa;}.cls-65{fill:#feffff;}.cls-66{fill:#bed4f3;}.cls-67{fill:#5389de;}</style></defs><path class="cls-1" d="M390,50.31c0,2.35.14,4.7.14,7,0,2.16.9,3.35,3.16,3.55q12.17,1.05,24.3,2.24c9.18.9,18.34,1.88,27.52,2.78s18.35,1.74,27.52,2.63c9.9,1,19.78,2,29.68,2.91,3.6.32,7.23.21,10.85.38a325.06,325.06,0,0,1,34,3.26V275.58a1.15,1.15,0,0,1-1.48.11c-1.14-.9-1.23-2.2-1.34-3.47a1.66,1.66,0,0,0-1-1.35c-4.49,3.94-6.25,9.62-9.4,14.38-12.29,18.63-25.08,36.58-44.79,48.52s-40.77,17.55-63.62,15.14c-9.7-1-18.79-4.92-27.18-10.1-2.84-2.74-6.16-4.9-9-7.68-1.51-1.49-2.76-2.81-2.15-5.08a79.26,79.26,0,0,0,.24-9.25q0-122.7,0-245.41c0-5.81.58-11.58.64-17.38C388.1,52.56,387.54,50.56,390,50.31Z"/><path class="cls-1" d="M547.18,439c-14-1.47-28.17-2.45-42.12-4.52-17.23-2.56-34.57-3.62-51.85-5.44-13.32-1.41-26.63-2.93-39.9-4.87-8.94-1.3-18-1.74-27-2.61-9.37-.91-18.72-2.17-28.11-2.73-7.45-.45-14.61-2.45-22.52-3,1.83-4.3.86-8.62,1.39-12.84,1.86-2,4.34-1.5,6.63-1.5,11.75-.06,23.51,0,35.26-.06,7.26,0,8.42-1.27,8.55-8.61.19-11.37-.39-22.76.31-34.13a3.66,3.66,0,0,1,1-1.57c2.23-.92,3.79.71,5.49,1.57,17.43,8.75,36,11.12,55.21,10,3-.18,6-1.2,9-1.95a12.93,12.93,0,0,0,3.84-.83,6.65,6.65,0,0,1,1.39-.31,7.79,7.79,0,0,0,3.21-.82,5.88,5.88,0,0,1,1.22-.3,8.28,8.28,0,0,0,2.28-.82,5.75,5.75,0,0,1,1.16-.27,9.08,9.08,0,0,0,2.17-.83,6.12,6.12,0,0,1,1.12-.28,6.13,6.13,0,0,0,1.6-.63,5.28,5.28,0,0,1,1.07-.45c.54-.21,1-.53,1.58-.76a4.87,4.87,0,0,1,1.13-.32,5.25,5.25,0,0,0,1.62-.63A5.78,5.78,0,0,1,483,359c.35-.17.7-.35,1-.55a5.47,5.47,0,0,1,1.07-.5,10.16,10.16,0,0,0,1-.53,4.94,4.94,0,0,1,1-.51,8.51,8.51,0,0,0,1-.48,6,6,0,0,1,1-.54,5.65,5.65,0,0,0,1-.44,10.61,10.61,0,0,1,.88-.61,8.72,8.72,0,0,1,.87-.63,4.94,4.94,0,0,1,.93-.57,8.69,8.69,0,0,0,1-.63c.31-.27.62-.51.94-.76a5.07,5.07,0,0,1,1.1-.69,8.47,8.47,0,0,0,1.3-.49c13.14-8.11,25.84-16.75,36.24-28.36,3.38-3.77,6.5-7.77,9.92-11.51,1.14-1.24,2-2.67,4-1.79Z"/><path class="cls-2" d="M545.91,271.31c.12,1.38.24,2.75.37,4.13.53.68.16,1.72.9,2.32v24c-1.23,8.44-7.43,13.73-12.59,19.61-11,12.5-24.16,22.23-38.47,30.52l-1.17.85a18.45,18.45,0,0,0-1.73,1.14,9.1,9.1,0,0,0-1.68,1c-.55.33-1.05.75-1.59,1.08l-1.17.47c-.35.23-.7.45-1.06.66s-.77.29-1.15.45-.69.44-1.05.65-.76.28-1.14.44-.68.44-1,.64-.75.28-1.12.43-.68.43-1,.62a7.71,7.71,0,0,1-1.15.28,6.83,6.83,0,0,0-1.56.82c-.56.2-1.16.26-1.71.48a5.46,5.46,0,0,1-1.62.76l-1.2.18a16.8,16.8,0,0,0-1.65.81c-.41.09-.81.16-1.23.21-.85.1-1.5.72-2.3.94l-1.28.2a11.11,11.11,0,0,1-2.5,1,11.49,11.49,0,0,0-2.18.26,6.06,6.06,0,0,1-3.07.87c-23.89,5.3-46.39.87-68-9.63-22.43-11.1-33.9-29.5-35.78-54.12-.22-3-1.12-4.25-4.07-4.41-2.17-.12-4.63-.55-5.43-2.88-.87-2.52,1.53-3.86,3-5.33,3.2-3.2,6.23-6.59,9.74-9.49,2.15-1.77,4.27-2,6.37-.21,4.64,4,9.46,7.85,14.13,11.84,1.23,1,2.59,2.28,2,4.15s-2.44,2-4.09,2c-4.89-.07-4.68,2.6-3.49,6.08,4.63,13.54,12.14,24.95,24.17,33.07,23.72,15,48.47,13.8,73.5,4.22,23.11-8.84,40.48-24.65,54.13-45.11,5.71-8.55,10.67-17.57,16.75-25.88A3,3,0,0,1,545.91,271.31Z"/><path class="cls-3" d="M494.7,351.76c6.4-4.41,12.93-8.64,19.17-13.27a121.11,121.11,0,0,0,33.31-36.76v7.63q-8.35,9.21-16.72,18.43c-7.48,8.28-16.6,14.49-26,20.35-2.73,1.71-5.2,3.95-8.39,4.9A1.56,1.56,0,0,1,494.7,351.76Z"/><path class="cls-4" d="M547.18,277.76a2,2,0,0,1-.9-2.32,2.53,2.53,0,0,0,.9.14Z"/><path class="cls-1" d="M329.23,234.73V406.31c0,8-.56,8.39-8.29,7.43-12.22-1.51-24.48-2.79-36.7-4.28-12.95-1.58-25.88-3.35-38.83-4.93-7.91-1-15.85-1.72-23.78-2.56-.9-.1-1.82-.08-2.71-.19-6-.78-6.34-1.11-6.34-7.07q-.08-142.17-.17-284.34a13.91,13.91,0,0,1,2.63-8.61c11.9-16.47,23.8-32.94,35.52-49.55,2.4-3.4,5.19-4.76,9.2-4.31q14,1.55,28.1,3c9,.88,18.05,1.64,27.07,2.48,3.79.35,7.57.78,11.36,1.14a2.87,2.87,0,0,1,2.91,2.84,1.7,1.7,0,0,1,0,.39c0,1.64,0,3.27,0,4.9V234.73Z"/><path class="cls-1" d="M198.51,401.66c-15.43-2-30.81-4.29-46.36-5.35-14.26-1-28.58-2.13-42.67-4.45-10.58-1.74-21.23-2.32-31.81-3.77-9.14-1.26-18.4-1.7-27.6-2.5-11.2-1-22.3-2.58-33.35-4.61-.27-.05-.48-.48-.93-1,6.05-7.54,11.5-15.59,17.16-23.49Q52.6,329.1,72.27,301.7,96.65,267.64,121,233.52q21.67-30.33,43.37-60.62c9.81-13.73,19.48-27.54,29.38-41.2a18.55,18.55,0,0,0,3.67-11.58c-.15-30.31-.09-60.62,0-90.93,0-2.11-.63-4.4,1-6.25a3.87,3.87,0,0,1,1,2.46c.08,1.45.06,2.9.06,4.35q.65,149.54.55,299.07,0,32.82,0,65.63C199.94,396.91,200.58,399.58,198.51,401.66Z"/><path class="cls-5" d="M337.19,400.88c-.07-2-.22-4-.22-6,0-30.84-.5-61.69.11-92.5,1.1-55.12.09-110.24.69-165.36.31-28.83.1-57.67.29-86.5,0-.72,0-1.45,0-2.18-.1-4.5-.14-4.64-4.45-5Q313.35,41.62,293.06,40l-41.65-3.42c-.32,0-.62-.33-.93-.51,2-2,4.46-1.2,6.72-1.21q50.39-.09,100.78,0c4.91,0,9.77-.63,14.67-.67,3.56,0,5,1.37,5,4.74,0,.91,0,1.82,0,2.72V282.29a29.26,29.26,0,0,1-.14,3.24c-.93,3.44-2.93,3.17-5.26,1.44s-4.6-4.08-7-6c-1.76-1.39-3.38-2-5.26-.15-4.42,4.29-8.81,8.61-13.09,13-2.38,2.46-1.4,4.13,1.69,4,6-.18,7.34,3,7.79,8.29a60.3,60.3,0,0,0,19,39.66c1.54,1.47,3.37,2.93,2.55,5.56-.6,14.29-.1,28.58-.26,42.86-.09,7.41-.31,7.66-7.64,7.67-9.05,0-18.09,0-27.14,0C341,401.93,338.87,402.41,337.19,400.88Z"/><path class="cls-6" d="M378.27,33.8c1.41,1.74.93,3.81,1,5.76.06,5.08,0,10.16,0,15.23.06,4.65.28,4.82,4.94,5.1.9.06,1.81,0,2.72,0,1.49,1.48,1.08,3.39,1.08,5.16,0,86.25.12,172.49-.05,258.73-1.16,4-3,2.17-4.36.3a68.56,68.56,0,0,1-7.33-12c-.23-3.76,1.81-7.85-1.61-11.15,0-3.31,2.46-2.47,4.28-2.38,1.43.08,3,.83,3.72-1.05s-.95-2.48-2-3.44c-2-1.78-4.62-3.23-3.59-6.66.17-82,0-163.88.11-245.8C377.17,39,376.31,36.19,378.27,33.8Z"/><path class="cls-1" d="M200.59,121c3.51-2.06,4.3-6.42,7.4-8.82,2,1.94,1.21,4.44,1.22,6.7q.09,38.6,0,77.19,0,98.48,0,197c0,2.53.35,5.09-.44,7.57-2.07,2.24-4.64,1.29-7.09,1.12a3.45,3.45,0,0,1-2.07-2.37c-.44-30-.07-60-.19-90,0-4.7,0-9.4,0-14.1q0-83.46,0-166.93C199.48,125.8,198.66,123.14,200.59,121Z"/><path class="cls-7" d="M201.81,400.77l6-.15a1.45,1.45,0,0,1,1.54,0,1,1,0,0,1,0,1.46h0a20.56,20.56,0,0,1-9.77-.11l-.13-.11c-1.05-1.86-.52-3.89-.52-5.83,0-20.39,0-40.78,0-61.17,0-2,.44-4-.46-5.87-.08-2-.23-4-.23-6q0-95,0-190.07,0-52.27.11-104.56c0-1.81.08-3.63.12-5.44l19.56-.06c41.7-.09,83.38.94,125.09.85,13.58,0,27.19.08,40.78.24,5.74.07,6.15.44,6.18,6.2,0,6.71,0,13.42.05,20.13-1.51,2-.8,4.21-.8,6.31q0,132.69.06,265.37c0,2.14.43,4.36-.7,6.4-1.6-.24-2-1.23-1.69-2.67.06-8.53.18-17.06.19-25.59q0-117.93,0-235.86c0-1.44-.14-2.89-.21-4.33.07-10.32.11-20.64.24-31,0-2.1-.79-3-2.88-2.8a19.64,19.64,0,0,1-2.17,0c-38.6-.15-77.2.1-115.79-.6-21.92-.4-43.83-.25-65.74-.47-1.1,1.67-.57,3.54-.57,5.3q0,129.72,0,259.42c0,1.79-.38,3.63.44,5.36.09,1.26.25,2.53.25,3.79q0,49,0,98c0,.9-.08,1.81-.13,2.71A2.66,2.66,0,0,0,201.81,400.77Z"/><path class="cls-8" d="M378.27,33.8q.06,124.17.13,248.33c0,2.54-.09,5.08-.13,7.62-1.75.61-2.24-.36-2.33-1.84,0-2,.12-4,.12-6q0-119.84,0-239.68c0-6.49,0-6.45-6.25-6.45H257c-2.17,0-4.35.17-6.52.26L244,35.72A1.21,1.21,0,0,1,244,34a1.23,1.23,0,0,1,.29-.22c1.95-.61,4-.36,5.94-.36l106.65-.09c5.42,0,10.84-.44,16.26-.61C374.88,32.69,376.76,32.39,378.27,33.8Z"/><path class="cls-9" d="M208.34,196.1l-.18-32q-.09-26-.17-52,.1-29.41.2-58.82c0-5.94-.25-11.89,1.28-17.76,1.29.28.82,1.29.82,2q.06,90.42,0,180.84a12.68,12.68,0,0,1-.17,1.63c-2.74-.76-1.3-3-1.38-4.47C208.41,209,209.13,202.56,208.34,196.1Z"/><path class="cls-10" d="M208.34,196.1c1.65,3,.63,6.34.9,9.51.41,4.78-.9,9.67.91,14.36.06,7.58.17,15.17.17,22.76q0,39.32,0,78.63c-.92,1.89-.46,3.91-.47,5.86,0,22.58,0,45.16-.05,67.73,0,1.94.54,4-.54,5.83l-1.4-.16c.11-2.35.32-4.7.32-7.05q0-95.2,0-190.41C208.18,200.81,208.28,198.46,208.34,196.1Z"/><path class="cls-11" d="M337.19,400.88c11,0,22.08,0,33.12,0,5.62,0,5.75-.15,5.76-5.81,0-13,0-26.05,0-39.07,0-2.16-.25-4.35.56-6.44,1.14-.56,1.87.06,2.53.87,2.28,6.49,1.3,13.23,1.42,19.88.14,7.05-.05,14.1.09,21.15,0,1.86-.59,5,1.74,5,2.85,0,2-3.3,2-5.25.16-9,0-18.08.13-27.12.05-2.64-.36-5.57,2.7-7.13a1.65,1.65,0,0,1,1.7.63c.74,13.94.09,27.89.35,41.83.05,2.88-1.2,3.78-3.92,3.76-10-.08-19.94,0-29.91,0-6.16,0-12.32-.12-18.48-.19C337.09,402.26,337.14,401.57,337.19,400.88Z"/><path class="cls-12" d="M200.44,295.18c-1.38-1.73-1-3.8-1-5.76q0-129.33,0-258.65c0-1.94-.47-4,1.16-5.67-.06,4.54-.19,9.07-.19,13.61q0,38.13,0,76.26c0,2,.12,4,.19,6-.06.9-.19,1.8-.19,2.7q0,83.6,0,167.18C200.4,292.28,200.43,293.73,200.44,295.18Z"/><path class="cls-12" d="M209.22,400.78q0-36.58,0-73.19c0-2.1-.58-4.37,1.06-6.23.09,1.43.26,2.87.26,4.3q0,35.46,0,70.91c0,1.85.91,4-1.14,5.49Z"/><path class="cls-12" d="M198.41,329c1.5,1.9,1,4.14,1,6.26q0,33.3,0,66.61a2,2,0,0,1-.95-.19Z"/><path class="cls-13" d="M244.25,33.79c-.08.64-.15,1.29-.23,1.93-4.37.48-8.6-1-12.94-.95-.76-.32-.76-.64,0-1Z"/><path class="cls-12" d="M199.57,402l9.77.11A13.45,13.45,0,0,1,199.57,402Z"/><path class="cls-14" d="M231.06,33.8a1.78,1.78,0,0,0,0,1c-1.89,0-3.81.33-5.77-.52C227.27,33.4,229.18,33.75,231.06,33.8Z"/><path class="cls-15" d="M408.68,147.2q0-31,0-62.06c0-1.09,0-2.18,0-3.27.15-4.2.23-4.28,4.35-3.79,18.52,2.23,37,4.69,55.56,6.6,11.71,1.21,23.31,3.47,35.13,3.56a6.47,6.47,0,0,1,1.08.09c8.24,1.67,7.38.69,7.4,8.28,0,11.43.31,22.87,0,34.3-.95,31-.91,62-.93,93,0,5.34-.21,5.54-5.57,4.92-14.94-1.7-29.85-3.53-44.78-5.27-13.67-1.59-27.35-3.12-41-4.7-2.69-.31-5.38-.78-8.08-1.06-1.93-.21-3-1.14-3-3.1,0-1.45-.05-2.9-.05-4.36Z"/><path class="cls-16" d="M543.76,272.24c-8,13.2-16.1,26.27-25.67,38.37C500.37,333,477,345.62,449,349.9a74.09,74.09,0,0,1-43-5.77c-2.94-1.35-5.94-2.7-8.27-5.08-.29-1.23.19-1.74,1.44-1.54,6.94,3.52,13.84,7.15,21.58,8.65a82.46,82.46,0,0,0,38.72-1.29c23.76-6.79,43.12-20.32,58.37-39.58,9.21-11.63,17-24.3,24.35-37.18.52-.9.86-2,1.92-2.45,1.62.86.77,2.29,1,3.41C545.5,270.48,544.6,271.35,543.76,272.24Z"/><path class="cls-17" d="M399.12,337.51l-1.44,1.54c-14.28-9-22.39-22.28-26.6-38.29-.56-2.13.07-3.12,2.27-3.11,1.27,0,2.55,0,3.81-.07s2.41-.19,4.49-.36c-5.93-6-11.95-10.5-17.62-15.44-1.23-1.07-2.2-.73-3.27.33-4.47,4.48-9,8.9-13.7,13.55,1.59,1.56,3.27,1.26,4.76,1.36,5,.33,5.08.29,5.4,5.52A70.85,70.85,0,0,0,362,323.69c5.09,13.2,14.1,23.1,26.1,30.4,1.07.65,2.38,1,3.13,2.08-.36,1-1.3.68-2,.92a.81.81,0,0,0-.28.5,3.06,3.06,0,0,1-1-.43c-4.9.37-8.08-1.81-9.58-6.48l-1.77-1.15c-3.65-4.24-7.74-8.08-10.9-12.76-6-8.86-10-18.4-10.76-29.17-.13-1.8-.49-3.59-.65-5.39s-1-2.51-2.82-2.5c-2.35,0-4.71,0-7-.22-2.55-.22-3.06-1.52-1.5-3.57a13.82,13.82,0,0,1,1.52-1.54c5-4.94,10-9.91,15.12-14.8,2.73-2.63,2.95-2.6,5.89-.3,3.57,2.77,6.6,6.18,10.44,8.63a2.7,2.7,0,0,0,2.33,1.84c1.29,2.49,4,3.42,5.82,5.37.84.92,1.87,1.8,1.4,3.22-.53,1.61-2.05,1.77-3.45,2-2.23.44-4.45-1.72-6.69,0,1.3,3.68,2.33,7.42,2,11.4,3.07,4.74,5.4,10,9.58,14l1.68,2.66Q393.87,332.94,399.12,337.51Z"/><path class="cls-18" d="M543.76,272.24c-.12-1.28.88-2.11,1.32-3.17a1.72,1.72,0,0,1,.83,2.24Z"/><path class="cls-19" d="M389.28,357.09l2-.91a181.34,181.34,0,0,0,31.44,9.92,80.9,80.9,0,0,0,34.94.07,21.65,21.65,0,0,1,3.23-.27,9.54,9.54,0,0,1,2.22-.63l1.92-.49a14.29,14.29,0,0,0,2.53-.8.74.74,0,0,1,1-.25c.69-.48,1.61-.34,2.3-.82a.75.75,0,0,1,1-.27c.69-.49,1.63-.32,2.3-.85a.66.66,0,0,1,.9-.25c.4-.21.8-.4,1.22-.58a1.58,1.58,0,0,1,1.67-.48,3.21,3.21,0,0,0,1.65-.81.72.72,0,0,1,.92-.32c.39-.2.79-.4,1.2-.58l1.16-.46a2.88,2.88,0,0,1,1-.6l1.19-.49a2.55,2.55,0,0,1,1-.6l1.08-.51a10.92,10.92,0,0,1,1.13-.68l.95-.44a8.91,8.91,0,0,0,1.26-.75,3.13,3.13,0,0,1,2.32-1.35,1.46,1.46,0,0,1,.88-.59l1.06-.55,1.4,1.28L496,353a6.27,6.27,0,0,0-1.14,1l0,0c-.56.65-1.62.42-2.13,1.16l0,0a9.39,9.39,0,0,0-1.15,1h0c-.57.66-1.6.44-2.15,1.12h0c-.6.62-1.62.41-2.19,1.1h0c-.6.62-1.63.4-2.19,1.11h0c-.62.6-1.63.4-2.2,1.08h0c-.59.63-1.6.39-2.18,1a2.6,2.6,0,0,1-.88.12c-.73.5-1.77.31-2.39,1.06l0,0c-.61.6-1.62.37-2.21,1a2.71,2.71,0,0,1-.9.1c-.71.53-1.73.31-2.37,1l-.45.09h-.45c-.7.52-1.71.31-2.36,1a3.58,3.58,0,0,1-1,.09c-1,.92-2.49,0-3.41,1.06l-.44.07h-.45c-1,.84-2.5,0-3.46,1-17.84,4.33-35.42,2.73-52.78-2.52C400.82,363.73,394.48,361.57,389.28,357.09Z"/><path class="cls-3" d="M460,368.19a4,4,0,0,1,3.46-1A5.15,5.15,0,0,1,460,368.19Z"/><path class="cls-3" d="M464.32,367.12a4.07,4.07,0,0,1,3.41-1.06A4.7,4.7,0,0,1,464.32,367.12Z"/><path class="cls-3" d="M492.71,355.2a2.93,2.93,0,0,1,2.13-1.17A3,3,0,0,1,492.71,355.2Z"/><path class="cls-3" d="M489.42,357.32a3.05,3.05,0,0,1,2.15-1.11A3.28,3.28,0,0,1,489.42,357.32Z"/><path class="cls-3" d="M487.24,358.41a3,3,0,0,1,2.19-1.09A3.26,3.26,0,0,1,487.24,358.41Z"/><path class="cls-3" d="M468.71,366a3.1,3.1,0,0,1,2.36-1A3.71,3.71,0,0,1,468.71,366Z"/><path class="cls-3" d="M485.06,359.52a3,3,0,0,1,2.19-1.11A3.26,3.26,0,0,1,485.06,359.52Z"/><path class="cls-3" d="M472,364.91a3.12,3.12,0,0,1,2.37-1A3.56,3.56,0,0,1,472,364.91Z"/><path class="cls-3" d="M482.88,360.59a3,3,0,0,1,2.2-1.08A3.29,3.29,0,0,1,482.88,360.59Z"/><path class="cls-3" d="M480.7,361.62a3.1,3.1,0,0,1,2.18-1A3.1,3.1,0,0,1,480.7,361.62Z"/><path class="cls-3" d="M475.24,363.81a3.14,3.14,0,0,1,2.22-1A3.14,3.14,0,0,1,475.24,363.81Z"/><path class="cls-3" d="M477.43,362.8a3,3,0,0,1,2.39-1.05A3.69,3.69,0,0,1,477.43,362.8Z"/><path class="cls-3" d="M491.59,356.19l1.15-1Z"/><path class="cls-3" d="M494.86,354l1.15-1Z"/><path class="cls-3" d="M463.11,365.27l-2.22.63A2.11,2.11,0,0,1,463.11,365.27Z"/><path class="cls-3" d="M467.56,364a3.39,3.39,0,0,1-2.53.8A2.88,2.88,0,0,1,467.56,364Z"/><path class="cls-3" d="M474.1,361.79a3.21,3.21,0,0,1-2.31.86A2.41,2.41,0,0,1,474.1,361.79Z"/><path class="cls-3" d="M470.82,362.91a3.19,3.19,0,0,1-2.3.82A2.4,2.4,0,0,1,470.82,362.91Z"/><path class="cls-3" d="M476.22,361l-1.22.57A1,1,0,0,1,476.22,361Z"/><path class="cls-3" d="M479.54,359.68l-1.64.81A1.58,1.58,0,0,1,479.54,359.68Z"/><path class="cls-3" d="M481.66,358.77l-1.2.59A1,1,0,0,1,481.66,358.77Z"/><path class="cls-3" d="M483.84,357.72l-1,.6a.75.75,0,0,1,.87-.64Z"/><path class="cls-3" d="M486,356.63l-1,.6a.8.8,0,0,1,1-.61Z"/><path class="cls-3" d="M488.23,355.43l-1.13.69a.94.94,0,0,1,1.13-.69Z"/><path class="cls-3" d="M490.44,354.24l-1.26.76A1.09,1.09,0,0,1,490.44,354.24Z"/><path class="cls-3" d="M493.64,352.31a2.4,2.4,0,0,1-.88.59.68.68,0,0,1,.74-.62Z"/><path class="cls-20" d="M248.43,147.51V92.56c0-1.45,0-2.9,0-4.35.05-2.23,1.14-3.35,3.44-3.1,7.38.8,14.79,1.35,22.11,2.48,4.14.64,8.33.27,12.43,1.3,4.46,1.13,4.58,1,4.6,5.72.05,11.42,0,22.84,0,34.27q0,40.26-.11,80.51c0,7.11,0,6.89-7,5.9-8.41-1.2-16.86-2.2-25.33-2.87-10.2-.82-10.21-.63-10.21-10.52Z"/><path class="cls-21" d="M311.67,141.55c2.16,3.11,4.31,4.46,8.63,6,3.27,1.17,6,3.09,6.86,6.78.5.92,0,1.41-.76,1.8-1.37.18-2.34-.59-3.33-1.36-5.49-4.23-6.36-4.21-11.89.12a5.19,5.19,0,0,1-2.84,1.34c-1.69-.17-1.79-2.61-3.64-2.55A12.5,12.5,0,0,1,294.16,143c-1.06-7.78.41-10.28,8.45-14.27-.76-1.88-2.43-1-3.67-1.17-3-.5-3.69-1.35-3.1-4.38,1-5.31,3.11-10.39,3.12-16,0-3.16,2.9-3.48,5.2-3.57,2.88-.11,3.46-1.22,2.57-3.75-.54-1.52-.64-3.18-1.54-4.61-1.25-2-2.28-3.89-1.31-6.57.72-2-.84-3.06-3-2.57-4.74,1.09-6.12.29-6.34-4.3a20.09,20.09,0,0,0-1.95-7.24c-1.85-4.31.29-8,4.87-8.94.69-.13,1.69-.33,2.09,0,3.39,3,7.32,2.17,11.29,2,4.5-.19,6.89,4,4.53,7.94-1.95,3.28-4,6.46-5.23,10.33,1.67.75,3.16-.13,4.64-.4,1.94-.36,4.23-1.45,5.34.85a7.08,7.08,0,0,1-.28,6.77c-.36.6-1.46.95-1.51,1.48-.17,1.82-.87,3.73,2.13,4.52,2.7.72,3.62,3.44,2.95,6.07s-2.56,2.57-4.67,2.73c-3,.23-6,.79-8.83,1.17-1.12,3.52-2.15,6.79-3.19,10,.59.88,1.58.76,2.42,1,4.82,1.27,6,3.56,3.22,7.72-1.26,1.9-1.8,2.92-.3,5,1.67,2.29-.05,4.44-1.55,6.33C308.09,141.37,311.65,140.6,311.67,141.55Z"/><path class="cls-22" d="M317.23,201.42c-.38,1.88-.24,3.88-1.16,5.65-.3.16-.59.35-.89.52L316,207c4.2-.08,5.3.63,5.23,3.35-.12,4.59-1.93,6.75-5.66,5.91-3.12-.7-6.78.18-9.32-2.25s-.51-5.92-1.31-8.78c-1.18-4.18-1.72-8.74-5.72-11.58a3.14,3.14,0,0,1-1.42-2.8c.5-4.88-1.46-9.14-3-13.59-1.42-4.15,1.2-7.34,5.49-7.14,2.66.13,4.18,1.85,4.94,4.31,1.86.17,3.22.83,3,3-3.11,4.61-5-.28-7.89-1-.4,3.15,2,6,.76,9.59,1.91-3.17,8-5.15,10.34-3.74,1.19.73,1.19.73,1.23-1.37.83-2.81.15-5.92,1.69-8.58a1.29,1.29,0,0,1,1.65-.23c.57,3.13.19,6.28.22,9.42.64,1.12.08,2.53.85,3.63.06,1.41.2,2.82.15,4.22a2.85,2.85,0,0,0,1.07,2.62c3.11,2.89,2.58,6.39-1.13,9.54a3.94,3.94,0,0,0-1.67-.9A6.63,6.63,0,0,1,317.23,201.42Z"/><path class="cls-23" d="M320.38,226.65c2.32,3.28,2.72,7,2.46,10.86-.52,7.8-5.7,11.19-12.8,8.18-1.65-.7-3.19-.39-4.77-.46-5.5-.25-9.32-3.45-9.75-8.26a9.79,9.79,0,0,1,7.92-10.2c3.13-.59,6.35-.36,9.21-2.36,1.49-1,3.53-.1,5.32.11a2.36,2.36,0,0,1,1.33,1h0A4,4,0,0,1,320.38,226.65Z"/><path class="cls-24" d="M315.05,172.07l-.2,10.07c-3.35-.5-2.61-3.63-3.54-5.68-1.57-.08-2.24,1.78-3.77,1.52-.17-1.58-1.32-2.53-2.31-3.58,2.2-1.25,2.17-4.49,5.21-5.18-1.38-2.93-4.26-4.8-4-8.08a5,5,0,0,0-.06-4.31,2.88,2.88,0,0,0-1.66-3.15c1.74-.25,2.64,1,3.66,2.06,1.55.61,2,2,2.34,3.41.84,3.66,2.51,6.56,6.79,6.37,3.89-.18,5.63-2.76,6.24-6.35.25-1.45.73-2.81,2.28-3.43l1.15-1.4c3.31,9.2-.89,15.6-11,16.69C315.84,171.4,315.45,171.74,315.05,172.07Z"/><path class="cls-25" d="M311.67,141.55c-2.2-.29-4.32-.27-6.1,1.37-.57.53-1.27.7-1.83,0a3.6,3.6,0,0,1-.55-3.57,1.38,1.38,0,0,1,1.61-1.1,1.41,1.41,0,0,1,.52.22,7,7,0,0,0,5.21.76Z"/><path class="cls-21" d="M306.35,156.83a3.1,3.1,0,0,1,.07,4.31A7.45,7.45,0,0,1,306.35,156.83Z"/><path class="cls-26" d="M317.06,185.14a4.48,4.48,0,0,1-.85-3.64C317.24,182.53,317.09,183.85,317.06,185.14Z"/><path class="cls-27" d="M320.38,226.65l-1.09-1.14Z"/><path class="cls-27" d="M319.3,225.52a1.64,1.64,0,0,1-1.33-1Z"/><path class="cls-26" d="M315.05,172.07l1.16-1a2.71,2.71,0,0,1-.22,1.05Z"/><path class="cls-28" d="M73.84,326.46c1.82,1.85,1.24,3.48.32,5.06-1.2,2-2.45,4.12-4.4,5.46-2.88,2-4.71,4.19-4.5,8,.14,2.47-2.08,3.05-4.12,3.49-4.82,1-4.82,1.05-4.14,6,.58,4.28.45,4.46-3.94,5.06-4.18.58-4.39.77-3.49,5.26.74,3.69,1,7.2-2,10.11a14.45,14.45,0,0,1-2.48,1.26c3.51-5.28,3-10,1.94-14.89-.51-2.33.86-3.59,3.32-3.92,4.61-.61,4.6-.71,4.22-4.81-.43-4.68.22-5.68,5.13-6.09,3.23-.26,4.6-1.69,4.42-4.78-.13-2.23,1-3.68,2.64-5C70.1,334,73,331,73.84,326.46Z"/><path class="cls-29" d="M377.33,311.73c-1-2.91-2-5.83-2.95-8.74-.38-1.14-.39-2.14,1-2.65,1.07.4,2.94-.27,2.95,1.55C378.33,305.18,379.41,308.63,377.33,311.73Z"/><path class="cls-12" d="M201.81,400.77l-1.25-1.12Z"/><path class="cls-30" d="M378.42,350.68l9.58,6.48c-1.59,1.69-.85,3.79-.86,5.69-.08,11.39,0,22.79-.07,34.18,0,1.31.71,3.31-1.17,3.7-2.24.47-4.79.9-6.84-.38-1.29-.81-.63-2.7-.63-4.1Q378.39,373.47,378.42,350.68Z"/><path class="cls-31" d="M475.24,173.1a32.8,32.8,0,0,1,9.08,17.56c.62,3.83,1,3.89,4.93,3.49a7,7,0,0,1,2.15-.07c1.59.35,3.33.75,3.94,2.5s-.84,2.62-1.86,3.61c-3.73,3.62-12.3,4.88-16.74,2.53-2.65-1.4-3.59-4-4.58-6.51-.72-1.86-1.14-3.86-2.69-5.26-1.15-1-2.44-1.26-2.88.55-1,4.16-2.95,8.09-1.67,12.71,2.34,8.4-6.06,11.69-12.53,11-1.92-.19-2.42-2.13-1.9-3.87a14.15,14.15,0,0,1,1.81-3.3c1.13-1.79,1.81-3.92.95-5.7-2.87-6-1.62-12.5-2.93-18.68a47.28,47.28,0,0,0-2-7.87,84.05,84.05,0,0,1-5.07-17.15c-1.12-6.65-4.87-8.5-11.26-6.05a20.83,20.83,0,0,0-1.88,1.09c-1.88,1-2.9.14-2.76-1.75.28-3.73-.92-7.16-1.78-10.66a14.14,14.14,0,0,1-.16-6.47c.46-2.12,1.08-4.21,1.68-6.3s-.48-4.34.8-6.88c4.25,3.8,9.86,3.85,15.14,6.33.28-5.2-1.58-10.08.68-14.66,3-2.3,5.51-.64,8.1.8,1.39,2.1,3,4.09,3.51,6.65a6.78,6.78,0,0,1,0,3.29c-.13.24-.26.48-.4.72a1.75,1.75,0,0,0-.58,1.47,28.89,28.89,0,0,1-1.25,10c-.66,2.57-2.07,4.79-5.38,2.82a4,4,0,0,1-.83-3c-.08,2.6,1,5.32-1,7.7.76-.92.91-2.17,1.83-3,3.48-.44,5.24-2.46,5.7-5.9.42-3.15,1.22-6.26.93-9.49a2.69,2.69,0,0,1,1.26-.92,3.47,3.47,0,0,1,2.93,1.1c2.61,5.53,7.29,9.91,9,16,2.17,6.69,5.09,13.12,6,20.23.43,3.44.29,6.85.57,10.27-1.26,2-1.77,4.24-2.54,7C472.67,176.53,472,173.61,475.24,173.1Z"/><path class="cls-32" d="M451.05,115.53c-2.26-1.36-4.92-1.41-7.35-2.19-6.81-2.37-14-3.62-20.57-6.74-2.77-1.32-5.55-2.63-8.32-4a7.21,7.21,0,0,1-2.95-2.32c-.74-1.1-1.33-2.37-.26-3.45s2,.1,2.85.6A106.89,106.89,0,0,0,441,108.17c1.22.3,2.47.47,3.71.7,3,0,5.7.54,7.55,3.19a27.84,27.84,0,0,1,8.79,1.17c3.24-1.74,5.7-.7,7.64,2.15,6.89-.24,13.65.84,20.43,1.86,5.2.78,10.47.14,15.7.37,2,.09,4.68-.72,5.07,2.54.26,2.15-1.06,3-5.28,2.85a229.93,229.93,0,0,1-25.26-2.44c-4.27-.66-8.54-1.26-12.82-1.88-1.51,1.5-3.23,1.33-5,.64C457.86,118.56,454,118.36,451.05,115.53Z"/><path class="cls-33" d="M462,117.31l4.59,1.38a26.23,26.23,0,0,1,1,19.54c-1.77.82-2.21-.73-2.71-1.71-1.7-3.35-4.44-6-6.28-9.23a7.38,7.38,0,0,1-.19-1.55c-.06-1.64-.75-3.22-.5-4.89C458.4,118.7,459.13,116.79,462,117.31Z"/><path class="cls-34" d="M458.88,126.32c3.45,3.57,5.79,8,8.69,11.91l0,3.35c-4.1-3.51-6-8.67-9.37-12.72-.47-.57-.29-1.69-.41-2.55A.83.83,0,0,1,458.88,126.32Z"/><path class="cls-35" d="M475.24,173.1c-1.64,1.88-1.63,4.35-2.41,6.53s-1.29,4.76-4.07,6.11c.53-5.6,3-11.71,5.38-13.66Z"/><path class="cls-36" d="M452.28,112.07c-2.4-1.34-5.38-1.3-7.55-3.19,2.19-1.85,4.22-.6,6.25.35C452.18,109.8,453,110.58,452.28,112.07Z"/><path class="cls-37" d="M468.71,115.39c-2.41-1.2-4.84-2.32-7.64-2.15C465.62,110.3,466.47,110.54,468.71,115.39Z"/><path class="cls-5" d="M255.19,146.05q0-26.7,0-53.39c0-4.51.31-4.8,4.51-4.34,8.1.9,16.17,2,24.28,2.77,5.86.55,5,.78,5,5.94-.07,18.34-.25,36.67-.31,55-.06,17.44,0,34.87,0,52.3,0,5.1-.05,5.09-5.16,4.46l-23.72-2.9c-4.49-.54-4.54-.51-4.54-5.37q0-27.24,0-54.47Z"/><path class="cls-1" d="M251.52,205.68c-1.26-4.19-1.28-113,0-117.25,1,0,1.24.81,1.24,1.46q0,57.15,0,114.29C252.74,204.84,252.49,205.64,251.52,205.68Z"/><path class="cls-38" d="M288.08,211.68c-.84,2.08-2.08,1.7-3,1.55-10.32-1.74-20.85-1.95-31.28-3.88.58-1.72,1.53-2,2.39-1.91C266.74,208.84,277.47,209.25,288.08,211.68Z"/><path class="cls-39" d="M326,155.74c0,1.26.09,2.53,0,3.78-.29,5-3.42,8.38-7.91,8.72a8.88,8.88,0,0,1-9.59-7.65,32.72,32.72,0,0,1-.15-4.85,29.12,29.12,0,0,1,1.93-3.17A8.41,8.41,0,0,1,322,150.68a8.28,8.28,0,0,1,1.61,1.52A31,31,0,0,1,326,155.74Z"/><path class="cls-40" d="M300.86,75.64c1.87-1,1.72-2.8,2.24-4.27.31-.85.8-1.71,1.92-1.47.83.18.92,1,1,1.71.26,1.77-.37,3.63.66,5.51,2.9-.79,1.66-3.6,2.5-5.3.61-1.26.91-2.45,2.56-1.95s2.85,1.74,2.13,3.23a106,106,0,0,1-6.3,11.32c-.85,1.31-2.18.72-3-.67-.7-1.22.2-2.94-1.26-3.93-1.85.29-1.76,2.13-2.64,3.16s-1.67,1.5-2.81,1.09a2,2,0,0,1-1.24-2.21,16,16,0,0,0-2-8.32c-1.28-2.56-.52-4.06,1.93-5.29,2.07-1,2.8-.62,3.24,1.79C300.18,71.87,299.25,74,300.86,75.64Z"/><path class="cls-41" d="M296.24,139.77c-.46-6.1,3-8,9.14-9,2-.33,3.33,1.14,4.46,2.6a2.22,2.22,0,0,1-.15,3c-.84,1.09-1.72.78-2.83.29-3.27-1.46-4.49-1.14-5.59,1.17s-.06,7,1.89,7.86c1.63.76,2.74-.39,3.9-1.2s2.66-1.6,3.88-.23,0,2.78-.65,3.94c-2.3,3.89-6.72,4.45-10.13,1.39A12.81,12.81,0,0,1,296.24,139.77Z"/><path class="cls-42" d="M316.06,97.89c-.33,1.08-1.13,1.08-1.75,1.39a1.4,1.4,0,0,0-.9,1.7,1.81,1.81,0,0,0,1.56,1.3,6.6,6.6,0,0,0,3.69-.6c1.15-.53,2.17-.4,2.51,1s.26,2.65-1.5,2.84c-2.49.27-5,.08-7.47.94-1.42.49-2.29-.84-2.47-2.22a33.25,33.25,0,0,0-3.63-12.35c-1-1.8.27-2.6,1.95-2.93,2.47-.48,4.95-1,7.43-1.48,1.17-.22,2.61-1,2.9,1.1.2,1.47.17,3-1.53,3.63a6.1,6.1,0,0,1-2.12.32c-1.7,0-2.85.61-2.74,2.5.1,1.59,1.13,2.12,2.61,2A1.3,1.3,0,0,1,316.06,97.89Z"/><path class="cls-43" d="M297.88,125.12c.63-6.2,3.29-11.35,3.22-17.08,0-2.43,2.3-2.43,4.11-2.37,2,.06,2,1.56,2,3.11,0,2.82-1.26,5.25-2.12,7.81-1.49,4.4-1.16,5.06,3.16,5.78,1.57.26,3.59-.07,3,2.54-.51,2.15-1.78,3-4,2A21,21,0,0,0,297.88,125.12Z"/><path class="cls-44" d="M307.54,178c1.16-1.3.69-3.1,1.4-4.53s1.91-2.7,3.79-2.23c1.64.4,1.19,1.94,1.34,3.11.32,2.6-.8,5.34.78,7.81.08,2,.24,4,.2,5.93,0,1.14-.58,2.19-1.91,2.14a2.31,2.31,0,0,1-2.21-2c-.4-1.92.25-4-.76-6-3.16,1.1-1.05,4.14-2.34,5.87-2.16-1-1.64-4.36-4.34-5.19-1.26,2.27.27,4,.62,5.76.28,1.52.34,3-1.7,3.24s-2.62-1-2.46-2.63c.41-4.32-1.12-8.15-2.75-12-.75-1.76-1.14-3.49,1.13-4.58s3.75,0,4.79,2c.33.64.61,1.31,1,1.94a6.54,6.54,0,0,0,1.18,1.76,1.41,1.41,0,0,0,2,0A1.29,1.29,0,0,0,307.54,178Z"/><path class="cls-45" d="M310.71,204.87a3.64,3.64,0,0,0,.31,5c2.39,2.12,5,.3,7.52-.58-.5,4.69-.5,4.69-4.31,4.28l-.54,0c-6.43-.76-6.53-.76-6.48-7a17.36,17.36,0,0,0-2.15-8.24c-1.4-2.72-.61-4.11,2.38-4.33s5.77,0,8.66-.05c1.28,0,2,.52,1.94,1.92-.09,1.68-.82,1.79-2.45,1.66-4.94-.42-5.72.75-4,5.27C312.37,203.88,311.12,204.2,310.71,204.87Z"/><path class="cls-46" d="M317.23,201.42a1.56,1.56,0,0,1-.53,0c-1.21-.39-2.88.58-3.6-1.21,0-.1.12-.37.25-.43,1.95-1,2.75.63,3.8,1.7Z"/><path class="cls-47" d="M310.71,204.87c.3-.72.59-1.43.89-2.14a7.5,7.5,0,0,1,1.06,0c.86.11,2,.16,1.86,1.33-.07.81-1,.66-1.7.7S311.41,204.83,310.71,204.87Z"/><path class="cls-48" d="M316,207a1.59,1.59,0,0,1-1.09,1.57c-.6.27-1.42.62-1.76-.24-.56-1.39.61-1.26,1.4-1.33a8.74,8.74,0,0,1,1.53.1Z"/><path class="cls-27" d="M311.69,227.28c3.35-1.7,5.54-.7,7.3,1.74,2.35,3.27,2.26,10.06-.11,13.33-1.9,2.6-3.28,2.92-6.69,1.54C317.25,236.12,317.24,234.46,311.69,227.28Z"/><path class="cls-49" d="M309.69,229.73c3.95,3.15,4.78,5.29,3.33,8.49-1.64,3.62-4.36,4.87-9.13,4.19-.09-1.22,1.11-1.77,1.44-2.77.56-1,.42-2.28,1.18-3.22,1.85-2.12-1.19-4.95,1-7A2.6,2.6,0,0,1,309.69,229.73Z"/><path class="cls-50" d="M309.69,229.73l-2.47.12c-1.07,2.56,3.17,5,.1,7.62l-2,2.17a10.73,10.73,0,0,0-3.24-9.61A6.59,6.59,0,0,1,309.69,229.73Z"/><path class="cls-51" d="M302.73,234.2a6.14,6.14,0,0,1,.06,5.15,2.41,2.41,0,0,1-2.5,1.62c-1.32-.21-1.46-1.36-1.61-2.43,0-.18.09-.37.13-.56a7.53,7.53,0,0,0,.32-1.15,6,6,0,0,1,.78-3.18,1.51,1.51,0,0,1,1.91-.51l.07.06A2.22,2.22,0,0,1,302.73,234.2Z"/><path class="cls-52" d="M301.82,233.13l-1.09,1.18a4.93,4.93,0,0,0-.8,1.13c-.25,1.13-.29,2.34-1.29,3.15l0-.05c-1.91-1.85-1.34-3.85-.16-5.7S300.83,231.73,301.82,233.13Z"/><path class="cls-52" d="M302.73,234.2l-.84-1Z"/><path class="cls-53" d="M458.88,126.32h-1.06l-2.2-1.18a1.86,1.86,0,0,1-1.1-1h0c-.64-.58-.42-1.55-1-2.17-.82-2.15-1.65-4.29-2.48-6.44A41.76,41.76,0,0,1,462,117.31c-2.09.94-1.89,2.88-2.05,4.66-1.1,1.27.14,3.1-1,4.35Z"/><path class="cls-54" d="M448.05,141.72c-1.08,3.2-1.95,6.54-6.1,8.66.62-4.08,3.4-6.52,3.84-9.85.46-3.5-.72-6.71-1.82-10.24,3.68,1.76,3.73,1.88,4.11,7.83A3,3,0,0,1,448.05,141.72Z"/><path class="cls-55" d="M448.05,141.72l0-3.6c1.28.84,2.3.68,3.06-.74a12.86,12.86,0,0,0,1.25-4.58c.34-2.62.45-5.32,2.16-7.55l-.05,0c2.37,4.85.53,9.41-1.06,13.93C452.56,141.65,450.18,141.55,448.05,141.72Z"/><path class="cls-56" d="M442.74,141.7c-1.05.35-1.61-.62-2.41-.93-1.33-.53-3-.87-2.3-2.94s2.44-1.15,3.75-1.23c1.91-.13,1.73,1.43,1.75,2.68C443.54,140.15,443.66,141.1,442.74,141.7Z"/><path class="cls-57" d="M435.83,140.83c1.24.29,1.95,1,1.71,2.25a2.29,2.29,0,0,1-2.28,1.85c-1.57.08-1.52-1.14-1.42-2.19S434.54,140.77,435.83,140.83Z"/><path class="cls-58" d="M437.94,133.42c-.05,1.17-.55,2-1.61,1.83a2.71,2.71,0,0,1-2.27-2.64,1.26,1.26,0,0,1,.86-1.54l.21,0C436.92,130.86,437.69,132,437.94,133.42Z"/><path class="cls-55" d="M453.53,122a3.21,3.21,0,0,1,1,2.17A2.65,2.65,0,0,1,453.53,122Z"/><path class="cls-55" d="M454.51,124.14l1.1,1-1.11.07.05,0C454.54,124.88,454.53,124.51,454.51,124.14Z"/><path class="cls-34" d="M458.88,126.32c0-1.53-.14-3.11,1-4.35C460,123.51,460.11,125.08,458.88,126.32Z"/><path class="cls-59" d="M285.8,142.6c-9,12-17.49,23.39-26,34.72-.44.59-1,1-2.38.13,7.36-11.45,16-21.94,24-32.93C282.13,143.55,282.67,142.24,285.8,142.6Z"/><path class="cls-59" d="M283.1,98.35c-6,9.81-13.14,18.7-20.27,27.64-1.21-1-1.1-1.75-.74-2.4C264,120,280.49,99.52,283.1,98.35Z"/><path class="cls-60" d="M280.4,133.71c-5.27,9.88-12.36,18.48-19.34,28.38-.16-3.79-.15-3.78,4.74-10.5,2.33-3.2,4.51-6.53,7-9.64C275.08,139.05,276.83,135.66,280.4,133.71Z"/><path class="cls-61" d="M284.21,178.88c.85,1.54,0,2.37-.67,3.17q-6.6,8.58-13.29,17.09c-.57.73-1.32,1.39-2.25.66-.72-.57-.34-1.35.13-1.9,5.16-6,9.34-12.85,14.78-18.65C283.12,179,283.57,179.05,284.21,178.88Z"/><path class="cls-61" d="M264.05,111.23c1-4.22,8.92-15,13.26-18.46-.3,4.73-3.8,7.06-5.9,10.11S267.38,109.19,264.05,111.23Z"/><path class="cls-62" d="M265.51,174.36a53.34,53.34,0,0,1,9.78-13.54C275.32,164.79,269.86,172.46,265.51,174.36Z"/><path class="cls-63" d="M320.6,158.63a3.87,3.87,0,0,1-3.46,4.1,3.1,3.1,0,0,1-3.42-2.74,3.37,3.37,0,0,1,0-.55,3.83,3.83,0,0,1,3.4-4.13,3.29,3.29,0,0,1,3.48,3.1A1.62,1.62,0,0,1,320.6,158.63Z"/><path class="cls-64" d="M307.32,237.47a9.74,9.74,0,0,0-1.64-6c-.91-1.46.37-1.68,1.53-1.65,1.2,1.94,2.5,3.84,2.18,6.3C309.22,237.44,308.68,238.08,307.32,237.47Z"/><path class="cls-65" d="M299.89,234.4a1.35,1.35,0,0,1,.84-.09c-.16,1.49,1.1,3.35-1.11,4.32C299.06,237.18,298.73,235.74,299.89,234.4Z"/><path class="cls-66" d="M299.89,234.4l-.27,4.23-.5.07-.48-.11C298.85,237.14,298.19,235.41,299.89,234.4Z"/><path class="cls-67" d="M318.25,159a1.34,1.34,0,0,1-1.1,1.49c-1.07.27-1.14-.65-1.14-1.25a1.15,1.15,0,0,1,1-1.27.94.94,0,0,1,.29,0,.89.89,0,0,1,.94.86A.86.86,0,0,1,318.25,159Z"/></svg>