<svg id="Layer_1" data-name="Layer 1" xmlns="http://www.w3.org/2000/svg" viewBox="0 0 185.92 38.53"><defs><style>.cls-1{fill:#5660a4;}.cls-2{fill:#5e6aa9;}.cls-3{fill:#49579f;}.cls-4{fill:#525ea3;}.cls-5{fill:#495ba2;}.cls-6{fill:#5760a4;}.cls-7{fill:#42519b;}.cls-8{fill:#45519b;}.cls-9{fill:#264997;}.cls-10{fill:#274796;}.cls-11{fill:#5059a0;}.cls-12{fill:#5e5aa1;}.cls-13{fill:#444d99;}.cls-14{fill:#525ca2;}.cls-15{fill:#605da3;}.cls-16{fill:#263e90;}.cls-17{fill:#8e83b8;}.cls-18{fill:#8a85ba;}</style></defs><path class="cls-1" d="M85.16,25.13C82.9,27.68,79.94,28,77,28.24c-.35,0-.88-.57-1.09-1-.3-.6.2-1,.69-1.21C79.35,25.09,82.15,24.18,85.16,25.13Z" transform="translate(-13.73 -22.85)"/><path class="cls-2" d="M153.29,28.93c-.47.72-.55,1-.66,1-2.88.5-5.64.32-8-1.69-.17-.14-.09-.93,0-.95A10.75,10.75,0,0,1,153.29,28.93Z" transform="translate(-13.73 -22.85)"/><path class="cls-3" d="M156.84,31.23c4,.76,6.91,1.27,9.45,3.33C162.63,36,160,35.19,156.84,31.23Z" transform="translate(-13.73 -22.85)"/><path class="cls-4" d="M58.61,32.33c-2,3.21-4.92,3.73-7.43,4.8a1.52,1.52,0,0,1-1.36-.59,1.39,1.39,0,0,1,.28-1.37C52.56,33.9,54.89,32.14,58.61,32.33Z" transform="translate(-13.73 -22.85)"/><path class="cls-5" d="M199.65,61.39c-3.72-.8-5.21-3.28-7-5.38a1.56,1.56,0,0,1,.11-1.44c.58-.71,1.37-.35,1.84.17C196.3,56.57,198.56,57.91,199.65,61.39Z" transform="translate(-13.73 -22.85)"/><path class="cls-6" d="M179.79,41.94c-1.37.21-1.78.41-2,.29-2.34-1.12-5.36-1.17-6.53-4.1-.07-.17.38-.8.51-.77A12.67,12.67,0,0,1,179.79,41.94Z" transform="translate(-13.73 -22.85)"/><path class="cls-7" d="M32.28,46.05a15.87,15.87,0,0,1-5.83,4.6A1.74,1.74,0,0,1,25,50.26a.89.89,0,0,1,0-1.25l.15-.12c1.82-1.43,3.69-2.8,5.54-4.2C32,44.36,32.37,44.93,32.28,46.05Z" transform="translate(-13.73 -22.85)"/><path class="cls-8" d="M44.5,38c-1.74,3.16-4.22,4-6.36,5.26a1.3,1.3,0,0,1-1.83-.17l-.09-.12c-.5-.8-.07-1.36.62-1.73C39,40.06,40.83,38.14,44.5,38Z" transform="translate(-13.73 -22.85)"/><path class="cls-9" d="M112.62,23.66c-3.63,2.1-6.42,1.7-9.16,1.5a1,1,0,0,1-.88-1.13,1,1,0,0,1,1-.94h0C106.24,23,108.9,22.38,112.62,23.66Z" transform="translate(-13.73 -22.85)"/><path class="cls-10" d="M116.41,23.58c3.29-.77,6.17-1,9.47.46C121.18,25.94,119.66,25.87,116.41,23.58Z" transform="translate(-13.73 -22.85)"/><path class="cls-11" d="M191.32,50.82c-3.47-.28-5.34-2.15-7.25-3.89a1.65,1.65,0,0,1-.14-1.42.86.86,0,0,1,1.13-.45,1.07,1.07,0,0,1,.22.15C187.29,46.72,190,47.54,191.32,50.82Z" transform="translate(-13.73 -22.85)"/><path class="cls-12" d="M131.5,24.93a9.57,9.57,0,0,1,8.55.78C136.72,27.66,134.07,26.9,131.5,24.93Z" transform="translate(-13.73 -22.85)"/><path class="cls-13" d="M69.91,28.66c-2.32,2.2-4.85,3.81-8.8,3A9.72,9.72,0,0,1,69.91,28.66Z" transform="translate(-13.73 -22.85)"/><path class="cls-14" d="M20,55.67c-2.82,2.58-2.82,2.58-6.3,3.45.94-2.69,3.06-3.6,4.87-4.79C19.8,54,20.2,54.55,20,55.67Z" transform="translate(-13.73 -22.85)"/><path class="cls-15" d="M91.2,24.21c2.33-1.92,5-1.26,7.66-1.17,0,2.06-1.17,2.13-2.51,2C94.76,24,92.8,25.23,91.2,24.21Z" transform="translate(-13.73 -22.85)"/><path class="cls-16" d="M91.2,24.21c1.72.29,3.66-.81,5.15.86C94.62,24.88,92.5,27,91.2,24.21Z" transform="translate(-13.73 -22.85)"/><path class="cls-17" d="M32.28,46.05a2.37,2.37,0,0,0-1.53-1.37c.64-.68,1.41-1.25,2.14-.31C33.35,45,33,45.68,32.28,46.05Z" transform="translate(-13.73 -22.85)"/><path class="cls-18" d="M20,55.67,18.6,54.32c.65-.75,1.5-1.23,2.21-.33C21.27,54.59,20.71,55.29,20,55.67Z" transform="translate(-13.73 -22.85)"/></svg>