<svg id="Layer_1" data-name="Layer 1" xmlns="http://www.w3.org/2000/svg" viewBox="0 0 185.8 38.8"><defs><style>.cls-1{fill:#5564a6;}.cls-2{fill:#5b63a6;}.cls-3{fill:#5665a7;}.cls-4{fill:#4d579f;}.cls-5{fill:#4a4696;}.cls-6{fill:#254494;}.cls-7{fill:#47509b;}.cls-8{fill:#45549d;}.cls-9{fill:#404b98;}.cls-10{fill:#375ba1;}.cls-11{fill:#51589f;}.cls-12{fill:#424f9b;}.cls-13{fill:#4e579f;}.cls-14{fill:#4d59a0;}.cls-15{fill:#4c519c;}.cls-16{fill:#566eac;}.cls-17{fill:#657fb6;}.cls-18{fill:#586baa;}.cls-19{fill:#6d83b8;}.cls-20{fill:#6278b2;}</style></defs><path class="cls-1" d="M199.55,19c-.86,3.8-3.33,5.2-5.1,7.12-.46.49-1.28.86-1.8,0a1.64,1.64,0,0,1-.08-1.45C194.23,22.45,195.93,20.23,199.55,19Z" transform="translate(-13.74 -18.98)"/><path class="cls-2" d="M85.86,55.75c-3.84,1.07-6.49-.48-9.26-1a1.08,1.08,0,0,1-.84-1.2,1.34,1.34,0,0,1,1.46-1.21h.09C80,52.88,83,52.86,85.86,55.75Z" transform="translate(-13.74 -18.98)"/><path class="cls-3" d="M59,48.57c-4.1-.12-6.29-1.67-8.63-2.76-.71-.33-1.14-1-.69-1.67.23-.37,1-.77,1.33-.64C53.55,44.48,56.33,45.16,59,48.57Z" transform="translate(-13.74 -18.98)"/><path class="cls-4" d="M71,52.06c-4.17,1-6.65-.67-9.23-1.82-.2-.09-.34-.65-.27-.93a1.06,1.06,0,0,1,1.19-.79A17,17,0,0,1,71,52.06Z" transform="translate(-13.74 -18.98)"/><path class="cls-5" d="M111.67,57c-3.22,1.32-6.31.94-10.63-.14C105.42,54.45,108.58,55.07,111.67,57Z" transform="translate(-13.74 -18.98)"/><path class="cls-6" d="M125.24,56.24a11.36,11.36,0,0,1-9.16.73C119.34,54.11,122.34,55.67,125.24,56.24Z" transform="translate(-13.74 -18.98)"/><path class="cls-7" d="M171.4,43.08c1.31-3.6,4.49-3.68,7.38-4.34C177.21,41.86,174.31,42.49,171.4,43.08Z" transform="translate(-13.74 -18.98)"/><path class="cls-8" d="M166.78,45.4c-3.12,2.83-6.08,3.2-9.1,4C158.61,46,159.66,45.54,166.78,45.4Z" transform="translate(-13.74 -18.98)"/><path class="cls-9" d="M30.54,35.85c-2.22-1.42-4.52-2.75-6.19-5.43,4-.78,5.54,2.21,7.66,4C32.21,35.66,31.81,36.22,30.54,35.85Z" transform="translate(-13.74 -18.98)"/><path class="cls-10" d="M131.6,56c2.12-2.89,5-1.73,8.41-2.14C137.25,57.44,134.25,55.8,131.6,56Z" transform="translate(-13.74 -18.98)"/><path class="cls-11" d="M91,56.24c2.77-1.73,5.35-1.28,8.63.67C96,58.28,93.52,57.39,91,56.24Z" transform="translate(-13.74 -18.98)"/><path class="cls-12" d="M40.21,41.3a9.71,9.71,0,0,1-4.64-3.09c2.89-2,4.4.61,6.27,1.68C41.91,41.07,41.51,41.7,40.21,41.3Z" transform="translate(-13.74 -18.98)"/><path class="cls-13" d="M19.88,26.8l-1-.24a2.47,2.47,0,0,1-1.11-.75c-1.51-1.09-3.4-1.83-4-4.23,3.35-.38,4.69,2.06,6.38,3.9A1.16,1.16,0,0,1,19.88,26.8Z" transform="translate(-13.74 -18.98)"/><path class="cls-14" d="M184.54,33.32c1.76-1.4,3.27-3.27,6.48-3.26-1,2.74-3.09,3.56-4.93,4.66C184.7,35.22,184.36,34.55,184.54,33.32Z" transform="translate(-13.74 -18.98)"/><path class="cls-15" d="M145.24,51.92c2.31-1.37,4.8-1.3,7.82-1.3-1.22,2.75-3.27,2.47-5.1,2.64C146.73,53.48,145.28,54.12,145.24,51.92Z" transform="translate(-13.74 -18.98)"/><path class="cls-16" d="M40.21,41.3a2.61,2.61,0,0,0,1.62-1.41,5,5,0,0,1,1,.43c.72.53,1.64,1.18,1,2.14s-1.63.22-2.39-.13A6.23,6.23,0,0,1,40.21,41.3Z" transform="translate(-13.74 -18.98)"/><path class="cls-17" d="M145.24,51.92c.55,1.17,1.71,1.1,2.72,1.34a2.78,2.78,0,0,1-2.28.81C144,53.73,143.67,53,145.24,51.92Z" transform="translate(-13.74 -18.98)"/><path class="cls-18" d="M184.54,33.32l1.55,1.4c-.58.72-1.34,1.39-2.15.62S183.71,33.81,184.54,33.32Z" transform="translate(-13.74 -18.98)"/><path class="cls-19" d="M30.54,35.85,32,34.46c.76.48,1.42,1.13.6,1.92S31.1,36.54,30.54,35.85Z" transform="translate(-13.74 -18.98)"/><path class="cls-20" d="M17.73,25.81l1.11.76A1.15,1.15,0,0,1,17.73,25.81Z" transform="translate(-13.74 -18.98)"/><path class="cls-20" d="M19.88,26.8l.24-1.32c.4.25.8.55.55,1.06C20.58,26.72,20.15,26.72,19.88,26.8Z" transform="translate(-13.74 -18.98)"/></svg>