<svg xmlns="http://www.w3.org/2000/svg" width="15.894" height="11.921" viewBox="0 0 15.894 11.921"><defs><style>.a{fill:#ee7600;}</style></defs><path class="a" d="M15.593,67.936a.187.187,0,0,1,.3.146V74.43a1.49,1.49,0,0,1-1.49,1.49H1.49A1.49,1.49,0,0,1,0,74.43V68.085a.186.186,0,0,1,.3-.146c.7.54,1.617,1.226,4.784,3.526.655.478,1.76,1.484,2.862,1.478,1.108.009,2.235-1.018,2.865-1.478C13.979,69.166,14.9,68.476,15.593,67.936ZM7.947,71.947c.72.012,1.757-.906,2.279-1.285,4.119-2.989,4.433-3.25,5.383-4a.743.743,0,0,0,.286-.587v-.59A1.49,1.49,0,0,0,14.4,64H1.49A1.49,1.49,0,0,0,0,65.49v.59a.747.747,0,0,0,.286.587c.95.742,1.263,1.006,5.383,4C6.19,71.041,7.227,71.959,7.947,71.947Z" transform="translate(0 -64)"/></svg>