<svg xmlns="http://www.w3.org/2000/svg" width="813.815" height="982.14" viewBox="0 0 813.815 982.14"><defs><style>.a{fill:rgba(204,216,248,0.09);}</style></defs><g transform="translate(-11.828 1141.859) rotate(-98)"><path class="a" d="M850.6,291.266c-.826-.51-1.626-1.081-2.43-1.6a18.908,18.908,0,0,1,7.194,1.4c-12.949-7.387-29.792-11.245-46.284-11.65-4.136-.019-8.228,0-12.243.251-4.027.353-7.959.785-11.747,1.326-3.8.689-7.453,1.453-10.91,2.275-3.459.867-6.73,1.968-9.756,3-1.106,0-2.2.03-3.256.1s-2.092.258-3.081.431a32.509,32.509,0,0,0-5.339,1.412,14.4,14.4,0,0,0-3.763,1.944,4.136,4.136,0,0,0-1.642,2.368c-.261,1.648,1.263,2.9,3.918,3.9A30.46,30.46,0,0,0,762,297.811a41.726,41.726,0,0,1,5.511,1.014c12.373,4.545,26.84,8.2,42.2,12.46-2.885-1.367-6-2.43-8.977-3.638,2.261.583,4.505,1.127,6.8,1.647a57.2,57.2,0,0,0,7.156,1.419c-.453-.638-1.065-1.3-1.528-1.942,1.89.776,3.891,1.39,5.922,2.059,2.027.69,4.119,1.294,6.246,1.811q1.6.388,3.217.71l3.216.712c2.147.45,4.3.807,6.448,1.072,2.158.216,4.224.59,6.287.743,2.055.182,4.068.265,6.012.25a41.748,41.748,0,0,0,10.434-.854c3.074-.763,5.25-1.652,6.67-3a5.316,5.316,0,0,0,1.75-4.8,11.465,11.465,0,0,0-3.337-6.062,39.9,39.9,0,0,0-8.65-6.436C855.148,293.707,852.873,292.517,850.6,291.266Z" transform="translate(144.975 29.15)"/><path class="a" d="M811.2,270.107c2.623.781,5.159,1.82,7.683,2.746,2.516.96,5.012,1.866,7.46,2.864l7.235,3.158,3.572,1.57c1.184.534,2.342,1.144,3.51,1.71l1.692,1.525.467-4.9-.268.256c-1.28.214-2.64.369-4.067.471s-2.95.261-4.513.318c-3.135.159-6.468.064-9.952-.015-3.5-.009-7.116-.136-10.747-.341-3.647-.126-7.337-.185-10.921-.352l-2.573.038-2.585.146c-2.5.43-4.2,1.242-4.783,2.227-.684,1.117.038,2.316,1.726,3.349a24.219,24.219,0,0,0,7.556,2.466l7.393,1.324c2.23.562,4.57,1.355,7.04,1.983,2.461.676,5.051,1.215,7.659,1.863,5.194,1.375,10.671,2.323,15.86,3.367,2.6.484,5.2.78,7.669,1.1a63.622,63.622,0,0,0,7.094.632c4.539.051,8.451-.145,11.535-1.329,2.791-1.094,1.647-4.012,1.853-6.286.845-1.415-.188-3.342-2.582-5.33a22.564,22.564,0,0,0-2.038-1.5c-.77-.462-1.62-.911-2.534-1.351a46.7,46.7,0,0,0-6.209-2.414c-1.144-.353-2.276-.675-3.391-.928-1.127-.215-2.23-.389-3.3-.518a34.775,34.775,0,0,0-5.842-.258c-3.445.13-5.912,1.113-6.568,2.643l-4.612-1.61,3.963-.39c-1.607,1.115-4.542,1.407-7.879,1.44-1.662-.016-3.455.042-5.229.077s-3.532.078-5.158.2c-1.591-.111-3.169-.279-4.764-.349l-4.788-.176q2.211,4.063,4.3,8.1l4.926-.209a12.086,12.086,0,0,1-.883-.977l7.048-.43c2.354-.178,4.658-.105,7.026-.14,2.36,0,4.757.016,7.211.083,2.425.172,4.91.389,7.483.666,2.191.09,4.433.047,6.609.242l6.6.456c3.786-.416,4.106-2.539.706-4.866l-5.2-3.18,2.3,1.659c-12.591-5.236-26.49-9.273-39.744-12.97a9.334,9.334,0,0,0-5.964-.058C808.225,268.535,809.042,269.517,811.2,270.107Z" transform="translate(155.665 26.299)"/><g transform="translate(139.203 157.145)"><path class="a" d="M845.8,276.928c.984.58,1.942,1.159,3.035,1.685a27.234,27.234,0,0,0,3.827,1.439l1.451-.154c-1.006-.677-2.332-1.7-3.726-2.549C847.655,275.615,845.907,275.859,845.8,276.928Z" transform="translate(29.251 -128.789)"/><path class="a" d="M852.512,279.17l1.538,1.08-.923-1.053a2.975,2.975,0,0,0-.353-.055Z" transform="translate(30.852 -128.06)"/><path class="a" d="M493.595,515.651c-3.22,5.433-6.368,10.835-9.677,16.326-3.359,5.5-6.609,11.013-10.114,16.517l-5.172,8.258-5.362,8.24c-3.513,5.5-7.309,10.962-11.022,16.431-1.827,2.741-3.808,5.451-5.745,8.17l-5.83,8.146-6.1,8.077c-2.042,2.689-4.03,5.391-6.2,8.038-4.28,5.313-8.451,10.656-13.023,15.857l-6.744,7.829-7.073,7.686c-1.267,1.37-2.064,2.768-1.773,3.16.238.346,1.522-.448,2.674-1.743,38.251-40.978,66.8-86.069,92.356-129.621.811-1.469,1.17-2.85.889-3.262C495.3,513.459,494.389,514.3,493.595,515.651Z" transform="translate(-77.1 -72.141)"/><path class="a" d="M216.471,676.418c1.15-.477,1.056-.956-.2-1.163a8.908,8.908,0,0,0-4.093.438c-.966.378-.881.962.2,1.159A8.991,8.991,0,0,0,216.471,676.418Z" transform="translate(-121.966 -33.644)"/><path class="a" d="M239.936,762.419c3.116-.763,6.14-1.535,9.023-2.359,2.861-.892,5.56-1.9,8.077-2.952a7.783,7.783,0,0,1,2.913-.448c-.5-.677.565-1.537,2.686-2.328l7.886-2.793c2.613-.97,5.189-2.025,7.792-3.006,1.3-.508,2.609-.97,3.891-1.5l3.827-1.637,3.833-1.614c1.284-.521,2.56-1.062,3.8-1.674l7.508-3.491c2.482-1.2,4.888-2.524,7.341-3.755,1.214-.639,2.461-1.216,3.65-1.895l3.553-2.048,3.558-2.025,1.778-1.008,1.723-1.118c4.582-3,9.261-5.759,13.648-9.126l3.344-2.4c1.107-.814,2.253-1.545,3.309-2.458l6.456-5.208c1.064-.887,2.18-1.671,3.2-2.633l3.107-2.8c2.062-1.874,4.16-3.674,6.191-5.58l5.957-5.921c.987-.99,1.991-1.948,2.962-2.957l2.848-3.126a4.41,4.41,0,0,1,.171-2.583,18.768,18.768,0,0,1,3.335-6.02,43.654,43.654,0,0,1,6.059-6.867c1.232-1.074,2.518-2.07,3.714-3.21,14.247-13.843,27.424-29.474,40.1-45.914.838-2,1.852-4.065,2.976-6.239,1.1-2.2,2.35-4.469,3.741-6.773,7.845-16.437,15.1-33.23,22.784-50.709-1.03.8-1.926,1.136-2.515.8-1.245-1.115-.176-5.543,2.352-10.026q1.822-3.492,3.634-6.966c-3.9,6.482-7.858,12.771-11.832,19.034a20.788,20.788,0,0,1-1.674,2.4q-5.935,10.341-12.016,20.944c-17.61,30.638-35.348,58.7-55.093,83.187a305.538,305.538,0,0,1-31.344,33.75,231.034,231.034,0,0,1-35.764,26.852,5.965,5.965,0,0,1-3.122,1.259c-.691-.135-.789-.643.1-1.3,15.387-11.316,27.317-24.191,38.423-38.393l2.092-2.637,1.045-1.318,1.007-1.4q2.015-2.766,4.058-5.564,1.025-1.372,2.057-2.757.992-1.454,1.994-2.92,2-2.922,4.062-5.819l1.035-1.449,1-1.529,2.027-3.066,4.173-6.134q2.049-3.229,4.2-6.461l2.178-3.237c.734-1.08,1.43-2.254,2.162-3.38,13.942-21.441,26.264-44.793,37.982-69.543q2.187-4.661,4.379-9.33l4.31-9.52c1.44-3.121,2.893-6.467,4.349-9.729q2.19-4.947,4.385-9.909l18.156-41.3c7.538-14.316,14.972-28.9,22.662-43.658s15.528-29.7,24.192-44.877c1.077-1.9,2.108-3.787,3.225-5.689l3.371-5.718c2.272-3.815,4.438-7.635,6.881-11.471l7.209-11.536,7.671-11.579A486.394,486.394,0,0,1,565.4,309.762c36.488-41.41,79.545-74.165,125.918-98.875A493.842,493.842,0,0,1,840.092,160.7c4.863-1.069,9.76-1.678,14.541-2.28q3.589-.431,7.1-.757c2.344-.185,4.668-.274,6.946-.363,4.564-.145,8.959-.235,13.153-.055,4.2.218,8.182.555,11.883,1,1.852.232,3.63.457,5.338.769q2.563.492,4.889,1.053a66.591,66.591,0,0,1,8.228,2.5c4.741,1.782,7.939,4.093,9.2,6.468,1.461,2.908-.025,5.716-3.763,8.256-3.74,2.592-9.72,5.1-17.359,7.186l9.17-.15,7.263.379,7.258.622c3.43.317,6.727.7,9.852,1.184,3.127.568,6.081,1.2,8.822,1.9s5.275,1.451,7.559,2.258a50.907,50.907,0,0,1,6.074,2.765l9.6,4.832c3.1,2.253,6.671,4.547,10.41,6.8l5.7,3.4,5.705,3.6c3.76,2.431,7.411,4.725,10.616,7.253a58.29,58.29,0,0,1,8.124,7.473l-2.864,2.484,2.193,1.333a38.935,38.935,0,0,1,8.8,5.808,13.042,13.042,0,0,1,4.041,5.5l-1.606,3.354c-2.588,3.689-7.217,6.49-13.879,8.812-.12,1.552-1.149,2.885-2.96,3.974,4.234,4.613,5.546,9.064.832,12.351,2.642,1.745,1.811,3.112-1.794,3.29a20.968,20.968,0,0,1-4.162-.262c.021.02.032.021.032.021a45.719,45.719,0,0,0,3.679,3.066c1.387.415,2.452.859,3.186,1.129l1.123.437,7.163,2.393,2.66.9,3.691,1.43a41.989,41.989,0,0,1,7.955,5.443c3.994,8.107,3.879,8.116,2.16,10.483a12.061,12.061,0,0,1-1.357.394c4.3,2.4,4.588,2.572,5.731,3.253a13.2,13.2,0,0,1,1.82,1.736c-.3,1.49-.3,1.49.3,2.256a2.418,2.418,0,0,1-.187,1.136c-3.073.759-3.062.762-3.288,1.193a9.444,9.444,0,0,1-1.672.315l-4.817-.753-2.952-3.355-1.57-1.652-.67-.7-1.776.9-1-2.147.391,1.822-2.968-1.887,3.3,2.442c-7.482-2.742-7.474-2.817-10.6-3.475a37.476,37.476,0,0,0-6.368-1.3,2.255,2.255,0,0,1,.086.924c-4.044-1.361-6.12-1.875-8.15-2.456l-8.053-2.329a20.754,20.754,0,0,1-1.747-1.382,8.11,8.11,0,0,1-4.1-.064l-4.29-.983-.962.078a.689.689,0,0,0-.006.125c-1.514.053-2.566.126-3.772.244l-.784.1c0-.006-.031-.015-.041-.025l-5.386.462-4.5.384c-1.776.17-3.868.474-6.323.77-2.547-.409-4.913-.873-7.153-1.377.715.3,1.395.6,2.052.916,1.309.641-.022,1.973.7,2.171,17.758,4.367,36.706,8.557,54.623,14.721a13.852,13.852,0,0,1,4.364,1.513c1.137.681,1.881,1.422,1.963,2.056.051.637-.57,1.049-1.615,1.2a8.365,8.365,0,0,1-1.855.032,16.547,16.547,0,0,1-2.347-.284c-19.22-.84-39.839-2.582-60.838-3.853-20.98-1.207-42.3-2.329-62.265-2.877-5.187.378-10.431.581-15.637,1.251l-7.848.864-7.828,1.175,1.629.4-4.126.292-2.064.149-2.05.225-.872.162,3.313.542,3.3.659c1.445-.025,2.884-.063,4.338-.124l4.473-.7c1.486-.207,2.98-.327,4.458-.479,2.962-.282,5.894-.544,8.806-.747l8.708-.232c1.442-.016,2.874-.082,4.311-.046l4.3.124c11.425.18,22.651,1.44,34.029,2.58,3.056.386,6,.833,8.858,1.313s5.628,1.21,8.371,1.824c5.495,1.169,10.781,2.909,16.319,4.233,2.871.474,4.745,1.676,4.282,2.7-.225.492-1.023.838-2.106,1a15.947,15.947,0,0,1-3.848-.017c-18.595-.827-38.526-.952-57.806-.666-19.283.352-37.888,1-54.046.36-6.925,1.531-13.626,2.858-19.589,2.851l-.313.068c1.635.219,3.2.606,4.839.884a29.761,29.761,0,0,1-3.623.4c-1.11.09-2.154.113-3.189.125a42.475,42.475,0,0,0-6.55.385c.852.78,1.813,1.515,2.656,2.3a278.243,278.243,0,0,0-37.938,13.048c-12.374,5.165-24.3,10.651-35.867,15.091-.858.478-1.684.878-2.51,1.282-1.934,1.855-3.87,3.7-5.844,5.523-1.957,1.849-3.86,3.8-5.891,5.663-4.114,3.662-8.185,7.658-13.037,11.366l10.432-6.571c-3.153,3.184-6.382,6.2-9.682,9.2-1.612,1.546-3.266,3.06-4.981,4.549s-3.508,2.928-5.255,4.474c-9.8,8.03-20.054,16.567-29.692,23.943q-1.8,1.393-3.591,2.7c-1.2.869-2.394,1.7-3.546,2.619-2.323,1.775-4.62,3.418-6.867,4.905-2.269,1.45-4.385,2.91-6.451,4.137a53.706,53.706,0,0,1-5.933,3.1c-7.75,10.741-15.239,21.921-22.4,33.708q-10.72,17.725-20.857,36.673Q594.027,527.3,584.113,547.3q-10.092,20.443-20.17,40.856c-1.4,2.89-3.337,5.133-4.388,5.214-.928-.124-.681-2.4.727-5.286,18.155-40.57,35.827-79.507,56.122-114.9-19.292,28.095-37.1,59.285-55.076,92.716l-6.515,13.128a132.856,132.856,0,0,1-7.308,12.625c-2.89,5.414-5.969,10.861-8.93,16.244-3.049,5.413-6.155,10.847-9.268,16.237-6.354,10.779-12.777,21.5-19.662,32.18l-5.139,8.025-5.357,8c-3.5,5.37-7.328,10.668-11.054,16.042-1.833,2.7-3.84,5.347-5.8,8.026s-3.938,5.37-5.917,8.068l-6.238,8.04c-2.094,2.691-4.134,5.424-6.389,8.084a399.107,399.107,0,0,1-48.126,50.407A321.791,321.791,0,0,1,355.6,812.634a315.142,315.142,0,0,1-48.566,20.92A371.711,371.711,0,0,1,258.5,846.132a399.387,399.387,0,0,1-47.911,6.084c-15.875,1.092-31.685,1.351-47.508.882-8.386-.038-16.05-2.009-16.868-4.375-.438-1.159.864-2.18,3.3-2.89a36.9,36.9,0,0,1,10.218-1.164c32.593-.651,65.99-3.2,99.755-9.978a383.376,383.376,0,0,0,50.529-13.756,316.52,316.52,0,0,0,49.094-21.883l11.705-6.817c3.838-2.352,7.522-4.906,11.277-7.361,1.849-1.262,3.778-2.434,5.555-3.775l5.367-3.98c3.548-2.682,7.222-5.242,10.564-8.119l10.208-8.454q4.861-4.417,9.735-8.845l2.432-2.214,2.324-2.292,4.634-4.6,4.633-4.6c1.516-1.553,2.955-3.153,4.436-4.728l4.416-4.746c1.464-1.588,2.977-3.149,4.349-4.789q4.207-4.865,8.429-9.742c2.775-3.268,5.39-6.621,8.1-9.93,1.329-1.667,2.726-3.305,4-5l3.86-5.066c5.25-6.722,10.1-13.619,15.078-20.488l7.175-10.425,1.8-2.609,1.734-2.632,3.475-5.268c4.083-6.046,7.787-12.133,11.615-18.151q2.757-4.538,5.5-9.055c1.829-3.012,3.654-6.017,5.388-9.032a1.928,1.928,0,0,1-.973-.156c-1.077-.619-1.415-2.341-1.157-4.747-3.973,6.79-8.27,13.531-12.546,20.269-4.43,6.7-8.852,13.411-13.614,20.008C487.4,671.3,475,690.7,460.194,709.376c-1.778,2.369-3.781,4.629-5.7,6.938l-5.87,6.889q-6.125,6.764-12.611,13.4-3.381,3.221-6.78,6.463c-2.3,2.135-4.518,4.336-6.995,6.357l-7.339,6.148c-1.242,1.013-2.453,2.055-3.734,3.039l-3.915,2.9-5.386,3.916c-1.811,1.269-3.524,2.613-5.414,3.763q-5.56,3.557-11.057,6.946c-1.8,1.167-3.737,2.157-5.621,3.19l-5.659,3.038-5.631,2.97-5.793,2.639-5.768,2.583c-1.931.827-3.8,1.756-5.781,2.456l-11.7,4.386q-5.9,1.869-11.787,3.737c-1.953.65-3.941,1.132-5.917,1.661l-5.932,1.56a347.96,347.96,0,0,1-58.97,16.2,451.944,451.944,0,0,1-59.49,6.832,6.606,6.606,0,0,1-3.8-.437c-.573-.431.272-.891,1.863-1.08,13.523-1.581,27.284-3.594,41.127-6.077,3.466-.665,6.92-1.189,10.4-1.962l10.425-2.191c6.96-1.675,13.92-3.253,20.863-5.289-4.737-.467-7.692-1.739-7.714-3.8-.041-2.13,2.982-4.66,7.8-7.013L269,801.405l-9.326,1.5c-3.851.621-6.99.16-7.023-.866-.074-1.139,2.838-2.292,6.452-2.918l9.407-1.551,9.375-1.895c3.132-.581,6.233-1.389,9.341-2.14,3.1-.789,6.229-1.437,9.3-2.388l9.247-2.677c3.066-.964,6.1-2.043,9.157-3.064,1.522-.528,3.056-1.014,4.567-1.578l4.509-1.77,4.509-1.776c1.5-.594,3.013-1.164,4.478-1.861l10.4-5.266,10.082-5.809c3.4-1.856,6.583-4.055,9.814-6.164l4.832-3.177c.8-.539,1.622-1.039,2.4-1.609l2.319-1.713,9.26-6.85c3-2.376,5.924-4.85,8.886-7.268,1.46-1.231,2.981-2.4,4.39-3.68l4.232-3.848,4.229-3.845,2.114-1.923,2.026-2.006a30.355,30.355,0,0,1-2.883,1.2,24.346,24.346,0,0,1-2.675.716,10.893,10.893,0,0,1-4.312.149.092.092,0,0,1-.029-.022c-3.51,3.045-6.91,6.19-10.6,8.99a250.907,250.907,0,0,1-53.02,37.076c-4.819,2.654-9.868,4.773-14.866,7.09-1.246.592-2.518,1.1-3.8,1.6l-3.832,1.521c-2.565.981-5.1,2.09-7.708,2.957-5.2,1.742-10.4,3.664-15.7,5.094l-7.944,2.272-8.014,1.948c-21.424,5.13-43.307,7.734-65.124,8.884a530.034,530.034,0,0,1-65.206-.97c-1.7-.079-3.07-.539-3.07-1.033s1.331-.811,2.85-.688c26.009,1.87,52.305,2.287,78.574.125l-.109-.016c-1.08-.212-1.31-.736-.173-1.164a9.73,9.73,0,0,1,4.109-.327c1.241.245,1.17.779.2,1.155l4.583-.409,4.582-.542c3.053-.378,6.1-.724,9.149-1.142,6.087-.975,12.167-1.828,18.2-3.119l4.529-.9,2.26-.455,2.251-.539,8.982-2.175c2.987-.742,5.941-1.669,8.9-2.5l4.432-1.288c1.471-.452,2.928-.975,4.389-1.461,2.918-1,5.835-1.968,8.732-3l8.59-3.395c2.873-1.079,5.663-2.4,8.458-3.669l4.186-1.917c1.4-.629,2.784-1.276,4.136-2.011l8.139-4.266c1.367-.684,2.676-1.476,3.983-2.27l3.921-2.363c2.6-1.6,5.236-3.11,7.77-4.777l7.464-5.183a247.476,247.476,0,0,1-60.931,28.185l-8.043,2.379c-2.685.776-5.409,1.376-8.113,2.066-5.4,1.428-10.878,2.422-16.332,3.526-2.724.571-5.479.915-8.217,1.376-2.744.4-5.477.928-8.232,1.212-5.5.647-10.993,1.36-16.5,1.727l-7.112,1.623-7.205,1.4a6.575,6.575,0,0,1-3.643-.357c-.4-.366.547-.925,1.9-1.133l4.006-.738c-8.349.484-14.845-1.351-14.806-3.815.171-1.285,2-2.5,4.833-3.422a44.982,44.982,0,0,1,10.908-1.954c2.832-.23,5.652-.588,8.471-.934s5.64-.639,8.446-1.045c5.605-.868,11.225-1.594,16.779-2.694a328.675,328.675,0,0,0,33.027-7.619l6.893-2.506c2.261-1.027,4.425-2.24,6.6-3.419A293.04,293.04,0,0,1,253.973,779a402.471,402.471,0,0,1-51.882,2.774c-2.966.082-5.512-.583-5.59-1.469s2.286-1.682,5.243-1.761c30.159-2.717,60.039-7.839,88.156-17.266a252.874,252.874,0,0,0,40.457-17.459l9.5-5.469c1.61-.856,3.095-1.953,4.639-2.934l4.595-3.007c1.517-1.025,3.1-1.942,4.565-3.05l4.433-3.269c2.946-2.191,5.96-4.268,8.759-6.681a311.408,311.408,0,0,0,34.539-47.737l-5.045,5.418c-10.723,11.476-21.278,22-32.039,31.8l-4.038,3.655-2.012,1.829-2.081,1.705-8.27,6.888q-4.274,3.225-8.524,6.431c-.712.536-1.413,1.095-2.134,1.615l-2.206,1.476-4.415,2.975a215.338,215.338,0,0,1-82.011,33.058c-1.554.323-2.913.115-3.176-.293-.228-.417.771-1,2.355-1.221A220.585,220.585,0,0,0,290.082,754.3a245.42,245.42,0,0,0,37.826-19.681l7.419-4.855c1.247-.757,2.389-1.716,3.573-2.571l3.506-2.618c4.732-3.326,9.043-7.234,13.4-10.867,1.1-.888,2.135-1.879,3.163-2.873l3.081-2.946,3.054-2.93,1.517-1.459c.494-.5.97-1.033,1.453-1.547,3.828-4.184,7.7-8.135,11.168-12.581-3.957,4.1-8.19,7.708-12.24,11.57-1,.982-2.062,1.87-3.121,2.755l-3.154,2.69-3.141,2.706c-1.039.915-2.082,1.824-3.179,2.633l-6.469,5.066c-1.087.826-2.12,1.758-3.251,2.505l-3.337,2.343-6.67,4.733-6.9,4.311-3.454,2.181c-1.145.742-2.368,1.331-3.55,2.007l-7.173,3.948c-4.942,2.372-9.838,4.914-15.016,6.972-5.069,2.287-10.408,4.069-15.705,6.027-5.42,1.663-10.825,3.473-16.447,4.8a12.882,12.882,0,0,1-5.3.618c-.058.27-.419.573-1.006.815-2.744,1.08-5.65,2.1-8.659,3.087-3.006,1-6.181,1.733-9.37,2.561a5.491,5.491,0,0,1-3.518,0C237.889,763.406,238.592,762.865,239.936,762.419ZM882.044,278.09l1.207.411-4.156-.493-.76-.376-1.81-.893-3.542-1.614,2.846.85C877.532,276.5,879.8,277.311,882.044,278.09Zm72.31-13.892-.041,0c1.845,1.33,3.179,2.294,3.179,2.294ZM595.388,499.94q2.365-4.1,4.721-8.188c1.6-2.692,3.226-5.328,4.852-7.978,3.224-5.347,6.646-10.375,10.042-15.481a289.4,289.4,0,0,1,22.008-28.3c-1.59,2.386-3.213,4.716-4.774,7.133l-4.632,7.329C616.658,468.774,606.013,484.021,595.388,499.94ZM929.495,289.7a78.616,78.616,0,0,1-8.417-3.165c-1.289-.561-2.531-1.164-3.746-1.731-1.215-.546-2.4-1.1-3.577-1.666-2.074.275-4.193.483-6.343.624l-6.526.357-8.81.332c-2.92.121-5.818.374-8.711.528-5.792.246-11.5.872-17.2,1.284,1.655,1.069-1.076,1.251-2.423,1.637l-4.159,1.039,4.529-.443c1.513-.118,3.034-.184,4.55-.279l9.1-.52,9.151-.157,4.584-.063,4.6.108,8.427.114,8.533.4,4.232.217c1.4.1,2.791.263,4.167.4C924.215,289.008,926.905,289.331,929.495,289.7Zm82.636,7.021c.28.248.533.469.856.728l-2.629,1.219Zm4.253-2.128-1.58-.729C1015.587,293.357,1016.055,293.758,1016.383,294.6Zm-14.753-6.312a10.75,10.75,0,0,0,1.952,1.526Zm-.171-57.182q-4.475,3.947-8.779,7.932,4.585-3.739,9.346-7.434Z" transform="translate(-139.203 -157.145)"/></g></g></svg>