<svg xmlns="http://www.w3.org/2000/svg" width="13.428" height="17.904" viewBox="0 0 13.428 17.904"><defs><style>.a{fill:#ee7600;}</style></defs><path class="a" d="M6.361,8.956a3.374,3.374,0,0,1-.07-1.64C6.585,7.315,6.557,8.606,6.361,8.956ZM6.3,10.606A16.136,16.136,0,0,1,5.308,12.8a12.877,12.877,0,0,1,2.2-.766A4.53,4.53,0,0,1,6.3,10.606ZM3.011,14.97c0,.028.462-.189,1.22-1.406A4.833,4.833,0,0,0,3.011,14.97ZM8.672,5.6h4.756v11.47a.837.837,0,0,1-.839.839H.839A.837.837,0,0,1,0,17.065V.839A.837.837,0,0,1,.839,0H7.833V4.756A.842.842,0,0,0,8.672,5.6ZM8.393,11.6A3.51,3.51,0,0,1,6.9,9.721a5.026,5.026,0,0,0,.217-2.245.876.876,0,0,0-1.672-.238,5.814,5.814,0,0,0,.283,2.693,32.837,32.837,0,0,1-1.427,3s0,0-.007,0c-.948.486-2.574,1.556-1.906,2.378a1.087,1.087,0,0,0,.752.35c.626,0,1.248-.629,2.137-2.161a19.933,19.933,0,0,1,2.763-.811,5.3,5.3,0,0,0,2.238.682.905.905,0,0,0,.689-1.518C10.48,11.379,9.067,11.515,8.393,11.6Zm4.791-7.931L9.756.245A.839.839,0,0,0,9.162,0h-.21V4.476h4.476V4.263A.837.837,0,0,0,13.183,3.672ZM10.592,12.6c.143-.094-.087-.416-1.5-.315C10.393,12.837,10.592,12.6,10.592,12.6Z"/></svg>