<svg xmlns="http://www.w3.org/2000/svg" width="13.913" height="18.55" viewBox="0 0 13.913 18.55"><defs><style>.a{fill:#ee7600;}</style></defs><path class="a" d="M8.116,4.927V0H.87A.867.867,0,0,0,0,.87V17.681a.867.867,0,0,0,.87.87H13.043a.867.867,0,0,0,.87-.87V5.8H8.985A.872.872,0,0,1,8.116,4.927ZM4.638,10.145a.29.29,0,0,1-.29.29h-.29a.58.58,0,0,0-.58.58v1.159a.58.58,0,0,0,.58.58h.29a.29.29,0,0,1,.29.29v.58a.29.29,0,0,1-.29.29h-.29a1.739,1.739,0,0,1-1.739-1.739V11.014A1.739,1.739,0,0,1,4.058,9.275h.29a.29.29,0,0,1,.29.29Zm1.6,3.768H5.8a.29.29,0,0,1-.29-.29v-.58a.29.29,0,0,1,.29-.29h.445c.216,0,.377-.127.377-.24a.192.192,0,0,0-.077-.139l-.793-.68a1.345,1.345,0,0,1-.483-1.02A1.474,1.474,0,0,1,6.8,9.276h.444a.29.29,0,0,1,.29.29v.58a.29.29,0,0,1-.29.29H6.8c-.216,0-.377.127-.377.24a.192.192,0,0,0,.077.139l.793.68a1.345,1.345,0,0,1,.483,1.02,1.474,1.474,0,0,1-1.536,1.4ZM9.275,9.565v.754a3.949,3.949,0,0,0,.58,2.061,3.948,3.948,0,0,0,.58-2.061V9.565a.29.29,0,0,1,.29-.29h.58a.29.29,0,0,1,.29.29v.754a4.983,4.983,0,0,1-1.314,3.409.58.58,0,0,1-.849,0,4.983,4.983,0,0,1-1.314-3.409V9.565a.29.29,0,0,1,.29-.29h.58A.29.29,0,0,1,9.275,9.565ZM13.659,3.8,10.112.254A.869.869,0,0,0,9.5,0H9.275V4.638h4.638V4.417A.867.867,0,0,0,13.659,3.8Z"/></svg>