<svg xmlns="http://www.w3.org/2000/svg" width="29.226" height="29.226" viewBox="0 0 29.226 29.226"><defs><style>.a{fill:#ee7600;}</style></defs><path class="a" d="M28.429,5.593,23.641.8A2.739,2.739,0,0,0,21.707,0H10.055A2.749,2.749,0,0,0,7.315,2.745V9.459a5.53,5.53,0,0,1-1.377-.287,1.08,1.08,0,0,0-.283-.038,1.1,1.1,0,0,0-.78.331,3.483,3.483,0,0,1-2.38,1.4,1.125,1.125,0,0,0-.787.8A3.56,3.56,0,0,1,.337,14.082a1.166,1.166,0,0,0-.29,1.109,3.6,3.6,0,0,1,0,2.783,1.168,1.168,0,0,0,.29,1.11A3.554,3.554,0,0,1,1.708,21.5a1.127,1.127,0,0,0,.787.8l.255.069v5.941a.913.913,0,0,0,1.321.817l3.245-1.622L10.56,29.13a.92.92,0,0,0,.409.1H26.495a2.74,2.74,0,0,0,2.739-2.739V7.533a2.753,2.753,0,0,0-.8-1.94Zm-6.5-3.733a.9.9,0,0,1,.422.24L27.14,6.888a.9.9,0,0,1,.24.422h-5.45ZM1.908,18.077a4.707,4.707,0,0,0,0-2.991,4.672,4.672,0,0,0,1.463-2.572,4.5,4.5,0,0,0,2.5-1.466,5.282,5.282,0,0,0,1.439.237,5.253,5.253,0,0,0,1.438-.237,4.564,4.564,0,0,0,2.5,1.466,4.618,4.618,0,0,0,1.464,2.573,4.655,4.655,0,0,0,0,2.991,4.671,4.671,0,0,0-1.462,2.566,4.371,4.371,0,0,0-2.126,1.105,4.4,4.4,0,0,0-3.636,0,4.43,4.43,0,0,0-2.125-1.1,4.619,4.619,0,0,0-1.464-2.569Zm5.816,7.593a.914.914,0,0,0-.817,0L4.576,26.835V23.4l.018.017a1.08,1.08,0,0,0,1.359.161,2.563,2.563,0,0,1,2.725,0,1.075,1.075,0,0,0,.581.172,1.094,1.094,0,0,0,.778-.331c.007-.007.012-.01.019-.018v3.438L7.724,25.669Zm19.684.817a.916.916,0,0,1-.913.913H11.882v-5.03l.253-.068a1.125,1.125,0,0,0,.786-.8,3.557,3.557,0,0,1,1.372-2.416,1.166,1.166,0,0,0,.289-1.11,3.6,3.6,0,0,1,0-2.783,1.167,1.167,0,0,0-.289-1.11,3.557,3.557,0,0,1-1.372-2.414,1.126,1.126,0,0,0-.785-.8,3.481,3.481,0,0,1-2.381-1.4,1.09,1.09,0,0,0-.613-.295V2.745a.92.92,0,0,1,.913-.918H20.1V7.767a1.363,1.363,0,0,0,1.37,1.366h5.935V26.487Z" transform="translate(-0.008)"/></svg>