<svg xmlns="http://www.w3.org/2000/svg" width="1419.107" height="1243.052" viewBox="0 0 1419.107 1243.052"><defs><style>.a{fill:#f6f1bb;}</style></defs><g transform="translate(185.726 -190.977) rotate(17)"><path class="a" d="M885.8,295.3c-1.108-.684-2.18-1.45-3.258-2.144,2.457-.232,5.87.57,9.645,1.881-17.361-9.9-39.944-15.076-62.056-15.619-5.546-.025-11.032,0-16.415.337-5.4.473-10.672,1.053-15.751,1.778-5.094.923-9.992,1.948-14.628,3.05-4.638,1.162-9.023,2.638-13.081,4.025-1.483,0-2.944.04-4.365.135-1.423.115-2.8.345-4.131.578a43.588,43.588,0,0,0-7.158,1.893,19.312,19.312,0,0,0-5.046,2.607,5.546,5.546,0,0,0-2.2,3.175c-.35,2.21,1.694,3.884,5.254,5.23,3.56,1.318,8.621,1.976,14.4,1.85a55.937,55.937,0,0,1,7.389,1.36c16.589,6.094,35.986,10.99,56.576,16.705-3.869-1.833-8.038-3.258-12.036-4.878,3.032.782,6.041,1.511,9.122,2.208a76.685,76.685,0,0,0,9.594,1.9c-.608-.855-1.428-1.737-2.049-2.6,2.534,1.041,5.217,1.863,7.94,2.761,2.718.925,5.522,1.735,8.375,2.427q2.139.521,4.314.951l4.312.955c2.879.6,5.772,1.083,8.646,1.438,2.894.289,5.664.79,8.43,1,2.755.244,5.454.355,8.061.335a55.978,55.978,0,0,0,13.989-1.146c4.121-1.023,7.038-2.215,8.943-4.023a7.127,7.127,0,0,0,2.346-6.432,15.371,15.371,0,0,0-4.475-8.128,53.5,53.5,0,0,0-11.6-8.629C891.894,298.577,888.844,296.981,885.8,295.3Z" transform="translate(401.599 80.748)"/><path class="a" d="M817.688,271.009c3.517,1.048,6.917,2.441,10.3,3.681,3.374,1.287,6.72,2.5,10,3.841l9.7,4.234,4.789,2.105c1.587.716,3.14,1.534,4.706,2.293l2.268,2.044.626-6.569-.359.344c-1.717.287-3.54.495-5.453.631s-3.955.35-6.05.427c-4.2.212-8.672.086-13.343-.02-4.691-.012-9.541-.183-14.409-.457-4.89-.169-9.838-.247-14.643-.472l-3.45.052-3.465.2c-3.354.576-5.629,1.665-6.412,2.985-.916,1.5.052,3.1,2.315,4.49,2.258,1.426,5.841,2.432,10.13,3.306l9.913,1.775c2.99.754,6.127,1.816,9.44,2.658,3.3.907,6.773,1.629,10.269,2.5,6.964,1.843,14.308,3.115,21.265,4.515,3.492.649,6.974,1.046,10.283,1.479a85.3,85.3,0,0,0,9.511.847c6.085.068,11.331-.194,15.465-1.782,3.743-1.466,2.208-5.38,2.484-8.428,1.132-1.9-.253-4.481-3.462-7.146a30.2,30.2,0,0,0-2.733-2.006c-1.033-.619-2.172-1.222-3.4-1.811a62.624,62.624,0,0,0-8.325-3.236c-1.534-.473-3.052-.9-4.546-1.244-1.511-.289-2.99-.521-4.418-.694a46.63,46.63,0,0,0-7.832-.345c-4.619.174-7.927,1.493-8.807,3.543-2.041-.712-4.156-1.449-6.183-2.159l5.313-.523c-2.155,1.494-6.09,1.886-10.564,1.931-2.228-.021-4.632.057-7.01.1s-4.736.1-6.915.262c-2.134-.149-4.249-.374-6.388-.468l-6.419-.236q2.964,5.447,5.763,10.864l6.605-.281a16.2,16.2,0,0,1-1.184-1.31l9.449-.576c3.156-.239,6.245-.141,9.419-.188,3.165,0,6.378.022,9.668.111,3.251.231,6.584.521,10.032.893,2.937.121,5.944.063,8.862.324l8.85.611c5.076-.558,5.506-3.4.947-6.524l-6.976-4.264q1.544,1.116,3.08,2.225c-16.881-7.02-35.516-12.433-53.287-17.389-2.78-.96-6.364-.858-8-.078C813.7,268.9,814.8,270.219,817.688,271.009Z" transform="translate(431.21 72.852)"/><g transform="translate(139.203 157.145)"><path class="a" d="M845.8,277.215c1.32.777,2.6,1.554,4.07,2.26A36.52,36.52,0,0,0,855,281.4l1.946-.206c-1.348-.908-3.127-2.275-5-3.417C848.288,275.455,845.943,275.782,845.8,277.215Z" transform="translate(327.437 -78.595)"/><path class="a" d="M852.512,279.18l2.062,1.448-1.237-1.411a4,4,0,0,0-.473-.073Z" transform="translate(331.87 -76.576)"/><path class="a" d="M525.592,516.316c-4.317,7.284-8.538,14.527-12.974,21.889-4.5,7.381-8.862,14.766-13.561,22.145l-6.934,11.072-7.189,11.048c-4.711,7.376-9.8,14.7-14.778,22.03-2.449,3.674-5.106,7.309-7.7,10.954l-7.817,10.922-8.177,10.829c-2.738,3.6-5.4,7.228-8.317,10.778-5.738,7.123-11.331,14.288-17.461,21.26l-9.043,10.5-9.483,10.3c-1.7,1.836-2.768,3.711-2.378,4.237.319.463,2.041-.6,3.585-2.338,51.285-54.941,89.561-115.4,123.828-173.791,1.088-1.969,1.569-3.821,1.192-4.374C527.872,513.377,526.656,514.51,525.592,516.316Z" transform="translate(32.829 78.325)"/><path class="a" d="M218.163,676.84c1.542-.639,1.416-1.282-.271-1.559a11.944,11.944,0,0,0-5.488.588c-1.3.506-1.181,1.29.262,1.554A12.056,12.056,0,0,0,218.163,676.84Z" transform="translate(-91.455 184.968)"/><path class="a" d="M274.262,968.675c4.178-1.023,8.232-2.057,12.1-3.163,3.836-1.2,7.455-2.542,10.829-3.958a10.434,10.434,0,0,1,3.905-.6c-.666-.908.757-2.06,3.6-3.122l10.573-3.744c3.5-1.3,6.957-2.715,10.447-4.03,1.737-.681,3.5-1.3,5.217-2.016l5.131-2.2,5.139-2.164c1.722-.7,3.432-1.423,5.092-2.245l10.067-4.681c3.327-1.606,6.554-3.384,9.843-5.034,1.627-.857,3.3-1.63,4.893-2.54l4.764-2.746,4.77-2.715,2.384-1.352,2.31-1.5c6.144-4.026,12.417-7.721,18.3-12.235l4.483-3.22c1.484-1.091,3.02-2.072,4.437-3.3l8.656-6.982c1.426-1.189,2.922-2.24,4.292-3.53l4.166-3.748c2.765-2.512,5.577-4.926,8.3-7.482l7.987-7.938c1.323-1.327,2.67-2.612,3.972-3.965l3.819-4.191a5.912,5.912,0,0,1,.229-3.464,25.161,25.161,0,0,1,4.471-8.071,58.536,58.536,0,0,1,8.124-9.207c1.652-1.439,3.376-2.776,4.98-4.3,19.1-18.56,36.77-39.518,53.766-61.559,1.124-2.677,2.482-5.45,3.99-8.365,1.478-2.952,3.151-5.992,5.016-9.081,10.519-22.039,20.25-44.554,30.548-67.989-1.381,1.076-2.582,1.523-3.372,1.068-1.669-1.494-.236-7.432,3.153-13.443q2.443-4.682,4.872-9.34c-5.229,8.69-10.535,17.124-15.864,25.52a27.883,27.883,0,0,1-2.245,3.213q-7.957,13.865-16.111,28.081c-23.611,41.078-47.393,78.7-73.866,111.534A409.646,409.646,0,0,1,419.4,884.129a309.759,309.759,0,0,1-47.951,36,8,8,0,0,1-4.186,1.688c-.927-.181-1.058-.862.139-1.745,20.631-15.173,36.625-32.434,51.516-51.476l2.8-3.535,1.4-1.767,1.35-1.88q2.7-3.709,5.441-7.46,1.375-1.84,2.758-3.7,1.33-1.95,2.673-3.915,2.685-3.918,5.446-7.8l1.388-1.943,1.345-2.051,2.718-4.111q2.767-4.065,5.6-8.224,2.747-4.329,5.625-8.662l2.921-4.34c.985-1.448,1.918-3.022,2.9-4.531,18.693-28.747,35.214-60.057,50.925-93.24q2.931-6.249,5.871-12.51l5.778-12.763c1.931-4.184,3.879-8.671,5.831-13.044q2.936-6.633,5.88-13.285l24.343-55.375c10.107-19.194,20.074-38.744,30.384-58.534s20.82-39.823,32.436-60.17c1.445-2.542,2.826-5.078,4.324-7.628l4.52-7.666c3.047-5.116,5.951-10.236,9.225-15.38l9.665-15.467L662.754,424.1a652.171,652.171,0,0,1,47.873-62.327C759.549,306.248,817.277,262.33,879.453,229.2a662.125,662.125,0,0,1,199.476-67.29c6.521-1.433,13.086-2.25,19.5-3.057q4.812-.578,9.523-1.014c3.143-.247,6.258-.367,9.313-.486,6.119-.194,12.011-.316,17.635-.073,5.632.292,10.97.744,15.932,1.345,2.482.311,4.867.613,7.156,1.031q3.437.66,6.555,1.411a89.3,89.3,0,0,1,11.032,3.351c6.356,2.389,10.645,5.488,12.33,8.672,1.959,3.9-.033,7.664-5.046,11.07-5.015,3.475-13.032,6.841-23.274,9.635l12.3-.2,9.738.508,9.732.834c4.6.425,9.02.938,13.209,1.587,4.192.762,8.152,1.616,11.828,2.55s7.072,1.946,10.135,3.027a68.266,68.266,0,0,1,8.144,3.708l12.878,6.479c4.158,3.02,8.945,6.1,13.957,9.122,2.5,1.489,5.054,3.019,7.636,4.561l7.65,4.825c5.041,3.259,9.936,6.334,14.233,9.725a78.161,78.161,0,0,1,10.892,10.019l-3.841,3.331,2.941,1.787a52.216,52.216,0,0,1,11.8,7.787c2.9,2.6,4.737,5.094,5.418,7.377l-2.154,4.5c-3.47,4.946-9.677,8.7-18.608,11.815-.161,2.08-1.541,3.869-3.968,5.328,5.677,6.185,7.435,12.153,1.116,16.559,3.542,2.34,2.428,4.173-2.406,4.412a28.114,28.114,0,0,1-5.581-.352.093.093,0,0,0,.043.028,61.384,61.384,0,0,0,4.933,4.111c1.86.556,3.288,1.152,4.272,1.514l1.506.586,9.6,3.208,3.567,1.209,4.95,1.918a56.3,56.3,0,0,1,10.666,7.3c5.355,10.869,5.2,10.882,2.9,14.055a16.176,16.176,0,0,1-1.82.528c5.768,3.223,6.152,3.449,7.684,4.362a17.707,17.707,0,0,1,2.441,2.328c-.4,2-.4,2,.4,3.025a3.242,3.242,0,0,1-.251,1.523c-4.121,1.018-4.106,1.021-4.408,1.6a12.656,12.656,0,0,1-2.242.422l-6.459-1.01-3.958-4.5-2.105-2.215c-.893-.938-.9-.945-.9-.945l-2.381,1.2-1.337-2.879.525,2.442-3.98-2.53,4.429,3.274c-10.032-3.676-10.021-3.777-14.212-4.659a50.253,50.253,0,0,0-8.538-1.743,3.026,3.026,0,0,1,.115,1.239c-5.423-1.825-8.206-2.514-10.927-3.293l-10.8-3.123A27.813,27.813,0,0,1,1268,340.2a10.873,10.873,0,0,1-5.5-.086l-5.752-1.318-1.29.1a.913.913,0,0,0-.008.168c-2.031.071-3.44.169-5.057.327l-1.051.128c-.007-.008-.042-.02-.055-.033-1.737.148-3.864.33-7.221.619-1.669.143-3.643.312-6.027.515-2.381.227-5.186.636-8.478,1.033-3.416-.548-6.587-1.171-9.59-1.846.958.405,1.87.8,2.751,1.229,1.755.86-.03,2.645.937,2.911,23.808,5.855,49.214,11.473,73.237,19.737a18.57,18.57,0,0,1,5.852,2.029c1.524.913,2.522,1.906,2.631,2.756.068.853-.764,1.406-2.165,1.614a11.217,11.217,0,0,1-2.487.043,22.174,22.174,0,0,1-3.146-.38c-25.769-1.126-53.415-3.462-81.569-5.166-28.129-1.619-56.708-3.123-83.482-3.857-6.955.506-13.986.779-20.966,1.677l-10.522,1.159q-5.243.787-10.5,1.576l2.185.543-5.532.392-2.768.2-2.748.3-1.169.218,4.442.727,4.43.883c1.938-.033,3.867-.085,5.816-.166q3.014-.476,6-.945c1.992-.277,3.995-.438,5.977-.643,3.972-.379,7.9-.729,11.807-1l11.676-.311c1.933-.022,3.854-.11,5.78-.061l5.763.166c15.319.241,30.369,1.931,45.625,3.459,4.1.518,8.04,1.117,11.877,1.76s7.547,1.622,11.224,2.446c7.367,1.567,14.454,3.9,21.879,5.675,3.849.636,6.363,2.247,5.742,3.621-.3.659-1.371,1.124-2.824,1.345a21.386,21.386,0,0,1-5.159-.023c-24.931-1.109-51.653-1.277-77.5-.893-25.854.472-50.8,1.343-72.464.483-9.285,2.052-18.27,3.832-26.264,3.822l-.42.091c2.192.294,4.3.812,6.487,1.186a39.917,39.917,0,0,1-4.858.53c-1.488.121-2.887.151-4.276.168a56.948,56.948,0,0,0-8.782.516c1.142,1.046,2.431,2.031,3.562,3.087a373.071,373.071,0,0,0-50.866,17.494c-16.591,6.926-32.582,14.281-48.089,20.234-1.151.641-2.258,1.177-3.366,1.719-2.594,2.487-5.189,4.96-7.835,7.405-2.624,2.479-5.176,5.1-7.9,7.593-5.516,4.91-10.974,10.268-17.479,15.239l13.987-8.81c-4.227,4.269-8.556,8.309-12.981,12.335-2.162,2.072-4.378,4.1-6.678,6.1s-4.7,3.925-7.045,6c-13.14,10.766-26.887,22.213-39.81,32.1q-2.411,1.868-4.815,3.626c-1.6,1.166-3.21,2.281-4.754,3.512-3.115,2.379-6.195,4.583-9.207,6.577-3.042,1.944-5.88,3.9-8.649,5.547a72.017,72.017,0,0,1-7.955,4.156c-10.391,14.4-20.431,29.391-30.027,45.195Q776.2,602.506,762.614,627.91q-13.6,25.524-26.892,52.338-13.531,27.409-27.043,54.778c-1.88,3.875-4.475,6.882-5.883,6.99-1.244-.166-.913-3.218.975-7.087,24.342-54.395,48.036-106.6,75.246-154.049-25.866,37.668-49.747,79.487-73.843,124.31q-4.346,8.757-8.735,17.6a178.107,178.107,0,0,1-9.8,16.928c-3.875,7.259-8,14.562-11.973,21.78-4.088,7.258-8.252,14.543-12.426,21.77-8.52,14.452-17.13,28.829-26.362,43.146l-6.891,10.759Q625.4,842.531,621.8,847.9c-4.687,7.2-9.825,14.3-14.821,21.509-2.457,3.617-5.149,7.17-7.781,10.761s-5.28,7.2-7.933,10.818l-8.363,10.779c-2.808,3.608-5.542,7.273-8.566,10.839a535.11,535.11,0,0,1-64.525,67.583A431.44,431.44,0,0,1,429.337,1036a422.539,422.539,0,0,1-65.116,28.049,498.386,498.386,0,0,1-65.065,16.863,535.471,535.471,0,0,1-64.238,8.158c-21.285,1.465-42.481,1.812-63.7,1.182-11.244-.051-21.519-2.693-22.616-5.866-.588-1.554,1.159-2.922,4.427-3.875a49.476,49.476,0,0,1,13.7-1.561c43.7-.873,88.476-4.292,133.747-13.378a513.992,513.992,0,0,0,67.748-18.444,424.362,424.362,0,0,0,65.823-29.339l15.694-9.14c5.146-3.153,10.085-6.579,15.12-9.869,2.479-1.692,5.066-3.263,7.449-5.061l7.2-5.337c4.757-3.6,9.683-7.029,14.163-10.886l13.687-11.336q6.518-5.923,13.052-11.859l3.261-2.969,3.117-3.073L533,942.1l6.212-6.168c2.032-2.082,3.962-4.227,5.948-6.339l5.921-6.363c1.963-2.129,3.992-4.222,5.831-6.421q5.641-6.523,11.3-13.062c3.721-4.382,7.226-8.877,10.861-13.313,1.782-2.235,3.655-4.432,5.367-6.7l5.175-6.793c7.039-9.013,13.536-18.259,20.216-27.47l9.62-13.977,2.416-3.5,2.325-3.528,4.659-7.063c5.474-8.106,10.441-16.267,15.573-24.337q3.7-6.084,7.372-12.141c2.452-4.038,4.9-8.068,7.224-12.109a2.588,2.588,0,0,1-1.305-.209c-1.445-.83-1.9-3.138-1.551-6.364-5.327,9.1-11.088,18.141-16.821,27.176-5.939,8.988-11.869,17.981-18.253,26.826-15.043,26.263-31.669,52.279-51.516,77.315-2.384,3.176-5.069,6.207-7.646,9.3l-7.87,9.237q-8.212,9.068-16.908,17.969-4.533,4.319-9.091,8.666c-3.083,2.863-6.057,5.813-9.378,8.523q-4.9,4.107-9.839,8.244c-1.665,1.358-3.289,2.755-5.006,4.075l-5.249,3.888-7.221,5.25c-2.428,1.7-4.726,3.5-7.259,5.046q-7.454,4.77-14.824,9.313c-2.414,1.564-5.011,2.892-7.537,4.277l-7.588,4.073-7.55,3.982q-3.9,1.773-7.767,3.538l-7.734,3.464c-2.589,1.109-5.1,2.354-7.751,3.293l-15.688,5.881q-7.905,2.506-15.8,5.011c-2.618.872-5.283,1.518-7.933,2.227s-5.3,1.393-7.953,2.092a466.55,466.55,0,0,1-79.065,21.723,605.93,605.93,0,0,1-79.763,9.16c-2.112.259-4.324-.015-5.092-.586s.365-1.194,2.5-1.448c18.132-2.12,36.582-4.819,55.142-8.148,4.648-.892,9.278-1.594,13.944-2.63l13.977-2.937c9.332-2.247,18.663-4.362,27.973-7.092-6.351-.626-10.313-2.331-10.343-5.089-.055-2.856,4-6.248,10.461-9.4l-12.476,2.489-12.5,2.012c-5.164.832-9.371.214-9.416-1.161-.1-1.528,3.806-3.073,8.651-3.912l12.612-2.079,12.569-2.54c4.2-.779,8.357-1.863,12.524-2.869,4.158-1.058,8.352-1.926,12.47-3.2l12.4-3.59c4.111-1.292,8.184-2.74,12.277-4.108,2.041-.707,4.1-1.36,6.124-2.115l6.046-2.373,6.046-2.381c2.014-.8,4.04-1.561,6-2.5l13.947-7.06,13.517-7.789c4.561-2.489,8.827-5.436,13.159-8.264l6.479-4.259c1.069-.722,2.175-1.393,3.214-2.157l3.11-2.3,12.415-9.184c4.028-3.186,7.943-6.5,11.913-9.745,1.958-1.65,4-3.213,5.886-4.935l5.674-5.159,5.67-5.156,2.834-2.579,2.716-2.69a40.67,40.67,0,0,1-3.865,1.6,32.671,32.671,0,0,1-3.586.96,14.6,14.6,0,0,1-5.781.2.123.123,0,0,1-.038-.03c-4.706,4.083-9.265,8.3-14.215,12.053A336.413,336.413,0,0,1,401,983.359c-6.461,3.558-13.23,6.4-19.931,9.506-1.67.794-3.376,1.479-5.089,2.149l-5.137,2.039c-3.439,1.315-6.843,2.8-10.334,3.965-6.977,2.336-13.937,4.913-21.049,6.829l-10.651,3.047-10.745,2.612c-28.725,6.877-58.064,10.369-87.316,11.912-29.283,1.562-58.478.722-87.425-1.3-2.273-.106-4.116-.722-4.116-1.385s1.785-1.087,3.821-.923c34.872,2.507,70.129,3.067,105.349.167l-.146-.021c-1.448-.284-1.757-.986-.232-1.561a13.048,13.048,0,0,1,5.509-.438c1.664.329,1.569,1.044.272,1.549l6.145-.548,6.144-.727c4.093-.506,8.182-.971,12.267-1.531,8.161-1.307,16.313-2.451,24.408-4.181l6.072-1.21,3.03-.609,3.019-.722,12.043-2.916c4-.995,7.965-2.238,11.937-3.356l5.943-1.727c1.973-.606,3.925-1.307,5.884-1.959,3.912-1.335,7.824-2.638,11.708-4.017l11.517-4.551c3.852-1.446,7.593-3.213,11.341-4.92l5.612-2.57c1.873-.843,3.733-1.71,5.546-2.7l10.912-5.72c1.833-.917,3.588-1.979,5.34-3.044l5.257-3.168c3.484-2.14,7.02-4.169,10.417-6.4l10.007-6.949a331.808,331.808,0,0,1-81.694,37.789l-10.784,3.19c-3.6,1.041-7.253,1.845-10.877,2.77-7.243,1.914-14.585,3.248-21.9,4.727-3.653.766-7.346,1.227-11.017,1.845-3.679.538-7.344,1.244-11.037,1.625-7.374.867-14.739,1.823-22.125,2.315l-9.536,2.177-9.66,1.883c-1.77.276-4.133.061-4.885-.478-.53-.491.734-1.24,2.549-1.519l5.371-.99c-11.194.649-19.9-1.812-19.852-5.116.229-1.723,2.682-3.346,6.481-4.588a60.314,60.314,0,0,1,14.625-2.62c3.8-.309,7.578-.789,11.357-1.252s7.562-.857,11.324-1.4c7.515-1.164,15.05-2.137,22.5-3.611a440.739,440.739,0,0,0,44.281-10.215l9.242-3.361c3.032-1.376,5.933-3,8.848-4.584a392.9,392.9,0,0,1-68.452,14.346,539.591,539.591,0,0,1-69.561,3.719c-3.977.11-7.39-.782-7.5-1.969s3.065-2.255,7.03-2.361c40.436-3.643,80.5-10.51,118.2-23.149A339.046,339.046,0,0,0,395.5,943.742l12.744-7.332c2.158-1.147,4.149-2.618,6.22-3.933l6.16-4.032c2.034-1.375,4.153-2.6,6.12-4.089l5.944-4.383c3.95-2.937,7.992-5.722,11.744-8.958,17.564-19.716,32.677-41.2,46.309-64l-6.764,7.264c-14.377,15.387-28.529,29.5-42.956,42.638l-5.415,4.9-2.7,2.452-2.79,2.286-11.088,9.235q-5.731,4.324-11.429,8.623c-.955.719-1.894,1.468-2.861,2.165l-2.957,1.979-5.919,3.988A288.719,288.719,0,0,1,285.9,976.864c-2.084.433-3.905.154-4.259-.393-.306-.56,1.034-1.347,3.158-1.637A295.752,295.752,0,0,0,341.5,957.787,329.051,329.051,0,0,0,392.212,931.4l9.947-6.509c1.672-1.015,3.2-2.3,4.79-3.447l4.7-3.51c6.344-4.46,12.124-9.7,17.961-14.57,1.476-1.19,2.863-2.519,4.241-3.852l4.131-3.95,4.095-3.929,2.034-1.956c.662-.672,1.3-1.385,1.948-2.074,5.132-5.609,10.329-10.907,14.974-16.868-5.3,5.5-10.98,10.334-16.411,15.513-1.345,1.317-2.765,2.507-4.184,3.694l-4.229,3.606L432,897.178c-1.393,1.227-2.791,2.446-4.262,3.53l-8.674,6.793c-1.458,1.107-2.843,2.358-4.359,3.359L410.228,914l-8.943,6.346-9.252,5.78-4.631,2.924c-1.536.994-3.175,1.785-4.76,2.691l-9.617,5.293c-6.627,3.18-13.19,6.589-20.132,9.348-6.8,3.067-13.954,5.456-21.057,8.081-7.268,2.23-14.514,4.656-22.052,6.437a17.272,17.272,0,0,1-7.1.828c-.078.362-.561.769-1.348,1.092-3.679,1.448-7.575,2.821-11.61,4.139-4.03,1.34-8.287,2.323-12.563,3.434a7.363,7.363,0,0,1-4.717,0C271.517,970,272.461,969.273,274.262,968.675ZM1135.177,319.3l1.619.551-5.572-.661-1.019-.5-2.428-1.2-4.749-2.164,3.816,1.139C1129.128,317.175,1132.172,318.259,1135.177,319.3Zm96.951-18.626-.055,0c2.474,1.783,4.262,3.075,4.262,3.075ZM750.84,616.752q3.17-5.5,6.329-10.979c2.142-3.61,4.325-7.143,6.505-10.7,4.322-7.17,8.911-13.911,13.464-20.757,9.32-13.343,18.972-26.281,29.507-37.95-2.132,3.2-4.307,6.323-6.4,9.564l-6.21,9.826C779.357,574.966,765.084,595.409,750.84,616.752ZM1198.8,334.875a105.4,105.4,0,0,1-11.286-4.244c-1.729-.752-3.394-1.561-5.023-2.321-1.629-.732-3.219-1.478-4.8-2.233-2.781.369-5.622.648-8.5.837l-8.75.478-11.812.445c-3.915.163-7.8.5-11.679.707-7.766.33-15.414,1.169-23.055,1.722,2.218,1.433-1.443,1.677-3.249,2.2-1.873.468-3.726.93-5.576,1.393l6.072-.594c2.029-.158,4.068-.247,6.1-.374l12.206-.7,12.269-.211,6.147-.085,6.17.144,11.3.153,11.44.53,5.674.291c1.88.134,3.743.352,5.587.54C1191.719,333.942,1195.325,334.375,1198.8,334.875Zm110.8,9.413c.375.332.714.629,1.147.976l-3.525,1.634Zm5.7-2.853-2.119-.978C1314.227,339.773,1314.854,340.311,1315.294,341.435Zm-19.78-8.463a14.411,14.411,0,0,0,2.617,2.046Zm-.229-76.668q-6,5.292-11.771,10.635,6.147-5.014,12.531-9.967Z" transform="translate(-139.203 -157.145)"/></g></g></svg>