<svg xmlns="http://www.w3.org/2000/svg" width="14.006" height="14.006" viewBox="0 0 14.006 14.006"><path d="M13.787,6.565H12.233A5.248,5.248,0,0,0,7.441,1.773V.219A.219.219,0,0,0,7.222,0H6.784a.219.219,0,0,0-.219.219V1.773A5.248,5.248,0,0,0,1.773,6.565H.219A.219.219,0,0,0,0,6.784v.438a.219.219,0,0,0,.219.219H1.773a5.248,5.248,0,0,0,4.793,4.793v1.554a.219.219,0,0,0,.219.219h.438a.219.219,0,0,0,.219-.219V12.233a5.248,5.248,0,0,0,4.793-4.793h1.554a.219.219,0,0,0,.219-.219V6.784A.219.219,0,0,0,13.787,6.565ZM7,11.38A4.377,4.377,0,1,1,11.38,7,4.382,4.382,0,0,1,7,11.38Zm0-7A2.626,2.626,0,1,0,9.629,7,2.626,2.626,0,0,0,7,4.377ZM7,8.754A1.751,1.751,0,1,1,8.754,7,1.753,1.753,0,0,1,7,8.754Z"/></svg>