<svg xmlns="http://www.w3.org/2000/svg" width="47.05" height="62.733" viewBox="0 0 47.05 62.733"><defs><style>.a{fill:#ee7600;}.b{fill:#fff;}</style></defs><g transform="translate(-872.975 -3040.133)"><path class="a" d="M21.107,61.468C3.3,35.659,0,33.01,0,23.525a23.525,23.525,0,0,1,47.05,0c0,9.485-3.3,12.134-21.107,37.943a2.942,2.942,0,0,1-4.835,0Z" transform="translate(872.975 3040.133)"/><g transform="translate(532.771 2465.338)"><path class="b" d="M376.076,596.111h-4.41v-2.646a.881.881,0,0,0-.353-.705l-6.7-5.027v-.441h4.41a.882.882,0,0,0,.882-.882v-3.528a.882.882,0,0,0-.882-.882h-5.292a.882.882,0,0,0-.882.882v4.851l-6.7,5.027a.881.881,0,0,0-.353.705v2.646h-4.41a.882.882,0,0,0-.882.882v10.583a.882.882,0,0,0,.882.882h24.694a.882.882,0,0,0,.882-.882V596.993A.882.882,0,0,0,376.076,596.111Zm-7.937-10.583h-3.528v-1.764h3.528Zm-15.875,12.347h3.528v8.819h-3.528Zm12.788,8.819h-2.646v-3.528h2.646Zm4.851,0h-3.087v-4.41a.882.882,0,0,0-.882-.882h-4.41a.882.882,0,0,0-.882.882v4.41h-3.087V593.906l6.174-4.63,6.173,4.63Zm5.292,0h-3.528v-8.819h3.528Z"/><path class="b" d="M526.5,761.528A3.528,3.528,0,1,0,530.028,758,3.532,3.532,0,0,0,526.5,761.528Zm5.292,0a1.764,1.764,0,1,1-1.764-1.764A1.766,1.766,0,0,1,531.792,761.528Z" transform="translate(-166.299 -166.299)"/></g></g></svg>