<svg xmlns="http://www.w3.org/2000/svg" width="28.489" height="22.792" viewBox="0 0 28.489 22.792"><defs><style>.a{fill:#ee7600;}</style></defs><path class="a" d="M18.929,18.09a1.427,1.427,0,0,0,1.014.423h2.849a1.424,1.424,0,0,0,1.424-1.424V14.24a1.425,1.425,0,0,0-.423-1.013L10.981.532a1.832,1.832,0,0,0-2.593,0L6.235,2.687A1.846,1.846,0,0,0,5.7,4a1.811,1.811,0,0,0,.549,1.3ZM12.885,4.447l9.906,9.793v2.849H19.942L10.154,7.18l2.731-2.733ZM7.242,3.694,9.4,1.539a.41.41,0,0,1,.29-.12.4.4,0,0,1,.287.12l1.982,1.983L9.224,6.254,7.242,4.272a.409.409,0,0,1,0-.578ZM9.971,18.157a.356.356,0,0,0,.356.356h7.016l-1.412-1.424h-5.6a.356.356,0,0,0-.356.356Zm.356-3.917h2.782L11.7,12.815h-1.37a.356.356,0,0,0-.356.356v.712A.356.356,0,0,0,10.327,14.24ZM27.065,5.693H18.213l1.438,1.424h7.414V21.362H1.424V7.117h4.63l-.8-.807a3.261,3.261,0,0,1-.484-.618H1.424A1.424,1.424,0,0,0,0,7.117V21.362a1.424,1.424,0,0,0,1.424,1.424h25.64a1.424,1.424,0,0,0,1.424-1.424V7.117A1.424,1.424,0,0,0,27.065,5.693ZM6.054,18.869h.712a.356.356,0,0,0,.356-.356V17.8a1.982,1.982,0,0,0,1.9-2.006,2.014,2.014,0,0,0-1.406-1.931l-2-.6a.581.581,0,0,1-.39-.567.559.559,0,0,1,.525-.587H7a1.068,1.068,0,0,1,.571.166.365.365,0,0,0,.451-.032l.523-.5a.356.356,0,0,0-.025-.54,2.544,2.544,0,0,0-1.4-.505V9.966a.356.356,0,0,0-.356-.356H6.054a.356.356,0,0,0-.356.356v.718A1.982,1.982,0,0,0,3.8,12.69,2.014,2.014,0,0,0,5.2,14.622l2,.6a.581.581,0,0,1,.39.567.559.559,0,0,1-.525.587H5.821a1.072,1.072,0,0,1-.568-.166.365.365,0,0,0-.451.032l-.525.5a.356.356,0,0,0,.025.54,2.548,2.548,0,0,0,1.4.505v.725A.356.356,0,0,0,6.054,18.869Z" transform="translate(0 0.005)"/></svg>