<svg xmlns="http://www.w3.org/2000/svg" width="49.168" height="39.335" viewBox="0 0 49.168 39.335"><defs><style>.a{fill:#0c9418;}</style></defs><path class="a" d="M32.668,31.224a2.463,2.463,0,0,0,1.749.731h4.917A2.458,2.458,0,0,0,41.793,29.5V24.579a2.459,2.459,0,0,0-.73-1.749L18.951.923a3.161,3.161,0,0,0-4.474,0L10.76,4.641A3.187,3.187,0,0,0,9.834,6.9a3.125,3.125,0,0,0,.948,2.236ZM22.238,7.678l17.1,16.9V29.5H34.418l-16.894-17.1,4.714-4.717ZM12.5,6.379,16.216,2.66a.708.708,0,0,1,.5-.207.691.691,0,0,1,.5.207l3.421,3.422L15.92,10.8,12.5,7.376a.705.705,0,0,1,0-1Zm4.71,24.961a.615.615,0,0,0,.615.615H29.932L27.5,29.5H17.823a.615.615,0,0,0-.615.615Zm.615-6.761h4.8l-2.436-2.458H17.823a.615.615,0,0,0-.615.615v1.229A.615.615,0,0,0,17.823,24.579ZM46.71,9.829H31.433l2.481,2.458h12.8V36.871H2.458V12.287h7.99L9.065,10.9A5.627,5.627,0,0,1,8.23,9.829H2.458A2.458,2.458,0,0,0,0,12.287V36.871A2.458,2.458,0,0,0,2.458,39.33H46.71a2.458,2.458,0,0,0,2.458-2.458V12.287A2.458,2.458,0,0,0,46.71,9.829ZM10.448,32.569h1.229a.615.615,0,0,0,.615-.615V30.716a3.421,3.421,0,0,0,3.278-3.463,3.476,3.476,0,0,0-2.426-3.333L9.687,22.883a1,1,0,0,1-.674-.978.965.965,0,0,1,.906-1.013h2.16a1.844,1.844,0,0,1,.985.286.631.631,0,0,0,.778-.056l.9-.861a.615.615,0,0,0-.044-.933,4.391,4.391,0,0,0-2.408-.872V17.2a.615.615,0,0,0-.615-.615H10.448a.615.615,0,0,0-.615.615v1.238A3.421,3.421,0,0,0,6.555,21.9a3.476,3.476,0,0,0,2.426,3.333l3.457,1.037a1,1,0,0,1,.674.978.965.965,0,0,1-.906,1.013h-2.16a1.85,1.85,0,0,1-.981-.286.631.631,0,0,0-.778.056l-.907.861a.615.615,0,0,0,.044.933,4.4,4.4,0,0,0,2.409.872v1.251A.615.615,0,0,0,10.448,32.569Z" transform="translate(0 0.005)"/></svg>