<?xml version="1.0" encoding="utf-8"?>
<!-- Generator: Adobe Illustrator 24.0.3, SVG Export Plug-In . SVG Version: 6.00 Build 0)  -->
<svg version="1.1" id="Layer_1" xmlns="http://www.w3.org/2000/svg" xmlns:xlink="http://www.w3.org/1999/xlink" x="0px" y="0px"
	 viewBox="0 0 203.7 232.9" style="enable-background:new 0 0 203.7 232.9;" xml:space="preserve">
<style type="text/css">
	.st0{opacity:0.3;}
	.st1{fill-rule:evenodd;clip-rule:evenodd;fill:#EE7600;}
</style>
<g transform="translate(-1169.701 -176.941)" class="st0">
	<path class="st1" d="M1253.5,380.7c-0.2,0.3-0.7,0.5-1.1,0.4c0.1-0.5-0.2-0.7,0-1.2l0.7,0.1
		C1252.7,380.5,1252.8,380.7,1253.5,380.7z M1222.2,369.3c0.6,0.1,1.4,1.4,1.8,0.3C1223.3,369.4,1222.7,368.6,1222.2,369.3
		L1222.2,369.3z M1219.9,347.6c-0.4-0.3-0.8-0.5-1.3-0.3C1218.5,347.9,1219.3,348,1219.9,347.6L1219.9,347.6z M1189.9,320.4l-0.4-1
		C1188.5,319.5,1189.2,321.1,1189.9,320.4L1189.9,320.4z M1190.9,317.6c1.5-0.6-0.6,1.4,1,1c-0.1-0.5-0.1-1.1,0-1.6
		C1191.6,317.2,1190.9,317.3,1190.9,317.6L1190.9,317.6z M1199.1,313.6c-0.1-0.4-0.5-0.7-0.9-0.7
		C1197.4,313.4,1198.3,313.7,1199.1,313.6L1199.1,313.6z M1200.3,311.1c-0.3-0.7-0.7-1.5-0.1-2c-0.9,0.6-0.6,0.1-1.2,0
		C1198.2,309.8,1199.5,310.8,1200.3,311.1L1200.3,311.1z M1191.6,281.1c-0.2,0.7,0.2,1,0.8,1.2
		C1192.2,281.8,1192.3,281.2,1191.6,281.1L1191.6,281.1z M1194,268.5c-1.2,0.1,0.1-0.9-0.7-1c0,0.9-1.5,2.1-0.5,2.6
		C1193.2,269.2,1192.8,268.8,1194,268.5L1194,268.5z M1195.6,232.9c0.3,0.4-0.6,0.9-0.1,1.3c0.7,0,0.1-0.6,0.8-1.2
		c-0.7-0.8-2-0.7-1.5,0.1C1195,233,1195.3,232.9,1195.6,232.9L1195.6,232.9z M1231.1,203.3c-0.3,0.1-0.5,0.2-0.7-0.3
		c-0.8,0.7-1.7,1.1-1.4,1.8C1229.5,203.8,1230.9,204,1231.1,203.3L1231.1,203.3z M1251.9,194.7c-0.5,0.1-0.9,0.6-0.9,1.1
		C1251.6,195.6,1252.4,195.7,1251.9,194.7L1251.9,194.7z M1272.5,189.4c0.4,0.1-0.1,0.3-0.2,0.6c1.7-0.4,2.6-0.3,4-0.6
		C1275.1,188.8,1273.5,188.5,1272.5,189.4L1272.5,189.4z M1289.6,192.1c-0.4,1.1,1.2,1.4,1.2,0.2
		C1290.2,192.2,1289.9,192.7,1289.6,192.1L1289.6,192.1z M1291,197.3c0.1,0.3,1.4,1,1.4-0.1C1291.6,197.4,1291.5,196.8,1291,197.3
		L1291,197.3z M1265.2,204.2l0-0.2c-0.3,0.1-0.7,0.2-1,0.4L1265.2,204.2z M1179.3,300.5c-0.6-4.3-1.1-9.2-1.3-14.3
		c-0.2-5.1-0.1-10.3,0.5-15.4l0.9,0.1c-0.5-0.2-1.3-1.9-0.1-1.2c-1.1-1.2,0.3-3.1,0.1-4.3c1.3,3.2,1,8-0.1,11.1
		c1-0.6,1.2,2.3,0.2,1.6c1.4,2.5,0.6,4.4,1.6,7.1c-0.4-0.2-0.7-0.2-0.9,0.2c1,0.6,1.3,1.9,0.7,2.9c0,0,0,0,0,0
		c-0.2,0.6,0.6,0.4,0.6,0.9c0.3-1.2,2.2-4.1,3.1-1.7c-1,0.4-0.2-0.7-0.9-0.6c-1.2,0.6-0.3,2.1,0.7,2.4c0.9,0-0.5-1.6,0.8-1.3
		c0.5,2,0.2,2.8,1.4,3.5c-1.1,1.5,0,4.2,1.1,4.8c-0.6,0.8-0.9,1,0,1.7c-0.3-0.1-0.8,0-0.9-0.3c-0.7,1-0.6,1.5-0.1,2.6
		c-0.7-0.1-1.4-0.4-1.7,0.3c0.5-0.1,1.4,0.5,0.5,1.2c1.1,0.6,1.8,1,1.7,2.3c-1,0.1-1.2-0.9-1-1.6c-0.5,0.1-0.5,0.4-1.1,0.4
		c0.6,0.8,0.9,1.7,1,2.7c1,0,0.3-0.8,0.3-1.2c0.9-0.3,0.4,1,1.4,0.6c-0.3,0.6-1.7,0.8-1.4,1.7c1.4-0.1,0.2-0.1,0.6,1.2
		c0.2-0.2,0.3-0.5,0.4-0.8c0,0.9,0.1,2.4,0.2,3.8c1.4,0.2,0,0.9-0.3-0.1c-0.2,0.1-0.2,0.3-0.5,0.4c-0.3,1,0.5,1.2-0.3,2
		c0.5,0.5,1.5-0.5,0.9-1c1.1,0.1-0.2,1.9,1.3,1.2c0,0.4-1,1.5,0,1.6c0.1,0.7-0.7,0-1.1,0.4c0.3,0.7,1.4,0.1,1.6,0.8
		c-0.7,0-1.2-0.4-2-0.2c0.2,0.8,1.1,0.5,1.4,1.2c-0.5,0.2-0.1,0.7-0.9,0.8c0.6-1-0.2-1-0.9-1.6c-0.5,0.5,0.5,3,1.5,3
		c-0.2,0.5,0.7,1.3-0.3,1.6c-0.5-0.6,0.2-0.8-0.3-1.4c-0.5,0.1-0.4,0.4-0.4,0.6c-0.9-0.4-0.1-1.9-1-2.5c-0.2-0.3-0.3,0.2-0.8,0.3
		c-1-0.3,0.1-1.9-1.2-1.5c0.8-1.2-0.9-2.7-1.6-3.6c1-1.2-0.2-2.4-0.2-3.8c-1.2,0.8-0.2,1.5-0.1,2.9c-1.2-0.2-0.2-1.7-1.1-2.6
		c1.3-0.1-0.6-1.6,1.1-1.5c-0.9-1.1-0.8-1.6-0.5-3C1179.6,304.7,1180.5,301.3,1179.3,300.5z M1184.1,297.3c-1.1,0.4-0.7,2.3,0.1,2.7
		C1184.7,299.3,1184.1,298.1,1184.1,297.3L1184.1,297.3z M1184,296.8c0.4-0.4,0.3-1.6-0.8-1.2C1183.3,296.1,1183.6,296.6,1184,296.8
		L1184,296.8z M1186.4,312.2c-0.2-0.3-0.1-0.8-0.5-0.8c0,0.4-0.8,0.5-0.3,1L1186.4,312.2z M1187,310.2c0.2-1.2-1.9-1-1.4-1.7
		c0.3-0.1,0.8,0.8,0.9,0c-0.9,0,0-0.7-0.3-1.1l-1.1,0.3C1184.3,309.1,1185.9,309.8,1187,310.2L1187,310.2z M1185.1,296.5
		c0.1,0.8,0.1,1.7,0.9,1.8C1186.1,297.5,1186.2,296.6,1185.1,296.5L1185.1,296.5z M1185.2,294.9c0,0.6,0.2,0.9,1,0.8
		C1186.2,295.1,1186,294.8,1185.2,294.9L1185.2,294.9z M1183.8,292.5c0.3-0.7,1,0.1,1.7-0.1c0-1.3-0.3-2.4-1.4-2.7
		C1184,290.5,1183.9,291.5,1183.8,292.5L1183.8,292.5z M1183.8,295.3c-0.2-0.9,0.2-1.9,0.9-2.5
		C1183.7,292.5,1181.8,295.1,1183.8,295.3L1183.8,295.3z M1182,291.7c0.3,0.8,0.2,2.1,0.5,1.7C1182.9,292.9,1183.2,291.9,1182,291.7
		L1182,291.7z M1265.2,382c-1,0.5-1.3-0.4-1.9,0.1c0.1,0.6,1.3,0,1.4,0.7c-1.6,0.9-2.4-1.2-4-1.3c-0.1,0.3-0.1,0.8-0.3,0.8
		c-0.1-0.4-0.3-0.9-0.6-1.2c-1.7,0.5-4.6-1.2-6.1,0.2c0.3,0.5,1.7,0.5,0.7,1.3c1.2,0.3,0.3-0.8,0.9-1c0,0.2,0.1,0.4,0.4,0.4
		c0,0,0,0,0,0s0,0,0,0h0c-0.5,1.1,1.6,0.4,2.3,1.2c0.7-0.3-0.3-0.9,0.4-1.1c0.4,1,1.4,1.3,1.4,0.2c-0.2,0.4,1.9,0.1,1.1,1
		c2.6,0.1,2.3,0.6,4.4,0.4C1265.1,382.7,1265.3,383,1265.2,382L1265.2,382z M1220.9,366.8c-0.3,0.4-0.7-0.2-0.9,0.1
		c0.4,0.1,0.1,1.3-0.4,1.1c-0.1-0.6-0.7,0.1-1.5,0.2c1.4,0,3,1.3,3.9,0.6c-0.6,0.1-1.2-0.2-1.4-0.9
		C1220.5,367.5,1220.6,367.1,1220.9,366.8L1220.9,366.8z M1209.2,318.6c0.4,0.3,0.2,0.8,0.7,0.8c0-0.2,0.1-0.3,0.4-0.4
		c-0.2-0.4-0.4-0.8-0.9-0.7c0.1-0.2,0.1-0.4,0.3-0.5c-0.8,0.4-1.9-0.9-1.1-1.4c0.1,0.2,0.2,0.5,0.5,0.3l-0.2-0.5
		c-0.7,0.1-0.7,0.4-1.5,0.3c0.8,0.7,0.8,1.2,1.5,2.2C1209,318.8,1209.1,318.7,1209.2,318.6L1209.2,318.6z M1199.7,316.7
		c0.8,0.8,0.4,1.7,1,2.1C1200.8,318,1200.7,317,1199.7,316.7L1199.7,316.7z M1188.8,321.6c-0.5,1.4-1.5,0-2.1,0.9
		c0.9-0.4,1.3,0.5,2.1,0.3C1188,322.3,1189.3,322.2,1188.8,321.6L1188.8,321.6z M1191.2,316.8c-0.3-0.6,0.2-0.9,0.4-1.3
		c-0.4,0.2-0.9-0.8-1-0.1c1.1,0.5-0.6,1.1-0.6,1.6C1190.5,317,1190.7,317.1,1191.2,316.8L1191.2,316.8z M1190.1,314
		c0,0.3-0.2,0.5-0.7,0.7c0.6,0.5,0.3,0.7,0.2,1.3C1190.6,315.7,1190.2,314,1190.1,314L1190.1,314z M1201.3,308.8
		c0-0.7,2.1-1.9,0-1.8c0,0.4,0.5,0.2,0.7,0.4C1201.5,307.6,1200.1,308.6,1201.3,308.8L1201.3,308.8z M1194.1,236.9
		c-0.7,0.1-2-0.4-1.6-0.1C1192.6,237.5,1194,237.5,1194.1,236.9L1194.1,236.9z M1201.6,226.2c0.5-0.8,1.6-0.8,1.1-1.8
		c-0.5,0.1-1.5,0.8-1.7-0.2c0.2,0.9-2.1,1.4-1.3,1.6C1200.3,225.6,1201.7,225,1201.6,226.2L1201.6,226.2z M1179.9,205.4l-0.5-2
		c-0.7,1.2-1.2,2.4-0.2,3.4C1179.3,206.3,1180.4,205.8,1179.9,205.4L1179.9,205.4z M1249.2,193.9c-0.4-0.2-0.9,0-1.2-0.6
		c1.1-0.4,3.1,0.7,2.3-0.6c-0.2,0.8-1.5,0-1.9-0.4c-0.1,0.7-2.1,2.2-1.4,1.9C1248,193.4,1249,194.7,1249.2,193.9L1249.2,193.9z
		 M1254.3,192.6c0.8,0.5,0.9,2.2-0.5,2.2c0,1,0.8,0.3,1.3,0.3c-0.2-1.3,0.6-2.7-0.5-3.4C1254.7,192.2,1254.4,192.2,1254.3,192.6
		L1254.3,192.6z M1258.9,193.1c0.4-0.3-0.6-1.1-0.6-2l0.9-0.2l0.2,1.4c0.6-1,2-0.9,1.4-2c0.4,0.4,1,0.1,1.1-0.5
		c-1.9-0.1-2.2,1-3.8,0.6c0,0.4,0,0.7-0.4,0.7C1258.7,191.9,1258.1,193,1258.9,193.1L1258.9,193.1z M1268.5,178.3
		c-0.5-0.4-1.8,0.1-1.4-1.3C1265.1,177.2,1267.9,179.3,1268.5,178.3L1268.5,178.3z M1312.1,207.9c0.8-1.3-0.4-1.5-1.1-2
		c0-0.3,0.1-0.6-0.1-0.7c-0.1,0.1-0.1,0.1-0.2,0.2c0-0.1,0-0.2,0-0.3l-0.2,0.5c-0.1,0-0.3-0.1-0.3,0.2c0.1,0,0.1,0.1,0.2,0.1
		c0,0.1-0.1,0.1-0.1,0.2c0.6,0.2,0.5,0.8,0.6,1.2c0.1-0.4,1.3-0.1,0.8-0.6c-0.6,0.2-0.7-0.1-0.7-0.4c0.4,0.2,0.7,0.4,1.1,0.7
		C1311.9,207.4,1311.6,207.8,1312.1,207.9L1312.1,207.9z M1323.4,193.7c0.9-0.7,1,0.1,1.7-0.4c-0.3-0.1-0.5-0.5-0.4-0.9
		c0.9,0,0.8,0.3,1.6,0.9c0.3-0.5,0-0.7,0.3-1.1c0.6,0.8,1.6,0.2,2.3,0.3c-0.7-0.3-0.4-1-1.1-1.3c-1.2,0.7-1.7,0-3.4-0.5
		c-0.2,0.5-0.6,0.4-0.9,0.5c0.6,0.3,0.6,0.9,0.8,1.4C1324,192.6,1322.9,193.4,1323.4,193.7L1323.4,193.7z M1213.3,363.8
		c-0.4-0.6-0.2-1.4-0.3-2c-1.2,0-1.9-1.8-3.6-2.4c1,0.6,0.6,1.5,0.6,2.3c1.2,0,1.2,0.9,2.3,0.6c-0.3,0.4-0.2,0.6,0.2,0.5
		c-0.5,0.5-0.9,1.1-0.5,1.4c0.9-0.3,1.9,0.2,2.8-0.1c-0.1,0.4-0.1,0.9-0.1,1.4c0.2-0.3,0.4-0.5,0.7-0.6c-0.4-0.2-0.3-0.6,0.1-1
		C1214.8,363.3,1214.1,363.9,1213.3,363.8z M1199.5,313.9c0.2,0.7,0.8,1.5-0.5,1.9c0.1,0.5,0.8,0.2,1.1,0.4
		c-0.4-0.4,0.4-0.6,0.6-0.9C1200.2,314.9,1200.5,313.4,1199.5,313.9L1199.5,313.9z M1308.8,195c0.6-2.3,1.8-2.9,3.2-2.8
		c-0.6,1.3,1,1.5,0.9,2.5c0.4-1.2,1.1-0.4,1.2-1.1c0,0.4,0.1,0.8,0.3,1.1c0.5-1.3,1.8-0.2,2.8-0.1c0.4-1,0.1-0.9,0.7-1.6
		c-0.7-1.3-3-2.4-3.7-3.1c-2.7,0.6-4.5-4.3-7.8-4.5c-2.2-0.1-3.9,2.1-4.1,5.7C1303.3,193.4,1305.8,196,1308.8,195L1308.8,195z
		 M1220.6,204.5c-0.1-0.3,0.1-0.7,0.4-0.9c0,0-0.1,0-0.1,0.1c-0.4-0.3,0.8-1.3,1.5-1.3c0.2,0.4-1.3,1.2-0.3,1.3
		c0.1,0.3-0.2,0.2-0.4,0.3c0.2,0.1,0.3,0.2,0.4,0.4l-0.6,0.4C1221.3,204.1,1221.2,204.1,1220.6,204.5L1220.6,204.5z M1221.1,203.5
		c0.1,0.1,0.2,0.2,0.3,0.3C1221.5,203.5,1221.5,203.3,1221.1,203.5L1221.1,203.5z M1250.9,190.7c-0.5,0.3-2,0-1.5,1
		C1250.1,191.5,1251.1,191.5,1250.9,190.7L1250.9,190.7z M1268,204.4c0.5,0,0.9-0.3,1.2-0.7C1268.8,203.2,1268.2,203.8,1268,204.4
		L1268,204.4z M1308.6,202.6l1,0.4C1310.3,202.4,1308.6,201.7,1308.6,202.6L1308.6,202.6z M1307,213.9c0.4,0.2,0.8,0.2,1.2-0.1
		C1308.4,212.9,1307.5,213.3,1307,213.9L1307,213.9z M1312.5,219.4c1.1-0.4,1.5,1.2,2.5,1.1c-0.2,0.3-0.5,0.7-0.3,0.8
		C1316.3,220,1313,217.9,1312.5,219.4L1312.5,219.4z M1322.6,223c0.3,0.6,0.7,1,1.3,0.6C1323.5,223.5,1323.1,222.5,1322.6,223z
		 M1335.5,231.7c-0.4-0.6-0.9-0.6-1.5-0.3C1334.5,231.6,1334.9,232.1,1335.5,231.7L1335.5,231.7z M1342.8,242.2
		c0.8-0.9,0.6,0.7,1.2,0.2c-0.6-0.7-0.4-2.6-1.5-2.2C1342.8,241.2,1343.4,241.2,1342.8,242.2L1342.8,242.2z M1366.3,267.5
		c-0.4,0.5,0.4,0.5,0.3,1.3c1,0.1,1.9-0.9,1-1.1c-0.1,0.3-0.2,0.6-0.4,0.8C1366.6,268.5,1366.9,267.4,1366.3,267.5L1366.3,267.5z
		 M1363.5,311.8c0.4,1-0.8,1.8-0.4,2.5c0.1-0.3,0.2-0.5,0.7-0.3C1363.8,313,1364.2,312.1,1363.5,311.8L1363.5,311.8z M1343.5,352.6
		c-1,1.5-1.6,2.1-2.4,3.3c1.2-0.4,2.5-1.4,2.6-2.7C1343.4,353.4,1343.6,352.9,1343.5,352.6L1343.5,352.6z M1338.8,359.2
		c2,0.4,0.3,0.2,0.7-0.6c0.2-0.5,1.4-0.5,0.8-1.6C1339.8,358,1339.1,358,1338.8,359.2L1338.8,359.2z M1333.1,364
		c0.6-0.6,2.1-1.9,1.7-2.1C1334,362.4,1333.4,363.1,1333.1,364L1333.1,364z M1328.8,363.9c0.5-0.4,0.3-0.9,1-0.7
		C1329.3,362.1,1328,363.1,1328.8,363.9L1328.8,363.9z M1318.9,202.8c0.2,1.6,1.8,1.6,2.9,2.5c0.3-1.4-0.9-1.2-2-2.1
		c0.9-0.7,1.4,1.1,2.6,1.1c-0.9,1,1.6,0.7,0.3,1.8c1.4,0.1,1.7,0.6,2.4,1.8c2-1.3,3.9,1.7,5.2,1.4c3.5,2.7,7.3,5.7,11.1,9.1
		c3.8,3.5,7.4,7.2,10.6,11.2l-0.7,0.5c0.5-0.2,2.3,0.5,0.9,0.8c1.6,0.1,2,2.4,2.9,3.1c-3.2-1.3-6.5-4.9-7.9-7.9
		c-0.3,1.1-2.5-0.7-1.3-1c-2.8-0.8-3.6-2.7-6.2-3.9c0.5-0.1,0.7-0.3,0.5-0.8c-1.1,0.3-2.3-0.4-2.6-1.6c-0.3-0.6-0.7,0.1-1.1-0.2
		c0.6,1,1.4,4.4-1,3.4c0.5-1,0.7,0.4,1.1-0.2c0.4-1.3-1.3-1.7-2.2-1.2c-0.6,0.6,1.5,0.8,0.4,1.5c-1.7-1.1-2.1-1.8-3.5-1.5
		c-0.3-1.8-3-2.9-4.2-2.6c-0.2-1-0.1-1.3-1.2-1.2c0.3-0.1,0.6-0.6,0.9-0.4c-0.2-1.2-0.6-1.5-1.8-2c0.6-0.4,1.3-0.7,1-1.4
		c-0.2,0.3-0.6,0.5-0.9,0.3c-0.3-0.2-0.4-0.5-0.3-0.8c-1.2,0.3-2,0.5-2.9-0.4c0.7-0.8,1.5-0.3,1.8,0.4c0.3-0.4,0.1-0.7,0.5-1.1
		c-1-0.1-1.9-0.6-2.6-1.3c-0.7,0.7,0.4,0.7,0.6,1.1c-0.4,0.8-1-0.5-1.4,0.5c-0.2-0.6,0.6-1.7-0.2-2.1c-0.9,1.1-0.1,0.2-1.3-0.4
		c0,0.3,0.1,0.6,0.3,0.8c-0.7-0.6-1.8-1.7-2.9-2.5c-1.2,0.8-0.6-0.6,0.3-0.2c0.1-0.2-0.1-0.4,0.1-0.6c-0.5-0.9-1.2-0.5-1.2-1.6
		c-0.7,0-0.7,1.4,0.1,1.3c-0.9,0.7-1.2-1.5-1.8,0.1c-0.3-0.3-0.4-1.7-1.2-1.2c-0.5-0.5,0.5-0.5,0.5-1c-0.7-0.3-1,0.9-1.7,0.5
		c0.5-0.5,1.1-0.6,1.6-1.2c-0.7-0.4-1.1,0.5-1.8,0.2c0.2-0.5-0.4-0.6,0.1-1.2c0.4,1.1,0.9,0.6,1.8,0.5c0-0.8-2.5-1.7-3.3-1.1
		c-0.2-0.5-1.4-0.4-0.9-1.3c0.7,0.1,0.4,0.7,1.2,0.8c0.3-0.4,0-0.6-0.2-0.7c0.9-0.3,1.5,1.3,2.5,1.1c0.4,0,0.1-0.4,0.4-0.8
		c0.9-0.5,1.3,1.4,2,0.2C1315.5,202.7,1317.8,202.6,1318.9,202.8z M1333.2,216.5c0.1,0.7,0.5,1.7,1.6,0.9
		C1334,217,1333.1,216,1333.2,216.5L1333.2,216.5z M1331.8,219.5c0.9,1,1.9,1.5,2.9,0.9c-0.5-0.8-1.1-1.6-1.8-2.3
		C1333.2,218.8,1332.1,218.8,1331.8,219.5L1331.8,219.5z M1330.9,216.1c0.8,0.5,1.2,1.5,1.1,2.4
		C1333,218.1,1332.4,214.9,1330.9,216.1L1330.9,216.1z M1329.6,215.2c0,0.6,0.9,1.3,1.4,0.3C1330.7,215.2,1330.1,215.1,1329.6,215.2
		L1329.6,215.2z M1328.9,217.6c0.4,0.4,0.8,0.5,1.2-0.2C1329.7,217,1329.3,216.9,1328.9,217.6L1328.9,217.6z M1327.3,213.2
		c0.1,0.8,1.4,1.2,2,1.8C1329.8,213.9,1328.1,212.8,1327.3,213.2L1327.3,213.2z M1327.2,215.6c0.5,0.7,1,1.3,1.9,0.7
		C1328.5,215.8,1327.8,215.1,1327.2,215.6L1327.2,215.6z M1318,207.9c0.8,1,2.1-0.7,2.2,0.2c-0.1,0.3-1.1,0-0.6,0.6
		c0.6-0.6,0.5,0.5,1,0.5l0.6-1C1320.7,206.7,1319.1,207.4,1318,207.9L1318,207.9z M1316.9,206c0.3,0.1,0.7,0.5,0.9,0.2
		c-0.3-0.3,0.3-0.9-0.5-0.9L1316.9,206z M1211.5,211.8c0.3-1.1,1.2-0.6,1.3-1.4c-0.5-0.3-1,0.9-1.5,0.5c0.5-1.7,2.6-0.9,3.7-1.9
		c-0.2-0.3-0.5-0.6-0.3-0.8c0.4,0.2,0.8,0.4,1.3,0.5c0.8-1.6,4.1-2.3,4.2-4.5c-0.5-0.1-1.6,0.9-1.5-0.4c-1.1,0.6,0.4,0.8,0.1,1.4
		c-0.1-0.1-0.4-0.2-0.5,0c0,0,0,0,0,0.1c-0.5-1.3-1.4,0.8-2.5,0.7c-0.2,0.7,0.9,0.4,0.5,1.1c-1-0.4-1.9,0-1.2,0.9
		c-0.2-0.4-1.4,1.3-1.5,0.1c-1.9,1.8-2.1,1.2-3.4,2.8C1211,211.3,1210.6,211.2,1211.5,211.8L1211.5,211.8z M1253.6,191.5
		c-0.1-0.5,0.6-0.3,0.6-0.7c-0.3,0.2-1-0.9-0.5-1.1c0.5,0.3,0.4-0.6,0.9-1.2c-1,0.9-3.1,1.2-3.2,2.3c0.3-0.5,1.1-0.7,1.6-0.4
		C1253.4,190.7,1253.6,191.1,1253.6,191.5L1253.6,191.5z M1269.1,191.6c1.6,0.2,2.1,0.5,3.5-0.2c-0.2-0.4-0.2-1.1-0.7-1.1
		c0.2-0.3,0.4-0.1,1.2-0.3c0.2,0.9,0.6,1.7,1.3,2.4c0.1-0.1,0.2-0.2,0.3-0.4c0,0.2-0.1,0.4-0.1,0.5c0.1,0,0.3-0.1,0.4-0.2
		c0-0.2-0.1-0.4-0.1-0.6c0.3-0.5,0.6-0.3,0.8-0.1c0.1-0.1,0.2-0.1,0.3-0.1c-0.1,0-0.2,0-0.2,0c0.2-0.6,0.7-0.7,1.2-0.9
		c0-0.2,0-0.4,0.1-0.6c0.9,0.3,0.9-1,1.4-0.3c0-0.2,0-0.5-0.1-0.7c-0.2,0-0.4,0.1-0.6,0.1c0-0.1,0.1-0.2,0.1-0.3c0,0,0,0-0.1,0
		c0.1-0.8,1.6,0.3,1.7-0.5c0.1,0,0.1,0.1,0.2,0.2c0.4-0.5-0.3-1.3,0.7,0.2c-0.3,0.2-0.7,0.3-1,0.3c-0.2,0.1-0.4,0.2-0.6,0.1
		c0.2,0.4,0.2,1.1,0.7,1.2c0.3-0.1,0.2-0.7,0.3-1.1c0.9,0.3,1.7,1.1,2-0.5c1.2,1.3,2.6,0.6,3.8,1.2c0.1-0.1,0.1-0.2,0.2-0.2
		c-0.1,0-0.3,0-0.4,0c-0.1-0.1,0.2-0.2,0.5-0.3c0-0.1-0.1-0.2-0.4-0.3c0.7-0.9,1.5,0.2,1.7-0.1c0.2,0,0.2,0.2,0.2,0.4
		c0.3,0,0.5,0,0.7,0c-0.2,0.1-0.5,0.2-0.7,0.3c0,0.1,0,0.1,0,0.2c0.8-0.1,0.9,0.8,1.2-0.1c0.2,1.2,1.6,1.2,1.8,2.3
		c-0.4-0.2-1.7-1.6-1.7,0.1c-0.3-0.1-0.1-0.6-0.1-0.9c-0.5,0.2-1,0.3-1.5,0.4c-0.3-0.6-0.6-1.1-1-1.6c-0.6,0,0.3,0.5-0.1,1.1
		c-0.5-1.2-1,0.5-1.1,0.6c0-0.1-0.1-0.3-0.1-0.4c0,0.4,0,0.5,0.1,0.4c0.2,0.6,0.6,1,1.1,1.3c0.9-0.2,1.7-0.2,2.6-0.1
		c0.3,0,0.3-0.5,0.4-0.8c0.6,0.4,0.6,0.7,0.3,1.5c0.1,0,0.2,0,0.3,0c0,0,0,0,0,0l0.2,0c0.6,0,0.8-0.2,1.1,0.5
		c0.4-0.1,0.6-0.4,0.6-0.8c4.8,1.4,8.9,1.6,12.4,1.9c-1,0.6,0.6,0.7-0.1,1.8c0.2-0.1,0.5-0.1,0.8-0.1c0.1-0.6-0.8-0.5-0.3-1.3
		c0.9,0.8,1.5,0.7,1.5,2.3c-0.6,0.7-0.8-1.7-1.3,0.2c-4.6-1.6-9.4-2.8-14.1-3.7c-0.1,0.4-0.3,0.7-0.7,0.6c0.1-0.2,0.1-0.5,0.1-0.7
		c-0.3-0.1-0.6-0.1-0.9-0.2c0,0.1,0,0.2,0,0.5c0-0.2-0.1-0.3-0.2-0.5c-0.3,0-0.6-0.1-0.9-0.1c-0.7,0.2-1.5,0.7-2.1-0.1
		c-0.1,0.2-0.2,0.5-0.3,0.7c-0.1-0.4-0.8-0.2-1-0.5c-0.2,0-0.4,0.1-0.5,0.1c-0.2,0.2-0.3,0.5-0.3,0.8c-0.6,0.1-1.8-0.5-2,0.2
		c0.3-0.3,0.6-0.6,1-0.8c-3.2,0-6.7-1.3-9.3-0.2c0.1-0.4,0.3-0.7,0.4-1.2c-0.7-0.2-0.8,0.3-1.4,0.3c-0.6-1.5-3.2,0.2-4-0.6
		C1268.4,192.8,1268.8,192.4,1269.1,191.6L1269.1,191.6z M1281.7,191.5C1281.7,191.5,1281.6,191.5,1281.7,191.5
		c-0.2,0.1-0.4,0.3-0.5,0.6C1281.5,192.1,1281.8,192.1,1281.7,191.5L1281.7,191.5z M1280.9,191.5c0,0,0.1,0,0.1,0
		C1281,191.5,1281,191.5,1280.9,191.5L1280.9,191.5z M1276.1,191.4c0.1,0,0.2,0.1,0.3,0.3c0,0,0,0,0.1-0.1
		C1276.5,191.4,1276.3,191.4,1276.1,191.4L1276.1,191.4z M1304.3,212.2c-1.1,0-1.5-0.9-2.2-0.8
		C1302.7,212,1303.4,212.6,1304.3,212.2L1304.3,212.2z M1309.4,198.9c-0.4,0.9-1.2,0.6-1.7,1.2c1-0.1,0.1,0.9,0.9,0.9
		C1307.9,199.7,1309.6,200,1309.4,198.9L1309.4,198.9z M1313,207.4c-0.2-0.2-0.2-0.5,0-1c-0.7,0-0.7-0.2-1.1-0.8
		C1311.5,206.5,1313,207.4,1313,207.4L1313,207.4z M1366.5,263.6c-0.6-0.5-1.5,0.5-1.2,1C1365.7,264.1,1366.9,263.5,1366.5,263.6
		L1366.5,263.6z M1370.1,306.9c-0.2,1-0.3,0.5-0.6,0.1c0,0.4-0.6,0.5-0.2,0.7c0.7-0.7,0.2,1,0.7,1.1
		C1370.4,308.4,1370.6,306.8,1370.1,306.9L1370.1,306.9z M1358.3,331.9c0,1.2-1.7,1-1.3,1.7c0.4-0.1,0.7-0.6,1.2-0.4
		c-0.4,1.1-2.7,1.7-1.2,2.1c-0.4-0.7,1-1.1,1.6-1C1358.3,333.7,1358.6,331.3,1358.3,331.9L1358.3,331.9z M1354.6,358.2
		c0.7-0.1,1.2-1.3,2-0.1C1357.7,356.6,1354.2,357,1354.6,358.2L1354.6,358.2z M1337.3,354.2c1.5-2.1-0.6-0.4-0.9,0
		C1336.7,354.2,1337,354.2,1337.3,354.2L1337.3,354.2z M1304.9,387.2c0.2-0.2,0.4-1.5-0.2-1.5c-0.1,1.1-0.8,0.6-0.9,1.5
		c0.3-0.1,0.7,0,0.9,0.3c-0.7,0.6-0.8,0.3-1.8,0.5c0.1,0.5,0.5,0.5,0.6,1c-1-0.1-1.3,1-1.8,1.4c0.7-0.3,1,0.4,1.7,0.1
		c0.4-1.3,1.2-1.2,2.7-2.1c-0.3-0.5,0.2-0.7,0.2-1C1305.8,387.8,1305.4,387.4,1304.9,387.2L1304.9,387.2z M1259.3,189.8
		c1.1,0,1.1-1,1.7-1.4c0.7,0.1,1.1,0.8,1.6,1.2c0.8-0.8,2.6,0,4.3-0.8c-1.1,0.3-1.5-0.7-2.1-1.3c-0.8,0.8-1.5,0.2-2.1,1.1
		c-0.1-0.5-0.3-0.6-0.5-0.2c-0.1-0.7-0.1-1.4-0.7-1.4c-0.4,0.9-1.5,1.2-1.9,2c-0.2-0.4-0.6-0.7-0.9-1c0.1,0.3,0,0.6-0.1,0.9
		C1259.1,188.9,1259.3,189.2,1259.3,189.8z M1305.5,212.3c-0.4-0.2-0.7,0.4-1.1,0.5c0.6,0,0.1,0.7,0.2,1c0.6,0,1.5,1.2,1.9,0.1
		C1305.9,213.6,1304.9,213.5,1305.5,212.3L1305.5,212.3z M1314.1,374.6c1.2,2,0.8,3.3-0.2,4.3c-0.5-1.4-1.7-0.4-2.4-1.2
		c0.6,1.1-0.5,1.1-0.1,1.6c-0.3-0.3-0.6-0.5-1-0.5c0.6,1.3-1.1,1.4-1.9,2c0.4,1,0.6,0.7,0.6,1.6c1.4,0.4,3.9-0.4,4.8-0.4
		c1.5-2.4,6.3-0.1,8.8-2.3c1.6-1.4,1.3-4.2-1.2-6.9C1319.2,371.8,1315.5,371.8,1314.1,374.6z M1353.5,230.3c0.5-0.3,0.4-0.6,0.8-0.9
		c-0.2-0.3-0.6-0.5-1-0.4c0.5,0.5,0.4,0.7-0.2,0.7L1353.5,230.3z M1368.7,258.3c-0.4-0.5-0.1-1.9-1.1-1.4
		C1367.9,257.5,1367.9,258.5,1368.7,258.3L1368.7,258.3z M1359.6,316l-0.4,1C1360,317.6,1360.6,315.9,1359.6,316L1359.6,316z
		 M1331.7,344.1c0.6-0.4,0.5-0.9,0.2-1.5C1331.8,343.1,1331.3,343.5,1331.7,344.1L1331.7,344.1z M1321.5,351.8
		c0.9,0.7-0.6,0.6-0.1,1.2c0.6-0.6,2.6-0.6,2.1-1.6C1322.5,351.8,1322.5,352.4,1321.5,351.8L1321.5,351.8z M1295.8,376.7
		c-0.1,1,1,1.8,1.2,0.9c-0.3,0-0.6-0.2-0.8-0.4c0-0.5,1.1-0.3,1-0.9C1296.6,375.9,1296.7,376.7,1295.8,376.7L1295.8,376.7z
		 M1249.8,375.6c0.3,0.1,0.5,0.2,0.3,0.7c1.1,0,2,0.3,2.2-0.4C1251.4,376.3,1250.5,375.2,1249.8,375.6L1249.8,375.6z M1230,368
		c-0.6-0.3-1.2-0.9-1.4,0.2C1229,368.5,1229.6,368.4,1230,368L1230,368z M1210.2,358.2c-1.5-0.9-2.2-1.5-3.4-2.2
		c0.5,1.1,1.5,2.4,2.8,2.5C1209.4,358.1,1209.9,358.3,1210.2,358.2L1210.2,358.2z M1206.3,354.8c0-0.1,0-0.1,0-0.2
		c-0.1-0.1-0.2-0.2-0.3-0.2c0.3-0.4,0.5-0.8,0.6-1.3c-0.6-0.4-0.8-1.1-0.5-1.7c0,0-0.1,0-0.1,0c-0.3,0-0.2,0.4-0.9,0.6
		c0-0.5-0.4-1-1-1c0,0,0,0,0,0c0-0.3,0.4-0.1,0.7-0.2c0-0.1,0.1-0.2,0.1-0.3c-0.7,0.2-1.3,0.6-1.8,1.1c-0.4-0.9-1.3,0.1-1.2-0.8
		c-0.5,0.4-0.5,0.8-0.1,1.1c-0.6,0.5-0.9-1.4-1.6-0.8c-0.2-0.7,0.9-0.4,1.1-0.1c0.1-0.4,0.6-0.9,0.4-1.3c-0.3-0.2-0.7,0.3-1,0.6
		c-0.4-0.7-0.4-1.7-1.3-1.3c0.4,0.3,0.7,0.6,1,1c-0.1,0.3-0.7-0.3-1.3-0.8c0,0,0,0-0.1,0c0,0,0-0.1,0-0.1c-0.3-0.3-0.6-0.6-0.8-0.7
		c0.3,0,0.5,0.1,0.8,0.3c-0.2-1.3-1.5-1.9-1.8-2.9c-0.5,0.1-0.7,0.2-0.5,0.7c-1.1,0.1-0.9-1.2-1.3-1.1c-0.1-0.2,0.3-0.5,0.5-0.7
		c-0.6-0.5-0.1-1.2-1-0.8c0.7-1-0.2-2,0.3-2.9c0.2,0.4,0,2.3,1.2,1.1c0.1,0.2-0.3,0.5-0.6,0.7c0.5,0.2,0.9,0.4,1.3,0.8
		c-0.2,0.6-0.3,1.2-0.4,1.8c0.4,0.4,0.2-0.6,0.9-0.7c-0.4,1,0.6,0.6,1,0.4c0.1-0.7-0.4-0.5-0.8-0.9c0.2-0.3,0.6-0.4,0.9-0.2
		c0.1,0.1,0.2,0.2,0.3,0.4c0-0.4,0-0.9-0.2-1.3c-0.2,0-0.4,0.1-0.6,0.2c-2.6-4.3-5.6-7.1-7.9-9.7c1.2,0.2,0-0.9,1.3-1.3
		c-0.3-0.1-0.5-0.2-0.6-0.5c-0.4,0.4,0.3,0.9-0.7,1.2c-0.1-1.2-0.7-1.5,0.5-2.7c0.9-0.1-0.6,1.8,1.1,0.7c1.9,3.2,3.4,5.7,5.2,8.3
		c0.3-0.2,0.7-0.2,0.9,0.1c-0.2,0.1-0.4,0.2-0.5,0.4c0.2,0.3,0.4,0.5,0.5,0.8c0.1-0.1,0.1-0.2,0.3-0.3c-0.1,0.1-0.2,0.3-0.2,0.4
		c0.2,0.3,0.4,0.5,0.6,0.8c0.7,0.3,1.6,0.6,1.3,1.7l0.2,0.2c2,0.8,3.4,2.5,4.7,4.3c0.2-0.1,0.4-0.2,0.6-0.3c0.5,0.3,0.8,1.1,1.3,1.2
		c-0.4,0-0.9,0-1.3-0.1c0.9,1.3,2.1,2.4,3.6,3.2c-0.1,0.1-0.2,0.1-0.3,0.2c0.5,0.6,0.8,1.1-0.6,0.3c-0.1,0-0.2,0.1-0.3,0.1
		c0.4,0.6,0.8,0.4,1.2,0.7c-0.1,0.2-0.1,0.4,0,0.6c0.3,0.1,0.6,0.1,0.9,0.2c0,0.3,0,0.5-0.2,0.7c0.1,0.1,0.2,0.2,0.3,0.2
		c0.9-0.6,1.3-0.3,2.1,0.2c-0.5,0.1-1.1,0.2-1.7,0.1c0.5,0.3,0.9,0.7,0.9,1.1c-0.3-0.7-0.9-0.6-1.6-0.2c-0.2-0.3-0.4-0.5-0.5-0.8
		c-0.8,0.2-0.7-0.5-0.8-0.9c-0.1-0.1-0.2-0.1-0.3-0.2c0,0-0.1,0-0.1,0c-0.2,0.3,0.1,0.5,0.3,0.7c-0.5,0.3-1,0-1.6-0.1
		c0,0.1,0,0.2,0.1,0.3c-0.2,0.1-0.3-0.1-0.6-0.2C1206.5,354.8,1206.4,354.7,1206.3,354.8L1206.3,354.8z M1207.5,353.7
		c-0.1,0-0.1,0-0.1-0.1c-0.1,0.2-0.1,0.4-0.2,0.5C1207.2,354,1207.4,353.9,1207.5,353.7L1207.5,353.7z M1198.7,345.4
		c0.3-0.2,0.3-0.3,0.2-0.3c0,0,0-0.1,0.1-0.2c-0.1,0.1-0.2,0.1-0.3,0.2c0.1,0,0.1,0,0.2,0C1198.9,345.2,1198.8,345.3,1198.7,345.4
		L1198.7,345.4z M1202.5,347.3c0,0-0.1-0.1-0.1-0.1c-0.6,0.6-0.7-1.1-1.4-0.1c0.2,0.4,0.6,0.6,1,0.7
		C1202.2,347.7,1202.4,347.5,1202.5,347.3L1202.5,347.3z M1203.3,353.8c-0.3,2-0.2,0.3,0.7,0.7c0.6,0.2,0.6,1.3,1.6,0.7
		C1204.5,354.8,1204.5,354,1203.3,353.8L1203.3,353.8z M1201.2,340.3c0.1-0.3-0.3-1.7-1.1-0.9
		C1200.9,339.8,1200.6,340.3,1201.2,340.3L1201.2,340.3z M1225.1,352.3l-0.1,0.2c0.3,0.1,0.7,0.3,1,0.4L1225.1,352.3z M1346.9,221.5
		c0.3-0.5-1-0.9-0.6-1.4c1.8,0.4,1,2.5,2.1,3.6c0.3-0.2,0.6-0.6,0.8-0.4c-0.2,0.4-0.3,0.8-0.4,1.3c1.6,0.7,2.6,3.9,4.7,3.9
		c0.1-0.5-0.9-1.5,0.3-1.5c-0.7-1-0.8,0.4-1.4,0.1c0.1-0.1,0.1-0.4,0-0.5c0,0,0,0-0.1-0.1c1.3-0.5-0.8-1.4-0.9-2.4
		c-0.7-0.2-0.4,0.9-1.1,0.6c0.4-1-0.1-1.9-0.9-1.1c0.4-0.2-1.4-1.4-0.1-1.5c-1.9-1.8-1.3-2-3-3.2c-0.6,0.9-0.5,0.5-1.1,1.4
		C1346.5,220.6,1346.1,221.5,1346.9,221.5z M1368,261c0.5-0.1,0.3,0.6,0.8,0.5c-0.2-0.3,0.8-1.1,1.1-0.5c-0.3,0.5,0.6,0.4,1.3,0.9
		c-1-1-1.4-3-2.5-3c0.6,0.3,0.8,1,0.4,1.6C1368.8,260.7,1368.4,261,1368,261L1368,261z M1372.5,293.8c-0.1,0.3-0.5,0.2-0.9,0.2
		c0.1,0.8-0.8,0.9,0.2,1.2c-1.2,0.3-1.1,1.6-2.2,1.9c0.2-0.4,1.6-1.7-0.1-1.7c0.1-0.3,0.5-0.1,0.9-0.2c-0.2-0.5-0.4-0.9-0.5-1.5
		c0.6-0.3,1.1-0.7,1.5-1.1c0-0.6-0.5,0.3-1.2-0.1c1.1-0.5-0.5-0.9-0.6-1.1c0.1,0,0.3-0.1,0.4-0.1c-0.4,0-0.5,0-0.4,0.1
		c-0.1,0-0.3,0.1-0.4,0.2c-0.1,0.2-0.3,0.4-0.5,0.4c-0.1,0.1-0.1,0.2-0.2,0.3c0.3,0.2,1,0.1,0.7,0.7c-0.4,0-0.7,0-1.1,0
		c-0.1,0.2-0.1,0.5-0.1,0.8c0.3-0.2,0.6-0.2,0.9-0.1c-0.1,1.3-0.8,4.3-2.1,3.9c0.1,0.3,0.7,0.3,1.1,0.4c0,0.9-1.1,0.6-1.8,0.7
		c0.4-0.9-0.8-0.8-0.4-1.6c-1.6,1.2-0.4,2.1-1,3.5c1,0,1.7-0.3,1.7-1.4c0.4,0.4,0.3,1.1,0.4,1.7c-0.5-0.1-0.7,0.2-1.2,0
		c-0.5,0.9,0.5,1,0.3,1.7c-0.5-0.1-0.6-0.4-1.1-0.4c3.2,3.3-1.4,4.8,0.4,8.2c-0.5-1-1.2-0.8-1.7-1.8c-0.4,0-0.4,0.4-0.1,0.4
		c-2.5-0.8-1.8,2-1.8,3.5c-0.8-0.6-0.6-1.5-0.9-2.3c-0.7,0.2-1.3,1.4,0.2,1.6c-0.6,0.6-0.4,0.9-0.5,1.7c-0.6,0.5,0.2-1.2-0.5-1.3
		c-1.3,0.2-1.4,2.5-1.5,2.8c-0.2,0.5-0.3,1.1-0.3,0.8c0.1,1.2-1.2,1.3-1.6,1.9c0.4,0.1,0.5,0.4,0.8,0.5c-0.1,0.1-0.3,0.1-0.5,0.1
		c0.2,0.2,0.2,0.5,0.1,0.7l-0.1,0.2c0,0,0.1,0,0.1,0c-0.1,0.1-0.2,0.1-0.2,0.1c-0.2,0.3-0.3,0.6-0.5,0.9c0,0,0,0,0,0.1c0,0,0,0,0,0
		c-0.6,1-1,2.1-1.3,3.3c0.1-0.1,0.7,0.3,0.4,0.9c0.2,0.1,0.4-0.1,0.6,0c0.9-0.5,0.4-1.2,1.5-1.3c-0.1-0.7-1.4-0.6-1.3,0.1
		c-0.8-0.8,1.4-1.2-0.2-1.8c0.3-0.3,1.7-0.5,1.1-1.2c0.4-0.5,0.5,0.4,1.1,0.4c0.3-0.7-1-1-0.6-1.7c0.5,0.5,0.6,1,1.3,1.5
		c0.4-0.7-0.5-1.1-0.3-1.8c0.5,0.2,0.6-0.4,1.3,0c-1.1,0.4-0.6,0.9-0.4,1.8c0.8,0,1.6-2.5,0.9-3.3c0.5-0.2,0.4-1.4,1.3-1
		c0,0.7-0.7,0.5-0.7,1.2c0.4,0.2,0.6,0,0.7-0.2c0.4,0.9-1.2,1.5-0.9,2.6c0,0.4,0.4,0,0.8,0.3c0.6,0.9-1.3,1.3-0.1,1.9
		c-1.4,0.4-1.2,2.6-1.3,3.8c-1.6,0.3-1.5,1.9-2.4,3c1.4,0.2,1.1-1,2-2.1c0.8,0.9-1,1.4-1,2.6c-1-0.8-0.6,1.6-1.8,0.4
		c-0.1,1.4-0.5,1.7-1.7,2.5c1.4,1.9-1.5,3.9-1.1,5.3c-0.1,0.1-0.1,0.2-0.2,0.3c0.2,0.1,0.4,0.1,0.6,0c0.2,0.3,0,0.6,0.5,0.9
		c-0.5,0.1-1-0.1-1.3-0.5c-0.6,0.9-1.2,1.8-1.9,2.7c0.3,0.3,0.7,0.4,1.1,0.4c-0.3,0.3-0.1,0.5,0.2,0.7c-1.4,0.8-0.8,1.9-2.2,3.1
		c-0.3-0.5-0.1-1.1,0.5-1.1c-1.1-0.2-0.4-1-0.4-2c-1.7,2.3-3.5,4.6-5.4,7c-1.7,2-3.5,4.1-5.4,6c-0.1,0.3-0.2,0.6-0.1,0.9
		c-0.4,0.1-0.6-0.4-0.2-0.6c0,0,0,0,0,0c-1.6,1.7-3.3,3.3-5,4.7l-0.6-0.7c0.2,0.5-0.3,2.3-0.7,1c0,1.6-2.3,2.1-3,3.1
		c1.1-2.6,2.9-4.9,5.2-6.6c-0.1-0.1-0.2-0.1-0.3-0.1c0.3-0.9,0.8-1.7,1.6-2.3c0,0.5,0.4,0.6,0.8,0.7c-0.5-0.5,0.5-1.9,1-1.4
		c0.2-0.5,0.4-1,0.5-1.5c0.1,0,0.2,0,0.3,0.1c0.1-0.3,0.3-0.5,0.5-0.8c-0.1-0.5,0.2-0.9,0.6-1.4c0,0.2,0.1,0.4,0.1,0.5
		c0.8-0.9,1.4-1.9,1.9-2.9c0.1,0.5,0.4,0.7,0.8,0.4c-0.3-1.1,0.3-2.3,1.5-2.6c0,0,0,0,0,0c0.6-0.3-0.2-0.7,0.1-1.1
		c-0.8,0.5-2.8,1.2-3.4,0.4c-0.2,0.4-0.5,0.8-0.9,1.1c0.7,0.3,0.6-0.6,1.2,0c-0.3,1.1-0.6,1-0.7,2.1c-0.6-0.3,0-0.6-0.3-0.9
		c-0.4-0.1-0.8,0-1,0.3c-0.2,0.5,0.5,0.1,0.5,0.8c-0.7-0.1-0.8,0.5-0.5,1c-0.6,0.7-0.2-0.1-0.8-0.4c-0.5,0.4,0.1,1,0.6,1.5
		c-0.2,0.4-0.6,0-0.9-0.3c-0.6,1.6-1.5,3-2.7,4.1v0l0,0c-0.6,0.6-1.3,1.2-1.9,1.8c-0.5,2.3-1.8,4.3-3.6,5.8
		c-0.2,0.2,0.2,0.5,0.3,0.8c-0.7,0.1-0.9,0-1.2-0.9c-0.8,0.6-0.6,1-1.5,0.7c-0.2,0.3-0.1,0.7,0.1,1c-4.4,2.4-7.4,5.1-10.2,7.3
		c0.2-1.1-0.9-0.1-1.2-1.3c-0.1,0.3-0.3,0.5-0.5,0.6c0.3,0.5,0.9-0.2,1.2,0.7c-1.3,0.1-1.6,0.6-2.7-0.6c0-0.8,1.4,0.4,0.9-0.7
		c-2.2,0.7-3.6,3.9-6.9,3.8c-0.6,0.5,0.2,0.6,0,1.2c-2.3,1.4-3.4,0.9-4.3,2c-0.4-0.6-1-0.8-1.8-0.3c-0.1-0.3,0.3-0.4,0.6-0.5
		c-0.1-0.8-0.6-0.4-0.9-0.6c-0.2,0.3,0.4,0.7-0.7,0.8c0-0.5,0.6-0.5,0.1-1.2c0.8-0.8,1.9-0.1,1.4-1.7c1.8,1.8,1.7-2.1,3.7-1.7
		c-1-1.9-1.7,1.6-2.6,0.1c-0.7,0.4-0.6,1.4-1.5,1.1c-0.1-0.5,0.7-0.4,0.7-0.8c-0.6-0.6-1.5,0.4-1.9,0.6c0.1,0.3,0.3,0.1,0.5,0.1
		c-0.2,0.3-1.7,1.1-1.4,0.1c-0.3,0.4-0.8,0.6-0.8,1.2c-0.6,0.2-0.9-0.2-0.7-0.7c-0.2,0.1-0.3,0.3-0.2,0.6c0.1,0.2,0.3,0.3,0.5,0.3
		c-0.4,0.8-1.1-0.2-2.1,0c1.8,1.1-1.4-0.3-1.7,0.5c0.2,0.2,0.4,0.5,0.4,0.8c-0.5,0-0.4-1-1.1-0.6c-0.5,1.5-3.4,0.7-5,2.6l-0.2-0.9
		c-0.7-0.1-0.8,0.4-1.3,0.5c0.2,0.4,0.5,0.6,0.8,0.7c-0.1,0.4-0.9,0-1.3,0.5c0-0.6,0.6-0.6,0.2-1.5c-0.8,0.4-1.3,0.6-2.1,0
		c-0.6,0.2,0.4,0.5,0.2,1.1c-1-0.6-2.1-1.3-2,0.8c-1.3-0.5-1.8,2.9-4.4,2.5c0.7-0.7,0.2-0.3-0.3-0.8c-0.3,0.4-0.5,0.9-0.9,1.2
		c-0.8-0.4-0.7-0.6-1.7-0.2c-0.1-0.8,0.4-0.6,0-1.2c-0.6,1-0.9,0.7-1.8,1.5c0.1-0.7-0.2-1.5-1.2-0.5c-0.2-0.8-1.4-0.3-1.4-1.4
		c-0.6-0.1-0.2,1.1-0.9,0.9c-0.1-1.1-0.2-1,0.3-1.7c-0.6,0-1.1,0-1.4-0.3c-0.1,0.9,0.7,0.7,0.4,1.7c-1.3,0-4.3-0.6-4.1-1.9
		c-0.3,0.1-0.2,0.7-0.3,1.1c-0.9,0-0.6-1.1-0.8-1.8c0.9,0.3,0.7-0.8,1.6-0.5c-1.3-1.5-2.1-0.3-3.6-0.8c0.1,1,0.4,1.6,1.5,1.6
		c-0.4,0.4-1,0.4-1.7,0.4c0.1-0.5-0.2-0.6-0.1-1.2c-0.9-0.4-1,0.5-1.7,0.4c0-0.5,0.4-0.6,0.4-1.1c-3.1,3.3-4.9-1.1-8.3,0.8
		c0.9-0.5,0.7-1.2,1.8-1.7c0-0.4-0.4-0.4-0.4-0.1c0.7-2.5-2.1-1.7-3.6-1.6c0.5-0.9,1.5-0.7,2.3-1c-0.2-0.7-1.5-1.2-1.6,0.2
		c-0.6-0.6-0.9-0.3-1.7-0.4c-0.5-0.6,1.2,0.2,1.3-0.6c-0.3-1.3-2.6-1.3-2.8-1.3c-0.6-0.1-1.1-0.2-0.9-0.2c-1.3,0.1-1.4-1.2-2.1-1.5
		c-0.2-0.1-0.8,0.8-1.3,0.5c-1.4-0.7-4.3-2.3-7.2-1.7c-0.1-0.3,0.2-0.8-0.1-1c0.7-0.7,0.3,0.8,0.9,0.7c0.4-1.5-1.1-1.9-2-2.1
		c0,0.3,0.3,0.5,0,1c-0.9-0.7-1.6-3.1-3.1-1.8c-0.5-0.1-0.2-0.6,0-1c-0.5-0.2-1-0.4-1.5-0.4c-0.3,0.4-0.1,0.6,0.1,0.7
		c-1.4,0.7-1.2-1.1-2.8-0.8c0.7-0.9-0.4-1.1-0.2-1.8c-3.8-0.8-7.2-2.8-9.8-5.7c-2.4,0.4-2.5-2.1-4.5-2.4c-0.1-0.6-0.6-1.1,0.1-1.8
		c-0.7,0.1-0.9,0.1-1.2-0.6c-0.5-0.3-0.1,0.6-0.8,0.9c-0.9-1.6-3.1-0.3-4.3-1.2c1.5-1.2,1.6,0.3,2.9-0.1c-0.3-0.9-0.6-2.1-1.7-2.4
		c0.3-0.1,0.6-0.2,0.8-0.5c-1.4,0.2-1.8-0.8-2.4-1.9c-0.3-0.1-0.2,0.3-0.6,0.6c-1.6-2.9-4.7-4.5-6.2-8.1c-0.3-0.2-0.7,0.3-1.1,0.5
		c-0.5-0.6-0.9-1.4-1.2-2.2c-0.3,1.6-0.7-1.1-0.4-1.6c-0.3-0.3-0.9,0.4-1.2,0.3c-0.3-0.8,1.3-0.6,1.1-1.5c-1.4,0.2-1.3-0.8-2.5-1.6
		c0-0.7,0.8,0.5,1.1,0.6c1.2-0.6,0-1.4-0.3-2.1c-0.2-0.4-0.9,0.4-1.4,0.6c-0.3-0.8,1-1.4,0-2.3c-0.6-0.4-0.5,0.7-1.1,0.4
		c0.8-1.3-0.8-2.7-0.6-4.2c0.3-0.1,0.4,0.2,0.6,0.5c0.7-0.5-0.5-0.5-0.5-1c-0.2,0.2-0.4,0.4-0.3,0.6c-0.4-0.7-0.6-1.6-0.6-2.4
		c0.3-0.7,1.1,0.1,1.5-0.6c0,0-0.1,0-0.1,0c-0.3,0.1-0.7,0.2-1,0.1c0,0,0,0,0,0c-0.3-0.2-0.6-0.5-0.7-0.9l-0.3,0.2
		c0.1-0.1,0.2-0.2,0.3-0.4c-0.1-0.6-0.4-1.2-0.8-1.7c0.2,0,0.4,0,0.6-0.1c0-0.4,0.2-0.7,0.9-0.9c0.3,0.4-0.2,0.5-0.6,0.7
		c0,0,0,0,0,0c0.1,0,0.2-0.1,0.3-0.1c-0.3,1.6,0.9,1.8,1.9,2.4c0.2-0.1,0.4-0.2,0.6-0.3c-0.1-0.1-0.1-0.3,0-0.5c0,0,0,0,0.1,0
		c-0.4-0.8-1.2,0.8-1.3-0.1c0.3-0.1,0.7-0.2,0.9-0.4c-0.1,0-0.3,0-0.4,0.1c0.8-1,0.1-3.8-1.3-3.8c1.3-1,0.3-1.8,0-2.7
		c-0.1,0-0.1,0-0.2,0c0.1-0.1,0.1-0.2,0.1-0.3c0-0.1,0-0.2,0-0.4c-0.3-0.4-0.3,0.4-0.9,0.1c0.2-0.9,0.2-1.5-0.9-1.5
		c0.9-0.6-0.5-1.2,0.8-1.8c0,0,0-0.1,0-0.1c-0.4-0.1-0.6-0.4,0.3-0.6c-1.1-0.1-0.2-1.3-1.3-1.2c1.6-1.3-1-2.9-0.4-3.8
		c-0.5-0.3-1.5-0.2-1.7-0.9c1-1.8,0.1-2-1.1-3.9c0.3-0.7,0.3,0.8,1,0.5c-1.3-3.9-1.1-8.3-3.2-12.4c-0.1,0-0.2,0-0.3,0
		c0.1,0,0.1-0.1,0.2-0.1c-0.4-0.7-0.8-1.4-1.4-2c-1.2,0.1-0.2,0.9-1.2,0.9c-0.5-1-0.3-1.2-0.9-2c0.6-0.1,0.4,0.4,0.9,0.4
		c0.4-0.1,0.6-0.5,0.6-0.9c-0.2-0.5-0.5,0.3-0.9-0.2c0.6-0.4,0.2-0.9-0.3-1.1c0-0.8,0.2-0.1,0.9-0.2c0.1-0.6-0.7-0.7-1.4-0.7
		c-0.1-0.5,0.4-0.4,0.9-0.4c-1.3-2.8-0.6-6.5-0.4-9.4c0-0.6,0.4-1.1,0.4-0.9c-0.4-1.5,0-4.1,1.9-4c-1.7-0.8,0.7-1.3,0-2.8
		c1.8,0.8,2.1-1.8,1.3-2.9c-1.1,0.3-1.4,1.6-1.3,2.7c-1.6-1.8,1.5-4.2-0.6-5.8c0.4-2.3,2.5-3,2.1-5.4c0.6,0.4,1.1,0.8,1.7,0.4
		c0.3-1.1-0.7-0.5-1.4-1.3c1.4-1.9,0.1-5.5,2.6-7.7c0.1-0.8-0.6-0.3-0.8-0.9c0.7-2.6,1.9-2.9,1.9-4.3c0.7,0.2,1.3-0.1,1.6-1
		c0.3,0.2,0,0.5-0.1,0.8c0.6,0.5,0.7-0.1,1.1-0.2c-0.1-0.4-0.8-0.3,0-1.1c0.3,0.3-0.2,0.7,0.8,1c-0.1,1.1-1.3,1.3,0.1,2.2
		c-2.6-0.1,0.2,2.6-1.6,3.7c2,0.8,0.2-2.3,1.9-1.8c0.2-0.8-0.5-1.4,0.3-1.8c0.5,0.3-0.2,0.7,0.1,1.1c0.8,0,0.9-1.3,1-1.8
		c-0.2-0.1-0.3,0.1-0.5,0.2c-0.1-0.4,0.5-1.9,0.9-1c0.1-0.5,0-1-0.2-1.4c0.3-0.6,0.8-0.4,1,0.1c0.1-0.2,0-0.5-0.2-0.6
		c-0.2-0.1-0.4,0-0.5,0.1c-0.2-0.9,0.9-0.6,1.6-1.4c-2.1,0.3,1.2-0.7,1-1.5c-0.3,0-0.6-0.1-0.9-0.3c0.3-0.3,1,0.5,1.2-0.3
		c-0.6-1.4,2.1-2.8,2-5.2l0.7,0.5c0.6-0.4,0.3-0.8,0.6-1.3c-0.3-0.2-0.8-0.2-1.1,0c-0.2-0.3,0.7-0.6,0.6-1.3c0.4,0.4,0,0.8,0.9,1.3
		c0.3-0.9,0.6-1.3,1.5-1.4c0.3-0.5-0.6-0.1-0.9-0.7c1.1-0.2,2.4-0.4,0.9-1.9c1.3-0.4-0.6-3.3,1.6-4.8c0,1,0.1,0.3,0.8,0.4
		c0-0.5-0.2-1-0.2-1.5c0.8-0.2,0.9,0,1.4-1c0.6,0.5,0.1,0.7,0.8,0.8c-0.2-1.1,0.2-1.1,0.3-2.3c0.4,0.6,1.2,1,1.3-0.4
		c0.7,0.5,1.3-0.7,2,0.1c0.5-0.3-0.6-1,0.1-1.3c0.8,0.8,0.9,0.6,1,1.5c0.4-0.4,0.8-0.8,1.2-0.7c-0.5-0.8-1,0-1.5-1
		c1-0.9,3.6-2.4,4.3-1.3c0.2-0.3-0.3-0.7-0.5-1.1c0.6-0.6,1.2,0.4,1.8,0.8c-0.9,0.3,0,1.1-0.9,1.4c2,0.3,1.7-1.2,3.2-1.7
		c-0.7-0.7-1.4-0.9-2.1-0.2c0-0.6,0.5-1,0.9-1.4c0.3,0.4,0.6,0.3,0.9,0.8c1-0.3,0.4-1,0.9-1.4c0.3,0.4,0.1,0.7,0.5,1.1
		c0.1-4.5,4.4-2.4,5.6-6.1c-0.4,1,0.3,1.4-0.1,2.5c0.2,0.3,0.5,0,0.4-0.2c1.2,2.3,2.7-0.1,3.8-1.2c0.2,1-0.7,1.5-1,2.2
		c0.6,0.3,1.9,0,1.1-1.3c0.8,0.1,0.9-0.4,1.6-0.8c0.8,0.1-1,0.7-0.6,1.3c1.1,0.8,2.8-0.8,3-0.9c0.5-0.3,0.9-0.6,0.8-0.4
		c0.9-1,1.9,0,2.5-0.3c0.2-0.1,0.1-1.1,0.6-1.3c1.5-0.4,4.8-1.1,6.5-3.5c0.3,0.2,0.4,0.7,0.7,0.7c0,1-0.7-0.4-1.1,0.1
		c0.7,1.4,2.1,0.6,2.9,0.2c-0.2-0.2-0.6-0.1-0.7-0.7c1.1,0,3.3,1.2,3.5-0.7c0.4-0.3,0.5,0.3,0.7,0.7c0.9-0.4,1-0.3,1.4-0.7
		c0-0.5-0.3-0.5-0.6-0.4c0.6-1.5,1.7,0.1,2.7-1.3c0.1,1.1,1,0.5,1.4,1.2c3.4-1.9,7.3-2.7,11.1-2.3c1.5-1.9,3.3,0,5-1.2
		c0.5,0.3,1.1,0.4,1.1,1.4c0.4-0.5,0.6-0.7,1.3-0.3c0.6-0.1-0.3-0.5,0-1.2c1.8,0.5,2.5-1.8,4.1-2c-0.3,1.9-1.4,0.8-2.1,2
		c0.8,0.5,1.9,1.1,2.8,0.7c-0.2,0.3-0.3,0.6-0.3,0.9c0.9-1.1,1.9-0.7,3.1-0.1c0.3-0.1-0.1-0.4,0.1-0.9c3.2,1.1,6.6,0.2,10,1.9
		c0.3,0,0.3-0.7,0.4-1.1c0.8,0.1,1.6,0.4,2.4,0.8c-0.8-1.4,1.2,0.3,1.4,0.9c0.4,0.1,0.4-0.9,0.7-1c0.8,0.4-0.6,1.3,0.2,1.8
		c0.8-1.1,1.5-0.2,2.9-0.4c0.5,0.5-1,0.1-1.2,0.3c-0.5,1.3,1,1,1.7,1.4c0.4,0.2,0.4-0.9,0.6-1.3c0.8,0.4,0.2,1.7,1.6,1.7
		c0.7-0.1-0.1-0.8,0.6-1c0.3,1.5,2.4,1.5,3.3,2.7c-0.2,0.3-0.5,0.1-0.7,0c0,0.1,0,0.2,0,0.3c0.1,0,0.1,0,0.2,0.1
		c0.2,0,0.6-0.2,0.8,0c0-0.3,0-0.5-0.2-0.7c0.8,0.3,1.5,0.8,2.1,1.4c0.1,0.2,0,0.5-0.2,0.6c0,0.1,0.1,0.1,0.1,0.2
		c0.2-0.1,0.4-0.1,0.6,0.1c0,0,0.1-0.1,0.1-0.1c0.1,0.1,0.1,0.2,0.1,0.3c0,0,0,0,0,0.1c0,0,0,0-0.1,0.1c-0.1,0.2-0.2,0.5-0.3,0.7
		c-0.1-0.1-0.2-0.2-0.3-0.3c-0.4,0.3-0.7,0.7-0.7,1.2c0.2,0,0.3,0.2,0.3,0.3c0,0,0,0.1,0,0.1c0.1,0,0.1,0,0.2,0
		c0.1,0,0.2-0.1,0.2-0.1c0.2-0.3,0.1-1.1,0.6-0.7c-1.1,1.5,0.4,1.6,0.8,2.3c0,0.1-0.1,0-0.1,0.1c0.4,0.1,0.9,0.3,1.1,0.7
		c0.5,0.1,0-0.5,0.6-0.7c0.5,0.7,0.9,1.2,1.7,0.5c-0.2,1.1,1.3,0.4,0.7,2l0,0c0.2-0.2,0.5-0.3,0.6-0.2c0,0,0,0,0.1-0.1
		c0,0.2,0.1,0.5,0.2,0.7c0.5,0,0.8,0.8,1.3,0.1c-0.1,0.4,0.1,0.7,0.3,1c0.6,0.1,1.1,0.4,1.6,0.7c0.5,0.1,1,0.3,1.1,0.6
		c0.6-0.1,1.2-1,1.9-0.6c0.5,2,1.4,1.5,3.5,2c0.3,0.7-0.8-0.4-1,0.3c4.4,2.3,7.8,6.4,13.7,7c0.7-0.9-0.5-0.8,0.2-1.4
		c1.1,0.3,1,0.6,2,0.8c-0.4,0.5-0.6,0-0.9,0.3c-0.2,0.4-0.1,0.8,0.2,1c0.5,0.2,0.1-0.5,0.8-0.4c-0.1,0.7,0.5,0.8,1,0.6
		c0.6,0.6-0.1,0.2-0.5,0.8c0.4,0.5,1,0,1.5-0.5c0.4,0.3,0,0.6-0.3,0.9c3,1.1,5,4.1,7,6.4c0.4,0.4,0.5,1,0.3,0.9
		c1.4,0.8,3,2.9,1.5,4.1c1.7-0.6,0.4,1.5,2,2c-1.8,0.8-0.2,2.8,1.2,3c0.6-1-0.1-2.1-1-2.8c2.5,0.2,2,4,4.6,3.7
		c1.4,1.9,0.4,3.9,2.4,5.3c-0.8,0.2-1.4,0.3-1.5,0.9c0.5,1,0.9-0.2,1.9-0.1c0.4,2.3,3.8,4,3.6,7.3c0.5,0.7,0.6-0.2,1.3,0.1
		c1.3,2.3,0.8,3.4,1.7,4.4c-0.7,0.4-0.9,0.9-0.4,1.8c-0.3,0.1-0.4-0.3-0.5-0.6c-0.8,0.1-0.4,0.6-0.7,0.9c0.3,0.2,0.8-0.3,0.8,0.7
		c-0.5,0-0.4-0.6-1.2-0.1c-0.8-0.8,0-1.8-1.6-1.4c1.9-1.7-2-1.8-1.5-3.8c-2,0.9,1.5,1.7,0,2.6c0.4,0.7,1.4,0.7,1.1,1.5
		c-0.5,0.1-0.4-0.7-0.8-0.7c-0.6,0.5,0.3,1.5,0.6,1.9c0.3-0.1,0.1-0.3,0.2-0.5c0.3,0.2,1,1.8,0.1,1.4c0.3,0.3,0.6,0.8,1.1,0.9
		c0.2,0.6-0.2,0.9-0.7,0.6c0.1,0.2,0.3,0.3,0.6,0.3c0.2-0.1,0.3-0.3,0.3-0.5c0.8,0.5-0.2,1-0.1,2.1c1.2-1.7-0.3,1.3,0.4,1.7
		c0.2-0.2,0.5-0.3,0.8-0.4c0,0.4-1.1,0.4-0.7,1c1.5,0.6,0.5,3.4,2.3,5.1l-0.9,0.1c-0.1,0.7,0.4,0.8,0.5,1.3c0.4-0.1,0.6-0.4,0.8-0.8
		c0.4,0.1-0.1,0.9,0.5,1.3c-0.6,0-0.6-0.6-1.5-0.3c0.4,0.8,0.5,1.4-0.1,2c0.1,0.6,0.5-0.4,1.2-0.1c-0.4,0.6-0.9,1.3-0.5,1.7
		c0-0.1-0.1-0.3-0.1-0.4c0.4,0.1,0.8,0.3,1.2,0.4c0.1-0.7-0.4-0.8-0.4-1.3c0.1,0,0.2-0.1,0.2-0.2c0.1-0.4,0.1-0.9,0.1-1.3
		c0.1,0.1,0.2,0.2,0.3,0.2c-0.1-1-0.7-2.2-0.2-2.7c-0.3,0.7,0.2,1.1,1,1.3c0,0.5-0.1,0.9-0.1,1.2c0.2-0.4,0.5-0.7,0.6-1.1
		c0.7-0.4-0.6,1.6,0.2,2.1c-0.2-0.2-0.6-0.2-0.8,0c0.1,0.4,0.2,0.9,0.5,1.3c0.4-0.3,1.1-0.3,1.1-0.8c0.3,0.2,0.1,0.4,0.4,1.1
		c-1,0.2-1.8,0.8-2.5,1.5c0.6,0.6,1.6,1.3,2,2.4c0.2,0,0.5,0,0.7,0.1c-0.3,0.9,1.1,0.8,0.3,1.4c0.6,0,0.9-0.2,0.9-0.7
		c0.8,0-0.2,1.6,0.6,1.7c-0.3,0.7-0.9-0.3-0.9-0.7c-0.4,0.2-1.1,0.2-1.2,0.7c0.1,0.3,0.7,0.2,1.2,0.2c-0.2,0.9-1,1.8,0.6,1.9
		c-1.3,1.2-0.5,2.6-1,3.8c0.4,0.3,0.7,0.3,0.9-0.2C1373.2,292.8,1372.2,293.6,1372.5,293.8L1372.5,293.8z M1364.4,260.6
		c0.1,0.6,0.3,1.1,0.9,0.9c0-0.3,0.2-0.6,0.7-0.7c-0.2-0.6-0.5-1.2-0.2-1.6c-1,0.1-0.2,0.8-0.2,1.3
		C1364.9,260.3,1365.1,260.8,1364.4,260.6L1364.4,260.6z M1364.9,258.3c0-0.8,0.5-1.2-0.5-1.5C1364.4,257.5,1363.9,258,1364.9,258.3
		L1364.9,258.3z M1188,255.7c-0.9-0.6-2.1-0.3-2.6,0.6c0,0.1-0.1,0.1-0.1,0.2C1186.6,256.7,1187.1,255.9,1188,255.7z M1188.4,253.7
		c-1.1-0.7-1.8,1.3-0.5,1.5C1188.7,254.9,1187.9,254.4,1188.4,253.7z M1336.5,356.4c0,0,0.1-0.1,0.1-0.1c0,0-0.1,0-0.1,0
		C1336.4,356.3,1336.4,356.4,1336.5,356.4L1336.5,356.4z M1356.5,325.3c0.3-0.3,0.9,0.2,0.9-0.6l-0.8-0.4
		C1356.6,324.7,1356.2,325.1,1356.5,325.3L1356.5,325.3z M1358.4,255.7c0.2,0.8-0.3,2.1,0.8,2.1c-1.2,0.2-0.3,1.1-0.7,1.6
		c0.8-0.4,0.9,0.1,1.7-0.3C1360.3,257.9,1358.8,257.2,1358.4,255.7L1358.4,255.7z M1354.3,325.4c-1.3-0.3-1.8,1.1-2,1.9
		c0.2,0,0.4-0.1,0.6-0.1c0.2-0.3,0.5-0.6,0.8-0.9c-0.3-0.3,0-0.3,0.3-0.4C1354.1,325.6,1354.2,325.5,1354.3,325.4L1354.3,325.4z
		 M1350.6,331.7c0.3,0.1,0.5,0,0.9,0.3c0.1-1,0.5-1.9,1.1-2.7c-0.8-0.7-0.7,0.4-1,0.7c-0.8-0.3,0.2-0.9-0.4-1.2
		c-0.3,0.4-0.4,0.8,0.1,1.4c0,0.1-0.1,0.2-0.2,0.2c0,0.5-0.3,1-0.7,1.2c0,0,0.1,0,0.1,0.1c0,0,0.1-0.1,0.1-0.1
		C1350.6,331.6,1350.6,331.6,1350.6,331.7L1350.6,331.7z M1349.6,333.6c0,0.1-0.1,0.2-0.1,0.4c0.1,0,0.3,0,0.4,0
		C1349.8,333.8,1349.7,333.7,1349.6,333.6L1349.6,333.6z M1347.6,335.1c-0.2,0.6-0.4,1.2-0.7,1.8c0,0,0,0,0,0
		C1347.3,336.3,1347.9,335.7,1347.6,335.1L1347.6,335.1z M1242.2,352.9c0.5,0,1.1,0.8,1.5,0.3C1243,352.9,1243.1,351.8,1242.2,352.9
		L1242.2,352.9z M1241.3,349.3c-0.3-0.4-0.5-0.7-1.1-0.2C1240.9,349,1240.8,350.5,1241.3,349.3L1241.3,349.3z M1233.7,346.2
		c-0.2,0.2-0.3,0.2-0.5,0.4c1.1,0.3,1.6-0.8,1.4-1.8c-1.1-0.2-4-3.1-5.2-0.3C1231.3,345.2,1231.8,344.9,1233.7,346.2L1233.7,346.2z
		 M1228.4,350.4c0.5-0.5,1-0.3,1.5-0.8c-0.5-1-2,0-2.2-1.1C1227,349.4,1228.7,349.5,1228.4,350.4L1228.4,350.4z M1199.5,319.2
		C1199.4,319.2,1199.4,319.2,1199.5,319.2C1199.4,319.2,1199.4,319.2,1199.5,319.2L1199.5,319.2z M1193,300c-0.1-0.1-0.3-0.1-0.4,0
		c-0.4,0.3,0.1,0.6,0.1,1.1C1192.8,300.7,1192.9,300.3,1193,300L1193,300z M1198.8,323.5C1198.8,323.5,1198.8,323.5,1198.8,323.5
		c0.1,0.1,0.1,0.1,0.1,0.1C1198.9,323.5,1198.8,323.5,1198.8,323.5L1198.8,323.5z M1213.7,323.4c-1.5,0.7,0.8,0.9-0.2,2.2
		c0.7-0.1,1,0.6,1.8,0c0.3,0.7-0.7,0.1-1.1,1c0.5,0.5,2.2,0.2,2.2,1c0,0,0,0,0,0.1c0.3,0.2,0.6,0.4,1,0.5c-0.3,0.4-0.9,0.2-1.4-0.1
		c-0.1,0.1-0.2,0.2-0.1,0.2c0.3,0.3,1.1,0,1.5,0.4c0,0-0.5,0.2-0.6,0.2c0.2,0.2,0.9,0.2,1.1,0.4c0.3,0.4-0.3,1.5,0.1,1.9
		c0.4,0.4,1.6-0.2,2,0.1c0.8,0.5,0.1,2.2,1.4,2c0.4,0.4-0.1,0.9,0.1,1.3c1.8,0.6,2.9,1.8,4.8,2.5c0.2-0.1,0.5-0.3,0.8-0.5
		c-0.4-0.1-0.9-0.1-1.3,0c0.4-0.2,0.7-0.4,0.9-0.7c0.2,0.3,0.5,0.4,0.8,0.5c0.6-0.4,1.1-0.8,0.7-1.1c0.7,0.7,2.5,1.3,2.7-0.2
		c-0.2-0.2-0.3-0.3-0.5-0.5c-0.1,0-0.2,0.1-0.2,0.1c-0.1-0.3-0.2-0.5-0.4-0.7c-0.3-0.3-0.6-0.6-1-1c-0.6-0.4-1.2-0.5-1.9-0.4
		c-1.3-1.7-2.7-3.2-4.2-4.8c-0.9-0.6-1.9-1.1-3-1.4c-0.7,0.5,1.1,0.7-0.1,1.3c-1.4-1.4-1.3-2.7-3.4-2.9c0.6-0.5,0.4-0.9,0.5-1.3
		c-0.3-0.2-1.3,0.8-1.4,0.1c0.6-0.5,0.7,0,1.2-0.4c-0.7-0.3-1.2-0.9-1.5-1.7c-0.2,0.7-0.6,0.5-1.3,1.2c0.2,0.7,1.1-0.2,1.2,0.7
		C1214.5,323.7,1214,323.6,1213.7,323.4L1213.7,323.4z M1211.8,318.6c0.2-0.1,0.4-0.2,0.5-0.4c-0.1-0.3-0.4-0.4-0.6-0.5
		C1211.4,318,1211.6,318.3,1211.8,318.6L1211.8,318.6z M1201,305c-1.4-0.4-1-2.5-2.8-2.5c0.1,0.2,0.2,0.4,0.2,0.6
		c0.2-0.1,0.3-0.1,0.5-0.1c0,0.2-0.2,0.2-0.5,0.3c0,0.1-0.1,0.2-0.2,0.3c0.1,0.1,0.1,0.3,0.2,0.4c0,0,0.1,0,0.1,0.1
		c0.7-0.1-0.4-0.8,0.7-0.8c0.6,0.2,0.4,0.8-0.7,0.9c0.4,0.8,1.7,0.7,2,1.6C1200.7,305.6,1200.8,305.2,1201,305L1201,305z
		 M1198.2,299.8c0.1-0.2,0.3-0.4,0.4-0.5c-0.2-0.1-0.4-0.2-0.6-0.3C1197.7,299.3,1197.8,299.6,1198.2,299.8L1198.2,299.8z
		 M1252.1,215.1c-0.4,0.3-1.4,0.1-1.3,0.8C1251.5,215.7,1252.2,216.5,1252.1,215.1L1252.1,215.1z M1255.2,217.2
		c0.5,0.1,0.9,0.2,1-0.6C1255.7,217.1,1254.8,215.9,1255.2,217.2L1255.2,217.2z M1263,214.5c0-0.3,0.1-0.4,0.1-0.6
		c-1,0.6-0.7,1.7,0.2,2.3c0.9-0.5,4.2-0.4,4.2-2.4c-0.3-0.1-0.6-0.3-1-0.5C1265.4,213.9,1264.2,214.3,1263,214.5L1263,214.5z
		 M1321.1,219.3c-0.3-0.3-0.6-0.6-1-0.8c0,0.4,0.3,0.8,0.7,0.8C1320.9,219.3,1321,219.3,1321.1,219.3L1321.1,219.3z M1305.9,210.9
		c-0.3-0.2-0.6,0-0.9,0.2C1305.3,211.1,1305.6,211,1305.9,210.9C1305.9,210.9,1305.9,210.9,1305.9,210.9L1305.9,210.9z
		 M1303.8,210.2c-0.5,0-1,0.1-1.1-0.2c0,0.1,0,0.1-0.1,0.2C1303.1,210.3,1303.5,210.3,1303.8,210.2L1303.8,210.2z M1300,206.7
		c0.1,0,0.1,0,0.2-0.1c0,0-0.1,0-0.1-0.1C1300.1,206.7,1300.1,206.7,1300,206.7L1300,206.7z M1288.4,216.7c0,0,0.1-0.9,0-0.9
		c-0.5,0-0.9,0.7-1.4,0.7c0.1,0,0.2-0.5,0.3-0.5c-0.3,0-0.9,0.5-1.1,0.4c-0.2,0-0.4-0.3-0.5-0.5c-0.6,0.1-1.3,0.2-1.9,0.5
		c-0.1-0.7,0.9-0.9,1.6-0.9c-0.2-0.2-0.3-0.4-0.5-0.4c-0.5,0-1.1,1.2-1.6,1.3c-0.9,0.2-1.6-1.6-2.4-0.5c-0.5,0-0.5-0.8-1-0.9
		c-1.8,0.7-3.3,0.6-5.2,1.3c-0.2,0.7-1,2.7-0.2,2.6c-1-0.1-2.9,0.8-1.8,2.1c0,0,0.1,0,0.1,0.1c0.1,0,0.1,0,0.2,0
		c0.2-0.1,0.4-0.3,0.3-0.4c1.3,0.7,2.9,0.5,3.9-0.6c0.9,0.2,1.8,0.3,2.7,0.4c1.2-0.2,2.3-0.6,3.4-1.2c0.1-0.9-1.3,0.3-0.9-1
		c2,0.1,2.8,1,4.5-0.3c-0.1,0.7,0.4,0.9,0.6,1.3c0.4-0.1,0.3-1.4,0.9-1c0,0.8-0.4,0.5-0.6,1.1c0.7-0.3,1.5-0.2,2.2,0.1
		c-0.4-0.6,0.1-0.8,0.1-1.8c-0.6-0.4-0.6,0.9-1.3,0.3c0.5-0.9,1.5-0.6,2-1.4c0-0.2,0-0.3,0-0.5C1290,216,1288.9,217.3,1288.4,216.7
		L1288.4,216.7z M1297.8,217.3c-0.3,0.1-0.9-0.6-1.1-0.1c0.4,0.1,0.7,0.2,1,0.3C1297.7,217.4,1297.8,217.4,1297.8,217.3
		L1297.8,217.3z M1292,216.7c-0.1,0.1-0.2,0.2-0.4,0.1c-0.1,0.3-0.1,0.5,0,0.6c-0.5,0.6-0.5-0.3-0.2-0.8c-0.4,0.2-0.8,0.2-1,0.9
		c0,0-0.1,0-0.1-0.1c-0.1,0-0.1,0-0.2,0c-0.4,1.7,0.7,2.4,1.6,1.5c0.1-0.3-0.2-0.3-0.4-0.4c0.4-0.3,0.7-1.1,1.2-1.2
		c-0.2,0.8-0.2,1.6,0.1,2.4c0.3-0.2,0.7-0.2,1,0c0.3-0.2,0.6-0.4,1-0.4c-0.4-0.1-0.8-0.2-0.5-1c0.5,1.2,1.1,0.5,1.9-0.1
		c-0.5,1,0.8,1.6,1.9,1.3c0.1-0.2,0.3-0.3,0.5-0.2c0.1-0.1,0.2-0.2,0.4-0.3c0.1-0.2,0.1-0.4,0-0.5c0.4-0.3,0.6,0.3,1.3,0.1
		c-0.1,0.4-0.3,0.6-0.4,0.6c0.1,0.4,0.2,0.6,0.6,0c-0.1,1,0.7,1.3,1.4,1.8c0.2-0.4,0.1-0.6-0.1-0.7c0.7-0.8,0.9,2.6,2.3,0.9
		c-0.2,0.3-0.2,0.5-0.1,0.6c0.3-0.2,0.1-0.5,0.7-0.7c0.4,0.4,0,0.5-0.3,1.1c0.7-0.5,1.5-0.9,2.3-1.2c-0.2,0.4-0.4,1.1,0.3,1.4
		c-0.2-0.9,0.5-1.1,0.8-0.8c0.3-0.5,0.6,0.1,0.9-0.5c0.5-0.6-0.1-0.7,0.2-1.2l0,0c0,0.1-0.1,0.1-0.1,0.2c-0.1-0.1-0.1-0.2-0.2-0.2
		c-0.5-0.1-1.4-0.2-1.2,0.6c-0.6,0.2-0.2-0.5-0.2-1.1l-0.1,0l0.1-0.2c-0.6,0.5-0.9,0.7-1-0.1c-0.1,0.1-0.2,0.1-0.3,0.2
		c-0.2,0.5,0.8,0.2,0.2,0.9l-0.4-0.8c-0.1,0.1-0.3,0.3-0.4,0.4c0,0,0,0,0,0c0.2,0.3,0.3,0.7,0.3,1.1c-0.7,0.2-1-0.8-1.5-1.7
		c-1.1-0.5-2.3-0.9-3.5-1.1c0.1-0.2,0.3-0.2,0.4-0.5c-0.5,0.2-1.1,0.2-1.6,0.1c-0.6,0.5-0.4,0.7-0.8,1.2l-0.5-0.2
		c0.1-0.3,0.4-0.1,0.6-0.1c0.1-0.3-0.1-0.7-0.5-0.8c0,0,0,0,0,0c0,0.2,0,0.3,0.1,0.4c-0.3-0.1-0.7-0.2-1-0.2
		c-0.1,0.1-0.3,0.2-0.3,0.4c0-0.1,0-0.3-0.1-0.4c-1-0.1-2.1,0-3.1,0.1C1293.8,216.8,1292.3,217.7,1292,216.7L1292,216.7z
		 M1298.9,217.7c-0.3-0.1-0.6-0.2-0.9-0.3c0,0.1,0,0.1-0.1,0.2C1298.2,217.6,1298.6,217.7,1298.9,217.7L1298.9,217.7z M1300.5,212.4
		c-0.4,0-1.1-0.7-1.4-0.1C1299.9,212.3,1299.9,213.9,1300.5,212.4L1300.5,212.4z M1304.8,217.5c0.1,0,0.2,0,0.3,0
		c-0.1,0.2-0.2,0.3-0.4,0.4c0,0,0,0,0,0.1c0.2-0.4,0.8,0.9,1.2-0.4C1305.5,217.3,1305.1,217.2,1304.8,217.5L1304.8,217.5z
		 M1306,217.7c0,0,0-0.1,0-0.1c0,0,0,0-0.1,0C1306,217.6,1306,217.6,1306,217.7L1306,217.7z M1306.4,218.1
		C1306.4,218.1,1306.4,218.1,1306.4,218.1L1306.4,218.1c0,0.1-0.1,0.2-0.1,0.2c0.2,0.3,0.4,0.5,0.7,0.7l0.1-0.3
		C1306.8,218.6,1306.5,218.4,1306.4,218.1L1306.4,218.1z M1306.2,217.5c0,0.1,0.1,0.1,0.2,0.1c0.1-0.1,0.1-0.3,0.2-0.4
		C1306.4,217.2,1306.3,217.4,1306.2,217.5L1306.2,217.5z M1325.3,227.7c0.9,0.2,0.7,1.4,1.8,0.8
		C1326.4,228.7,1326.4,226.7,1325.3,227.7L1325.3,227.7z M1335.1,238.2c-2-1.3-3-2.9-4.4-3.6c0.5,2.4,2.2,2.9,3.5,4.8
		c0.8-0.9,1.5-0.7,2.1-1.6c-0.5-0.4-0.8-1.5-1.6-1C1334.3,237.6,1335.9,237.3,1335.1,238.2L1335.1,238.2z M1343.6,244.4
		c0.6-0.4-0.4-0.6-0.7-0.5c0.5,0.4-0.1,0.8,0.4,1.2c0.6-0.4,1-0.1,0.9-0.8C1343.9,244.3,1343.7,244.5,1343.6,244.4L1343.6,244.4z
		 M1357.3,309c-0.2-0.6,0.5-1.6-0.5-1.8C1357.3,307.9,1356.1,308.4,1357.3,309z M1357.4,299.4c-0.4,1.8-0.6,3.6-0.6,5.4
		c0.1,0.2,0.3,0.4,0.5,0.6C1357.1,304,1357.8,301.3,1357.4,299.4L1357.4,299.4z M1339.2,336.3
		C1339.2,336.2,1339.2,336.2,1339.2,336.3c-0.1,0-0.2,0.1-0.3,0.2c-0.4-0.6,0.4-1.1,1.1-1.7c0.2-0.4,0.4-0.8,0.6-1.2
		c-0.5,0.3-0.7-0.8-1.5-1.2c-0.1,0-0.2,0-0.3,0.1c0.1,0.3,0.1,0.3,0.6,0.8c-0.3-0.1-0.8,0.6-0.2,0.3c0,0.2-0.2,0.4-0.5,0.5l0,0
		c-0.5,0.4-0.7,1.2-0.9,2.3c-0.6-0.5-0.5-0.9-1-0.6c0.5,0.7-0.8,0.2-0.9,0.7c0.3,0.4,1.3,0.3,1.1,0.9c-0.7-0.2-1.5-0.1-2.1,0.3
		c-0.6,3.3-3.5,5.3-4.5,7c0.2-0.1,0.5,0.2,0.8,0.5c-0.3,0.4-1.1,0.8-0.9,1.3c0-0.1,0.1-0.2,0.1-0.3c0.1,0.2,0.1,0.4,0.1,0.5
		c0.2,0,0.3-0.1,0.5-0.1c0.2-0.2,0.1-0.3,0.5-0.2c0.1,0,0.2-0.1,0.3-0.1c0-0.2-0.1-0.3-0.1-0.5c0,0,0-0.1,0-0.1
		c-0.1-0.3-0.2-0.6-0.3-0.9c0.4,0.2,0.8,0.2,1.2,0.2c0.4-0.3,0.9-0.5,1.3-0.9c-0.2-0.2-0.4-0.4-0.6-0.6c0.2-0.4,0.6,0,0.9,0.3l0,0
		C1334.8,340.9,1337.6,339.1,1339.2,336.3L1339.2,336.3z M1328.4,348.8c0.2-0.2,0.3-0.5,0.5-0.7c-0.3,0.2-0.7,0.4-1.1,0.5
		c0-0.2,0.1-0.3,0.1-0.5c-0.3,0-0.7,0.2-0.8,0.5c-0.9-0.7-0.8-1.4-1.5-0.6c0.2-0.5-0.2-1.1,0.3-1.4c-0.2-0.3-0.6-0.4-0.9-0.3
		c-0.2,0.2-0.3,0.3-0.5,0.2c-0.1,0.1-0.3,0.2-0.4,0.2c0.3,0.3,0.9,0.5,0.6,0.7c-0.3,0.3-1.4,1.4-2.1,2c0,0.1,0.1,0.1,0.2,0.2
		c-0.1,0.1-0.2,0.3-0.4,0.4l0.6,0.7c-0.6,0.5-0.2-0.4-0.8-0.4c0.3,1.2-1.8,0.2-1.1,1.9c-0.4,0.1-0.6-0.1-0.7-0.6
		c-0.1,0.4-0.6,1.5,0.2,1.6c0.5,0.5-0.8,0.4,0,1.1c-0.4,0-0.3-0.4-0.5-0.7c-0.9,1.4-2.8,1.8-3.8,3.2c0-0.5-0.2-0.7-0.6-0.6
		c0.1,0.3,0.1,0.6,0,0.9c1-0.2,1.9-0.6,2.5-1.4c0.2,0.4,0.4,0.3,0.6,0.2c0.3-0.5,0.7-1,1.2-1.3c0,0,0,0.1,0,0.2
		c0.3-0.3,0.7-0.5,1.1-0.7c0.1-0.2,0.1-0.4,0-0.6c0.2,0.1,0.3,0.2,0.5,0.4c0.8-0.3,1.4-0.8,1.9-1.5c0.3-0.1,0.5-0.2,0.8-0.3
		c0.1-0.3,0-0.6-0.1-0.9c0.4-0.1,0.8,0.2,1.2-0.2c0.3-0.4-0.7-0.5-0.8-0.1c0.1-1.9,3.4-0.5,3.3-2.1
		C1328.3,348.6,1328.3,348.7,1328.4,348.8z M1237.5,339.3c-0.1-0.2-0.4-0.2-0.5-0.1c0,0,0,0.1-0.1,0.1c0.3,0.1,0.2,1.1,0.8,0.5
		C1237.5,339.8,1237.5,339.5,1237.5,339.3L1237.5,339.3z M1317,223.3c0,0.6,0.8,0.3,1.3,0.1c0-0.2-0.1-0.5-0.4-0.5c0,0,0,0-0.1,0
		c0.1,0.1,0,0.2-0.3,0.5C1317.3,223.5,1317.1,223.5,1317,223.3C1317,223.3,1317,223.3,1317,223.3L1317,223.3z M1315.8,223.7
		c0.2,0.2,0.3,0.3,0.5,0.5c0,0,0.1-0.1,0.1-0.1c0.1,0.1,0.1,0.2,0.1,0.3c0.2,0.2,0.5,0.4,0.8,0.5c0.2-0.2,0.4-0.4,0.6-0.3
		C1317.3,224,1316.5,224,1315.8,223.7L1315.8,223.7z M1327.3,231.3c0.1-0.5-0.7-0.5-1.3,0C1326.3,231.8,1326.8,231.6,1327.3,231.3z
		 M1345.5,318.3c-0.1,0-0.2,0.1-0.3,0.1c-0.4-0.5,0.1-0.7-0.7-0.8c-0.5,0-1,0.1-1.1,0.9c0.7,0.3,1.1,0.6,0.8,1
		c-0.3-0.4-0.8-0.6-1.2-0.8c0.3,0.8,0,1.7-0.7,2.2c0.4,0.3,0.5,0.3,0.6,0.1c0-0.1,0-0.2-0.1-0.3c0.1,0,0.1,0.1,0.2,0.1
		c0.1-0.3,0.1-0.5,0.5-0.4c0,0.2-0.1,0.4-0.2,0.7c0.2,0.7-0.1,1.4-0.6,1.8c0.1,0,0.1,0.1,0.1,0.2c-0.1,0-0.2,0-0.3,0
		c-0.1,0.1-0.3,0.2-0.5,0.2c-0.2,0.3-0.2,0.6-0.9,0.4l0,0c0.2,0.2,0.5,0.4,0.8,0.6c-1.2,0.3-0.7,1.2-0.4,2.1c0.7-1.1,1.5-2.1,2.3-3
		C1343.4,321.9,1345.9,320,1345.5,318.3L1345.5,318.3z M1342.7,321.8c-0.3,0.2-0.6,0.4-0.8,0.7c0,0.1,0.1,0.2,0.1,0.3
		C1342.2,322.4,1342.4,322.1,1342.7,321.8L1342.7,321.8z M1341.1,325.5c-1.3-0.5,0.3,1.5-0.9,1.5c0,0.5,0.5,0.3,0.9,0.4
		c0.1-0.1,0.1-0.2,0.2-0.3C1341,326.7,1341.4,325.9,1341.1,325.5L1341.1,325.5z M1340.3,319.2c-0.2,0.2-0.4,0.4-0.6,0.5
		c0.2,0,0.5,0,0.7-0.1C1340.4,319.5,1340.4,319.3,1340.3,319.2L1340.3,319.2z M1337.5,334.3C1337.5,334.4,1337.5,334.4,1337.5,334.3
		c0.1,0,0.1,0,0.1-0.1C1337.6,334.3,1337.6,334.3,1337.5,334.3L1337.5,334.3z M1339.3,330.8c-0.2-0.1-0.4-0.2-0.6-0.3
		c-0.2,0.3-0.4,0.7-0.6,1.1C1338.6,331.4,1339,331.2,1339.3,330.8L1339.3,330.8z M1341.4,330.8c-1.1-0.5-1.3-0.7-1.5-1.4
		c0.7,0.5,1.6-0.3,0.9-0.8c-0.1,0-0.1,0-0.1,0c-0.5,0.5-1,0.9-1.5,1.5C1339.4,330.6,1340.1,331,1341.4,330.8L1341.4,330.8z
		 M1341.5,328.5c0.4,0.3,0.7,0.1,1.1,0.4c0-0.4,0.4-0.9,0.1-1.3C1342.5,328.5,1341.6,327.7,1341.5,328.5L1341.5,328.5z
		 M1335.3,333.8c0,0.5-0.1,1-0.7,1c0.1,0.1,0.2,0.1,0.3,0.1C1335.3,334.7,1335.8,334.4,1335.3,333.8L1335.3,333.8z M1329.2,347.2
		c-0.3-0.2-0.5-0.4-0.7-0.6c0.5,1.2-0.7,0.3-1.3,0.4c0,0.2-0.1,0.5-0.2,0.6c0.5,0.2,0.9-0.1,1.4,0
		C1328.6,347.5,1328.9,347.3,1329.2,347.2L1329.2,347.2z M1319.8,352c0,0.3-0.1,0.5-0.1,0.8C1319.8,352.5,1319.9,352.2,1319.8,352
		C1319.8,352,1319.8,352,1319.8,352L1319.8,352z M1319.3,352.7c0-0.1-0.1-0.1-0.1-0.1c-0.1,0.2-0.2,0.3-0.2,0.5
		c0.1,0.1,0.2,0.2,0.5,0.1C1319.4,353.1,1319.3,352.9,1319.3,352.7L1319.3,352.7z M1333.5,333.8c-0.1,0-0.2,0.1-0.3,0.1
		c0,0.2-0.2,0.4,0.2,0.7c0,0,0.1,0,0.1,0c0.1-0.1,0.2-0.2,0.3-0.4C1333.7,334.1,1333.6,333.9,1333.5,333.8L1333.5,333.8z
		 M1324.6,344c0-0.2,0-0.3-0.1-0.5c-0.1,0-0.2,0.1-0.2,0.1C1324.5,343.7,1324.6,343.8,1324.6,344L1324.6,344z M1325.5,344.9
		c0.1,0,0.1,0.1,0.2,0.1c0.1,0,0.2-0.1,0.2-0.2c0-0.1-0.1-0.2-0.2-0.2C1325.5,344.7,1325.4,344.8,1325.5,344.9
		C1325.5,344.9,1325.5,344.9,1325.5,344.9z M1327.3,345.1c0.1,0.1,0.2,0.2,0.3,0.3c0-0.3,0.1-0.6,0.2-0.9
		C1327.7,344.7,1327.5,344.9,1327.3,345.1L1327.3,345.1z M1328.3,346.4c0.2,0,1.2-0.1,0.7-0.7
		C1328.6,345.7,1327.7,345.6,1328.3,346.4L1328.3,346.4z M1331,337.5c0.4-0.4,0.7-0.8,0.8-1.4c-0.1,0.3-0.3,0.4-0.4,0.3
		c-0.2,0.2-0.4,0.4-0.7,0.5c-0.1,0.1-0.2,0.3-0.4,0.4C1330.6,337.5,1330.8,337.5,1331,337.5L1331,337.5z M1328.1,340.1
		c-0.6,0.4-1.1,1-1.3,1.7C1327.3,341.2,1327.7,340.7,1328.1,340.1L1328.1,340.1z M1318,352.8c-0.2,0.1-0.4,0.3-0.4,0.5
		c0.2,0.1,0.4,0,0.6-0.1C1318.1,353.2,1318,353,1318,352.8L1318,352.8z M1317.7,354.1c0.1-0.1,0.2-0.2,0.4-0.3
		c-0.2-0.1-0.4-0.3-0.5-0.5C1317.6,353.6,1317.6,353.9,1317.7,354.1L1317.7,354.1z M1326.1,345.4c-0.1,0.3,0.1,0.6,0.3,0.7
		c0.2-0.1,0.3-0.3,0.4-0.5C1326.7,345.5,1326.4,345.4,1326.1,345.4L1326.1,345.4z M1329.9,342.4c-0.2,0-0.3,0-0.5-0.1
		c0,0.2-0.1,0.5-0.1,0.7C1329.5,342.8,1329.7,342.6,1329.9,342.4L1329.9,342.4z M1330.7,341c-0.3,0.2-0.6,0.3-0.9,0.4
		c-0.3,0.3,0.4,0.4,0.6,0.2C1330.5,341.4,1330.6,341.2,1330.7,341L1330.7,341z M1269,220.9c0.8,0,1.7,0,2.5,0
		C1270.7,220.7,1269.8,220.7,1269,220.9L1269,220.9z M1261.6,215.9c0.3-0.2,0.7-0.2,0.5-1C1261.7,214.4,1261.4,215.1,1261.6,215.9
		L1261.6,215.9z M1350.4,330.2L1350.4,330.2c-0.3,0.4-0.5,0.9-0.6,1.4c0.1,0.1,0.2,0.1,0.3,0.2
		C1350,331.2,1350.1,330.6,1350.4,330.2L1350.4,330.2z M1350.5,250.8c0.7,0.6,0.3,1.1,1,1.4C1351.7,251.7,1351.3,250.4,1350.5,250.8
		L1350.5,250.8z M1349.6,249.6c-0.9-0.3-0.2-1.3-1.2-1C1348.8,248.9,1348.7,250.2,1349.6,249.6L1349.6,249.6z M1345,246.1
		c-0.3-0.2-0.2-1.1-0.8-0.7c0.1,0.2-0.2,0.3-0.5,0.3C1343.9,246.3,1344.4,246.2,1345,246.1L1345,246.1z M1339.1,241.9
		c-0.4-0.4-1.1-0.4-1.5-0.1l0.5,0.6C1338.3,242.1,1338.7,242,1339.1,241.9L1339.1,241.9z M1338.6,240.8c-0.4-0.2-0.5-1.5-1.3-0.7
		C1338,240.6,1337.8,241,1338.6,240.8L1338.6,240.8z M1329.7,232.8c-0.8-0.6-1.4-1.6-2.2-1.7c0.8,0.4,0,0.8-0.5,0.8
		c0.1,0.2,0,0.5,0.3,0.7C1328.6,231.3,1328.4,233.6,1329.7,232.8L1329.7,232.8z M1326.9,229c0.6,0.5,1.9,0.7,1.8,1.6
		C1329.6,229.1,1327.4,229,1326.9,229z M1325.1,229c0.2,0.4,0.3,0.9,0.3,1.4c0.5-1,0.6,0.3,1-0.3
		C1326.4,229.7,1325.7,228.7,1325.1,229L1325.1,229z M1320.8,225.7c0-0.1-0.1-0.1-0.1-0.2C1320.8,225.6,1320.8,225.6,1320.8,225.7
		C1320.8,225.7,1320.8,225.7,1320.8,225.7L1320.8,225.7z M1318.3,221.4c-0.3-0.1-0.6-0.1-0.9,0
		C1317.7,221.5,1318,221.5,1318.3,221.4L1318.3,221.4z M1316,222.4c-0.1,0-0.1,0-0.2-0.1C1315.9,222.4,1315.9,222.4,1316,222.4
		C1316,222.4,1316,222.4,1316,222.4L1316,222.4z M1315.7,221.5c-0.4,0.5-0.7,0.2-1.1,0.7c0.1,0,0.1,0.1,0.2,0.1
		c0.3-0.2,0.7-0.2,1-0.1C1315.6,222.1,1315.8,221.7,1315.7,221.5L1315.7,221.5z M1315.1,222.5c0.3,0.2,0.6,0.3,0.9-0.1
		C1315.7,222.6,1315.4,222.6,1315.1,222.5L1315.1,222.5z M1275.4,207.3c0.8,0,1.7,0.1,2.5,0.3c0.1-0.5,0.6-0.5,0.5-1.4
		c-1.3,1.4-3.8-0.2-5.7,1.2C1273,208.2,1276.5,208.6,1275.4,207.3L1275.4,207.3z M1279.3,207.6c0-0.1,0-0.2,0.1-0.3c0,0,0,0,0,0
		c0.1-0.2,0.2-0.3,0.4-0.4c0-0.1,0-0.3,0-0.4c-0.7-0.1-1.1,0-1,1.1c0.9,0.1,1.3,0.7,1.4,1.8c-0.5-0.2-0.6-0.4-1,0.2
		c0.4,0.1,0.5,0.6,0.7,0.9c1-0.6,1.6-1.3,2.9-0.7C1282.4,207.8,1280.8,208.5,1279.3,207.6L1279.3,207.6z M1284.9,207.8
		c0.2,0.1,0.2,0.5,0.1,0.9c0.3,0.1,0.6,0,0.8-0.2C1286.2,207.7,1285.2,207.1,1284.9,207.8L1284.9,207.8z M1288.9,206.8
		c-1.4-0.5-2.9-0.7-4.4-0.5c-1.1,0.1-2.3,0.1-3.4,0c-0.2,0.2-0.4,0.3-0.7,0.3c0,0.1,0,0.3,0.1,0.4c0,0.1,0.1,0.1,0.1,0.2
		c0.8,1.1,3.9,0.4,2.1,0.1c0.2-0.3,0.6-0.2,1-0.2c0.3-0.1,0.7-0.1,1-0.1c0-0.1,0-0.3,0-0.4c1.5-0.3,1.5,1.2,2.6,1.2
		C1287.9,207.8,1288.4,207.2,1288.9,206.8L1288.9,206.8z M1274.5,203.1C1274.5,203.1,1274.5,203.2,1274.5,203.1
		C1274.5,203.2,1274.5,203.2,1274.5,203.1C1274.5,203.1,1274.5,203.1,1274.5,203.1L1274.5,203.1z M1271.7,204.1c0.1,0.2,1,0.6,1-0.1
		C1272.4,203.8,1271.8,203.1,1271.7,204.1L1271.7,204.1z M1271.1,209.1c0.3,0,0.9-0.4,0.8,0.5c2-0.7,4.1,1,5.5-1.2
		C1275.1,209,1272.3,208.3,1271.1,209.1L1271.1,209.1z M1266.8,209.5c1.6,1,2.8-0.3,3.8,0.8C1271.3,208.9,1268.1,208.6,1266.8,209.5
		L1266.8,209.5z M1266.6,209.8c-0.1-0.1-0.7-1.1-0.8-0.2c0.7,0-0.3,1.1,0.3,1.1C1266.1,210.2,1266.7,210.5,1266.6,209.8
		L1266.6,209.8z M1265.9,208.7c-0.2-1.1-1.5-0.1-1.9-0.9c0,0.7-0.5,0.9-0.6,1.6C1264.5,209.8,1265,208,1265.9,208.7L1265.9,208.7z
		 M1262.7,209.2c-1.2-0.4-1.8-0.9-2.9-0.9c0.2,0.7,0.2,1.3,0.2,2C1261,209.6,1262.2,210.6,1262.7,209.2L1262.7,209.2z M1199.3,301.4
		C1199.2,301.4,1199.2,301.3,1199.3,301.4c0,0-0.1,0-0.1,0c-0.1,0-0.2,0-0.3,0c0.3,0.4-0.4,0.5-0.4,0.8c0.6-0.1,0.7,0.4,1.3,0.3
		C1199.6,302.1,1199.6,301.5,1199.3,301.4L1199.3,301.4z M1199.1,299C1199.1,299,1199.1,299,1199.1,299c0,0,0-0.1,0-0.1
		C1199.1,298.9,1199.1,299,1199.1,299L1199.1,299z M1197.8,303.7L1197.8,303.7L1197.8,303.7C1197.8,303.7,1197.8,303.7,1197.8,303.7
		L1197.8,303.7z M1201.4,303.6c-0.3-0.1-0.6-0.1-0.9,0c0-0.4,0.9-0.6,0.6-1.1c-0.3-0.1-0.7-0.2-1-0.1c0.2,0.7,0.4,1.4,0.7,2.1
		C1201.4,304.3,1201.3,303.9,1201.4,303.6L1201.4,303.6z M1228.8,346.8c-0.3,0.4-0.6-0.2-1,0.4c0,0.2-0.2,1.3,0.4,0.7
		C1227.8,347.4,1229.3,347.3,1228.8,346.8L1228.8,346.8z M1218.5,337.9c-1.2-0.3-2-0.1-2.6-1.4c-1.2,1.8,0.6,2.3,1,4
		c-0.4,0.4-0.6-0.1-1.1,0.5c0.4,0.5,0.9,0.7,1.5-0.1c-0.6-0.6-0.5-1.4,0.2-2.3c0.2,0.4,0.2,0.7,0.9,0.5
		C1218.2,338.7,1218.5,338.2,1218.5,337.9L1218.5,337.9z M1217.1,345.3c-0.2-0.2-0.5-0.5-0.7-0.7
		C1216.3,345.1,1216.3,345.8,1217.1,345.3L1217.1,345.3z M1210.6,321.7c0.1-0.2,0.1-0.3,0-0.5c-0.3,0-0.5-0.1-0.7-0.2
		C1210,321.4,1210.1,322,1210.6,321.7L1210.6,321.7z M1212.7,335.4c-0.8,0.4-0.4,1.4,0.2,1.1c-0.1-0.2,0.2-0.5,0.5-0.7
		C1213.3,335.6,1213,335.4,1212.7,335.4L1212.7,335.4z M1212.3,337.6c0.5,0.6,0.8,1.2,1,1.9c0.7,0.1,1.3,0.4,1.8,0.8
		c0.1,0,0.2,0.1,0.3,0.2c1.4-1.3-2.5-3.7-1.2-2.1c-0.5,0.1-0.8-0.6-1.2-1c0,0-0.1-0.1-0.1-0.1
		C1212.8,337.2,1212.5,337.1,1212.3,337.6L1212.3,337.6z M1209.4,334.7c0.1,0,0.1,0.1,0.1,0.1c0.7,0.6,1.4,1.3,2,1.9
		c-0.2-0.6,0.1-1.3-0.5-1.8C1210.7,334.6,1210,334.7,1209.4,334.7L1209.4,334.7z M1208.9,334.2c0,0-0.1,0-0.1-0.1L1208.9,334.2
		C1208.9,334.2,1208.9,334.1,1208.9,334.2L1208.9,334.2z M1221.6,345c0.4-0.9-1.9-3.5-2-1.8c-0.7-0.9-1.1-0.9-1.6-1.9
		c-0.4,0.3-0.8,0-1.3,0.8C1218.6,341.9,1219.4,344.8,1221.6,345z M1224.1,344.7c-0.2-0.3-0.9-0.4-0.2-0.9c-1.9-0.8-2.4-3.5-4.9-2.7
		C1221,342.2,1222.6,344.5,1224.1,344.7L1224.1,344.7z M1227.5,347.3c-0.5-1.9-2.3-1.6-2.3-3.2
		C1223.7,344.8,1226,347.1,1227.5,347.3L1227.5,347.3z M1234.6,346.4c0,0.6,0.7,0.3,1.1-0.4C1235.3,346,1235,345.7,1234.6,346.4
		L1234.6,346.4z M1281.5,369.9c0,0.5,0.3,0.6,0.3,1.1c0.8-0.4,1.6,0.6,1.6-0.5C1282.9,370.2,1282.2,370,1281.5,369.9L1281.5,369.9z
		 M1284,371.3c0.3,0.4,1.6,0.3,1.4-0.5c-0.2,0-0.3-0.4-0.3-0.8C1284.4,370.1,1283.9,370.7,1284,371.3L1284,371.3z M1309.4,366.8
		c-0.2,0.1-0.3,0.4-0.5,0.6c0.1-0.1,0.3-0.1,0.4-0.1c0.1-0.1,0.2-0.1,0.2-0.2C1309.6,367,1309.5,366.9,1309.4,366.8L1309.4,366.8z
		 M1308.8,367.5L1308.8,367.5C1308.8,367.4,1308.8,367.4,1308.8,367.5L1308.8,367.5z M1315.6,366.5c0.3,1.2,2.2,0.2,1.4-0.8
		C1316.2,365.4,1316.4,366.3,1315.6,366.5L1315.6,366.5z M1317.2,365.3c0.3,1,1.4,1.6,2.4,1.3c0.1,0,0.1,0,0.2-0.1
		C1319,365.5,1318.1,365.8,1317.2,365.3L1317.2,365.3z M1353.4,327c-0.2,0-0.3,0.1-0.4,0.1c0.1,0,0.2,0.1,0.2,0.1
		c-0.4,0.5-1.4,0.9-1.9,1.4c0.6,0,1.5,0.4,1.8-0.3C1352,327.5,1352.9,328.3,1353.4,327L1353.4,327z M1359.6,301.1l-0.9-0.1
		c-0.1,0.6-0.3,1.2,0.4,1.3C1359.4,302.1,1359.5,301.6,1359.6,301.1L1359.6,301.1z M1357.7,254.6c-1.5,0.7,0.9,1.5-1,1.5
		c0.1,0.8,1.3,0.6,1.6,0.1C1357.9,255.3,1357.8,255.5,1357.7,254.6L1357.7,254.6z M1356.6,247.4c-0.4,0.7,0.6,0.6,0.7,1.4
		C1358.6,248.5,1357.6,246.6,1356.6,247.4L1356.6,247.4z M1356.2,247.1c1-0.2,1.6-1.2,1.4-2.2c0-0.1,0-0.1-0.1-0.2
		C1356.5,245.3,1356.7,246.3,1356.2,247.1L1356.2,247.1z M1354.6,252.6c0.1,0.4,0.5,0.8,1,0.8
		C1355.9,252.9,1355.4,252.2,1354.6,252.6L1354.6,252.6z M1350.2,248.8c1,0.8,1.1,1.2,2.3,1.4c-0.5-0.6,0-2.1-1.2-1.8
		C1351.7,249.7,1350.7,248.9,1350.2,248.8L1350.2,248.8z M1328,223.9c-1-0.7-2.3-1.3-3.3-1.9c0.7,0.6,1.3,1.3,1.8,2.1
		c-1.5-1.2-2.9-2.5-4.3-3.8c-1.1-0.4-2.7-0.7-2.5-1.7c-2.1-1.5-4.3-2.8-6.7-3.8c0,0,0,0,0,0s0,0,0,0c-0.7-0.3-1.3-0.6-1.9-1
		c0.2-0.3,0.5-0.3,0.8-0.6c0.1-0.1,0.1-0.2,0-0.3c0,0-0.1-0.1-0.1-0.1c-0.2-0.1-0.6-0.1-0.7-0.3c-0.6,0.7,0.5,0.5-0.1,1.2
		c-1.4-0.3-2.8-0.9-4-1.6c0,0.2-0.1,0.5-0.2,0.7c-0.1-0.3-0.3-0.5-0.6-0.6c0-0.2,0.2-0.3,0.4-0.3c-0.1-0.1-0.3-0.1-0.4-0.1
		c-0.2,0.3-0.7-0.5-0.8,0.4c-0.4-0.6-0.6-0.3-1.4-0.8c0.1,0,0.2-0.1,0.4-0.1c0,0,0-0.1-0.1-0.1c0.1-0.3,0.4-0.5,0.8-0.4
		c0.1,0,0.1,0.1,0.2,0.1c-0.1-0.5-0.5-0.6-0.9-0.6c-0.6,0.2-1.4,0.5-0.4,0.8c-1.3,0-1.8-0.4-3-0.4c0.2-0.3,0.4-0.5,0.8-0.4
		c0-0.1,0-0.2,0-0.3c-1.2-0.6-2.8-1.2-3.4-0.2c-0.4-0.1,0-0.8-0.6-0.8c-0.4-0.1-0.5,0.4-0.7,0.9c-0.1-1.2-3.3-1.3-4.1-1.5
		c0.6-1.3,2.3,0.1,2.9-1.1c-1.5-0.2-3.1-0.5-4.4-0.2c0,0.1,0,0.3,0,0.4c-0.1-0.1-0.2-0.2-0.3-0.3c-0.2,0.1-0.5,0.2-0.7,0.4
		c-0.1-0.1-0.2-0.1-0.2-0.2c-0.2,0.2-0.3,0.4-0.3,0.7c1.3-1,3.8,1.6,6.1,1c0.2,0.1,0,0.5,0,0.9c0.3,0,0.7,0,1,0l0-0.2
		c0,0.1,0,0.1,0,0.2c2.1,0.3,4,2.3,5.7,2l-0.3,0.8c1-0.8,1.3-0.3,1.9,0.4c-1,0-0.7,0.8-1.8,0.3c0.8,0.7,2,0.7,2.3,1.8l0.1-0.3
		c0.1,0.2,0,0.4-0.1,0.5c0,0.1,0,0.1,0,0.2c0.2-0.4,0.4-0.7,0.2-0.9c0.1-0.1,0.3,0,0.4,0.2c0.2,0,0.6,0.4,0.8,0.3
		c-0.1,0.2-0.2,0.3-0.3,0.4c0.1,0.2,0.2,0.4,0.3,0.6c0,0,0,0,0,0l0,0c0.3-0.4,0.6-0.4,0.8-0.1c0.3-0.1,0.5-0.2,0.4-0.6
		c0.4,0.2,0.9,0.4,1.4,0.6c0.8-0.2,1.7-0.1,1.7,0.7c0,0-0.1,0-0.1,0c0.4,0.2,0.7,0.3,1.1,0.5c-0.6,1-1.2,0.4-1.3,1.6
		c-1-0.7-1.7-1.7-2.8-1.4c-0.1,0.1-0.1,0.2-0.2,0.3c1-0.3,0.2,0.7,0.6,1.2c0,0,0,0,0.1,0c0.2,0,0.3-0.4,0.5-0.3c0,0,0.1,0,0.1,0
		c0.1-0.1,0.1-0.1,0.2-0.2c0.2,0.3,0.4,0.5,0.6,0.7c0-0.2-0.1-0.4-0.2-0.6c0.8-0.5,0.7,0.4,0.6,1c0.1,0.1,0.1,0.2,0.2,0.3
		c0.2-0.1,0.3-0.2,0.5-0.1c-0.4,0.4-0.6,0.5-0.7,0.5c-0.6,0.9-1,1.5-2,1.1c0.3,0.2,0.3,0.7,0.1,1c0.2,0,1.2-0.4,0.9-0.9
		c0.2,0.1,0.3,2,1.6,0.8c0.3,1.8,2.6,1.8,3.6,0.7c0.3-0.4,0.8,0.5,0.8,0.8c0.4,0.3,0.7-0.9,1.1-0.3c-0.6-1.1-1.8-1.6-3.2-2.2
		c-0.5,0.9,0.8,0.9,0.2,1.8c-0.7-0.8-1.2,0.9-1.9,0c0.2-0.3,0.4-0.1,0.6,0c0.4-1.4-0.2-2.8-1.3-3.7c1.1-0.4,1.8,0.9,1.9,1.6
		c1.4-0.8,2.9,1.6,4.3-0.9c0,0.3,0.2,0.5,0.4,0.7c0,0,0,0,0,0c0.1,0,0.1,0.1,0.2,0.1c0.6,0.1,1.6-0.4,2.4-0.5c0,0.4-0.1,0.6-0.3,0.7
		c0.1,0,0.2,0,0.2,0c-0.3,0.2-0.4,0.7-0.2,1c0.3-0.2-0.1-1,0.6-1.1c1.4,1.1,2.5,3.6,4.6,3.6c0.2-0.3-0.2-0.5-0.4-0.7
		c0.8-0.1,0.6,0,1.2-0.6c-0.1,0.3,0.5,0.8,0.3,0.2c0.7-0.1,0.3,1.9,1.3,1.8c-0.3,0.1-0.5,0.3-0.7,0.5l0.6,0.5
		c0.1-0.2,0.2-0.5,0.1-0.7c0.1,0.1,0.2,0.2,0.3,0.3c0.1-0.2,0.1-0.5-0.2-0.6c0.6-0.2,1.4,0.1,0.5,0.9c1.9,2.1,4.8,4,5.6,6.7
		c0.3,0.3,0.5-0.6,0.2-0.7c0.7-0.3,1,0.8,0.7,1.2c2,0.3,1.5,1.7,3.4,2.5c-1.5,1.4,1.5,2,0.3,2.7c0.3,0.9,1-0.9,1.2-0.4
		c0.4,0.4,1.7,2,2.3,2.5l1-0.7c0.5,0.6-0.4,0.2-0.5,0.8c1.2-0.2,0.1,1.8,1.9,1.2c0.1,0.4-0.1,0.6-0.6,0.6c0.4,0.2,1.5,0.7,1.7-0.1
		c0.5-0.4,0.4,0.9,1.1,0.1c0,0.4-0.4,0.3-0.7,0.5c1.4,0.9,1.7,2.9,3,3.9c-0.5,0-0.7,0.1-0.7,0.6c0.6-0.3,1.6,0.5,1.8-0.3
		c0.5,0.1,1,0.6,0.8,1c0.3,0.1,0.7-0.2,1.7-0.6c-0.7-0.9-1.7-2.1-2.6-1.2c-0.2-0.4,0.8-0.6,0.5-1c-1-0.6-2.2-0.7-3.4-2.3
		c0.6-0.3,0.6,1,1.3,0.4c-0.1-0.4-1.4-1.9-2.4-1.6c0.2-0.3,0.6-0.5,0.6-1.1c-1.4-0.3-0.7-2.5-2.8-2c-0.1-0.4,0.2-0.8-0.1-1.1
		c-0.4-0.3-0.6,0.6-0.1,0.8c-1.9-0.2-0.3-3.4-1.9-3.4c-0.2-0.6,0.6-0.2,0.9-0.7c-1-0.4-1.1-0.7-1.9-1.4c0,1.1,0.4,1.2,0.7,2.3
		c-1.3-0.1-1-2.2-2.3-2.3c0.3-0.2,0.6-0.2,0.8,0.1c-0.4-1.3-1-0.1-0.2-2c-0.3-0.6-0.8-0.2-1.1-0.4c-0.5,0.7,0.6,0.6,0.8,0.9
		c-0.6,0-1.1,0.2-1.6,0.4c0.5-0.8,0.4-1.8-0.1-2.6c-0.3-0.1-0.7,0.4-1,0.6c-0.4-0.2,0-0.6,0.4-0.9
		C1332.5,228.6,1330.8,225.7,1328,223.9L1328,223.9z M1320.3,217.9c0,0-0.1,0.1-0.1,0.1c0.4,0.3,0.7,0.7,1.1,1c0,0,0,0,0.1-0.1
		C1321.5,218.4,1320.4,218.7,1320.3,217.9L1320.3,217.9z M1308.6,206.1c0.1-0.1,0.1-0.2,0.2-0.4c-0.1-0.1-0.1-0.1-0.2-0.2
		C1308.6,205.7,1308.6,205.9,1308.6,206.1L1308.6,206.1z M1258.7,204.1c1.1,1.6,3.6,0.1,5.3,0.6c-0.3,1.3-2.8-0.3-3.6,0.9
		c1.2-0.1,0.2,0.9,0.5,2c0.7,0.6,1.7,0.5,2.3-0.2c0.1-0.1,0.1-0.2,0.2-0.3c-0.4-0.1-1.1,0.6-1.1-0.4c0.7,0.1,1.3-0.4,2.3-0.9
		c0.1,0.7-0.3,1,0.3,1.1c0.2-0.9,0.7,0.4,1.2,0.1c0.1-0.5-0.7-1.1-0.2-1.4c0.4,0.6,1,1.1,1.7,1.3c1-0.7,2.1-1.1,3.3-1.3
		c-0.1-0.1-0.1-0.1-0.2-0.2c0.2-0.4,0.4-0.2,0.7,0.1c0.3,0,0.5-0.1,0.8-0.1c-0.6-1.3-1.9-1.3-3-1.3c0-0.7,0.5-0.8,0.9-1.1
		c-1.8,0.1-3.5,0.5-5.1,1.1l-0.1-0.9C1262.8,203.7,1260.7,202.4,1258.7,204.1L1258.7,204.1z M1255.1,208.2c0.7-0.5,0.8,0.7,1.5,0.2
		c-0.1-0.5-0.4-0.6-0.5-1.1C1255.8,207.7,1255.2,207.7,1255.1,208.2L1255.1,208.2z M1246.1,213.6c0.6,0.4,1.1,1.2,1.8,0.5
		c-0.3-0.7-0.4-1.2,0.1-1.3c0,0.5,0.1,1,0.3,1.4c0.4-0.8,1.2-1.2,2-1.1c-0.1-1.3-0.9,0.3-1.2-0.5c1.2-0.9,1.4-0.1,2.7-0.3
		c0.4-0.7-0.8-0.7-0.3-1.1c0.7,1,1.1-0.3,1.6,0.7c1.9-0.7,2-0.9,3.7-1.6c0.1,0.4,0.2,1.1,0.4,1.1c-0.1-0.7,1-0.2,0.7-1.1
		c-0.4-0.1-0.8,0-1.1-0.3c2.2-0.2,3.1-1.6,1.1-3.2c0.4,1.1,0.4,1.4,0,2.1c-0.2-0.8-1.4-0.9-1.2,0c0.2,0.4,0.7-0.1,0.9,0.4
		c-2.4,0.2-4.4,1-6.8,1C1250.3,212,1246.3,211.2,1246.1,213.6L1246.1,213.6z M1230.4,212.8c0.3-0.8,1.4-0.3,1-1.6
		C1231.1,211.7,1229.9,211.9,1230.4,212.8L1230.4,212.8z M1224.1,218.9c1.5-1.5,5.2-3.3,4.8-5.1
		C1227.9,215,1224.4,216.8,1224.1,218.9L1224.1,218.9z M1224.7,215.9c0.4-0.3,1.1-0.6,0.7-1.2c-0.4-0.1-0.8,0.2-1.2,0.5
		L1224.7,215.9z M1224.9,213.6l0.5,0.7l0.7-0.5C1225.7,213.2,1225.3,213.5,1224.9,213.6L1224.9,213.6z M1223.6,209.9
		c0.2-0.1,0.5,0.2,0.7,0.6c0.2-0.2,0.7-0.4,0.6-0.7c-0.5,0.6-1.2-1.5-1.1,0C1223.7,209.6,1223.5,209.6,1223.6,209.9L1223.6,209.9z
		 M1216.1,215.2c-0.2-0.9-0.3-0.9-1.1-1.7C1214.3,214.1,1215.5,214.9,1216.1,215.2L1216.1,215.2z M1214.1,214.6
		c0.2,0.2,0.3,0.5,0.4,0.8c0.2-0.2,0.5,0.2,0.7,0.1c-0.2-0.3,0.1-0.3,0.3-0.3c-0.3-0.5-0.6-0.2-0.9-0.4
		C1214.9,214.6,1214.4,214.5,1214.1,214.6L1214.1,214.6z M1209.8,216.6c0.5,0.2,2,0.8,1.8,0.3c-0.6,0.3-0.3-0.6-0.8-0.9
		c-0.2,0.2-0.4,0.5-0.7,0.3c0.2-0.3,0.7-0.5,0.5-0.8C1209.6,215.6,1210.3,215.9,1209.8,216.6L1209.8,216.6z M1209.5,229.4
		c0.7-0.1,1.3-0.4,1.9-0.8c-0.4-0.4-0.6-0.3-1-0.6C1210.1,228.8,1208.8,228.6,1209.5,229.4L1209.5,229.4z M1208.2,223.9l0.6,0.6
		c0.1-0.5,0.8-0.9,0.1-1.4L1208.2,223.9z M1207.9,230.5c0.2-0.2,0.5,0.1,0.8,0.4c0.4-0.5,0.4-1.3-0.1-1.7
		C1208.1,229.1,1207.2,229.9,1207.9,230.5L1207.9,230.5z M1204.9,222.4c0.5-0.4,2.3-0.3,1.6-1.3c-0.4,0.5-0.8,0.9-0.9,0.1
		C1205.4,221.6,1204.4,221.9,1204.9,222.4L1204.9,222.4z M1204.7,228.4c1-0.3,1.6-1.7,3.2-2.8c-1.5-1.8,0.3-2.2,0.1-3.2
		c-2,0.4-1.8,1.7-1.4,3.3c-1.1-0.1-2,0.7-2.1,1.7C1204.5,227.8,1204.5,228.1,1204.7,228.4L1204.7,228.4z M1202.5,232.3
		c1.3-0.7,1.7-2.4,2.7-3.1l-1.1-0.9c0.1,1.2-0.6,1.1-1.5,1.9C1203.4,231.2,1202,231.2,1202.5,232.3L1202.5,232.3z M1197.7,295.6
		c-0.4,0.7,0.1,1.1,0.8,1.4c0.1-0.7,0.7-1.1-0.2-1.5c-0.1,0.3,0.5,0.9-0.1,1C1197.9,296.2,1198.3,295.5,1197.7,295.6L1197.7,295.6z
		 M1196.9,287.1c-0.2-0.8,0.6-0.5,0.9-0.2c0.1-0.3,0.4-0.4,0.3-0.7c-1.8,0,0-1.5-1.5-1.8C1196.7,285.3,1196.4,286.5,1196.9,287.1
		L1196.9,287.1z M1197.1,290.2c0.2-0.4,0.4-0.8,0.8-1.2c-1,0.3-0.2-0.6-0.9-0.5C1196.6,288.8,1196.5,290.1,1197.1,290.2
		L1197.1,290.2z M1198.1,288c0.1-0.6-0.4-0.7-0.9-0.9C1196.7,287.4,1197.4,287.9,1198.1,288L1198.1,288z M1196.4,271.4
		c0,0.6,0.5,1,1,1.1l0.1-0.7C1197.1,271.7,1196.7,271.6,1196.4,271.4L1196.4,271.4z M1195.5,276.3c0.1,0.6-0.6,1.6,0.4,1.8
		c0.9-0.3-0.6-1.2,0.7-1.3c0.5,2.3,0.1,4.2,0.6,5.7c1.3-2,0.5-3.6,0.9-5.9C1196.9,276.7,1196.6,276,1195.5,276.3L1195.5,276.3z
		 M1196,291.1c-0.5-0.8,0.4-1.5-0.7-1.8C1195.9,289.5,1194.5,291,1196,291.1L1196,291.1z M1195.7,286.6c-1.7,0.5-0.3,2.1,0.1,2.4
		C1195.8,288.2,1195,287.2,1195.7,286.6L1195.7,286.6z M1195.9,272.5c0.1,0.5-0.7,1.4,0.4,1.4C1196.2,273,1196.7,272.9,1195.9,272.5
		L1195.9,272.5z M1195.2,264.3c0.1,0.3-0.6,0.9,0,1c0.1-0.2,0.3,0,0.6,0.1C1196.1,264.9,1195.7,264.6,1195.2,264.3L1195.2,264.3z
		 M1195,266.5c-0.7-0.1-0.1,0.7,0.1,0.8c-0.1-0.6,0.6-0.5,0.5-1.1c-0.7-0.2-0.8-0.6-1.2-0.1C1194.7,266.2,1195,266.3,1195,266.5
		L1195,266.5z M1192.6,248c0.4-0.7,1.7-1.3,0.9-2c1,0.7,1-0.6,1.6-0.7c-0.9-0.3-0.6-0.7-1.5-1C1192.8,245.1,1193.4,246.7,1192.6,248
		L1192.6,248z M1194.6,260.1c-0.1-0.5,1-1.4-0.1-1.5C1194.9,259.3,1193.7,259.6,1194.6,260.1L1194.6,260.1z M1194.9,255.4
		c-0.5,0.1-1.1,1.4-0.3,1.7C1194.6,256.2,1195.2,256.1,1194.9,255.4L1194.9,255.4z M1192.3,249.3c1.5,0.5,0.5-1.7,1.8-0.4
		c0.6-0.6-0.5-1.3-1.1-1.2C1192.7,248.6,1192.9,248.6,1192.3,249.3L1192.3,249.3z M1192.9,251.7c-0.5,0.1-0.7,0.9,0.1,1.2
		C1193.3,252.5,1193.2,252,1192.9,251.7L1192.9,251.7z M1192.5,258.1c0.6-1.1,0.7,0.1,1,0.6c-0.1-1.3,0.1-1.7-0.6-2.7
		C1192.8,256.8,1191.4,257.4,1192.5,258.1L1192.5,258.1z M1189.9,240.3c0.8,0.7,0.7-0.4,1.1-0.8c0.3,0.6,0.6,0.1,0.9,0.8
		c0.3-0.5,0.6-0.9,0-1.3c-0.3,0.2-0.7,0.2-1,0C1190.6,239.6,1190.3,240.3,1189.9,240.3L1189.9,240.3z M1189.8,241.6
		c-0.5,0.5-1.2,0.5-0.7,1.5C1189.7,242.6,1190.3,242.6,1189.8,241.6L1189.8,241.6z M1192.7,297.5c0,0.3,0.1,0.7,0.3,1
		c0-0.5,0-1.1,0.2-1.6c0.2,0.9,0.3,1.8,0.4,2.7c0.3,0.7,0.5,1.3,0.1,1.7c0,0.5,0.1,1.1,0.1,1.6c0.7,2.7,1.5,5.4,2.4,8
		c-0.4,0.1-0.6-0.2-1-0.1c-0.3,0.1-0.3,0.3-0.2,0.4c0.1,0.1,0.2,0.1,0.3,0.1c0,0.1,0,0.2-0.1,0.3c0,0.1,0,0.1,0,0.2
		c1-0.1,0-0.7,1-0.8c1,1.2,1.5,4.3,2.6,5.6c-0.5,0.2-0.4-0.5-1-0.2c0.1,1,2.1,0,1.5,1.1c-0.3,0.1-0.6,0-0.8-0.3
		c0-0.1-0.1-0.2-0.1-0.2c-0.6,0.9,0.8,1.4,1,1.9c0.2-0.3,0.5-0.5,0.8-0.6c-0.1,0.3-0.1,0.6,0.1,0.8c-0.1,0.1-0.2,0.1-0.3,0.1
		c0,0.1,0.1,0.2,0.1,0.3c0.3,0.1,0.2,0.8,0.8,0.2c-0.1,0.7,0.2,0.6,0.5,1.5c-0.3-0.1-0.6-0.3-0.9-0.4c0.2,0.5,0.4,0.9,0.7,1.3
		c0.2,0,0.2-0.2,0-0.6c0.4,0.3,0.7,0.7,1,1.2c0.1,0,0.2,0,0.4,0c0.1,0.1,0,0.3-0.1,0.4c0.2,0.2,0.4,0.5,0.6,0.7
		c0.2-0.1,0.4-0.2,0.5-0.2c-0.8,0.9,1.4,3.2,1.8,3.9c-1.4,0.5-1.5-1.7-2.9-1.3c1.2,1.5,2.3,3.3,4.1,3.6c0,1.1,0.5,2.2,1.2,3.1
		c0.1-0.1,0.2-0.2,0.3-0.3c-0.2,0.8,0.7,1.3,1.5,0.6c-1.6-0.1-1.8-3.7-3.8-4.8c-0.1-0.2,0.4-0.4,0.6-0.6c-1.5-1-1.8-2.9-2.4-4.4
		c-0.2,0.1-0.3,0.2-0.5,0.3c0.1-0.1,0.3-0.2,0.5-0.3c-0.2-0.6-0.6-1.2-1.2-1.6l0.8-0.4c-1.2-0.1-1.1-0.7-1.2-1.6
		c0.7,0.7,1.1-0.2,1.5,1c-0.2-1.1-1.2-2-0.3-3.2c-0.4,0.2-0.8,0.3-0.7,0.5c-0.5-0.1-0.2-1.4,0.1-1.9c-0.2-0.1-0.4-0.2-0.6-0.4
		c-0.1,0.1-0.2,0.2-0.4,0.2c0.1-0.1,0.1-0.2,0.1-0.4c-0.2-0.1-0.4-0.1-0.5,0.3c-0.5-1.3-1.2-2.7-1.7-4.1c0.3-0.1,0.7-0.1,1,0
		c0.1-0.4,0.3-0.7,0.3-1c0.3,0,0.6,0,0.9-0.1c-0.9-0.5,0.4-0.7,0.4-1.3c-0.1-0.2-0.6,0.1-0.7-0.2c-0.3-0.5,0-0.9,0.9-1.1
		c-0.1,1-0.1,0.9,0.6,1.7l-0.8,0.3c0.2,0.3,0.2,0.7,0.1,1c0.5-0.3,0.8-0.5,1.1-0.4c0.2,0,0.4-0.1,0.5-0.1c0-0.2-0.4-0.5,0.4-0.6
		l-0.2,0.6c0.2,0,0.4,0,0.6,0.1c0.1-0.3,0.3-0.5,0.4-0.8c0.4,0.2,0.3,0.7,0.1,1.3c0,0,0,0,0.1,0.1c0,0,0,0-0.1,0
		c-0.1,0.4-0.3,0.8-0.4,1.1c0.4,0.2,0.2,0.3-0.1,0.5c0,0.2,0,0.4,0,0.6c-0.1-0.1-0.2-0.2-0.3-0.4c-0.2,0.1-0.3,0.2-0.4,0.4
		c0.8,0,1.2,0,0.6,0.7c0.1,0,0.1,0,0.2,0c0.2,0,0.3,0,0.5,0c0,0-0.1,0.1-0.1,0.1c0.2,0,0.5,0,0.7,0c0.4,1.6,1.2,3.2,2.3,4.5
		c-0.2,0.1-0.3,0-0.6,0.1c0.9,0.4,1.1,0.7,1.8,1.9c0.2-0.1,0.4-0.2,0.5-0.3c0,0,0-0.1-0.1-0.1c0.1,0,0.1-0.1,0.2-0.1
		c0,0,0-0.1,0-0.1c0,0,0,0.1,0.1,0.1c0.3,0,0.7,0.2,0.6-0.2c1.3-0.1-0.9,1,0.3,1c-0.1,0-0.2,0-0.2,0.1c0.3,0.4,0.7,0.7,1.1,1
		c0.2-0.1,0.3-0.2,0.3-0.4c0.6,0,0.4,0.3-0.1,0.5c0.2,0.1,0.3,0.3,0.5,0.4c0.3-0.1,0.6-0.1,0.6,0.1c0.4-0.2,0.7-0.5,0.9-0.9
		c-0.5,0-0.9-0.3-1.2-0.7c-0.5,0-1.1,0.3-1.5,0c0.4-0.2,0.8-0.5,1-0.8c-0.2-0.6-0.5-1.2-0.9-1.7c0.1,0.3,0.1,0.5-0.5,0.8
		c0-0.1,0.1-0.2,0.1-0.3c-0.5,0.2-0.7,0.1-0.9-0.3c0.3-0.1,0.4-0.3,0.4-0.4c-0.3-0.1-0.7-0.1-1-0.2c1.5-0.5-0.1-3-1.9-2.4
		c-0.5-0.5,1-1.5-0.3-1.2c0.8-0.7,0.4-1.4,0.3-2.2c-0.5,0.1-0.5,0.3-0.4,0.5c-1.1,0.1,1.2-2.4-0.9-2.3c0.3-0.1,0.5-0.2,0.5-0.4
		c-0.4-0.1-0.4,0.2-1,0c0.1-0.6,0.3-0.3,1-0.6c-0.9-0.1-1.7-0.4-2.5-0.8c0.4-0.2,1.1-0.5,0.8-1.2c-0.9,1.3-1.9-0.3-0.6-0.7
		c-0.2-0.2-1.1-0.5-1.2,0c0-0.1,0.3-0.5,0.4-0.9c-0.7-0.2-1.4-0.6-2-1c0-0.2,0-0.4,0-0.5c-0.8,0.8-1.1,1.9-1,3
		c-0.5-0.3-0.8-0.9-0.6-1.5c-0.4-0.1-0.8-0.4-0.8-0.9c-0.6,0-0.7,0.3-1,0.4c0.1,0.1,0.2,0.3,0.4,0.3c-0.7,0.4-1.3-0.4-1.4-1.3
		c-0.3-0.3-0.7-0.6-1.1-0.9c0.6,0,0.8-0.5,0.9-1.2c-0.1,0-0.2,0-0.3,0c0.9-1.4-1.1-1.6-2-2.3c1.1-1.1,1.2,0.8,2,0.8
		c1.3-0.5-1.3-0.9-0.3-1.7c-0.6-0.5-0.8,0.8-1.4,0.3c-0.2-1.8,0.7-4.3-0.7-5.8c-0.4,0.1-0.2,0.5-0.2,0.8l-0.1,0
		c0.1,0.2-0.1,0.3-0.2,0.4c0.4,0.2,0.4,0.7,0.2,1.2c-0.5,0-0.4-0.6-0.4-1c-0.1,0.1-0.1,0.2,0,0.4c-0.6-0.3-1-1,0.4-1
		c-0.4-0.3-0.4-0.3-1.1-0.3c0.3-0.1,0.2-1-0.1-0.4c-0.6-0.4,1.2-1.6,0.4-2.2c0.3,0.1,0.6,0.2,0.9,0.1l-0.1-0.8
		c-0.3,0.1-0.5,0.2-0.5,0.4c0.3-3-0.6-6.8,0.9-9.6c0-0.5-0.8,0-0.6,0.4c-0.7-0.2-0.2-1.3,0.3-1.3c-1.2-1.6,0.1-2.2-0.6-4.1
		c2,0,0.4-2.4,1.7-2.1c0.4-0.9-1.3-0.1-1.1-0.5c0-0.6,0.2-2.6,0.2-3.3l-1.1-0.2c0.1-0.8,0.4,0.1,0.9-0.2c-1-0.7,1.2-1.3-0.5-2.1
		c0.2-0.4,0.5-0.3,0.9,0c-0.1-0.4-0.6-1.5-1.3-1.1c-0.7-0.1,0.4-0.9-0.7-0.8c0.3-0.3,0.5,0.1,0.8,0.2c-0.3-1.6,0.9-3.2,0.6-4.9
		c0.3,0.3,0.6,0.4,0.9,0.1c-0.7-0.2-0.8-1.5-1.5-1.1c-0.3-0.4-0.3-1.2,0.1-1.3c-0.2-0.3-0.6-0.4-1.6-0.7c-0.1,1.1-0.3,2.7,1,2.7
		c-0.1,0.4-1-0.1-1,0.4c0.3,1.1,1.1,2,0.8,4c-0.6-0.2,0.3-1.1-0.6-1.2c-0.2,0.4-0.3,2.3,0.5,2.9c-0.5,0-0.9,0.1-1.3,0.4
		c0.8,1.2-1.3,2.3,0.6,3.4c-0.2,0.4-0.7,0.4-0.7,0.9c0,0.5,0.9-0.1,0.7-0.5c1.2,1.5-2.2,2.6-1.1,3.7c-0.3,0.6-0.6-0.3-1.2-0.1
		c0.5,1,0.2,1.2,0.3,2.3c0.8-0.8,0.5-1.1,1.1-2.1c0.9,1-0.9,2.2,0,3.2c-0.4-0.1-0.6-0.3-0.5-0.6c-0.6,1.2,0.6,0.8-1.3,1.5
		c-0.3,0.6,0.4,0.7,0.5,1c0.8-0.2,0-0.9,0.1-1.2c0.4,0.4,0.9,0.7,1.4,0.9c-0.9,0.3-1.6,1-1.8,1.9c0.1,0.3,0.7,0.2,1.2,0.2
		c0.1,0.4-0.4,0.4-0.9,0.4c1.4,2.8,0.5,6,1.2,9.2C1191.8,293.8,1192.8,296,1192.7,297.5L1192.7,297.5z M1203.9,314.7
		c0,0.2-0.4,0.4-0.7,0.5c0.1,0.2,0.6-0.1,0.7,0.1c0.2-0.4,0.3-0.8,0.3-1.3c-0.2-0.1-0.5-0.9-0.8-1.3c-0.2,0-0.4,0-0.5,0
		c0.1-0.4,0.1-0.9,0.1-1.4c-0.2,0.1-0.4,0.3-0.7,0.4c0.4-0.5-0.1-0.4-0.3-0.9c-0.7,0.2-0.7,0.5-0.6,0.9c0.3,0,0.5-0.2,0.7-0.4
		c0.1,0.4,0.1,0.8,0.2,1.2l0,0c0,0,0,0.1,0,0.1C1202.2,313.7,1202.4,314.5,1203.9,314.7L1203.9,314.7z M1204.1,311.3L1204.1,311.3
		L1204.1,311.3c-0.2,0.2-0.1,0.4-0.5,0.5c0.2,0.2,0.6,0.8,1,0.9c-0.1-0.6,0-1.1,0.2-1.7c-0.1,0-0.2,0-0.3,0
		C1204.4,311.1,1204.2,311.2,1204.1,311.3L1204.1,311.3z M1203.9,315.5c0,0.5,1,1.2,1.2,0.5C1204.7,316.1,1205.2,314.7,1203.9,315.5
		L1203.9,315.5z M1204.4,322.8c0.4,0.3,0.3,1.3,0.9,1C1204.8,323.3,1205.9,322.1,1204.4,322.8L1204.4,322.8z M1230.4,352.7
		c-0.1-0.8-1.1-1.9-2.2-1.4c0.2,0.3,1.2,0.3,0.5,1c-0.4-0.5-1.2-0.6-2.3-0.8c0.4-0.6,0.8-0.5,0.5-1.1c-0.7,0.5-0.3-0.8-0.8-0.9
		c-0.4,0.3-0.2,1.3-0.9,1.2c0.1-0.7,0-1.5-0.4-2.1c-3.3-0.4-5.5-3.2-7.3-4.1c0.1,0.1,0,0.3-0.2,0.5c0.2,0.7,0.7,1.4,1.3,1.8
		c-0.3,0.2-0.6,0.3-0.9,0.2c1.9,2.4,4.4,4.3,7.3,5.4l-0.5,0.8c2.2,1,2.8,3.4,5.4,3.4c0.2-1.9-2.7-2.5-3.5-3.9
		c1.1-0.8,1.9,2.1,3.2,1.7C1228.6,353.8,1230,353.7,1230.4,352.7L1230.4,352.7z M1231.9,352.9c0.3-0.6,0.7-1.2,1.2-1.6
		c-1.3-0.2-1.5-1.7-2.8-1C1231,351.4,1231.1,352.1,1231.9,352.9L1231.9,352.9z M1235.3,356.1c-0.8-0.1-0.1-1-1-1.1
		c-0.3,0.5-0.1,0.7-0.4,1.1C1234.4,356,1234.9,356.4,1235.3,356.1L1235.3,356.1z M1245.6,358c-0.1-0.7,0-1.6-1-1.6
		c-0.2,0.7-0.5,1.1-1,0.9c0.4-0.3,0.6-0.8,0.7-1.3c-0.8,0.3-1.7,0.1-2.2-0.6c-0.8,1,0.9,0.4,0.5,1.2c-1.5-0.1-1.1-0.8-2.2-1.6
		c-0.7,0.2,0.1,1-0.5,1c0.2-1.2-1-0.5-0.7-1.6c-1.9-0.7-2.1-0.7-3.9-1.3c0.2-0.4,0.6-0.9,0.4-1.1c-0.4,0.5-0.9-0.5-1.3,0.3
		c0.2,0.3,0.6,0.5,0.6,1c-1.8-1.4-3.4-0.9-3,1.7c0.4-1.1,0.6-1.3,1.4-1.6c-0.5,0.7,0.4,1.6,0.9,0.8c0.1-0.4-0.6-0.4-0.4-0.9
		c2,1.4,3.9,2.2,5.7,3.8C1241.4,356.4,1243.8,359.7,1245.6,358L1245.6,358z M1256.7,369c-0.8,0.4-1.3-0.7-1.8,0.5
		C1255.4,369.3,1256.5,370,1256.7,369L1256.7,369z M1259.8,375.7c-0.3-0.1-0.2-0.5-0.1-0.9c-0.3,0-0.8-0.2-0.9,0.2
		c0.7-0.1-0.2,1.9,0.8,0.7C1259.5,375.8,1259.7,376,1259.8,375.7L1259.8,375.7z M1261.5,371.2l-0.8-0.1c-0.2,0.7,0.3,0.8,0.7,1
		L1261.5,371.2z M1263.1,370.5c-0.6,0-1.2-0.3-1.3,0.4c0.2,0.4,0.7,0.4,1.2,0.4L1263.1,370.5z M1265.6,368.7c-2.2,0.1-6.1-1-7,0.6
		C1260.1,369,1263.9,370,1265.6,368.7L1265.6,368.7z M1268.9,376.7c-0.4,0.8-0.4,0.9-0.3,2C1269.6,378.7,1269.2,377.3,1268.9,376.7
		L1268.9,376.7z M1270.3,377.6c-0.3,0-0.2-0.5-0.4-0.6c-0.1,0.3-0.3,0.2-0.4,0c-0.1,0.6,0.3,0.6,0.4,0.9c-0.3,0.1,0,0.5,0.2,0.6
		C1270,378.2,1270.1,377.9,1270.3,377.6L1270.3,377.6z M1274.6,379.9c-0.2-0.5-1-1.9-1.2-1.4c0.7,0.2-0.2,0.6,0,1.2
		c0.3,0,0.7-0.1,0.7,0.3c-0.3,0.1-0.9-0.1-0.9,0.3C1274,380.7,1273.8,380,1274.6,379.9L1274.6,379.9z M1280.7,375.5l-0.1-0.9
		c-0.4,0.3-1.2,0.1-1,1L1280.7,375.5z M1282.2,378.8c-0.7,0-1.9-1.3-2.1-0.1c0.6-0.1,1.2-0.2,0.7,0.5
		C1281.2,379.1,1282.2,379.5,1282.2,378.8L1282.2,378.8z M1286.4,374.5c-0.9-0.4-2.3,0.2-4.2,0c-0.1,2.3-1.7,1.4-2.2,2.3
		c1.8,1,2.5-0.1,3.2-1.5c0.7,0.8,2,0.8,2.7,0.1C1286.1,375.1,1286.3,374.8,1286.4,374.5L1286.4,374.5z M1290.6,373.1
		c-1.5-0.3-2.9,0.7-4.1,0.5l0.2,1.4c0.7-1,1.2-0.4,2.4-0.4C1289.3,373.2,1290.3,374.2,1290.6,373.1L1290.6,373.1z M1308.1,368.2
		c-0.4,0.1-0.7,0.1-1.1,0c0,0,0,0-0.1-0.1c-0.2,0.1-0.4,0.4-0.3,0.6c-0.2-0.9-0.8-0.6-1.2-0.5l0.2,0.5c-0.1-0.2-0.3-0.3-0.5-0.3
		c0.2,0.6-0.1,0.8,0.3,1.5C1306.4,370,1307,368.8,1308.1,368.2L1308.1,368.2z M1305.5,375.5c-0.1-1-0.8-0.2-1.3-0.2
		c0.2-0.7-0.3-0.5-0.2-1.2c-0.6,0.1-1.1,0.3-0.9,0.9c0.3,0,0.6,0.2,0.7,0.7C1304.4,375.5,1305.1,375.2,1305.5,375.5L1305.5,375.5z
		 M1307.9,373.9c-0.8,0-1.2-0.4-1.5,0.6C1307.1,374.5,1307.6,374.9,1307.9,373.9L1307.9,373.9z M1316.5,368.5c-0.2-0.5-0.4-1-0.9-1
		c-0.8,0.5-0.1,0.8,0.1,1.4L1316.5,368.5z M1318,367.8c-0.1,0.1-0.2,0.1-0.3,0.2L1318,367.8z M1332.7,356.9
		c-0.1,0.1-0.3,0.3-0.4,0.4c-0.4,0.4-1,0.6-0.9,0.4c-0.7,1.4-2.8,3.1-4.1,1.7c0.7,1.7-1.5,0.5-1.9,2c-0.1-0.2-0.3-0.5-0.5-0.6
		c-0.2,0.2-0.5,0.2-0.8,0.7c-0.4-0.4-0.2-0.7,0.1-0.9c-0.4,0.1-0.8,0.4-1.1,0.7c0.1,0.1,0.1,0.2,0.2,0.3c-0.3,0.2-0.5,0.3-0.6,0.4
		c-0.1,0.2-0.2,0.4-0.2,0.7c1,0.5,2.1-0.2,2.8-1.2c0,2.2-3.3,2.2-3.5,4.1c3.4-1.9,6.6-4,9.7-6.3c0.6-0.2,0-0.7,0-1.1
		c0.4,0.3,0.8-0.7,1.3-0.3C1332.9,357.6,1332.9,357.3,1332.7,356.9L1332.7,356.9z M1342.8,342.8c-0.4,0.4-0.8,0.7-1.2,1
		c0,0,0,0,0,0.1c0.4,0.2,0.1,0.4,0,0.6c0,0.1,0,0.2,0,0.3c0,0,0.1,0.1,0.1,0.1C1342.8,345.2,1343.2,343.7,1342.8,342.8L1342.8,342.8
		z M1345.2,340.8c-0.2,0.1-0.4,0-0.5-0.1c-0.5,0.7-1.1,1.3-1.7,1.9c0,0,0,0.1,0,0.1C1343.8,342.1,1344.5,341.5,1345.2,340.8
		L1345.2,340.8z M1346.9,341c-0.7,0.1-1.7,0.6-0.8,1.6C1346.5,341.8,1347.4,340.9,1346.9,341L1346.9,341z M1347.2,338.7
		c-0.4,0.7-1.1,1.1-1.9,1.2c-0.1,0.1-0.1,0.2-0.2,0.3C1345.9,340.7,1348.3,340,1347.2,338.7L1347.2,338.7z M1348,337.4
		c-0.6,0-1.3,1-0.3,1.4C1348.1,338.4,1348.2,337.9,1348,337.4L1348,337.4z M1350,335c-0.8,0.2-1.1,1.4-1.7,2.1
		C1349.4,337.5,1350.4,335.8,1350,335L1350,335z M1351.4,341.5l-0.4,0.6l1,0.7l0.5-0.8C1352.2,341.7,1351.8,341.5,1351.4,341.5
		L1351.4,341.5z M1354.8,325.5c-0.1,0.1-0.1,0.2-0.2,0.3c0,0.2,0,0.3,0,0.5c0,0-0.1,0-0.1,0c0.1,0.7,0.8,1.3,0.2,1.4
		c-0.3-0.1-0.1-1.1-0.7-0.6c0.7,0.6-0.5,0.6-0.5,1l1,0.5C1356.2,328.1,1355.4,326.6,1354.8,325.5L1354.8,325.5z M1354.8,323.9
		c-0.1,0.4-0.1,0.7-0.1,1.1c0.1-0.2,0.3-0.4,0.4-0.5C1354.9,324.2,1354.8,324.1,1354.8,323.9L1354.8,323.9z M1360.2,302.7l-0.9-0.2
		l-0.1,0.4c0,0,0.1,0,0.1-0.1c0.1,0.2,0.1,0.3,0.1,0.5C1359.9,303.4,1360,303,1360.2,302.7L1360.2,302.7z M1359.7,280.8
		c-0.4,0.6-0.6,1.2-0.7,1.9c0.6,0,0.6-0.3,1.2-0.3C1359.7,281.6,1360.8,280.8,1359.7,280.8L1359.7,280.8z M1360.1,278.8
		c0,0.2-0.4,0.3-0.9,0.3c0,0.7,0.6,1.2,1.3,1.2C1360.9,280,1361,278.8,1360.1,278.8L1360.1,278.8z M1369.3,287.8
		c-0.1,0-0.2,0.1-0.2,0.1c0.1,0.1,0.3,0.2,0.4,0.3C1369.4,288.1,1369.4,288,1369.3,287.8L1369.3,287.8z M1367.2,291
		C1367.2,291,1367.2,291,1367.2,291C1367.2,291,1367.2,291,1367.2,291L1367.2,291z M1366.2,294.2c0,0.3-0.5,0.2-0.6,0.4
		c0.3,0.1,0.2,0.3,0,0.4c0.6,0.1,0.6-0.3,0.9-0.4c0,0.3,0.5,0.1,0.6-0.2C1366.8,294.5,1366.5,294.4,1366.2,294.2L1366.2,294.2z
		 M1363,277.9l1.5-0.1c-0.9-0.8-0.4-1.3-0.3-2.4c-1.4-0.2-0.3-1.2-1.4-1.6C1362.3,275.2,1363.2,276.7,1363,277.9L1363,277.9z
		 M1363.7,304.7c0.2,0,0.4-0.1,0-0.2c-0.1,0.2-0.5,0.1-0.9,0c0,0.3-0.3,0.8,0.1,0.9C1362.9,304.7,1364.8,305.7,1363.7,304.7
		L1363.7,304.7z M1364.6,284.8l-0.1-1.1l-0.9,0C1364,284.1,1363.8,284.9,1364.6,284.8L1364.6,284.8z M1365.8,284.6
		c1.1-1.7,0.1-2.5-1.4-3.3c0.8-0.7,0.9-1.9,0.2-2.7c-0.2-0.3-0.5-0.5-0.8-0.6c-0.5,0.9,0.1,2.3-0.2,4.2
		C1365.9,282.4,1364.9,284,1365.8,284.6L1365.8,284.6z M1367.3,295.9c0-0.1,0-0.3-0.1-0.4c-0.1,0-0.2,0-0.3,0c0.1,0,0.2-0.1,0.2-0.1
		c-0.4-0.3-1.3-0.1-1.8,0.1C1366,295.9,1366.1,295.9,1367.3,295.9L1367.3,295.9z M1367.3,294.2c0-0.1-0.1-0.1-0.1-0.2
		c0,0.1-0.1,0.2-0.1,0.2C1367.2,294.3,1367.3,294.3,1367.3,294.2L1367.3,294.2z M1362.1,314.9c0.2,1-0.9,0.2-0.9,0.9
		c1.4-0.7,1.1,1,2.2,0.7C1362.5,316.1,1362.8,315.3,1362.1,314.9L1362.1,314.9z M1300,375.2c0.6,0.4,1.2,1.6,1.1,1.2
		C1301.5,375.8,1300.5,374.9,1300,375.2L1300,375.2z M1288.4,379.7c-0.6-0.3-2.1-0.7-1.2-1.6c-0.9,0.2-1.7-0.5-2,0.6
		c0.5,0.3,1.6,0.4,1.1,1.3C1286.7,379.3,1288.8,380.4,1288.4,379.7L1288.4,379.7z M1289.2,408l-1,1.9c1.3-0.4,2.5-1,2.4-2.4
		C1290.3,407.7,1289.1,407.4,1289.2,408L1289.2,408z M1230,370.6c0.2,0.4,0.7,0.6,0.5,1.2c-1.1-0.4-1.8-2.6-2.2-1.1
		c0.7-0.4,1.1,1,1.1,1.5c0.5-0.4,3-0.3,2.4-0.5C1230.5,371.8,1230.7,370.1,1230,370.6L1230,370.6z M1226.4,365.8
		c-0.8,1.1-2.2,1.6-1.9,2.9c0.2-0.5,0.6-0.3,0.9-0.5c-0.2-1,0.8-2.2,1.8-1.3C1227.9,366.1,1226.8,366.1,1226.4,365.8L1226.4,365.8z
		 M1219,365.4c0-0.6-0.7-0.7-1.2-0.4c1.3,1.3,2.3,0.7,3.2,2.1c0.2-0.3,0.4-0.5,0.7-0.2c-0.1-1,1-1.5,0.5-2.1c-0.6,0-0.2,1.2-0.9,1.8
		l-0.8-0.5l0.8-1.2C1220.2,365.1,1219.2,364.1,1219,365.4L1219,365.4z M1205.2,369.4c0.1,0.6,1.4,1.1,0.2,2
		C1206.9,372.4,1206.3,369,1205.2,369.4L1205.2,369.4z M1173.3,320.7c0.2,0.3,0,0.7-0.3,0.9c-0.7-0.6-0.4-0.8-0.6-1.7
		c-0.5,0.1-0.5,0.5-1,0.6c0.1-1-1.1-1.2-1.5-1.7c0.3,0.7-0.4,1,0,1.7c1.3,0.3,1.3,1.1,2.2,2.6c0.5-0.3,0.7,0.1,1,0.2
		c-0.2-0.6,0.2-1,0.3-1.5c0.3,0.1,1.6,0.3,1.5-0.3C1173.7,321.4,1174.2,320.7,1173.3,320.7L1173.3,320.7z M1370.7,266.9
		c0.3-0.3,0.8-0.6,1-0.9c-0.3,0.1-0.6,0.1-0.9,0c0.1,0.4-0.2,0.6-0.7,0.6c0.1,1.1,1,1.1,1.5,1.6c-0.1,0.7-0.8,1.1-1.2,1.7
		c0.9,0.8,0.2,2.6,1,4.2c-0.3-1.1,0.6-1.5,1.2-2.1c-0.9-0.7-0.3-1.4-1.2-2c0.5-0.1,0.6-0.3,0.2-0.5c0.7-0.1,1.4-0.2,1.3-0.7
		C1372,268.3,1371.6,267.3,1370.7,266.9z M1186.5,330.2c-2,1.3-3.2,1-4.3,0c1.3-0.6,0.3-1.7,1-2.4c-1.1,0.6-1.1-0.4-1.6,0
		c0.3-0.3,0.5-0.6,0.5-1c-1.3,0.7-1.5-1-2.1-1.8c-1,0.5-0.6,0.6-1.6,0.7c-0.4,1.4,0.6,3.8,0.6,4.8c2.4,1.3,0.4,6.2,2.7,8.5
		c1.5,1.5,4.3,1,6.9-1.5C1189.5,335.1,1189.4,331.5,1186.5,330.2L1186.5,330.2z"/>
</g>
</svg>
