<svg xmlns="http://www.w3.org/2000/svg" width="229.935" height="232.907" viewBox="0 0 229.935 232.907"><defs><style>.a{opacity:0.3;}.b{fill:#ee7600;fill-rule:evenodd;}</style></defs><g class="a" transform="translate(-1169.701 -176.941)"><path class="b" d="M1253.467,380.731a1.023,1.023,0,0,1-1.068.374c.138-.5-.162-.658.005-1.18l.706.146C1252.67,380.5,1252.758,380.673,1253.467,380.731Zm-31.273-11.437c.581.1,1.378,1.393,1.764.342C1223.337,369.343,1222.651,368.606,1222.194,369.294Zm-2.341-21.7a1.433,1.433,0,0,0-1.307-.341C1218.474,347.92,1219.331,347.964,1219.853,347.6Zm-29.945-27.154-.436-1.025C1188.508,319.444,1189.219,321.112,1189.909,320.444Zm1.031-2.806c1.528-.562-.583,1.446,1.044.983a10.282,10.282,0,0,1-.04-1.613C1191.552,317.2,1190.913,317.329,1190.94,317.638Zm8.117-4.047a.9.9,0,0,0-.91-.711C1197.413,313.361,1198.3,313.667,1199.057,313.591Zm1.209-2.507c-.329-.726-.655-1.464-.108-1.97-.921.639-.555.139-1.239,0C1198.187,309.826,1199.458,310.809,1200.266,311.083Zm-8.645-30.025c-.18.7.222,1.035.844,1.222C1192.248,281.834,1192.325,281.207,1191.621,281.058Zm2.334-12.568c-1.192.082.077-.872-.69-.971-.045.906-1.524,2.117-.5,2.579C1193.232,269.226,1192.819,268.782,1193.955,268.491Zm1.635-35.573c.336.388-.618.9-.14,1.282.675-.049.109-.626.753-1.151-.656-.806-1.99-.693-1.486.129A1.641,1.641,0,0,1,1195.59,232.918Zm35.528-29.592c-.264.1-.524.176-.683-.3-.789.7-1.7,1.054-1.4,1.756C1229.493,203.828,1230.87,204.026,1231.119,203.327Zm20.749-8.677a1.261,1.261,0,0,0-.906,1.142C1251.551,195.621,1252.433,195.681,1251.867,194.65Zm20.614-5.282c.426.122-.093.31-.22.585,1.732-.37,2.6-.333,4.012-.634C1275.124,188.814,1273.5,188.5,1272.481,189.368Zm17.091,2.681c-.4,1.114,1.2,1.35,1.17.173C1290.155,192.165,1289.933,192.649,1289.573,192.049Zm1.464,5.2c.123.256,1.378,1.013,1.381-.06C1291.608,197.377,1291.511,196.823,1291.037,197.245Zm-25.857,6.9-.027-.233c-.336.121-.671.244-.981.377ZM1179.3,300.517c-.583-4.347-1.08-9.2-1.35-14.275a94.766,94.766,0,0,1,.53-15.382l.867.125c-.474-.2-1.309-1.934-.124-1.2-1.061-1.162.309-3.058.149-4.272,1.334,3.227,1.039,8.025-.077,11.078,1.035-.56,1.24,2.276.186,1.619,1.427,2.492.638,4.424,1.573,7.063-.421-.249-.715-.242-.875.227a2.108,2.108,0,0,1,.693,2.911c-.184.621.6.426.63.868.309-1.169,2.154-4.114,3.13-1.66-1.024.366-.212-.726-.9-.625-1.2.64-.268,2.143.7,2.359.867-.044-.5-1.58.8-1.325.473,1.966.185,2.791,1.414,3.538-1.1,1.471.03,4.158,1.133,4.753-.552.8-.881.982-.022,1.715-.262-.144-.811-.005-.935-.293-.737,1.024-.634,1.451-.131,2.636-.7-.139-1.379-.4-1.723.306.546-.137,1.38.525.536,1.242,1.053.579,1.777,1.044,1.7,2.312-1.027.065-1.229-.851-.955-1.571-.516.075-.547.384-1.1.447a4.449,4.449,0,0,1,.955,2.723c1.01-.01.27-.765.3-1.2.872-.309.373,1.029,1.352.581-.295.622-1.67.8-1.366,1.684,1.387-.12.187-.064.636,1.2a1.614,1.614,0,0,0,.383-.782c0,.912.066,2.425.214,3.817,1.435.236-.018.852-.344-.125-.216.109-.216.3-.5.381-.272.978.5,1.169-.276,1.961.523.458,1.473-.464.891-.989,1.116.1-.214,1.868,1.344,1.182-.047.42-.98,1.5-.013,1.635.051.688-.664.012-1.1.394.274.685,1.362.075,1.575.844-.691-.007-1.177-.355-1.964-.225.222.778,1.118.466,1.391,1.156-.541.209-.12.7-.922.838.56-1.047-.182-1.031-.936-1.583-.542.547.5,2.961,1.537,3.043-.217.5.658,1.283-.275,1.589-.469-.56.2-.808-.265-1.368-.493.111-.44.373-.364.641-.9-.442-.139-1.929-1.04-2.539-.244-.271-.313.216-.814.31-1.028-.264.088-1.871-1.218-1.526.77-1.179-.918-2.713-1.594-3.638.986-1.246-.186-2.4-.224-3.8-1.24.774-.183,1.456-.055,2.912-1.164-.16-.185-1.738-1.074-2.609,1.326-.083-.625-1.594,1.1-1.492-.91-1.1-.778-1.6-.462-2.966C1179.648,304.682,1180.463,301.28,1179.3,300.517Zm4.787-3.259c-1.109.41-.71,2.3.147,2.66C1184.687,299.3,1184.105,298.139,1184.083,297.258Zm-.069-.436c.393-.392.3-1.557-.771-1.241A1.582,1.582,0,0,0,1184.014,296.821Zm2.41,15.386c-.15-.3-.148-.817-.548-.77-.013.373-.822.453-.286,1.032Zm.589-2.036c.151-1.2-1.937-.954-1.4-1.685.282-.1.834.768.907-.015-.878.041-.026-.732-.3-1.066l-1.131.292C1184.259,309.132,1185.878,309.743,1187.013,310.171Zm-1.873-13.721c.128.78.1,1.726.882,1.849C1186.132,297.447,1186.237,296.639,1185.14,296.45Zm.072-1.541c0,.574.24.912.995.753C1186.208,295.1,1185.972,294.758,1185.212,294.909Zm-1.421-2.467c.3-.687,1.02.15,1.744-.145.033-1.329-.26-2.355-1.383-2.713A23.9,23.9,0,0,0,1183.79,292.442Zm0,2.85a2.589,2.589,0,0,1,.9-2.5C1183.736,292.449,1181.825,295.073,1183.795,295.293Zm-1.83-3.588c.253.819.175,2.092.451,1.741C1182.867,292.891,1183.23,291.881,1181.964,291.7Zm83.194,90.257c-.981.517-1.257-.367-1.925.14.116.594,1.34.05,1.38.7-1.577.9-2.442-1.212-3.972-1.27-.08.335-.062.821-.348.833a5.126,5.126,0,0,0-.565-1.235c-1.7.539-4.567-1.2-6.137.219.313.455,1.728.495.737,1.315,1.177.318.3-.829.934-1.018.01.232.139.363.427.362-.007.014,0,.021-.009.034s-.009.007-.011.012l.007,0c-.474,1.145,1.571.426,2.285,1.167.65-.3-.307-.921.411-1.11.4,1.025,1.385,1.342,1.44.19-.188.417,1.937.094,1.1,1.006,2.606.1,2.314.6,4.355.4C1265.132,382.673,1265.289,383,1265.159,381.961Zm-44.267-15.128c-.263.4-.654-.209-.929.114.4.1.109,1.334-.421,1.1-.115-.6-.715.094-1.517.193,1.406.05,3.044,1.307,3.9.561A1.15,1.15,0,0,1,1220.892,366.833Zm-11.71-48.216c.385.337.232.769.713.817-.012-.151.113-.3.425-.428-.208-.385-.373-.831-.895-.69a1.286,1.286,0,0,1,.284-.526c-.835.359-1.942-.85-1.072-1.432.134.164.18.468.5.344l-.239-.469c-.7.115-.685.372-1.477.309.8.684.793,1.183,1.505,2.25A1.047,1.047,0,0,0,1209.182,318.617Zm-9.45-1.91c.833.777.383,1.692,1.016,2.127C1200.794,317.965,1200.713,316.975,1199.732,316.707Zm-10.89,4.927c-.516,1.433-1.512-.037-2.139.931.944-.357,1.268.465,2.088.329C1188.038,322.288,1189.335,322.177,1188.842,321.635Zm2.4-4.814c-.308-.563.235-.891.418-1.316-.357.177-.946-.819-.978-.1,1.133.548-.644,1.1-.61,1.629C1190.463,316.96,1190.705,317.127,1191.242,316.821Zm-1.1-2.832c-.018.3-.2.539-.674.7.559.493.338.666.2,1.327C1190.571,315.666,1190.2,314.02,1190.144,313.99Zm11.125-5.239c-.049-.68,2.063-1.944.031-1.762.025.374.489.236.725.357C1201.508,307.64,1200.077,308.543,1201.269,308.751Zm-7.13-71.855c-.669.117-2-.376-1.607-.145C1192.587,237.5,1193.961,237.472,1194.138,236.9Zm7.452-10.7c.521-.753,1.594-.766,1.1-1.766-.549.126-1.483.774-1.716-.225.224.877-2.091,1.442-1.326,1.625C1200.3,225.636,1201.713,224.944,1201.59,226.2Zm-21.671-20.786-.545-2.041c-.675,1.193-1.235,2.384-.2,3.376C1179.328,206.311,1180.438,205.775,1179.919,205.414Zm69.3-11.544c-.382-.192-.926-.022-1.158-.571,1.073-.432,3.117.743,2.309-.646-.227.753-1.491.048-1.855-.385-.1.695-2.061,2.191-1.431,1.924C1247.983,193.346,1249,194.642,1249.218,193.87Zm5.058-1.306c.832.543.928,2.186-.461,2.193-.01,1,.8.267,1.252.3-.181-1.331.557-2.68-.512-3.443C1254.744,192.151,1254.361,192.237,1254.275,192.564Zm4.662.554c.444-.343-.637-1.064-.584-1.954l.941-.164.239,1.428c.624-1.02,2.045-.926,1.366-1.983.421.4,1,.066,1.143-.464-1.862-.124-2.228,1.011-3.789.615.035.351.049.683-.369.654C1258.67,191.9,1258.106,193.024,1258.938,193.118Zm9.518-14.83c-.514-.4-1.768.139-1.432-1.347C1265.115,177.224,1267.876,179.3,1268.455,178.288Zm43.612,29.611c.782-1.281-.441-1.485-1.05-2.026.029-.307.051-.606-.1-.733a1.392,1.392,0,0,1-.183.213.721.721,0,0,1-.018-.265l-.234.528c-.13-.036-.256-.063-.318.179a1.831,1.831,0,0,0,.161.108,1.386,1.386,0,0,0-.083.208c.619.182.47.794.643,1.223.127-.375,1.254-.083.761-.617-.561.191-.662-.074-.659-.441a5.853,5.853,0,0,1,1.052.656C1311.873,207.352,1311.592,207.829,1312.068,207.9Zm11.3-14.2c.876-.677.981.128,1.7-.435a.732.732,0,0,1-.429-.872c.932.023.812.349,1.628.855.317-.451.046-.7.323-1.144.605.8,1.615.214,2.292.269-.722-.314-.4-.973-1.127-1.285-1.205.664-1.7,0-3.4-.452-.189.543-.585.354-.873.541.594.326.589.882.785,1.355C1323.985,192.6,1322.916,193.373,1323.368,193.7ZM1213.324,363.829c-.405-.6-.157-1.352-.281-2.009-1.207,0-1.876-1.819-3.552-2.446.992.627.579,1.511.557,2.339,1.151-.026,1.183.861,2.269.646-.347.421-.229.6.207.521-.469.546-.9,1.084-.495,1.437.927-.329,1.9.227,2.818-.1a4.57,4.57,0,0,0-.089,1.358,1.6,1.6,0,0,1,.707-.569c-.376-.217-.293-.555.117-.979C1214.789,363.3,1214.081,363.913,1213.324,363.829Zm-13.849-49.981c.191.7.792,1.479-.48,1.883.148.476.791.193,1.117.387-.393-.4.407-.581.575-.872C1200.233,314.849,1200.547,313.351,1199.475,313.848Zm109.334-118.819c.566-2.263,1.762-2.859,3.2-2.844-.6,1.316.962,1.47.875,2.5.393-1.188,1.123-.4,1.24-1.054a1.388,1.388,0,0,0,.35,1.087c.5-1.344,1.785-.228,2.754-.064.431-.995.082-.867.724-1.582-.7-1.325-3.042-2.42-3.682-3.126-2.72.633-4.511-4.309-7.807-4.528-2.184-.136-3.911,2.1-4.1,5.749C1303.26,193.393,1305.777,196,1308.809,195.029Zm-88.188,9.47a.925.925,0,0,1,.374-.886c-.039.026-.05.027-.1.059-.43-.305.823-1.287,1.47-1.288.21.415-1.346,1.226-.344,1.251.123.346-.175.185-.444.3a.968.968,0,0,1,.366.394l-.6.392C1221.35,204.1,1221.164,204.043,1220.622,204.5Zm.519-.975a1,1,0,0,0,.31.311C1221.509,203.476,1221.545,203.281,1221.141,203.524Zm29.759-12.84c-.483.336-1.969-.019-1.492.993C1250.056,191.45,1251.068,191.491,1250.9,190.684Zm17.145,13.7a1.425,1.425,0,0,0,1.167-.674C1268.79,203.192,1268.153,203.762,1268.045,204.386Zm40.56-1.77,1.04.419C1310.31,202.343,1308.616,201.66,1308.605,202.616Zm-1.576,11.252a.906.906,0,0,0,1.151-.134C1308.356,212.88,1307.51,213.285,1307.029,213.868Zm5.468,5.513c1.135-.363,1.525,1.188,2.485,1.062-.153.3-.457.682-.289.834C1316.278,219.97,1312.975,217.862,1312.5,219.381ZM1322.615,223c.266.6.668,1.026,1.289.58C1323.475,223.476,1323.079,222.534,1322.615,223Zm12.9,8.661c-.37-.618-.9-.576-1.469-.272C1334.517,231.555,1334.91,232.053,1335.514,231.664Zm7.322,10.522c.784-.893.568.671,1.181.2-.615-.672-.434-2.565-1.484-2.177C1342.822,241.16,1343.432,241.185,1342.836,242.186Zm23.423,25.294c-.442.508.37.519.289,1.341,1.039.111,1.9-.9.959-1.132a1.612,1.612,0,0,1-.431.795C1366.561,268.446,1366.868,267.414,1366.259,267.48Zm-2.751,44.322c.364,1-.751,1.82-.427,2.488.114-.257.245-.491.694-.269C1363.835,312.976,1364.222,312.088,1363.508,311.8Zm-19.973,40.759c-.961,1.475-1.6,2.059-2.385,3.258,1.174-.448,2.548-1.367,2.647-2.69C1343.41,353.341,1343.643,352.845,1343.535,352.561Zm-4.731,6.652c2,.409.3.242.707-.643.249-.548,1.352-.544.816-1.562C1339.792,358.036,1339.064,358.031,1338.8,359.213Zm-5.712,4.772c.579-.571,2.131-1.936,1.718-2.092A3.8,3.8,0,0,0,1333.092,363.985Zm-4.245-.085c.457-.372.268-.869.951-.7C1329.287,362.133,1327.985,363.09,1328.847,363.9ZM1318.9,202.769c.192,1.571,1.848,1.571,2.874,2.532.324-1.416-.91-1.158-2.04-2.1.937-.7,1.371,1.1,2.622,1.092-.878.987,1.579.689.286,1.825,1.427.139,1.69.585,2.445,1.775,2.023-1.321,3.876,1.655,5.246,1.378,3.515,2.666,7.33,5.747,11.146,9.148a96.061,96.061,0,0,1,10.607,11.248l-.7.519c.481-.187,2.306.451.944.762,1.58.079,1.964,2.379,2.945,3.126-3.247-1.348-6.464-4.947-7.854-7.888-.332,1.121-2.5-.741-1.288-1.015-2.788-.762-3.61-2.681-6.155-3.893.475-.119.679-.33.456-.773a2.141,2.141,0,0,1-2.569-1.573c-.313-.567-.729.119-1.065-.173.616,1.043,1.414,4.417-1.028,3.365.462-.976.669.365,1.086-.192.393-1.294-1.341-1.7-2.183-1.175-.582.639,1.482.767.378,1.5-1.738-1.059-2.123-1.845-3.526-1.511-.274-1.81-2.99-2.919-4.194-2.568-.185-.956-.078-1.311-1.208-1.229.288-.082.577-.565.87-.448-.21-1.24-.587-1.469-1.79-1.956.592-.389,1.26-.683,1-1.423a.685.685,0,0,1-1.265-.5c-1.158.328-2,.506-2.854-.444.68-.765,1.476-.258,1.8.442.312-.415.112-.655.458-1.086a4.537,4.537,0,0,1-2.62-1.257c-.707.715.355.731.646,1.053-.4.829-1-.467-1.371.536-.236-.647.61-1.735-.237-2.147-.895,1.056-.087.177-1.306-.4a1.617,1.617,0,0,0,.287.822c-.652-.644-1.778-1.669-2.875-2.549-1.183.838-.6-.615.332-.152.075-.228-.061-.362.079-.616-.506-.882-1.186-.478-1.205-1.581-.7.043-.71,1.36.075,1.324-.862.708-1.182-1.471-1.794.105-.266-.33-.378-1.747-1.158-1.166-.527-.451.461-.474.5-1.049-.683-.293-1.017.9-1.716.506.493-.479,1.085-.573,1.55-1.217-.713-.395-1.123.453-1.809.157.233-.526-.414-.579.054-1.238.352,1.132.865.6,1.792.464-.007-.766-2.469-1.741-3.26-1.075-.2-.5-1.381-.447-.94-1.316.732.068.436.711,1.164.781.27-.424.044-.572-.2-.709.95-.315,1.475,1.267,2.549,1.067.366.02.068-.372.354-.79.916-.533,1.274,1.385,1.951.227C1315.477,202.686,1317.766,202.589,1318.9,202.769Zm14.276,13.688c.077.709.542,1.678,1.562.916C1333.978,216.972,1333.124,216.017,1333.179,216.458Zm-1.386,3c.925.963,1.866,1.483,2.915.949a24.275,24.275,0,0,0-1.786-2.274C1333.2,218.826,1332.1,218.74,1331.793,219.455Zm-.908-3.337a2.6,2.6,0,0,1,1.142,2.4C1332.957,218.088,1332.435,214.894,1330.885,216.118Zm-1.247-.927c0,.552.9,1.312,1.431.337A1.61,1.61,0,0,0,1329.639,215.191Zm-.722,2.355c.4.4.81.474,1.241-.164C1329.748,216.976,1329.336,216.905,1328.917,217.547Zm-1.642-4.394c.117.756,1.358,1.171,2,1.779C1329.769,213.865,1328.137,212.807,1327.275,213.153Zm-.111,2.4c.531.68,1.033,1.325,1.943.69C1328.46,215.78,1327.8,215.094,1327.164,215.552Zm-9.177-7.7c.75.955,2.05-.682,2.194.21-.127.269-1.138.04-.631.645.592-.644.542.5.972.544l.592-1C1320.677,206.658,1319.1,207.36,1317.987,207.852ZM1316.95,206c.322.109.688.474.937.161-.256-.273.258-.9-.535-.93Zm-105.474,5.817c.325-1.053,1.151-.621,1.261-1.447-.506-.339-.984.9-1.474.473.47-1.744,2.592-.853,3.716-1.884-.182-.293-.543-.624-.349-.833a5.253,5.253,0,0,0,1.281.477c.821-1.575,4.089-2.349,4.184-4.453-.547-.1-1.576.861-1.46-.414-1.06.6.382.795.067,1.374a.362.362,0,0,0-.561.043c-.475-1.272-1.425.754-2.476.73-.246.667.874.437.5,1.073-1.013-.445-1.937.021-1.154.875-.165-.426-1.437,1.29-1.5.057-1.911,1.757-2.062,1.2-3.365,2.768C1210.987,211.3,1210.644,211.176,1211.475,211.817Zm42.1-20.3c-.1-.47.612-.31.576-.731-.349.21-1.029-.867-.489-1.073.513.346.438-.567.935-1.2-1.03.95-3.085,1.208-3.161,2.337A1.161,1.161,0,0,1,1253.578,191.512Zm15.491.031c1.566.237,2.07.5,3.494-.192-.244-.373-.25-1.065-.738-1.125.2-.332.436-.112,1.173-.337a4.794,4.794,0,0,0,1.286,2.4,2.533,2.533,0,0,0,.344-.372c-.025.195-.056.362-.09.513a.959.959,0,0,0,.38-.2,2.559,2.559,0,0,1-.059-.606c.323-.46.6-.315.848-.117a.6.6,0,0,1,.326-.146,1.986,1.986,0,0,1-.247-.022c.184-.559.732-.662,1.168-.912.024-.186.046-.373.072-.557.909.336.876-1.01,1.434-.258a.963.963,0,0,0-.12-.672,2.706,2.706,0,0,0-.634.115,1.3,1.3,0,0,1,.138-.3c-.032,0-.04-.028-.075-.025.058-.832,1.639.3,1.706-.527a.473.473,0,0,1,.186.151c.412-.457-.28-1.259.7.212a2.008,2.008,0,0,1-1.03.335,1.044,1.044,0,0,1-.606.143c.224.393.184,1.084.665,1.181.326-.079.232-.719.292-1.149.908.288,1.723,1.117,1.952-.491,1.171,1.344,2.621.593,3.752,1.168a1.343,1.343,0,0,0,.154-.237c-.147-.016-.291-.027-.442-.048-.063-.14.158-.214.5-.254-.028-.133-.133-.25-.358-.349.694-.858,1.5.182,1.717-.1.156.045.176.217.166.417.262.005.506.011.685.012a1.958,1.958,0,0,1-.707.287c-.005.058-.012.118-.013.172.77-.056.887.795,1.233-.141.2,1.153,1.573,1.219,1.832,2.292-.407-.186-1.651-1.624-1.678.062-.265-.084-.123-.55-.113-.892a5.058,5.058,0,0,1-1.486.4,8.142,8.142,0,0,0-1.012-1.571c-.62,0,.271.53-.127,1.148-.484-1.152-.962.469-1.136.586a1.564,1.564,0,0,1-.069-.416c-.012.363.016.451.069.416a2.232,2.232,0,0,0,1.072,1.305,8.841,8.841,0,0,1,2.616-.093c.277-.013.269-.5.355-.828.553.448.644.691.253,1.491a2.3,2.3,0,0,0,.293.017c0-.005,0-.007,0-.013l.156.022c.583,0,.761-.154,1.116.494a.824.824,0,0,0,.6-.787c4.833,1.41,8.913,1.552,12.4,1.949-.967.637.619.7-.072,1.8a.98.98,0,0,1,.756-.068c.084-.56-.8-.489-.317-1.314.932.837,1.523.712,1.468,2.3-.62.676-.773-1.67-1.288.188a107.745,107.745,0,0,0-14.145-3.718c-.1.355-.32.673-.673.6a.916.916,0,0,0,.053-.709c-.314-.054-.609-.111-.937-.164,0,.108.013.248.021.464a1.2,1.2,0,0,0-.214-.494c-.277-.045-.586-.088-.874-.132-.683.224-1.508.7-2.094-.131-.125.2-.173.524-.334.666-.072-.432-.763-.228-.985-.508-.181.045-.361.095-.546.125a1.014,1.014,0,0,0-.335.794c-.62.135-1.755-.476-2.039.17a3.289,3.289,0,0,1,1-.837c-3.173.028-6.674-1.262-9.276-.166.106-.432.318-.741.427-1.172-.706-.183-.827.325-1.367.348-.62-1.535-3.186.187-3.954-.619C1268.4,192.8,1268.818,192.362,1269.069,191.543Zm12.6-.061c-.011,0-.018,0-.03,0-.122.138-.417.276-.5.552C1281.472,192.067,1281.812,192.115,1281.67,191.482Zm-.725,0a1,1,0,0,0,.125-.017C1281.029,191.474,1280.983,191.474,1280.944,191.484Zm-4.84-.115c.109.024.213.138.311.323.021-.022.041-.026.062-.056C1276.457,191.42,1276.291,191.382,1276.1,191.369Zm28.222,20.769c-1.144.034-1.479-.928-2.237-.793C1302.678,211.992,1303.442,212.636,1304.327,212.137Zm5.03-13.267c-.413.913-1.228.559-1.712,1.23.966-.1.128.889.863.926C1307.851,199.652,1309.6,199.994,1309.357,198.871Zm3.69,8.474c-.2-.222-.244-.52-.023-.967-.747.042-.715-.234-1.088-.8C1311.548,206.458,1312.986,207.361,1313.047,207.345Zm53.456,56.288c-.574-.491-1.526.491-1.24,1.023C1365.653,264.1,1366.943,263.524,1366.5,263.633Zm30.866,11.857c.2.42-.2,1.576.424,1.468l1.843,1.061C1399.262,276.7,1398.808,275.469,1397.369,275.49Zm-27.31,31.4c-.165.994-.269.533-.62.117.026.426-.553.507-.15.7.727-.685.2.978.65,1.125C1370.4,308.377,1370.581,306.806,1370.059,306.891Zm-11.745,25.039c-.034,1.229-1.678,1.025-1.281,1.723.406-.132.67-.633,1.227-.407-.45,1.057-2.735,1.658-1.171,2.074-.377-.692,1.02-1.078,1.587-1.026C1358.252,333.731,1358.569,331.3,1358.315,331.93Zm-3.76,26.214c.651-.074,1.151-1.337,1.975-.051C1357.677,356.558,1354.243,357.024,1354.555,358.144Zm-17.206-3.919c1.484-2.089-.6-.372-.9.045A1.73,1.73,0,0,1,1337.349,354.226Zm-32.431,32.935c.156-.244.357-1.542-.2-1.458-.137,1.092-.785.6-.892,1.5a.745.745,0,0,1,.927.316c-.675.636-.824.322-1.761.535.1.541.468.528.588,1.036-1-.145-1.3.979-1.812,1.415.734-.283.977.408,1.714.119.378-1.314,1.2-1.195,2.725-2.06-.253-.517.161-.66.23-.994C1305.788,387.755,1305.4,387.358,1304.919,387.16ZM1259.34,189.782c1.076-.046,1.138-.975,1.734-1.446.716.142,1.077.846,1.633,1.224.85-.848,2.625-.027,4.258-.758-1.149.252-1.489-.663-2.064-1.263-.795.824-1.451.219-2.065,1.132-.055-.541-.264-.583-.518-.223-.058-.715-.138-1.4-.676-1.362-.421.882-1.506,1.171-1.918,2.048a4.617,4.617,0,0,0-.906-1.022,1.572,1.572,0,0,1-.093.9C1259.145,188.9,1259.327,189.2,1259.34,189.782Zm46.205,22.53c-.444-.233-.7.417-1.067.509.566.011.127.7.216,1.019.605-.037,1.452,1.241,1.855.14C1305.913,213.616,1304.934,213.489,1305.545,212.312Zm8.524,162.256c1.215,2,.795,3.256-.231,4.251-.517-1.35-1.731-.366-2.4-1.155.57,1.116-.506,1.071-.124,1.614a1.413,1.413,0,0,0-1.024-.523c.608,1.3-1.1,1.41-1.9,1.974.4,1.006.562.671.618,1.626,1.441.446,3.878-.419,4.835-.368,1.471-2.352,6.266-.112,8.754-2.266,1.641-1.434,1.264-4.227-1.206-6.936C1319.161,371.838,1315.519,371.758,1314.069,374.568Zm39.4-144.25c.478-.276.362-.594.8-.872a1.023,1.023,0,0,0-1.047-.431c.488.513.436.7-.182.727Zm15.237,27.938c-.364-.46-.082-1.948-1.078-1.425C1367.891,257.461,1367.9,258.463,1368.705,258.256Zm-9.076,57.689-.37,1.05C1359.992,317.617,1360.594,315.907,1359.63,315.945Zm-27.913,28.1c.6-.4.535-.916.2-1.467C1331.776,343.057,1331.294,343.471,1331.717,344.049Zm-10.235,7.781c.941.731-.647.6-.145,1.179.647-.642,2.564-.561,2.119-1.579C1322.516,351.763,1322.523,352.368,1321.482,351.83Zm-25.643,24.82c-.059,1.033,1.008,1.835,1.19.89a1.636,1.636,0,0,1-.824-.386c.013-.511,1.069-.26.971-.859C1296.642,375.883,1296.672,376.687,1295.839,376.649Zm-46.026-1.1c.265.1.508.217.307.673,1.058.006,1.973.343,2.224-.378C1251.359,376.254,1250.47,375.193,1249.813,375.547Zm-19.828-7.572c-.553-.265-1.167-.894-1.445.246A1.28,1.28,0,0,0,1229.985,367.975Zm-19.763-9.8c-1.536-.875-2.159-1.481-3.408-2.192.512,1.138,1.508,2.449,2.849,2.48C1209.429,358.091,1209.942,358.3,1210.222,358.175Zm-3.874-3.413a.308.308,0,0,1-.006-.166,2.562,2.562,0,0,0-.34-.216,4.579,4.579,0,0,0,.6-1.311,1.334,1.334,0,0,1-.488-1.706c-.038,0-.077,0-.115,0-.259.043-.235.372-.868.637a.969.969,0,0,0-.994-.977c-.022-.343.353-.145.7-.207a1.275,1.275,0,0,1,.1-.315,4.675,4.675,0,0,0-1.8,1.073c-.4-.874-1.34.1-1.2-.821-.495.4-.545.77-.144,1.111-.635.548-.948-1.357-1.582-.822-.239-.728.905-.409,1.135-.066.122-.435.644-.9.373-1.3-.287-.173-.677.346-1.027.607-.385-.742-.422-1.725-1.328-1.273a7.724,7.724,0,0,1,1,1.016c-.088.271-.733-.252-1.34-.8-.022.016-.037.021-.06.038,0-.035-.005-.062,0-.1-.3-.277-.6-.554-.794-.732a2,2,0,0,1,.776.292c-.185-1.344-1.451-1.85-1.8-2.917-.5.054-.72.242-.53.731-1.1.12-.928-1.176-1.288-1.131-.138-.25.294-.481.541-.719-.585-.5-.059-1.183-.973-.764.682-.956-.242-1.964.341-2.9.155.416.008,2.3,1.231,1.132.128.245-.307.475-.557.709a5.041,5.041,0,0,1,1.34.755,8.077,8.077,0,0,0-.405,1.82c.439.432.187-.565.909-.722-.4.971.583.553,1.032.419.137-.683-.354-.471-.751-.9a.647.647,0,0,1,1.172.122,2.674,2.674,0,0,0-.165-1.267.941.941,0,0,0-.618.248c-2.635-4.254-5.568-7.066-7.889-9.676,1.15.169.015-.932,1.269-1.286a.971.971,0,0,1-.607-.452c-.441.359.26.891-.654,1.186-.126-1.241-.65-1.539.464-2.68.917-.09-.555,1.753,1.083.716,1.935,3.245,3.413,5.731,5.165,8.292.314-.156.668-.2.854.082a.936.936,0,0,0-.51.414c.182.261.357.52.546.784.071-.077.149-.164.282-.305a1.178,1.178,0,0,0-.179.445c.188.262.393.535.591.8.676.315,1.588.579,1.275,1.678l.151.193c1.977.752,3.37,2.542,4.722,4.308a1.107,1.107,0,0,0,.571-.336c.46.259.837,1.131,1.324,1.248a4.379,4.379,0,0,1-1.3-.141,9.336,9.336,0,0,0,3.574,3.158,2.577,2.577,0,0,1-.323.151c.5.555.818,1.106-.557.259a2.471,2.471,0,0,0-.258.12c.369.624.816.35,1.216.711a.939.939,0,0,0-.046.631c.292.076.584.135.876.2a1.112,1.112,0,0,1-.153.725c.108.083.212.166.327.246.929-.633,1.3-.266,2.092.223a4.14,4.14,0,0,1-1.656.077c.5.347.926.689.914,1.107-.265-.667-.87-.65-1.632-.247-.214-.289-.381-.53-.54-.751-.792.179-.667-.5-.784-.87a2.736,2.736,0,0,0-.274-.214.387.387,0,0,0-.131,0c-.206.274.145.461.314.678-.541.308-1.04-.03-1.56-.117a.431.431,0,0,0,.087.273c-.24.058-.345-.055-.55-.229C1206.463,354.749,1206.407,354.733,1206.348,354.762Zm1.151-1.047c-.056-.021-.086-.043-.147-.064a2.629,2.629,0,0,1-.227.548A5.451,5.451,0,0,1,1207.5,353.715Zm-8.769-8.278c.268-.249.311-.331.248-.343.03-.05.042-.109.067-.162a.979.979,0,0,1-.255.2.556.556,0,0,1,.188-.037A1.589,1.589,0,0,1,1198.73,345.436Zm3.768,1.879c-.039-.024-.075-.051-.114-.075-.573.647-.736-1.058-1.377-.06a1.275,1.275,0,0,0,1,.667A3.223,3.223,0,0,0,1202.5,347.315Zm.775,6.521c-.31,2-.229.311.685.667.566.218.618,1.309,1.617.727C1204.51,354.752,1204.478,354.032,1203.272,353.835Zm-2.057-13.532c.082-.271-.337-1.666-1.066-.872C1200.882,339.826,1200.579,340.3,1201.215,340.3Zm23.863,12.035-.137.191c.332.133.663.264.984.371ZM1346.9,221.516c.317-.518-.96-.927-.552-1.434,1.782.375.993,2.52,2.089,3.579.286-.2.6-.569.822-.387a5.112,5.112,0,0,0-.416,1.292c1.63.732,2.578,3.924,4.7,3.91.076-.546-.948-1.514.342-1.465-.658-1.017-.781.418-1.381.136a.354.354,0,0,0-.072-.552c1.258-.535-.833-1.371-.863-2.412-.685-.209-.395.887-1.056.551.4-1.025-.12-1.915-.94-1.1.421-.185-1.375-1.355-.134-1.476-1.87-1.8-1.315-1.978-2.963-3.186-.6.857-.5.513-1.1,1.368C1346.456,220.61,1346.062,221.45,1346.9,221.516Zm21.106,39.431c.469-.126.344.589.767.532-.229-.335.822-1.062,1.057-.538-.323.526.595.4,1.258.864-1.01-.97-1.376-2.99-2.518-3.007A1.147,1.147,0,0,1,1368.007,260.947Zm4.484,32.87c-.066.277-.543.162-.888.176.1.759-.756.917.206,1.212-1.153.257-1.149,1.618-2.217,1.929.167-.412,1.553-1.716-.148-1.657.071-.267.549-.149.894-.157a4.932,4.932,0,0,1-.484-1.45,8.2,8.2,0,0,0,1.532-1.081c-.034-.612-.52.295-1.164-.067,1.137-.538-.522-.927-.649-1.094a1.615,1.615,0,0,1,.416-.09c-.368.007-.455.039-.416.09a1.8,1.8,0,0,0-.414.2.682.682,0,0,1-.5.426,2.619,2.619,0,0,0-.2.278c.253.237.983.137.746.716a6.731,6.731,0,0,1-1.107.012,3.181,3.181,0,0,0-.142.756.9.9,0,0,1,.921-.1c-.075,1.293-.826,4.257-2.121,3.941.055.317.708.275,1.133.364,0,.853-1.135.56-1.846.691.4-.862-.783-.78-.4-1.637-1.61,1.178-.382,2.058-1.026,3.478.984,0,1.653-.339,1.657-1.355.385.4.337,1.056.365,1.66-.514-.105-.65.184-1.188.049-.465.871.478.967.34,1.659-.521-.06-.562-.377-1.117-.418,3.166,3.271-1.385,4.785.365,8.205-.472-.961-1.169-.755-1.66-1.823-.37-.031-.392.363-.106.438-2.5-.8-1.839,1.99-1.815,3.457-.843-.56-.618-1.524-.873-2.315-.7.212-1.333,1.388.158,1.644-.629.551-.375.9-.513,1.7-.629.458.218-1.19-.516-1.307-1.306.19-1.409,2.536-1.477,2.75-.154.547-.263,1.067-.278.83.073,1.231-1.208,1.348-1.566,1.893.41.144.52.375.816.55-.1.121-.31.139-.549.136a.694.694,0,0,1,.127.714l-.094.158a.689.689,0,0,1,.125.018c-.085.061-.151.1-.223.147-.161.272-.337.571-.527.917,0,.021,0,.03,0,.053-.01,0-.015,0-.025,0a12.183,12.183,0,0,0-1.265,3.265c.123-.148.721.278.434.923.233.063.362-.079.625.047.863-.546.422-1.2,1.531-1.273-.078-.687-1.407-.633-1.331.142-.758-.816,1.422-1.245-.2-1.769.319-.28,1.742-.463,1.115-1.205.428-.545.5.432,1.084.438.26-.69-.96-.96-.6-1.672.509.463.634,1.044,1.307,1.471.362-.725-.515-1.087-.251-1.781.543.2.562-.439,1.251-.011-1.124.406-.562.886-.376,1.8.772-.046,1.629-2.532.917-3.279.5-.226.38-1.388,1.279-1-.031.727-.694.467-.728,1.191.442.245.579.015.7-.235.366.924-1.2,1.524-.946,2.576,0,.362.379.048.815.31.584.878-1.331,1.331-.129,1.941-1.37.364-1.154,2.624-1.278,3.758-1.575.271-1.489,1.909-2.406,2.972,1.445.248,1.121-.96,2.011-2.125.756.891-1.038,1.413-.967,2.65-1.041-.818-.614,1.6-1.826.377-.068,1.418-.5,1.7-1.664,2.509,1.436,1.934-1.47,3.919-1.121,5.26-.069.1-.146.206-.216.306a1.3,1.3,0,0,0,.578.032c.172.291-.037.62.484.87a1.481,1.481,0,0,1-1.342-.507q-.918,1.31-1.9,2.664a1.652,1.652,0,0,0,1.143.428c-.316.272-.069.5.206.721-1.386.813-.834,1.873-2.24,3.089-.274-.478-.106-1.116.477-1.128-1.1-.243-.373-1.009-.406-1.994-1.69,2.291-3.5,4.645-5.437,7.013-1.724,2.031-3.535,4.051-5.423,6a1.2,1.2,0,0,0-.057.947c-.419.139-.567-.381-.234-.579-.021-.015-.025-.02-.045-.034-1.622,1.654-3.295,3.256-5.039,4.737l-.559-.668c.214.466-.336,2.3-.72.973,0,1.567-2.3,2.065-3,3.073a16.411,16.411,0,0,1,5.224-6.635,1.177,1.177,0,0,0-.3-.115,4.32,4.32,0,0,1,1.629-2.276c.044.526.393.639.782.723-.536-.466.541-1.868,1.016-1.442a7.642,7.642,0,0,0,.5-1.482,1.073,1.073,0,0,1,.274.055,8.292,8.292,0,0,1,.478-.808c-.094-.516.176-.872.567-1.427a2.084,2.084,0,0,1,.073.549,12.658,12.658,0,0,0,1.875-2.927c.145.464.367.655.8.411a2.118,2.118,0,0,1,1.455-2.621c.556-.339-.157-.715.119-1.062-.762.5-2.828,1.155-3.436.429a3.009,3.009,0,0,1-.877,1.051c.694.318.56-.637,1.212-.021-.271,1.07-.6,1.037-.68,2.06-.559-.344-.02-.59-.347-.91a.938.938,0,0,0-1.026.255c-.218.473.517.111.492.751-.7-.082-.756.515-.547,1.006-.55.651-.227-.106-.787-.439-.459.417.073.952.593,1.485-.235.439-.6.015-.94-.287a10.43,10.43,0,0,1-2.717,4.1l0,.006v0c-.62.631-1.276,1.231-1.922,1.811a10.692,10.692,0,0,1-3.595,5.841c-.187.2.167.542.34.835-.711.07-.949-.037-1.244-.877-.818.59-.6.987-1.479.73a.816.816,0,0,0,.135.979c-4.424,2.389-7.41,5.145-10.16,7.307.229-1.128-.939-.063-1.232-1.32a.962.962,0,0,1-.487.577c.34.455.912-.211,1.162.707-1.257.061-1.585.564-2.679-.6-.04-.834,1.423.364.942-.7-2.159.722-3.646,3.867-6.856,3.838-.63.541.219.609,0,1.247-2.275,1.405-3.376.919-4.32,1.95-.418-.638-1-.815-1.842-.291-.07-.336.328-.37.575-.5-.1-.789-.635-.378-.938-.6-.172.327.391.726-.705.837-.043-.46.62-.455.086-1.241.815-.8,1.862-.119,1.368-1.677,1.81,1.82,1.667-2.061,3.728-1.7-1-1.928-1.685,1.6-2.622.088-.683.443-.618,1.376-1.508,1.137-.141-.515.665-.413.662-.839-.571-.556-1.52.4-1.913.648.094.266.333.131.518.133-.221.327-1.714,1.083-1.372.147-.329.351-.758.63-.82,1.167-.588.233-.871-.2-.684-.7a.436.436,0,0,0,.249.831c-.43.837-1.057-.157-2.111.022,1.768,1.111-1.372-.277-1.738.469a1.63,1.63,0,0,1,.433.787c-.453-.009-.45-1.046-1.089-.628-.516,1.483-3.425.664-5.018,2.579l-.158-.855c-.717-.073-.76.448-1.29.538a1.311,1.311,0,0,0,.823.73c-.071.371-.883-.027-1.308.532.008-.561.559-.631.215-1.508-.831.418-1.345.572-2.053.027-.568.153.377.45.164,1.148-.956-.589-2.076-1.291-1.971.845-1.275-.537-1.787,2.85-4.438,2.5.668-.736.16-.295-.3-.846-.335.357-.516.878-.859,1.222-.767-.412-.668-.552-1.663-.206-.055-.786.362-.6-.049-1.156-.593.954-.95.69-1.829,1.511.131-.748-.176-1.539-1.191-.548-.18-.843-1.438-.328-1.4-1.429-.609-.082-.192,1.126-.94.87-.084-1.12-.235-1.028.254-1.735-.567.04-1.108.038-1.369-.293-.136.909.691.657.421,1.738-1.307-.008-4.335-.6-4.082-1.9-.317.071-.241.714-.309,1.139-.86.043-.623-1.094-.791-1.791.89.347.747-.815,1.631-.476-1.27-1.533-2.094-.273-3.56-.837.052.974.426,1.618,1.452,1.57-.381.4-1.047.387-1.656.446.08-.513-.218-.634-.11-1.172-.9-.416-.951.523-1.656.421.034-.518.351-.575.365-1.126-3.136,3.3-4.9-1.125-8.255.782.944-.516.7-1.2,1.753-1.735.012-.367-.386-.369-.447-.082.676-2.51-2.1-1.717-3.578-1.618.521-.863,1.5-.689,2.29-.982-.249-.679-1.467-1.247-1.649.24-.589-.594-.932-.325-1.738-.421-.494-.6,1.21.155,1.292-.577-.258-1.282-2.63-1.264-2.849-1.32-.56-.124-1.089-.2-.851-.232-1.29.141-1.43-1.244-2.058-1.5-.233-.094-.8.764-1.322.507-1.412-.722-4.29-2.33-7.184-1.729-.086-.283.191-.773-.066-.963.687-.748.26.757.911.683.4-1.458-1.137-1.857-1.973-2.078.009.323.337.477.042.97-.852-.711-1.608-3.114-3.076-1.75-.485-.087-.19-.553,0-.97a3.824,3.824,0,0,0-1.506-.423c-.3.4-.1.56.123.712-1.425.739-1.2-1.15-2.831-.816.671-.927-.439-1.068-.245-1.783a18.276,18.276,0,0,1-9.824-5.675c-2.379.42-2.463-2.149-4.5-2.418-.109-.566-.551-1.054.118-1.786-.692.1-.923.071-1.173-.636-.464-.317-.111.568-.781.861-.937-1.562-3.082-.273-4.336-1.234,1.495-1.161,1.629.329,2.875-.093-.274-.877-.646-2.119-1.663-2.368a1.7,1.7,0,0,0,.777-.462c-1.418.246-1.849-.754-2.362-1.931-.316-.145-.212.312-.639.592-1.6-2.905-4.737-4.492-6.155-8.064-.253-.186-.7.286-1.07.511a7.692,7.692,0,0,1-1.214-2.154c-.335,1.562-.7-1.067-.414-1.6-.271-.313-.9.436-1.225.277-.323-.786,1.292-.58,1.085-1.509-1.352.228-1.3-.843-2.457-1.6-.041-.657.793.545,1.1.626,1.226-.6-.047-1.387-.324-2.128-.2-.434-.939.44-1.365.553-.314-.809.983-1.412-.008-2.3-.56-.4-.517.659-1.126.377.823-1.3-.784-2.723-.646-4.176.323-.123.409.242.57.451.672-.55-.488-.544-.516-.968-.186.2-.376.4-.315.649a4.578,4.578,0,0,1-.574-2.407c.32-.747,1.083.084,1.515-.636-.035-.018-.07-.032-.106-.047-.3.1-.726.217-.958.059,0,.009-.02.008-.021.017a1.739,1.739,0,0,1-.738-.935l-.339.152a.771.771,0,0,0,.271-.353,3.667,3.667,0,0,0-.831-1.71,1.424,1.424,0,0,0,.611-.056c.012-.352.193-.664.851-.861.306.367-.225.535-.637.73,0,.02.011.031.014.05.108-.038.206-.061.322-.114-.308,1.618.9,1.843,1.92,2.4a2.32,2.32,0,0,0,.589-.317.319.319,0,0,1,.083-.5c-.437-.814-1.154.8-1.33-.1a1.7,1.7,0,0,0,.916-.445,1.377,1.377,0,0,0-.4.054c.8-1.036.144-3.755-1.338-3.813,1.32-1.015.3-1.792.008-2.685a.7.7,0,0,0-.2-.005,1.86,1.86,0,0,0,.129-.3,1.057,1.057,0,0,1,.012-.367c-.322-.39-.342.39-.9.089.194-.86.2-1.481-.852-1.5.859-.593-.482-1.2.781-1.763-.012-.04-.03-.083-.038-.122-.45-.106-.607-.35.288-.634-1.075-.14-.2-1.337-1.261-1.164,1.575-1.3-.961-2.883-.427-3.786-.536-.342-1.547-.152-1.733-.912,1.044-1.779.073-2-1.072-3.9.281-.735.281.835.978.477-1.256-3.933-1.081-8.324-3.247-12.353-.09-.013-.185-.023-.268-.042a1.844,1.844,0,0,1,.184-.129,13.441,13.441,0,0,0-1.363-2.033c-1.2.142-.159.908-1.154.881-.523-.974-.26-1.166-.889-1.98.648-.115.414.425.874.445a.924.924,0,0,0,.589-.871c-.158-.5-.459.261-.873-.231.571-.4.213-.884-.275-1.11-.032-.848.24-.072.881-.2.058-.614-.7-.658-1.445-.71-.122-.482.433-.406.892-.411-1.337-2.813-.6-6.456-.37-9.449.041-.574.359-1.083.416-.853-.4-1.548-.028-4.126,1.859-4-1.665-.766.741-1.335,0-2.758,1.843.758,2.117-1.827,1.314-2.92-1.106.257-1.427,1.586-1.263,2.7-1.613-1.835,1.5-4.236-.6-5.827.374-2.294,2.476-3.013,2.1-5.381.641.422,1.145.772,1.722.387.311-1.055-.739-.5-1.4-1.254,1.377-1.923.121-5.467,2.632-7.669.1-.82-.575-.307-.846-.924.738-2.553,1.885-2.922,1.887-4.314.743.2,1.29-.056,1.565-1.006.279.2.006.492-.089.752.607.52.726-.141,1.1-.174-.093-.357-.781-.28-.042-1.089.343.313-.152.749.776.978-.066,1.132-1.3,1.324.119,2.153-2.575-.15.157,2.636-1.616,3.738,2.045.768.167-2.308,1.887-1.805.207-.782-.472-1.431.35-1.845.453.289-.214.748.076,1.062.8.034.861-1.3.982-1.75-.25-.134-.335.124-.475.245-.057-.39.54-1.941.92-1.019a2.13,2.13,0,0,0-.181-1.411c.279-.563.781-.431.979.064a.439.439,0,0,0-.747-.452c-.247-.907.891-.585,1.552-1.417-2.064.348,1.206-.7.973-1.5a1.656,1.656,0,0,1-.854-.3c.342-.294,1.042.477,1.233-.257-.619-1.444,2.094-2.766,1.981-5.244l.7.53c.582-.421.26-.837.594-1.255a1.326,1.326,0,0,0-1.1,0c-.2-.322.674-.565.612-1.263.373.422.012.839.861,1.263.334-.861.611-1.317,1.505-1.383.318-.492-.584-.083-.9-.743,1.108-.2,2.415-.419.891-1.935,1.309-.447-.6-3.3,1.6-4.8,0,.989.081.325.792.432.008-.487-.211-.994-.189-1.477.848-.2.869-.034,1.375-.951.573.547.135.684.818.826-.206-1.1.239-1.142.336-2.335.409.642,1.172,1.025,1.255-.383.7.506,1.29-.711,2.009.13.507-.343-.619-.963.109-1.269.821.776.871.607.985,1.456.394-.406.8-.764,1.215-.69-.514-.765-.958-.029-1.488-1.011.976-.862,3.623-2.432,4.313-1.3.188-.264-.3-.69-.541-1.051.61-.6,1.2.4,1.8.8-.9.333,0,1.1-.888,1.436,1.979.295,1.739-1.187,3.208-1.741-.7-.688-1.411-.918-2.139-.2.011-.552.515-.983.927-1.43.288.434.591.326.875.8.952-.29.352-1.019.944-1.411.326.408.128.66.491,1.078.1-4.53,4.4-2.414,5.6-6.058-.352,1.01.287,1.353-.127,2.452.239.281.537.017.388-.236,1.2,2.312,2.721-.119,3.751-1.173.2.987-.651,1.511-1.035,2.249.644.338,1.933-.048,1.061-1.272.839.05.911-.377,1.575-.841.772.116-1,.688-.568,1.286,1.059.78,2.807-.807,3.008-.911.5-.279.947-.57.789-.392.862-.96,1.9-.025,2.541-.253.237-.085.081-1.1.638-1.254,1.536-.4,4.761-1.117,6.5-3.483.256.153.381.7.7.672,0,1.011-.706-.39-1.139.1.686,1.351,2.1.624,2.87.233-.225-.234-.573-.13-.687-.693,1.114-.038,3.3,1.245,3.467-.742.42-.257.516.285.659.718.889-.358.958-.311,1.4-.685-.044-.5-.3-.484-.573-.447.557-1.495,1.671.055,2.654-1.273.129,1.134,1.048.5,1.388,1.161a18.381,18.381,0,0,1,11.132-2.306c1.482-1.891,3.282-.039,4.978-1.193.464.348,1.122.417,1.121,1.4.449-.53.637-.665,1.3-.306.559-.072-.3-.5,0-1.157,1.752.538,2.473-1.843,4.053-1.961-.324,1.854-1.432.836-2.071,1.976.8.469,1.912,1.144,2.836.655a1.673,1.673,0,0,0-.265.859c.887-1.123,1.882-.667,3.06-.133.333-.1-.054-.372.074-.865,3.15,1.1,6.556.192,10.024,1.9.313-.03.326-.677.449-1.09a7.832,7.832,0,0,1,2.359.794c-.809-1.382,1.239.329,1.39.913.413.054.375-.921.722-1.018.771.37-.566,1.288.215,1.84.85-1.066,1.534-.235,2.906-.442.475.461-.957.122-1.244.268-.5,1.26.973,1,1.681,1.365.444.188.4-.95.639-1.316.781.392.226,1.7,1.564,1.7.684-.077-.062-.832.581-1.027.27,1.513,2.424,1.5,3.3,2.672-.156.306-.468.092-.728.044a.431.431,0,0,0,.045.34c.056.027.115.045.171.074.249-.006.636-.217.823-.037,0-.272.009-.547-.2-.691a4.658,4.658,0,0,1,2.054,1.406.5.5,0,0,1-.209.631,2.208,2.208,0,0,1,.11.2c.177-.118.378-.115.593.139a1.249,1.249,0,0,0,.085-.138c.086.072.08.194.05.331.014.022.026.032.04.057-.021.021-.044.034-.066.052-.074.225-.209.483-.284.709-.131-.137-.233-.243-.328-.34a1.537,1.537,0,0,0-.723,1.19.321.321,0,0,1,.279.429.486.486,0,0,0,.224.028,1.175,1.175,0,0,0,.218-.124c.223-.327.069-1.118.613-.712-1.079,1.546.409,1.6.845,2.266-.028.054-.069.045-.1.077a1.815,1.815,0,0,1,1.138.669c.505.051-.036-.515.574-.695.476.744.917,1.187,1.675.466-.192,1.065,1.345.444.651,1.953l0,0c.235-.183.459-.282.566-.219.021-.026.041-.04.063-.07a2.04,2.04,0,0,0,.233.679c.518.016.772.793,1.275.1a1.233,1.233,0,0,0,.307,1.01,3.91,3.91,0,0,1,1.63.718c.521.136.971.282,1.068.65.624-.134,1.2-.976,1.876-.569.532,1.989,1.379,1.467,3.542,2.006.325.717-.8-.394-1.033.347,4.382,2.254,7.777,6.405,13.712,7.005.744-.937-.536-.753.187-1.431,1.065.323,1.016.642,2.043.777-.376.535-.6-.011-.936.3a.917.917,0,0,0,.2,1.029c.466.239.138-.506.782-.449-.118.683.481.775.987.593.629.577-.119.219-.483.756.4.475.964-.024,1.528-.51.431.255-.016.59-.337.915,2.954,1.053,5.03,4.148,7.008,6.422.381.435.52,1.017.315.895,1.391.811,2.965,2.9,1.54,4.128,1.724-.624.429,1.464,1.967,1.952-1.845.754-.193,2.775,1.156,2.985.6-.956-.124-2.121-1.034-2.793,2.451.167,1.964,4.046,4.588,3.7,1.373,1.884.4,3.865,2.358,5.274-.754.151-1.361.257-1.494.933.533.963.882-.162,1.889-.1.4,2.324,3.817,3.951,3.613,7.266.513.651.625-.186,1.258.061,1.3,2.322.753,3.387,1.745,4.373-.664.382-.872.943-.388,1.807-.342.052-.356-.343-.474-.594-.8.057-.413.608-.657.9.32.187.752-.349.807.741-.466.019-.427-.637-1.247-.148-.762-.846-.025-1.848-1.621-1.439,1.928-1.7-1.993-1.754-1.526-3.775-1.995.889,1.53,1.749-.046,2.6.412.7,1.356.681,1.07,1.55-.527.114-.383-.679-.812-.7-.591.536.321,1.524.555,1.925.272-.079.149-.322.161-.505.318.236,1,1.751.078,1.365.338.343.6.781,1.135.871.2.593-.244.851-.738.641a.44.44,0,0,0,.851-.2c.822.468-.212,1.038-.086,2.089,1.211-1.692-.35,1.343.385,1.743a1.659,1.659,0,0,1,.816-.388c-.032.447-1.077.392-.688,1.045,1.469.587.494,3.422,2.344,5.1l-.871.113c-.11.705.413.774.476,1.3a1.308,1.308,0,0,0,.779-.777c.37.09-.073.872.469,1.321-.565-.037-.608-.585-1.51-.29.379.843.508,1.36-.077,2.032.126.571.473-.35,1.166-.1-.434.617-.9,1.3-.512,1.682-.049-.125-.066-.264-.126-.384.441.083.763.277,1.2.362.148-.707-.37-.8-.421-1.335a.969.969,0,0,0,.232-.185,5.521,5.521,0,0,0,.093-1.326,1.071,1.071,0,0,0,.27.239c-.088-.971-.67-2.158-.175-2.671-.255.672.206,1.06,1.045,1.266-.049.482-.1.852-.128,1.19a7.041,7.041,0,0,0,.623-1.125c.671-.407-.562,1.614.222,2.077a.577.577,0,0,0-.812.042,3.782,3.782,0,0,0,.468,1.263c.363-.261,1.061-.3,1.1-.788.346.185.136.425.4,1.143a4.961,4.961,0,0,0-2.461,1.5c.56.62,1.637,1.3,1.961,2.426.24.02.484.037.724.058-.293.916,1.063.815.334,1.406.638.031.926-.21.859-.729.842.014-.214,1.636.618,1.66-.315.7-.949-.3-.887-.7-.385.242-1.084.238-1.157.718.1.319.737.193,1.173.23-.244.912-1.038,1.761.595,1.906-1.295,1.226-.464,2.623-.986,3.771.406.29.7.3.888-.191C1373.2,292.766,1372.193,293.612,1372.491,293.817Zm-8.052-33.206c.12.559.259,1.082.884.941.035-.307.228-.553.714-.679-.17-.6-.482-1.241-.189-1.645-1.006.056-.221.822-.221,1.279C1364.938,260.286,1365.126,260.828,1364.439,260.611Zm.493-2.317c0-.76.482-1.217-.535-1.538C1364.4,257.52,1363.913,257.96,1364.932,258.293ZM1188.024,255.7a1.9,1.9,0,0,0-2.714.774C1186.569,256.724,1187.056,255.851,1188.024,255.7Zm.385-2c-1.09-.681-1.792,1.328-.517,1.48C1188.672,254.94,1187.91,254.379,1188.409,253.7Zm148.043,102.708c.044-.03.089-.065.133-.1-.048-.023-.1-.017-.146-.048A.284.284,0,0,0,1336.452,356.409Zm20.079-31.1c.262-.268.917.209.91-.577l-.8-.358C1356.551,324.7,1356.2,325.077,1356.531,325.307Zm1.9-69.568c.219.753-.328,2.105.769,2.06-1.22.22-.276,1.126-.672,1.6.8-.426.942.091,1.74-.334C1360.336,257.893,1358.773,257.165,1358.427,255.739Zm-4.143,69.616c-1.328-.32-1.792,1.086-2.049,1.872.218.005.372-.122.59-.121.24-.271.51-.585.8-.941-.275-.325.012-.346.327-.4C1354.065,325.629,1354.174,325.495,1354.283,325.355Zm-3.7,6.34c.283.09.5.025.854.272a4.455,4.455,0,0,1,1.133-2.655c-.757-.663-.718.389-1.029.693-.776-.316.18-.887-.395-1.228-.3.38-.354.83.143,1.412a.252.252,0,0,1-.234.226,1.2,1.2,0,0,1-.736,1.155.869.869,0,0,0,.124.058c.03-.033.061-.066.089-.1A1.342,1.342,0,0,1,1350.587,331.695Zm-.953,1.874a1.268,1.268,0,0,0-.068.371.8.8,0,0,0,.368-.046A.724.724,0,0,1,1349.634,333.569Zm-2.05,1.523a12.315,12.315,0,0,1-.653,1.812c.006.007,0,.012.01.019C1347.343,336.3,1347.9,335.668,1347.584,335.092Zm-105.375,17.84c.471.024,1.088.846,1.477.3C1243.018,352.862,1243.1,351.783,1242.209,352.931Zm-.876-3.6c-.309-.394-.538-.732-1.093-.206C1240.905,348.988,1240.761,350.507,1241.333,349.333Zm-7.63-3.158c-.157.244-.31.213-.469.388,1.122.261,1.626-.818,1.425-1.848-1.078-.229-4-3.079-5.205-.3C1231.341,345.149,1231.8,344.933,1233.7,346.175Zm-5.293,4.2c.495-.486.981-.292,1.466-.78-.46-1.048-2.041.035-2.247-1.13C1227.03,349.434,1228.686,349.517,1228.41,350.372Zm-28.934-31.181a.107.107,0,0,0-.1.058A.893.893,0,0,0,1199.476,319.191Zm-6.512-19.222a.6.6,0,0,0-.411-.014c-.389.285.126.621.134,1.051A3.763,3.763,0,0,0,1192.964,299.969Zm5.814,23.508c0,.027.007.054.011.081.041-.008.078-.006.119-.016C1198.866,323.519,1198.82,323.5,1198.778,323.478Zm14.886-.135c-1.454.674.843.944-.208,2.241.678-.133.976.568,1.818.041.346.693-.7.081-1.09.971.517.5,2.224.228,2.208,1.019a.432.432,0,0,1-.048.056,2.5,2.5,0,0,0,.983.524c-.324.4-.92.218-1.384-.117-.092.1-.164.178-.144.2.33.316,1.139.022,1.472.422-.036-.04-.549.236-.572.22.211.153.939.23,1.13.449.322.363-.29,1.523.125,1.934.374.366,1.584-.166,2.04.111.8.476.074,2.224,1.433,1.971.36.366-.135.929.1,1.327,1.775.641,2.866,1.766,4.8,2.489.184-.119.495-.292.818-.485a3.316,3.316,0,0,0-1.3-.031,2.544,2.544,0,0,0,.917-.741,1.445,1.445,0,0,0,.773.527c.6-.393,1.091-.825.677-1.1.665.676,2.533,1.315,2.69-.229-.151-.157-.3-.314-.454-.471-.128.021-.235.067-.208.13a5.694,5.694,0,0,0-.4-.732q-.487-.474-.958-.951a2.821,2.821,0,0,0-1.922-.446,59.938,59.938,0,0,0-4.194-4.761,8.834,8.834,0,0,0-3.024-1.351c-.688.535,1.1.7-.056,1.312-1.353-1.425-1.283-2.7-3.415-2.935.559-.482.357-.894.467-1.34-.345-.179-1.251.783-1.353.089.595-.54.68-.046,1.163-.363a2.8,2.8,0,0,1-1.465-1.656c-.193.716-.64.544-1.293,1.211.15.711,1.093-.18,1.16.687A1.7,1.7,0,0,1,1213.664,323.343Zm-1.866-4.733a.9.9,0,0,0,.523-.354.892.892,0,0,0-.642-.5C1211.383,318.026,1211.629,318.319,1211.8,318.61Zm-10.8-13.649c-1.351-.37-1.047-2.514-2.785-2.521.072.223.167.436.222.623a1.142,1.142,0,0,1,.5-.078c.007.155-.223.228-.47.294a.282.282,0,0,1-.163.284,1.077,1.077,0,0,1,.174.435c.022.018.058.022.068.052.695-.1-.37-.79.709-.754.644.2.389.824-.662.937.4.843,1.678.708,1.983,1.65A2.634,2.634,0,0,1,1200.993,304.961Zm-2.832-5.171a1.733,1.733,0,0,1,.43-.51,3.71,3.71,0,0,0-.585-.323C1197.656,299.287,1197.823,299.607,1198.161,299.79Zm53.9-84.719c-.366.294-1.38.094-1.3.758C1251.508,215.66,1252.175,216.516,1252.062,215.071Zm3.084,2.09c.5.087.894.186.951-.573C1255.7,217.133,1254.777,215.91,1255.146,217.161Zm7.8-2.718c-.048-.286.086-.364.086-.6-1.009.551-.654,1.686.192,2.317.852-.487,4.183-.415,4.193-2.425-.325-.143-.649-.3-.96-.467A10.189,10.189,0,0,1,1262.947,214.443Zm58.1,4.8c-.318-.289-.635-.567-.954-.838A.792.792,0,0,0,1321.043,219.239Zm-15.129-8.341c-.314-.25-.614-.039-.886.2a6.917,6.917,0,0,0,.86-.162C1305.9,210.919,1305.907,210.921,1305.915,210.9Zm-2.076-.67c-.5.035-.987.132-1.061-.178a.876.876,0,0,0-.053.188A2.947,2.947,0,0,0,1303.839,210.228Zm-3.809-3.5c.071-.019.139-.048.209-.068-.042-.016-.076-.036-.119-.05C1300.09,206.65,1300.057,206.682,1300.029,206.727Zm-11.677,10.006c-.036-.042.076-.878-.006-.884-.459-.016-.861.739-1.379.663.054.006.248-.54.276-.543-.261.027-.853.452-1.143.417-.2-.022-.366-.255-.539-.512a6.179,6.179,0,0,0-1.88.461c-.077-.665.871-.942,1.55-.909-.159-.207-.328-.383-.532-.393-.526-.024-1.063,1.174-1.59,1.271-.913.175-1.559-1.6-2.4-.513-.515-.032-.528-.779-.974-.917-1.751.7-3.323.591-5.25,1.339-.185.7-1.019,2.731-.164,2.606-.987-.063-2.939.759-1.753,2.094.041.048.088.042.133.059.071,0,.138.008.208.012.22-.083.4-.346.291-.4a3.1,3.1,0,0,0,3.878-.6,17.977,17.977,0,0,0,2.684.415,9.675,9.675,0,0,0,3.373-1.224c.1-.86-1.28.273-.9-.968,1.975.061,2.833,1.008,4.51-.316-.051.733.385.882.626,1.274.372-.115.325-1.429.893-1.011-.035.8-.448.509-.562,1.071a2.836,2.836,0,0,1,2.219.145c-.375-.641.064-.833.05-1.762-.614-.4-.644.892-1.31.326.52-.906,1.483-.557,2.035-1.442a.829.829,0,0,0-.024-.477C1289.956,215.994,1288.876,217.332,1288.353,216.734Zm9.446.552c-.34.057-.855-.567-1.088-.089.375.095.689.189.955.271C1297.711,217.407,1297.767,217.378,1297.8,217.286Zm-5.811-.637a.373.373,0,0,1-.37.137c-.108.319-.084.506.033.6-.545.565-.483-.27-.169-.781-.365.155-.765.2-.953.866a.582.582,0,0,1-.13-.073.149.149,0,0,1-.184-.028c-.442,1.7.72,2.425,1.589,1.533.057-.332-.245-.306-.433-.392.429-.3.7-1.131,1.208-1.211a3.971,3.971,0,0,0,.076,2.4,1.048,1.048,0,0,1,.97-.047,1.648,1.648,0,0,1,.972-.366c-.41-.1-.846-.178-.467-1.012.467,1.217,1.062.452,1.857-.065-.473.971.762,1.574,1.862,1.284a.464.464,0,0,1,.5-.215,1.811,1.811,0,0,0,.357-.266c.1-.247.1-.421,0-.513.442-.323.584.3,1.288.131-.109.407-.268.557-.446.62.106.357.192.609.582,0-.1,1.024.7,1.326,1.391,1.751.249-.429.082-.557-.106-.666.711-.776.87,2.59,2.29.94-.165.294-.176.485-.076.6.344-.17.129-.466.686-.655.368.437,0,.476-.322,1.124a8.55,8.55,0,0,1,2.331-1.183c-.182.4-.374,1.119.3,1.409-.175-.933.464-1.116.829-.841.269-.476.628.078.889-.539.483-.645-.059-.673.2-1.187h0c-.039.073-.06.134-.111.213-.083-.109-.134-.164-.2-.242-.545-.075-1.372-.218-1.2.6-.63.241-.2-.5-.173-1.118l-.1-.005.1-.214c-.613.5-.856.743-.956-.121a1.578,1.578,0,0,0-.309.228c-.192.471.823.158.159.93l-.39-.752c-.149.143-.3.3-.446.422-.011-.009-.027-.016-.038-.024a5.169,5.169,0,0,1,.339,1.066c-.681.2-1.006-.817-1.478-1.742a19.76,19.76,0,0,0-3.538-1.142c.117-.21.275-.21.378-.485a2.464,2.464,0,0,1-1.588.053c-.578.5-.4.67-.808,1.237l-.5-.164c.138-.312.387-.129.6-.107a.634.634,0,0,0-.475-.775c-.039.172-.039.311.057.37a4.214,4.214,0,0,0-1.027-.237.824.824,0,0,0-.336.379.845.845,0,0,0-.1-.407,13,13,0,0,0-3.127.149C1293.842,216.759,1292.338,217.716,1291.987,216.649Zm6.923.988c-.265-.072-.558-.166-.939-.3-.026.068-.038.124-.062.19A3.192,3.192,0,0,0,1298.91,217.637Zm1.572-5.266c-.439.038-1.105-.731-1.39-.142C1299.873,212.249,1299.861,213.9,1300.482,212.371Zm4.269,5.065a.678.678,0,0,0,.276-.011,1.372,1.372,0,0,1-.407.419c.008.028-.014.042,0,.072.2-.408.787.94,1.211-.426A.956.956,0,0,0,1304.752,217.436Zm1.29.241c.008-.04.016-.081.025-.122-.021,0-.041.018-.064.008C1306.01,217.6,1306.03,217.639,1306.042,217.676Zm.376.365c-.008.005-.014.007-.022.012l0,0c-.025.083-.043.147-.064.219a2.614,2.614,0,0,0,.661.683l.142-.294A.886.886,0,0,1,1306.418,218.041Zm-.2-.553a.231.231,0,0,0,.194.134c.057-.142.129-.294.18-.431C1306.447,217.177,1306.337,217.372,1306.215,217.488Zm19.08,10.159c.924.187.749,1.352,1.838.794C1326.427,228.686,1326.375,226.682,1325.3,227.647Zm9.772,10.513c-2.02-1.3-3.039-2.925-4.437-3.611.526,2.362,2.205,2.913,3.535,4.807.753-.943,1.463-.668,2.054-1.621-.491-.406-.767-1.533-1.558-.966C1334.273,237.617,1335.944,237.266,1335.067,238.16Zm8.479,6.182c.556-.407-.424-.615-.68-.518.51.4-.111.756.394,1.157.636-.358.986-.149.89-.774C1343.933,244.288,1343.657,244.5,1343.546,244.342ZM1357.3,308.99c-.206-.593.519-1.566-.454-1.848C1357.251,307.93,1356.078,308.38,1357.3,308.99Zm.088-9.637a32.988,32.988,0,0,0-.634,5.376,1.4,1.4,0,0,0,.505.582C1357.068,304,1357.847,301.244,1357.393,299.353Zm-18.205,36.89c.006-.01.01-.021.016-.031a2.4,2.4,0,0,1-.289.212c-.436-.635.37-1.136,1.065-1.7.19-.4.375-.8.56-1.188-.52.3-.657-.783-1.528-1.228a1.669,1.669,0,0,0-.273.062c.053.316.121.332.567.771-.311-.125-.828.575-.224.323.049.244-.193.364-.508.465h0c-.544.4-.687,1.2-.946,2.269-.561-.467-.493-.856-1.038-.554.5.74-.813.223-.948.74.328.415,1.3.309,1.132.908a3.053,3.053,0,0,0-2.119.288c-.6,3.268-3.509,5.321-4.5,7.046.2-.125.475.177.754.483-.328.431-1.119.759-.9,1.3a.945.945,0,0,0,.073-.315.777.777,0,0,1,.11.538q.231-.048.463-.1c.155-.2.126-.321.53-.2a1.912,1.912,0,0,0,.251-.108q-.04-.242-.1-.486a.35.35,0,0,1-.021-.109,4.411,4.411,0,0,0-.3-.868,2.93,2.93,0,0,0,1.244.235,13.433,13.433,0,0,0,1.256-.851c-.157-.181-.386-.374-.55-.557.2-.395.552-.008.891.289l.045-.039C1334.752,340.909,1337.56,339.062,1339.188,336.242ZM1328.4,348.75c.17-.232.349-.478.535-.741a4.583,4.583,0,0,1-1.05.483.937.937,0,0,1,.143-.472.833.833,0,0,0-.788.5c-.919-.726-.809-1.376-1.546-.573.185-.461-.23-1.077.314-1.438a.9.9,0,0,0-.94-.282c-.169.161-.331.259-.5.191a2.836,2.836,0,0,0-.382.248c.266.276.883.541.587.675-.344.342-1.434,1.352-2.067,2a.965.965,0,0,0,.168.161,1.558,1.558,0,0,1-.353.385l.562.723c-.591.531-.225-.392-.847-.443.264,1.166-1.77.189-1.081,1.893-.434.115-.608-.115-.675-.586-.14.37-.609,1.515.2,1.647.466.521-.849.4,0,1.064-.421.035-.325-.414-.5-.71-.857,1.416-2.839,1.823-3.757,3.2-.026-.477-.187-.717-.629-.634a1.411,1.411,0,0,1,.04.949,4.547,4.547,0,0,0,2.525-1.359c.2.383.422.261.641.236a5.417,5.417,0,0,1,1.17-1.329.363.363,0,0,1,.036.152,5.126,5.126,0,0,1,1.124-.726,1.138,1.138,0,0,0,.017-.6c.153.1.287.24.466.357a3.754,3.754,0,0,0,1.872-1.537c.3-.093.549-.19.8-.287a1.687,1.687,0,0,0-.057-.873c.377-.147.787.164,1.153-.193.318-.421-.675-.517-.837-.063.138-1.9,3.395-.484,3.333-2.057C1328.255,348.632,1328.339,348.671,1328.4,348.75Zm-90.9-9.449a.461.461,0,0,0-.542-.124c-.024.033-.048.053-.073.093.281.082.227,1.106.816.51C1237.546,339.747,1237.494,339.533,1237.5,339.3Zm79.453-115.962c-.012.579.8.322,1.27.142a.451.451,0,0,0-.427-.531c.056.094.026.224-.258.461-.272.123-.448.047-.523-.119C1316.993,223.311,1316.968,223.318,1316.949,223.339Zm-1.107.32a4.882,4.882,0,0,1,.47.516c.035-.039.069-.065.1-.109a.4.4,0,0,1,.093.334,1.756,1.756,0,0,0,.769.544c.208-.2.372-.4.615-.326C1317.347,223.955,1316.526,223.981,1315.842,223.659ZM1327.3,231.3c.1-.532-.738-.468-1.292.018C1326.348,231.8,1326.82,231.556,1327.3,231.3Zm18.235,87.011a.726.726,0,0,1-.263.068c-.376-.51.084-.661-.68-.787-.54.036-1.031.138-1.108.882.716.267,1.113.585.824,1.008a2.738,2.738,0,0,0-1.244-.785,1.947,1.947,0,0,1-.688,2.177c.361.3.517.258.608.107a1.02,1.02,0,0,0-.063-.327c.07.018.1.068.154.1.078-.258.144-.536.489-.352a2.647,2.647,0,0,1-.173.659,1.807,1.807,0,0,1-.585,1.81.193.193,0,0,1,.09.2,1.309,1.309,0,0,0-.314-.02,1.306,1.306,0,0,1-.456.213c-.2.257-.215.623-.892.433l-.011.025a2.809,2.809,0,0,0,.826.575c-1.152.32-.733,1.2-.369,2.12a17.984,17.984,0,0,1,2.341-2.975C1343.388,321.866,1345.881,319.977,1345.537,318.312Zm-2.874,3.5a2.843,2.843,0,0,0-.8.707.445.445,0,0,0,.146.252A3.439,3.439,0,0,1,1342.663,321.817Zm-1.61,3.675c-1.331-.5.347,1.509-.88,1.473.044.531.515.345.87.39.063-.092.123-.182.184-.273C1341.01,326.651,1341.449,325.847,1341.053,325.492Zm-.789-6.283a1.667,1.667,0,0,1-.586.487,3.2,3.2,0,0,0,.736-.1A.368.368,0,0,0,1340.264,319.209Zm-2.746,15.137c.005.012,0,.024.009.037a.5.5,0,0,0,.115-.121A.9.9,0,0,0,1337.518,334.346Zm1.787-3.5a3.741,3.741,0,0,1-.553-.346,3.73,3.73,0,0,0-.581,1.054A3.324,3.324,0,0,0,1339.305,330.849Zm2.111-.017c-1.121-.489-1.3-.66-1.494-1.437.708.489,1.618-.328.861-.834a.227.227,0,0,0-.148.027c-.483.47-1.017.945-1.488,1.454C1339.4,330.61,1340.137,330.944,1341.416,330.832Zm.065-2.3c.446.328.662.146,1.092.441-.045-.437.425-.907.108-1.327C1342.528,328.477,1341.637,327.711,1341.481,328.532Zm-6.178,5.284c-.031.49-.059.956-.67,1.03a.831.831,0,0,0,.28.124C1335.324,334.683,1335.811,334.391,1335.3,333.816Zm-6.129,13.384a2.567,2.567,0,0,1-.693-.588c.518,1.2-.694.335-1.269.376a.781.781,0,0,1-.246.616c.5.21.932-.1,1.428.043A6.744,6.744,0,0,1,1329.174,347.2Zm-9.376,4.771a2.925,2.925,0,0,1-.133.791.912.912,0,0,0,.167-.817C1319.82,351.96,1319.809,351.956,1319.8,351.97Zm-.489.75c-.047-.062-.085-.115-.078-.123a2.408,2.408,0,0,0-.2.509c.078.133.186.189.483.128C1319.435,353.059,1319.277,352.854,1319.309,352.72Zm14.175-18.963c-.1.037-.2.072-.3.1,0,.228-.216.431.19.7.028,0,.078.009.135.018a1.437,1.437,0,0,0,.294-.37A1.419,1.419,0,0,1,1333.484,333.757Zm-8.835,10.207a.766.766,0,0,0-.057-.483.506.506,0,0,1-.246.06A2.957,2.957,0,0,1,1324.649,343.964Zm.808.957a1.667,1.667,0,0,0,.173.137.167.167,0,1,0-.173-.137Zm1.894.2a1.538,1.538,0,0,0,.291.293,1.821,1.821,0,0,1,.226-.9A2.949,2.949,0,0,0,1327.35,345.119Zm.934,1.279c.2.043,1.152-.146.724-.678C1328.56,345.683,1327.71,345.542,1328.285,346.4Zm2.76-8.923a2.547,2.547,0,0,0,.842-1.38c-.149.3-.3.364-.423.311a1.637,1.637,0,0,1-.717.506,2.217,2.217,0,0,1-.352.381A.683.683,0,0,0,1331.045,337.475Zm-2.919,2.6a3.554,3.554,0,0,0-1.346,1.68A18.273,18.273,0,0,0,1328.125,340.072Zm-10.1,12.771a.628.628,0,0,0-.438.522.683.683,0,0,0,.589-.074A.822.822,0,0,1,1318.03,352.843Zm-.348,1.285c.063-.117.242-.19.413-.265a2.038,2.038,0,0,1-.5-.493A2.222,2.222,0,0,0,1317.682,354.128Zm8.419-8.73a.683.683,0,0,0,.338.721.988.988,0,0,0,.43-.482A.958.958,0,0,0,1326.1,345.4Zm3.773-3.052a.679.679,0,0,1-.5-.062,2.946,2.946,0,0,1-.142.691Q1329.565,342.676,1329.874,342.346Zm.833-1.382a6.265,6.265,0,0,1-.869.423c-.276.292.4.44.6.208A2.856,2.856,0,0,0,1330.707,340.965Zm-61.67-120.035c.81.024,1.656.018,2.5.017A3.654,3.654,0,0,0,1269.037,220.929Zm-7.468-5.054c.308-.187.729-.245.542-.988C1261.72,214.432,1261.436,215.108,1261.569,215.876Zm88.81,114.3-.063-.033a3.721,3.721,0,0,0-.5,1.468.614.614,0,0,0,.311.154A1.9,1.9,0,0,1,1350.379,330.175Zm.121-79.431c.667.639.28,1.123.993,1.371C1351.722,251.681,1351.31,250.375,1350.5,250.744Zm-.912-1.166c-.865-.253-.2-1.313-1.185-1.015C1348.814,248.88,1348.672,250.214,1349.587,249.578Zm-4.629-3.516c-.288-.169-.248-1.056-.777-.706.074.236-.213.268-.5.3C1343.888,246.251,1344.421,246.158,1344.959,246.063Zm-5.9-4.187a1.27,1.27,0,0,0-1.525-.1l.455.61A2.325,2.325,0,0,1,1339.061,241.876Zm-.455-1.1c-.432-.228-.492-1.513-1.291-.73C1338.036,240.561,1337.758,241.038,1338.606,240.78Zm-8.867-7.962c-.792-.593-1.429-1.635-2.236-1.73.764.422-.048.763-.466.753.122.236-.028.534.341.706C1328.618,231.288,1328.409,233.593,1329.739,232.819ZM1326.885,229c.588.512,1.863.657,1.843,1.637C1329.587,229.1,1327.436,228.945,1326.885,229Zm-1.777.01a3.328,3.328,0,0,1,.266,1.37c.476-.953.592.284,1.009-.278C1326.435,229.7,1325.657,228.7,1325.108,229.007Zm-4.27-3.352a.8.8,0,0,0-.1-.169,1.712,1.712,0,0,1,.035.213C1320.8,225.676,1320.816,225.687,1320.839,225.655Zm-2.512-4.237a1.719,1.719,0,0,0-.9-.016A3.829,3.829,0,0,0,1318.326,221.417Zm-2.353.961a.366.366,0,0,1-.16-.056c.046.029.092.05.139.085C1315.963,222.4,1315.963,222.389,1315.973,222.378Zm-.307-.866c-.365.471-.747.221-1.108.7a1.749,1.749,0,0,1,.156.093.844.844,0,0,1,.966-.061C1315.579,222.042,1315.8,221.695,1315.666,221.512Zm-.6,1c.291.181.581.269.867-.068A1.587,1.587,0,0,1,1315.069,222.511Zm-39.631-15.263a9.741,9.741,0,0,1,2.5.326c.1-.549.576-.5.454-1.435-1.344,1.422-3.831-.159-5.659,1.162C1273.044,208.19,1276.5,208.635,1275.438,207.248Zm3.854.372a.539.539,0,0,1,.115-.323c-.014,0-.026,0-.041,0a.754.754,0,0,1,.361-.428.923.923,0,0,0,.025-.386c-.661-.15-1.119.044-1.038,1.116.854.1,1.337.691,1.419,1.8-.47-.175-.637-.413-.959.247.378.1.463.6.691.9,1.034-.575,1.6-1.263,2.883-.672C1282.412,207.751,1280.766,208.516,1279.292,207.62Zm5.644.159c.222.074.152.477.079.885a.867.867,0,0,0,.811-.192C1286.183,207.65,1285.176,207.137,1284.936,207.779Zm3.958-1.02a9.933,9.933,0,0,0-4.427-.545,29.554,29.554,0,0,1-3.426,0,.7.7,0,0,1-.7.291.926.926,0,0,0,.059.4.519.519,0,0,1,.1.208c.768,1.061,3.922.409,2.131.121.235-.289.638-.238,1.029-.153a3.539,3.539,0,0,1,1.027-.088.863.863,0,0,0,.006-.417c1.461-.3,1.547,1.237,2.624,1.214C1287.914,207.787,1288.377,207.181,1288.895,206.759Zm-14.394-3.646c0,.021-.011.024-.009.047.032-.013.052-.015.083-.028C1274.549,203.127,1274.525,203.119,1274.5,203.113Zm-2.832,1.019c.131.159.976.628,1.01-.05C1272.368,203.761,1271.79,203.108,1271.668,204.133Zm-.587,5c.338.042.933-.35.776.532,1.995-.666,4.1.988,5.477-1.234C1275.1,208.977,1272.309,208.28,1271.082,209.13Zm-4.325.361c1.63,1.036,2.812-.324,3.821.831C1271.307,208.872,1268.077,208.634,1266.757,209.49Zm-.158.307c-.132-.143-.694-1.107-.78-.2.668-.013-.345,1.136.318,1.125C1266.1,210.179,1266.727,210.457,1266.6,209.8Zm-.689-1.082c-.212-1.119-1.5-.082-1.872-.9-.039.689-.531.868-.561,1.552C1264.527,209.84,1264.968,207.986,1265.909,208.715Zm-3.235.492c-1.246-.381-1.817-.93-2.922-.938a7.086,7.086,0,0,1,.2,2.027C1261.01,209.608,1262.242,210.563,1262.674,209.207Zm-63.413,92.128c-.013,0-.02-.01-.034-.011s-.051,0-.069-.007a2.887,2.887,0,0,0-.335.024c.33.434-.368.5-.416.8.595-.077.686.367,1.28.284C1199.55,302.051,1199.574,301.522,1199.261,301.335Zm-.17-2.345c.02-.007.029-.023.05-.029-.038-.018-.057-.056-.09-.08C1199.059,298.919,1199.08,298.952,1199.091,298.989Zm-1.262,4.661,0-.01h-.006C1197.825,303.647,1197.829,303.646,1197.829,303.651Zm3.549-.085a1.966,1.966,0,0,0-.861-.013c-.023-.441.9-.573.623-1.092a1.849,1.849,0,0,0-1-.127,13.578,13.578,0,0,0,.7,2.1C1201.409,304.261,1201.334,303.894,1201.378,303.565Zm27.443,43.253c-.341.432-.62-.192-.971.383,0,.194-.234,1.282.446.663C1227.792,347.431,1229.32,347.249,1228.821,346.818Zm-10.316-8.971c-1.157-.26-2.045-.126-2.594-1.414-1.184,1.794.556,2.319,1.044,3.961-.415.4-.641-.111-1.111.541.389.55.861.709,1.525-.14-.567-.64-.525-1.4.162-2.275.23.442.193.729.879.452C1218.2,338.646,1218.47,338.22,1218.5,337.847Zm-1.45,7.428c-.24-.175-.46-.47-.7-.663C1216.347,345.054,1216.325,345.807,1217.055,345.275Zm-6.5-23.554a.621.621,0,0,0,.018-.484,2.709,2.709,0,0,1-.73-.175C1210.036,321.357,1210.056,321.985,1210.551,321.721Zm2.127,13.705c-.821.373-.42,1.422.192,1.1-.114-.2.21-.455.54-.709A.864.864,0,0,0,1212.679,335.426Zm-.426,2.145a6.065,6.065,0,0,1,1.042,1.919,3.986,3.986,0,0,1,1.825.819.6.6,0,0,1,.3.217c1.391-1.3-2.515-3.683-1.206-2.066-.526.083-.842-.563-1.152-.952a.492.492,0,0,1-.079-.1C1212.772,337.176,1212.549,337.113,1212.253,337.571Zm-2.852-2.908c.05.046.1.095.146.141.7.649,1.4,1.273,2.032,1.941-.168-.635.09-1.335-.461-1.807C1210.7,334.58,1210.028,334.67,1209.4,334.663Zm-.459-.527a1.089,1.089,0,0,0-.144-.058l.093.09C1208.911,334.153,1208.937,334.133,1208.942,334.136ZM1221.6,344.98c.372-.862-1.89-3.484-2.042-1.752-.748-.886-1.091-.913-1.639-1.9-.449.338-.769-.008-1.307.764C1218.577,341.924,1219.354,344.748,1221.6,344.98Zm2.465-.258c-.223-.255-.929-.36-.216-.911-1.932-.829-2.373-3.452-4.9-2.718C1220.983,342.169,1222.584,344.538,1224.07,344.722Zm3.455,2.6c-.509-1.85-2.307-1.626-2.275-3.153C1223.728,344.764,1225.965,347.084,1227.524,347.324Zm7.1-.925c-.019.6.65.285,1.07-.374C1235.34,345.959,1234.988,345.724,1234.625,346.4Zm46.872,23.471c.009.55.3.608.327,1.128.8-.442,1.628.574,1.643-.49A5.169,5.169,0,0,0,1281.5,369.871Zm2.5,1.441c.335.359,1.552.344,1.43-.49-.25-.014-.292-.42-.331-.829A1.233,1.233,0,0,0,1283.991,371.311Zm25.433-4.532c-.172.082-.284.425-.466.58a1.844,1.844,0,0,1,.441-.15,1.293,1.293,0,0,1,.241-.152A1.2,1.2,0,0,0,1309.424,366.779Zm-.623.667.057-.036a.226.226,0,0,1-.07.024Zm6.795-.957c.348,1.229,2.229.2,1.385-.756C1316.238,365.4,1316.425,366.317,1315.6,366.49Zm1.638-1.23a1.9,1.9,0,0,0,2.539,1.226C1319.007,365.467,1318.054,365.792,1317.234,365.26Zm36.193-38.24a1.357,1.357,0,0,0-.444.116.774.774,0,0,1,.232.1c-.428.455-1.381.856-1.913,1.388.642.011,1.476.42,1.785-.292C1351.978,327.5,1352.905,328.255,1353.427,327.02Zm6.128-25.969-.866-.143c-.076.551-.35,1.186.38,1.341C1359.441,302.065,1359.512,301.572,1359.555,301.051Zm-1.882-46.433c-1.461.688.906,1.53-.965,1.529.053.847,1.272.616,1.6.1C1357.909,255.335,1357.774,255.535,1357.673,254.618Zm-1.048-7.267c-.379.717.56.58.691,1.408C1358.573,248.478,1357.636,246.565,1356.625,247.351Zm-.465-.275a1.871,1.871,0,0,0,1.367-2.448C1356.459,245.334,1356.739,246.292,1356.16,247.076Zm-1.552,5.52a.991.991,0,0,0,.973.755C1355.876,252.9,1355.382,252.213,1354.608,252.6Zm-4.426-3.775c1.026.825,1.145,1.213,2.349,1.432-.478-.621.047-2.062-1.21-1.766C1351.677,249.662,1350.733,248.884,1350.183,248.821Zm-22.158-24.946c-1.043-.682-2.291-1.265-3.345-1.867a9.165,9.165,0,0,1,1.76,2.109,48.158,48.158,0,0,1-4.265-3.828c-1.12-.44-2.734-.7-2.483-1.742a32.821,32.821,0,0,0-6.651-3.787c-.006,0-.007.008-.013.008s-.014-.021-.023-.027c-.662-.317-1.314-.634-1.949-.982.235-.309.526-.252.757-.6a.268.268,0,0,0,.031-.252c-.043-.048-.091-.091-.136-.139-.213-.11-.57-.141-.689-.3-.642.734.5.477-.147,1.21a16.435,16.435,0,0,1-4.014-1.584,1.127,1.127,0,0,1-.2.7.87.87,0,0,0-.622-.571c.027-.176.2-.261.365-.333-.134-.054-.262-.1-.391-.143-.238.317-.726-.518-.822.445-.417-.566-.619-.32-1.388-.819a3.3,3.3,0,0,1,.361-.113.861.861,0,0,1-.068-.14.6.6,0,0,1,.965-.255c-.111-.525-.5-.637-.928-.642-.577.191-1.393.507-.414.811-1.263.033-1.757-.41-3.034-.427.2-.311.436-.481.759-.36-.009-.094-.01-.193-.01-.293-1.248-.625-2.824-1.22-3.4-.2-.376-.115-.015-.827-.6-.778-.361-.077-.539.39-.692.931-.106-1.2-3.266-1.313-4.086-1.481.611-1.306,2.292.132,2.95-1.111-1.478-.154-3.09-.517-4.4-.161a2.7,2.7,0,0,1-.019.4.7.7,0,0,0-.308-.3,2.763,2.763,0,0,0-.688.372c-.072-.069-.151-.12-.225-.182a1.2,1.2,0,0,0-.314.7c1.26-.979,3.8,1.553,6.066,1.021.214.1.024.549-.038.886a3.557,3.557,0,0,1,1.012.013l.046-.165a.856.856,0,0,1-.016.172c2.127.324,3.954,2.312,5.726,2.045l-.305.813c.953-.779,1.285-.264,1.94.394-.965-.013-.693.834-1.779.278.82.678,1.985.678,2.347,1.837l.135-.318a.418.418,0,0,1-.09.482c.012.055.033.1.042.156.177-.374.354-.743.164-.873.13-.081.286.01.445.154.239-.044.56.358.8.333-.12.188-.2.31-.26.4a3.434,3.434,0,0,1,.254.576.426.426,0,0,1,.045-.017l-.041-.018c.331-.448.587-.372.8-.127.306-.067.539-.2.378-.587.42.227.89.435,1.351.647.77-.16,1.658-.076,1.652.683a.884.884,0,0,1-.087.044c.371.167.742.327,1.108.506-.561,1-1.16.417-1.295,1.622-1.017-.68-1.652-1.731-2.823-1.436a1.714,1.714,0,0,0-.187.3c.964-.311.223.746.625,1.214.022,0,.043.012.066.011.19-.049.34-.437.548-.344.036.008.052.028.084.038a1.351,1.351,0,0,0,.2-.177,2.687,2.687,0,0,0,.589.738,1.038,1.038,0,0,0-.231-.62c.78-.542.718.357.58,1.044a1.247,1.247,0,0,1,.159.307c.157-.124.316-.24.5-.083-.373.442-.582.546-.715.486-.58.939-1.014,1.508-1.986,1.127a.711.711,0,0,1,.1.961c.222.009,1.166-.411.855-.865.211.085.329,2.026,1.6.839.3,1.766,2.575,1.835,3.618.687.344-.428.792.5.793.8.363.322.739-.876,1.1-.346-.577-1.06-1.841-1.616-3.216-2.207-.489.893.812.857.224,1.787-.652-.841-1.219.854-1.867-.043.194-.283.412-.056.621.008a3.425,3.425,0,0,0-1.326-3.665c1.072-.413,1.765.936,1.861,1.645,1.4-.783,2.917,1.6,4.3-.894a.959.959,0,0,0,.438.687c.007-.01.006-.015.014-.025a1.855,1.855,0,0,0,.211.092c.649.121,1.612-.447,2.436-.519,0,.425-.124.619-.3.709.082-.005.164-.015.246-.017a.764.764,0,0,0-.192.986c.345-.247-.12-1.031.569-1.119,1.4,1.11,2.54,3.555,4.6,3.62.2-.345-.241-.482-.445-.694.754-.063.589-.011,1.2-.555-.142.3.537.849.314.239.688-.1.313,1.925,1.3,1.8a1.814,1.814,0,0,0-.713.537l.593.492c.105-.247.211-.5.081-.684.094.117.207.231.307.347.061-.226.146-.458-.181-.578.625-.215,1.356.087.5.935,1.95,2.091,4.77,4.011,5.636,6.7.316.325.54-.586.163-.668.654-.3,1.034.79.717,1.173,2.024.285,1.487,1.681,3.374,2.484-1.451,1.387,1.459,2.018.321,2.717.348.9.982-.865,1.171-.392.391.427,1.72,2,2.252,2.5l.96-.658c.505.611-.407.2-.49.815,1.19-.2.1,1.76,1.854,1.166.094.435-.147.6-.625.638.366.158,1.5.68,1.671-.108.549-.435.364.861,1.073.055.014.418-.434.3-.741.455,1.384.92,1.693,2.9,3.033,3.88-.483,0-.733.148-.672.59.616-.327,1.605.5,1.836-.28.491.067,1.038.614.839.961.31.063.708-.2,1.658-.6-.672-.861-1.676-2.123-2.635-1.219-.163-.358.775-.582.458-.956-.974-.562-2.19-.672-3.448-2.309.61-.27.561.973,1.3.422-.132-.416-1.415-1.885-2.423-1.647.213-.289.586-.493.639-1.139-1.365-.3-.73-2.54-2.842-2.032-.129-.381.206-.77-.136-1.15-.408-.337-.556.641-.107.825-1.912-.234-.315-3.383-1.9-3.4-.233-.595.616-.231.92-.716-1.048-.382-1.051-.693-1.893-1.385.008,1.089.45,1.161.743,2.28-1.309-.1-.979-2.2-2.307-2.292.333-.167.632-.193.847.079-.436-1.277-1.047-.137-.2-1.963-.254-.646-.773-.165-1.13-.365-.475.692.645.577.827.9a5.771,5.771,0,0,0-1.643.358,2.6,2.6,0,0,0-.088-2.634c-.258-.138-.651.372-.995.644-.4-.219.038-.561.359-.887C1332.524,228.547,1330.8,225.642,1328.024,223.875Zm-7.683-5.941a.731.731,0,0,0-.112.145c.352.332.706.654,1.068.952.021-.029.048-.041.066-.075C1321.455,218.347,1320.429,218.732,1320.341,217.934Zm-11.714-11.846c.056-.1.131-.239.222-.379-.063-.057-.134-.119-.2-.178A.652.652,0,0,0,1308.627,206.087Zm-49.9-2.038c1.121,1.562,3.649.075,5.284.552-.252,1.3-2.838-.281-3.557.887,1.151-.085.207.9.548,1.957a1.666,1.666,0,0,0,2.533-.429c-.39-.068-1.117.58-1.065-.411.669.1,1.339-.365,2.289-.942.063.723-.262.951.339,1.119.175-.872.734.411,1.2.141.064-.523-.7-1.131-.152-1.435a3.023,3.023,0,0,0,1.7,1.28,8.3,8.3,0,0,1,3.3-1.273c-.076-.06-.145-.088-.224-.16.181-.444.4-.154.7.094.269-.039.536-.077.8-.1-.623-1.335-1.93-1.328-2.98-1.341.046-.679.545-.8.861-1.15a19.084,19.084,0,0,0-5.143,1.077l-.107-.917C1262.785,203.726,1260.671,202.379,1258.724,204.049Zm-3.646,4.121c.7-.481.785.685,1.481.213-.081-.544-.364-.567-.458-1.076C1255.821,207.648,1255.153,207.651,1255.078,208.17Zm-8.958,5.4c.562.447,1.051,1.158,1.841.522-.316-.69-.37-1.193.137-1.29a2.689,2.689,0,0,0,.319,1.427,1.983,1.983,0,0,1,2.041-1.057c-.109-1.255-.942.289-1.179-.5,1.244-.924,1.37-.14,2.719-.311.408-.659-.767-.7-.343-1.106.692.994,1.067-.265,1.623.721,1.9-.7,2-.868,3.745-1.621.128.408.177,1.054.447,1.08-.069-.657,1.021-.207.735-1.077-.367-.077-.8.045-1.061-.333,2.238-.165,3.1-1.57,1.1-3.224.444,1.131.447,1.376.03,2.062-.151-.842-1.378-.9-1.2-.014.206.365.743-.134.886.38-2.421.239-4.387.988-6.834.977C1250.347,212,1246.306,211.167,1246.12,213.569Zm-15.7-.824c.278-.837,1.429-.335,1-1.625C1231.14,211.683,1229.932,211.864,1230.421,212.745Zm-6.372,6.125c1.5-1.544,5.207-3.28,4.771-5.119C1227.868,215.021,1224.421,216.776,1224.048,218.87Zm.621-3c.447-.335,1.093-.593.689-1.215-.395-.13-.8.169-1.2.507Zm.2-2.288.5.713.707-.478C1225.7,213.147,1225.281,213.447,1224.871,213.578Zm-1.225-3.723c.247-.107.461.245.675.6.25-.227.745-.365.584-.732-.5.557-1.162-1.523-1.071.011C1223.745,209.6,1223.5,209.558,1223.646,209.855Zm-7.513,5.3c-.221-.906-.3-.933-1.13-1.706C1214.29,214.075,1215.49,214.905,1216.133,215.15Zm-1.994-.607a1.666,1.666,0,0,1,.4.812c.227-.194.487.248.717.142-.191-.3.076-.295.349-.283-.32-.48-.609-.247-.913-.379C1214.911,214.563,1214.4,214.448,1214.139,214.542Zm-4.373,2.008c.519.218,1.977.758,1.832.276-.63.326-.263-.6-.789-.853-.232.151-.446.48-.706.26.219-.273.7-.506.482-.846C1209.634,215.575,1210.3,215.917,1209.766,216.55Zm-.222,12.848a5.164,5.164,0,0,0,1.893-.833c-.378-.4-.633-.254-1.006-.621C1210.135,228.8,1208.834,228.6,1209.544,229.4Zm-1.333-5.5.643.593c.057-.466.8-.858.105-1.4Zm-.331,6.569c.2-.156.5.118.807.4a1.221,1.221,0,0,0-.077-1.709C1208.118,229.106,1207.226,229.925,1207.88,230.463Zm-3.005-8.081c.532-.416,2.272-.325,1.6-1.326-.395.488-.759.9-.89.109C1205.437,221.573,1204.417,221.927,1204.874,222.381Zm-.2,6.022c.994-.288,1.586-1.725,3.154-2.782-1.492-1.75.349-2.191.133-3.173-2.022.4-1.842,1.727-1.369,3.255A1.917,1.917,0,0,0,1204.674,228.4Zm-2.2,3.832c1.314-.748,1.69-2.424,2.745-3.113l-1.135-.915c.1,1.2-.642,1.141-1.493,1.92C1203.405,231.215,1201.969,231.217,1202.471,232.236Zm-4.764,63.35c-.374.662.149,1.1.824,1.387.1-.672.712-1.092-.247-1.466-.113.289.5.9-.136.96C1197.945,296.221,1198.328,295.468,1197.707,295.585Zm-.833-8.51c-.238-.834.578-.506.868-.207.082-.252.4-.358.263-.738-1.777.023.016-1.46-1.477-1.845C1196.665,285.261,1196.372,286.443,1196.874,287.076Zm.206,3.15a3.35,3.35,0,0,1,.79-1.156c-1.017.34-.216-.616-.912-.51C1196.637,288.807,1196.473,290.059,1197.081,290.225Zm1.013-2.266c.106-.578-.4-.736-.926-.892C1196.716,287.372,1197.356,287.915,1198.094,287.959Zm-1.691-16.606a1.252,1.252,0,0,0,1.006,1.139l.114-.749A2.322,2.322,0,0,1,1196.4,271.353Zm-.946,4.918c.057.631-.552,1.621.412,1.775.879-.327-.553-1.25.706-1.268.5,2.33.06,4.2.559,5.661,1.315-2.039.52-3.6.932-5.875C1196.86,276.7,1196.555,276.012,1195.457,276.271Zm.522,14.784c-.52-.779.436-1.481-.732-1.848C1195.92,289.528,1194.526,290.982,1195.978,291.055Zm-.3-4.516c-1.7.482-.292,2.1.135,2.448C1195.767,288.214,1194.969,287.218,1195.682,286.539Zm.26-14.093c.144.464-.731,1.414.392,1.42C1196.189,273,1196.726,272.858,1195.942,272.447Zm-.72-8.184c.083.322-.578.92.046,1.043.116-.219.342-.04.565.142C1196.113,264.879,1195.67,264.572,1195.222,264.263Zm-.229,2.206c-.683-.1-.139.732.111.842-.074-.641.618-.457.547-1.094-.705-.193-.8-.586-1.182-.076C1194.68,266.236,1195.027,266.278,1194.992,266.469Zm-2.385-18.48c.382-.686,1.734-1.26.927-2,1.02.7,1-.6,1.621-.664-.869-.258-.6-.724-1.469-.982C1192.794,245.128,1193.38,246.737,1192.607,247.988Zm1.964,12.094c-.065-.512.988-1.356-.113-1.548C1194.89,259.32,1193.665,259.606,1194.571,260.083Zm.351-4.675c-.472.146-1.114,1.357-.276,1.664C1194.631,256.152,1195.249,256.082,1194.923,255.408Zm-2.584-6.1c1.525.537.452-1.716,1.774-.405.568-.636-.459-1.327-1.058-1.194C1192.684,248.637,1192.923,248.59,1192.339,249.309Zm.574,2.361c-.533.114-.672.944.149,1.215A.977.977,0,0,0,1192.913,251.67Zm-.46,6.422c.587-1.08.7.132,1.043.562-.137-1.3.057-1.66-.639-2.658C1192.752,256.77,1191.352,257.421,1192.453,258.092Zm-2.6-17.768c.751.665.743-.426,1.07-.75.33.639.583.124.915.759.314-.479.589-.947.047-1.285a.811.811,0,0,1-.99-.02C1190.586,239.569,1190.345,240.243,1189.849,240.324Zm-.018,1.3c-.546.534-1.21.523-.719,1.462C1189.654,242.546,1190.313,242.575,1189.83,241.627Zm2.865,55.861a2.183,2.183,0,0,0,.253,1,5.851,5.851,0,0,1,.162-1.623,21.948,21.948,0,0,1,.353,2.678c.324.678.514,1.309.131,1.713q.057.807.119,1.632a81.352,81.352,0,0,0,2.418,7.963c-.386.054-.552-.19-.964-.105-.3.081-.276.254-.182.448a.684.684,0,0,0,.327.1.548.548,0,0,1-.125.323.409.409,0,0,1,.048.172c.978-.069-.013-.686.967-.752,1.032,1.222,1.523,4.253,2.565,5.65-.517.193-.446-.528-1.045-.214.1.959,2.075-.033,1.452,1.121a.594.594,0,0,1-.864-.495c-.6.911.792,1.438,1.022,1.916a1.314,1.314,0,0,1,.809-.617.858.858,0,0,0,.076.836.366.366,0,0,1-.3.059c.029.1.063.207.1.315.266.083.161.8.816.212-.074.7.243.648.476,1.529a3.513,3.513,0,0,1-.854-.449,5.232,5.232,0,0,0,.717,1.323c.157-.032.2-.178-.031-.566a5.129,5.129,0,0,1,1,1.153.982.982,0,0,0,.357,0c.071.134-.006.253-.094.371a5.375,5.375,0,0,0,.581.673,3.738,3.738,0,0,0,.533-.249c-.781.924,1.373,3.216,1.832,3.909-1.364.5-1.526-1.7-2.878-1.28,1.2,1.462,2.294,3.34,4.052,3.566a5.083,5.083,0,0,0,1.229,3.1,2.626,2.626,0,0,1,.342-.343c-.22.765.717,1.3,1.542.578-1.6-.109-1.771-3.675-3.813-4.783-.092-.216.353-.424.627-.633-1.479-.989-1.827-2.9-2.45-4.38-.16.088-.322.181-.482.27a1.011,1.011,0,0,1,.476-.284,3.446,3.446,0,0,0-1.172-1.629l.776-.4c-1.235-.054-1.133-.656-1.175-1.58.708.651,1.079-.159,1.509.974-.163-1.141-1.2-1.95-.347-3.216-.385.159-.766.316-.712.54-.476-.081-.171-1.41.072-1.908a2.535,2.535,0,0,1-.616-.359.817.817,0,0,1-.367.228.956.956,0,0,0,.128-.352c-.217-.086-.416-.069-.531.252-.458-1.295-1.151-2.661-1.716-4.067a1.532,1.532,0,0,1,.983-.036c.083-.352.254-.743.274-.969a1.958,1.958,0,0,0,.893-.117c-.921-.465.435-.69.434-1.331-.139-.163-.594.07-.681-.16-.33-.5-.04-.858.856-1.057-.146,1.033-.082.9.633,1.716l-.824.289a.881.881,0,0,1,.059.963c.53-.276.775-.465,1.135-.41a5.067,5.067,0,0,1,.533-.109c.014-.23-.409-.549.395-.613l-.189.583a1.288,1.288,0,0,1,.634.088,5.126,5.126,0,0,1,.442-.8c.423.224.326.733.122,1.338.016.029.038.035.054.066-.033.011-.047,0-.075,0-.125.361-.278.752-.39,1.143.4.152.2.314-.112.524a1.942,1.942,0,0,0-.007.557,1.169,1.169,0,0,1-.276-.361,1.568,1.568,0,0,0-.4.382c.8.038,1.151.013.638.725a1.326,1.326,0,0,0,.176.017,1.853,1.853,0,0,1,.49-.04,1.147,1.147,0,0,0-.088.078c.24,0,.487-.021.715-.015a12.27,12.27,0,0,0,2.253,4.5c-.228.078-.346-.027-.608.109.876.373,1.106.744,1.758,1.927a3.145,3.145,0,0,0,.532-.317c-.023-.036-.008-.062-.056-.1a.342.342,0,0,1,.18-.057.164.164,0,0,0,.019-.1c.012.024.041.054.054.078.323-.013.7.206.6-.192,1.3-.053-.936.969.3,1.038a1.57,1.57,0,0,1-.234.054,11.3,11.3,0,0,0,1.108,1.05c.187-.12.29-.24.279-.36.616-.014.356.32-.066.535.164.133.32.262.482.381.3-.1.59-.126.586.1a2.12,2.12,0,0,0,.921-.944,1.616,1.616,0,0,1-1.178-.668c-.5.024-1.11.261-1.465.007a3.06,3.06,0,0,0,1.035-.841,5.758,5.758,0,0,0-.911-1.729c.133.275.139.546-.526.8a1.864,1.864,0,0,0,.107-.308c-.465.2-.725.051-.853-.333.314-.134.44-.277.431-.425-.287-.083-.666-.112-1.044-.19,1.474-.51-.05-2.98-1.91-2.4-.456-.492,1.026-1.526-.281-1.231.8-.656.45-1.43.267-2.213-.482.13-.456.337-.4.546-1.057.051,1.234-2.44-.948-2.269.327-.092.471-.219.481-.369-.364-.12-.423.239-.952-.018.051-.567.339-.336,1.03-.569a8.564,8.564,0,0,1-2.493-.795c.414-.155,1.063-.529.8-1.2-.877,1.266-1.867-.347-.574-.741-.151-.163-1.118-.526-1.222.013-.045-.107.271-.541.358-.947a6.29,6.29,0,0,1-1.958-1.049,2.412,2.412,0,0,0-.031-.535,3.543,3.543,0,0,0-.988,2.957,1.175,1.175,0,0,1-.583-1.461.938.938,0,0,1-.812-.874c-.641.05-.687.285-.984.443a.977.977,0,0,0,.371.328c-.722.376-1.287-.42-1.4-1.27-.338-.312-.733-.558-1.08-.861.64.023.837-.5.941-1.194-.1.02-.165.013-.269.043.862-1.353-1.09-1.562-2.024-2.337,1.083-1.052,1.19.784,1.951.785,1.328-.511-1.279-.89-.343-1.678-.59-.549-.794.762-1.439.268-.195-1.763.742-4.293-.67-5.783-.388.1-.173.509-.181.8l-.06-.05c.054.2-.061.322-.217.422.443.215.426.693.226,1.206-.535.005-.395-.6-.436-1.032a.281.281,0,0,0-.023.355c-.625-.262-.973-1,.355-1.03-.375-.315-.367-.281-1.087-.316.316-.114.227-.977-.052-.389-.557-.412,1.153-1.58.369-2.184a1.836,1.836,0,0,0,.888.12l-.068-.763c-.251.1-.506.206-.545.427.348-3.021-.593-6.833.857-9.617.008-.451-.8.036-.592.359-.68-.243-.167-1.283.33-1.332-1.228-1.619.148-2.23-.612-4.119,2.016.035.409-2.449,1.713-2.147.395-.879-1.311-.076-1.108-.543.029-.576.212-2.619.191-3.343l-1.149-.208c.079-.786.432.142.928-.232-.985-.691,1.186-1.315-.478-2.123.244-.373.529-.318.9-.014-.146-.368-.573-1.528-1.259-1.093-.7-.077.357-.864-.72-.79.288-.306.522.092.849.2-.322-1.62.874-3.237.625-4.868.343.337.624.408.9.053-.67-.2-.778-1.479-1.5-1.087-.3-.392-.3-1.161.094-1.267-.174-.262-.646-.352-1.6-.737-.14,1.08-.33,2.675.993,2.708-.14.367-.964-.132-1.006.356.287,1.079,1.069,2.009.789,4.047-.624-.237.3-1.081-.615-1.207-.2.387-.345,2.324.538,2.861a1.872,1.872,0,0,0-1.266.358c.751,1.168-1.3,2.308.559,3.427-.181.36-.7.4-.725.909.049.524.851-.064.664-.509,1.185,1.505-2.193,2.613-1.083,3.739-.26.584-.6-.267-1.162-.138.468,1,.249,1.227.349,2.305.772-.776.511-1.136,1.1-2.133.856.986-.882,2.244,0,3.237-.354-.116-.584-.306-.542-.649-.6,1.209.643.831-1.261,1.528-.282.635.429.658.538,1.049.83-.157-.044-.859.055-1.213a5.724,5.724,0,0,0,1.417.9,2.627,2.627,0,0,0-1.818,1.924c.084.278.726.192,1.164.241.124.433-.428.369-.887.376,1.388,2.75.53,6.008,1.234,9.2C1191.766,293.8,1192.813,296.03,1192.7,297.487Zm11.193,17.177c.045.219-.424.352-.726.511.147.16.582-.11.686.113a2.51,2.51,0,0,0,.259-1.261c-.246-.075-.533-.862-.846-1.3a1.452,1.452,0,0,0-.53,0,5.615,5.615,0,0,0,.067-1.35c-.2.137-.415.289-.683.441.382-.523-.143-.448-.341-.872-.714.172-.742.5-.616.866a1.115,1.115,0,0,0,.732-.362,9.607,9.607,0,0,1,.185,1.2l.044-.026c0,.035-.027.065-.035.1C1202.206,313.666,1202.419,314.458,1203.889,314.665Zm.211-3.4,0,.008,0,0c-.157.175-.128.385-.485.523.222.19.6.781.978.876a3.42,3.42,0,0,1,.236-1.675.508.508,0,0,0-.263.05A.782.782,0,0,0,1204.1,311.268Zm-.172,4.189c.04.543.956,1.188,1.187.487C1204.69,316.115,1205.167,314.725,1203.927,315.458Zm.508,7.349c.352.263.326,1.276.935,1.027C1204.805,323.3,1205.933,322.081,1204.436,322.807Zm25.98,29.857c-.144-.811-1.08-1.865-2.171-1.362.244.309,1.222.311.513,1.012-.429-.518-1.241-.618-2.337-.819.442-.579.838-.532.505-1.056-.72.532-.267-.792-.795-.9-.4.346-.244,1.305-.857,1.167a2.976,2.976,0,0,0-.4-2.081c-3.326-.422-5.546-3.2-7.335-4.09.1.138-.028.327-.216.531a4.111,4.111,0,0,0,1.26,1.845,1.067,1.067,0,0,1-.935.242,17.547,17.547,0,0,0,7.292,5.378l-.541.752c2.175.957,2.832,3.36,5.408,3.412.224-1.9-2.658-2.477-3.549-3.916,1.068-.8,1.917,2.091,3.24,1.7C1228.587,353.779,1229.953,353.676,1230.416,352.663Zm1.483.216a7.158,7.158,0,0,1,1.226-1.634c-1.255-.195-1.523-1.722-2.761-1C1231.031,351.353,1231.084,352.139,1231.9,352.879Zm3.4,3.174c-.846-.108-.119-1.029-.955-1.141-.308.458-.113.662-.388,1.1C1234.4,355.948,1234.9,356.389,1235.3,356.053Zm10.3,1.936c-.115-.7,0-1.557-1.013-1.61-.233.722-.532,1.131-.974.867a2.707,2.707,0,0,0,.728-1.271,1.99,1.99,0,0,1-2.23-.57c-.768,1,.895.411.539,1.151-1.549-.14-1.112-.806-2.229-1.574-.749.218.095,1.029-.494,1.049.159-1.2-.971-.511-.717-1.613-1.885-.744-2.072-.683-3.876-1.281.181-.388.581-.9.4-1.1-.393.533-.9-.524-1.274.312.221.3.628.5.563.951-1.773-1.362-3.362-.889-3,1.662.436-1.134.6-1.318,1.372-1.551-.457.725.414,1.583.885.81.094-.408-.643-.394-.4-.871,1.959,1.429,3.926,2.178,5.734,3.81C1241.407,356.347,1243.842,359.649,1245.6,357.989Zm11.1,11.029c-.773.437-1.287-.7-1.839.545C1255.45,369.329,1256.468,370,1256.7,369.018Zm3.075,6.641c-.256-.084-.176-.488-.1-.891-.339,0-.8-.223-.929.156.745-.084-.167,1.9.8.7C1259.528,375.785,1259.686,375.978,1259.777,375.66Zm1.723-4.436-.848-.114c-.172.744.341.8.734.973Zm1.583-.706c-.559-.048-1.214-.285-1.333.445.2.358.706.4,1.233.419Zm2.493-1.818c-2.159.149-6.084-1.021-7,.635C1260.136,369.022,1263.882,370.007,1265.576,368.7Zm3.36,8.014c-.448.819-.408.892-.315,2.017C1269.576,378.734,1269.248,377.322,1268.936,376.713Zm1.324.908c-.3-.007-.194-.507-.436-.581-.059.347-.256.168-.45-.021-.088.569.284.587.421.887-.349.054-.048.477.21.581A1.664,1.664,0,0,1,1270.26,377.622Zm4.35,2.277c-.238-.506-.955-1.875-1.174-1.421.688.177-.214.622.009,1.157.275.042.656-.061.7.275-.347.058-.859-.087-.93.309C1274.049,380.711,1273.788,380.017,1274.61,379.9Zm6.122-4.42-.076-.866c-.358.308-1.174.107-1.027.971Zm1.454,3.337c-.677-.044-1.907-1.266-2.087-.079.623-.1,1.174-.167.734.51C1281.221,379.042,1282.219,379.456,1282.186,378.816Zm4.222-4.338c-.933-.445-2.344.229-4.223-.027-.076,2.289-1.741,1.395-2.246,2.268,1.772,1.045,2.536-.059,3.218-1.508A1.939,1.939,0,0,0,1286.408,374.477Zm4.228-1.383c-1.482-.317-2.9.679-4.144.49l.224,1.432c.734-.959,1.248-.421,2.407-.434C1289.252,373.232,1290.32,374.184,1290.636,373.094Zm17.435-4.915a4.714,4.714,0,0,1-1.1.045.547.547,0,0,1-.07-.052.559.559,0,0,0-.322.639c-.215-.9-.763-.565-1.235-.5l.193.488a.736.736,0,0,0-.508-.316c.217.551-.086.786.323,1.454C1306.377,369.943,1307.007,368.77,1308.071,368.18Zm-2.593,7.286c-.108-.992-.84-.177-1.3-.153.187-.693-.349-.48-.166-1.17-.557.148-1.077.312-.9.923.311.019.57.2.721.671C1304.42,375.537,1305.055,375.2,1305.478,375.465Zm2.418-1.563c-.77.042-1.24-.417-1.523.608C1307.139,374.476,1307.624,374.925,1307.9,373.9Zm8.615-5.4c-.156-.544-.351-.956-.909-1.034-.795.485-.11.771.121,1.443Zm1.438-.749a3.315,3.315,0,0,0-.323.17Zm14.792-10.828c-.136.125-.277.251-.407.374-.419.4-1,.566-.887.358-.746,1.417-2.771,3.081-4.083,1.734.717,1.673-1.454.5-1.868,2.046a1.327,1.327,0,0,0-.529-.6c-.157.237-.507.174-.846.722-.408-.407-.188-.69.144-.855a2.062,2.062,0,0,0-1.059.688c.07.1.137.2.19.3-.262.153-.46.272-.639.378a2.1,2.1,0,0,0-.212.663c.995.543,2.133-.231,2.763-1.166-.04,2.208-3.251,2.2-3.487,4.1a84.192,84.192,0,0,0,9.691-6.347c.61-.228-.03-.742-.009-1.1.425.3.825-.7,1.255-.274A1.274,1.274,0,0,0,1332.74,356.928Zm10.015-14.1a11.744,11.744,0,0,1-1.223,1.03c0,.021,0,.034,0,.054.354.212.13.392-.009.576a2.092,2.092,0,0,1-.045.27.36.36,0,0,0,.119.121C1342.839,345.184,1343.189,343.685,1342.755,342.831Zm2.476-2.038a.4.4,0,0,1-.538-.15,17.922,17.922,0,0,1-1.694,1.941c.016.031.013.06.031.091A24.461,24.461,0,0,0,1345.231,340.793Zm1.7.168c-.71.112-1.664.622-.843,1.591C1346.453,341.777,1347.373,340.883,1346.93,340.961Zm.225-2.286a2.488,2.488,0,0,1-1.916,1.191c-.065.1-.132.188-.2.282C1345.907,340.663,1348.332,339.99,1347.155,338.675Zm.871-1.281c-.557.03-1.277.955-.267,1.433A1.572,1.572,0,0,0,1348.027,337.394Zm1.934-2.443c-.756.155-1.11,1.4-1.691,2.072C1349.371,337.455,1350.354,335.786,1349.961,334.951Zm1.447,6.5-.434.59.983.7.548-.775A2.035,2.035,0,0,0,1351.407,341.452Zm3.422-15.959a.776.776,0,0,0-.192.259c.012.16.007.319.033.481a.49.49,0,0,1-.1,0c.108.652.8,1.308.161,1.442-.279-.111-.1-1.123-.683-.591.68.552-.476.561-.5.99l1.037.534C1356.172,328.092,1355.383,326.564,1354.83,325.493Zm-.078-1.636a7.43,7.43,0,0,0-.133,1.064c.14-.183.282-.366.417-.55A1.125,1.125,0,0,1,1354.752,323.857Zm5.427-21.19-.86-.157-.079.417a.687.687,0,0,1,.116-.069,1.48,1.48,0,0,1,.12.511C1359.913,303.353,1360.018,302.979,1360.179,302.666Zm-.456-21.921a5.059,5.059,0,0,0-.744,1.916c.555.02.629-.264,1.154-.265C1359.729,281.581,1360.8,280.816,1359.723,280.746Zm.416-1.918c-.027.247-.439.267-.854.285a1.237,1.237,0,0,0,1.274,1.155C1360.939,279.954,1360.986,278.75,1360.139,278.828Zm9.173,8.97a1.013,1.013,0,0,0-.248.122,2.406,2.406,0,0,1,.4.342A1.163,1.163,0,0,0,1369.313,287.8Zm-2.146,3.155c0,.017.011.031.018.046C1367.18,290.982,1367.171,290.968,1367.167,290.952Zm-.948,3.22c-.022.3-.522.166-.609.4.347.077.156.262-.044.445.569.116.607-.252.916-.371.037.348.479.072.6-.179A1.7,1.7,0,0,1,1366.219,294.172Zm-3.24-16.262,1.455-.148c-.929-.775-.36-1.256-.314-2.4-1.355-.2-.34-1.2-1.423-1.572C1362.3,275.236,1363.234,276.685,1362.98,277.91Zm.68,26.75c.158.033.36-.113.044-.219-.1.249-.5.149-.9.05-.015.336-.266.78.11.927C1362.864,304.678,1364.818,305.682,1363.66,304.66Zm.985-19.859-.05-1.1-.877.031C1364.01,284.105,1363.766,284.9,1364.645,284.8Zm1.158-.249c1.145-1.7.07-2.512-1.356-3.26a1.905,1.905,0,0,0-.572-3.253c-.5.9.111,2.33-.244,4.175C1365.936,282.407,1364.949,284.008,1365.8,284.552Zm1.451,11.3a.559.559,0,0,0-.13-.408c-.092.009-.168.017-.316.03a1.146,1.146,0,0,0,.245-.119c-.41-.32-1.343-.126-1.817.083C1366.038,295.921,1366.114,295.885,1367.254,295.85Zm.075-1.617c-.033-.076-.061-.149-.1-.227-.048.076-.062.184-.137.236A.746.746,0,0,0,1367.328,294.233Zm-5.212,20.634c.15.95-.889.172-.89.9,1.352-.722,1.1,1.03,2.218.728C1362.5,316.135,1362.817,315.311,1362.117,314.867Zm-62.143,60.3c.576.358,1.228,1.6,1.1,1.174C1301.535,375.745,1300.5,374.854,1299.974,375.165Zm-11.573,4.556c-.615-.283-2.135-.71-1.194-1.561-.9.213-1.7-.489-2.011.581.493.271,1.625.41,1.121,1.306C1286.744,379.247,1288.846,380.363,1288.4,379.721Zm.834,28.25-.976,1.877c1.308-.437,2.529-.95,2.434-2.372C1290.28,407.7,1289.094,407.359,1289.235,407.971Zm-59.255-37.413c.154.4.673.631.474,1.193-1.088-.391-1.811-2.62-2.151-1.052.678-.408,1.139.953,1.116,1.517.545-.448,3.013-.259,2.364-.478C1230.541,371.767,1230.663,370.13,1229.979,370.558Zm-3.542-4.76c-.766,1.108-2.226,1.62-1.949,2.9.226-.528.568-.338.853-.524-.25-.955.791-2.238,1.825-1.322C1227.852,366.113,1226.753,366.12,1226.437,365.8Zm-7.446-.45c-.042-.576-.694-.709-1.162-.414,1.3,1.328,2.338.728,3.229,2.058.211-.284.426-.54.716-.241-.143-1.006,1.035-1.463.48-2.085-.562-.039-.247,1.213-.888,1.838l-.808-.5.788-1.219C1220.193,365.126,1219.2,364.113,1218.991,365.349Zm-13.834,4.013c.108.64,1.407,1.069.152,1.95C1206.917,372.367,1206.271,368.995,1205.157,369.361Zm-31.9-48.686a.731.731,0,0,1-.271.933c-.676-.636-.367-.8-.63-1.715-.54.125-.508.49-1.014.635.1-1-1.054-1.231-1.52-1.721.323.712-.361.988-.033,1.7,1.344.307,1.266,1.128,2.216,2.59.508-.278.674.125,1.014.177-.22-.637.159-1.045.334-1.526.254.142,1.573.274,1.46-.27C1173.709,321.4,1174.175,320.735,1173.26,320.675ZM1370.721,266.9c.33-.313.777-.566.984-.949a1.615,1.615,0,0,1-.91-.047c.132.411-.158.606-.749.649.1,1.061,1.041,1.076,1.546,1.641-.106.716-.8,1.108-1.15,1.678.9.8.162,2.595.983,4.173-.312-1.125.592-1.507,1.168-2.106-.872-.744-.3-1.424-1.247-1.985.542-.082.574-.291.2-.524.718-.094,1.4-.208,1.339-.738C1371.973,268.325,1371.626,267.267,1370.721,266.9Zm-184.2,63.252c-1.951,1.3-3.242.953-4.3-.011,1.334-.58.28-1.73,1.041-2.437-1.1.621-1.106-.446-1.633-.04a1.392,1.392,0,0,0,.475-1.04c-1.279.668-1.479-1.015-2.088-1.78-.993.452-.647.589-1.608.694-.375,1.449.621,3.815.619,4.764,2.448,1.335.434,6.192,2.733,8.542,1.53,1.55,4.326,1.034,6.932-1.548C1189.536,335.052,1189.431,331.446,1186.523,330.156Z" transform="translate(0 0)"/></g></svg>