<svg xmlns="http://www.w3.org/2000/svg" width="27.956" height="27.952" viewBox="0 0 27.956 27.952"><defs><style>.a{fill:#ee7600;}</style></defs><path class="a" d="M6.14,14.413a1.31,1.31,0,1,0,1.31,1.31A1.307,1.307,0,0,0,6.14,14.413ZM7.887,8.3A1.31,1.31,0,1,0,9.2,9.608,1.307,1.307,0,0,0,7.887,8.3ZM14,0a14.791,14.791,0,0,0-2.822.273A13.9,13.9,0,0,0,.31,11.1C-1.579,20.664,6.381,27.952,13.1,27.952a8.461,8.461,0,0,0,1.343-.1,3.446,3.446,0,0,0,2.32-5.006,3.694,3.694,0,0,1,3.325-5.372H24.44a3.572,3.572,0,0,0,3.543-3.565A13.968,13.968,0,0,0,14,0ZM24.435,15.723H20.084A5.444,5.444,0,0,0,15.2,23.639a1.92,1.92,0,0,1-.005,1.709,1.408,1.408,0,0,1-1.021.781,6.871,6.871,0,0,1-1.075.082,11.568,11.568,0,0,1-8.489-4.455A12.181,12.181,0,0,1,11.518,2,12.857,12.857,0,0,1,14,1.752,12.235,12.235,0,0,1,26.231,13.905a1.813,1.813,0,0,1-1.8,1.818Zm-4.318-8.3a1.31,1.31,0,1,0,1.31,1.31A1.307,1.307,0,0,0,20.116,7.425ZM13.128,4.8a1.31,1.31,0,1,0,1.31,1.31A1.307,1.307,0,0,0,13.128,4.8Z" transform="translate(-0.027)"/></svg>