<svg xmlns="http://www.w3.org/2000/svg" width="360.091" height="357.287" viewBox="0 0 360.091 357.287"><defs><style>.a{fill:#a8a8a8;opacity:0.25;}.b,.g{fill:none;}.b,.e{stroke:#392396;}.b,.e,.g{stroke-miterlimit:10;stroke-width:1.5px;}.c{fill:#fff;}.d{fill:#f6f1bb;}.e,.f{fill:#ee7600;}.g{stroke:#ee7600;}</style></defs><g transform="translate(0 -0.369)"><path class="a" d="M0,275.28l4.637.789,4.512,1.17,4.6.75,4.54,1.035,4.538,1.045,4.565.908,4.52,1.129,4.616.674,4.51,1.176,4.6.748,4.5,1.219,4.592.787,4.551.981,4.585.824,4.561.929,4.534,1.063,4.557.955,4.581.838,4.534,1.062,4.559.944,4.573.885,4.5,1.228,4.56.945,4.588.8,4.528,1.09,4.616.68,4.526,1.094,4.545,1.014,4.552.982,4.57.893,4.544,1.016,4.543,1.02,4.61.7,4.561.94,4.557.949,4.537,1.049,4.577.862,4.495,1.258,4.594.774,4.583.828,4.54,1.028,4.524,1.121,4.616.666,4.543,1.018,4.573.873,4.489,1.287,4.563.92,4.544,1.022,4.567.9,4.553.976,4.561.932,4.606.729,4.524,1.111,4.573.875,4.571.895,4.54,1.033,4.528,1.1,4.555.967,4.583.838,4.6.729,4.483,1.315,4.624.639,4.561.94,4.534,1.07,4.565.91,4.549,1,4.587.811,4.533,1.078,4.554.975,4.52,1.137,4.567.908,4.554.99,4.483.705-.384-4.571-.877-4.623-.5-4.678L330,326.308l-.484-4.681-.819-4.633-.7-4.649-.676-4.655-.592-4.665-.607-4.663-.733-4.647-.5-4.678-.613-4.663-.9-4.619-.746-4.646-.379-4.7-.741-4.643-.617-4.663-.691-4.651-.625-4.661-.582-4.669-1-4.606-.6-4.664-.475-4.682-.776-4.64-.752-4.643-.59-4.667-.584-4.667-.635-4.661-.545-4.672-.721-4.647-.727-4.647-.854-4.628-.386-4.7-.881-4.624-.437-4.688-.971-4.612-.533-4.675-.8-4.637-.6-4.664-.639-4.659-.518-4.676-.77-4.639-.467-4.684-.984-4.61-.5-4.678-.486-4.681-1.01-4.606-.383-4.7-.609-4.663-.8-4.637-.869-4.625L297.44,98.2l-.643-4.659-.363-4.7-.836-4.632-.652-4.657-.672-4.655-.588-4.666-.506-4.681-.928-4.617-.76-4.643-.327-4.7-.978-4.612-.322-4.7-.8-4.637-.656-4.657-.856-4.628-.464-4.686-.825-4.633-.547-4.674-.863-4.628L284.3,5.051,283.717.369l-3.481,3.184-3.219,3.436-3.364,3.284-3.379,3.268L266.9,16.818l-3.448,3.2L260.2,23.411l-3.481,3.164-3.426,3.219-3.4,3.247L246.693,36.5l-3.45,3.2-3.326,3.325-3.553,3.09-3.374,3.276-3.35,3.3-3.2,3.459-3.376,3.274-3.533,3.11-3.444,3.2-3.307,3.344-3.273,3.377-3.389,3.26-3.352,3.3-3.526,3.12L195.9,85.436l-3.487,3.158-3.358,3.291-3.188,3.467-3.387,3.264-3.409,3.237-3.5,3.151-3.217,3.436-3.389,3.258-3.43,3.219-3.442,3.206-3.307,3.344-3.405,3.243-3.3,3.35-3.547,3.1-3.3,3.352-3.418,3.227-3.233,3.42-3.492,3.153-3.258,3.393-3.5,3.141-3.414,3.232-3.2,3.451-3.44,3.21-3.491,3.153-3.34,3.309-3.377,3.272-3.281,3.371-3.276,3.376L97.944,180.3l-3.2,3.456-3.391,3.26-3.5,3.146-3.252,3.4-3.4,3.246-3.588,3.055-3.125,3.532L71,206.557l-3.336,3.312-3.491,3.155-3.219,3.436-3.428,3.221-3.471,3.177L50.751,226.2l-3.291,3.362-3.43,3.219-3.309,3.341-3.4,3.246-3.364,3.287-3.491,3.157L27,249l-3.36,3.29-3.329,3.325-3.284,3.371-3.44,3.207-3.409,3.243-3.454,3.2L3.407,271.97Z"/><path class="b" d="M563.68,276.686a.614.614,0,0,0-.207.291Q561.1,283.985,558.722,291a25.181,25.181,0,0,0,10.037,2.68,58.44,58.44,0,0,0,.49,9.974l7.366,1.508" transform="translate(-222.585 -110.08)"/><path class="b" d="M506.579,81.373l7.19,5.753a2.18,2.18,0,0,1,.361,3.5l-2.867,5.118a111.157,111.157,0,0,0,16.1-.625,28.008,28.008,0,0,1-1.735,5.327" transform="translate(-201.812 -32.271)"/><path class="b" d="M307.109,83.327l-1.881,10,13.005-4.664a1.024,1.024,0,0,0,.872-1.432q-.528-2.713-1.057-5.425l12.99-.518" transform="translate(-121.597 -32.238)"/><path class="b" d="M88.085,112.4l-2.844,7.317,15.7-2.482a44.806,44.806,0,0,0-3.293,7.628,40.546,40.546,0,0,0,9.038-.221" transform="translate(-33.959 -44.629)"/><path class="b" d="M31.424,306.655c-.068-.487.768-.184.977.259l3.594,7.49q2.225-5.887,4.8-11.632l12.789-.012" transform="translate(-12.517 -120.467)"/><path class="b" d="M59.544,424.889a26.874,26.874,0,0,1-1.85,9.941A42.286,42.286,0,0,0,68.7,429.292l6.509,5.922a1.962,1.962,0,0,0,1.311.678c1.08-.049,1.244-1.543,1.707-2.52.977-2.055,3.924-2.071,6.065-1.311s4.36,2,6.547,1.383" transform="translate(-22.984 -169.121)"/><path class="b" d="M181.91,38.754a35.641,35.641,0,0,0,11.236-1.541l-5.628,7.067,4.159-.053" transform="translate(-72.47 -14.678)"/><path class="b" d="M557.905,521.381a17.84,17.84,0,0,1,6.149-6.813q.508,4.619,1.016,9.241l4.555-1.863" transform="translate(-222.26 -204.848)"/><path class="b" d="M386.5,54.713c.543,1.826,2.555,2.748,4.4,3.227a12.7,12.7,0,0,0,5.845.34,6.509,6.509,0,0,0,4.584-3.389,7.6,7.6,0,0,0,.587-3.2,7.046,7.046,0,0,0-1.272-4.37,5.354,5.354,0,0,0-5.409-1.748A6.577,6.577,0,0,0,390.9,49.42a2.243,2.243,0,0,0,1.311,3.534,7.918,7.918,0,0,0,3.047.422,2.353,2.353,0,0,0,1.7-.65c.4-.475.326-1.367-.264-1.563l.336-.539" transform="translate(-153.976 -17.947)"/><path class="b" d="M583.489,207.423a5.691,5.691,0,0,0-4.721,3.213,8.268,8.268,0,0,0-.4,5.848,5.293,5.293,0,0,0,1.111,2.215,4.892,4.892,0,0,0,2.364,1.315c2.135.57,4.8-.029,5.767-2.02a5.43,5.43,0,0,0,.431-2.56,3.427,3.427,0,0,0-.635-2.207,3.009,3.009,0,0,0-1.813-.875,4.019,4.019,0,0,0-3.125.608,2.276,2.276,0,0,0-.656,2.9,1.61,1.61,0,0,0,2.68-.053" transform="translate(-230.272 -82.487)"/><path class="b" d="M111.138,552.547a7.811,7.811,0,0,0-1.717,4.036,4.28,4.28,0,0,0-.1,2.018,3.174,3.174,0,0,0,.809,1.307,6.313,6.313,0,0,0,10.638-2.565,2.837,2.837,0,0,0,.064-1.68,3.686,3.686,0,0,0-.976-1.346c-1.19-1.194-2.77-2.487-4.364-1.953-1.3.443-1.912,1.908-2.344,3.217a2.242,2.242,0,0,0-.166,1.018,1.634,1.634,0,0,0,.617.976,3.032,3.032,0,0,0,3.516.211" transform="translate(-43.516 -219.856)"/><path class="b" d="M27.838,476.6a4.09,4.09,0,0,0,1.895,4.762,3.925,3.925,0,0,0,4.926-1.252,5.187,5.187,0,0,0,.731-2.856,4.58,4.58,0,0,0-.846-2.856,2.433,2.433,0,0,0-2.7-.856,6.793,6.793,0,0,0-.107,4.645" transform="translate(-11.016 -188.451)"/><path class="b" d="M38.807,343.966a2.523,2.523,0,0,0-2.588-1.129,4.363,4.363,0,0,0-2.514,1.537,2.935,2.935,0,0,0-.877,2.149c.16,1.435,1.817,2.112,3.209,2.5a2.763,2.763,0,0,0,.977.147,1.747,1.747,0,0,0,1.3-2.229,2.951,2.951,0,0,0-2.149-1.83c-.283-.074-.744.123-.559.351" transform="translate(-13.073 -136.42)"/><path class="b" d="M41.025,171.429a2.59,2.59,0,0,0-2.166,1.769,5.921,5.921,0,0,0-.139,2.93,5.316,5.316,0,0,0,1.639,3.5,5.568,5.568,0,0,0,3.688.852,7.483,7.483,0,0,0,3.559-.766,3.1,3.1,0,0,0,1.666-3.024,3.785,3.785,0,0,0-2.4-2.539,4.186,4.186,0,0,0-2.862-.406,2.01,2.01,0,0,0-1.5,2.211c.23.957,1.725,1.387,2.258.559" transform="translate(-15.379 -68.147)"/><path class="b" d="M138.834,85.734a2.441,2.441,0,0,1-2.344-.311,3.621,3.621,0,0,1-1.322-2.031,4.753,4.753,0,0,1,.682-3.893,4.637,4.637,0,0,1,3.434-1.953,3.165,3.165,0,0,1,2.7,1.041,3.047,3.047,0,0,1,.547,2.207,2.823,2.823,0,0,1-1.61,2.383,1.732,1.732,0,0,1-2.319-1.221" transform="translate(-53.787 -30.743)"/><path class="b" d="M248.752,72.077a4.481,4.481,0,0,1,1.875-3.821A5.668,5.668,0,0,1,253.4,66.94a3.472,3.472,0,0,1,2.879.854,4.305,4.305,0,0,1,1.1,2.836,4.262,4.262,0,0,1-.729,2.955,2.21,2.21,0,0,1-2.768.649c-1.025-.654-1.059-2.114-.976-3.321" transform="translate(-99.088 -26.506)"/><path class="b" d="M64.429,62.2A3.607,3.607,0,0,0,67.9,63.759a5.1,5.1,0,0,0,3.346-2.045,3.112,3.112,0,0,0,.723-1.727A4.167,4.167,0,0,0,70.8,57.4a2.907,2.907,0,0,0-.826-.822,1.837,1.837,0,0,0-2.137.408,3.4,3.4,0,0,0-.859,2.123,1.708,1.708,0,0,0,.352,1.387c.352.344,1.1.256,1.188-.229" transform="translate(-25.668 -22.316)"/><path class="b" d="M558.361,60.037c-.586-.07-.823.738-.828,1.334a4.191,4.191,0,0,0,.608,2.752,3.146,3.146,0,0,0,1.688.977,6.086,6.086,0,0,0,4.825-.8,2.938,2.938,0,0,0,1.4-1.881c.168-1.108-.631-2.1-1.367-2.93a3.173,3.173,0,0,0-1.307-1.014,1.874,1.874,0,0,0-2.149,1.129,2.819,2.819,0,0,0,.33,2.539" transform="translate(-222.111 -23.123)"/><path class="c" d="M205.675,456.175l-1.236-4.726-2.037-4.487-3.233-3.737-3.711-3.248-4.073-2.911-4.4-2.381-4.452-2.266-4.631-1.871-4.542-2.092-4.657-1.819-4.9-1.106-4.134-1.448L155.76,422.1l-3.832-2.082-4.043-1.705-3.684-2.368-3.323-2.853-3.891-3.133-3.393-3.667-3.395-3.657-2.873-4.078-2.8-4.015-2.465-4.244-1.428-4.706-1.666-4.555L123.446,380l4.51-.848,1.5,5.276,2.825,4.694,2.869,4.61,2.876,4.038,3.4,3.607,3.545,3.479,3.946,3.024,4.2,2.651,4.391,2.329,4.45,2.246,4.694,1.684,4.629,1.172,4.438,1.733,4.485,1.608,4.211,2.254,4.5,1.629,4.142,2.364,4.11,2.414,3.951,2.68,3.477,2.906,2.817,3.553,2.856,3.477,2.4,3.842,1.532,4.28.688,4.681-4.62.588Z" transform="translate(-47.396 -150.901)"/><path class="b" d="M205.675,456.175l-1.236-4.726-2.037-4.487-3.233-3.737-3.711-3.248-4.073-2.911-4.4-2.381-4.452-2.266-4.631-1.871-4.542-2.092-4.657-1.819-4.9-1.106-4.134-1.448L155.76,422.1l-3.832-2.082-4.043-1.705-3.684-2.368-3.323-2.853-3.891-3.133-3.393-3.667-3.395-3.657-2.873-4.078-2.8-4.015-2.465-4.244-1.428-4.706-1.666-4.555L123.446,380l4.51-.848,1.5,5.276,2.825,4.694,2.869,4.61,2.876,4.038,3.4,3.607,3.545,3.479,3.946,3.024,4.2,2.651,4.391,2.329,4.45,2.246,4.694,1.684,4.629,1.172,4.438,1.733,4.485,1.608,4.211,2.254,4.5,1.629,4.142,2.364,4.11,2.414,3.951,2.68,3.477,2.906,2.817,3.553,2.856,3.477,2.4,3.842,1.532,4.28.688,4.681-4.62.588Z" transform="translate(-47.396 -150.901)"/><path class="c" d="M223.012,198.425l.709,4.545,1.055,4.475.311,4.606.768,4.524.922,4.509.564,4.561.3,4.587.643,4.559-.254,4.612.576,4.586-.428,4.587-.26,4.6-1.239,4.442-2.1,4.077-3.245,3.36-3.614,2.953-3.393,3.219-3.664,2.9-3.956,2.492-4.069,2.3-4.034,2.338-3.858,2.657-4.083,2.269-4.268,1.909-4.09,2.262-4.184,2.076-4.364,1.682-4.237,1.961-4.37,1.647L161,299.44l.971,4.28,1.725,4.117,1.16,4.249,4.379-.951,4.593-.4,4.473-1.043,4.52-.822,4.4-1.344,4.415-1.25,4.485-1,4.385-1.355,4.416-1.268,4.276-1.684,4.376-1.41,4.256-1.731,4.09-2.106,4.147-1.961,4.188-1.916,3.729-2.707,3.749-2.632,3.774-2.621,3.412-3.09,2.85-3.613,2.4-3.9,2.126-4.282.914-4.694.667-4.715.656-4.744-.4-4.778.25-4.792-.813-4.727-.158-4.792-.949-4.69-.757-4.718-.76-4.721-1.281-4.61-1.1-4.645" transform="translate(-64.14 -78.902)"/><path class="b" d="M223.012,198.425l.709,4.545,1.055,4.475.311,4.606.768,4.524.922,4.509.564,4.561.3,4.587.643,4.559-.254,4.612.576,4.586-.428,4.587-.26,4.6-1.239,4.442-2.1,4.077-3.245,3.36-3.614,2.953-3.393,3.219-3.664,2.9-3.956,2.492-4.069,2.3-4.034,2.338-3.858,2.657-4.083,2.269-4.268,1.909-4.09,2.262-4.184,2.076-4.364,1.682-4.237,1.961-4.37,1.647L161,299.44l.971,4.28,1.725,4.117,1.16,4.249,4.379-.951,4.593-.4,4.473-1.043,4.52-.822,4.4-1.344,4.415-1.25,4.485-1,4.385-1.355,4.416-1.268,4.276-1.684,4.376-1.41,4.256-1.731,4.09-2.106,4.147-1.961,4.188-1.916,3.729-2.707,3.749-2.632,3.774-2.621,3.412-3.09,2.85-3.613,2.4-3.9,2.126-4.282.914-4.694.667-4.715.656-4.744-.4-4.778.25-4.792-.813-4.727-.158-4.792-.949-4.69-.757-4.718-.76-4.721-1.281-4.61-1.1-4.645" transform="translate(-64.14 -78.902)"/><path class="c" d="M235.752,237.712l-4.227,2.354-4.069,2.518-3.985,2.651L219.3,247.61l-3.93,2.739-3.8,2.917-3.77,2.953-3.86,2.828-3.915,2.768L196.444,265l-3.5,3.272-3.627,3.121-3.578,3.186-3.221,3.547-3.315,3.459-3.165,3.608-2.409,4.17-2.787,3.9-2.281,4.229-1.453,4.577-.754,4.708-.4,4.76.752,4.637.467,4.681,1.105,4.569,1.292,4.514.818,4.643L171.986,339l1.5,4.448L174.711,348l1.683,4.389,1.772,4.352,1.989,4.26,1.584,4.432,2.3,4.114,1.786,4.347,2.115,4.194,2.326,4.08,1.8,4.1-3.491,2.889-3.981,2.292-3.895,2.426-3.912,2.4-3.606,2.672,4.6.326,4.708-.576,4.708.012,4.708,0,4.708.526,4.709-.379,4.708.022,4.709.082,4.708-.232,4.7.236-1.74-4.327-1.406-4.458-.977-4.588-1.438-4.444-1.47-4.438-1.373-4.469-1.2-4.518-1.114-4.54-.763-4.619-1.413-4.477-.857-4.6-.531-4.653-.873-4.6-.346-4.665-.481-4.655-.01-4.679.111-4.686.877-4.608,1.5-4.436,3.008-3.524,3.786-2.969,3.572-3.288,4.155-2.477,3.946-2.791,4.143-2.482,4.256-2.286,4.145-2.477,4.466-1.881,4.037-2.7,4.543-1.707,4.3-2.192,4.213-1.952,2.35,3.926,2.711,3.915,2.573,4,2.676,3.93,2.389,4.125,2.936,3.75,2.92,3.757,2.782,3.854,2.76,3.877,2.889,3.778,3.27,3.467,2.964,3.723,3.358,3.371,3.274,3.442,3.166,3.559,3.694,3.008,3.641,3.042,3.768,2.881,3.885,2.717,4.145,2.3,4.186,2.262,4.575,1.311,4.69.93,4.848-.132,4.785-.707,4.735-.934,4.686-1.174,4.475-1.828,4.475-1.8,4.438-1.926,4.211-2.375,3.924-2.836,4.29-2.268,3.723-3.1,3.909-2.832,3.837-2.94,3.514-3.318,3.676-3.139,3.251-3.7,4.508.053,4.444-.436,4.467-.033,4.454-.282,4.692-.307-3.951-3.031-3.915-2.707-3.752-2.928-4.015-2.569-3.93-2.684-3.661-3.055-4.016-2.477L393.1,301.5l-4,2.258-4.051,2.18-4.258,1.758-4.1,2.076-4.315,1.6-4.213,1.83-4.319,1.57-4.432,1.217-4.452,1.106-4.479,1-4.582.182-4.542-.208-4.4-1.027-4.237-1.9-3.53-3.047-3.258-3.309-3.242-3.374-2.539-3.928-1.969-4.237-2.151-4.139-1.461-4.43-1.092-4.525-1.084-4.534L311.773,275l.143-4.67-.168-4.651.451-4.631.356-4.643.705-4.612.842-4.6,1.067-4.583.918-4.634.2-4.721.318-4.7.457-4.715-.147-4.727-.306-4.715-.54-4.694-.679-4.671-.194-4.744-.949-4.635-1.188-4.577-1.092-4.6-1.327-4.537-1.648-4.43-1.643-4.436-2.277-4.152-2.235-4.153-2.412-4.055L297.505,157l-2.715-3.877-3.268-3.428-3.77-2.864-3.973-2.739-4.073-2.573-4.024-2.716-4.465-1.879-4.528-1.715L262,134.033l-4.741-.932-4.8-.531-4.794-.783-4.842.453-4.821.188-4.823.277-4.807.492-4.823.428-4.817-.465-4.136-1.846-3.061-3.45-1.881-4.2-1.852-4.188-2.236-3.991-2.272-3.983-3.616-2.878-4.487-1.58-4.706-.336-4.647.34-4.567,1.244-3.541,3.141-3.022,3.663-.926,4.657-.517,4.67.855,4.637,1.2,4.576,0,4.348-1.383,4.19-.424,4.277,4.969-1.269,2.827,3.873,3.1,3.6,4.1,2.4,4.669-.008,4.407-1.78,3.756-2.529,4.341-1.4,4.489.906,4.233,1.809,3.36,3.165L221.2,158.3l2.52,3.876,2.053,4.131,1.881,4.208,1.758,4.26,1.93,4.2,1.168,4.475,1.309,4.415,1.672,4.315.926,4.524,1.038,4.495.516,4.587.392,4.587.42,4.583.366,4.608-.7,4.575-.387,4.587-.9,4.524Z" transform="translate(-66.116 -42.365)"/><path class="b" d="M235.752,237.712l-4.227,2.354-4.069,2.518-3.985,2.651L219.3,247.61l-3.93,2.739-3.8,2.917-3.77,2.953-3.86,2.828-3.915,2.768L196.444,265l-3.5,3.272-3.627,3.121-3.578,3.186-3.221,3.547-3.315,3.459-3.165,3.608-2.409,4.17-2.787,3.9-2.281,4.229-1.453,4.577-.754,4.708-.4,4.76.752,4.637.467,4.681,1.105,4.569,1.292,4.514.818,4.643L171.986,339l1.5,4.448L174.711,348l1.683,4.389,1.772,4.352,1.989,4.26,1.584,4.432,2.3,4.114,1.786,4.347,2.115,4.194,2.326,4.08,1.8,4.1-3.491,2.889-3.981,2.292-3.895,2.426-3.912,2.4-3.606,2.672,4.6.326,4.708-.576,4.708.011,4.708,0,4.708.526,4.709-.379,4.708.022,4.709.082,4.708-.232,4.7.236-1.74-4.327-1.406-4.458-.977-4.588-1.438-4.444-1.47-4.438-1.373-4.469-1.2-4.518-1.114-4.54-.763-4.619-1.413-4.477-.857-4.6-.531-4.653-.873-4.6-.346-4.665-.481-4.655-.01-4.679.111-4.686.877-4.608,1.5-4.436,3.008-3.524,3.786-2.969,3.572-3.288,4.155-2.477,3.946-2.791,4.143-2.482,4.256-2.286,4.145-2.477,4.466-1.881,4.037-2.7,4.543-1.707,4.3-2.192,4.213-1.952,2.35,3.926,2.711,3.915,2.573,4,2.676,3.93,2.389,4.125,2.936,3.75,2.92,3.757,2.782,3.854,2.76,3.877,2.889,3.778,3.27,3.467,2.964,3.723,3.358,3.371,3.274,3.442,3.166,3.559,3.694,3.008,3.641,3.042,3.768,2.881,3.885,2.717,4.145,2.3,4.186,2.262,4.575,1.311,4.69.93,4.848-.132,4.785-.707,4.735-.934,4.686-1.174,4.475-1.828,4.475-1.8,4.438-1.926,4.211-2.375,3.924-2.836,4.29-2.268,3.723-3.1,3.909-2.832,3.837-2.94,3.514-3.318,3.676-3.139,3.251-3.7,4.508.053,4.444-.436,4.467-.033,4.454-.282,4.692-.307-3.951-3.031-3.915-2.707-3.752-2.928-4.015-2.569-3.93-2.684-3.661-3.055-4.016-2.477L393.1,301.5l-4,2.258-4.051,2.18-4.258,1.758-4.1,2.076-4.315,1.6-4.213,1.83-4.319,1.57-4.432,1.217-4.452,1.106-4.479,1-4.582.181-4.542-.207-4.4-1.028-4.237-1.9-3.53-3.047-3.258-3.309-3.242-3.374-2.539-3.928-1.969-4.237-2.151-4.139-1.461-4.43-1.092-4.525-1.084-4.534L311.773,275l.143-4.67-.168-4.651.451-4.631.356-4.643.705-4.612.842-4.6,1.067-4.583.918-4.634.2-4.721.318-4.7.457-4.715-.147-4.727-.306-4.715-.54-4.694-.679-4.671-.194-4.744-.949-4.635-1.188-4.577-1.092-4.6-1.327-4.537-1.648-4.43-1.643-4.436-2.277-4.152-2.235-4.153-2.412-4.055L297.505,157l-2.715-3.877-3.268-3.428-3.77-2.864-3.973-2.739-4.073-2.573-4.024-2.716-4.465-1.879-4.528-1.715L262,134.033l-4.741-.932-4.8-.531-4.794-.783-4.842.453-4.821.188-4.823.277-4.807.492-4.823.428-4.817-.465-4.136-1.846-3.061-3.45-1.881-4.2-1.852-4.188-2.236-3.991-2.272-3.983-3.616-2.878-4.487-1.58-4.706-.336-4.647.34-4.567,1.244-3.541,3.141-3.022,3.663-.926,4.657-.517,4.67.855,4.637,1.2,4.576,0,4.348-1.383,4.19-.424,4.277,4.969-1.269,2.827,3.873,3.1,3.6,4.1,2.4,4.669-.008,4.407-1.78,3.756-2.529,4.341-1.4,4.489.906,4.233,1.809,3.36,3.165L221.2,158.3l2.52,3.876,2.053,4.131,1.881,4.208,1.758,4.26,1.93,4.2,1.168,4.475,1.309,4.415,1.672,4.315.926,4.524,1.038,4.495.516,4.587.392,4.587.42,4.583.366,4.608-.7,4.575-.387,4.587-.9,4.524Z" transform="translate(-66.116 -42.365)"/><path class="b" d="M268.59,338.757c28.386-1.02,56.284,10.847,84.581,8.321" transform="translate(-107.002 -134.783)"/><path class="d" d="M332.867,212.973l-4.612.914-4.379,1.7-4.515,1.25-4.606.93-4.4,1.633-4.54,1.161-4.481,1.359-4.409,1.6-4.479,1.371-4.567,1.067-4.521,1.228-4.5,1.3-4.4,1.632-4.553,1.113-4.479,1.369-4.463,1.422-4.518,1.228-4.462,1.43-4.569,1.065-4.52,1.227-4.479,1.365-4.387,1.682-4.532,1.189-4.561,1.086-4.358,1.778-4.493,1.319-4.6.947L207,249.707l-4.37,1.736L198,252.3l-4.4,1.633-4.493,1.317-4.581,1.028-4.483,1.351-4.481,1.361-4.491,1.328L166.686,262l-4.487,1.342-4.537,1.168-4.554,1.117L148.7,267.24l-4.612.918-4.477,1.375-4.391,1.665-4.469,1.4-4.631.855-4.487,1.34-4.333,1.867-4.592.981-4.485,1.348-4.557,1.109-4.413,1.592-4.444,1.485-4.475,1.385-4.512,1.258-4.6.975-4.438,1.514-4.452,1.465-4.549,1.139-4.413,1.5-3.9,2.846-3.422,3.459-3.709,3.112-3.934,2.843-3.733,3.09-3.737,3.083-3.471,3.129,4.557.242,4.712.537,4.719.434,4.71.572,4.753.053,4.69.8,4.733.109,4.561-1.059,4.495-1.322,4.365-1.758,4.51-1.272,4.6-.955,4.413-1.606,4.436-1.524,4.481-1.371,4.545-1.154,4.463-1.432,4.524-1.228,4.5-1.321,4.549-1.143,4.391-1.672,4.493-1.33,4.518-1.25,4.581-1.037,4.382-1.709,4.51-1.27,4.6-.988,4.41-1.608,4.567-1.082,4.358-1.784,4.555-1.127,4.448-1.483,4.567-1.086,4.524-1.222,4.4-1.627,4.532-1.2,4.526-1.219,4.516-1.252,4.344-1.834,4.612-.928,4.412-1.6,4.481-1.373,4.518-1.248,4.438-1.52,4.514-1.256,4.595-1L250,263.306l4.49-1.336,4.569-1.078,4.463-1.43,4.45-1.481,4.487-1.357,4.474-1.4,4.52-1.25,4.421-1.572,4.477-1.385,4.51-1.281,4.6-.971,4.5-1.3,4.415-1.6,4.5-1.3,4.432-1.541,4.633-.868,4.358-1.789,4.551-1.141,4.5-1.3,4.537-1.186,3.608-2.239,1.721-3.8-.039-4.1-1.248-4.2-1.207-4.216-1.9-3.8-3.817-2Z" transform="translate(-14.926 -84.468)"/><path class="b" d="M333.79,217.691l-4.612.916-4.38,1.7-4.514,1.25-4.608.932-4.4,1.633-4.539,1.161-4.481,1.36-4.409,1.6-4.477,1.372-4.569,1.066-4.52,1.227-4.5,1.3-4.4,1.629-4.555,1.115-4.477,1.369-4.463,1.422-4.52,1.229L252.9,241.4l-4.569,1.065-4.52,1.227-4.481,1.365-4.386,1.682-4.531,1.188-4.563,1.088L221.5,250.8,217,252.115l-4.6.945-4.479,1.366-4.372,1.736-4.625.862-4.4,1.633-4.495,1.314L185.451,261l-4.483,1.352-4.481,1.361L172,265.043l-4.389,1.672-4.487,1.342-4.538,1.168-4.553,1.117-4.405,1.616-4.612.92-4.477,1.375-4.391,1.664-4.469,1.4-4.632.856-4.489,1.34-4.33,1.867-4.595.981-4.485,1.348-4.555,1.109-4.412,1.59L95.73,287.9l-4.475,1.385-4.512,1.258-4.6.975-4.436,1.512-4.452,1.465-4.549,1.139-4.415,1.506-3.9,2.846-3.42,3.457-3.709,3.114L49.328,309.4,45.6,312.484l-3.737,3.085L38.387,318.7l4.557.242,4.712.537,4.721.434,4.708.57,4.753.055,4.69.8,4.735.109,4.559-1.058,4.495-1.323,4.366-1.758,4.512-1.271,4.6-.957,4.41-1.6,4.436-1.524,4.481-1.371,4.548-1.155,4.462-1.432,4.524-1.229,4.5-1.321,4.549-1.142,4.391-1.673,4.495-1.332,4.516-1.25,4.583-1.035,4.379-1.709,4.512-1.269,4.595-.991,4.413-1.605,4.567-1.084,4.358-1.784,4.553-1.127,4.45-1.481,4.565-1.088,4.526-1.222,4.4-1.626,4.531-1.2,4.526-1.217,4.518-1.254,4.342-1.832,4.614-.93,4.413-1.6,4.481-1.373,4.518-1.247,4.436-1.52,4.516-1.256,4.594-1,4.422-1.567,4.493-1.336,4.567-1.081,4.466-1.428L268.9,262.7l4.487-1.358,4.475-1.395,4.518-1.25,4.422-1.573,4.477-1.387,4.509-1.28,4.6-.973,4.5-1.3,4.415-1.6,4.5-1.3,4.432-1.541,4.634-.868,4.358-1.789,4.551-1.141,4.5-1.3,4.54-1.186,3.608-2.238,1.719-3.8-.037-4.1-1.25-4.2-1.207-4.216-1.9-3.795-3.817-2Z" transform="translate(-15.293 -86.348)"/><path class="c" d="M285.2,147.573l4.575-.725,4.6-.406,4.631-.035,4.59-.569,4.614-.236,4.616-.205,4.6-.481,4.624-.016,4.622.043,4.618.194,4.614.08,4.617.084,4.61.265,4.594.461,4.555.752,4.593.522,4.508,1,4.506,1.047,4.426,1.365,4.081,2.225,4.377,1.545,3.915,2.475,3.752,2.686,3.827,2.606,3.2,3.352,3.278,3.251,2.911,3.729,3.243,3.444,3.243,3.456,2.529,4.026,3.268,3.453,2.356,4.134,2.733,3.85,3.059,3.633,2.488,4.024,2.508,4.006,2.483,4.032,2.1,4.221,1.432,4.3-1.441,4.217-3.247,3.182-4.01,2.221-4.182,1.475-4.393.6-4.4-.57-4.293-1.162-4.007-2.012-3.291-2.653,3.809-1.45,3.959-1.336,4.024-1.03-2.522-3.68-2.4-3.838-2.441-3.821-2.891-3.5-2.926-3.458-2.874-3.493-2.734-3.616-3.051-3.346-3.143-3.262-3.217-3.2-3.594-2.768-3.565-2.793L372.3,177.7l-4.042-2.01-4.584-1.586-4.794-.75-4.778-.785-4.815-.54-4.839-.264-4.842-.152-4.844-.029-4.844-.131-4.839.389-4.852-.144-4.83.408-4.836.291-4.825.422-4.823.426" transform="translate(-113.619 -57.579)"/><path class="b" d="M285.2,147.573l4.575-.725,4.6-.406,4.631-.035,4.59-.569,4.614-.236,4.616-.205,4.6-.481,4.624-.016,4.622.043,4.618.194,4.614.08,4.617.084,4.61.265,4.594.461,4.555.752,4.593.522,4.508,1,4.506,1.047,4.426,1.365,4.081,2.225,4.377,1.545,3.915,2.475,3.752,2.686,3.827,2.606,3.2,3.352,3.278,3.251,2.911,3.729,3.243,3.444,3.243,3.456,2.529,4.026,3.268,3.453,2.356,4.134,2.733,3.85,3.059,3.633,2.488,4.024,2.508,4.006,2.483,4.032,2.1,4.221,1.432,4.3-1.441,4.217-3.247,3.182-4.01,2.221-4.182,1.475-4.393.6-4.4-.57-4.293-1.162-4.007-2.012-3.291-2.653,3.809-1.45,3.959-1.336,4.024-1.03-2.522-3.68-2.4-3.838-2.441-3.821-2.891-3.5-2.926-3.458-2.874-3.493-2.734-3.616-3.051-3.346-3.143-3.262-3.217-3.2-3.594-2.768-3.565-2.793L372.3,177.7l-4.042-2.01-4.584-1.586-4.794-.75-4.778-.785-4.815-.54-4.839-.264-4.842-.152-4.844-.029-4.844-.131-4.839.389-4.852-.144-4.83.408-4.836.291-4.825.422-4.823.426" transform="translate(-113.619 -57.579)"/><path class="c" d="M132.423,377a13.737,13.737,0,0,0-6.641,1.69c-.406.224-.862.623-.705,1.059.129.361.586.455.976.492l13.66,1.319" transform="translate(-49.816 -150.042)"/><path class="b" d="M132.423,377a13.737,13.737,0,0,0-6.641,1.69c-.406.224-.862.623-.705,1.059.129.361.586.455.976.492l13.66,1.319" transform="translate(-49.816 -150.042)"/><path class="c" d="M158.344,371.314l-4.873.774-4.858.791-4.907-.529-4.559-1.8-4.395-2.129-3.5-3.423-2.915-3.918-2.065-4.3,1-4.7,4.211-2.248,4.7-.4,4.623.869L145,352.514l3.152,3.518,3.975,2.533,4.623.375" transform="translate(-50.305 -139.061)"/><path class="b" d="M158.344,371.314l-4.873.774-4.858.791-4.907-.529-4.559-1.8-4.395-2.129-3.5-3.423-2.915-3.918-2.065-4.3,1-4.7,4.211-2.248,4.7-.4,4.623.869L145,352.514l3.152,3.518,3.975,2.533,4.623.375" transform="translate(-50.305 -139.061)"/><path class="c" d="M309.461,344.839l-4.813,0-4.642-1.275-4.595-1.311-4.577-1.486-4.315-2.143-3.815-2.958-3.874-2.811-4.09-2.7-3.279-3.624L268.122,323l-2.956-3.866-3.164-3.7-2.912-3.91-2.659-4.088-2.381-4.255-1.957-4.473-2.3-4.292-2.182-4.192-2-4.284-2.481-4.026-2.184-4.2-2.988-3.686-2.77-3.813-2.669-3.909-3.106-3.565-3.29-3.4-3.694-2.955-3.7-2.918-3.805-2.787-4.061-2.409-4.184-2.209-4.531-1.371-4.425-1.7-4.694-.649-4.664-.827-4.737-.179-4.7.638-4.688.467-4.721.457-4.528,1.4-4.452,1.572-4.266,1.653-4.225,1.776-3.923,2.367-3.829,2.521-3.533,2.924-3.4,3.1-2.7,3.731-2.659,3.727-2.432,3.883-2.346,3.965-1.525,4.7-1.571,4.649-1.422,4.733-.2,4.944-5.376,1.313-5.176,2.014.594-4.651.741-4.438,1.344-4.3,1.41-4.258,1.233-4.331,1.881-4.084L121.4,267.6l2.485-4.057,2.27-4.229,3.311-3.468,3.044-3.682,3.6-3.365,3.936-2.965,4-2.881,4.352-2.325,4.614-1.736,4.515-1.953,4.178-1.3,4.293-.846,4.253-.986,4.3-.815,4.352-.449,4.37-.232,4.371.19,4.815.187,4.77.729L201.9,234.6l4.463,1.827,4.434,1.82,4.432,1.863,4.145,2.442,4.122,2.5,3.52,3.313,3.944,2.787,3.319,3.495,3.254,3.542,2.979,3.772,2.952,3.79,3.03,3.747,2.569,4.072,2.488,4.118,2.311,4.219,1.883,4.438,2.153,4.293,2.147,4.448,2.723,4.135,2.555,4.206,2.518,4.233,2.936,3.953,3.184,3.753,2.9,4.02,3.633,3.352,3.711,3.26,4.01,2.649,4.01,2.654,4.432,1.87,4.616,1.262,4.618,1.322,4.794-.256,5-.478,4.653-1.9,4.258-2.637,3.548-3.55,3.094-4,1.8-4.733,1.385-4.559L335.687,309l-.24-4.8-.069-4.794-1.049-4.688-1.571-4.536-2.332-4.188-2.122-4.311-3.166-3.76-3.273-3.649-3.75-3.157-3.827-3.047L310.4,265.02l5.319-1.744,5.409-1.453,4.17,2.979,3.973,3.395,3.069,4.237,3.205,4.1,2.735,3.86,1.76,4.395,2.2,4.2.965,4.637,1.152,4.571.557,4.694-.123,4.723-.641,4.67-.8,4.649-1.391,4.514-1.557,3.95-2.43,3.485-2.139,3.652L333,335.687l-3.149,2.85-4.456,2.332-4.507,2.145-4.868,1.1-4.936.688Z" transform="translate(-44.601 -92.402)"/><path class="b" d="M309.461,344.839l-4.813,0-4.642-1.275-4.595-1.311-4.577-1.486-4.315-2.143-3.815-2.958-3.874-2.811-4.09-2.7-3.279-3.624L268.122,323l-2.956-3.866-3.164-3.7-2.912-3.91-2.659-4.088-2.381-4.255-1.957-4.473-2.3-4.292-2.182-4.192-2-4.284-2.481-4.026-2.184-4.2-2.988-3.686-2.77-3.813-2.669-3.909-3.106-3.565-3.29-3.4-3.694-2.955-3.7-2.918-3.805-2.787-4.061-2.409-4.184-2.209-4.531-1.371-4.425-1.7-4.694-.649-4.664-.827-4.737-.179-4.7.638-4.688.467-4.721.457-4.528,1.4-4.452,1.572-4.266,1.653-4.225,1.776-3.923,2.367-3.829,2.521-3.533,2.924-3.4,3.1-2.7,3.731-2.659,3.727-2.432,3.883-2.346,3.965-1.525,4.7-1.571,4.649-1.422,4.733-.2,4.944-5.376,1.313-5.176,2.014.594-4.651.741-4.438,1.344-4.3,1.41-4.258,1.233-4.331,1.881-4.084L121.4,267.6l2.485-4.057,2.27-4.229,3.311-3.468,3.044-3.682,3.6-3.365,3.936-2.965,4-2.881,4.352-2.325,4.614-1.736,4.515-1.953,4.178-1.3,4.293-.846,4.253-.986,4.3-.815,4.352-.449,4.37-.232,4.371.19,4.815.187,4.77.729L201.9,234.6l4.463,1.827,4.434,1.82,4.432,1.863,4.145,2.442,4.122,2.5,3.52,3.313,3.944,2.787,3.319,3.495,3.254,3.542,2.979,3.772,2.952,3.79,3.03,3.747,2.569,4.072,2.488,4.118,2.311,4.219,1.883,4.438,2.153,4.293,2.147,4.448,2.723,4.135,2.555,4.206,2.518,4.233,2.936,3.953,3.184,3.753,2.9,4.02,3.633,3.352,3.711,3.26,4.01,2.649,4.01,2.654,4.432,1.87,4.616,1.262,4.618,1.322,4.794-.256,5-.478,4.653-1.9,4.258-2.637,3.548-3.55,3.094-4,1.8-4.733,1.385-4.559L335.687,309l-.24-4.8-.069-4.794-1.049-4.688-1.571-4.536-2.332-4.188-2.122-4.311-3.166-3.76-3.273-3.649-3.75-3.157-3.827-3.047L310.4,265.02l5.319-1.744,5.409-1.453,4.17,2.979,3.973,3.395,3.069,4.237,3.205,4.1,2.735,3.86,1.76,4.395,2.2,4.2.965,4.637,1.152,4.571.557,4.694-.123,4.723-.641,4.67-.8,4.649-1.391,4.514-1.557,3.95-2.43,3.485-2.139,3.652L333,335.687l-3.149,2.85-4.456,2.332-4.507,2.145-4.868,1.1-4.936.688Z" transform="translate(-44.601 -92.402)"/><path class="c" d="M472.42,132.543l-4.747,1.236-4.761.291-4.752-.06-4.768-.274-4.682-.961-4.547-1.467-4.427-1.172-4.072-2.125-3.557-2.895-3.406-3.036-3.479-2.967-3.53-3.1-3.387-3.27-3.924-2.6-3.983-2.467-4.061-2.393-4.549-1.247-4.43-1.633-4.705-.363-4.651-.8-4.663.209-4.645.265-4.634.563-4.448,1.413-4.38,1.567-4,2.358L357.1,109.8l-3.32,3.272-3.071,3.18-2.942,3.365-1.936,4.028-1.844,4.157,4.729.213,4.735-.042,1.975-3.895,3.077-3.36,3.422-2.953,3.778-2.465,3.963-2.223,4.389-1.17,4.438-.9,4.512-.482,4.538.131,4.473.291,4.349,1.08L400.6,113.4l4.089,1.74,4.04,1.95,3.522,2.773,3.229,3.1,3.6,2.7,3.329,3.092,3.186,3.268,3.668,2.7,4.09,2.012,3.9,2.379,4.41,1.161,4.823,1.235,4.833,1.266,4.959.606,4.991.191,4.774-.229,4.655-1.059,4.43-.981-1.356-4.319Z" transform="translate(-137.04 -40.185)"/><path class="b" d="M472.42,132.543l-4.747,1.236-4.761.291-4.752-.06-4.768-.274-4.682-.961-4.547-1.467-4.427-1.172-4.072-2.125-3.557-2.895-3.406-3.036-3.479-2.967-3.53-3.1-3.387-3.27-3.924-2.6-3.983-2.467-4.061-2.393-4.549-1.247-4.43-1.633-4.705-.363-4.651-.8-4.663.209-4.645.265-4.634.563-4.448,1.413-4.38,1.567-4,2.358L357.1,109.8l-3.32,3.272-3.071,3.18-2.942,3.365-1.936,4.028-1.844,4.157,4.729.213,4.735-.042,1.975-3.895,3.077-3.36,3.422-2.953,3.778-2.465,3.963-2.223,4.389-1.17,4.438-.9,4.512-.482,4.538.131,4.473.291,4.349,1.08L400.6,113.4l4.089,1.74,4.04,1.95,3.522,2.773,3.229,3.1,3.6,2.7,3.329,3.092,3.186,3.268,3.668,2.7,4.09,2.012,3.9,2.379,4.41,1.161,4.823,1.235,4.832,1.266,4.96.606,4.991.191,4.774-.229,4.655-1.059,4.43-.981-1.356-4.319Z" transform="translate(-137.04 -40.185)"/><path class="c" d="M180.524,494.517l-1.184,4.142-3.066,3.233-4.214,2.086-4.543,1.154-4.608.789-4.663.316-4.67-.131-4.67-.254-4.61-.8-4.6-.869-4.479-1.371-4.378-1.648-4.391-1.613-4.217-2.034L118.1,495.31l-4.338-2.2-4.458-1.94-4.575-1.649-4.633-1.479-4.782-.889-4.768-.975-4.853-.336-4.86-.127-4.854.256-4.86.564-.92-4.526-.631-4.534-2.553,3.36-2.952,3.08-2.682,3.3-2.567,3.4-2.688,3.188,3.539,2.2,3.75,2.02,3.487,2.458,3.829,1.889L74.3,504.71l-.94-4.542-.662-4.595,5.5-.655,5.518-.031,4.454.488,4.465.4,4.413.838,4.286,1.343,4.16,1.668,4.085,1.827,4.108,1.809,4.067,2.107,4.069,2.119,4.282,1.645,4.317,1.526,4.315,1.545,4.454,1.086,4.471,1.022,4.551.539,4.548.639,4.057-.166,5.071-.1,5.016-.732,5.016-.828,4.768-1.774,4.555-2.278,3.551-3.116,2.793-3.764,1.914-4.285.36-4.694" transform="translate(-22.361 -190.072)"/><path class="b" d="M180.524,494.517l-1.184,4.142-3.066,3.233-4.214,2.086-4.543,1.154-4.608.789-4.663.316-4.67-.131-4.67-.254-4.61-.8-4.6-.869-4.479-1.371-4.378-1.648-4.391-1.613-4.217-2.034L118.1,495.31l-4.338-2.2-4.458-1.94-4.575-1.649-4.633-1.479-4.782-.889-4.768-.975-4.853-.336-4.86-.127-4.854.256-4.86.564-.92-4.526-.631-4.534-2.553,3.36-2.952,3.08-2.682,3.3-2.567,3.4-2.688,3.188,3.539,2.2,3.75,2.02,3.487,2.458,3.829,1.889L74.3,504.71l-.94-4.542-.662-4.595,5.5-.655,5.518-.031,4.454.488,4.465.4,4.413.838,4.286,1.343,4.16,1.668,4.085,1.827,4.108,1.809,4.067,2.107,4.069,2.119,4.282,1.645,4.317,1.526,4.315,1.545,4.454,1.086,4.471,1.022,4.551.539,4.548.639,4.057-.166,5.071-.1,5.016-.732,5.016-.828,4.768-1.774,4.555-2.278,3.551-3.116,2.793-3.764,1.914-4.285.36-4.694" transform="translate(-22.361 -190.072)"/><path class="e" d="M178.2,121.927a13.412,13.412,0,0,1-8.341-10.613c5.936-1.383,10.849-5.469,16.752-7,15.166-3.921,23.335,4.688,24.195,14.65.39,4.415,1.367,5.644,4.219,9.726-2.641,1.357-7.552,3.287-10.874,3.364a15.763,15.763,0,0,0-.117-4.466,5.863,5.863,0,0,0-2.307-3.711,3.638,3.638,0,0,0-4.188.028,4.026,4.026,0,0,0-1.223,3.612,11.928,11.928,0,0,0,1.339,3.729l-2.539,1.339a8.68,8.68,0,0,0-3.8-6.529,17.136,17.136,0,0,0-5.138-1.988Z" transform="translate(-67.668 -41.027)"/><path class="b" d="M247.659,171.307a53.627,53.627,0,0,0,4.024-19.835" transform="translate(-98.663 -60.197)"/><path class="b" d="M261.746,179.488a52.168,52.168,0,0,0,7.591-28.244" transform="translate(-104.275 -60.106)"/><path class="b" d="M249.451,179.818a37.469,37.469,0,0,1,10.939,4.831" transform="translate(-99.377 -71.489)"/><path class="b" d="M251.552,174.221l11.454,2.757" transform="translate(-100.214 -69.26)"/><path class="b" d="M252.688,168.136l11.715,1.938" transform="translate(-100.666 -66.836)"/><path class="b" d="M253.555,162.356l11.851.344" transform="translate(-101.012 -64.533)"/><path class="b" d="M254.865,156.313l11.458-.547" transform="translate(-101.534 -61.908)"/><path class="b" d="M491.121,259.188a59.957,59.957,0,0,1,19.464-7.423" transform="translate(-195.654 -100.152)"/><path class="b" d="M180.015,376.6a30.112,30.112,0,0,0,7.022-15.09" transform="translate(-71.715 -143.872)"/><path class="b" d="M209.2,571.288l24.2,1.073" transform="translate(-83.342 -227.444)"/><path class="b" d="M530.85,436.94a33.268,33.268,0,0,1,16.8,14.4" transform="translate(-211.481 -173.922)"/><path class="b" d="M411.771,150.138a9.665,9.665,0,0,0,.908,11.386,18.833,18.833,0,0,0,5.974,3.926L427,169.525c2.426,1.184,4.936,2.391,7.634,2.539a10.331,10.331,0,0,0,9.488-5.452" transform="translate(-163.469 -59.665)"/><path class="b" d="M129.929,353.327a23.245,23.245,0,0,0,9.753,13.748" transform="translate(-51.761 -140.612)"/><path class="b" d="M136.155,350.207a27.258,27.258,0,0,0,11.9,14.873" transform="translate(-54.242 -139.369)"/><path class="b" d="M145.538,349.859A24.538,24.538,0,0,0,155.879,361.6" transform="translate(-57.98 -139.231)"/><path class="f" d="M313.635,537.267l4.661.094,4.686-.141,4.682.244,4.684-.041,4.684-.109,4.684-.225,4.684.3,4.684-.129,4.684.172,4.686-.113,4.684-.211,4.684.066,4.684.109,4.684-.063,4.684.208,4.684-.049h4.684l4.684.042,4.686-.1,4.684.016,4.687-.119,4.686.168,4.829-.006-2.033-4.528-1.734-4.489-1.52-4.575-1.592-4.543-2.02-4.382-1.715-4.5-1.51-4.579-1.8-4.468L406,496.755l-1.823-4.457-1.647-4.526-1.881-4.444-3.885,2.58-4.128,2.172-3.87,2.592-3.913,2.522-3.985,2.4-4.049,2.3-3.78,2.741-3.953,2.455-4.015,2.358-3.932,2.491-4.018,2.346-3.962,2.445-3.946,2.467-3.953,2.455-4.048,2.305-3.951,2.459-3.827,2.661-4,2.387L325.537,530l-4.1,2.221-3.8,2.712Z" transform="translate(-124.947 -192.402)"/><path class="g" d="M305.465,531.34l4.661.094,4.684-.14,4.684.242,4.684-.041,4.684-.108,4.682-.224,4.684.295,4.686-.129,4.684.172,4.684-.114,4.684-.21,4.684.066,4.684.109,4.686-.063,4.682.207,4.684-.051,4.686,0,4.684.041,4.684-.1,4.687.016,4.684-.119,4.686.168,4.83-.008-2.033-4.526-1.736-4.489-1.518-4.575-1.594-4.546-2.02-4.381-1.715-4.5-1.51-4.578-1.8-4.469-1.574-4.551-1.825-4.458-1.647-4.526-1.879-4.445-3.885,2.582-4.129,2.17-3.868,2.594-3.912,2.522-3.985,2.4-4.051,2.3-3.778,2.739-3.954,2.455-4.014,2.36-3.932,2.489-4.02,2.348L345,506.806l-3.948,2.467-3.953,2.455-4.048,2.3-3.95,2.459-3.829,2.66-4,2.387-3.9,2.535-4.1,2.221-3.8,2.711Z" transform="translate(-121.692 -190.041)"/></g></svg>