<svg xmlns="http://www.w3.org/2000/svg" width="39.51" height="39.51" viewBox="0 0 39.51 39.51"><defs><style>.a,.b{fill:#ee7600;}.a{opacity:0.4;}</style></defs><g transform="translate(0 -32)"><path class="a" d="M37.427,34.089A7.94,7.94,0,0,0,31.625,32c-3.418,0-7.6,1.422-11.869,3.981A43.555,43.555,0,0,0,14.637,39.6a47.106,47.106,0,0,0-7.073,7.032,33.006,33.006,0,0,0,3.149,5.122,44.558,44.558,0,0,1,9.043-9.026A33.269,33.269,0,0,1,24.874,39.6c6.174-3.028,8.4-1.682,8.56-1.52.842.842.677,4.14-1.487,8.552a43.415,43.415,0,0,1,3.6,5.123C39.888,44.516,40.886,37.547,37.427,34.089ZM19.756,60.781a33.288,33.288,0,0,1-5.119,3.129c-6.174,3.028-8.4,1.682-8.56,1.52-.842-.842-.677-4.14,1.487-8.552a43.415,43.415,0,0,1-3.6-5.123C-.377,58.994-1.375,65.963,2.084,69.42a7.939,7.939,0,0,0,5.8,2.09c3.418,0,7.6-1.422,11.869-3.981a43.555,43.555,0,0,0,5.119-3.619,47.12,47.12,0,0,0,7.073-7.032A32.98,32.98,0,0,0,28.8,51.755a44.557,44.557,0,0,1-9.043,9.026Z" transform="translate(-0.001)"/><path class="b" d="M19.755,54.576a2.822,2.822,0,1,0-2.822-2.822,2.822,2.822,0,0,0,2.822,2.822Zm-9.043-2.821a33,33,0,0,1-3.149-5.122c-2.164-4.412-2.329-7.71-1.487-8.552.162-.162,2.386-1.508,8.56,1.52a43.587,43.587,0,0,1,5.119-3.619C15.483,33.423,11.3,32,7.886,32a7.939,7.939,0,0,0-5.8,2.089C-1.375,37.547-.377,44.516,3.963,51.755a43.392,43.392,0,0,0,3.6,5.123,47.1,47.1,0,0,0,7.073,7.032,33.286,33.286,0,0,0,5.119-3.129,44.548,44.548,0,0,1-9.043-9.026Zm24.835,0a43.392,43.392,0,0,0-3.6-5.123A47.1,47.1,0,0,0,24.874,39.6a33.284,33.284,0,0,0-5.119,3.128A44.555,44.555,0,0,1,28.8,51.755a32.97,32.97,0,0,1,3.149,5.123c2.164,4.411,2.329,7.71,1.487,8.552-.162.162-2.386,1.508-8.56-1.52a43.587,43.587,0,0,1-5.119,3.619c4.272,2.559,8.452,3.981,11.869,3.981a7.938,7.938,0,0,0,5.8-2.09C40.885,65.963,39.887,58.994,35.547,51.755Z" transform="translate(0)"/></g></svg>