<svg xmlns="http://www.w3.org/2000/svg" width="25.553" height="25.553" viewBox="0 0 25.553 25.553"><defs><style>.a{fill:#ee7600;}</style></defs><path class="a" d="M25.085,13.215a1.6,1.6,0,0,1,0,2.251l-4.825,4.825a1.589,1.589,0,0,1-2.246,0l-2.3-2.3a10.558,10.558,0,0,1-1,7.152.768.768,0,0,1-.692.4.838.838,0,0,1-.594-.245L7.393,19.289,5.506,21.175a1.388,1.388,0,0,1,.081.389,1.6,1.6,0,1,1-1.6-1.6,1.416,1.416,0,0,1,.388.08L6.27,18.156.247,12.132A.814.814,0,0,1,.4,10.845,10.551,10.551,0,0,1,7.518,9.8L5.256,7.54a1.6,1.6,0,0,1,0-2.251L10.083.464A1.575,1.575,0,0,1,11.206,0a1.6,1.6,0,0,1,1.128.464L15.868,4,19.4.469a1.591,1.591,0,0,1,2.257,0l3.428,3.423a1.6,1.6,0,0,1,0,2.261L21.551,9.687ZM11.744,13.8a8.982,8.982,0,0,0-9.582-2.021l11.61,11.609A9.045,9.045,0,0,0,11.744,13.8ZM6.39,6.418,9.918,9.952,14.739,5.13,11.206,1.6Zm4.566,4.751a10.449,10.449,0,0,1,1.921,1.507,10.554,10.554,0,0,1,1.493,1.936l9.587-9.587L20.528,1.6Zm13.005,3.169-3.534-3.529-4.821,4.822,3.539,3.533Z" transform="translate(0 0)"/></svg>