<svg xmlns="http://www.w3.org/2000/svg" width="33.33" height="26.663" viewBox="0 0 33.33 26.663"><defs><style>.a{fill:#ee7600;}</style></defs><path class="a" d="M18.331,10H17.5V8.332a.417.417,0,0,0-.417-.417h-.833a.417.417,0,0,0-.417.417v2.916a.417.417,0,0,0,.417.417h2.083a.417.417,0,0,0,.417-.417v-.833A.417.417,0,0,0,18.331,10Zm.833,6.666h-5a2.5,2.5,0,0,0-2.5,2.5v7.082a.417.417,0,0,0,.417.417h.833a.417.417,0,0,0,.417-.417V19.164a.833.833,0,0,1,.833-.833h5a.833.833,0,0,1,.833.833v7.082a.417.417,0,0,0,.417.417h.833a.417.417,0,0,0,.417-.417V19.164A2.5,2.5,0,0,0,19.165,16.665ZM31.663,10h-5V7.221a1.666,1.666,0,0,0-.742-1.386L17.589.28a1.668,1.668,0,0,0-1.849,0L7.408,5.835a1.668,1.668,0,0,0-.742,1.387V10h-5A1.667,1.667,0,0,0,0,11.665V26.247a.417.417,0,0,0,.417.417H1.25a.417.417,0,0,0,.417-.417V11.665h5V26.247a.417.417,0,0,0,.417.417h.833a.417.417,0,0,0,.417-.417V7.222l8.332-5.555L25,7.222V26.247a.417.417,0,0,0,.417.417h.833a.416.416,0,0,0,.417-.417V11.665h5V26.247a.417.417,0,0,0,.417.417h.833a.417.417,0,0,0,.417-.417V11.665A1.667,1.667,0,0,0,31.663,10Zm-15-5a5,5,0,1,0,5,5A5,5,0,0,0,16.665,5Zm0,8.332A3.333,3.333,0,1,1,20,10,3.337,3.337,0,0,1,16.665,13.332Z"/></svg>