<svg xmlns="http://www.w3.org/2000/svg" width="246.97" height="103.64" viewBox="0 0 246.97 103.64"><defs><style>.a{fill:#090a51;}.b{fill:#304da7;}.c{fill:#96b4f3;}.d{fill:#df7135;}.e{fill:#19368f;}.f{fill:#c1d0f5;}.g{fill:#c1d1f5;}.h{fill:#c0d1f5;}.i{fill:#cfdbf6;}.j{fill:#cfdaf5;}.k{fill:#cedcf7;}.l{fill:#dd9b7a;}.m{fill:#c2d0f3;}.n{fill:#c0d1f4;}.o{fill:#c1d0f4;}.p{fill:#d0dcf5;}.q{fill:#cfdbf5;}.r{fill:#95b4f3;}.s{fill:#7a9bd6;}.t{fill:#333c82;}.u{fill:#343c81;}.v{fill:#283a9a;}.w{fill:#414e97;}.x{fill:#eca792;}.y{fill:#324e9d;}.z{fill:#53568c;}.aa{fill:#2e4d9c;}.ab{fill:#af92a6;}.ac{fill:#bb939c;}.ad{fill:#dee6fb;}.ae{fill:#eda893;}.af{fill:#f1f5f9;}.ag{fill:#ccdbfb;}.ah{fill:#f7f9fa;}.ai{fill:#0c0c53;}.aj{fill:#f9f7f8;}.ak{fill:#eb877d;}.al{fill:#e8897d;}.am{fill:#4c5b9e;}</style></defs><g transform="translate(-994.648 -244.756)"><path class="a" d="M1010.4,302.6a29.463,29.463,0,0,0,8.9.5c7.9-1.8,12.1-7.5,14.7-14.4a38.88,38.88,0,0,0-1.4-32.5,25.106,25.106,0,0,0-8.7-9.6,7.6,7.6,0,0,0-4.1-1.5c-3.2-.1-6.4-.5-9.5.6-5,1.8-8.5,5.4-11.1,10a39.517,39.517,0,0,0-.9,35A24.172,24.172,0,0,0,1010.4,302.6Z"/><path class="a" d="M1052.2,298.2a19.2,19.2,0,0,0,9.8,5c7.3,1.1,12.9-2,17-7.8,5.3-7.5,6.9-15.9,6.3-25a34.047,34.047,0,0,0-6.5-18.2,13.737,13.737,0,0,0-2.6-2.8c-2.5-1.9-4.9-3.8-8.1-4.5-2.6.1-5.2-.2-7.8.2-3.4.7-6,2.9-8.5,5-2,.7-2.7,2.6-3.8,4.1a18.785,18.785,0,0,0-2.2,4.5,37.933,37.933,0,0,0-2.6,21.3,31.548,31.548,0,0,0,1.3,5.3C1045.9,290.4,1047.9,295.1,1052.2,298.2Z"/><path class="b" d="M1060.3,245.3c2.8.1,5.6-.2,8.3.1a19.2,19.2,0,0,1,7.2,4.4,27.784,27.784,0,0,1,5.9,8.8,34,34,0,0,1,2.8,9.9,41.751,41.751,0,0,1,.3,7.1,33.958,33.958,0,0,1-6.3,19.7c-2.8,3.8-6.3,6.8-11.1,7.8-1.8.3-3.6,0-5.3.3,1.8.7,3.7.4,5.5.2,2-.2,4-.2,6-.2a14.449,14.449,0,0,0,4.6-.5,17.975,17.975,0,0,0,4.9-2.2c.2-.1.3-.3.5-.4a8.752,8.752,0,0,0,4.2-3.4,34.291,34.291,0,0,0,7.1-18.4,36.427,36.427,0,0,0-4.6-23.1c-1.8-3.2-3.8-6.4-7.7-7.7-.7-.6-1.7-.6-2.2-1.4a23.616,23.616,0,0,0-9.5-1.4c-2.8.1-5.5-.1-8.2,0C1061.9,244.8,1061,244.5,1060.3,245.3Z"/><path class="b" d="M1045.1,285.8c.2-1.4-.9-2.6-1-4-.2-2.2-.7-4.5-.7-6.8a39.174,39.174,0,0,1,2.9-15.5c.1-.3.1-.6.2-.9-.9-.2-1.1.5-1.4,1.1-.2.3-.2,1-.7,1-.4-.1-.5-.7-.6-1.1a33.727,33.727,0,0,0-7-10.6c-1.1-1-2.6-1-3.6-2a14.955,14.955,0,0,0-7.7-2.2c-3.9,0-7.8-.1-11.7,0a4.742,4.742,0,0,0-3.3.9,37.843,37.843,0,0,1,7.5-.5,11.767,11.767,0,0,1,6.9,2.6,23.088,23.088,0,0,1,7.2,8.3,36.214,36.214,0,0,1,3.8,11.5,42.931,42.931,0,0,1-.3,14.3,32.254,32.254,0,0,1-5.2,12.7,19.572,19.572,0,0,1-10.3,8c-.3.1-.6.2-.7.5,3.3,0,6.6.3,9.9-.4,2.2-.5,3.8-1.8,5.7-2.8,4-1.8,5.7-5.5,7.8-9.1C1043.6,289.3,1043.9,287.4,1045.1,285.8Z"/><path class="c" d="M1033.1,247.1a.969.969,0,0,0,.7.8c1.9.6,3.1,2,4.3,3.5a27.494,27.494,0,0,1,5.7,10.3.559.559,0,0,0,1.1.1,6.031,6.031,0,0,0,.6-1.9,1.3,1.3,0,0,1,.9-1.1,33.511,33.511,0,0,1,5.4-8.4,36.3,36.3,0,0,1-6.5-.9c-3.4-.7-6.8-1.2-10.1-1.8A8.3,8.3,0,0,0,1033.1,247.1Z"/><path class="d" d="M1142.9,264a2.116,2.116,0,0,0,1.9.4c2.6-1.7,5.2-3.4,7.9-4.9,2.1-1.1,2.7-1,4.1.9a60.741,60.741,0,0,0,7.1,8.8,87.2,87.2,0,0,1,5.3,7.1c.9,1.4,2.1,2.1,3.7,1.6a.749.749,0,0,1,.5-.1c1.3-.1,2.9-.5,3.4,1.3.5,1.5-.6,2.6-1.8,3.5a.519.519,0,0,1-.4.2c-5.4,1.4-6.4,6.5-8.1,10.6a16.661,16.661,0,0,0-.2,12.6,1.794,1.794,0,0,0,.5.7c1,.6,2,.3,3,.5,4.8.5,9.6,1.1,13.8,3.7,5.8,3.4,8.3,8.8,8.7,15.3.5,7.5-1.5,14.5-3.2,21.7,0,.1-.1.2-.1.4h25.1a4.551,4.551,0,0,1,3-.8c1.3.1,2.5.1,3.8.1a4.623,4.623,0,0,0,4.6-3.9c.7-2.7-.1-5.2-.8-7.6a29.045,29.045,0,0,0-1.6-4.1,12.634,12.634,0,0,1-.9-6.1c.1-1.7,1.2-2.8,2.2-4a37.275,37.275,0,0,1,3.5-3.4,6.211,6.211,0,0,0,1-7.7,13.955,13.955,0,0,0-4-4.4c-1.7-1-3.2-2.4-4.9-3.4a12.564,12.564,0,0,1-5.2-13.5c.6-2.7,1.7-5.3,1.6-8.2a10.147,10.147,0,0,0-4.3-8.3c-3.8-3-8.2-3.6-13-3-2.8.3-5.6.6-8.4.7-4.6.2-7.3-2.3-9.4-5.9a10.206,10.206,0,0,1-1.1-2.9,22.141,22.141,0,0,0-4.4-8.8c-1.3-1.7-3.3-2.8-5-4a26.077,26.077,0,0,0-13.8-2,18.517,18.517,0,0,0-12,6,33.623,33.623,0,0,0-5.2,7.7C1140.3,262.5,1141.9,263,1142.9,264Z"/><path class="e" d="M1146.9,329.7a12,12,0,0,0,1.3,3.1c1.2,2.3,2.5,2.8,4.6,1.4,3.3-2.1,6.7-4,9.5-6.8a2.837,2.837,0,0,0,.4-1.3,2.055,2.055,0,0,1,.6-2.2c2.4-2.4,4.9-4.8,7.2-7.2.2-.2.5-.5.7-.3s-.1.6-.3.7c-2.4,2-4.4,4.4-6.8,6.4-.9.7-1.5,1.5-.6,2.6,4.5,5.9,9.3,11.5,13.9,17.3a2.875,2.875,0,0,0,3.7-.1c1.2-.9,2.6-1.4,3.8-2.3.2-.1.5-.3.5-.2.1.2-.2.3-.4.4a24.778,24.778,0,0,0-4.9,3c-1.1.7-2.1.2-3.1-.3a1.729,1.729,0,0,0-1-.1,7.013,7.013,0,0,0-2.8,1.2c-2,1.2-4,2.3-6.1,3.3H1192l.3-1.5c1.8-7.4,3.7-14.7,3-22.4-.6-6.3-3.3-11.3-8.7-14.8-3.2-2-6.7-2.5-10.2-3.3a35.387,35.387,0,0,0-7.3-.5h-.3c-1.1.4-2.2.7-3.3,1a14.8,14.8,0,0,1-11.5-.1,19.815,19.815,0,0,0-11,3.4,3.329,3.329,0,0,0-.1,2.2C1144,318.2,1145.3,324,1146.9,329.7Z"/><path class="c" d="M1082.6,247.5c6.4,4.8,9.9,11.3,11.2,19.2a42.7,42.7,0,0,1,.8,8.7c-.5,7.7-2.4,15-7.5,21.2-1.2,1.2-2.4,2.4-3.7,3.5,2.7-.3,5.3-.7,8-1.1,3.6-.5,7.1-1.1,10.6-1.5,1.8-.2,3.5-.9,5.3-.5,3.2-.1,6.3-.4,9.2-2.1a5.529,5.529,0,0,1,2.5-.7c.7-.2,1.7-.1,1.8-1.2-.7-.5-.9-1-.3-1.8,5.4-7.6,6.4-15.9,4.3-24.8a26.607,26.607,0,0,0-5.9-10.8c-2.8-1.2-5.3-2.9-8.5-3.3-3.9-.6-7.7-1.3-11.6-2-3.2-.6-6.3-1.3-9.5-1.6A66.553,66.553,0,0,0,1082.6,247.5Z"/><path class="b" d="M1119.1,255.5c-.7.5-.3.9.1,1.2a18.6,18.6,0,0,1,5,9.1,28.286,28.286,0,0,1,.8,12.6,35.727,35.727,0,0,1-3,9.6,14.548,14.548,0,0,1-2.5,3.6c-.3.3-.9.5-.7,1s.7.3,1.1.3a2.769,2.769,0,0,1,.9.1,1.346,1.346,0,0,0,1.2.5c2.5-.5,5.1-.5,7.5-1.4a1.565,1.565,0,0,0,.6-1.8c-1.3-3.8-.4-7.5.3-11.2a18.149,18.149,0,0,0-.2-7.7,13.9,13.9,0,0,0-.6-1.9c-.1-.4-.4-1-.1-1.3.5-.3.6.4.9.7,1,1.1,1.3.3,1.5-.6s-.3-2.5,1.6-1.1c.8.6.9-1,2-.9,2.3.2,3.3,1.5,3.7,3.6a14.658,14.658,0,0,1,.6,10.1c-.9,2.9-.5,6-.7,9,.9,2,2.1,1.5,3.4.5,2-2.4,4.6-4.4,5.5-7.7,1.4-5.3,1.6-10.5-.6-15.7a7.394,7.394,0,0,0-2.1-2.8c-.6-1.2-1.8-1.8-2.6-2.8-.2-.1-.2-.4-.5-.4-4.1-1.4-8.4-1.9-12.7-2.6C1126.1,256.7,1122.6,256.1,1119.1,255.5Z"/><g transform="translate(1167.256 303.596)"><path class="f" d="M31.8,44.7c-.4-.3-.9-.6-1.3-.9-1.3-.9-4.8-.2-6.6.9Z"/><path class="f" d="M59.6,44.8h0a4.192,4.192,0,0,0-4.2-2c-1.1.1-2.2.1-3.3.1-1.5.9-3.2,1.2-4.8,1.9Z"/><path class="f" d="M36.5,44.7h7c0-.1,0-.1-.1-.2-.9-2.6.1-5.1.1-7.7a9.61,9.61,0,0,0-.3-3.4c-.1-.1-.1-.3-.2-.4a4.614,4.614,0,0,0-3.7-3.4,6.2,6.2,0,0,0-5,.3c-2.1,1.5-3.6,3.4-3.4,6.3A7.067,7.067,0,0,0,33,40.3C34.1,41.8,35.3,43.3,36.5,44.7Z"/><path class="f" d="M44.5,20.5c-2,2-2.1,3.3-.9,5.6a28.438,28.438,0,0,0,4.5,6.4c.7,1.8,2.6,2,4,2.7,1.7,1,3.3,2.2,5.4,2.5,2.6.4,3.7-.1,4.9-2.4.7-1.4,1.1-2.5.1-4a4.854,4.854,0,0,0-6.1-1.9,3.371,3.371,0,0,1-1.7.5c-3,1.4-3,1.4-3.3-1.9a3.019,3.019,0,0,1,.2-2.1h0c.6-3.8-1.3-6.5-4.6-6.5A4.721,4.721,0,0,0,44.5,20.5Z"/><path class="g" d="M60.6,18.7a.821.821,0,0,1-.5.5c-.5.3-1.2.3-1.1-.3.2-1.5-.4-3,.2-4.5V12.2a3.7,3.7,0,0,0-2.7-4,5.512,5.512,0,0,0-4.6.9,4.945,4.945,0,0,0-.7,5.2,25.089,25.089,0,0,0,2.6,4.5,4.455,4.455,0,0,0,1.8,1.8c.6,2,2.9,1.8,4.2,2.8a14.8,14.8,0,0,0,2.1,1.3c1.8.7,3.4,1.6,5.5,1.4a3.647,3.647,0,0,0,3-2.2,4.55,4.55,0,0,0-1.7-6c-1.1-.7-2.5-.2-3.7-.3A35.373,35.373,0,0,0,60.6,18.7Z"/><path class="h" d="M65.9,10.7a34.437,34.437,0,0,0,6.5-2.8c1.9-1.1,2.1-3.4,1.9-5C74.1,1.8,72.1.3,70.7.1a7.887,7.887,0,0,0-3,.5c-2.3,2.7-3,6-3.6,9.4C63.7,11.6,65.1,10.9,65.9,10.7Z"/><path class="i" d="M36.2,44.7h.9a71.561,71.561,0,0,1-4.8-6.1c-2.1-2.7-1-4.8.6-7.1.4-.6,1.1-.9,1.4-1.7a5.641,5.641,0,0,0-3.6,5c-.2,2.4.9,4.2,2.3,6A41.58,41.58,0,0,0,36.2,44.7Z"/><path class="i" d="M43,44.8h1.3a.758.758,0,0,1,.2-.4c1.4-3,3.4-5.7,4.6-8.8a.913.913,0,0,1,1.2-.5h0a3.722,3.722,0,0,0,1.8.2c-1.1-1.3-2.9-1.5-4-2.7a4.831,4.831,0,0,1-.8,3.1c-1,1.7-1.9,3.4-2.8,5.2-.2.3-.3.7-.7.5-.3-.2-.7-.5-.5-.9.7-1.3.1-2.8.6-4.1a3.522,3.522,0,0,0-.7-2.8c0,3,.2,6-.8,8.9a1.682,1.682,0,0,0,.3,1.9C42.8,44.4,42.9,44.6,43,44.8Z"/><path class="j" d="M65.9,10.7c-1.5-.1-1.6-.1-1.3-1.5a18.305,18.305,0,0,1,2.5-7.1A2.452,2.452,0,0,0,67.7.5a4.175,4.175,0,0,0-2.2,3.1c-.3,1.8-1.1,3.4-1.4,5.2-.2,1.5-1.4,2.8-2.4,4.1a8.129,8.129,0,0,1-1.8,1.9c-.6.6-.6-.2-.7-.6-.6,1-1.6,2-.6,3.4a1.1,1.1,0,0,1,0,.8c-.1,1.3-.1,1.3,1.4.7-.4-.1-1.1-.1-.7-.7C61.4,15.7,63,12.6,65.9,10.7Z"/><path class="k" d="M61.9,24.5c-.7-1.6-2.5-1.8-3.8-2.4-.9-.5-1.6-1.1-2.5-1.6v.6c-1.1,1.8-2.1,3.6-3.3,5.3-.4.6-.6-.2-.7-.6a1.983,1.983,0,0,0-.9,1.9,9.474,9.474,0,0,0,.7,2.9A1.065,1.065,0,0,0,53,31l.1-.1a8.277,8.277,0,0,0,1.5-1.1,2.485,2.485,0,0,0-2,.7c-.3.1-.6.1-.7-.2-.2-.2-.3-.4-.1-.6,2.3-1.9,2.9-5,5-7.1.5-.4.6-.5,1.1-.1A16.594,16.594,0,0,0,61.9,24.5Z"/><path class="k" d="M44.5,20.5a1.656,1.656,0,0,0,1.2-.5,2.432,2.432,0,0,1,2.7-.2c2,1.1,3.8,2.4,3.3,5.1v.9a4.254,4.254,0,0,0-.3-4.6,5.161,5.161,0,0,0-5.4-2A2.433,2.433,0,0,0,44.5,20.5Z"/><path class="i" d="M48.4,44.8a17.88,17.88,0,0,1,3.2-1.3c.2-.1.3-.5.5-.7-1.7.1-3.1,1.4-4.9,1.4-.3,0-.6.3-.9.6Z"/><path class="j" d="M60.6,18.7c1.5-.2,3.2-.1,4.5-1.3A5.9,5.9,0,0,0,60.6,18.7Z"/></g><path class="l" d="M1119.1,293.8c-.5-.2-1-.7-1.4-.3-2.8,2.4-6.3,2.5-9.6,3.1a1,1,0,0,0-.5.4c.1,1.4-.6,2.7-.8,4.1-.5,3.7-1.2,7.3-1.4,11.1a1.016,1.016,0,0,1-.5,1c-.9,1.3-.7,2.8-.9,4.2-.3,3.4-.9,6.7-.6,10.1a5.135,5.135,0,0,0,.6,2.5v.9c.7,2.3-.3,4.7.3,7,.4,1.5.7,3,2,4.1a10.5,10.5,0,0,0,3.1,3.2c2.2.2,4.2,1.4,6.5,1.1a59.082,59.082,0,0,0,11.8-1.8,5.024,5.024,0,0,0,1.3-.5,9.613,9.613,0,0,1,2.8-1.1,2.651,2.651,0,0,0,.6-.5,2.438,2.438,0,0,0,.6-2.3c-1.3-5.9-1.1-11.9-1.7-17.8-.1-1.4-.1-3-1-4.2a1.377,1.377,0,0,0-1.8.9c0,.1-.1.3-.1.4,1.1,1.5,1.1,3.3,1.3,5,.2,1.8.2,3.6.5,5.3a2.769,2.769,0,0,1,.1.9c-.5.1-.5-.5-.7-.7-1.3-1.9-2.3-4-3.7-5.8-.4-.5-.6-1.4-1.7-1-.2.2.1-.1-.2.1-1,.6-1.9,1.8-3.1,1.2-1.1-.6-.9-2-1-3-.8-8.5-.5-17-.2-25.5C1119.5,295,1119.7,294.3,1119.1,293.8Z"/><path class="f" d="M1124.6,348.2c1.2-1.4,2.4-2.8,3.5-4.3-1.9-.2-3.5.7-5.3,1-2.2.3-4.5.5-6.7.8a3.166,3.166,0,0,0-.6,2.5C1118.5,348.1,1121.6,348.2,1124.6,348.2Z"/><path class="m" d="M1103.9,329.9a104.947,104.947,0,0,1,.5-11.2c.1-1.9.4-3.8.4-5.7-.7.4-1.6.6-2.3,1-1.4.8-2.9,1.8-2.6,3.9a10.8,10.8,0,0,1,0,1.8,1.958,1.958,0,0,1-.2,2.4c-.7.7-.4,1.1.2,1.6h0c.5,1,.5,1.6-.9,1.2a13.361,13.361,0,0,1-1.8-.7c-1.5-.3-2.8-1.5-4.5-1.4a4.276,4.276,0,0,0-4,4.6h0c.1,2.5,1.4,3.7,4.1,3.9a7.8,7.8,0,0,0,4.4-1.3c1.2-.7,2.6-1,3.6-2,.8-.8,1.7-.4,2.2.7C1103.2,329.3,1103.4,329.7,1103.9,329.9Z"/><path class="c" d="M1045.1,285.8c-1-.6-1.1.3-1.3.9a28.015,28.015,0,0,1-2.8,6.1,25.22,25.22,0,0,1-6.2,7.2c2.5,0,4.9-.7,7.4-1s4.9-.7,7.4-1.1c.9-.2,1.7.3,2.6.4a37.018,37.018,0,0,1-4.7-6.5A44.147,44.147,0,0,1,1045.1,285.8Z"/><path class="n" d="M1095,315.2c.5-2.9-1.3-5.2-2.4-7.6-.5-1.2-3.3-2-4.5-1.7a4.053,4.053,0,0,0-3,3.8c-.3,2.9,1.8,3.9,3.8,5,.2.1.6.2.7.5a34.227,34.227,0,0,1,3.4,1.3C1094.2,316.9,1095.4,317.2,1095,315.2Z"/><path class="o" d="M1103.5,334.8h-3.1c-2.8,0-3.8,1.1-4,4a7.71,7.71,0,0,0,3.1,3.1,2.7,2.7,0,0,0,3.7-.6c.1-.1.1-.2.2-.3C1104.5,339,1105,337,1103.5,334.8Z"/><path class="m" d="M1103.5,334.8a2.954,2.954,0,0,0,.2,1.3c1,1.9-.5,3.3-1,4.9-.3,1.1-2.2,1.2-3,.3a41.9,41.9,0,0,0-3.3-2.6c1,4.4,3.4,5.2,7.2,3.6.9-.3,1.7-.9,2.6-.5a24.614,24.614,0,0,1-1.8-10c0-.5.1-.9-.4-1.2C1103.7,332.1,1104.5,333.6,1103.5,334.8Z"/><path class="p" d="M1109.6,345.4c2.2-.1,3.1,1.3,4.1,2.7h2.3v-2.6c-2.2.2-4.4-.6-6.7-.5C1109.4,345.2,1109.5,345.4,1109.6,345.4Z"/><path class="q" d="M1095,315.2c-.7,1.5-.8,1.6-1.9,1a5.887,5.887,0,0,0-3.4-1,16.517,16.517,0,0,0,4.1,1.8,1.945,1.945,0,0,1,1.4.9c1.2,2,3.2,3.4,4.1,5.6.1.1.4.1.6.1-.1-.3-.4-.8-.3-1,1-1.4,1-1.4.3-3v.9a1.269,1.269,0,0,1-.1.6l-.4-.4c-1.2-1.8-3-3.1-3.8-5.2A3.322,3.322,0,0,0,1095,315.2Z"/><path class="q" d="M1097.3,324.1a5.5,5.5,0,0,0,3.3,1.4c.2,0,.5.3.7-.1.1-.3.1-.7-.2-.7-.5-.2-.6-.9-1.1-1,0,.7-.4,1.1-1.1.8A3.168,3.168,0,0,0,1097.3,324.1Z"/><path class="r" d="M1000.6,281.8c.9,2.1,1.1,4.4,2.6,6.3,1.8,2,6.4,2.6,9.5,1.4,5.4-2.2,8.5-6.5,10.5-11.7a35.379,35.379,0,0,0,1.5-18.8c-.6-3.6-2.2-6.8-6.3-7.8-5.6-1.4-9.8,1-13.1,5.2-2.4,2.9-3.6,6.4-4.6,9.9A35.253,35.253,0,0,0,1000.6,281.8Z"/><path class="s" d="M1018.4,251.1c.2.6.6.7,1.1.9,1.9.7,3.5,1.7,3.3,4.1v.2c2.2,3.8,1.8,8,1.7,12,0,3.7-1.3,7-2.5,10.4a22.235,22.235,0,0,1-3.6,5.9,16.235,16.235,0,0,1-5.2,3.8c-2.8,1.6-5.7.6-8.5.6-.6,0-.9-1-1.6-1.1a14.481,14.481,0,0,0,7.7,8.4,10.838,10.838,0,0,0,10.2-.4,24.161,24.161,0,0,0,3.6-2.7,29.307,29.307,0,0,0,6.4-16,30.8,30.8,0,0,0-3.9-19C1025.2,254.9,1022.5,252,1018.4,251.1Z"/><path class="t" d="M1000.6,281.8c-.1-2.7-.6-5.4-.6-8.1,0-2.5.6-4.9.6-7.5a5.155,5.155,0,0,0-.9,3.4v8.6A5.565,5.565,0,0,0,1000.6,281.8Z"/><path class="u" d="M1024.6,293.4a15.421,15.421,0,0,0-3.6,2.7A5.019,5.019,0,0,0,1024.6,293.4Z"/><path class="c" d="M1067.9,251.5c-3.9-1.7-7.4-.7-10.7,1.6-3.2,2.3-5,5.6-6.7,9.2-.6,1-.5,2.1-.9,3.1a34.1,34.1,0,0,0,1,20.7,5.291,5.291,0,0,0,1.1,2.1c2.8,3,9.8,2.6,14.1-1.3,4.9-4.4,7.2-10,7.9-16.2a33.928,33.928,0,0,0-1.4-14.5A7.353,7.353,0,0,0,1067.9,251.5Z"/><path class="s" d="M1067.9,251.5c.1.6.5.8,1.1,1a2.97,2.97,0,0,1,2.1,2.1c1,3.2,2.1,6.3,2.1,9.8,0,1.2-.1,2.4,0,3.6a27.133,27.133,0,0,1-1.5,8.5,24.423,24.423,0,0,1-2.6,5.7,14.229,14.229,0,0,1-8.8,7.1,9.812,9.812,0,0,1-7.5-.8,1.232,1.232,0,0,0-1-.2,15.633,15.633,0,0,0,7,8c4.4,2.5,9.5,1.7,13.5-1.9a22.984,22.984,0,0,0,6.3-10.6,32.286,32.286,0,0,0-1.3-22.7,18.994,18.994,0,0,0-6.8-8.5A3.559,3.559,0,0,0,1067.9,251.5Z"/><path class="v" d="M1075.9,249.7a10.984,10.984,0,0,0-7.2-4.4c.1.2.1.6.2.6a12.744,12.744,0,0,1,6.1,3.6C1075.2,249.7,1075.6,249.6,1075.9,249.7Z"/><path class="w" d="M1049.6,265.3a4.908,4.908,0,0,0,.9-3.1C1049.4,263,1049.6,264.1,1049.6,265.3Z"/><path class="l" d="M1153.8,307.1c4,2.2,8,2,12.1.1a20.449,20.449,0,0,1,3.1-1.3v-.1a7.57,7.57,0,0,0-.1-1.5c-1.8-5.8-.4-11.1,2.5-16.2a27.053,27.053,0,0,0,2.1-3.7c.4-.9,1.3-1.1,2.2-1.3a4.571,4.571,0,0,0,4.1-3.8,2.077,2.077,0,0,0-1.5-2.7c-.1,0-.3-.1-.4-.1a5.71,5.71,0,0,0-2.9.1c-1.6.7-2.3,0-3-1.2-1.4-2.5-3.6-4.3-4.9-6.7a3.113,3.113,0,0,0-.9-.7c-.5-.1-.6.2-.7.5.3,1.8,1.5,3.3,1.5,5.3,0,4.5-1.3,6.6-5.4,8.4a9.862,9.862,0,0,1-2.4.3,112.449,112.449,0,0,1-11.4,1.8,3.9,3.9,0,0,0-3.3,2.6c.7,3.7,2.5,6.8,6.3,8.2a2.465,2.465,0,0,1,1.8,2.5v6.9C1152.9,305.6,1152.8,306.6,1153.8,307.1Z"/><path class="c" d="M1145,287.1a2.8,2.8,0,0,1,2.8-2.2,60.228,60.228,0,0,0,11.9-1.9c1.2-1,1.8-2.5,2.8-3.6,2.1-4.6,1.5-9.6-1.7-12.7a.864.864,0,0,0-.6-.3,1.268,1.268,0,0,1,.6.1,1,1,0,0,0,1.1-.5c-.1-.3-.3-.6-.6-.6-4.2-.6-8.3-2-12.5-2.4a3.233,3.233,0,0,0-1.7.3c-.6.3-1.1-.5-1.8-.2,1.1,2.3,2.6,4.4,2.9,7.1.6,4.7.6,9.4-1.7,13.7a17.5,17.5,0,0,1-2.8,3.3c-.5.6-1.1.9-1.4,1.7C1144,289.4,1144.4,288.2,1145,287.1Z"/><path class="x" d="M1147.2,263.4c4.9.6,9.7,2,14.6,2.7a6.115,6.115,0,0,0,4.1,2.3c.1-.2.2-.4.5-.4a78.07,78.07,0,0,1-7.1-9c-1.3-2-1.7-2-4-.9a26.312,26.312,0,0,0-6.5,4.1C1148.3,262.7,1147.2,262.3,1147.2,263.4Z"/><path class="l" d="M1126.8,318.8c1-.9.3-2,.1-2.9a10.454,10.454,0,0,1,1.5-9.5c.2-.2.3-.6.6-.6.5.1.2.6.2.9q.3,4.2.3,8.4c0,.9-.2,2,.6,2.7a23.509,23.509,0,0,1,.9,5.3,101.916,101.916,0,0,0,.9,11,20.088,20.088,0,0,1,.1,2.5,3.777,3.777,0,0,0,.4,2.1,2.754,2.754,0,0,1-.4,3.6,11.091,11.091,0,0,1,2.3,4.9v1c11.3,0,22.6.1,34,.1,1.8-.9,3.4-1.9,5.2-2.9a8.981,8.981,0,0,1,2.8-1.3c1.6-1,.5-2-.2-2.7-3.3-3.6-6.1-7.6-9.3-11.2-.7-.9-1.5-1.8-2.3-2.7-.6-.7-1.3-1.5-2.4-.6-1.1,1.6-3,2.2-4.5,3.4a40.687,40.687,0,0,1-5.5,3.7c-1.4.8-2,.7-2.9-.6a11.406,11.406,0,0,1-1.5-3.4,138.426,138.426,0,0,1-4.2-19.1.9.9,0,0,0-.1-.5c.6-2.8-.6-5.4-.9-8.1-.3-2.9-1-5.9-1.3-8.8a11.218,11.218,0,0,0-1.3-4.4,23.26,23.26,0,0,0,.4-3.7,19.866,19.866,0,0,1,1-7.3c1-3.1,0-5.9-1.4-8.6-.9-.5-.1-3.2-2.4-1.7-.2.2-.7-.8-1.1-1.2-.3-.3-.4-1.1-1.1-.9s-.3.9-.3,1.3c0,.3.1,1-.1,1-.5.2-.6-.5-.9-.7-.4-.4-.7-1-1.4-.7-.6.3-.3.9-.3,1.4,0,.3.2.7.2,1.1s.2.8-.3.9c-.2.1-.5-.3-.6-.6a2.507,2.507,0,0,1-.4-.7c-.3-.4-.5-1.1-1.1-.7-.6.3-.3.9-.1,1.3.2.5,0,1,.3,1.5a15.682,15.682,0,0,0,.5,3.7,22.236,22.236,0,0,1-.8,6.8c-.6,2.9-1.1,5.8.2,8.7a1.377,1.377,0,0,1-.2,1.8,29.167,29.167,0,0,0-.2,6.6,8.968,8.968,0,0,1-2.1,6.5,11.827,11.827,0,0,0-2,12.1A1.427,1.427,0,0,0,1126.8,318.8Z"/><path class="d" d="M1139.6,288.9c.7,4.5,1.4,9,2.1,13.4.4,2.5,1.2,4.9,1.1,7.4,0,.2.2.3.3.5,2.6-1,5.2-2,7.9-2.8a13.329,13.329,0,0,1,2.8-.3,3.845,3.845,0,0,1-.4-2.4v-7.3c0-2-.1-2.2-2.1-2.7-3-.7-4.1-3.3-5.5-5.6-.3-.6-.2-1.4-.9-2-1.1.3-1.4,1.8-2.7,1.8C1140.8,290.1,1140.8,290.1,1139.6,288.9Z"/><path class="y" d="M1163.7,325.9c-.4-.6-.6-1.1.2-1.7,2.8-1.9,4.6-4.8,7.4-6.7a3.04,3.04,0,0,0,.5-.7c.3-.5.7-1.1.1-1.5-.5-.3-1,.1-1.3.5l-8.3,8.3c-.7.7-.9,1.3.2,1.8A.749.749,0,0,0,1163.7,325.9Z"/><path class="z" d="M1163.7,325.9h-1.3c-.1.3-.3.6-.4.9a2.153,2.153,0,0,1,2.2,1.1c3.1,3.8,6.3,7.6,9.4,11.4.7.9,1.5,1.8,2.3,2.7.5.6,1,1.3.3,2.1a2.769,2.769,0,0,1,.9.1c.4-.2.7-.4.5-.9a6.244,6.244,0,0,0-1.7-2.8c-3.4-3.5-6.1-7.7-9.4-11.3C1165.4,328.1,1165.1,326.6,1163.7,325.9Z"/><path class="aa" d="M1177.5,343.3c-.2.3-.3.6-.5.9a1.636,1.636,0,0,0,2,1.2,3.332,3.332,0,0,0,.6-.3c2-1.1,3.8-2.7,6-3.6.3-.1.5-.5.8-.8a.494.494,0,0,0,.1-.7,2.073,2.073,0,0,0-.6-.2,3.694,3.694,0,0,0-1.4.7c-1.3,1.1-3,1.5-4.2,2.7C1179.5,344,1178.5,343.5,1177.5,343.3Z"/><path class="ab" d="M1169.1,305.9a4.01,4.01,0,0,0-3.1,1.3A4.77,4.77,0,0,0,1169.1,305.9Z"/><path class="ac" d="M1129.8,270.7a.9.9,0,0,1,.1-.5c.2-.7-.6-1.9-.2-2,1-.1.9,1.2,1.5,1.8.4.4.2,1.5,1.2,1.2s0-1.1.2-1.8-.5-1.4-.4-2.1c.1-.3.1-.6.4-.6a.864.864,0,0,1,.6.3l1.2,2.1c.1.2.3.6.6.4a.55.55,0,0,0,.3-.5,5.452,5.452,0,0,0-.1-2.2c-.1-.3-.5-.7.1-.9.5-.2.5.4.7.7a4.13,4.13,0,0,0,.7,1.1c.5.3.2,1.3.9,1.3.6-.1.4-.9.5-1.3s.3-.4.6-.1c.5.5.5,1.4,1.2,1.8.1-1.5-1-2.4-1.7-3.5-.2-.3-.7-.6-.9-.2-.4,1-.5.9-1.1.1-.7-.9-1.3-.7-1.7.6-.2.8-.5.5-.8.2a5.5,5.5,0,0,0-.7-.9c-.5-.5-1.1-.3-1.2.5v.7c0,.7-.1,1.5-.1,2.2-.8-.2-.7-1.1-1.3-1.6-.3-.3-.6-.7-1.1-.5-.3.2-.3.6-.3,1A4.21,4.21,0,0,0,1129.8,270.7Z"/><path class="ad" d="M1134.8,348.2c-.3-1.1-.7-2.3-1-3.4s-.7-2.2-2.2-2.4a11.421,11.421,0,0,0-2.6.9c-.3.2-.6.3-.9.5-1.2.3-1.7,1.4-2.4,2.2l-1.8,2.1C1127.5,348.2,1131.2,348.2,1134.8,348.2Z"/><path class="d" d="M1125.7,320.5c.4.6.7,1.1,1.1,1.6.9.3,1.2-.1,1.2-1,.1-1,1.3-.9,1.6-1.7,0-3.2-.1-6.4.1-9.5.1-2.1-1-4.2-.1-6.4a.63.63,0,0,0-.3-.8h-.1a.807.807,0,0,0-.9.4c-2.3,2.9-4,6.1-4,9.8a12.667,12.667,0,0,0,.9,4.7C1125.2,318.5,1125.9,319.4,1125.7,320.5Z"/><path class="e" d="M1128.5,319.2a1.077,1.077,0,0,1-1,.8c-.9,1.1-2.5,1.4-3,2.8,1.8,2.8,3.6,5.7,5.3,8.5.2.2.3.6.6.5s.3-.5.3-.7c-.2-2.7-.3-5.5-.7-8.1a28.259,28.259,0,0,1-.2-2.9C1129.8,319.2,1129.2,319.2,1128.5,319.2Z"/><path class="ae" d="M1128.9,343.2a3.114,3.114,0,0,0,2.6-.9A3.225,3.225,0,0,0,1128.9,343.2Z"/><path class="af" d="M1013,252.8a15.031,15.031,0,0,0-8.1,7.4,32.677,32.677,0,0,0-3.4,11.8,30.72,30.72,0,0,0-.5,5.3,3.936,3.936,0,0,0,.6,2.1,1.007,1.007,0,0,0,1.1.6,1.075,1.075,0,0,0,1-1,16.206,16.206,0,0,0,.1-2.2,34.708,34.708,0,0,1,2.2-12.3,16.35,16.35,0,0,1,6.8-8.7c1.1-.6,2.3-1,3.4-1.5.5-.2,1.5-.5.5-1.4C1015.4,251.6,1014.2,252.1,1013,252.8Z"/><path class="ag" d="M1013,252.8c1.2-.2,2.4-.9,3.6,0C1015.8,251.6,1014.4,251.6,1013,252.8Z"/><path class="ah" d="M1052.3,276.3c.3-5.6,1.2-11.2,4.2-16a12.589,12.589,0,0,1,7.2-5.6c1.5-.5,2.1-1,1.7-1.7q-.6-1.35-2.7-.6c-5.2,1.8-8.3,5.6-10.4,10.5-1.7,3.8-1.8,8-2.7,12a6.871,6.871,0,0,0,.3,4c.2.7.5,1.3,1.3,1.2.9-.1,1-.7,1-1.5Z"/><path class="ai" d="M1165.9,268.4a11.119,11.119,0,0,0-4.1-2.3c-.3,0-.6.1-.9.1-.3.1-.7,0-.9.2-.3.4.3.6.5.8a11.4,11.4,0,0,1,1.3,12.5,21.139,21.139,0,0,0-1.1,2.1c-.6,1.3.1,1.4,1.1,1a7.574,7.574,0,0,0,5.9-7.2A10.842,10.842,0,0,0,1165.9,268.4Z"/><path class="aj" d="M1156.5,287.6a14.887,14.887,0,0,1-4.2-.3c-.6-.2-1.4-.4-1.8.2s.6.9.7,1.4a1.22,1.22,0,0,0,.8.9c1.3.7,2.7.1,4,.2.3-.1.6-.2.4-.6.2-.1.3-.4.5-.4,1.2-.2.8-.7.4-1.4A.6.6,0,0,0,1156.5,287.6Z"/><path class="ak" d="M1156.5,289.3l-.3.3c-1.4-.5-2.9,1.1-4.1-.3a5.584,5.584,0,0,1-.8-.5c-.8.1-1.4.5-.6,1.3a4.539,4.539,0,0,0,6.3.4c.3-.2,1-.3.8-.9C1157.5,289.2,1156.9,289.4,1156.5,289.3Z"/><path class="al" d="M1156.5,287.6a2.769,2.769,0,0,1,.9.1c.6-.3.5-.7.1-1a3.722,3.722,0,0,0-2-.7c-1.4.1-2.6-.6-3.9-.5-.5,0-1,.2-1,.6,0,.5.5.7,1,.7,1.5-.2,2.9.4,4.4.5C1156.1,287.2,1156.4,287.3,1156.5,287.6Z"/><path class="am" d="M1161.8,282.7c-.5-.1-1.5.2-.8-1,.4-.7,1.1-1.3.9-2.1-1.2.7-1.3,2.3-2.4,3.1.1.1.1.3.2.4C1160.4,283,1161.2,283.4,1161.8,282.7Z"/><path class="ae" d="M1152.1,289.4c.5,1.1,1.4.9,2.2.8a13.321,13.321,0,0,0,1.9-.5.954.954,0,0,0-1.2-.3A4.785,4.785,0,0,1,1152.1,289.4Z"/></g></svg>