<svg xmlns="http://www.w3.org/2000/svg" width="32.88" height="25.573" viewBox="0 0 32.88 25.573"><defs><style>.a{fill:#ee7600;}</style></defs><path class="a" d="M26.865,41.668l-9.133-9.132a1.828,1.828,0,0,0-3.118,1.292v4.149C8.02,38.2,0,39.585,0,48.313a10.922,10.922,0,0,0,4.858,8.9,1.828,1.828,0,0,0,2.836-1.97c-1.581-5.6-.022-6.967,6.918-7.216v4.061a1.828,1.828,0,0,0,3.118,1.292l9.133-9.132a1.828,1.828,0,0,0,0-2.584ZM16.44,52.093V46.162c-8.315.076-12.842,1.292-10.5,9.584a9.211,9.211,0,0,1-4.11-7.433c0-7.5,7.183-8.468,14.613-8.545V33.826l9.133,9.133Zm15.9-7.842-9.133,9.132a1.829,1.829,0,0,1-2.58.006l10.421-10.43L20.632,32.53a1.828,1.828,0,0,1,2.58.006l9.133,9.132A1.827,1.827,0,0,1,32.345,44.251Z" transform="translate(0 -32)"/></svg>