<svg xmlns="http://www.w3.org/2000/svg" width="19.565" height="17.12" viewBox="0 0 19.565 17.12"><defs><style>.a{fill:#404040;}</style></defs><path class="a" d="M18.954,45.451H6.114V44.84a.613.613,0,0,0-.611-.611H4.28a.613.613,0,0,0-.611.611v.611H.611A.613.613,0,0,0,0,46.063v1.223a.613.613,0,0,0,.611.611H3.669v.611a.613.613,0,0,0,.611.611H5.5a.613.613,0,0,0,.611-.611V47.9h12.84a.613.613,0,0,0,.611-.611V46.063A.613.613,0,0,0,18.954,45.451Zm0-6.114H15.9v-.611a.613.613,0,0,0-.611-.611H14.063a.613.613,0,0,0-.611.611v.611H.611A.613.613,0,0,0,0,39.948v1.223a.613.613,0,0,0,.611.611h12.84v.611a.613.613,0,0,0,.611.611h1.223a.613.613,0,0,0,.611-.611v-.611h3.057a.613.613,0,0,0,.611-.611V39.948A.613.613,0,0,0,18.954,39.337Zm0-6.114H11.006v-.611A.613.613,0,0,0,10.394,32H9.171a.613.613,0,0,0-.611.611v.611H.611A.613.613,0,0,0,0,33.834v1.223a.613.613,0,0,0,.611.611H8.56v.611a.613.613,0,0,0,.611.611h1.223a.613.613,0,0,0,.611-.611v-.611h7.948a.613.613,0,0,0,.611-.611V33.834A.613.613,0,0,0,18.954,33.223Z" transform="translate(0 -32)"/></svg>