<svg id="Layer_1" data-name="Layer 1" xmlns="http://www.w3.org/2000/svg" viewBox="0 0 321.28 304.07"><defs><style>.cls-1{fill:#fbf9e7;}.cls-2{fill:#fbf9e5;}.cls-3{fill:#faf8e1;}.cls-4{fill:#fefefb;}.cls-5{fill:#fcfbec;}.cls-6{fill:#fbfaeb;}.cls-7{fill:#fdfcf1;}.cls-8{fill:#fdfcf3;}.cls-9{fill:#fdfbef;}.cls-10{fill:#fdfbf0;}.cls-11{fill:#fdfcf2;}.cls-12{fill:#fdfcf4;}.cls-13{fill:#fcfbee;}.cls-14{fill:#172b86;}.cls-15{fill:#636ca8;}.cls-16{fill:#525ea0;}.cls-17{fill:#faf8ef;}.cls-18{fill:#5d6ba7;}.cls-19{fill:#4e5a97;}.cls-20{fill:#544b94;}.cls-21{fill:#50599d;}.cls-22{fill:#6470a9;}.cls-23{fill:#6271ab;}.cls-24{fill:#3f3c87;}.cls-25{fill:#6270aa;}.cls-26{fill:#39397b;}.cls-27{fill:#6875ad;}.cls-28{fill:#3f428b;}.cls-29{fill:#433a78;}.cls-30{fill:#263788;}.cls-31{fill:#d3632b;}.cls-32{fill:#d6632a;}.cls-33{fill:#6d7aaf;}.cls-34{fill:#707db3;}.cls-35{fill:#474179;}.cls-36{fill:#38448f;}.cls-37{fill:#524780;}.cls-38{fill:#717aac;}.cls-39{fill:#707db0;}.cls-40{fill:#4a3a6f;}.cls-41{fill:#6e5fa3;}.cls-42{fill:#4a609c;}.cls-43{fill:#324691;}.cls-44{fill:#3d66a2;}.cls-45{fill:#514988;}.cls-46{fill:#727daf;}.cls-47{fill:#5465a3;}.cls-48{fill:#4c559b;}.cls-49{fill:#394492;}.cls-50{fill:#222d82;}.cls-51{fill:#2c3f8e;}.cls-52{fill:#6d7ab0;}.cls-53{fill:#6875ac;}.cls-54{fill:#5766a4;}.cls-55{fill:#7b87b5;}.cls-56{fill:#5362a2;}.cls-57{fill:#47589e;}.cls-58{fill:#44559b;}.cls-59{fill:#717eb1;}.cls-60{fill:#6c7eb1;}.cls-61{fill:#fff;}.cls-62{fill:#ef691c;}.cls-63{fill:#ee691c;}.cls-64{fill:#423c77;}.cls-65{fill:#634160;}.cls-66{fill:#5f3d66;}.cls-67{fill:#4c3b6a;}.cls-68{fill:#433574;}.cls-69{fill:#473f6a;}.cls-70{fill:#3b327a;}.cls-71{fill:#ba5a35;}.cls-72{fill:#5f435d;}.cls-73{fill:#bb5839;}.cls-74{fill:#4f3b6a;}.cls-75{fill:#f2eeb8;}.cls-76{fill:#324490;}.cls-77{fill:#5e4d8f;}.cls-78{fill:#543d68;}.cls-79{fill:#55426f;}.cls-80{fill:#423d85;}.cls-81{fill:#483a6d;}.cls-82{fill:#2c2f7f;}.cls-83{fill:#242f80;}.cls-84{fill:#8574af;}.cls-85{fill:#52307c;}.cls-86{fill:#503a80;}.cls-87{fill:#553b6a;}.cls-88{fill:#523d67;}.cls-89{fill:#5a3e65;}.cls-90{fill:#644061;}.cls-91{fill:#503b6b;}.cls-92{fill:#603f64;}.cls-93{fill:#644062;}.cls-94{fill:#3b3a6b;}.cls-95{fill:#614161;}.cls-96{fill:#583c68;}.cls-97{fill:#613574;}.cls-98{fill:#51435c;}.cls-99{fill:#644a51;}.cls-100{fill:#523379;}.cls-101{fill:#48435d;}.cls-102{fill:#443575;}.cls-103{fill:#3f3574;}.cls-104{fill:#352f7f;}.cls-105{fill:#544756;}.cls-106{fill:#cf602b;}.cls-107{fill:#343378;}.cls-108{fill:#504558;}.cls-109{fill:#48435c;}.cls-110{fill:#36327a;}.cls-111{fill:#723a6c;}.cls-112{fill:#6c4657;}.cls-113{fill:#603673;}.cls-114{fill:#423279;}.cls-115{fill:#634c4c;}.cls-116{fill:#5d4d7a;}.cls-117{fill:#5e3f63;}.cls-118{fill:#69425e;}.cls-119{fill:#4e3a6c;}.cls-120{fill:#4a3a6b;}.cls-121{fill:#66425d;}.cls-122{fill:#5b455a;}.cls-123{fill:#a8553e;}.cls-124{fill:#f5f0b8;}.cls-125{fill:#2f4290;}.cls-126{fill:#2f3885;}.cls-127{fill:#28307d;}.cls-128{fill:#596399;}.cls-129{fill:#57659a;}.cls-130{fill:#765f96;}.cls-131{fill:#4a5793;}.cls-132{fill:#b35937;}.cls-133{fill:#c45e2d;}.cls-134{fill:#944f47;}.cls-135{fill:#e2e1b6;}</style></defs><path class="cls-1" d="M151.82,316.2c-3.66.42-6.18,3.3-9.59,4.39-2,.65-4.11,1-6.11,1.72-1.45.55-2.25-.57-2.85-1.74-1.66-5.91-1.66-5.91,7.27-9.16-8.92,3.07-11.07,2.59-12.72-2.84-2.5-2.72-5.9-4.25-8.73-6.54-1-1.67-2.44-3.13-2.34-5.34.22-5,0-10-3.3-14.21-.25-.31.14-1,.3-1.55,1.1-3.47,1.12-7.13,1.71-10.69.75-4.57-3.27-7.39-7-5a9.53,9.53,0,0,1-11.11-.56c-1.54-1.14-4.59-4.73-3.32-7.84,1.63-4,2.85-8.95,8.74-9.11.87,0,1.83.12,2.55-.6-2.14-5.2-11-9.47-17-8.25-4.64.93-4.64.93-7.71-3.13-1.4,1.38-1.18,3-.66,4.43,1.65,4.57-.85,7.75-3.73,10.55-2.45,2.39-5.13,2.92-6.73-1.17a6.93,6.93,0,0,1-.38-1.49c.88-2.36.61-4-.9-7.45-.93-2.11-1.11-4.53-2.58-6.45a6.88,6.88,0,0,1-1-2.12c-.56-2.3-.1-4.73-.89-7-.22-.77-.38-1.55-.53-2.33-.19-1.08-.56-2.1-.8-3.17-.5-2.53-.25-5.18-1.37-7.6-5.93-22.11-7.49-44.42-3.17-67,1.17-3.92,1.94-8,3.2-11.86,2.84-7.85,7.26-14.82,11.65-21.87,4.7-7.53,11.35-11.25,20-12a10.86,10.86,0,0,1,2.47.32c2.08.75,4.3.56,6.45.83a9.62,9.62,0,0,1,1.6.31c2.28.76,4.65.48,7,.54,6.61.18,7.32.89,7.46,7.5,1,1.1,1.94.27,2.9-.08,4.6-2.2,8.92-4.89,13.4-7.26,2.7-1.43,3.24-2.78,1.36-5.47-3-4.34-7.36-7.52-10.39-11.85-.92-1.3-2.36-1.46-2.9.25-1.72,5.43-5.77,4.5-9.79,3.85C104.13,86.81,96.11,86,88,88c-10.52,2.55-19.11,7.64-24.77,17.09-5.17,7.19-7.54,15.64-10.7,23.72a57.27,57.27,0,0,0-3.27,10.05c-.2.7-.45,1.38-.69,2.07s-.44,1.35-.68,2a19.07,19.07,0,0,0-.73,2.79,7.9,7.9,0,0,1-.8,2.19c-.28.47-.57.94-.83,1.43-2.8,13.53-2.82,27.18-1.93,40.87.15,2.43,1.5,5.78-1.94,6.26-3.09.44-3.5-3-4.07-5.44a15.18,15.18,0,0,1,.06-4.85c.67-7.33.31-7.8-6.87-9.51.41-2.81-1.24-4.21-4.54-5,3.28-1.43,3.52-4.43,5.82-5.74a1.8,1.8,0,0,0,.64-2.43c-2.41-3.14-.44-5.26,1.4-7.57,1.08-1.35,3.65-2.82.14-4.47-.86-.4,0-.87.34-1.14,3.36-2.52.65-4.2-1.16-6.14,2.29-1.88,3.2-4.49,4.63-6.77.5-.8,1-1.43.14-2.36A1.47,1.47,0,0,1,38,133a1.52,1.52,0,0,1,.88-.49c3.69-.92,3-3.83,2.61-6.11-.45-2.61,0-4.6,1.82-6.38,1.27-1.22,2.3-2.78.86-4.25-2.28-2.34-.84-5.13-.35-7.08.54-2.17,1.33-3.52-.86-4.93-.5-.33-.43-.78,0-1.26a8.47,8.47,0,0,0,1.82-9.24c-.45-1.27.36-1.54,1-2.07,1.68-1.33,3.34-2.69,5.44-4.39-3.64-1-4.07-4.22-5.57-6.55-.87-1.35-1.87-3.46.95-5.24,3.05-1.91,2.73-2.43.19-4.94,2.89-3.19,6.9-4.93,10.06-7.76A8.63,8.63,0,0,0,60.18,59c2.5-1.35,3.8.26,5.19,1.7.45-1.39-1.34-3.32.27-5h1.09c2.28.11,2.58,2.61,4.55,4-.06-4.22,2.35-6.46,5.27-8.33h0a.78.78,0,0,1,1.08,0c1.29,1,2.62,1.89,4.37,1.09a2.24,2.24,0,0,1,2.17-1.1c3.12-1.08,6-2.49,7.07-6,1.6-5.14,5.54-6.77,10.39-7.12,7.73-2,15.2-5.43,23.51-4,3.49-1.89,7.57,1.2,11-1.31a1.76,1.76,0,0,1,1.58,0c3.36,2.17,6.46.71,9.6-.55,1.39-.56,2.81-1,4.08.14s2.09,1.46,2.28-.75c.11-1.24,1-.57,1.65-.44,2.86.57,5.71,1.13,8.29-.91a1.84,1.84,0,0,1,2.49,0c2.41,2.11,4.57,1.36,6.85-.31A6.56,6.56,0,0,1,176,29c5.92-.76,11.34-3.16,16.91-5,1.18-.39,2.11.1,3.16.08,2.66-.07,5.47.8,7.83-1.22a2.1,2.1,0,0,1,2.54-.26c3,1.82,4.94-1.94,7.59-1.46,2.47.44,4.7,2,7.31,1.86a7.61,7.61,0,0,0,2.55-.73c4.23-1.83,4.22-1.84,7.54,1.88.54,3.63,3.39,6.62,2.87,10.53,0,.35.13.9.39,1,4,.89,6.66,4.66,10.93,4.87h1.09c4.66,1.23,9.63-1.52,14.18,1.09a4.51,4.51,0,0,0,1.59.23c5.93-1.46,10.08,1.9,14.25,5.19A3.68,3.68,0,0,0,279.17,48c3.41-.24,5.25,1.87,6.83,4.41,1.93,1.32,1.77,3.89,3.28,5.45h1.08c1.46,1.08,2.91-1.56,4.37,0h0c.35.38.72.74,1.1,1.09h0c.38,3.67-3.44,2.83-5.1,4.32,1.06,1.22,2.06,1,3.14.65,5.11-1.59,8.83,1.14,7.75,6.25-1.49,7.1,2,13,3.75,19.29.66,2.35,2.9,2.45,4.63,3.28h1.09c2.56,4,4.51,8,4.51,13.11s3.25,9.46,4.27,14.42c-.61,4.15,1.56,7.74,2.37,11.6,1.55,7.31-.45,14.6-.24,21.9,1.1,1.81,1.52,4,3.27,5.45.64.71.28,2,.94,2.46,7.85,5.7,6.65,14.91,9,22.75,1,3.51,3.66,6.89,1,10.75a9.87,9.87,0,0,0-5.67,2.91c-1.44,1.33-3,2.53-4.64,3.92,1.78,1.9,2.71,4.22,3.86,6.42,1.85,3.54,1.85,3.75-1,6.26-3.15,2.8-2.74,5.12,1.18,6.52.5.18,1.1.09,1.6.25,1.55.49,3.26.89,3.44,2.93s-1,2.69-2.6,3.6c-3.22,1.89-3.43,3.88-.93,6.81s2.11,6.07,1.26,9.16c-.61,2.22-.49,3.79,1.32,5.23a10.81,10.81,0,0,1,1.79,2c2.53,3.49,2.3,7.4-.9,10.41-4,3.81-8.95,6.77-11.75,11.79-1.18,2.12-3-.22-4.38.82-.93.7-2,2.62-3.16-.09-.43-1-2.18-.67-2.85.11-1.4,1.62-3.14,1.59-4.95,1.57-2.38,3.44-7.46,2-9.83,5.44-5,6.67-12.76,7.73-19.95,9.45-2.88.69-3.62,3.6-6.27,3.86-3.77,7.08-10.58,9.06-17.66,9.33-3.46.14-6.22,2.94-9.82,1.76-.77-.25-1.47.88-1.9,1.71s-1,1.93-1.51,2.89c-1.44,2.66-3.34,4-6.5,2.6a13.15,13.15,0,0,0-3.65-1c-1.24-.18-3.1-.45-3.54.71-2,5.3-8.27,3.83-11.36,7.35a2.7,2.7,0,0,1-2,.51c-4.47-.48-8.8.91-13.39.25-6.47-.92-12.93.83-19.26,2.27a27.81,27.81,0,0,1-6.42.81c-3,1.1-6,.46-9,.45-2.15,0-4.38-.54-4.62-3.42,0-.54-.18-1.31-.63-1.37-5.11-.66-2.87-3.05-1.33-5.34a1.59,1.59,0,0,0-.11-1.51,6,6,0,0,0-.56-.67,1.38,1.38,0,0,1,.45.77C158.34,317.59,154.31,315.3,151.82,316.2Z" transform="translate(-18.23 -21.04)"/><path class="cls-2" d="M30.73,176.7c2.38-3.85,4.64.08,6.94.19,2,.09,1.79,2,1.76,3.37,0,2.34.5,4.78-.44,7-1.13,2.68.64,4.9.9,7.34a1.45,1.45,0,0,0,1.59,1.18c1.22-.14,1.14-1.19,1.2-2.07.17-2.21-1.11-4.13-1.09-6.38.1-11.2-.33-22.41,1.24-33.54.31-2.2.32-4.71,2.2-6.47a4.62,4.62,0,0,1,1,2.27,8.16,8.16,0,0,1,0,1.71,12,12,0,0,1-.49,2.59c-1.14,14.23-2.3,28.45-.3,42.69,0,2-.19,4,.5,5.95a10.28,10.28,0,0,1,.34,1.65c.3,2.45,0,5,.8,7.37.53,2.12.35,4.36,1.07,6.46.45,1.89.5,3.86,1.18,5.71a9.28,9.28,0,0,1,.38,1.72c2.18,12.36,3.88,24.8,6.22,37.13.68,3.63,1.27,7.5-.82,11.05-2,.31-2.05-.69-1.38-2.13,0-1.19.24-2.46-1-3.25-.57-.68-1.6-.45-2.19-1.08-1.24-1.22-3.11.07-4.36-1.09H44.9c-4.52-.33-7.95-2.26-9.82-6.54a9.73,9.73,0,0,0-1.65-2.13c-3.24-2.42-4.33-5.6-3.83-9.53a8.65,8.65,0,0,0-1.07-5.78c.44-2.56-1.4-4.37-2.18-6.53h0a14.12,14.12,0,0,0,1.09-1.1h0c2.36-3.05.82-4.54-2.18-5.44H24.17a36.15,36.15,0,0,0-4.36-6.54c1.72-1.61-1.22-3.06-.28-4.38,1.2-1.7.45-2.34-.79-3.46-.9-.81.71-1.32,1.09-2,1.79-3.29,1.83-3.27-1.6-5.76a14.63,14.63,0,0,0,3.36-4c.61-1.27,3.45-2.24.24-3.86-.54-.27.45-1.13,1-1.51a1.62,1.62,0,0,0,.89-1.75c-.61-3.68-.68-3.75,2.08-6.7,1.05-1.12,1.93-1.62-.11-2.62-1.83-.89-.05-1.66.42-2.37,1.05-1.55,3.7-2.27,1.95-5.18C27.47,177.87,29.73,177.37,30.73,176.7Z" transform="translate(-18.23 -21.04)"/><path class="cls-3" d="M69.9,248.71c2.54,3.33,4,3.53,6.31.4,2.07-2.84,4.86-5.62,1.88-9.67-1.21-1.66.55-3.44.9-5.16a1.7,1.7,0,0,1,1.9-1.49H81c.87.14.94,1,1.17,1.62a18.47,18.47,0,0,1,.78,2c.45,2.11,1.67,2.86,3.52,1.74,3-1.81,5.52-.46,8.54,0,3.83.6,6.21,3.25,9.59,4.22,2.07.59,2.34,3.4,3.35,5.23a1.29,1.29,0,0,1-1.3,1.85c-.86,0-1.72-.54-2.6-.61-3.35-.29-5.81,1.2-6.68,4.6-.52,2-2.8,2.89-2.87,5,1,1.85,3.2.36,4.35,1.63,1.18,2-2.28,2.12-1.57,4.31,2.29.05,4.77-.37,7,1.13,1.32.88,2.21-.7,3.19-1.43,1.72-1.27,3.44-3.11,5.77-1.45s4.55,4.46,3.89,6.61c-1.23,4-.22,8.32-2.35,12-5.5,3.93-10.75-.62-16.14-.51-.83,0-1.75-1.12-2.5-.63-6.21,4.1-11.51.48-16.91-1.92-2.26-1-4.28-2.77-7-1.28,0,.72,0,1.44,0,2.16a1.11,1.11,0,0,1-1.56-.28l0,0c-1-1.65-.87-3.52-1-5.35,0-.94,0-1.88,0-2.82-.08-5.14.23-10.28-.88-15.39C68.24,253.1,68.1,250.65,69.9,248.71Z" transform="translate(-18.23 -21.04)"/><path class="cls-4" d="M318.73,120c-1.6-4.3-3.19-8.6-4.81-12.89-.33-.85-.87-1.88-.24-2.53,2-2,1.41-3.28-.84-4.48-1.18-.64-1.86-1.51-.74-3,1.24-1.66-1.56-2.66-1-4.33,3.36,1,2.9.87,4-2.19a13.48,13.48,0,0,1,7.63-8.29c-.93-1.57-3,.54-3.55-1.55,1-2.05,3.12-1.88,5-2.32,1.26-.3,2-.1,2.6,1.09a2.23,2.23,0,0,1-.51,2.91c-1.79,1.7-4.09,3-4.75,5.83,1.45,1.81,4.38,2.22,4.32,6-.06,2.9,2.22-1.13,4,.15,0,1.57-1.8,3.07-1.28,5a51.27,51.27,0,0,1-5,2.07c-1.12.35-1.55.18-1.46-1.55.1-2.13-2.34-1.5-3.83-1.58-.85,0-1.88-.15-2.31.92-.58,1.46,1.51,4.07,3.27,4.14,6.12.22,6.12.22,10.19,2.49-.68,2.12-2.69,3.2-4,4.81-.81,1-1.8,2.08-.62,3.3,1,1,2,.31,2.74-.56a2.8,2.8,0,0,1,1.9-.9c2.28-.22,3,1,3,3.61,0,1.78.11,3.2-1.78,4-2.47.41-4.27,2.34-6.79,2.8C321.24,123.32,319.5,122.76,318.73,120Z" transform="translate(-18.23 -21.04)"/><path class="cls-5" d="M310,92.79c-1.27,0-2.55,0-3.81-.09a2.07,2.07,0,0,1-2.12-2c-.28-2.16-.74-4.19-2.65-5.77-1.49-1.24,1.27-2.63.11-4.73-1.63-3-4.1-6.32-.92-10.34.94-1.19-.48-4.13-2.35-5.61-.8-.64-1.78-.92-2.44-.15-3,3.51-5.36.91-8.36-.94a9.83,9.83,0,0,1,4.93-1.94A3.76,3.76,0,0,0,295.82,59c2.22-.28,3.69.92,5.15,2.38.83.82,1,2.39,2.66,2.38,2.43,0,2.17,1.16,1.17,2.68-2.46,3.77-2.7,4.06.54,6.85,3.4,2.92,2.7,7.09,4.13,10.57.1.22-.17.64-.34.92C306.74,88.76,306.76,89,310,92.79Z" transform="translate(-18.23 -21.04)"/><path class="cls-6" d="M72.22,277c1.33-1.22,4.91-2.05,5.92-1.19A20.67,20.67,0,0,0,89,280.65c4.74.67,4.7,1,6-3.61,2.6,2,5.15,4.07,8.69,2.8a1.77,1.77,0,0,1,1.52.42c2.9,2.93,6.24,1.55,9.5,1.07l-.3,1.53c3.06.58,3,2.52,2.83,5.16-.16,2,2.2,3.63.66,6.38-1.26,2.25.76,5.05,1.18,7.63-2-1.62-4.27-2.6-3.86-6.32.24-2.21-1.37-4.65-.85-7.55.58-3.14-2.48-5.15-5.82-4.19a10.77,10.77,0,0,1-8.4-.6c-.78-.4-2.14-1-2.48-.71-3.07,2.8-5.85.67-8.75-.21a7.36,7.36,0,0,0-3.72-.36,7.75,7.75,0,0,1-7.34-1.59c-2,.82.51,2.94-1.4,3.63-1.53-.91-1.19-2.38-.88-3.45C76.55,277.4,74.82,276.87,72.22,277Z" transform="translate(-18.23 -21.04)"/><path class="cls-7" d="M318.73,120c3,2.43,6,2.3,9.66-.85,1.7-1.45,2-.76,2.34.85a19.7,19.7,0,0,1-6.89,6.13c-1.25.72-2,1.52-.86,3,.92,1.1,1.83,1.65,3.16.5A6.35,6.35,0,0,1,330.5,128c-.61,2.3-.49,4.55-3.6,4.42a1.37,1.37,0,0,0-1.58,1.12,1.5,1.5,0,0,0,0,.56c.35,2.47-2.53,5.07.46,7.53.55.46.39,2.77-.26,3.5-2.24,2.54-1.94,6-3.54,8.69-.44-2.75-.28-5.62-1.78-8.16a2.32,2.32,0,0,1,.17-2.55c3.32-5.08.49-10-.71-14.8C319,125.5,318.12,122.91,318.73,120Z" transform="translate(-18.23 -21.04)"/><path class="cls-6" d="M71.38,279.14h.8c.42,2.8.45,2.81-.85,6.26L52.55,277c-1.62-1.33-3.82.19-5.45-1.09h0c-.36-.37-.72-.73-1.09-1.08H44.92c-.33-.39-.73-.72-1.09-1.09h0c-1-2.92.62-2.86,2.68-2.37s4,2,6,.2l1.05,0a2.28,2.28,0,0,0,1.17,2.18c2.49-4-.17-8.72,1.73-12.81,3.22-.47,2.58,2.14,2.84,3.78.37,2.32-.07,4.71.38,7,.5,2.57,2.08,4.53,4.68,4.52S66,273.5,66.47,272s-.24-4,2.71-3.68c1.45,2.26.56,4.79.82,7.18C70.47,276.66,68.91,278.66,71.38,279.14Z" transform="translate(-18.23 -21.04)"/><path class="cls-8" d="M336.18,195.23c0-3.94-.15-7.8-2.1-11.43a6.12,6.12,0,0,1-.86-4.66,5.83,5.83,0,0,0-1.34-5,4.93,4.93,0,0,1-1.17-3.5c.25-2.61-.21-4.51-3.17-5.38s-2.12-3.73-2.26-6c4.68,2.68,7.67,7.16,11.48,11-.29,1.67-3.91.73-3.1,3.4.66,2.17.51,5.28,2.89,6,3.39,1.05,2.39,2.5.92,4-1.62,1.67-2.13,2.66.71,3.23,1.46.29,1.16,1.59,1.27,2.62A5.32,5.32,0,0,1,336.18,195.23Z" transform="translate(-18.23 -21.04)"/><path class="cls-9" d="M245.64,40.48c-.72,1-2.38,1.52-2.78.87-2.28-3.64-7.13-2-9.58-5a3.81,3.81,0,0,1-.56-2.59c.2-2.34.63-4.27-2.34-5.75-2.15-1.07,1.88-2.23,1.07-3.93,2,.94,3.35,2.69,5.53,3.42,1.77.59,3.35,2.58,2.29,4.19-1.73,2.62,0,3.86,1.46,4.79C242.52,37.7,243.13,40.29,245.64,40.48Z" transform="translate(-18.23 -21.04)"/><path class="cls-10" d="M158.36,311.84c3.48,2.32,3.48,2.32-.62,6.09,2,.5,3.77.79,4.17,3.27.36,2.25,2.73,2.56,4.75,2.6,2.69.07,5.38,0,8.07,0-3.75,2.09-7.7,1.1-11.57.64-2.15-.26-2.54-2.29-3.11-4.54-2.37,2.21-5.42,2.15-8,3.49a1.15,1.15,0,0,1-1.43-.47c-.38-.47-.19-.89.14-1.39,1.14-1.71,3.35-1.95,4.77-3.29-.93-1.63-2.31-1.9-3.75-2.07a1.69,1.69,0,0,1,1.72-1C156.45,315.89,157.7,314.31,158.36,311.84Z" transform="translate(-18.23 -21.04)"/><path class="cls-11" d="M127.82,308.57c2.51,3.7,3.84,4.23,8.3,2.93,2.19-.64,4.59-.16,6.65-1.45.48-.3,1,.23,1.17.79.17.75.07,1.56-1,1.36-1.8-.36-3.09.75-4.52,1.41s-3.47-.23-4.55,1.2c-1.27,1.69-.4,3.83-.63,5.75-.16-.1-.37-.15-.46-.29-1.12-1.81-5.27,1.65-4.92-2.94.17-2.35-1.13-4.71-.1-7.14A4.89,4.89,0,0,0,127.82,308.57Z" transform="translate(-18.23 -21.04)"/><path class="cls-7" d="M101.64,38.29c-.25.25-.47.67-.76.72-4.44.9-7.63,3.17-8.92,7.71-1.13,4-3.92,5.23-7.78,4.64.07-.87-.2-2.37.52-2.46,3-.37,3.3-2.64,3.79-4.79.25-1.08.43-2,1.62-2.52,2.9-1.33,5.51-3.27,8.69-4.06C99.93,37.25,100.91,37.22,101.64,38.29Z" transform="translate(-18.23 -21.04)"/><path class="cls-10" d="M76.55,51.38c-.75,1.23-1.23,2.82-2.3,3.6-1.67,1.21-1.93,2.34-1.16,4.11a2,2,0,0,1-.45,2.5c-1.08.75-2-.22-3-.62-2.37-1-.72-4.18-2.93-5.25C69.05,52.14,72.81,51.79,76.55,51.38Z" transform="translate(-18.23 -21.04)"/><path class="cls-12" d="M52.55,271.52c-.25,1.38.43,4-2.39,2.32-1.56-.95-3.49,0-4.91-1.65-.66-.78-1.29.62-1.43,1.51-1.57-1.08-4.18-2.27-3.44-4.11.93-2.34,3.61-.9,5.67-.88C48.79,268.72,50.61,270.08,52.55,271.52Z" transform="translate(-18.23 -21.04)"/><path class="cls-9" d="M260.91,41.56c-3.41,0-6.81,0-10.22,0-1.41,0-2.92.28-4-1.08,2.26.55,3.94-1,5.92-1.56,2.18-.55,4.61-2.1,6.12,1.29C259,40.75,260.41,40.71,260.91,41.56Z" transform="translate(-18.23 -21.04)"/><path class="cls-8" d="M298,281.33c.08-.9.16-2.1,1-2.34,3-.83,5.55-3.05,8.83-3.11-.81,3.31-2.42,5.41-6.31,4.42C300.23,280,299.13,280.84,298,281.33Z" transform="translate(-18.23 -21.04)"/><path class="cls-12" d="M35.09,259.53c3.11,2.42,5.83,5.44,9.82,6.54a18.52,18.52,0,0,0-2.11.12c-1.65.26-4.19,1.45-4.75.1C37.11,264,33.74,262.73,35.09,259.53Z" transform="translate(-18.23 -21.04)"/><path class="cls-10" d="M65.64,55.73c0,1.89,1.77,3.55.76,5.6-2.66.62-3.8-2.56-6.22-2.33C61.32,56.77,63,55.46,65.64,55.73Z" transform="translate(-18.23 -21.04)"/><path class="cls-13" d="M26.37,235.56c.11.13.2.33.34.38,4.56,1.9,4.56,1.89,1.84,6.15C24.81,239.11,24.81,239.11,26.37,235.56Z" transform="translate(-18.23 -21.04)"/><path class="cls-13" d="M25.27,229c3.19-1.29,3.62.86,4.33,3.18s-1,1.93-2.15,2.26C27.68,232.26,27.23,230.34,25.27,229Z" transform="translate(-18.23 -21.04)"/><path class="cls-13" d="M19.82,222.48A7.51,7.51,0,0,1,24.18,229a71,71,0,0,1-4.74-6.2C19.43,222.72,19.68,222.59,19.82,222.48Z" transform="translate(-18.23 -21.04)"/><path class="cls-5" d="M289.28,57.91c-2.87-.75-2.44-3.48-3.28-5.45C288.94,53.16,290,55,289.28,57.91Z" transform="translate(-18.23 -21.04)"/><path class="cls-10" d="M82,52.46c-3.6,2.66-3.72,2.63-4.36-1.09C79.54,49.93,80.6,51.89,82,52.46Z" transform="translate(-18.23 -21.04)"/><path class="cls-5" d="M294.73,57.91c-1.45-.4-2.91,2-4.37,0C291.82,57.36,293.27,55.92,294.73,57.91Z" transform="translate(-18.23 -21.04)"/><path class="cls-12" d="M47.09,275.88c1.84.26,3.93-.73,5.46,1.09C50.71,276.7,48.62,277.7,47.09,275.88Z" transform="translate(-18.23 -21.04)"/><path class="cls-10" d="M60.18,59a3.05,3.05,0,0,1-2.84,3.27h-.43A6.83,6.83,0,0,1,60.18,59Z" transform="translate(-18.23 -21.04)"/><path class="cls-12" d="M46,266.08c1.51.14,3.22-.52,4.36,1.08C48.86,267,47.15,267.67,46,266.08Z" transform="translate(-18.23 -21.04)"/><path class="cls-4" d="M331.06,99.22a1.4,1.4,0,0,1-1.75.83c-.3-.1-.51-.48-.76-.73a15.53,15.53,0,0,1,2-.76C330.93,98.47,331.13,98.83,331.06,99.22Z" transform="translate(-18.23 -21.04)"/><path class="cls-12" d="M50.36,267.16a2.25,2.25,0,0,1,2.19,1.09A2.24,2.24,0,0,1,50.36,267.16Z" transform="translate(-18.23 -21.04)"/><path class="cls-10" d="M77.64,51.37H76.55C76.91,50.62,77.27,50.63,77.64,51.37Z" transform="translate(-18.23 -21.04)"/><path class="cls-12" d="M43.82,273.7l1.09,1.09Z" transform="translate(-18.23 -21.04)"/><path class="cls-12" d="M46,274.79l1.09,1.09Z" transform="translate(-18.23 -21.04)"/><path class="cls-5" d="M295.82,59l-1.09-1.09Z" transform="translate(-18.23 -21.04)"/><path class="cls-13" d="M27.45,234.46l-1.09,1.1Z" transform="translate(-18.23 -21.04)"/><path class="cls-14" d="M115.66,166.08c.76-.46,1.82-1.51,2.22-1.3,3.25,1.7,5.3-.6,7.55-2.07,4.49-2.94,9.28-5.41,13.47-8.8,1.3-2.6,3.86-3.79,6.18-5,3.24-1.71,3.73-3.75,2.39-7-1-2.38-2.6-4.84-1.4-7.7-.91-6.64-1.27-13.24.14-19.91C151,91.6,171.54,77.42,191.66,77.52s35.1,8.87,45.24,26.13c1,.85,2.72.72,3.2,2.31,1.69,5.71,2.83,11.61,6.89,16.39a6.89,6.89,0,0,1,1.38,5.67,3.84,3.84,0,0,1-1.69,1.89c-.7.53-1.74.89-1.7,1.92.06,1.6,1.42,1.46,2.41,1.31,5.93-.9,11.93,0,17.85-.82,3.9-.55,6.32.74,6.82,4.89.57,4.6-1,7.25-5,8.13-7.26,1.59-14.74,1.2-22.07,2.28-2.78.41-5.32.94-7.25,3.1-1.55,1.46-2.55,3.36-3.88,5-2.41,4.48-6.3,7.39-10.54,9.94-1.86.57-2.75,2.29-4.09,3.48-5.42,2.25-10.78,4.69-16.86,4.46-3.63-1.53-7.54-.07-11.22-1-11.43-.24-21-5-29.39-12.36-3.58-3.12-3.49-3.21-7.56-.63-7.65,4.84-15.33,9.65-22.95,14.53-1.83,1.18-4.34,1.8-4,5,.09.87-1.51,1.39-2.56,1.71A15.49,15.49,0,0,1,115.66,166.08Z" transform="translate(-18.23 -21.04)"/><path class="cls-14" d="M118.71,184.37c-4.47,4-9.9,6.61-14.84,9.92-5.42,3.63-10.9,7.19-16.52,10.51-5.44,3.22-10.45,1.49-12.95-4.13-1.81-4.06-.66-8,3.59-10.71,10.53-6.76,21.15-13.35,31.73-20C112.48,174.91,115.87,179.47,118.71,184.37Z" transform="translate(-18.23 -21.04)"/><path class="cls-15" d="M62.16,104.38c5-9.2,13.14-14.19,22.8-17.13,8.87-2.7,17.87-2,26.87-.74,1.25.18,2.53.19,3.77.44,2.92.59,4.64.1,5.23-3.44s1.92-3.69,4.22-1.24c4.34,4.63,8.58,9.37,12.75,14.15,1.9,2.18,1.75,3.18-.84,4.7a158.88,158.88,0,0,1-16.78,9,2,2,0,0,1-.62-1.47,3.84,3.84,0,0,1,.56-1.5c2.95-3.4,7.35-4.5,11-6.83,2.67-1.72,3.06-3.25.67-5.46a55.85,55.85,0,0,1-4.94-5c-1.62-2-2.91-2.93-5-.36-1.52,1.83-4,1-6.16.94-8.25-.28-16.39-2.54-24.79-.78-9.76,2-18,6.34-24.37,14.08-.91,1.12-1.8,2.3-3.41,2.48C62.26,105.83,61.6,105.41,62.16,104.38Z" transform="translate(-18.23 -21.04)"/><path class="cls-16" d="M144.17,265c-7.84-2.2-11.72-6.91-11.71-14.19,0-7.12,3.14-11.12,10.39-13.25,6.75-.84,13.53-.21,20.29-.33a1.15,1.15,0,0,1,1,1.31l0,.12c-2.18,2.27-5,1.55-7.69,1.68-3.79.19-7.62-.33-11.34.82-5.71,1.77-8.42,5.45-7.89,10.74a10.2,10.2,0,0,0,9.89,9.12c8.14.48,16.3.1,24.46.18,2.9,0,5.82-.24,8.68.25,1.47.26,3.91,0,2.78,2.94-10.08,1.66-20.17-.68-30.26,0C149.86,264.63,146.94,263.74,144.17,265Z" transform="translate(-18.23 -21.04)"/><path class="cls-17" d="M146.06,134.15c.83,2.37,1.58,4.78,2.48,7.12,2.14,5.6,2.19,5.62-3.13,8.91-2.12,1.31-4.34,2.49-6.51,3.73-2.4-4.07-1.3-8.19.43-12,1-2.23,2.43-3.92,2.41-6.76C141.73,132,144.26,133.18,146.06,134.15Z" transform="translate(-18.23 -21.04)"/><path class="cls-18" d="M59.26,144.33c-.47,7.9-1.74,15.7-2.14,23.63-.5,10.2.92,20.14,2.55,30.1.78,4.79,1.9,9.51,2.86,14.26.16,1.48,1.46,3.36-1.35,3.79-1.78-1.25-2.35-3.21-2.78-5.14-4.76-21.39-7.4-42.87-3.14-64.7a16,16,0,0,1,.65-2.63,3.49,3.49,0,0,1,2-2.06C60,141.7,59.68,143,59.26,144.33Z" transform="translate(-18.23 -21.04)"/><path class="cls-19" d="M270.65,238c8.72,3.09,13.27,10.8,10.91,18.45-1.47,4.76-4.55,7.7-9.5,8.6a7.56,7.56,0,0,1-4.44.24,1.93,1.93,0,0,1-.65-1.56c.37-1.46,1.59-1.82,2.82-2.22,5.54-1.8,8.17-4.88,8-9.39a11.34,11.34,0,0,0-8.92-10.37c-4.66-.84-9.41-.41-14.13-.28-2.63.07-3.16,2-3.26,4.14-.09,2,.16,4-.66,5.91-.52,1.18-1.21,2.5-2.68.77-1-4.56-1.57-9.1.47-13.54C255.94,237.52,263.33,238.94,270.65,238Z" transform="translate(-18.23 -21.04)"/><path class="cls-20" d="M270.65,238c-1.92,1.4-4.13.7-6.21.75-5.16.1-10.32,0-15.48,0a8.06,8.06,0,0,1-1.82,1.11c-7.74.91-15.51.34-23.26.4-16.26.13-32.51-.05-48.77.09-3.8-.13-7.76,1-11.24-1.52l0-1.1c3.52-1.31,7.18-.56,10.75-.54,13.23.06,26.47-.47,39.71.27l54.78.14A7,7,0,0,1,270.65,238Z" transform="translate(-18.23 -21.04)"/><path class="cls-16" d="M267.41,265l4.65.13c-1.56,1.21-3.4,1.1-5.22,1.09l-97.47-.51a31.47,31.47,0,0,1-3.75-.46c.84-1,2-.69,3-.75,25.75-1.35,51.52-1,77.28-1h4.2C255.89,264.14,261.87,262,267.41,265Z" transform="translate(-18.23 -21.04)"/><path class="cls-21" d="M246.8,264.93l-74.65.05c-2.18,0-4.35.14-6.53.22a194.28,194.28,0,0,1-21.45-.17c1.57-1.84,3.69-1.07,5.58-1.1,11.36-.14,22.71-.18,34.07-.26,1.63-1.44,3.66-1.45,5.65-1.46q25.53-.12,51.05,0a10.86,10.86,0,0,1,5.3,1A2,2,0,0,1,246.8,264.93Z" transform="translate(-18.23 -21.04)"/><path class="cls-22" d="M92.9,100.43c-2.12.46-4.29.8-6.37,1.41a18.75,18.75,0,0,0-10.48,7.23,121.31,121.31,0,0,0-13.69,24c-1.68.27-1.82-1-2.1-2.12C63,120.2,68.86,111,76.5,103.2a17.84,17.84,0,0,1,18.78-4.57C95.31,100.32,93.43,99.48,92.9,100.43Z" transform="translate(-18.23 -21.04)"/><path class="cls-11" d="M151.32,43.23c-2.77-1.73-5.1-1.26-6.95,1.32a1.82,1.82,0,0,1-2.34.8c-2.07-.89-3.81-.39-5.54,1s-3.11.32-4.46-.66a2.51,2.51,0,0,1-.72-3,2.91,2.91,0,0,1,3.33-2.18,24.3,24.3,0,0,0,10.07-1.83,10,10,0,0,1,3.21-.38C151.58,38.29,151.65,38.41,151.32,43.23Z" transform="translate(-18.23 -21.04)"/><path class="cls-11" d="M177.21,36.12c-3,2-5.87,4.42-9.88,2.82-3.39,2.87-7.71.81-11.4,2.14a1.75,1.75,0,0,1-2.34-.79,2,2,0,0,1-.16-.53c-.23-1.14.91-1.27,1.73-1.64,3.73-1.67,7.88-.52,11.72-1.83,1.79-.62,3.88-.53,5.82-1.06C174.23,34.81,176,34.64,177.21,36.12Z" transform="translate(-18.23 -21.04)"/><path class="cls-23" d="M214.3,237.53c-11.57.62-23.14.11-34.72.24-5.24.06-10.49,0-15.73,0l-21-.21c1.18-1.13,2.68-1,4.11-1q32.08.17,64.16.38A20.25,20.25,0,0,1,214.3,237.53Z" transform="translate(-18.23 -21.04)"/><path class="cls-24" d="M284,167.71c1,1.45.83,3.11.82,4.73q0,21.74,0,43.47c0,4.42-.1,4.42-5,4.47-3.19.89-6.45.25-9.67.45-.93-.05-1.92.16-2.73-.53.5-2.77,2.84-2.34,4.68-2.56,2.86-.34,5.78.17,8.62-.45,2.05-.81,1.6-2.61,1.67-4.22,0-12.77-.06-25.53,0-38.28C282.33,172.35,281.74,169.68,284,167.71Z" transform="translate(-18.23 -21.04)"/><path class="cls-25" d="M69.9,248.71c.51,5.65,1,11.29,1.52,16.94a14.48,14.48,0,0,1-.43,5.82c-2.86-2.59-1.87-6.44-3.17-9.54-1.94-8.91-2.91-18-4.41-27a5.81,5.81,0,0,1,.27-1.75l.43-.77a1.08,1.08,0,0,1,1.53-.17h0l1,1.11a62.29,62.29,0,0,1,3.27,15.33Z" transform="translate(-18.23 -21.04)"/><path class="cls-26" d="M284,167.71l-.24,47.09a1.24,1.24,0,0,1-1.68-.53.38.38,0,0,1-.06-.13c-1-2-.94-4.21-1-6.37q0-26.31,0-52.6c0-2.17-.06-4.36,1.1-6.34a1.28,1.28,0,0,1,1.73-.5l.1.06A188.64,188.64,0,0,1,284,167.71Z" transform="translate(-18.23 -21.04)"/><path class="cls-27" d="M62.16,104.38l1.23,1.48a2.87,2.87,0,0,1-.11,3C60,114.85,58,121.37,55,127.41c-.72,1-1.2,2.19-1.88,3.25a1.45,1.45,0,0,1-1.31.5c-1.08-.72-.93-1.64-.42-2.61C53.8,120,57.06,111.76,62.16,104.38Z" transform="translate(-18.23 -21.04)"/><path class="cls-28" d="M219.48,224.74c-5.48,1.34-11.1,1.09-16.67,1.36-2.16.1-2.81-1.09-2.77-3,.07-4.35,0-8.7.1-13.05.19-6.85-.72-13.74.61-20.55,1.85,1.47,1.53,3.59,1.67,5.57.43,9-.91,18,.74,26.9a4.49,4.49,0,0,0,3.58,1.26,89.94,89.94,0,0,0,10.89-.22,3.45,3.45,0,0,1,1.68.3,1,1,0,0,1,.26,1.38Z" transform="translate(-18.23 -21.04)"/><path class="cls-7" d="M224.46,39.63c-2.07-3-3.4-5.14-4.91-7.11-.9-1.19-2.07-2.22-3.56-.59a2.64,2.64,0,0,1-2.48.78,2.39,2.39,0,0,1-2-2.2c-.21-1.15.65-1.59,1.54-1.86C219.62,26.65,224.92,31.15,224.46,39.63Z" transform="translate(-18.23 -21.04)"/><path class="cls-29" d="M266.35,101.63a13,13,0,0,1,5.27-.21c2.87-1.26,6.09.46,8.93-1,2.5-1.08,4.16-.8,4.14,2.44,0,3.54,0,7.08,0,10.62a1,1,0,0,1-1.35-.21.35.35,0,0,1-.05-.08c-1.33-2.08-.35-4.77-1.84-6.8-3.44-4-8-1.91-12.1-2.17l-2.35.49a25.88,25.88,0,0,1-5.83.37,6.31,6.31,0,0,1-3.28-.88,1,1,0,0,1-.29-1.45l0,0a.74.74,0,0,1,.85-.19C261,101.38,263.83,102.76,266.35,101.63Z" transform="translate(-18.23 -21.04)"/><path class="cls-30" d="M283.87,113.55q.42,0,.84-.09c.42,11.66-.72,23.28-.77,34.93l-1.17,0a5.47,5.47,0,0,1-1.62-4.45c0-9-.6-18.07.36-27.1A4.79,4.79,0,0,1,283.87,113.55Z" transform="translate(-18.23 -21.04)"/><path class="cls-31" d="M115.66,166.08a32.92,32.92,0,0,0,9,14.69,2.9,2.9,0,0,1-2.16,1.28,3.5,3.5,0,0,1-1.88-.58,9.59,9.59,0,0,1-2.25-1.6,9.45,9.45,0,0,1-.93-1.16c-2.38-3.33-5.51-6.4-3.92-11.12A3.5,3.5,0,0,1,115.66,166.08Z" transform="translate(-18.23 -21.04)"/><path class="cls-32" d="M118.71,184.37c-5.44-3.28-7.59-8.62-9-14.42a2.49,2.49,0,0,1,1.9-1.31c3.22,2.87,3,7.83,6.41,10.55.51,1.2,1.76,1.68,2.56,2.6a2.35,2.35,0,0,1,.34,1.41A3.27,3.27,0,0,1,118.71,184.37Z" transform="translate(-18.23 -21.04)"/><path class="cls-8" d="M116.12,45.52c-4.71,3.19-9.13,2.92-13.36,3.46-.75.1-1.46,0-1.7-.84a1.47,1.47,0,0,1,1-1.73C106.28,44.51,110.64,44.34,116.12,45.52Z" transform="translate(-18.23 -21.04)"/><path class="cls-33" d="M51.37,128.55A2.67,2.67,0,0,0,52.61,131c1.49,3.9-1.21,6.92-2.15,10.31a14,14,0,0,0-1,2.67,19.21,19.21,0,0,1-.52,2c-.2.64-.41,1.28-.57,1.94a7.73,7.73,0,0,1-.87,2.61,2.2,2.2,0,0,1-1.23.64,1.88,1.88,0,0,1-1.26-.56l0-1.17c.6-.8.39-1.84.8-2.7.07-.54.13-1.08.2-1.62.66-.77.6-1.77.9-2.66.14-.59.29-1.19.44-1.78a3.28,3.28,0,0,0,.69-1.57C48.21,135.27,49.87,131.93,51.37,128.55Z" transform="translate(-18.23 -21.04)"/><path class="cls-34" d="M120.18,108.07v1.16c-1.05.73-2.4,1-3.25,2-2.05-1.3-1-3.11-.8-4.78.41-3.34.23-3.44-3.14-3.85s-7.11.74-10.47-1c1-1.41,2.55-1.45,4-1.56.89,0,1.78,0,2.67,0s1.74,0,2.61,0c2.25.1,4.55-.23,6.72.69C121.22,102.72,119.9,105.57,120.18,108.07Z" transform="translate(-18.23 -21.04)"/><path class="cls-35" d="M201.08,195.19l-.33-5.74c-.62-4.09-.11-8.19-.22-12.29-.1-3.78-.09-3.72-3.77-3.79-1.91,0-3.95.61-5.66-.83a80.38,80.38,0,0,1,12.12-.07c.5,7.4,1.05,14.8-.51,22.16a1.16,1.16,0,0,1-1.51.62Z" transform="translate(-18.23 -21.04)"/><path class="cls-36" d="M267.7,221.57c-4,.35-8.07.72-12.11,1.05-2.64.21-5.27.36-7.9.55-3.6-.9-7.54,1.13-11-1.26,1.47-2.41,3.95-2.06,6.19-2.13,4.07-.13,8.15-.09,12.22-.05,3.64.46,7.35-.32,11,.65A6.28,6.28,0,0,1,267.7,221.57Z" transform="translate(-18.23 -21.04)"/><path class="cls-37" d="M257.63,103.63l3.41.2c-.15.5-.14,1.26-.73,1.35-7,1.18-14,3.29-21.14.72-.52-1-2-1-2.28-2.26,4.27,1,8.53-.77,12.8-.06A15.38,15.38,0,0,1,257.63,103.63Z" transform="translate(-18.23 -21.04)"/><path class="cls-38" d="M61.37,215.93c1.26-.92.89-2.37,1.16-3.6,1.56,2.32.73,5,1.08,7.5a10.87,10.87,0,0,0,.77,2.61l.3,1.72a15.54,15.54,0,0,1-.14,8.12h0a1,1,0,0,1-1.47-.13l0,0c-1.14-1.76-.87-3.79-1.07-5.73a9.53,9.53,0,0,0-.83-3.18C60.33,220.75,59.1,218.28,61.37,215.93Z" transform="translate(-18.23 -21.04)"/><path class="cls-3" d="M69.94,248.72a101.53,101.53,0,0,1-3.28-15.33c1.45.85,1.58,2.5,1.82,3.79a9.48,9.48,0,0,0,4.52,7C71.34,245.51,69.49,246.52,69.94,248.72Z" transform="translate(-18.23 -21.04)"/><path class="cls-39" d="M61.14,130.68c.15.94.24,1.91,1.23,2.43a60.64,60.64,0,0,1-3.12,11.22c-.21-.94-.23-2-1.28-2.51a3.1,3.1,0,0,1-.87-2.35C58.16,136.41,57.63,132.62,61.14,130.68Z" transform="translate(-18.23 -21.04)"/><path class="cls-40" d="M118.1,180c-4.14-2.63-4.66-7.34-6.48-11.31l1.87-1c.72,4.31,3,7.86,5.45,11.37a2.26,2.26,0,0,0-.41.82Z" transform="translate(-18.23 -21.04)"/><path class="cls-41" d="M109.43,101.3l-2.47.07a6.94,6.94,0,0,0-5.35,0c-2.26.11-4.56.5-6.67-.74a6.2,6.2,0,0,1,2.78-2.28c4.21-.55,8.45-1.5,12.49.76C110.93,100.22,110.36,100.83,109.43,101.3Z" transform="translate(-18.23 -21.04)"/><path class="cls-42" d="M219.48,224.74l0-1.23c1.57-1.52,3.57-1.43,5.53-1.5,3.54.27,7.12-.31,10.63.45.86.44,1.92.47,2.59,1.27A96.71,96.71,0,0,1,219.48,224.74Z" transform="translate(-18.23 -21.04)"/><path class="cls-43" d="M238.26,223.73l-2.45-.41a.62.62,0,0,1-.31-.59c0-.23.06-.35.12-.35a.94.94,0,0,1,1-.06c3.65.63,7.45-.57,11,.85Z" transform="translate(-18.23 -21.04)"/><path class="cls-44" d="M269.56,220.45l10.17-.07c-3.21,2.2-6.75.83-10.15.9-.31-.18-.42-.36-.32-.55S269.45,220.45,269.56,220.45Z" transform="translate(-18.23 -21.04)"/><path class="cls-45" d="M280.55,100.4c-2.76,2.18-5.94.75-8.93,1C274.45,99.73,277.57,100.67,280.55,100.4Z" transform="translate(-18.23 -21.04)"/><path class="cls-10" d="M155.7,309.83c.44-.3.86-.84,1.26-.83,1.58,0,1.33,1.32,1.39,2.31s-.74.4-1,.36A1.79,1.79,0,0,1,155.7,309.83Z" transform="translate(-18.23 -21.04)"/><path class="cls-45" d="M266.35,101.63c-2.44,1.87-5.21.74-7.85.87C261,101.15,263.74,102,266.35,101.63Z" transform="translate(-18.23 -21.04)"/><path class="cls-45" d="M257.63,103.63l-7.94,0c2.5-1.63,5.28-.84,8-.89C257.65,103,257.64,103.31,257.63,103.63Z" transform="translate(-18.23 -21.04)"/><path class="cls-46" d="M64.55,232.27c0-2.7.09-5.41.13-8.12,1.47,2.57.72,5.41,1,8.13Z" transform="translate(-18.23 -21.04)"/><path class="cls-47" d="M116.92,111.25c.07-2.3,1.74-2,3.25-2,0,.29,0,.58,0,.87C119.23,110.85,118.3,111.69,116.92,111.25Z" transform="translate(-18.23 -21.04)"/><path class="cls-48" d="M101.61,101.41a4,4,0,0,1,5.35,0l-4.44.29A1.23,1.23,0,0,1,101.61,101.41Z" transform="translate(-18.23 -21.04)"/><path class="cls-49" d="M97.23,99.37c-.5.9-1.48.94-2.29,1.3l-2-.24c.53-.94,1.57-1,2.43-1.33A1.44,1.44,0,0,1,97.23,99.37Z" transform="translate(-18.23 -21.04)"/><path class="cls-50" d="M120.92,183.2l-.65-1.27c-.08-.6.17-.88.79-.77l1.41.89A1.86,1.86,0,0,1,120.92,183.2Z" transform="translate(-18.23 -21.04)"/><path class="cls-51" d="M269.56,220.45a7.85,7.85,0,0,1,0,.84l-1.88.28-1.37-.39a.67.67,0,0,1-.31-.59q0-.36.12-.36a1,1,0,0,1,1-.1Z" transform="translate(-18.23 -21.04)"/><path class="cls-52" d="M46.94,142.42c.1,1,.12,2-.9,2.67A3.48,3.48,0,0,1,46.94,142.42Z" transform="translate(-18.23 -21.04)"/><path class="cls-52" d="M45.85,146.71c.1,1,.16,2-.8,2.7,0-.7,0-1.4,0-2.1A2.13,2.13,0,0,0,45.85,146.71Z" transform="translate(-18.23 -21.04)"/><path class="cls-46" d="M64.38,222.43c-.92-.67-.88-1.63-.77-2.61A2.81,2.81,0,0,1,64.38,222.43Z" transform="translate(-18.23 -21.04)"/><path class="cls-52" d="M48.07,139.07l-.69,1.58Z" transform="translate(-18.23 -21.04)"/><path class="cls-18" d="M56.87,260.64c.1,3.51.22,7,.29,10.54,0,1.59-.39,2.82-2.39,2.49a128.74,128.74,0,0,0-3.49-26.73c-1.71-7.2-2.34-14.82-3.07-22.3.83-.6,0-2.73,2-2.2,2.73,3.23,2.72,7.37,3.23,11.17A215.94,215.94,0,0,0,57,255.33,9.24,9.24,0,0,1,56.87,260.64Z" transform="translate(-18.23 -21.04)"/><path class="cls-53" d="M44.85,204a.74.74,0,0,1-.14-.71c-.77-1.88.21-4-.78-5.84-2.13-14.33-1.07-28.64.2-43a10.76,10.76,0,0,1,.59-2c2.29,1.84,1.34,4.78,2.4,7a24.41,24.41,0,0,1,.08,8.65c-1.47,10.48.75,20.9.36,31.35C47.06,201.23,47.81,203.73,44.85,204Z" transform="translate(-18.23 -21.04)"/><path class="cls-9" d="M28.57,224.5c-1.54-1.87-3.9-2.91-1.38-5.77,1.39-1.59.44-5.45-1.3-7.06-.68-.61-1.63-.89-1-2a2.67,2.67,0,0,1,2.77-1.27c1,.07,1.81.5,1.55,1.67-.6,2.6.57,4.91,1.16,7.3C31,220,30.86,222.27,28.57,224.5Z" transform="translate(-18.23 -21.04)"/><path class="cls-54" d="M47,218.3c-1.48-2-.62-4.37-1.13-6.51-.4-1.34-.94-2.7.62-3.7,1.38.07,1.81,1.17,2.36,2.14a7.64,7.64,0,0,1,.48,1.61,9.63,9.63,0,0,1-.43,5A2.73,2.73,0,0,1,47,218.3Z" transform="translate(-18.23 -21.04)"/><path class="cls-55" d="M47,208.33c-1.27.86-.88,2.27-1.16,3.45-1.68-2.42-.79-5.18-1-7.8,1.76-1.15.9-3,1.24-4.55,2.59.57,2.16,2.75,2.45,4.55C48.44,205.57,48.43,207.2,47,208.33Z" transform="translate(-18.23 -21.04)"/><path class="cls-56" d="M47,218.3c.43-.43.85-.87,1.27-1.3a1,1,0,0,1,1.44.23h0a4.08,4.08,0,0,1,.16,3.95c-.84.69-1.07,1.82-1.8,2.6C46.74,222.15,47.17,220.16,47,218.3Z" transform="translate(-18.23 -21.04)"/><path class="cls-57" d="M45.89,159.24c-1.79-2-.34-4.6-1.17-6.8l.3-1.86h.9a5.85,5.85,0,0,1,1.52,4.35C47.38,156.52,47.3,158.12,45.89,159.24Z" transform="translate(-18.23 -21.04)"/><path class="cls-55" d="M43.93,197.43c1.67,1.75.77,3.85.78,5.83C43.41,201.46,43.71,199.44,43.93,197.43Z" transform="translate(-18.23 -21.04)"/><path class="cls-58" d="M48.07,223.78c.17-.9.23-1.86,1.17-2.39l.35.32-.12.46c-.26.9-.33,1.91-1.26,2.47A.86.86,0,0,1,48.07,223.78Z" transform="translate(-18.23 -21.04)"/><path class="cls-59" d="M69,261.7c1.57,1.37.89,3.21,1,4.88s-.6,3.5,1,4.88v2.27c-1.25.7.77,3.41-2,3.2l-.26-8.63C67.1,266.05,67.1,263.85,69,261.7Z" transform="translate(-18.23 -21.04)"/><path class="cls-60" d="M69,276.94c1.29-.68.66-2.53,2-3.2.14,1.8.27,3.6.4,5.41-.45.7-.56,1.9-1.77,1.58s-1-1.36-.93-2.22A8.45,8.45,0,0,1,69,276.94Z" transform="translate(-18.23 -21.04)"/><path class="cls-61" d="M69,261.7c-.09,2.2.57,4.42-.21,6.6-1.51,1.48-.74,3.38-1,5.1s.55,3.57-.79,5.23A12.26,12.26,0,0,1,62,277.28c-2.77-1.18-4.2-3.13-4-6.28.16-2.31,0-4.65,0-7,0-1.25.09-2.54-1.13-3.39-1.73-8-3.89-16-4.69-24.22-.46-4.79-1.78-9.5-2.71-14.24a.66.66,0,0,0-.23-.78l-.12-4c-.93-1.81.24-3.93-.84-5.73a1.22,1.22,0,0,1-.17-1c-1.08-2.09.08-4.44-.77-6.55-.4-1.54-.13-3.27-1.25-4.62a48.64,48.64,0,0,0-.22-9.11c-1.17-8.92-.66-17.85.07-26.77.12-1.43,0-2.87,0-4.3a8.12,8.12,0,0,0,.25-4.12c.89-1.42-.07-3.17.83-4.58a3.47,3.47,0,0,0,.23-2.68,3.32,3.32,0,0,1,.79-1.63c.11-.59.22-1.18.34-1.76a9.82,9.82,0,0,1,.88-2.63q1.7-5.43,3.4-10.86h0c1-.92,0-2.48,1.11-3.35a219.31,219.31,0,0,1,9.68-21.78C70.52,94.6,81.32,89.47,94,87.65a28.93,28.93,0,0,1,8.1.11c5.35.73,10.76,1,16.11,1.75,4,.54,4-2.63,5-5.8l13.38,14.52c-5.24,4.16-11.32,6.19-16.4,9.83-1.34-.08-1.71-.76-1.43-2,.34-1.48.8-3,.23-4.53-2.27-1.14-4.7-.28-7-.57a1.63,1.63,0,0,1-1.39-.63,42,42,0,0,0-13.32-.93l-1.9-.28c-9.1-1-16.49,1.54-21.83,9.51-4.72,7-9.65,13.93-12.36,22.08-1.07,3-2.13,6-3.21,9-.89,1-.21,2.44-.88,3.52-1,11.28-2.91,22.5-2.15,33.91a186.25,186.25,0,0,0,6.47,38.81c-.53,2.68.39,5.16,1.08,7.66a10.85,10.85,0,0,1,.85,2.62q.14,3,.26,6.08a2.08,2.08,0,0,1,.76,1.55C66.36,243.05,67.68,252.37,69,261.7Z" transform="translate(-18.23 -21.04)"/><path class="cls-62" d="M267.17,220.13l-.41-.07-.39.17c-3.58,1.54-7.49-.27-11.1,1.06-6.23-.08-12.47-.17-18.63,1l-.42-.08-.39.16c-3.6,1.55-7.53-.26-11.16,1.07l-5.16,0h-1.12c-4,1.57-8.26-.34-12.25,1.06l-3.79,0c-1.84-3-.81-6.27-.81-9.38,0-6.64-.6-13.3.37-19.93.07-5.71.13-11.42.23-17.12,0-1.93-.38-4,1.08-5.63,5.68-.5,10.72-3.4,16.27-4.41,4.45-2.13,9.39-1.2,14-2.24,12-1,23.85-2.69,33.73-3.46-8.27.9-18.67,1.55-29,3.22-2.77.51-5.64-.19-8.38.71-2.4-.72-5.71,2.6-7.33-1.64,3.94-2.56,7.59-5.42,10.09-9.5,2.21-1.75,5.19-1,7.54-2.33,3-.33,6,.3,8.87-.53,2,.06,3.92-.55,5.9-.64,3-.15,6.07.49,8.91-1.05-3.9,2-8.23.27-12.23,1.52-2-.18-3.9.64-5.88.58-2.66.12-5.37-.35-8,.69-1.87-.1-3-.72-2-2.84,1.72-3.59,4.8-4.33,8.49-4.57,7.58-.49,15.13-1.43,22.7-2.08,2.46-.21,3.61-1.42,3.66-3.8,0-1.45.05-2.9,0-4.35-.08-1.81-1.21-2.72-2.89-2.4-7,1.35-14.11.59-21.1,1.67-1.76.27-4.18,1.39-4.22-2.11,0-3.73.28-4.09,4.2-4.06,1.3.8,2.2-.8,3.4-.57a5,5,0,0,0,5.36-2.22,4.79,4.79,0,0,1,1-.88,2,2,0,0,1,1.27,0,5.8,5.8,0,0,1,1.19,1.38c.26.27.52.55.79.81s.6.43.92.63l1,.5a2,2,0,0,0,2.13-.49,3.79,3.79,0,0,0,.57-1.18,5.4,5.4,0,0,0-.08-4.23c.2,1.91.32,3.68-.86,5.21a2.3,2.3,0,0,1-2.88-.28,6,6,0,0,1-1.26-1.86c-.84-1.54-.07-3.62-1.63-4.91-.86-.13-1.71,0-2.56,0-1.5-.08-3.13-.93-4.28.81-1.3,1.85.89,5.33-2.84,6-1.55-2.72-1.78-6.26-5-7.94a1.33,1.33,0,0,1-.57-.87c-.7-4.38-3.19-8.32-3.14-12.88A163.64,163.64,0,0,0,261,103.81c2.18-.12,4.41.3,6.54-.49a11.46,11.46,0,0,1,1.31-.56,32.11,32.11,0,0,0,9-.35c2.81-.35,4.24.94,4.93,3.45a24,24,0,0,1,.08,9.81c-.48,10.89-.49,21.78-.11,32.68-.2,22.16-.6,44.31,0,66.47.45,1.47,1.15,3-.47,4.2C277.25,219.19,272.16,219,267.17,220.13Z" transform="translate(-18.23 -21.04)"/><path class="cls-63" d="M237.88,122.25c1.06,4.49,1.08,4.68-3.1,5.18-4.66.56-9.35.56-14,1.1-7,.8-14.06,1-21.09,1.47-3.78.28-3.93.5-4.13,4.11-.5,8.92.33,9.49,9.21,8.3s17.94-1.95,26.92-2.89a19.64,19.64,0,0,1,2.17,0c2.18,0,2.26,1.22,1.69,2.87-.85,2.46-2.17,4.18-5.13,3.76a11.23,11.23,0,0,0-2.17.08c-3.62,2.05-7.9.32-11.58,2-2.9.24-5.88-.24-8.68.92a8,8,0,0,1-1.62.23,32.13,32.13,0,0,0-7,.49c4-.8,8.13,0,12-1.45a34.38,34.38,0,0,0,9.8-1.09,33,33,0,0,1,9,.56c1.51.29,2.24,1.05,1.11,2.55-2.88,3.61-5.83,7.16-9.69,9.8-3.19,1.87-6.89,1.3-10.29,2.14-2.8.12-5.63.12-8.33,1.11a26.42,26.42,0,0,1,9-1c1.32,0,3-.07,2.91,2.1-7.9,3.73-16.25,4.89-24.9,4.41-4-.27-4.77-2.9-4.86-6.35-.55-19.56,1.81-39.05,1.18-58.6a6.18,6.18,0,0,1,1.83-5,25.66,25.66,0,0,1,12.51-2.38c5.94.14,11.74-1,17.58-1.79,2.71-.71,5.22.11,7.73,1a34.34,34.34,0,0,1,8.73,13.13c.63.61.39,1.59,1,2.23a1.44,1.44,0,0,1,.24.9c.46,1,.62,1.86-.42,2.57a1.59,1.59,0,0,1-1.31-.32,7.93,7.93,0,0,0-1.58-1.24c-3.38.4-1.8,3.77-4.64,6.16,4.13-.64,6.94-.68,8.91,1.72C237.23,121.5,237.55,121.88,237.88,122.25Z" transform="translate(-18.23 -21.04)"/><path class="cls-1" d="M184.17,167.79c-11-3.1-20.19-9-26.8-18.45-19.61-28.12-1.76-64.36,30.37-67.57,13.8-1.38,25.73,2.43,35.84,11.92-2.07,2.26-5.26.61-7.52,2.2-2.59.3-5.21,0-7.78.5-2.44-.56-6.84.8-4.41-4.55.85-1.87-.82-2.08-2-2.45a22.71,22.71,0,0,0-7.57-.68c-15.66.32-31.56,11.79-35.77,25.82-.61,2-1.55,4.12-.16,6.63,2.8-.5,3.2-3.11,4.19-5a43.7,43.7,0,0,1,16.1-17.34c2.29-1.41,5-2.9,6.94.71.49,12,.8,24.06-.3,36.11-.64,6.94.56,14,.26,21a25.27,25.27,0,0,0,0,5.36C185.33,164,186.46,166.31,184.17,167.79Z" transform="translate(-18.23 -21.04)"/><path class="cls-64" d="M184.17,167.79l.55-6.36a34,34,0,0,0,.39-4.73c-.83-17.72,1-35.41.56-53.13-.06-2.13-.33-4.49,2.38-5.48.88,0,1.19.4.92,1.24a5.77,5.77,0,0,0-1.24,4c.24,20.24-.79,40.45-1.28,60.67-.08,3,1.33,4.1,3.6,5A8.35,8.35,0,0,1,184.17,167.79Z" transform="translate(-18.23 -21.04)"/><path class="cls-65" d="M214.94,164.62c-2.77-2.05-5.81-.84-8.63-.4a21.68,21.68,0,0,1-8.38-.23c4-2.45,8.33-2.73,12.78-2.57,2.08,1.1,5.52-1.84,6.6,2.22Z" transform="translate(-18.23 -21.04)"/><path class="cls-66" d="M231.32,150.47c.09-1.62-.66-2.3-2.28-2.08a31.83,31.83,0,0,1-8.1.1,9.41,9.41,0,0,1-4.41.3,1,1,0,0,1-.5-1.24,1.28,1.28,0,0,1,.14-.23c3.91-1.56,8-.8,12.05-1.1.7,1,1.83.69,2.77,1C233.32,148,233,149.21,231.32,150.47Z" transform="translate(-18.23 -21.04)"/><path class="cls-67" d="M233.64,166.75c-4.71.53-9.36,1.68-14.15,1.32.06-2,1-3.23,3.08-3.42,2.25,2.12,5.05.25,7.48,1a5.62,5.62,0,0,1,3.27-.31.88.88,0,0,1,.45,1.16A.74.74,0,0,1,233.64,166.75Z" transform="translate(-18.23 -21.04)"/><path class="cls-68" d="M217.31,163.64c-.77-1.28-2-1.18-3.27-1.16s-2.5.2-3.33-1c3.55-1.25,7.27-.84,10.92-1.16Z" transform="translate(-18.23 -21.04)"/><path class="cls-69" d="M216.11,94.84c2.33-1.44,5.06-.26,7.47-1.15L226,96l-7.49.23C217.24,96.6,216,97,216.11,94.84Z" transform="translate(-18.23 -21.04)"/><path class="cls-70" d="M235.8,150.56c-.1,1.47.56,2.16,2,2,1.23-.37,2.53-.86,2.34,1.31-2.39,1.18-5.11.3-7.53,1.27Z" transform="translate(-18.23 -21.04)"/><path class="cls-71" d="M237.88,122.25l-1.09-.15c-.52-2.56-3.92-4.4-1.9-7.59.83-.54.83-1.46,1.06-2.28a3.66,3.66,0,0,1,1.19,2.31c.36.74.24,1.64.76,2.32Z" transform="translate(-18.23 -21.04)"/><path class="cls-72" d="M249.86,128.87c-1.08.3-2.16,2.1-3.24,0l1.26-1.29c1.29-.81,1-2.13,1.11-3.34.1-1.56-.33-3.22.83-4.59a4,4,0,0,1,1.54,3.22c.06,1.85.18,3.7-.8,5.4Z" transform="translate(-18.23 -21.04)"/><path class="cls-73" d="M245,125.45c0,1-.66,1.14-1.4,1.13s-.89-.5-.87-1.07c0-.77.36-1.58,1.13-1.6S244.8,124.77,245,125.45Z" transform="translate(-18.23 -21.04)"/><path class="cls-71" d="M235.71,111.33a2.06,2.06,0,0,1-1-2.23A2.19,2.19,0,0,1,235.71,111.33Z" transform="translate(-18.23 -21.04)"/><path class="cls-74" d="M237.9,116.86a2.4,2.4,0,0,1-.77-2.32A2.26,2.26,0,0,1,237.9,116.86Z" transform="translate(-18.23 -21.04)"/><path class="cls-61" d="M246.61,263.8l-62.79-.13c-4.67-.92-9.39-.41-14.08-.5-7.61-.15-15.22,0-22.83-.2a12.9,12.9,0,0,1-11.39-8.64c-1.48-5-.1-9.85,3.92-12.57a17.1,17.1,0,0,1,9.78-2.67c4.88,0,9.77-.12,14.66-.18a54,54,0,0,0,10.48.06c5.2.95,10.46.36,15.68.39,17.56.09,35.11.12,52.67,0,3.72,0,5.5,1.11,5.09,4.9-.69,6.27,1.66,12.6-.42,18.83Z" transform="translate(-18.23 -21.04)"/><path class="cls-1" d="M57.05,143.2c-.13-1.28-.4-2.59.89-3.52l0,2.14Z" transform="translate(-18.23 -21.04)"/><path class="cls-75" d="M249.07,253.26c1.13-3.35.43-6.81.55-10.21.09-2.29.95-3.24,3.25-3.19,4.89.11,9.78-.11,14.65.14a13,13,0,0,1,12,12.48,10.35,10.35,0,0,1-9.07,10.4c-1.06.15-2.18-.06-3.12.66-5.67,2-11.51.35-17.26.83C246.17,261,247.58,257.13,249.07,253.26Z" transform="translate(-18.23 -21.04)"/><path class="cls-76" d="M249.07,253.26c.74,3.5-.78,7.18.91,10.6.37.24.49.48.36.7s-.26.34-.39.34l-3.15,0c-.07-.38-.13-.76-.19-1.13l-.05,0c1.64-5.94.3-12,.73-18,.17-2.3-.4-4.64.35-6.91l1.32,0A110.45,110.45,0,0,0,249.07,253.26Z" transform="translate(-18.23 -21.04)"/><path class="cls-77" d="M250,264.9c0-.35,0-.7,0-1l17.37-.32.06,1.4Z" transform="translate(-18.23 -21.04)"/><path class="cls-23" d="M247.64,238.85c.65,7.41.16,14.84.27,22.26,0,1.1-.06,2.2-1.35,2.66.66-6.87.21-13.75.43-20.62.07-2.25-.75-3.35-3.12-3.27-2.72.08-5.44,0-8.16,0l-55.45-.31c-2,0-4,.34-5.89-.57,4.87-.08,9.75-.23,14.64-.23Q218.32,238.76,247.64,238.85Z" transform="translate(-18.23 -21.04)"/><path class="cls-78" d="M282.32,219c.16-1.4.31-2.8.47-4.2.31,0,.61,0,.92,0C283.61,216.33,284.57,218.21,282.32,219Z" transform="translate(-18.23 -21.04)"/><path class="cls-46" d="M64.32,233.84a1.61,1.61,0,0,1-.75-1.56h1C64.46,232.8,64.39,233.32,64.32,233.84Z" transform="translate(-18.23 -21.04)"/><path class="cls-33" d="M53.71,127.64A4.21,4.21,0,0,1,52.6,131C52.56,129.74,52.35,128.43,53.71,127.64Z" transform="translate(-18.23 -21.04)"/><path class="cls-79" d="M201.91,195.22c0,7.6.06,15.21.14,22.82,0,2.16.19,4.33.3,6.5-1.75-.72-1.45-2.28-1.44-3.66,0-8.56.11-17.12.17-25.68Z" transform="translate(-18.23 -21.04)"/><path class="cls-80" d="M206.14,224.58c4-1.72,8.19-.5,12.25-1.07-1.87,2-4.29.94-6.47,1.1C210,224.76,208.07,224.6,206.14,224.58Z" transform="translate(-18.23 -21.04)"/><path class="cls-81" d="M282.87,115.68l-.08-9.81c2,2.34.59,5.14,1.08,7.68A2.35,2.35,0,0,1,282.87,115.68Z" transform="translate(-18.23 -21.04)"/><path class="cls-37" d="M268.9,102.77l-1.31.56Z" transform="translate(-18.23 -21.04)"/><path class="cls-82" d="M121.06,181.15l-.79.78a4,4,0,0,1-2.17-2l.29-.08a.7.7,0,0,1,1,0l0,0A1.92,1.92,0,0,1,121.06,181.15Z" transform="translate(-18.23 -21.04)"/><path class="cls-83" d="M119.42,179.86l-.52,0-.51,0c-.15-.5.15-.74.55-.91A1.43,1.43,0,0,1,119.42,179.86Z" transform="translate(-18.23 -21.04)"/><path class="cls-52" d="M47,150.55a6.18,6.18,0,0,1-.83,4.57l-.21-4.54C46.27,150.56,46.62,150.55,47,150.55Z" transform="translate(-18.23 -21.04)"/><path class="cls-52" d="M49.2,141.85a3.65,3.65,0,0,1-.88,2.62C48.23,143.47,48.22,142.49,49.2,141.85Z" transform="translate(-18.23 -21.04)"/><path class="cls-52" d="M48,146.24l-.78,1.62Z" transform="translate(-18.23 -21.04)"/><path class="cls-84" d="M111.44,100.39c2.52.31,5.31-1.16,7.54,1.12l-7.57-.05c-.33-.24-.43-.48-.32-.72S111.33,100.39,111.44,100.39Z" transform="translate(-18.23 -21.04)"/><path class="cls-48" d="M111.44,100.39a9.49,9.49,0,0,1,0,1.07l-2-.16,1.12-1A.89.89,0,0,1,111.44,100.39Z" transform="translate(-18.23 -21.04)"/><path class="cls-85" d="M255.27,221.29c3.54-2,7.41-.63,11.1-1.06,0,.32,0,.63,0,1Z" transform="translate(-18.23 -21.04)"/><path class="cls-46" d="M63.31,226.2a3,3,0,0,1-.86-2.61A2.43,2.43,0,0,1,63.31,226.2Z" transform="translate(-18.23 -21.04)"/><path class="cls-86" d="M224.67,223.47c3.56-2.05,7.43-.77,11.16-1.07,0,.31,0,.62,0,.92Z" transform="translate(-18.23 -21.04)"/><path class="cls-2" d="M47.34,204c1.52,2,.64,4.36.77,6.56L47,208.33C47.12,206.9,47.23,205.47,47.34,204Z" transform="translate(-18.23 -21.04)"/><path class="cls-2" d="M48.28,211.63c1.68,1.7.81,3.78.84,5.73a6.5,6.5,0,0,1-.86-.36Z" transform="translate(-18.23 -21.04)"/><path class="cls-87" d="M233.64,166.75c0-.31,0-.63,0-.94,1.22-1.23,3.2.25,4.35-1.22,5.19-1.69,10.68-.89,16-2,3.85-.8,7.86-.85,11.8-1.22a7.23,7.23,0,0,1,4.24.35C266.92,163.73,244.55,166.8,233.64,166.75Z" transform="translate(-18.23 -21.04)"/><path class="cls-88" d="M228.24,204.13c9.08-.7,18.08-2.44,27.23-2.26a.9.9,0,0,1-.1,1.27l-.18.12c-2,.61-4.36-.71-6.23.94-5.31,1.09-10.69,1.06-16.06,1C231.25,205.25,229.25,206.8,228.24,204.13Z" transform="translate(-18.23 -21.04)"/><path class="cls-89" d="M272.11,117.63a3.6,3.6,0,0,1,1.24.69.85.85,0,0,1-.1,1.2,1,1,0,0,1-.23.13c-1.56.58-2.24,1.23-.38,2.28,1.08.61,1.28,1.63,1.59,2.68s1.11,2.33-.28,3.38a3.52,3.52,0,0,1-3.54.66c-.84-.32-1.76-.89-1.63-1.9.19-1.48,1.23-.77,2-.53s1.39,0,1.63-.8c.18-.62-.25-1-.68-1.35s-1.23-.73-1.83-1.12a2.65,2.65,0,0,1-1.33-3.21C269.1,118.16,270.39,117.62,272.11,117.63Z" transform="translate(-18.23 -21.04)"/><path class="cls-90" d="M214.07,179a100.63,100.63,0,0,1,19.38-1.37c1.29.23,2.75,0,3.63,1.32-5.3,1.56-10.76,1-16.17,1.15C218.58,180.07,215.94,182,214.07,179Z" transform="translate(-18.23 -21.04)"/><path class="cls-91" d="M250.15,123.45l-.33-3.8c2-1.85,3.8-.9,5.56.43a4.69,4.69,0,0,1,1.2,5.41c-1.68,4.84-2.65,5.32-6.72,3.38a3.08,3.08,0,0,0,.42-.39c.68-1-.33-2.61,1.2-3.23a1.61,1.61,0,0,0,.28.24c.2,0,.3-.12.27-.3s-.13-.2-.35-.22a1.38,1.38,0,0,1-.14-.93c.11-.43.3-.94-.47-.4l-.5.09Z" transform="translate(-18.23 -21.04)"/><path class="cls-92" d="M241.28,176.84c5.67-1.34,11.45-1.39,17.24-1.38,1,.18,2.12.26,2.65,1.4-5,1.28-10.06,1.15-15.13,1a9.26,9.26,0,0,1-4.34.33.88.88,0,0,1-.57-1.11A.76.76,0,0,1,241.28,176.84Z" transform="translate(-18.23 -21.04)"/><path class="cls-93" d="M252,151.45c5.68-1.33,11.39-2.08,17.23-1.15-4.41,2.08-9.07,2.4-13.78,2.34C254.47,151.62,252.77,152.8,252,151.45Z" transform="translate(-18.23 -21.04)"/><path class="cls-94" d="M242.41,189.8c3.56-1.34,7.28-.71,10.94-.87,1.4.83,3.22-.35,4.52,1-3.84,2-8,.59-12,1.18C244.56,191.07,242.71,192.53,242.41,189.8Z" transform="translate(-18.23 -21.04)"/><path class="cls-95" d="M262.71,127.38c1.34-2.8,0-6,1.1-9.13,2.82,3.94,2.88,6.79.42,10.54A1.66,1.66,0,0,1,262.71,127.38Z" transform="translate(-18.23 -21.04)"/><path class="cls-96" d="M262.71,127.38l1.52,1.41h0a4.34,4.34,0,0,1-3.74.14.66.66,0,0,1-.65-.23,6.14,6.14,0,0,1-1-1.07l-.31.07c-.37-.73-.3-1.62-.82-2.29h0a5.16,5.16,0,0,1,0-6.42c1.33-.08,1.92.61,2,1.87.07,1.41.17,2.81.26,4.22a3,3,0,0,0,.75,1.45A2.66,2.66,0,0,0,262.71,127.38Z" transform="translate(-18.23 -21.04)"/><path class="cls-97" d="M242.41,189.8c.81,1.35,2.27.95,3.46,1.27-3.29,1.48-6.74.55-10.11.7-1.38-.93-3.25.34-4.53-1C234.82,188.78,238.68,190.06,242.41,189.8Z" transform="translate(-18.23 -21.04)"/><path class="cls-98" d="M226.26,192.1c-3.9,2-7.89.69-11.88.4,2.13-2.36,4.84-1.25,7.31-1.46C223.07,192,225,190.71,226.26,192.1Z" transform="translate(-18.23 -21.04)"/><path class="cls-99" d="M228.24,204.13c1.3,1.45,3.1.7,4.65,1.09-2.88,1.79-6,.66-9.1.92-.86-1.17-2.71.19-3.44-1.32C222.86,203.27,225.58,204.06,228.24,204.13Z" transform="translate(-18.23 -21.04)"/><path class="cls-100" d="M262.8,201.61c3.16-1.92,6.43-.65,9.7-.5-1.71,2.3-4.11,1.23-6.2,1.54C265.27,201.86,263.7,202.88,262.8,201.61Z" transform="translate(-18.23 -21.04)"/><path class="cls-101" d="M240.19,153.89c-.45-1-1.42-1.12-2.34-1.31,2.47-1.59,5.2-.62,7.81-.79,1,.86,2.54-.13,3.43,1C246.31,154.75,243.16,153.57,240.19,153.89Z" transform="translate(-18.23 -21.04)"/><path class="cls-102" d="M220.35,204.82c1.19.35,2.67-.09,3.45,1.32a13.52,13.52,0,0,1-9.64-.26C216.65,204.49,218.59,205.08,220.35,204.82Z" transform="translate(-18.23 -21.04)"/><path class="cls-103" d="M226.26,192.1c-1.51-.41-3.3.39-4.57-1.06,3.16-.73,6.36-.33,9.54-.3,1.5.38,3.26-.4,4.53,1C232.62,192.57,229.43,192.13,226.26,192.1Z" transform="translate(-18.23 -21.04)"/><path class="cls-104" d="M257.87,189.89c-1.5-.36-3.22.38-4.52-.95,3.15-.79,6.36-.26,9.54-.41a8.83,8.83,0,0,1,4.24-.25.84.84,0,0,1,.45,1.1,1.05,1.05,0,0,1-.22.3A35.9,35.9,0,0,1,257.87,189.89Z" transform="translate(-18.23 -21.04)"/><path class="cls-105" d="M241.27,177.8l4.76.11c-2.8,1.87-6,.73-8.95,1.07-1.32-.14-2.76,0-3.63-1.32l.12.06A13,13,0,0,1,241.27,177.8Z" transform="translate(-18.23 -21.04)"/><path class="cls-106" d="M257.72,119v6.42l-1.16.09c-1.52-1.56-1-3.56-1.19-5.41Z" transform="translate(-18.23 -21.04)"/><path class="cls-107" d="M262.8,201.61c1.19.28,2.57-.1,3.5,1-2.47.62-5,.29-7.46.26a3,3,0,0,1-3.36,0c0-.33,0-.66,0-1C257.9,201.3,260.35,201.56,262.8,201.61Z" transform="translate(-18.23 -21.04)"/><path class="cls-108" d="M261.17,176.86a3.27,3.27,0,0,1-2.65-1.4l.14.08c2.84-.95,5.76-.22,8.63-.45.95.06,2-.2,2.69.71C267.23,177.67,264.09,176.33,261.17,176.86Z" transform="translate(-18.23 -21.04)"/><path class="cls-109" d="M255.48,202.86l3.37,0c-3.09,2.07-6.63.61-9.89,1.29C250.73,201.79,253.31,203.3,255.48,202.86Z" transform="translate(-18.23 -21.04)"/><path class="cls-110" d="M249.09,152.82c-1.18-.22-2.54.16-3.43-1,2.07-.67,4.19-.35,6.29-.34,1.16.39,2.63-.15,3.45,1.2Z" transform="translate(-18.23 -21.04)"/><path class="cls-111" d="M267.43,188.7l-4.54-.17c3-1.14,6.08-2.16,9,.2A4.73,4.73,0,0,1,267.43,188.7Z" transform="translate(-18.23 -21.04)"/><path class="cls-92" d="M267.43,175.62l-8.77-.09c2.74-1.91,5.86-.62,8.78-1,.37.25.49.5.36.74S267.56,175.62,267.43,175.62Z" transform="translate(-18.23 -21.04)"/><path class="cls-112" d="M214.07,179c2.05,1.8,4.59.53,6.84,1.1-2.24,1.54-4.75,1.23-7.1.65C212.66,180.49,213,179.49,214.07,179Z" transform="translate(-18.23 -21.04)"/><path class="cls-113" d="M238,164.59c-1.07,1.77-2.84,1-4.35,1.22l-3.58-.12C232.5,164,235.33,164.92,238,164.59Z" transform="translate(-18.23 -21.04)"/><path class="cls-90" d="M241.27,177.8l-7.7-.08c2.4-1.79,5.1-.87,7.7-.88Z" transform="translate(-18.23 -21.04)"/><path class="cls-114" d="M267.43,175.62c0-.37,0-.74,0-1.11,1-.24,2.17-.58,3.05,0s.18,1-.51,1.26Z" transform="translate(-18.23 -21.04)"/><path class="cls-115" d="M267.43,188.7l4.5,0c-1.23,1.7-3,.93-4.57.94C267.39,189.35,267.42,189,267.43,188.7Z" transform="translate(-18.23 -21.04)"/><path class="cls-95" d="M260.47,128.93l3.74-.14C263,130.08,261.76,130,260.47,128.93Z" transform="translate(-18.23 -21.04)"/><path class="cls-106" d="M257.72,125.41a2.28,2.28,0,0,1,.82,2.29A2.2,2.2,0,0,1,257.72,125.41Z" transform="translate(-18.23 -21.04)"/><path class="cls-95" d="M260.7,126.52a1.58,1.58,0,0,1-.75-1.45Z" transform="translate(-18.23 -21.04)"/><path class="cls-95" d="M258.84,127.63l1,1.07A1.17,1.17,0,0,1,258.84,127.63Z" transform="translate(-18.23 -21.04)"/><path class="cls-116" d="M216.11,94.84c.49,1,1.45,1.2,2.42,1.36-4.8,1.33-9.75,1.52-14.68,1.89s-9.92.82-14.88,1.24l-.05-1.11a3.14,3.14,0,0,1,1.79-2c5.36-2.55,11-.77,16.58-1.24Z" transform="translate(-18.23 -21.04)"/><path class="cls-117" d="M200,117.71c2.44,4.35,1.93,6.57-1.7,7.47a3,3,0,0,1-3-.67c-.67-.64-1.33-1.4-.74-2.35s1.25-.18,1.82.14c1,.57,1.74.35,2.13-.7a1.53,1.53,0,0,0-.63-1.9c-.75-.5-1.58-.87-2.36-1.33a2.73,2.73,0,0,1-1.33-3.63l0-.07a3.12,3.12,0,0,1,3.28-2.32c2.08.13,2.88,1.27,2.37,3.31C198.07,116.46,199.36,117.06,200,117.71Z" transform="translate(-18.23 -21.04)"/><path class="cls-74" d="M234.89,114.51c-.1,2.71,3.22,4.57,1.9,7.59-3-2.35-6.09-2.68-9.53.72-.13-4.66,1.76-7.91,3.31-11.12.94-1.92,2.35-.68,3.23.66.28.42.55.86.79,1.31A1.93,1.93,0,0,0,234.89,114.51Z" transform="translate(-18.23 -21.04)"/><path class="cls-118" d="M210.46,113.4a5.31,5.31,0,0,1-.2,1c-1.33,2.89-3.5,5.56-2.11,9.11.1.25-.49,1-.9,1.17a1.1,1.1,0,0,1-1.49-.47,1,1,0,0,1-.12-.42c0-3.69-2-6.44-3.95-9.22a1,1,0,0,1,.23-1.45,1.06,1.06,0,0,1,1.44-.09,2.86,2.86,0,0,1,.8.71c1.5,2.18,2.72,1.88,3.89-.31a1.44,1.44,0,0,1,1.79-.83C210.1,112.74,210.26,113.14,210.46,113.4Z" transform="translate(-18.23 -21.04)"/><path class="cls-119" d="M217.31,122.08c1.91-1.22,1.21-3.17,1.33-4.88s-.16-3.5,1.3-5.4a6.15,6.15,0,0,1,.79,4.8c-.39,3,.69,4.7,4.06,5.09-2.24,3.36-5,1.74-7.43,1.91A1.16,1.16,0,0,1,217.31,122.08Z" transform="translate(-18.23 -21.04)"/><path class="cls-120" d="M217.31,122.08c0,.5,0,1,.05,1.51-4.06,1-4.9.71-5.17-2.55-.24-2.7-.66-5.55,1-9C214.94,115.91,213,120.36,217.31,122.08Z" transform="translate(-18.23 -21.04)"/><path class="cls-121" d="M211,149.61c-4.08,1.73-8.55.64-12.73,1.76a1.53,1.53,0,0,1-1.92-1,1.28,1.28,0,0,1-.07-.34c0-1,1-1.32,1.94-1.48a32,32,0,0,1,8.12-.23C207.71,149.48,209.91,147.59,211,149.61Z" transform="translate(-18.23 -21.04)"/><path class="cls-122" d="M211,149.61c-1.57-.39-3.47.43-4.66-1.29a1.13,1.13,0,0,1,.81-.06,18.17,18.17,0,0,1,9,.11l4.77.12C217.81,150.4,214.33,149.24,211,149.61Z" transform="translate(-18.23 -21.04)"/><path class="cls-121" d="M216.17,148.37l-9-.11c2.85-1.78,6-.69,9-.94C216.18,147.67,216.18,148,216.17,148.37Z" transform="translate(-18.23 -21.04)"/><path class="cls-123" d="M200,117.71c-.33-.09-.76-.09-1-.3-.79-.78-3.1-.13-2.59-1.7.66-2.06,2.23-.32,3.41-.06Z" transform="translate(-18.23 -21.04)"/><path class="cls-71" d="M234.59,113.67a1.4,1.4,0,0,1-.79-1.31A1.42,1.42,0,0,1,234.59,113.67Z" transform="translate(-18.23 -21.04)"/><path class="cls-124" d="M207.29,95c-5.65,1.41-11.49,1.27-17.21,2.11l-.5,0c-.72-.57-.45.66-.94.52a7.4,7.4,0,0,0-1.53.5,11.08,11.08,0,0,1-1.57.61,1,1,0,0,1-.93-.48c-4-.2-6.82,2.41-9.52,4.69-5,4.23-9.35,9.1-12,15.25-.72,1.64-1.27,3.46-2.81,4.58-.85.62-1.82,1.35-3,.74a2.43,2.43,0,0,1-1.1-2.33,19.56,19.56,0,0,1,.65-5.9c4.43-15,15.52-22.62,29.62-26.77,6.72-2,13.55-2.14,20.1,1.13.22,2.27-2.28,2.77-2.66,4.6C204.76,95.57,206.19,94.65,207.29,95Z" transform="translate(-18.23 -21.04)"/><path class="cls-125" d="M186.71,97.27l2.12-.22a.85.85,0,0,1,1.11,0l.14,0-1.16,1.08a3.57,3.57,0,0,0-2.21,3.45c0,1.45-.06,2.9,0,4.35.45,17.41-1.5,34.76-1.27,52.16-.28.51-.55.5-.82,0-.86-20-.68-40,0-59.93a2.35,2.35,0,0,0,.87-.16A5.69,5.69,0,0,0,186.71,97.27Z" transform="translate(-18.23 -21.04)"/><path class="cls-126" d="M184.6,158.17h.82c.19,1.17.35,2.34-.7,3.25C184,160.37,183.54,159.3,184.6,158.17Z" transform="translate(-18.23 -21.04)"/><path class="cls-127" d="M252.22,125.52c-1.53.41-.77,2.32-1.94,3-.05-1.68-.09-3.35-.13-5a2.63,2.63,0,0,1,.79-.09,1.74,1.74,0,0,1,1.22.77l.06,1.39Z" transform="translate(-18.23 -21.04)"/><path class="cls-128" d="M267.56,248.44c.3.44.81.86.85,1.32.16,1.77,0,3.6.3,5.33s2.74,2.33,2.79,4.29c-.22.5-.58.7-.9.42-2.44-2.16-4.93-4-8.54-3.29a2.68,2.68,0,0,1-2.34-1.15,1.19,1.19,0,0,1-.31-.88q.06-.48.15-.48c2.41-.91,5.84-.36,6.21-4.27A2.64,2.64,0,0,1,267.56,248.44Z" transform="translate(-18.23 -21.04)"/><path class="cls-129" d="M260,253.67c-.09.56-.19,1.13-.29,1.69-3.86-4-3.91-4.5-1-8.88,1-.82,1.77-.6,2.42.43C260.57,249.12,260.59,251.45,260,253.67Z" transform="translate(-18.23 -21.04)"/><path class="cls-130" d="M261,247.13a3,3,0,0,0-2.2-.65c2.2-1.87,4.44-1.75,6.72-.14a2.59,2.59,0,0,1-1.64,1.86C262.68,248.4,261.53,248.56,261,247.13Z" transform="translate(-18.23 -21.04)"/><path class="cls-131" d="M264.11,247.4l1.38-1.05a3,3,0,0,1,2.07,2.09l-1,1.27A2.55,2.55,0,0,1,264.11,247.4Z" transform="translate(-18.23 -21.04)"/><path class="cls-132" d="M252.17,124.13l-1.23-.77c0-.35.06-.7.1-1,.1-.88.23-2,1.38-1.71s1,1.31.58,2.19A14.22,14.22,0,0,1,252.17,124.13Z" transform="translate(-18.23 -21.04)"/><path class="cls-133" d="M252.22,125.52c.8.14,1.92-.06,1.85,1.22,0,.74-.78,1.41-1.4,1.12-.95-.44-.53-1.5-.45-2.34Z" transform="translate(-18.23 -21.04)"/><path class="cls-134" d="M233.28,116.79c-.21.92-.86,1.06-1.61.88a1,1,0,0,1-.87-1.13c.12-.72.57-1.39,1.37-1.3S233.25,116,233.28,116.79Z" transform="translate(-18.23 -21.04)"/><path class="cls-116" d="M186.71,97.27a1.26,1.26,0,0,1-1.23.81,1,1,0,0,1,1.06-.84A.86.86,0,0,1,186.71,97.27Z" transform="translate(-18.23 -21.04)"/><path class="cls-116" d="M189.94,97.09l-1.11,0C189.21,96.59,189.59,96.5,189.94,97.09Z" transform="translate(-18.23 -21.04)"/><path class="cls-135" d="M264.11,247.4l2.41,2.31c-.34,5.63-1.08,6.08-6.51,4-1.31-2.42-1.89-4.73,1-6.54Z" transform="translate(-18.23 -21.04)"/></svg>