<svg id="Layer_1" data-name="Layer 1" xmlns="http://www.w3.org/2000/svg" viewBox="0 0 466.73 444.58"><defs><style>.cls-1{fill:#2757cd;}.cls-2{fill:#224fbf;}.cls-3{fill:#133595;}.cls-4{fill:#ef691c;}.cls-5{fill:#f5f0b8;}.cls-6{fill:#fefeff;}.cls-7{fill:#ed691e;}.cls-8{fill:#fffdfd;}.cls-9{fill:#fdfdfe;}.cls-10{fill:#153695;}.cls-11{fill:#1e429b;}.cls-12{fill:#2757cc;}.cls-13{fill:#304fad;}.cls-14{fill:#172d8a;}.cls-15{fill:#2e4faf;}.cls-16{fill:#2e52b0;}.cls-17{fill:#1a41a8;}.cls-18{fill:#3e46a2;}.cls-19{fill:#353e9b;}.cls-20{fill:#cdc4a8;}.cls-21{fill:#3f4ca8;}.cls-22{fill:#6385c7;}.cls-23{fill:#e9e9b9;}.cls-24{fill:#3b66bc;}.cls-25{fill:#f9fafe;}.cls-26{fill:#f0f5fb;}.cls-27{fill:#2456cb;}.cls-28{fill:#c9a4cf;}.cls-29{fill:#b3ecf5;}.cls-30{fill:#a2cee5;}.cls-31{fill:#9a8fc5;}.cls-32{fill:#ab92c5;}.cls-33{fill:#8a9fc3;}.cls-34{fill:#345fcf;}.cls-35{fill:#426bd3;}.cls-36{fill:#4069d2;}.cls-37{fill:#2d5bce;}.cls-38{fill:#325ecf;}.cls-39{fill:#5a7bd7;}.cls-40{fill:#3864d1;}.cls-41{fill:#5379d7;}.cls-42{fill:#5b7fd9;}.cls-43{fill:#6786db;}.cls-44{fill:#5a7fd9;}.cls-45{fill:#718edd;}.cls-46{fill:#6887db;}.cls-47{fill:#4d76d6;}.cls-48{fill:#f3f6fc;}.cls-49{fill:#f4f7fc;}.cls-50{fill:#f5f8fd;}.cls-51{fill:#e3eaf6;}.cls-52{fill:#2b49a3;}.cls-53{fill:#d9e4f7;}.cls-54{fill:#28429c;}.cls-55{fill:#334ea2;}.cls-56{fill:#24449c;}.cls-57{fill:#e7edf7;}.cls-58{fill:#1f3f9e;}.cls-59{fill:#2e5eaa;}</style></defs><path class="cls-1" d="M476.86,343.73c-4.82,8.8-11.18,16.51-17.32,24.37-6.5,8.32-14.11,15.63-21.74,22.87a243.54,243.54,0,0,1-49.71,35.94,268.72,268.72,0,0,1-42.28,18.68c-15.44,5.38-31.38,8.85-47.52,11.62-19.28,3.31-38.65,3.4-58.05,2.93-8.84-.21-17.64-1.78-26.42-3.12a264,264,0,0,1-59.16-16.34,239.76,239.76,0,0,1-66-39.7,220.07,220.07,0,0,1-45.28-51.85,204.72,204.72,0,0,1-29-79.17,196.43,196.43,0,0,1-1.64-42.32A200.65,200.65,0,0,1,25.33,171a227.39,227.39,0,0,1,21.32-42.21A237.26,237.26,0,0,1,102.2,69.56a250.81,250.81,0,0,1,66.64-36.43A281.78,281.78,0,0,1,229,18.29c6.07-.81,12.24-1.32,18.4-1.62,6.51-.31,13-1,19.54-.88,34,.83,67,6.76,98.73,19.47a242.18,242.18,0,0,1,62.8,36.6c17.86,14.45,33.57,31,46.09,50.42.49.76.86,1.59,1.3,2.39.74,1.09,1.33,2.28,2.14,3.33h0c1,1.69.52,3.55.52,5.32q0,101.48,0,202.94c0,1.78.45,3.63-.51,5.33h0C477.3,342.14,477.57,343.19,476.86,343.73Z" transform="translate(-12.33 -15.77)"/><path class="cls-2" d="M478,341.6q0-106.8,0-213.6l.93,0c.05,1.27.16,2.53.16,3.8q0,102.77,0,205.52c0,1.45-.11,2.89-.17,4.34Z" transform="translate(-12.33 -15.77)"/><path class="cls-2" d="M478,128a3.8,3.8,0,0,1-2.14-3.32A4.06,4.06,0,0,1,478,128Z" transform="translate(-12.33 -15.77)"/><path class="cls-2" d="M476.86,343.73a3.16,3.16,0,0,1,1.12-2.14A3,3,0,0,1,476.86,343.73Z" transform="translate(-12.33 -15.77)"/><path class="cls-3" d="M409.49,375.26a14.38,14.38,0,0,1,7.86,3.44c3,2.48,2.85,4.67-.27,7.07-3.41,2.61-7.49,3.7-11.54,4.62a265.2,265.2,0,0,1-38.64,5.83c-11.56.89-23.13,1.45-34.68,2.32-13.24,1-26.46.71-39.69.83-18.83.18-37.67.29-56.5-.27-9.74-.29-19.53-.58-29.27-1.66-6.64-.73-13.36-.66-20-1.28-20.21-1.87-40.37-4-60.16-8.7a85.72,85.72,0,0,1-8.32-2.52,24,24,0,0,1-4.9-2.35c-5-3.16-4.83-6.59.32-9.25a45.76,45.76,0,0,1,5-2c2.2-.82,4.42-1.6,6.64-2.4,2.77.61,2,2.9,2.15,4.69.17,1.61.82,2.82,2.5,3,2,.26,2.86-1.06,3.26-2.81.76-3.27.79-6.9,4.4-8.75,8.7-3,17.87-3,26.83-3.86,19.13-1.76,38.31-3,57.55-2.47a14.57,14.57,0,0,1,3.23.25c3.81,1.72,3.61,5.44,4.17,8.68.39,2.29.32,4.64,1.17,6.86.63,1.64,1.46,3.05,3.46,2.58s2.52-2,2.22-3.75a42.42,42.42,0,0,1-.4-8c0-2,.13-4,2.21-5.12l17.79,0c3.2.52,2.85,3.12,3.1,5.33.32,2.78-.4,5.7,1.19,8.85,2.49-1.95,1.53-4.39,1.74-6.43.33-3.13-.61-6.58,2.52-8.92,8.72-2,13-.28,15.61,6.18.35,4.28.13,8.78,1.81,12.72,2.46,5.75,7.4,8.1,13.65,7.76,2.35-.13,4.71,0,7.08,0,14.44,0,28.87.07,43.3,0,10.36-.06,14.73-4.47,14.93-14.77.58-4.19,3-6.8,7.21-6.38,10.18,1,20.38,2.13,30.3,4.84a15.81,15.81,0,0,1,2.44,1.12C403.65,372.1,405.35,375.91,409.49,375.26Z" transform="translate(-12.33 -15.77)"/><path class="cls-4" d="M137,366.76a57,57,0,0,0-1.4,8.53c-.5,3.7-2,4.74-5.48,4.34-4.27-.48-5.58-1.94-5.17-5.9.16-1.6,1-3.14.37-4.79q1.57-20.29,3.16-40.59,1.77-22.19,3.63-44.36c.19-2.21-.3-3.24-2.81-3.43-8.91-.69-14.58-5.46-16.7-14.35-3.24-13.58-6.2-27.23-9.23-40.86Q92.8,177.56,82.27,129.77c-1.63-7.42,1.79-10.84,9.37-9.42a7,7,0,0,1,1.48.66c3.88,26.5,9.74,52.53,18.9,77.74q6.23,27.21,12.43,54.42a11.62,11.62,0,0,0,4.36,7.26c6,5.76,13.63,4.58,20.93,4.59q35,0,70.08,0c6.78,0,13.55.68,20.34.53a6.92,6.92,0,0,0,1.47.65c5.1,1,6.84,3.27,6.27,8.12-.53,4.45-2.78,6.21-7.9,6.28-2.68,0-5.41-.55-8.18.56,2.29,26.38,3.49,52.77,6.27,79a96.64,96.64,0,0,0,.78,13.39c.69,4.79-1.85,7.11-6.6,6.66-2.46-.24-3.83-1.24-4.14-4-.59-5.33-1.55-10.62-2.36-15.93a7.79,7.79,0,0,1-2.94-5c-2.82-19.91-5.1-39.88-7.72-59.82-1.63-12.47-1.21-12.53-13.6-12.53-14.89,0-29.78-.06-44.66,0-6.49,0-7.24.64-8,6.91-2.68,23.4-6.14,46.69-8.68,70.11A12,12,0,0,1,137,366.76Z" transform="translate(-12.33 -15.77)"/><path class="cls-4" d="M409.49,375.26c-1.34,1.91-3,3.08-5.45,2.24-2.62-.89-2.35-3.28-2.71-5.33-3.34-5.76-3.06-12.23-3.11-18.46-.26-29.76-.09-59.53-.13-89.3,0-13.76-.33-14.07-14-14.07H279c-9.24,0-9.36.68-10.13,9.9-1.69,20.12-.25,40.28-1.14,60.38-.48,11.06-.93,22.1-1,33.16,0,2.43-.38,4.71-2.27,6.46-.09,4.49-.14,9-.27,13.45-.1,3.43-1.28,5.11-3.44,5.13s-4.09-2.16-4.32-5.22c-.34-4.45.6-8.95-.54-13.36-.06-1.45-.17-2.9-.18-4.35q-.27-36.42-.51-72.85c-.06-12.12-.56-24.23-1.18-36.34-.18-3.5,1.37-6.32,3.61-8.8a44.77,44.77,0,0,1,3.63-3.25,6.72,6.72,0,0,1,6.39-3.32c1.44,0,2.89-.1,4.34-.1q61.65,0,123.31,0c3.65,0,7.8-.94,10.32,3.11,2.56,2,5.09,4.1,6,7.47.34,1.22,1,2.42.61,3.69-1.18,4.1-.55,8.29-.61,12.43-.22,14.85,0,29.72-.57,44.56-.81,20.63-.94,41.26-1.14,61.9C409.9,368.05,408.82,371.62,409.49,375.26Z" transform="translate(-12.33 -15.77)"/><path class="cls-5" d="M405.61,234.39a29.88,29.88,0,0,0-7.54-.67q-64.93,0-129.88,0a22.33,22.33,0,0,0-6.94.94q-3.84-14.19-7.69-28.4c.19-2.36,2-2.81,3.81-3.08a42.48,42.48,0,0,1,6-.27q69.57,0,139.14.06c3.39,0,7.44-1.28,9.8,2.8Z" transform="translate(-12.33 -15.77)"/><path class="cls-6" d="M185.23,148.67c-3,2.49-4.24,6.29-7,9-.87.87-1.52,2.2-3.1,1.27l-17.6-10.42c1.25-.6,1.68-.87,2.15-1,2.2-.73,5.3.05,6.5-2s-.59-4.5-.88-6.81c-2.13-16.7,1.61-32,10.64-46.15,1.75-2.74,3.65-5.38,5.48-8.07a5.53,5.53,0,0,1,2.23-2.19h0a11.43,11.43,0,0,1,1.07-1.13h0A9.86,9.86,0,0,1,188,77.85l0,0a6.68,6.68,0,0,1,2.25-2.14c18.45-14.74,39.39-24.32,62.21-30a109.63,109.63,0,0,1,27.48-3c17.67.14,32.39,7.09,45.18,18.66,15.55,14.06,22.57,32,23.2,52.68a39.82,39.82,0,0,1-1.59,11.28c-3.42,13-7.44,25.77-13.47,37.84-3.09,6.18-5.14,12.78-7.59,19.21a29.69,29.69,0,0,0-1.93,9c-2.59,4.88-6.36,3.47-10.15,1.92-2.1-6.21,1-11.67,3.08-17,3.85-9.89,8.61-19.42,11.34-29.74,1.73-7.59,5.7-14.58,6.58-22.36,2.6-22.93-2.24-43.48-19.9-59.7-4.77-5-11.07-7.09-17.48-8.93a6.58,6.58,0,0,1-1.59-.24,17.63,17.63,0,0,0-5.67-.87c-6-.85-11.87-.06-17.77.54a8.61,8.61,0,0,0-2.41.44,23.22,23.22,0,0,0-4.69.64,20,20,0,0,0-2.29.53c-1.89,0-3.55,1.07-5.43,1.12-12.29,3.1-24.36,6.8-35.56,12.92C205.34,78.08,192.15,89,184,105.47c-5.15,10.35-5.12,21.3-4.5,32.36.2,3.65,2.48,4.77,6.07,4.14,3.28-.57,3.32-.35,3.21,2.26l.16-.17A9.72,9.72,0,0,1,185.23,148.67Z" transform="translate(-12.33 -15.77)"/><path class="cls-4" d="M313.4,191.5a27.61,27.61,0,0,0,10.33-.15c1.31.82,2.79.67,4.22.67l85.24.09c5.29,0,6.76.87,7,4.54.44,6.53-.85,8.38-6.29,9-.54.06-1.08.08-1.62.12-14.32-.09-28.64-.26-43-.25q-54.92,0-109.85.17c-2,0-4-.21-5.9.57a4.58,4.58,0,0,1-.53,0c-3-.43-6.47-.57-7.18-4.22s-.94-7.53,3.16-9.81c6.1-1,12.23-.33,18.35-.42C282.71,191.54,298.06,192.05,313.4,191.5Z" transform="translate(-12.33 -15.77)"/><path class="cls-5" d="M240.16,265.57c-1.93,1.67-3.79,3.08-6.73,2.82-12.86-1.14-25.75-.47-38.64-.56-18.87-.13-37.75-.1-56.62-.18-6.83,0-7.4-.53-9.36-7.23,1.35-8.47,4.14-10.64,13.4-10.41a14.8,14.8,0,0,1,6.88-1.33c22.33,0,44.66-.08,67,0,2.5,0,5.17-.22,7,2.15,3.42,0,6.83-.13,10.25-.09,7.3.1,10.4,4.34,8.3,11.32A34,34,0,0,1,240.16,265.57Z" transform="translate(-12.33 -15.77)"/><path class="cls-5" d="M112,198.75c-3.79-.6-5.24-3.07-6.07-6.62q-7.33-31.47-15-62.86c-.86-3.46-.28-6,2.19-8.26,6.47-2.79,9-1.79,10.84,4.82q8.79,31.41,17.37,62.88c1.37,5,.35,6.77-4.64,8.6C115.17,197.87,113.58,198.28,112,198.75Z" transform="translate(-12.33 -15.77)"/><path class="cls-3" d="M148.76,184.68c.7-2.74,3-2.22,4.86-2.23,7.24,0,14.49,0,21.73,0,13.94,0,27.88,0,41.81,0,1.86,0,3.94-.6,5.55,1-.49,1.69-1.75,1.28-2.7,1.3-4,.06-8-.06-11.95.07s-4.28.58-3.91,4.44c.59,6,2.26,11.7,3.72,17.49-2,5.62-5.85,2.44-9.15,2-9.2-4.3-18.39-3.77-27.58.06-4.1.61-8.6,3.73-11.73-1.82-1.43-4.54.58-8.82,1.15-13.2s-.07-7-5.26-6.88A11.73,11.73,0,0,1,148.76,184.68Z" transform="translate(-12.33 -15.77)"/><path class="cls-7" d="M160.46,206.73c1,1.39,2.12,2.19,4,1.47a58.81,58.81,0,0,1,6.13-1.62,78,78,0,0,1,29.17,0c1.52.55,3.07,1,4.56,1.66,1.76.74,2.73-.1,3.52-1.5l12.49.1c1.86,0,3.81,0,4.06,2.5s-1.65,2.86-3.52,3.12a8.65,8.65,0,0,1-5.22,1.1c-19.73-.43-39.43,1.41-59.16.84a25.21,25.21,0,0,0-5.42.26c-1.74.33-3.2,1.14-3.16,3.12s1.42,2.84,3.13,3.26a27.65,27.65,0,0,0,6.49.4c18.11,0,36.22,0,54.33,0,3,0,6.21-.31,8.8,1.9l3.19.66c1.21,6.23.78,6.93-5,6.94-23.38,0-46.77,0-70.15,0-3,0-5.44-.5-6.37-3.77a15.66,15.66,0,0,1-4.24-9.65c-.4-6.48,2.95-9.88,10.45-10.74,2.42.88,3.65-1.58,5.62-2C156.72,203.94,158.9,204.34,160.46,206.73Z" transform="translate(-12.33 -15.77)"/><path class="cls-8" d="M220.7,223.35c-3.26.1-6.52.28-9.78.29q-29.94,0-59.9,0c-5,0-6.41-1.26-6.8-5.68s.76-5.9,5.4-5.91q34.31-.06,68.61,0a20,20,0,0,1,2.67.38C220.83,216.08,220.77,219.72,220.7,223.35Z" transform="translate(-12.33 -15.77)"/><path class="cls-9" d="M145.41,245.42V233.73c1.24-1.73,3.13-1.63,4.92-1.63q32.5-.09,65,0a7.24,7.24,0,0,1,4.18.86c2.71,7.24,1.69,8.9-5.47,8.91h-5.44c3,0,5.92,0,8.89,0,1.11,0,2.26.12,2.41,1.54s-.75,2-1.82,2.37a12.06,12.06,0,0,1-4.31.42c-7.8,0-15.6.15-23.4,0a106.78,106.78,0,0,0-23.26,1.8c-5.23.22-10.46.26-15.69.06C149.14,248,146.64,248.09,145.41,245.42Z" transform="translate(-12.33 -15.77)"/><path class="cls-10" d="M145.41,245.42c7.25.78,14.51.36,21.78.24,6.47-1.13,13-.3,19.51-.5,11.05-.34,22.12.55,33.17-.46a1.62,1.62,0,0,1,1.91-.09h0c.61.64,1.62.42,2.23,1,3.3,2.4.21,3.64-.94,5.23-1.79.12-3.59.33-5.38.33q-34.66,0-69.34,0c-2.09,0-4.39.69-6.15-1.18C142.24,245.64,142.24,245.64,145.41,245.42Z" transform="translate(-12.33 -15.77)"/><path class="cls-11" d="M142.33,227.23c2,.8,3.66,2,6.06,2,23.78-.12,47.56-.05,71.34-.1,4.51,0,4.68-.34,4.16-5.14,2.51,5.38,2.51,5.38-.9,8.65-2.59,1.5-5.35.42-8,.44-22,.1-43.9.07-65.85,0-2,0-4,.48-5.88-.5C141.58,231.07,141,229.32,142.33,227.23Z" transform="translate(-12.33 -15.77)"/><path class="cls-12" d="M160.46,206.73l-7.12.09c-2.9-1.83-1.45-5.06-2.41-7.51,0-1.17,0-2.35,0-3.52-.35-3.31.84-6.76-.91-9.94l-1.27-1.17c3.8,0,7.6,0,11.39.12,3.5.15,4.16,1,3.57,4.38C162.7,195,162.06,201,160.46,206.73Z" transform="translate(-12.33 -15.77)"/><path class="cls-13" d="M188.73,144.23c.07-1.39-.53-1.9-1.95-1.73-2.3.28-5.1,2-6.76.57-2-1.73-1.33-5-1.65-7.69-1.89-15.69,2.24-29.58,12.07-42a75.4,75.4,0,0,1,30.75-23.19,1.27,1.27,0,0,1,1.76.15c-4.92,3-9.93,5.86-14.75,9a61.9,61.9,0,0,0-20.13,20.74c-4.89,8.43-8.32,17.2-7.74,27.18.18,3.06-.05,6.15.11,9.21.2,3.76,1.41,4.75,5.13,4.53a14.17,14.17,0,0,0,2.13-.37c1.24-.27,2.71-.8,3.14.92C191.22,143,190,143.76,188.73,144.23Z" transform="translate(-12.33 -15.77)"/><path class="cls-14" d="M79.35,347.36c-2.7-.38-3.94-2.06-4.7-4.16s-1.48-4.1-2.06-6.19a6.21,6.21,0,0,0-4.08-4.66c-3.58-1.28-4.94-3.76-4.14-7.67.63-3.12.26-3.28-3.13-2.92-2,.21-3.94.69-5.92.74-5.41.14-7.54-3-5.59-8a39.61,39.61,0,0,1,6-9.66A4,4,0,0,1,60.12,303c-.43,2.39-2.5,3.25-3.51,4.84a65.71,65.71,0,0,0-4.23,6.95c-1.52,3.2-.42,4.75,3.08,5A31,31,0,0,0,61.9,319c3.72-.56,5.25.55,5.05,4.3s.42,6.74,4.7,7.83c1.48.37,2.12,1.92,2.6,3.31C75.78,338.74,76.74,343.32,79.35,347.36Z" transform="translate(-12.33 -15.77)"/><path class="cls-15" d="M314.68,63.64c6.84,4.33,11,10.84,14.3,18,6.47,14,9.44,28.51,6.3,43.78a120.69,120.69,0,0,1-6.64,21.15.73.73,0,0,1-1,.13.93.93,0,0,1-.14-.14c-.1-3.75,1.4-7.11,2.72-10.46,6.9-17.57,4.92-34.68-2.1-51.7-3.33-8.07-8.9-14.41-14.72-20.63a.73.73,0,0,1,1-.39A.71.71,0,0,1,314.68,63.64Z" transform="translate(-12.33 -15.77)"/><path class="cls-16" d="M327.48,146.51h1.16a91.7,91.7,0,0,1-7.59,21.94c-3.7,7.28-6.84,14.78-7.65,23-2.07.93-4.27.58-6.42.59q-29,.07-58,.1c1.89-1.52,4.14-1.06,6.28-1.06q23.9,0,47.79,0c1.27,0,2.53,0,3.8,0,4.59-.09,4.69-.07,5.68-4.56C315.7,172.51,323.12,160.08,327.48,146.51Z" transform="translate(-12.33 -15.77)"/><path class="cls-17" d="M143.26,232.63l79.72,0c-2.14,3.81-.77,8-1.2,12l-.88,0c-2-3.48.1-7.32-1-10.88a36.53,36.53,0,0,0-3.76-.37q-33.48,0-67,0a36.7,36.7,0,0,0-3.77.36Z" transform="translate(-12.33 -15.77)"/><path class="cls-18" d="M223,70.31l-1.77-.15c6.34-4,13.36-6.37,20.38-8.71,5.3-1.77,10.55-3.85,16.2-4.34.62.38.62.76,0,1.13A244.8,244.8,0,0,0,223,70.31Z" transform="translate(-12.33 -15.77)"/><path class="cls-19" d="M257.76,58.24V57.11a12.25,12.25,0,0,1,5.83-1.26h.08a14.08,14.08,0,0,1,6.41-1.12h.12c6.72-1.31,13.47-2.1,20.3-.83.7.37.7.75,0,1.12C279.41,54.34,268.57,56.15,257.76,58.24Z" transform="translate(-12.33 -15.77)"/><path class="cls-20" d="M152.14,198.73c2,2.47.45,5.45,1.2,8.09-2.07,2.88-2.49,2.88-4.8,0,.63-2.65-.53-5.55,1.1-8.06.2.07.41.15.6.2s.61.66,1.1.2A1,1,0,0,1,152.14,198.73Z" transform="translate(-12.33 -15.77)"/><path class="cls-21" d="M314.68,63.64l-1.3.07c-4.9-3.68-10.68-5.5-16.32-7.61-.77-.37-.78-.74,0-1.12A31.57,31.57,0,0,1,314.68,63.64Z" transform="translate(-12.33 -15.77)"/><path class="cls-22" d="M150,185.85c1.55.24,2,1.33,2,2.7l0,7a1.44,1.44,0,0,1-2,.17,2,2,0,0,1-.2-.21C149.88,192.26,150,189.06,150,185.85Z" transform="translate(-12.33 -15.77)"/><path class="cls-23" d="M149.81,195.47l2.24,0a5.52,5.52,0,0,1,.09,3.22,1.11,1.11,0,0,0-.08.74c-1.3,1.55-1.6-.08-2.21-.7h-.22Z" transform="translate(-12.33 -15.77)"/><path class="cls-13" d="M185.23,148.67a12.64,12.64,0,0,1,3.66-4.61C188.92,146.59,187.44,147.92,185.23,148.67Z" transform="translate(-12.33 -15.77)"/><path class="cls-21" d="M290.5,55V53.88a8,8,0,0,1,5.65.92c-1.12,1.08-2.32.86-3.55.23Z" transform="translate(-12.33 -15.77)"/><path class="cls-24" d="M188,77.85a11.5,11.5,0,0,1-3.23,3.29A3.35,3.35,0,0,1,188,77.85Z" transform="translate(-12.33 -15.77)"/><path class="cls-19" d="M292.6,55l3.55-.22a.73.73,0,0,1,.9.17c0,.37,0,.74,0,1.12C295.5,56.06,293.91,56.12,292.6,55Z" transform="translate(-12.33 -15.77)"/><path class="cls-24" d="M183.69,82.26a4.69,4.69,0,0,1-2.23,2.19A2.29,2.29,0,0,1,183.69,82.26Z" transform="translate(-12.33 -15.77)"/><path class="cls-24" d="M190.24,75.69A4.77,4.77,0,0,1,188,77.83,2.32,2.32,0,0,1,190.24,75.69Z" transform="translate(-12.33 -15.77)"/><path class="cls-17" d="M224,245.64a3,3,0,0,1-2.23-1A3.52,3.52,0,0,1,224,245.64Z" transform="translate(-12.33 -15.77)"/><path class="cls-24" d="M184.74,81.14a1.29,1.29,0,0,1-1.07,1.13C184,81.89,184.38,81.52,184.74,81.14Z" transform="translate(-12.33 -15.77)"/><path class="cls-1" d="M264.45,360.25q.69-33.17,1.38-66.32c.08-3.63,0-7.26.06-10.89.18-9.79.4-19.58.61-29.37.11-5.09.4-5.44,5.73-5.45,19.8,0,39.6.21,59.39-.11,20-.32,39.94-.32,59.92-.37,1.27,0,2.54.06,3.81,0,2.61-.1,3.93,1,4.36,3.7a43.27,43.27,0,0,1,.72,7c0,8.9-.05,17.79,0,26.69.13,23.41.23,46.83.49,70.24.06,5.6,1.2,11.17.41,16.8-7.44-1.28-14.88-2.6-22.34-3.83-3.19-.53-6.41-.85-9.61-1.34-4.62-.72-4.76-.67-6.75,3.81-2.24-1.18-1.82-3.33-1.83-5.26,0-8.13-.11-16.27,0-24.4.1-6.53-1.15-12.9-1.91-19.32-1.53-8.13-2.61-16.39-5.56-24.2-1.8-4.76-3.56-9.56-8.14-12.5-1.78-1.15-1.9-2.9-1.88-4.8.05-4.9-.05-9.8,0-14.69.06-3.19-1.37-4.77-4.52-4.71s-5.07,1.16-5.34,4.73c-.57,7.52-.7,7.51-8.06,6a16.28,16.28,0,0,0-8.53.64c-5.5,1.8-6.59,1-7.36-4.79a8.74,8.74,0,0,0-.59-2.62,4.81,4.81,0,0,0-5.24-3c-2.77.18-3.72,1.92-3.86,4.35-.26,4.35-.07,8.71-.13,13.06,0,2,0,4.22-2,5.3-10,5.3-10.78,15.26-12.06,24.65-2.2,16.23-4.22,32.5-4.64,48.93-.07,2.76.13,6.22-2.66,8.4a11.19,11.19,0,0,1-.85-2.46c-.21-2.26-1.54-3.08-3.58-2.95C270.71,361.34,267.61,360.47,264.45,360.25Z" transform="translate(-12.33 -15.77)"/><path class="cls-1" d="M137,366.76c.11-7.25,1.5-14.36,2.34-21.53q3.38-28.82,7.29-57.58c1-7.68-.94-7,8.07-7q28,0,56.06,0c5,0,4.89.06,5.53,4.95q4.6,35.51,9.25,71c.17,1.25.15,2.52.21,3.79a21.21,21.21,0,0,1-3.72.69c-11.05.22-22.08.41-33.14,1-15.74.84-31.4,2.23-47,4.35C140.28,366.62,138.64,366.64,137,366.76Z" transform="translate(-12.33 -15.77)"/><path class="cls-25" d="M278.35,366.55c1.26-19.31,3-38.58,5.45-57.77a82.07,82.07,0,0,1,2.58-12.21c1.5-5.14,4-9.8,8.95-12.5,1.9-1,2.39-2.38,2.35-4.39q-.14-7.33,0-14.68c.09-4.12.89-5,4.43-5.48,4.93-.65,7.14.4,8.34,3.87a12.44,12.44,0,0,1,.66,4.28c0,1.25,0,2.5,0,4.42,7.06-2.32,13.74-3.14,20.38-.58,1.23-2.24.62-4.46.71-6.59.1-2.34.69-4.32,3-5.28,2.64-1.07,5.32-1.3,7.86.19,1.64,1,1.57,2.73,1.58,4.37,0,5.08.07,10.16,0,15.24-.05,2.33.47,4,2.6,5.46,3.72,2.52,5.94,6.37,7.34,10.54a130.24,130.24,0,0,1,5.62,25.41c.6,3.4,1.48,6.82-.56,10.07-3.28-.87-3.61-3.58-3.94-6.29-.63-5.29-.83-10.64-2.53-15.75-1.77-7.66-2.15-16-9.86-20.85a15.81,15.81,0,0,0-9.23-2.6c-8.51.09-17,0-25.55.06-4.2,0-8.25.83-11.78,3.34-3.58,2.15-5.07,5.63-5.95,9.48A64.86,64.86,0,0,0,289,305c-.16,1.06-.19,2.13-.37,3.18a16.79,16.79,0,0,0-.81,5c-.5,17.38-3.75,34.55-3.68,52,.07,14.49.78,15.4,14.91,18.38,1.34.94,2.73,1.85,2.3,3.84-4.47.4-8.95.6-13.26-.94A14.44,14.44,0,0,1,278.88,373C278.84,370.84,278.53,368.7,278.35,366.55Z" transform="translate(-12.33 -15.77)"/><path class="cls-26" d="M301.37,387.3l-2.18-2.09c1.59-2.81,4.34-2.25,6.79-2.19,12.48.29,24.95,1.14,37.44-.14,10.64-1.1,13.18-3.7,13.26-14.38.07-10.32-.08-20.65.09-31,0-2.47-.35-5.2,2.3-6.84,2.16-3.07.69-6.57,1.18-9.84,1.74,5.38,1.38,11,1.79,16.52.82,11.13.3,22.3.59,33.44-.19,1.24-.44,2.48-.56,3.73-.74,7.56-5.95,12.8-13.51,12.86C332.83,387.52,317.1,387.35,301.37,387.3Z" transform="translate(-12.33 -15.77)"/><polygon class="cls-1" points="251.34 40.07 251.26 40.08 251.27 39.89 251.34 40.07"/><polygon class="cls-1" points="257.87 38.94 257.75 38.95 257.79 38.74 257.87 38.94"/><path class="cls-27" d="M199.8,206.57c-9.72.42-19.44.47-29.16,0,1.47-1.68,3.65-1.54,5.5-1.73C184.09,204.05,192.13,203,199.8,206.57Z" transform="translate(-12.33 -15.77)"/><path class="cls-28" d="M190.38,216.17a3.63,3.63,0,0,1,3-1H216.2a4,4,0,0,1,3,.91A125.39,125.39,0,0,1,190.38,216.17Z" transform="translate(-12.33 -15.77)"/><path class="cls-29" d="M190.38,216.17l28.85-.07c-.81,1.24-2.1,1.23-3.36,1.24H193.8C192.54,217.33,191.27,217.31,190.38,216.17Z" transform="translate(-12.33 -15.77)"/><path class="cls-30" d="M153,236.84c.63-1.68,2.05-1.87,3.55-1.87l46.77,0c.81,0,1.86-.15,2.34,1.85l-40.55.17A27.06,27.06,0,0,1,153,236.84Z" transform="translate(-12.33 -15.77)"/><path class="cls-31" d="M219.92,233.75c2,3.47.09,7.3,1,10.88-1.06,1.27-2.55,1.16-4,1.16l-49.72-.13c1.76-1.35,3.83-.88,5.79-.89,13.44,0,26.88,0,40.32,0,1.94,0,4,.34,6.27-.81-2.47-2.45-5.26-1.21-7.7-1.42-2.68-.22-5.4,0-8.1,0l0-1.12h10.11c6.13,0,6,.25,6-6C219.82,234.84,219.88,234.29,219.92,233.75Z" transform="translate(-12.33 -15.77)"/><path class="cls-32" d="M153,236.84l12.11.19c-1.42,1.63-3.34,1-5.07,1.08-3.68.09-7.37,0-11.86,0C150.2,236.5,151.73,237.23,153,236.84Z" transform="translate(-12.33 -15.77)"/><path class="cls-33" d="M149.85,198.77c.7.35,1.3,1,2.21.71-.16,1.67.45,3.5-1,5.43C149.15,202.88,150,200.72,149.85,198.77Z" transform="translate(-12.33 -15.77)"/><path class="cls-1" d="M359.06,330.69q.3,18.49.62,37a35.64,35.64,0,0,1-.72,7.57c-1.21,6.38-4.94,9.42-11.87,9.47-10.71.07-21.42,0-32.13.06-5.26,0-10.51.29-15.77.44-1.93-.72-3.95-.23-5.93-.4-6.79-.6-10.77-4.73-11.39-11.53-1-11.08.39-22.06,1.29-33,.77-9.36,2-18.68,3-28a1.24,1.24,0,0,1,1.52-.13c1.59,1,1.3,4.36,3.94,3.79,2.25-.48,2.3-2.88,2.74-4.82.39-1.75.86-3.48,1.28-5.23,2.64-10.77,5.19-12.69,16.6-12.73,6.68,0,13.35,0,20,0,.55,0,1.11,0,1.66,0,1.6,0,3,.89,4.52,1.06a7.27,7.27,0,0,1,1.45.34,19.27,19.27,0,0,1,1.9,1.16,5.33,5.33,0,0,1,1.49,1.68,8.19,8.19,0,0,1,.79,1.3,7.48,7.48,0,0,1,.33,1.49c2.32,5.56,1.57,12,5,17.22,1.81,1.54,1.27-.81,1.91-1.2a23.32,23.32,0,0,0,.77-5.31c.17-1.58.25-3.38,2.67-3.09A153.72,153.72,0,0,1,359.06,330.69Z" transform="translate(-12.33 -15.77)"/><path class="cls-34" d="M294.77,288.11c3.29-3.44,7.72-3.88,12-4.07,8.67-.39,17.35-.4,26-.46,4.37,0,8.66.47,12.26,3.37.28,1.85-1,2.27-2.39,2.64-15.18-1.11-30.35-2.17-45.43,1.1C295.88,290.35,294.57,290,294.77,288.11Z" transform="translate(-12.33 -15.77)"/><path class="cls-35" d="M342.86,288.19a3.58,3.58,0,0,0,2.22-1.24c3.06,1.58,4.82,4.33,6.08,7.33a44.07,44.07,0,0,1,3.66,13.5c-1.38,1.46-1,3.29-1,5s0,3.55-1.24,5a1.72,1.72,0,0,1-1.77-1.43c.39-9.81-1.2-19-8-26.67C342.4,289.32,342.6,288.69,342.86,288.19Z" transform="translate(-12.33 -15.77)"/><path class="cls-36" d="M313.3,280.19c5.93-3.79,11.72-3.93,16-.39C324.73,281.15,315.72,281.36,313.3,280.19Z" transform="translate(-12.33 -15.77)"/><path class="cls-37" d="M337.33,279.1c-3-5-2.2-10-2.07-15a1.6,1.6,0,0,1,1.21-1.61c.91-.21,1.32.52,1.32,1.23C337.81,268.74,338.4,273.78,337.33,279.1Z" transform="translate(-12.33 -15.77)"/><path class="cls-38" d="M302.38,261.88a124.34,124.34,0,0,1-.32,19.49C299.71,277.75,299.81,266,302.38,261.88Z" transform="translate(-12.33 -15.77)"/><path class="cls-39" d="M312.33,275.26c5.59-3.34,11.4-3.44,17.38-1.2.09,1.05-.09,1.79-1.4,1.24a29.94,29.94,0,0,0-14.7,1.08C312.38,276.92,312.22,276.24,312.33,275.26Z" transform="translate(-12.33 -15.77)"/><path class="cls-40" d="M305.87,262.31c3.4,2.71,2.09,5.95,2.29,8.75.15,2.19.6,4.7-2.37,6.13A66.7,66.7,0,0,1,305.87,262.31Z" transform="translate(-12.33 -15.77)"/><path class="cls-41" d="M294.77,288.11a3.48,3.48,0,0,0,2.2,1.18c-.18,3.28-2.89,5.36-3.9,8.24-.4.67-.84,1.3-1.23,2a2.06,2.06,0,0,1-2.07.92c-1.24-.76-.86-1.83-.55-2.89C290.12,293.84,291.22,290.25,294.77,288.11Z" transform="translate(-12.33 -15.77)"/><ellipse class="cls-42" cx="328.88" cy="256.08" rx="0.43" ry="12.59"/><path class="cls-43" d="M328.31,275.3l1.4-1.24c3.7,2.19,3.7,2.19,4.1,6.48C332.12,278.1,330.52,276.34,328.31,275.3Z" transform="translate(-12.33 -15.77)"/><path class="cls-44" d="M289.22,297.54l1.08,2.62c2.11,2.37.95,4.13-1.08,5.73-1.07.2-1.52-.47-1.86-1.31A17.46,17.46,0,0,1,289.22,297.54Z" transform="translate(-12.33 -15.77)"/><path class="cls-45" d="M312.33,275.26l1.28,1.12c-1.25,1.28-3,2-4.2,4.45C308.64,277.19,310.46,276.21,312.33,275.26Z" transform="translate(-12.33 -15.77)"/><path class="cls-46" d="M287.25,312.14a7.17,7.17,0,0,1-1,.07c-.1-1.62-.42-3.28.81-4.66a2.31,2.31,0,0,1,2,1.34,2.39,2.39,0,0,1-1.3,3.12A3.38,3.38,0,0,1,287.25,312.14Z" transform="translate(-12.33 -15.77)"/><path class="cls-47" d="M288.13,308.86,287,307.55c.11-1,.23-2,.34-3l1.21,1.49a1.86,1.86,0,0,1-.22,2.63Z" transform="translate(-12.33 -15.77)"/><path class="cls-48" d="M297.9,379.86c-6.85-.84-8.07-2.25-8.23-8.84a112.76,112.76,0,0,1,.9-13c.57-6.53,5.05-10.21,10.34-13a21.07,21.07,0,0,1,6.69-2.16,88.9,88.9,0,0,1,24.92-.13c9.5,1.36,16.15,8.94,17.13,18.44a91,91,0,0,1,.7,10.82c-.05,3.27-1.57,5.39-4.33,7a17.33,17.33,0,0,1-8.31,2.28c-8.86.16-17.74.85-26.57-.59C306.78,379.56,302.27,381,297.9,379.86Z" transform="translate(-12.33 -15.77)"/><path class="cls-49" d="M288.13,308.86l.44-2.79a15.75,15.75,0,0,0,1.73-5.91l.26-1.53a3.18,3.18,0,0,1,.83-1.69c1.41-2.88,2.95-5.66,5.58-7.65a57.9,57.9,0,0,1,21.27-2.14c5,.32,10.05-.1,15.07-.26a26,26,0,0,1,9.55,1.3c4.37,3,6.59,7.38,7.9,12.39a65.32,65.32,0,0,1,1.95,11.1c.15,1.72.63,3.62-1,5-3.11-.47-2.72-3.38-3.74-5.31a22.19,22.19,0,0,1-.23-4.07c0-1,0-2-.13-3a11.2,11.2,0,0,0-.8-2.62c-.27-1.28-1.08-2.38-1.21-3.7a3.79,3.79,0,0,0-.86-2.34,12.13,12.13,0,0,0-1-.92q-.54-.47-1.05-1c-3.57-3.22-8-3.19-12.29-2.82-7.92.69-15.85-.34-23.79.41-7.25.69-10.13,2.6-12,9.4a66.59,66.59,0,0,0-1.88,6.4c4.08-15,4.81-15.59,20.72-16.26,6.4,1.06,12.8-.26,19.18,0h1.72a10.55,10.55,0,0,1,4.73,1,11.11,11.11,0,0,1,1.53.26,5,5,0,0,1,1.26.82l.55.51,1.07,1,.54.53a5.08,5.08,0,0,1,.79,1.28,4,4,0,0,1,.08,1.5c-.39.95-.81,1.87-2.14,1.33h0c-.26-.4-.53-.8-.8-1.19l-1.33-1.37a7,7,0,0,1-1.1-.77h0c-1.34-1.26-3.2-.1-4.6-1l-.44.06-.37-.22a102.28,102.28,0,0,0-22.87,0,9.17,9.17,0,0,1-4.28.54c-4.78,0-7.27,2.73-8.44,7-1,3.5-1.73,7.05-2.73,10.54a15.94,15.94,0,0,1-1.87,4.49c-1.66,2.52-4.06,2.28-5.51-.38a13.36,13.36,0,0,1-1.12-4.74A5,5,0,0,0,288.13,308.86Z" transform="translate(-12.33 -15.77)"/><path class="cls-50" d="M325.55,313.22c0,1.21-5,6.46-6.17,6.46s-5.88-4.82-5.91-6c0-1.53,5.17-6.95,6.47-6.75S325.58,312.11,325.55,313.22Z" transform="translate(-12.33 -15.77)"/><path class="cls-51" d="M342.7,299.19a4,4,0,0,0,1.27-2.35,1.3,1.3,0,0,1,1.54.2c2.34,3.7,2.39,8,3.22,12.1a9.65,9.65,0,0,0,.39,2.61c-.11,2.29,1.53,4.84-1,6.75a5.45,5.45,0,0,1-2.35-4C344.76,309.37,343.71,304.28,342.7,299.19Z" transform="translate(-12.33 -15.77)"/><path class="cls-52" d="M348.08,318.51c.58-2.47.26-5,.31-7.45.36-.81.79-.85,1.27-.1,1,1.79.64,4.06,2,5.73l.88,1.13a3.09,3.09,0,0,1,0,.53c-.28,1.73,1,4.57-1.8,4.68C348.41,323.11,348.38,320.41,348.08,318.51Z" transform="translate(-12.33 -15.77)"/><path class="cls-51" d="M311.2,294.68a6.06,6.06,0,0,1,4.11-1H330a5.93,5.93,0,0,1,4.1,1.07Z" transform="translate(-12.33 -15.77)"/><path class="cls-53" d="M297.9,379.86c4.44-.19,8.91-.87,13.24.81C306.68,381.25,302.29,380.52,297.9,379.86Z" transform="translate(-12.33 -15.77)"/><path class="cls-51" d="M334.87,294.86c1.67-.26,3.29-.34,4.6,1A12.8,12.8,0,0,1,334.87,294.86Z" transform="translate(-12.33 -15.77)"/><path class="cls-51" d="M339.48,295.88l1.1.77Z" transform="translate(-12.33 -15.77)"/><path class="cls-51" d="M341.91,298l.81,1.19A1.27,1.27,0,0,1,341.91,298Z" transform="translate(-12.33 -15.77)"/><path class="cls-44" d="M291.39,296.94c-.28.56-.55,1.12-.83,1.69C290.83,298.07,291.11,297.5,291.39,296.94Z" transform="translate(-12.33 -15.77)"/><path class="cls-1" d="M302.47,377.65c-9.84-.64-10-.78-9.8-10.46,0-2,.27-4,.45-5.95.7-7.64,4.76-12.95,12.11-14.8a64.81,64.81,0,0,1,28-.5c7.53,1.42,11.93,6.74,13.35,14.1.75,3.87.45,7.94.68,11.91.13,2.33-1.06,3.7-3,4.66a21.14,21.14,0,0,1-9.49,2q-10.61,0-21.22-.05C309.93,377.31,306.09,378.86,302.47,377.65Z" transform="translate(-12.33 -15.77)"/><path class="cls-53" d="M302.47,377.65c3.7.21,7.47-.39,11.08.87C309.83,378.55,306,379.53,302.47,377.65Z" transform="translate(-12.33 -15.77)"/><path class="cls-54" d="M344.81,297a6.17,6.17,0,0,0-.84-.15h0a2.35,2.35,0,0,1-1-1.23l0,0a2,2,0,0,1-1.21-1h0q-.55-.42-1.14-.78a.94.94,0,0,0-1-.33c-1.37-1-3.15.11-4.5-.92l-.48-.2-.51,0A115.85,115.85,0,0,0,312,292.4c-1.63,0-3.26,0-4.89.09-6.41.28-9.12,2.25-11.12,8.4-1.06,3.27-1.68,6.67-2.67,10-.44,1.43-.23,3.31-2.15,4.16-1.24-1-.91-2.33-.75-3.43a81.25,81.25,0,0,1,3.74-14.15c1.65-4.76,5.28-6.81,9.92-7.11,5-.33,9.95-1,15.1-.37,4.74.61,9.69-.54,14.58-.55,4.4,0,8.21,1.08,11.33,4.24a7,7,0,0,1,.85,1.24l-.05-.07c.9.59.71,1.37.41,2.18A1.1,1.1,0,0,1,344.81,297Z" transform="translate(-12.33 -15.77)"/><path class="cls-55" d="M344.81,297l1.42-.15c.45-.51.72-.41.83.24l1.4,4.2c.4.79.4,1.69.72,2.5v3c-.61.63-.08,1.78-1,2.27C346.27,305.24,346.23,300.92,344.81,297Z" transform="translate(-12.33 -15.77)"/><path class="cls-51" d="M312,292.41a74.35,74.35,0,0,1,22.19,0C326.8,292.71,319.4,292.78,312,292.41Z" transform="translate(-12.33 -15.77)"/><path class="cls-51" d="M335.18,292.62a5.29,5.29,0,0,1,4.5.91A5.55,5.55,0,0,1,335.18,292.62Z" transform="translate(-12.33 -15.77)"/><path class="cls-56" d="M348.17,309l1-2.27a9.64,9.64,0,0,1,.47,4.2l-1.27.09Z" transform="translate(-12.33 -15.77)"/><path class="cls-51" d="M349.18,303.78a2.84,2.84,0,0,1-.72-2.5A3.07,3.07,0,0,1,349.18,303.78Z" transform="translate(-12.33 -15.77)"/><path class="cls-51" d="M347.06,297.08a6,6,0,0,0-.83-.24c-.11-.67-.22-1.35-.34-2A2.54,2.54,0,0,1,347.06,297.08Z" transform="translate(-12.33 -15.77)"/><path class="cls-51" d="M345.94,294.89a1.22,1.22,0,0,1-.85-1.25Z" transform="translate(-12.33 -15.77)"/><path class="cls-51" d="M341.78,294.64a1.21,1.21,0,0,1,1.21,1Z" transform="translate(-12.33 -15.77)"/><path class="cls-51" d="M340.64,293.86a.92.92,0,0,1,1.12.69.29.29,0,0,1,0,.09Z" transform="translate(-12.33 -15.77)"/><path class="cls-51" d="M343,295.62a1.24,1.24,0,0,1,1,1.23Z" transform="translate(-12.33 -15.77)"/><path class="cls-57" d="M337,360.89l-33.1,0c-1.26,0-2.53,0-3.8-.07-1.86-.1-3.1-1-3.2-3s.57-3.58,2.63-4.2a7.41,7.41,0,0,1,2.15-.2c11.94,0,23.88-.09,35.82,0,4.46,0,5.32,1.55,4.09,6.29-2.34,1.22-2.57-1.18-3.64-2.13-9-1.73-18.1-.15-25.76-.75,7.24.29,15.88-.45,24.52.35C338.16,358.32,338.6,359.53,337,360.89Z" transform="translate(-12.33 -15.77)"/><path class="cls-58" d="M337,360.89a2.49,2.49,0,0,0-.69-3.05c.17-2.48,1.63-1.42,2.84-1,.82,1,1.1,2.38,2.44,2.9-.06,1.36.09,2.92-1.62,3.36S337.59,362.2,337,360.89Z" transform="translate(-12.33 -15.77)"/><path class="cls-59" d="M339.17,356.8a4.08,4.08,0,0,0-2.84,1H300.65c0-1.73,1-1.75,1.87-1.76q17.67-.06,35.33-.06C338.29,356,338.73,356.53,339.17,356.8Z" transform="translate(-12.33 -15.77)"/></svg>