<svg xmlns="http://www.w3.org/2000/svg" width="36.533" height="18.266" viewBox="0 0 36.533 18.266"><defs><style>.a{fill:#ee7600;}</style></defs><path class="a" d="M7.307,106.96a5.48,5.48,0,1,0-5.48-5.48A5.48,5.48,0,0,0,7.307,106.96Zm0-9.133a3.653,3.653,0,1,1-3.653,3.653A3.657,3.657,0,0,1,7.307,97.827Zm3.517,12.249a2.637,2.637,0,0,0,1.288.485l2.411-3.441a35.424,35.424,0,0,1,2.9-3.569l8.822,6.108a4.407,4.407,0,0,1,2.023-.82l-9.576-6.63a35.4,35.4,0,0,1,4.276-3.614,2.771,2.771,0,0,1,2.2-.444l5.73,1.032a.914.914,0,0,0,.324-1.8l-5.7-1.026a4.567,4.567,0,0,0-3.612.749,37.153,37.153,0,0,0-8.876,8.964l-2.59,3.7C10.565,109.871,10.7,109.96,10.823,110.075Zm25.253,2.364h-1.37a4.814,4.814,0,0,1-3.2-1.022,2.7,2.7,0,0,0-1.814-.8h-.93a2.7,2.7,0,0,0-1.814.8,4.808,4.808,0,0,1-3.2,1.022,4.814,4.814,0,0,1-3.2-1.022,2.7,2.7,0,0,0-1.814-.8H17.8a2.7,2.7,0,0,0-1.814.8,4.808,4.808,0,0,1-3.2,1.022,4.814,4.814,0,0,1-3.2-1.022,2.7,2.7,0,0,0-1.814-.8h-.93a2.7,2.7,0,0,0-1.814.8,4.808,4.808,0,0,1-3.2,1.022H.457A.457.457,0,0,0,0,112.9v.913a.457.457,0,0,0,.457.457h1.37a8.511,8.511,0,0,0,5.48-1.818,8.508,8.508,0,0,0,5.48,1.818,8.511,8.511,0,0,0,5.48-1.818,8.508,8.508,0,0,0,5.48,1.818,8.511,8.511,0,0,0,5.48-1.818,8.508,8.508,0,0,0,5.48,1.818h1.37a.457.457,0,0,0,.457-.457V112.9A.457.457,0,0,0,36.076,112.44Z" transform="translate(0 -96)"/></svg>