<svg xmlns="http://www.w3.org/2000/svg" width="29.177" height="23.342" viewBox="0 0 29.177 23.342"><defs><style>.a{fill:#ee7600;}</style></defs><path class="a" d="M24.8,10.212a3.647,3.647,0,1,0,3.647,3.647A3.646,3.646,0,0,0,24.8,10.212Zm0,5.835a2.188,2.188,0,1,1,2.188-2.188A2.189,2.189,0,0,1,24.8,16.047ZM10.941,13.859a3.647,3.647,0,1,0,3.647-3.647A3.646,3.646,0,0,0,10.941,13.859Zm5.835,0a2.188,2.188,0,1,1-2.188-2.188A2.189,2.189,0,0,1,16.777,13.859Zm-12.4,3.647A3.647,3.647,0,1,0,.729,13.859,3.646,3.646,0,0,0,4.377,17.506Zm0-5.835a2.188,2.188,0,1,1-2.188,2.188A2.189,2.189,0,0,1,4.377,11.671Zm21.336,7.294H23.889a3.564,3.564,0,0,0-3.465,3.647.729.729,0,1,0,1.459,0,2.106,2.106,0,0,1,2.006-2.188h1.824a2.106,2.106,0,0,1,2.006,2.188.729.729,0,1,0,1.459,0A3.564,3.564,0,0,0,25.712,18.965Zm-20.424,0H3.465A3.564,3.564,0,0,0,0,22.612a.729.729,0,1,0,1.459,0,2.106,2.106,0,0,1,2.006-2.188H5.288a2.106,2.106,0,0,1,2.006,2.188.729.729,0,1,0,1.459,0A3.564,3.564,0,0,0,5.288,18.965Zm10.212,0H13.677a3.564,3.564,0,0,0-3.465,3.647.729.729,0,1,0,1.459,0,2.106,2.106,0,0,1,2.006-2.188H15.5a2.106,2.106,0,0,1,2.006,2.188.729.729,0,1,0,1.459,0A3.564,3.564,0,0,0,15.5,18.965ZM2.918,2.188a.73.73,0,0,1,.729-.729H25.53a.73.73,0,0,1,.729.729v6.8a5.07,5.07,0,0,1,1.459.689V2.188A2.191,2.191,0,0,0,25.53,0H3.647A2.191,2.191,0,0,0,1.459,2.188V9.68a5.082,5.082,0,0,1,1.459-.689Z"/></svg>