<svg xmlns="http://www.w3.org/2000/svg" width="25.573" height="29.226" viewBox="0 0 25.573 29.226"><defs><style>.a{fill:#ee7600;}</style></defs><path class="a" d="M18.232,18.3l-5.446,4.532L7.341,18.3A7.686,7.686,0,0,0,0,26.486a2.741,2.741,0,0,0,2.74,2.74H22.833a2.741,2.741,0,0,0,2.74-2.74A7.683,7.683,0,0,0,18.232,18.3Zm-6.359,9.1H2.74a.916.916,0,0,1-.913-.913c0-5.685,4.8-6.273,4.932-6.3l5.115,4.258Zm11.873-.913a.916.916,0,0,1-.913.913H13.7V24.448l5.115-4.258C18.946,20.213,23.746,20.8,23.746,26.486ZM.753,5.708l.388.114V7.969a1.319,1.319,0,0,0-.051,2.283L.2,13.814c-.1.394.12.8.434.8H3.02c.314,0,.531-.405.434-.8l-.89-3.556a1.319,1.319,0,0,0-.051-2.283V6.233l2.666.788a7.973,7.973,0,0,0-.611,3.025,8.22,8.22,0,0,0,16.44,0A7.973,7.973,0,0,0,20.4,7.021L24.82,5.708a1.242,1.242,0,0,0,0-2.283L13.751.143a3.332,3.332,0,0,0-1.929,0L.753,3.425A1.242,1.242,0,0,0,.753,5.708ZM12.787,16.44a6.4,6.4,0,0,1-6.393-6.393,6.2,6.2,0,0,1,.548-2.5L11.822,9a3.357,3.357,0,0,0,1.929,0l4.881-1.45a6.223,6.223,0,0,1,.548,2.5,6.4,6.4,0,0,1-6.393,6.393Zm-.445-14.55a1.585,1.585,0,0,1,.89,0l9.019,2.677L13.232,7.244a1.585,1.585,0,0,1-.89,0L3.322,4.567l9.019-2.677Z"/></svg>