<svg xmlns="http://www.w3.org/2000/svg" width="200.463" height="188.981" viewBox="0 0 200.463 188.981"><defs><style>.a{opacity:0.27;}.b{fill:#e0cf07;}</style></defs><g class="a" transform="translate(-2033.584 -211.124)"><path class="b" d="M2044.59,264.886c.188-1.186-.009-.986-.92-1.586,1.082.005,2.074-1.687,2.833-.562-.486.9-1.913,1.386-1.369,2.773-1.136.513-1.513.81-2.447.244C2043.014,264.893,2043.517,265.223,2044.59,264.886Zm1.943-3.48c.33-.474-.2-1.408.786-1.533-1.3-1.493.244-1.744.508-2.693.078-.859-.886-.008-.808-.869-.067,1.105-1.289,1.578-1.044,2.844-.435.15-.634-.162-1.087.023.549.269.524,1.112.287,1.533-.414.3.409.305.246-.067C2045.963,260.572,2046.161,261.155,2046.533,261.406Zm-3.577,2.926c.571-.577.469-1.47,1.182-1.977C2043.63,262.175,2042.223,263.273,2042.957,264.332Zm-1.826,2.492c-.693-.191-.96.216-1.343.8.24.437.879-.147,1.064.429C2041.317,267.8,2040.663,267.079,2041.131,266.824Zm67.664-54.215c.153-.584-1.079-.794-1.212.064C2108.134,213.344,2108.348,212.41,2108.8,212.609Zm-68.031,62.137a1.284,1.284,0,0,1-.609-.567c-1.066.452-.6,1.408-.914,2.1C2041.034,276.508,2038.624,275,2040.764,274.746Zm.361-2.083-.966.406.481.9A.881.881,0,0,0,2041.125,272.663Zm36.814-47.608c-.708.28-1.125,1-2.026,1C2076.312,226.614,2078.218,225.567,2077.939,225.055Zm14.746-5.888a7.5,7.5,0,0,0,.279,1.528c.982.218,1.569-.5,2.121-1.4A7.808,7.808,0,0,0,2092.685,219.167Zm-.026,2.485a8.555,8.555,0,0,0-.3-1.523c-.5-.051-.82.354-1.073.873.563.456.6-.286.917-.392C2092.638,220.841,2091.4,221.4,2092.659,221.652Zm-46.845,33.34c.575.4.068.324.288.994.569-.014.636-.318.961-.47C2046.6,255.415,2046.453,254.809,2045.814,254.992Zm-6.825,22.858c-.814.2-.069.833-.884,1.035.4.47.8.943,1.477.4C2038.993,278.7,2039.316,278.371,2038.989,277.85Zm5.669-17.8c-.286-.7-1.222-.123-1.445-.95a1.078,1.078,0,0,0-.149,1.135c.886-.4.476-.6.682.343C2044.209,260.481,2044.165,260.129,2044.658,260.053Zm17.9-21.678c1.262-.029.627-2,2.044-1.86-.083-.351-.653-.266-1.042-.341C2063.807,237.518,2062.267,237.026,2062.554,238.374Zm-20.9,30.756c-.346.337.173.438.343.7.08.4-.659.5-.02,1.109a19.944,19.944,0,0,0,1.11-1.8C2042.88,268.446,2041.867,269.817,2041.659,269.13Zm-6.977,50.72c-.765-.263-.13.733-.808,1.074.889.49,1.076.267.815,1.167C2035.7,321.889,2034.53,320.512,2034.682,319.85Zm.558-22.785c-.705.6.888,1.688-.456,1.043-.478.448.545.689.713.754l.812-.664C2035.661,297.484,2036.029,297.48,2035.24,297.065Zm1.455-11.792c-.426-.463-.409.608-.724.763l.943,1.252C2037.355,286.453,2035.84,286.172,2036.695,285.273Zm-.491,30.139a6.718,6.718,0,0,0,.139-3.781C2034.05,312.413,2035.669,314.307,2036.2,315.411Zm1.852,15.7a15.748,15.748,0,0,0-.228-2.209C2037.071,329.12,2037.64,330.6,2038.056,331.115Zm-1.807-15.349c-.969.89.339,1.473-.9,1.947,1.383-.075-.016,1.5,1.052,2.035-.418.767-1.406-.287-1.236.764.948-.506,1.207-.029,1.326.868C2036.981,320.123,2036.706,317.456,2036.249,315.766Zm-.358,6.466c.12.535.756.968,1.285,1.41C2038.1,322.54,2036.645,322.159,2035.892,322.232Zm-.382-18.219c.717-.371.512.677.968.877.428-.718-.138-1.3-.976-1.588-.06.467-.256.655-.755.712-.967-.781.443-1.546-.567-2.34-.044.42.17.843-.6,1.254a1.687,1.687,0,0,1,.041,2.541c.7-.006,1.387-.835,2.107.139C2036.43,304.831,2034.739,304.952,2035.51,304.013Zm.655-13.449c.357.57.772.8,1.293.359a1.1,1.1,0,0,0-.267-.744A1.567,1.567,0,0,0,2036.164,290.563Zm1.2-1.418c-.285-.232-.68.188-1.033.372l.481.609c.367-.288.655-.064,1.028-.38C2037.614,289.371,2037.06,289.468,2037.367,289.145Zm-.83-1.923c-.452.517-1.163,1-1.056,1.623C2035.855,289,2037.257,287.833,2036.537,287.222Zm1.1,6.352c-.676-.659.044-1.159-.505-1.816-.553.7.2,1.548-.87,2.2C2037.074,294.363,2036.775,293.733,2037.635,293.574Zm-.232,2.768c.211-.5.019-1.024-.032-1.922l-.616.465C2037.631,295.433,2036.747,295.821,2037.4,296.342Zm-.762-.062c-.507-.021-.968-.667-1.438-1.184l-.612.482c.235.2.266.383.146.554.722.068.514-.143.91.6C2035.993,296.424,2036.3,296.63,2036.641,296.28Zm114.637-82.234c.217-.559-1-1.368-1.729-.675C2150.032,213.951,2150.742,213.692,2151.279,214.046Zm76.65,91.221c.4-1.234-.223-1.511-.551-2.631C2226.886,303.449,2227.518,304.358,2227.928,305.267Zm-1.417,5.533c.28.271.712-.374.977-.025.255-1.219-1.451-2.681-.173-3.737C2225.226,306.8,2227.4,309.714,2226.511,310.8Zm2.325.007c.859-1.191-.34-2.7-.706-4.037C2227.381,307.972,2228.4,309.406,2228.836,310.807Zm-3.952-8.189c.781-.257,1.226-.072,1.469.844.491-.685.07-1.452-.216-2.192C2226.177,301.863,2224.874,301.776,2224.885,302.618Zm-.651-10.862c.7.3.663-.838-.03-1.065-.3.431-.621.544-.95.222C2222.2,291.956,2224.719,290.726,2224.234,291.756Zm8.768-.665a5.76,5.76,0,0,0,1.045,3.691A9.159,9.159,0,0,0,2233,291.091Zm-7.4,6.551c.984-.885.661.429,1.5.407.639-.409-1.141-.879-.5-1.286-.214-.281-1.39.781-.95-.2-.124-.187-.252-.1-.379,0l-.4.344c.884.506.013,2.331,1.129,3.454.207-.226.4-.259.586-.148C2226.141,299.342,2226.259,298.5,2225.6,297.643Zm6.944-8.475c.468-.349.348-.67.529-1-.3-.355-.824-.12-.6-.545C2231.607,287.442,2232.115,288.778,2232.548,289.167Zm-3.842,33.366c-.36-.639-1.607-.548-.8-1.4-.255-.271-.694.138-1.067.29.021.517.588,1.2.33,1.647.291.157.679-.047.871.452C2228.31,323.211,2228.427,322.849,2228.707,322.533Zm-2.067,2.919c.639.384.74.187.833,1.067.761-.417.039-1.319.248-1.908C2226.949,324.016,2227.413,325.405,2226.64,325.452Zm-.805-2.583c-.057.567.072,1.96,1.024,1.28C2226.629,323.34,2226.142,323.419,2225.834,322.869Zm3.6-12.153c-.422,1.014-1.186,1.933.016,3.248C2228.759,312.754,2230.183,311.924,2229.435,310.716Zm-2.3,5.051c1.137-.884,1.655.562,1.077,1.19-.846.326-.859-.641-1.077-1.19-1.009.279.166,1.044-.733,1.343,1.591.683,2.816,3.56,3.242,4.9,1.329.286-.381-2.787-1.156-3.053,1.125.137.566-1.337,1.533-.6a43.514,43.514,0,0,0-3.509-5.332C2225.79,313.75,2226.418,314.726,2227.136,315.767Zm3.615-3.68c.623-.541-.526-1.371-.062-1.938C2229.7,309.886,2230.569,311.52,2230.751,312.088ZM2042.673,335.3c.417.077.011-.5.484-.361-2.379-1.244-1.664-3.561-3.121-5.153a9.535,9.535,0,0,0,1.212,4.876c.3.088.424-.331.607-.586C2042.068,334.512,2042.673,334.8,2042.673,335.3Zm123.1-114.571c-.238-.261-.616-.245-1.054-.1.143.423-.148.631.018,1.063C2164.973,221.324,2165.522,221.107,2165.769,220.732Zm-9.237-4.483c.205-.058.173-.2.129-.355l-.183-.47c-.61.374-.82-.369-1.26-.468C2154.793,215.887,2156.275,215.617,2156.532,216.249ZM2194.7,241.41c-.456-.491-1.3.2-1.427.97C2193.7,241.994,2194.627,242.2,2194.7,241.41Zm27.046,45.918a2.753,2.753,0,0,1-.655,1.786c.827.411.889.764,1.918.221C2221.706,289.294,2222.531,287.936,2221.749,287.328Zm-94.826-75.641c-.67-.274-1.346.017-2.016.022C2124.929,212.459,2126.35,212.44,2126.923,211.687Zm8.81-.534c-.789-.1-2.3.018-2.634,1.11C2133.928,211.789,2135.4,211.877,2135.733,211.153Zm58.94,28.773a1.87,1.87,0,0,0,1.318-.228c0-.516-1.126-.077-.92-.768C2194.713,239,2194.772,239.557,2194.673,239.926Zm30.47,43.476c.092-.194-.051-.36.123-.565l-.426-.314c-.324,1-.983-.646-1.3.351C2224.157,283.747,2224.516,282.518,2225.143,283.4Zm-6.087-10.111c.048-.373-.212-.671-.611-.926-.144.205-.386.017-.6-.026C2217.671,273.058,2218.57,273.1,2219.055,273.29Zm2.921,9.436c-.419.705.5,1.234.811,1.854C2223.08,283.893,2222.939,283.243,2221.976,282.727Zm.891,2.555c.082.705-.25,1.442.236,2.107C2223.735,287.21,2223.921,285.858,2222.867,285.282Zm.122-2.155c-.407-2.109-1.638-3.328-2.566-5.484-.1,1.558.638,2.96,1.086,4.437C2222.353,281.611,2222.313,282.584,2222.989,283.127Zm-.775-8.02a.967.967,0,0,0-1.356-.8C2220.626,274.842,2221.941,275.18,2222.213,275.107Zm-30.421-38.428a.812.812,0,0,0,.583-.773,6,6,0,0,0,2.087,1.762,4.175,4.175,0,0,0-2.268-2.524C2192.3,235.925,2191.847,236.082,2191.792,236.679ZM2080.51,337.36c-.246-.018-.023-.368.044-.609-.341-.1-1.182.655-1.114.06-.8.057.185.662-.49.631.3.254,1.522.743,1.872-.3C2080.65,337.11,2080.578,337.232,2080.51,337.36Zm10.385,13.872c-.17-.116-.045-.595-.333-.566-.623.136-.855,1.042-.572,1.287C2090.647,352.029,2090.235,351.166,2090.9,351.231Zm-6.672-9.119c-.36.012-.683.457-.662.1-.175-.013-.235.116-.288.25l-.131.432c.125-.281,1.432-.485.663-.1-.021.33.444-.249.377.15C2084.919,342.621,2084.105,342.4,2084.223,342.113Zm10.809,6.337c-.518.333-.229,1.172.309.734l.1-.891C2095.241,348.5,2095.043,348.7,2095.032,348.45Zm29.606,31.543c-.686-.317-1.756.089-1.227,1.141C2124.068,380.638,2124.284,380.843,2124.639,379.993Zm-23.354-19.3c.627-.072,1.2,1.074,1.74.25A1.239,1.239,0,0,0,2101.285,360.692Zm-22.562-24.258c.118-.295.245-.592.512-.628.07-.283-.455-.168-.764-.2l-.5,1.048c.688-.169.447.281,1.022.179C2079.227,336.474,2078.987,336.45,2078.723,336.434Zm-4.012-17.3c.222.2-.154.6.408.679l.592-.661C2075.349,319.053,2075.083,319.259,2074.711,319.137Zm.449-.492c-.7-.127.745-.916-.462-.886-.821.632-.017.774-.053,1.167.271.01.443-.293.728-.233C2075.505,318.5,2075.242,318.555,2075.16,318.645Zm56.206,64.538c.631.312,1.279.728,1.924-.308-.614-.414-.834.085-1.1-.961-.151.178.064.38.15.575C2132.01,383,2131.7,382.516,2131.366,383.183Zm-53.127-54.423c0,.421-.262,1,.5,1.005C2079.052,329.165,2078.868,328.851,2078.239,328.76Zm1.683,3.181c-.437.62.121.639.757.592C2080.741,332.14,2080.394,332.008,2079.923,331.941Zm60.965,47.906c.277.154.511-.09.793.109a1.7,1.7,0,0,0-.462-1.475C2140.861,378.963,2141.073,379.384,2140.887,379.847Zm2.333-1.394c-.565-.359-1.162-1.176-1.567-.208C2142.18,378.394,2142.764,378.957,2143.22,378.453Zm-.786,1.23c.482.993.712-.178,1.107.07C2143.688,379.068,2142.654,379.163,2142.434,379.684Zm40.448-1.811c-1.674-1.782-3.538-.3-5.26-.287-.224-.986-1.508-.905-2.339-1.095-1.1-2.355.136-5.376,1.56-7.822.575.661-.09.828.278,1.369,1.136-.027.586-1.671,1.824-1.924-1.52-2.849,2.937-4.329,3-6.365a3.631,3.631,0,0,0,2.648-1.676,7.9,7.9,0,0,0,1-2.576c-.408.161-.634,1.744-1.407.7.547-1.255,1.694-1.574,1.522-3.05,1.013-.5,2.494-1.961,1.683-2.977.584-.511.23.4,1.009.37.377-.76-.307-2.481.829-2.491.253.591-1.04.749-.3,1.136.6-.463,1.886-1.166.431-1.82,1.665-.946,2.513-2.663,3.248-4.369a5.08,5.08,0,0,1-.783-4.531,12.636,12.636,0,0,0-2.195-.9,1.264,1.264,0,0,0,.107,1.1,1.273,1.273,0,0,1,1.219.906,3.46,3.46,0,0,0-1.463,2.416c-.449.02-.6-.286-1.025-.292.658.838-.187.575-.184,1.3.2.066.482.043.535.26a1.235,1.235,0,0,0-.922.144c-.1-.73.212-2.3-.846-2.681-.552,1.134.174,2.5-.975,2.942-.607-.007-.369-.893-1.089-.787-.65.38-.455,1.545-1.5,1.553-.076-.559-.177-1.086-.695-1.2-.8.03-.3,1.3-1.617.82.061.285.354.363.344.705a3.015,3.015,0,0,0-.7-.016c-.273.3-.552.6-.848.879a.48.48,0,0,1-.112-.474,1.746,1.746,0,0,0-.446.671c-1.443-.508-1.492.446-2.616.229a13.729,13.729,0,0,1,2.039-4.358,9.472,9.472,0,0,0,1.3-4.7c1.151-.248,1.128-1.5.825-2.869,1.275-.023,1.677-1.55.4-2.91.018.852.8,2.323-.1,2.542-.038-.858-.272-1.815-.252-2.582a.391.391,0,0,0-.114.2l-.671-.447c.042-.548.587-.1.844-.224a1.086,1.086,0,0,1,.62-.807.968.968,0,0,1-.463-1.531c.414.585.451,1.643,1.1,1.955.229-.961-1.318-2.151-1.343-3.3.4-.03.606.233,1,.216.043-.473-.26-1.74.623-.943-.1-.19.065-.224.024-.378-.559-.3-.85-1.011-1.406-1.319-.233.038-.236.2-.244.366.159.446.641.411.743.943-.667-.2-.34.181-.175.472a1.49,1.49,0,0,0,.174.116c-.044.043-.071.023-.107.04.02.083-.01.136-.158.12-.086-.093-.146-.167-.2-.237a1.63,1.63,0,0,0-1.015-.589l.217-.381a1.547,1.547,0,0,1,.559.438,1.046,1.046,0,0,0-.155-.738,1.446,1.446,0,0,0-.228-.09c-.281.5-.575,1-.872,1.5.105.372.019.6-.345.594-.109.177-.226.349-.336.525a1.454,1.454,0,0,1-.043.16,1.4,1.4,0,0,1,.139.474,2.768,2.768,0,0,1,.624.321c-.5.021-.888.109-.873.476a11.472,11.472,0,0,1-.217,3.267c.335-.056.688-.1.592-.592.821.967-.231,1.022-.116,2.011a3.49,3.49,0,0,1-.684-.544,8.272,8.272,0,0,1-.352.888,1.748,1.748,0,0,0,.269.248c-.949.279-.07.795-.986,1.2-.006-.011,0-.016-.007-.027-.271.5-.527.991-.805,1.45a.948.948,0,0,0,.927.509c-.242.289-.66.053-.834.543-.11-.133-.268-.3-.44-.478-.09.147-.18.3-.267.441.125.128.229.241.393.394-.246.317-.384.094-.544-.144-.056.092-.121.2-.175.288-.067-.212-.123-.4-.171-.574-.042-.012-.072-.055-.121-.047-.2.281.278.7.791,1.134-.3.717-1.074-.091-1.623-.2-.442-.6.721.271.72-.4-1.284-1.283-.723.772-1.808-.405.661.71.135,1.13-.392,1.536,1.214,1.324,1.713.594,1.38,2.029.38.375.559-.066,1,.529-.793-.168-1.313-.263-1.135.712-.356-.6-.872.158-1.618.416-.565-.691.384-.938.682-1.378.185-.232-.564-.718-.523-.986-.513-.054-1.113-.163-1.054-.852-.706-.456-.179.572-.669.631.26.129.447-.042.781.372-.477.644-.465.123-1.006-.162-.321.641.422,1.628-.054,2.242,1.181,1.14.9-.662,2.089.635-.649.316-.346.674-1.317,1.2-.325-.445-.024-.689-.353-1.13-.75-.5-1,1.085-.069,1.138a2.88,2.88,0,0,0-.934,2.448c-.73-.684-.541-.85-1.313-.338.919.326.067,1.4-.842,1.315.818.7,1.307.614,1.579,1.832-.215.306-.47.124-.7.193.42.6.548.265.636.867-.189.058-.408-.363-.593-.23.205.852.587,1.327.084,1.6a3.344,3.344,0,0,0,1.078,1.218c.086-.128-.015-.327.128-.432.33-.323-.463-.229-.625-.871.565.01.771.16,1-.409-.806-.353-.513-1.238.119-.426.23-.5-.629-.421-.506-.96.467-.815,1.108.51,1.668.75.616-.832,1.376-.125,2.494-.577.518.821-.424.816-.843.662.042.533.544,1.215.431,1.706a1.432,1.432,0,0,0,.77.085.8.8,0,0,1-.4.985c-.437-.587-.574-.24-.658-.846-.217.245-.052.618.362,1.072-.586-.057-.739-.39-.654-.849-.331-.481-.591.294-.892.335.512.172,1.066,1.172,1.6,1.82-.512.013-1.042-.545-1.546-.516.122.994-1.567,1.293-1.993,2.336-.561-.1-.167-.668-.6-.567-.293.5.625.449.437.994-.429.494-.82-.131-1.229-.174-.156.21.01.556-.184.747.719.848.579-.526,1.243-.148.475.852-1.067.891-.7,1.711-.471.024-.885-.837-1.335-1.069a1.355,1.355,0,0,1-.623,2.265c-.133-.344.3-.439.516-.624-.9-.44-.979.915-.608,1.613-1.2.878-1.678.433-2.607,1.669.305.791.816.266,1.1,1.246-1.233.383-.123,1.656-.813,2.807-.688.238-.77-.442-1.213.294.21.862.76.051,1.083.368.541.692-.236.732-.088,1.235-.4-.467-.926-.351-1.246-1.185-.276-.263-.436.354-1.029.192.347.675,1.012-.11,1.3.868-.654.456-1.212.445-1.637-.135-.256-.388-.061-.519.152-.647-.263-.524-.835.227-1.226.22-1.2-2.734-2.536,3.219-4.411.289-1.022.656-1.686.094-2.394-.265-.135.1-.1.313-.289.369.1.737.82-.467.92.259.292,1.061-.492.166-.772.813-.637-1.651-1.675-2.018-2.977-1.631.229,1.084.957.771,1.294,1.578-.825.4-1.317-.112-2.165.338-.485-1.253-1.5-1.085-2.237-1.613a4.5,4.5,0,0,1,.194-2.268,9.8,9.8,0,0,0-4.437-.361c.519-.96-.3-.719-.669-1.509-.285.2-.7.272-.783.687,1.058.334,2.293,3.035,3.244,1.287.085,1.545.785-.379,1.031,1.15-.358.2-.529-.075-.795-.106a5.918,5.918,0,0,1,1.979,3.394,1.369,1.369,0,0,1-1.581-.747c-.338.186-.181.819-.844.715.854-1.233-1.3-.779-1.293-2.475-1.082.186-1.8-.421-2.648.2-.083-.665.216-.884-.354-1.024-.414,1.091.935.989.568,2.346-.9-.4-2.294.188-2.669-1.222-1.971,1.559-4.458,1.707-5.183-1.694-.985-.284-.618,1.193-1.222,1.422a1.6,1.6,0,0,0,1.36.982c-.425.937-1.9-.006-2.641.1.053.181.068.31.1.467a.713.713,0,0,1,.354.288.581.581,0,0,1-.262.129,7.5,7.5,0,0,1,.073,1.6.97.97,0,0,0,1.183-.384c.289.8.427.8.573,0,.392.8.782.587,1.172.751-.573.525-1.163.178-1.744.768.838,1.231,1.67.433,2.5.33-.144-.256-.319-.459-.7-.334.325-1.4-.392-1.6-.565-2.909,1.718.272,1.327,2.619,2.237,3.852a.752.752,0,0,1-.245.052c.329.134.864-.029,1.112.279-.069.7-1.08,1.406-.658,2.093.62-.993,1.312-.338,1.965-.613.5-.841.238-.589.5-1.523.563.906.55.683,1.341,1.457-.446.63-.212.8-.314,1.723-.514.157-1.082-.54-1.542.425-1.466-1.281-2.7-.425-4.4-1.056-.921,1.7-1.858-.05-2.779.321.164.262.31.526-.016.755-.4-.713-.838.094-1.218-.842.069-.5.588-.968.057-1.511-.16.18-.306.049-.464.155-.9.628.047,1.393-.867,2.019-.542-.752-.678-.7-1.41.079a1.369,1.369,0,0,1-.252-.783c-.421.128-.895.807-1.3.653,0-1.532,1.3-.517,2.079-.775-.2-.46.528-.847-.065-1.334-.752.589-1.423.051-2.181.574-.652-.29-.28-1.153-1.044-.286-.383-.433.03-.757-.474-1.218-.427.652-.75.377-1.154.763-.269-.329-.134-1.516-.743-1.274.15.728.414,1.473-.436,2.031-.079-1.74-.794-.387-.915-2.077-.644.944-.584.527-1.371.906.335.508,1.628-.035,1.378,1.015-.947.087-1.741-.722-2.639-.861-.182,1.447-2.176-.113-3.126.063.615.972,2.9,1.893,1.987,3.386.288.183.635.063,1.007-.2a.841.841,0,0,1,.018-.961c1.122.916.955-1.324,2.031-.788-.471.366-.917.736-.676,1.225a1.351,1.351,0,0,0,.742.324l.734-.639c.387.578.864.6,1.261,1.173-.6.913-.984.177-1.545.7.266.376.558.608.892.535l1.1-.969c-.392-.123-.514-.346-.212-.8.9.812,1.922.722,2.9.969,1.712-3.282,4.41,1.416,6.038-.294a2.113,2.113,0,0,0-.842,1.65c-.995-.944-2.393-2.332-3.011-.794-.515-1-1.1-.8-1.694-.708.042.863.933.22.682,1.385.847-1.6,1.557,1.368,1.969-.6.777,1.438,1.684.582,2.519,1.315-.44.42-.824.173-.519.911.446-.412.586.623.635.8.008-.944.7.038,1.17-.873-.417-.088-.57-.3-.315-.777.7.527,1.4-.248,2.116.959-.213.319-.665.637-.49.951.92.014.8-.8,1.637-1.154.537,1.516,1.525.425,2.228,2.033.663-.41,1.611.416,2.169.633-.254.113-.3.837-.2,1.009.6-.052,1.838,1.227,1.374-.049,1.011.3.261.581.628,1.3.351-.635.856.444,1.231.062.088-1.04-.34-.486-.951-.847-.057-.714.395-.274.771-1.037.4.569.747.529,1.022-.109.089.827,1.43.425.858,1.424-.28-.064-.725-1.4-1.58-.015,1.308.431.62.887,1.242,1.768.636-1.193,1.631.635,2.324-.085-.321.76-.8.329-1.13,1.09-.765-.87-1.381-.55-2.021-.341.173.233.208.747-.125.586-.384-.8-2.136.106-3.01.77-.532-.357-.111-.747-.785-1.1-.706.6-2.126.757-2.323-.12.376-1.059.854.728,1.251.154-.133-.627,1.231-1.3.616-1.91-.661.025-.188.46-.831.971-.557-.65-1.057.067-1.6-.151-.791-.362.412-.764-.377-1.126a1.383,1.383,0,0,1-1.733,1.166,2.734,2.734,0,0,1-.532,1.709c-1-.557-2.027.2-3.01-.664.18-.523,1.124,0,.73-.713-1.044.435-.994-.756-2.107-.132a1.9,1.9,0,0,0-2.395-.929c-.657-.686.341-1.239-.535-1.938-.175,1.072-1.235.329-1.507,1.393-.274-.68-.685-.063-.986-.467.286-.289.68-.575.271-.924-.327.379-.589.143-.91.454-.549-.6.127-1-.157-1.551-.828,1.191-1.376.1-2.1.43a6.065,6.065,0,0,0,1.727,1.231c-1.277.461-2.245-1.233-3.524-.765,1.321.713,2.6,2.065,4.071,1.994-.216-.349-.54-.722-.059-.963.538.808.2.807.9,1.255-.1.433-.57.844-.671,1.263-1.384-1.568-3.006-2.539-4.266-1.254.442-.479-.488-1.1-.832-.333-.624-.616.521-.935.257-1.489-.518.3-.875-.318-1.352-.239.175.421,1.381.66.476,1.237-.462.58-.5-1.132-.956-.555-.586.974-.4.838-1.457,1.081.614.565.1.917-.093,1.331-.5-.968-1.044.459-1.418.666-.489-.773.867-1.083.406-1.847a2.651,2.651,0,0,1-2.263-.383c.559-.321.914,0,.732-.788-.723-.167-.25-.716-.737-1.364-.287,1.067-1.024-.108-1.35-.947-.86.374-1.437.421-1.614,1.326a1.6,1.6,0,0,1-.143-2c-.932.838-1.828-.572-2.3.529-.278-.275-.283-1.368-.739-1.062-.7,1.972,2.57,1.823,2.195,3.442-.776-.478-1.48-1.15-2.232-1.649-.086,1.876-1.509,2.174-1.97,3.714-.464-1.426-2.6-.795-4.326-1.383.9-.189,1.094-.56,2.221-.788-1.106-1.681-2.28-2.918-4.134-2.586-.636-2.349-2.829-1.184-3.333-3.654-.594.44-.623-.3-1.1-.112l-.348-1.228a3.045,3.045,0,0,1-2.507-1.493c-.621-.859-1.106-1.79-1.715-2.115.018.306.183.7-.093.83-.3-.16-1.315.27-.875-.528.12.591.639-.3.387-.653-.492.009-1.842-1.754-2.254-1.942.533-.136,1.325.369,1.371-.153-.367-.766-1.03-1.049-1.512-1.617-.644.494-.762,1.316-1.535,1.727.755-1.391,1.473-3.395-.657-3.464.086.687-.355.605.1,1.013-1.728.338-1.867-1.056-3.6-1.267.253-1.585-2.146-1.191-1.948-3.412-.79.267-.562-.69-1.482-.281-.038.3.048.718-.241.8.088-1.583-2.081-.877-2.468-2.5,1.185-.4,1.507,1.458,2.221.741-.484-1.176-3.49-3.149-1.87-3.528-.845-.678-2.742-1.044-3.239-2.692.039-1.17.6-1.443,0-1.986.515-.768,1.106-.119,1.529-.57-.013-.275-.213-.367-.417-.466-.571.023-.775.461-1.5.314-.041-.9,1.11-.47,1.368-1.034.041-1.113-1.6.5-1.6-.663a.729.729,0,0,0,.856-.755c-.807-.406-.73.07-1.515.29.437-.791-.771-.165-.328-.952.438-.6.668.414,1.028-.264.277-.973-1.481-.226-2.135-.441.46.335.493,1.643-.554,1.69-.638-1.065-.833-2.446-2.09-3.007-.1.185-.12.481-.359.473.047-1.221,1.458-.577,1.626-1.641-1.228.211.028-1.444-.847-1.5-.407.556.244,1.38-1.165,1.638.05-.792.451-1.111.678-1.665l-1.722-.116c.022-1.164-1.089-1.547-.975-2.744,1.106-.05-.345.449.341.52.366-.03.435-.488.705-.657a3.155,3.155,0,0,1-2.547-2.039c.084-.742.822-.353.906-1.091-.226-.731.007-1.047-1.176-.906.074-.89.792-.659,1.163-1.027a7.639,7.639,0,0,0-1.071-1.128c1.062.126.6-.321.947-1.036a45.2,45.2,0,0,1,1.566,4.287c.288-.516,1.065-.191,1.441-.55-1.107-1.589-.915-5.317-3.827-4.814-.316-.64.542-.346.762-1.066-.742-.278-.707-.959-1.068-1.435-.781.245-.685-.431-1.269-.043.068.518-.185,1.205.615,1.363.162-.254.27-.637.556-.614-.289.59.493.635.157,1.252-.866-.057-1.3.818-2.158.772-.324-.66.543-.342.763-1.069-1.67-.068.371-2.631-1.793-1.657.044-.3-.074-.524-.483-.617-.028-.622,1.159-.728.561-1.086-.31-.077-.41.325-.7.311-.1-.73-.555-1.307-.494-2.094-.44.744-.535-.668-.83.011.64.449.281,1.311.269,2.048-.161-1.128-.9-1.118-1.448-1.9.346-.161.91.189,1.061-.429-.3-.1-.153-.375-.56-.435-.434.3-1.009.18-1.415.557.688.456.212,1.374,1.289,1.656-.177.711-.655.725-.914,1.24,1.022,1.043,2.625.731,1.975,2.556-.542.488-.725-.8-1.164.2,1.063.043,1.138.181,1.447.883-.446.514-1.153-1.016-1.632.088.958-.014.87.705,2.236.311-.4,1.461-1.14-.443-1.7.857,1.289.159.847,1.191,1.759.173-.725,1.292-.3,1.937.737,1.388-.085.285-.141.554.31.548-.126.472-1.457.728-.777,1.34a8.17,8.17,0,0,0,1.487-.473c.257.409,1.21,1.341.369,1.8.182-.66-.531-.793-.546-1.33-.323,1.668,1.707,2.494-.271,3.7,1.025.248.4,1.546,1.479,1.751-.289-.525.462-1.7-.75-1.634l.322-.956.968.149c-.243.739.108,1.509.2,2.532-.455.244-1.179.072-1.275.843,1.41.188,1.313,1.936,1.461,2.391.912-.406,1.45.56,2.121-.312.01.192.139.3.436.283-.871.716-.348,1.417-1.392,1.64.427.547,1.416.048,1.85-.367-.021,1.1,2.4,2.142.513,2.293-.025.466,1.14,1.025.229,1.516-.379-.189-.243-.794-.87-.789-.59,1.259.692,1.011.721,1.779l-.513-.011c-.084.191-.258.285-.553.235.016-.377.221-.905-.1-1.01-.3.024-.7-.087-.8.208.369.783.766,2,2.112,1.328a4.657,4.657,0,0,0,2.21,2.783,2.111,2.111,0,0,1,1.4-1.284c-1.184,1.438.457.231.592,1.5-.828.66-1.669-.462-2.068.547.911,1,1.2,2.66,3.088,2.7-.151,1.846,2.1,2.777,1.992,4.427-.441.144-.662-.323-.767.07.4.829-1.215,1.082-.239,1.582.51-.221.576-.846,1.011-1.133,1.324,0,1.675,1.1,2.59,1.55-.019-.692-.184-1.514.458-1.62.524.351.664,1.172,1.34,1.342-.6.024-.237.78-.717.887-.007-.913-.279-1.478-.861-1.68.3.968.713.708-.206,1.333.847.7,1.389,1.8,2.284,2.474a.974.974,0,0,0-.614,1.675c-.917.4-.341-1.125-1.146-.867-.333.948.109,2.111,1.78,1.816.146-1.008-.049-.944.653-1.168-.418-.941-1.183.392-1.394-.815.607-.1.8.32,1.566,0,1.133,1.279,2.4,3.541,4.044,3.164.321.724-.312.854.018,1.582.259-.066.346.129.56.123.524.122.707-.975,1.019-.263.018,1.212,2.385,3.406,3.719,2.477.6.8-.81.4-.568.985.381-.058.38.554.5.955.769-.5.9.114,1.01.81.322-.123.26-.435.688-.5.146.747.789.567.94,1.32a.765.765,0,0,0-.6.759c.415,0,.749.149,1.162.151-.09-.492-.453-.455-.562-.911.769.129,1.3.441,1.735.217-1.038.869,1.148.8.65,2a7.267,7.267,0,0,1,4.867,3.229c.972-.509.589-.158.8.508,1.324,0,3.3.638,3.5,1.906,1.225-.824,2.429,1.426,2.5,2.091-.122-.178-1.163-.353-.843.1a1.44,1.44,0,0,0,1.455.49c-.127-.3-.226-.589.232-.723.683.585,1.611.372,2.441.481-2.328.651-2.768,2.059-3.76.481-1.2.331-2.008-.5-3.171-.318-.5-.713.08-1.2-.7-1.461.349-.438,1.163.353.981-.448-1.708-.535-3.767-1.43-4.972-.448-.506-.805.633-.971.134-1.776-1.388.861-2.184-1.066-2.761-1.261a2.122,2.122,0,0,0,1.683-.052c.148,1.086,1.64,1.573,1.97.64-.744-1.1-2.045-.941-2.768-2.054l-.744.277c-.141.7.981.707.362,1.007-.158-.564-.931.21-1.351.2-.68-1.947-2.092.275-3.166-.889.531-.538,1.437.141,1.285-.433a16.142,16.142,0,0,0-3.046-1.5c-.43-.644.16-.756-.115-1.35a10.027,10.027,0,0,1-1.923-.025c.074-.761,1.537-.709,1.832-1.339-.12-.658-.726-.466-1.018-.818-.25.991-1.2.138-1.4-.168-.322,1.023-1,.128-1.228.59.024.163.038.316-.2.323-.5-.892.872-.655.472-1.488-.715-1.011-2.521.584-2.824-.394.612-.068.967-.3.935-.762-.762-1.547-2.836-.063-3.3-.069.521-.175.4-.8.6-1.2.648-.15,1.905.431,2.126-.2-1.154-1.577-2.034-.125-3.589-.621-.131-.489.208-.632.107-1.094l-1.563.261c.053.486,1.466.669.713,1.231-.562-.5-.913-1.276-1.805-1.33a37.682,37.682,0,0,0,4.834,4.544c-2.4.22-3.731-4.461-5.444-3.107-.786.094-1.082-.465-1.487-.87.314-.083.769-.058.772-.374-.9-.789-1.358-2.113-2.232-2.895.311-.077.764-.052.774-.361-.779.075-.552-1.058-1.4-.916.152.494.6.636.625,1.277-1.512-.161-1.779-.76-3.489-.267-.263-1.214-.853.121-1.436-1.8-1.812.264-2.944-2.59-4.108-3.88.31-.035.749.057.8-.255-.2-.064-.3-.231-.245-.542-.54.7-1.593.563-1.572-.575.019-.355.479-.233.556-.52-.722-.044-.556.428-1.066-.035-.05-.526.387-.516.577-.778-.5-.08-.6.279-1.081.224-.943-.83-1.25-3-2.5-2.794-.177-.966,1.223-.141,1.164-.977-2.917-.1-3.079-2.328-2.955-3.978-.03.276.3.246.3-.231a1.7,1.7,0,0,0,2.672-.238c-.747-.411-1.1.15-1.46-.682-.314.428-.63.853-1.429.63.074-.857,1.1-.431,1.261-1.177-.207-.573.3-.95-.544-1.375-2.583.369-3.478-2.273-5.244-3.163.62.17,1.217.292,1.4-.262-.6-.832-.351-1.354-1.641-.87.412-1.654-1.164.251-1.07-1.039.838.288,1.209-.2,1.74-.43.028-.291-.17-.45-.36-.61-.391.216-.667.62-1.42.223.822-.9-.2-1.234-.879-.741a13.436,13.436,0,0,0-2-4.407c-.66-1.346-1.086-2.631-.293-4.046-1.045-.165-.728-.957-1.774-1.138.737-1.351-.113-1.686-1.222-1.8-.21-1.333.294-1.915-1.074-2.07.077-1.093,1.069.344,1.3-.316.324-.874-.8-.9.24-1.6-.913-.157-.93-.659-.821-1.2.3.085.647.328.83.073a23.192,23.192,0,0,1-2.081-5.061c-.608-1.743-1.007-3.476-2.006-4.684-.138.947.9,2.548.145,3.064.1-.272-.031-.734-.311-.467-.108.682-.252,1.492.622.937.228,1.187-1.169,1.118-1.977.734.586-1.527,1.394-3.741-.477-3.608.78-.672-.622-.842.049-1.486.715.006.472,1.054.9.526.494-.66-.073-1.07-.538-1.522-.168.137-.3.423-.523.3.483-.759,1.144-.72,1.941-.06-.113.607-.609.733.312,1.365.407-1.076,1.317.046,1.78-.775-.411-.319-.3-.757-.45-1.134a4.6,4.6,0,0,1-4.368-3.249c.693.7.841-.6.648-.831-1.2-.129-.382-1.923-.373-2.81.343.188.72.619,1.013.392.438-.944-1.634-.97-1.356-1.6,1.28.114-.023-.923.042-1.25.487.314.809-.765,1.232-1.009-.436-.248-.271-.555-.671-.811.189.445.089,1.123-.682.768.455-.82.389-1.769-.734-1.534.345-.815.778.378,1.122-.437-1.288-.7-.11-.618-.237-1.211-.461-.444-.9-.23-1.34-.1.956.072-.043,1.451.1,2.132-.431-.58-.763.057-1.168-.264.06-.549.308-1.1-.256-1.61-.731.029-.736.653-1.1,1.164.052-1.658.674-1.866,1.81-2.64-.681-.922.809-1.737,1.075-2.524.572.01,1.157.558,1.73.483-.174-.805.282-1.62-.043-2.422-.508-.227-1.478-.145-.965-.869.658,0,.484.935,1.339.18-1.033-.355-.348-.376-.377-1.036a5.149,5.149,0,0,0-1.327-.2c.09.209-.084,1.24-.592.869.04-.472.714-.922.049-1.406-.7.141-.285,1.111-.8.688.266-.315-.26-.518-.542-.548a1.431,1.431,0,0,1,1.566-.66c-.135-.477.445-.921.087-1.4.6-.516,2.134-.513,1.623-1.309-.513-.857-1.182.407-1.678-.63.632-.769,1.094.705,1.726-.059.3-1.309.68-2.575-.237-4.005,1.195.289.238-1.111.429-1.511.433-.542,1.678-.205,1.519-1a25.344,25.344,0,0,1-1.977-2.037c.437.005.785-.372,1.3-.831.975-.06-.193,1.139.8,1,.166-.783.678-2.394-.272-2.815-.438.4.111,1.252-.777,1.076a3.954,3.954,0,0,1,.381-2.588c.361-.829.68-1.587.282-2.195,1.125-1.666,2.793-2.268,1.594-3.667.579-.2,1.284-.02,1.016-.771-.354.082-.636-.1-1.058.227l-.815-1.313c1.789.329.174-2.321,1.5-2.059-.624.353-.035.858.49.875-.162-.651,1.193-.8.591-1.6-1.058-.005-.142-.675-.483-1.434.63-.586.571.649,1.2.064-.041-.192-.228-.442,0-.541.8.366-.185,1.9,1.32,1.9-.626-1.167,1.932-1.928.122-2.98.427-.219.662.06,1.073-.125-.553-.773.527-1.375-.334-1.747-.661.155.26.945-.611,1.022-.33-1.651.481-2.161-.449-3.3.7-.146.951.653,1.646.527-1.337.311-.381,1.727.48,1.653-.281-.958.386-1.523.312-2.409a1.835,1.835,0,0,0-1.341.149c-.663-.976.08-1.333-.049-2.08.707-.433.922.144,1.436.109-.778-1.768,1.505-3.217.795-4.92.59.129.882.75,1.426.957.862-.8-.923-.922.027-1.521.123.281.264.54.667.368-.054-.414-.017-1.135-.47-1.426a4.465,4.465,0,0,1-.96,1.218c-.2-.405-.619-.45-1.18-.251.27-1.166,1.214-1.962,1.8-2.95,0-1.205-.889-.976-1.457-1.269,1.114-.616.7.071,1.858-.1.469,2.024-.564,2.248-.824,3.509.813-.506.939-.179,1.7-.6.764.628.448,1.123,1.553,1.47-.573.075-.639,1.385-.353,1.31,1.163-.053.827-1.819-.134-1.971.992.047,1.065-1.41.556-1.608-.879-.073-.1.849-.786.9-.13-.268-.48-.184-.835-.1.147-1.434,1.573-2.846,2.538-4.072.934-1.151,1.527-2.125.216-3.042.235.336-.316.932-.633.4.1-.24.876-1.028.309-1.046-.634.612-.607,1.691-.436,2.822-1.579-.15-.632,1.346-1.674,1.559-.446-.757.511-.623.483-1.116-.4-.19-.68-.591-1.215-.577.087-.995-.734-1.3.389-1.624.662.417-.115,1.732,1.194,1.623-.492-1.356-.292-2.451-1.141-2.651-.63-.113-.6,1.261-1.263.431a.652.652,0,0,0,.371-.826c1.408.39,1.6-1.548,2.931-.105-.551-1.1.113-3.924,1.635-4.009-.3-.032-.449-.253-.6-.474.312-.052.6-.125.437-.554a1.344,1.344,0,0,1,1.192.947,6.8,6.8,0,0,0-1.708,2.2c.516.057.389.954,1.174.656-.621-1.181,1.485-1.982,1.181-3.676-.635.074-.724.546-1.067-.187.357-1.114,2.71-2.077,1.491-3.126.84.361,1.779.787,1.513-.8.49-.063.6.281,1.065.251.4.822-.829.2-.431,1.017,1.584-.226-.106.618.6.757.738.037.58-.713.939-1.012-1.233-.271-.271-1.174-1.429-1.53.758.263,2.419-.189,1.727-1.272.489.068.549-.278,1.013-.231,1.323.775-.851,2.066.682,2.314-2.233,1.1-2.424,3.088-3.618,4.733,1.494.244.646-1.721,1.946-1.007.234-.753.085-.964-.429-1.493,1.326-.5.4-.4,1.316.26.1-.731.782-.722-.127-1.254.889-.739,1.015,1.18,1.691,1.532.084-.971,1.469-.74,1.593-1.676-.383-.149-.671-.4-1.059-.545.293.81-.325.76-.387,1.234-.547.089-1.482-.789-.86-1.028-.151.409.612,1.107.558.519a1.806,1.806,0,0,0-.368-1.27c.432-.386,1.909-.956,1.408-1.461-.88-.072-.571,1.015-1.45.953-.357-.994.832-.87.146-1.521,1.417.832,3.487-1.29,2.272-2.355.914-.137,1.333.777,1.547-.1-.065-.365-.428-.469-.515-.812.806.068.328-.544.265-.989a15.849,15.849,0,0,0,1.8-.559,5.562,5.562,0,0,0,0,4.279c.54-.452-.044-.807-.274-1.277,1.076.271.857-.883,1.769-.781.037.555.636.621,1.254.676-.25-1.342,1.117-.814,1.242-1.06-.036-.383.1-.915-.233-1.049-.292.031-.639,1.24-1,.353.26-.066.6-1.3.272-1.23.049.524-.936,1.093-1.264.321-.177-1.539,1.25-1.133.883-2.394.514.021.487.43.733.639.507-.57,1.963-.983,1.458-1.994,1.756.12,1.142-1.3,2.031-2.138-.027.022,1.272.315.592-.643.729-.049.6.506,1.2.547-.437-1.188,1.448-1.181,1.879-2.064-.019.447.329.683.9.786,1.022-.042-.132-.771.424-.9a.809.809,0,0,0,.647.723c-.218-.991.854.116.866-.5.184-.539-.651-.5-.589-.971,1.172-.218,1.5-1.9,2.751-1.988a.806.806,0,0,0,.313.912c.338-1.169.818-1.552,1.406-.56.753-1.06,1.793-2.351,3.02-1.409.163-.942.984-.527,1.364-1.022-.154-.642.332-.656.219-1.544.61.518.7.669,1.237.288.323.731-.57.808-.918,1.227.748.5.533,1.418.653,2.2.718-.074,1.363-.28,1.177-1.345,1.022-.144,2.237.3,2.579-1.479.676,0,.369,1.287.813.717.088-.226-.079-.372-.052-.581,1.765.714,3.64-1.635,5.72-1.478-.987-.561-.917-.322-1.717-1.042-.048.906-.782-.238-.825.665.236.168.48-.132.435.257-1.374.971-2.373.164-3.665,1.02.272-.5.989-.769-.093-1.166.419-.757.87-.721,1.4-.071.285-.495,1.621-2,2.709-1.884-.139.374-.375.782.138.951.563.308.72-.651,1.151-.764l-.646-.392a39.058,39.058,0,0,0,4.556-1.8c.7.231.383.689.934.952l.473-.881c.446.224.252.589.383.882.241-.435.714.127.891-.581-.221-.208-.605-.384-.5-.665.557.173.923-.518,1.521-.136-.178.358-.456.741.034.959.214-.588.633-.2.821-.943a.81.81,0,0,1-.354-.9c1.236,1.322,1.834-.555,2.859-.3.192.357-.486.829-.138,1.161,2.235.762,5.025-1.922,7.827.04.218-.32-.346-.616.087-.944.861-.027-.1.457.566.92.859-.031-.168-.447.426-.954.492.361.112.75.735,1.108.672-.611,1.416.06,2.1-.619a.811.811,0,0,1-.2-.941c.227.182.437-.1.652-.392,1.233,1.118,1.932-.42,2.821.147-.048,1.159-1.094.4-1.643.778.169.187.07.378.176.564a18.349,18.349,0,0,1,3.581.037,2.03,2.03,0,0,0-2.114-.623c.373-.318.105-.63.169-.945,1.212,1.113.775-.176,1.653.038.257.537.977,1.325,1.61,1.241-.209-.906-.461-.93-.6-1.554.473.636,1,.011,1.446,1.042a.657.657,0,1,1,1.31.1c1.338-1.058,2.578-.442,3.819-.251.773-.222.767-1.507,1.3-1.137-.464,1.035.637.371.783,1.658,1.429-1.623,2.986.043,3.958-1.625.375.738,1.034-.069,1.521.081-.555,1.042.231,1.278,1.265,1.277a8.7,8.7,0,0,0,2.859-.485c.044,1.288-1.339.413-1.439.991.386.534.741,1.167,1.209,1.3-.138-1.1.3-.263.727-.2.124-.887.275-.856.7-1.378.536.671-.579.888-.384,1.465.47.787,1.275.909.76,2.175.582-.694.8-1.483,1.454-2.152.112,1.026,1.228,1.175,1.446,1.988.395-.743-.558-1.868-.384-2.672,1.257-.01.665,2.719,2.6,1.667-1.479-.862-.813-2.01-2.379-2.981.644.215,2.245.351,2.133,1.083-.127-.156-.3-.173-.533.007a2.455,2.455,0,0,0,1.615,2c-.4.5-.813.361-.5,1.427.407-.013.6.562,1.129.22-.053-.592-.9-.405-.052-.827.708.53.938,1.236,1.89.108.2,1.443,1.958,1.641,2.068.593l.32.935c.651-.842.792-.16,1.492-.146.178.913-.336,1.17.272,1.807.913-.359,1.926-.756,2.6.211-.572.4-1.429-.494-1.656.455.633.126.5.915.771,1.008,1.287-.266,1.52.069,2.58-.839.906,1.726,3.9-.266,4.272,2.4.3-.4.543-.486.945-.314.471.755-.867,1.516.05,1.814.637-.129.031-1.021.832-1.048,1,.452,1.385,1.371,2.639.751.5.768-.8.389-.627.952.719.464,1.485,1.479,2.547.617.507.527.794,1.331,1.831,1.128.05.588-.364.831-.141,1.555,1.157-.627.572,1.033,1.522.683.216-.472.746-.7,1.2-1-.006,1.034-1.574.865-1.4,2.04.477-.174.5.233.754.343.2-.4.339-.858.963-.936.152.752-.831.818-.208,1.281.8-.168.948-.864,1.207-1.467-.193,1.211.634-.451.743.4-.415.163.055.321,0,.764-.419.161-.625-.286-.732.107-.113.978.741.8,1.212,1.093.2-.808-.839-.19-.479-1.2,1.432-.357,1.328,1.2,2.473-.065-.552.707-.2,1.035-.521,1.58a1.317,1.317,0,0,0-1.247.66c.427.431.988,1.93,1.935,1.008-.73.092-.967-.872-.445-1.448,1.184.17,1.695,1.062,3.219.921-.034,1.272,1.761.842.64,1.938,1.1.13,1.3.766,2.162.683-.962.839,1.12.764.8,1.744-.9.152-.513-.881-1.411-.72-.047,1.821-.995-.481-1.542.56.164.721.666.778.586,1.216,1.446-.291,2.47.522,3.932.427-.256.573-1.2.367-1.406.992-.669.2-1.009-.945-1.46-.217.844.46,1.855.818,1.645,2.173.875.233,2.186.157,1.688,1.508.833.768,2.927-.632,2.792.913-.688-.427-1.1.085-1.844.377,1.643.5,2.262,2.985,3.672,2.51.474-1.07-.781.3-.309-.77l1.257.123c-.8.875-.179,1.423.214,2.012,1.369-.547,1.26.621,2.282.865.016.864-.509.995-.234,1.481,1.494.2.358-2.4,1.791-1.467-1.1.677-1.01,3.224-.005,3.809a.836.836,0,0,1,.754-.608c-.036.706-.571.54-.678,1.122.813.921,1.787.212,1.286,1.517.515.055.736-.519,1.251-.465-.082.718-.59.524-.736,1.119,1.031.325,1.67.879,1.3,1.9.744.407.724-.856,1.513-.354.039.535.661.8.789,1.287-.52-.234-.929-.219-1.177.17.884,1.232,1.626,2.281,2.288,3.376a21.055,21.055,0,0,1,1.554,3.783c.181-.26.369-.5.722-.253-.616.626.338.708.188,1.17a.815.815,0,0,0-.853.459c.668.6.336,1.5,1.444,1.973-.2.424-.555.353-.765.743,1.68.538.54,1.9,1.473,2.671.149-.209.357-.157.515-.3-.4-.415-.224-.978-.163-1.517a2.5,2.5,0,0,0,2.091,1.368c-.273,1.07-1.182-.574-1.557.051.953,2.034,5.016,5.271,4.3,7.75.929.166.568.456.724,1.107-1.368.266-1.308-2.127-2.49-1.335a12.8,12.8,0,0,0,2.144,4.842c-.464.79-.977.424-.208-.151-.547.188-1.312-1.553-2.263-1.255.3,1.087,1.616,2.669,2.246,2.792-.274-.144-.5.132-.727.408,1.682,2.123,1.674,4.367,4.824,6.652-.567.509-1.144.261-1.718.19.249-.364.771-.194.563-.523-.066-.446-.27-.607-.768-.333.076.572-.3,1.148.027,1.723.317-.2.636.18.957.173.248.468-1.1.913-.76,1.376.245.179.477.531.74.361-.06-.929-.2-.772.791-1.037a2.112,2.112,0,0,1-.211-1.574c.73.564.216-1.1.947-.538.152.755-.03.421-.748,1.062-.194,1.724,1.33,2.262,1.43,3.559-1.049-.559-2.071-1.606-3.192-.977-.634.949,1.3,2,1.147,2.991-1.154.628-.426,1.363-.542,2.053.864-.01,1.849,2.088.969,2.183.072-.532-.315-1.539-1.08-.8.65.524.393.967.637,1.462.347-.223.593.375.968-.069a13.6,13.6,0,0,0,.918,2.789c-1.98,1.271,1.088,2.315-1.188,3.583.6.593.158.987.872,1.611a8.493,8.493,0,0,1-3.19-1.673c-.013,2.248-.813,4.545,1.511,6.217-.633,1.676-1.142,4.3.645,6.125,2.587-1.468-1.157-5.458.651-6.542-.385.355-1.386-.586-.934-.956a.771.771,0,0,0,.972.042c-.253-1.173-2.578-2.123-1.907-3.653,1.258.939,3.453,3.039,3.209,4.706-.55.1-.689-1.386-1.393-.705.705,1.418.793,2.519,2.347,3.787a21.537,21.537,0,0,0-1.633,2.971c1.141,1.54.236,2.346,1.928,3.16-.746.57-.785-.817-1.57-.14-.475,1.171-.057.629-1.222.554l1.034,2.143a1.419,1.419,0,0,0-.664,1.742c.9-.05.421-.639.757-.91.221.849.634,1.2,1.157,1.254-.362.538.078,1.4-1.042,1.623-.331-.542-.667-1.09-1.412-.58a34.993,34.993,0,0,1,1.989,3.518c-1.809.161.921,2.4-.812,2.594-.719-.454-.069-1-.961-1.085.649-.263.075-1.085.313-1.533-.372.051-.622-.174-1.112.121l.545,1.5c-1.372-.3-.532,1.14-1.428,1.625-.43-1.858,1.084-3.4-1.234-4.883-1.119,1.156,1.131,5.416-1.908,4.77a2.269,2.269,0,0,0,.269,1.587c.31-.05.7-.263.844.023-1.628,2.191-1.518,5.448-3.519,7.465.385-.014.434.507.706.666-1.023.017-.341,1.13-1.069,1.333-.433-.885.364-1.489-.615-1.513a11.167,11.167,0,0,0-1.572,2.986c-.717.332-.756-.26-1.379-.054.141.335.462.434.444.994-.627.1-.86-.328-1.639-.034.135.971-.177.779.248,1.563-.843-.146-1.217-.915-2.053-1.072-.167.78-.054,1.8-1.033,1.96l-.077-.518c-.159,0-.312-.009-.3-.234.844.246,1.225-1.008.621-1.119-.752,1.136-1.318,1.848-1.1,3.284-.982-.512-.8.608-1.586.106.38.32.442.935-.17,1.037a1.5,1.5,0,0,0-1.741-1.469,14.622,14.622,0,0,0,.791-2.088c-.667.023-.447-1.073-1.4-.68.734,1.608.021,2.5-.635,3.569.649.441,1.393,1.686.175,2.053-.052-.611.4-.771.135-1.551a1.956,1.956,0,0,0-1.575.026c.1.3,1.138.957.372,1.28.049-.314-.829-.881-.806-.254.033.8.878.729.653,1.8-.578.116-1.469-.8-1.583-.265.554.174,1.222,1.635.636,2.09-.762-.261-.215-.872-.576-1.053-.023.915-1.174-.492-1.019.241,1.473.722.351,2.905-.752,3.3a2.362,2.362,0,0,0,1.053,1.1c-.794.132-1.015.6-.295,1.026-.708-.044-.6.792-1.354.7a5.968,5.968,0,0,1,.871-3.835c-.267-.014-.317-.225-.534-.288-1.16,3.068-3.036,3.815-3.952,7.489-.73-.319-.726.263-1.355.064-.038-1.633,1.341-3.094.577-5.141l-.518-.059c-.51,2.392-.618,5.58-3.281,5.442-.9,1.622-2.233,4.154-3.925,3.7.279.422.028.818-.441.948.2-.633.112-1.1-.578-1.2-.327.357-.832.452-1.622.081-.15.614-.64.643.055,1.067.1-.284.1-.719.405-.678C2184.252,376.266,2182.915,376.608,2182.881,377.873Zm-79.12-160.281c-.328-.63-1.081.025-.848-.578-.373-.147,0,.513-.434.3C2102.4,217.905,2103.64,218.239,2103.761,217.591Zm-15.585,7.906a1.91,1.91,0,0,0,2.19-1.4C2089.743,224.784,2088.579,224.388,2088.177,225.5Zm-.941-.4c-.03.29-.158.4-.355.372,0,.279.428.357.354.665.329.051.474-.252.822-.163C2088.105,225.531,2087.789,225.255,2087.235,225.1Zm-11.656,5.813c-.134.714.485.9.357,1.606a2.286,2.286,0,0,0,2.168-1.749c-.169-.265-.649-.318-.673-.687C2076.668,230.143,2076.31,230.785,2075.579,230.908Zm6.511-3c-.456.3-1.2.141-1.419.815C2081.318,229.644,2082.108,228.981,2082.09,227.9ZM2087,225c-.348-.874-1.492-.266-1.629.415C2086.184,225.764,2086.311,224.858,2087,225Zm1.38-1.254c.807-.142,1.814-.4,1.548-1.73C2089.058,221.845,2088.654,222.692,2088.381,223.742Zm-5.347,1.885a1.37,1.37,0,0,0,.666.5c.04-.242-.253-.3-.428-.414.3-.362,1.029.028.971-.977C2083.606,224.612,2083.391,225.256,2083.034,225.627Zm-5.792,3.888.732.187c.061-.351.123-.7-.154-.815.074-.289.47-.1.769-.044.168-.611.285-1.189-.589-1.191.016.213.212.316.171.56-.45-.1-.484-.457-.956-.523C2077.522,228.611,2077.5,228.319,2077.243,229.515Zm-3.526,2.251c1.043-.105,1.576-.864,2.187-1.547-.414-.192-.488.085-.547.383-.291-.025-.439-.158-.473-.363C2074.313,230.652,2074.367,231.047,2073.717,231.766Zm-.469,3.148c-.476-.563-.058-1.178.1-1.715-.451-.122-.553.192-1.028.041.4-.293.528-.952,1.1-1.029-.713-.636-1.567.892-2.391,1.038A9.779,9.779,0,0,0,2073.249,234.914Zm3.1-1.3a2.246,2.246,0,0,0-1.881-1.686c-.254,1.037,1,.993,1.127,1.758A1.056,1.056,0,0,1,2076.351,233.615Zm17.287-9.29c.99.552,1.451-.067,1.825-.975-.494-.152-.529-.464-.8-.7C2094.838,223.129,2094.357,223.923,2093.638,224.325ZM2068.719,238.2c.582-.1,1.044-.311.989-1.115-.8-.159-1.089.279-1.248.834C2068.672,237.9,2068.7,238.043,2068.719,238.2Zm-1.972,1.993c-.084-1.037-1.025-1.59-1.572-.879.1.329.469.427.544.786-.179-.049-.832.493-1.015.162-.2.219.012.747-.124,1.5C2065.492,241.417,2065.954,240.644,2066.747,240.189Zm-9.663,3.748c.006-.3.455-.223.757-.269-.112-.441-.513-.566-1.105-.477l.143,1.253C2057.136,244.432,2057.048,244.134,2057.084,243.937Zm3.765.951c.253.866,1.219.134,1.222-.483C2061.06,244.034,2061.659,245.08,2060.849,244.888Zm-3.18,2.813c-.563-.844-.488-1.255.494-1.546-.138-.336-.673-.178-1.059-.2C2057,246.665,2056.489,247.458,2057.669,247.7Zm-2.931,3.5a3.454,3.454,0,0,0,1.081-2.358C2054.793,249.141,2054.788,250.208,2054.738,251.2Zm2.1.057c1.867,2.308,1.107-2.51,2.234-2.88-.212-.546-1.378-.12-1.52.086-.009.526.306.646.448.973-1.161.154-.7-1.784-1.866-1.633.273.578.338,1.658,1.409,1.913-.358.394-1.749-.162-.812,1.055-1.016-.26-1.993,1.4-1.608,2.128C2056.213,253.495,2056.421,251.787,2056.841,251.258Zm67.943-37.088c-.457-.9-.886-.2-1.327-.356C2123.289,214.6,2124.451,214.756,2124.783,214.17Zm-68.909,39.636c-.688.2-1.373.415-.936,1.352A1.2,1.2,0,0,0,2055.874,253.806Zm13.082,8.184c-.329.637.842,1.294.1,1.507C2070.344,264.392,2070.344,261.984,2068.956,261.99Zm32.173,132.9c-.253.378-.6.725-.267,1.313-.015-.589,1.207-.641.607.017a1.576,1.576,0,0,0,1.451-.694C2101.87,394.8,2101.872,395.363,2101.129,394.886Zm-11.674-6.2c-.365.867,1.34,1.211,1.937,1.571A3.263,3.263,0,0,0,2089.455,388.689Zm-2.045-2.08c-.528.49.28,1.778.784,1.672C2088.748,387.707,2087.608,387.046,2087.41,386.608Zm-10.265-8.363c.11.975,1.25.552,2.153.409C2078.922,378.047,2078.072,378.112,2077.144,378.245Zm-3.927.611c-.361,1.632,1.713.585,2.834,1.176-.22-.924-.831-.848-.5-1.788C2074.675,378.577,2074.256,379.261,2073.218,378.856Zm.938-1.189c-.429-.249-.723-.658-1.4-.594.216.8-.382.98-.066,1.856C2073.452,378.72,2073.486,377.952,2074.156,377.667Zm-.552-3.062c.125.5.011.813-.463.846-.024,1.068.679,1.268,1.221,1.656.816-.678-.864-.637-.673-1.473.2-.761,1.119-.091,1.568-.238A1.741,1.741,0,0,0,2073.6,374.6Zm-1.791.739c-.345.152-.092,2,.917,1.469A2.208,2.208,0,0,0,2071.813,375.344Zm-4.324-5.713c-.56,1.09,1.192,2.06,2.626,1.906a1.391,1.391,0,0,0-.273-1.8c-.974.277-.015.9-.513,1.334-1.346,0-.617-.851-1.051-1.485C2067.832,369.556,2067.6,370.061,2067.49,369.63Zm-1.772-2.007a.886.886,0,0,0,1,1.018,1.755,1.755,0,0,0-.21-1.288A1.263,1.263,0,0,1,2065.718,367.623Zm-3.977,1.007a2.337,2.337,0,0,0,1.75,2.17C2062.909,370.071,2062.615,369.082,2061.74,368.631Zm3.97-4.39c.2.445-.122,1.39.662,1.291C2066.416,364.843,2066.747,363.913,2065.711,364.24Zm-5.6-1.432c-.293.863.927.47.944,1.076.017.691-1.456-.312-1.136.728,1.216-.5,1.6.467,2.375.094C2061.755,363.915,2061.422,362.96,2060.115,362.808Zm2.345-1.943c-.006.594,1.124.181,1.294.038C2063.666,360.015,2062.89,360.59,2062.46,360.865Zm-4-1.067c.472.478,1.71-.059,1.759-1.132A1.725,1.725,0,0,0,2058.464,359.8Zm1.763-4.981,1.262.115c.158-.4-.143-.449-.086-.764C2060.9,354.228,2060.3,354.154,2060.228,354.817Zm-3.76,1.623a1.366,1.366,0,0,1,.054,1.047c1.078.166.793,1.326,1.822,1.513.156-1.01-.973-.9-.175-1.839C2056.825,357.468,2057.345,356.863,2056.468,356.44Zm-.615-3.166c.146.816.5.2,1.17.667.232-.5-.02-.677-.021-1.021C2056.345,352.65,2056.366,353.339,2055.854,353.274Zm-.557-.875c-1.846,1.032.742,2.672,1.279,3.539C2057.428,354.711,2054.748,354.072,2055.3,352.4Zm-3.14-5.338c-.434.7.537.619.1,1.325.357-.014.534-.34.914-.322C2053.159,347.548,2052.719,347.278,2052.156,347.062Zm-2.951-8.207c-.62.828.888.71.1,1.623l1.456.442A3.79,3.79,0,0,0,2049.2,338.854Zm87.346,51.353c.3.356.59.155.895.548.429-.327.321-.642.489-.96C2137.444,389.131,2137.006,389.617,2136.551,390.207Zm-3.127-.707c-1.145,1.1,1.506,1.591,1.384.361C2134.126,389.392,2133.7,390.811,2133.425,389.5Zm-5.893-2.042c.982.238,1.056,2.572,2.305,1.3-.9-.041-.267-.817-.781-1.379C2128.488,388.4,2128.093,386.642,2127.531,387.457Zm-4.773-2.408c.665.858,2.446-.292,1.972-1.437-.4.718-1.091,1.22-1,.251A1.3,1.3,0,0,0,2122.759,385.049Zm10.076-5.768c-.449,1.114.5.57.922.75C2134.028,379,2133.061,379.849,2132.835,379.281Zm-2.257-1.074c-.2.3.378.657.122.956.582.375.8-.457,1.056.641.393-.286.311-.608.475-.911l-.449-.6C2131.1,379.049,2131.31,378.363,2130.578,378.207Zm35.387-13.772c.466-.391.9.572.975-.211C2166.471,363.214,2166.007,363.931,2165.965,364.435Zm-1.822-1.773c.493-.2.911-.435.429-1.127C2163.912,361.64,2163.979,362.124,2164.143,362.662Zm7.3-8.052c.6-.155.2-.661.078-1.067l-.56.424Zm-65.62-1.17c-.44.842.55.953.867,1.094C2107.022,353.878,2106.082,353.7,2105.823,353.44Zm-16.76-13.252c.017,1.036.4,1.771,1.357,1.906A6.008,6.008,0,0,0,2089.063,340.188Zm-2.551-3.183c-.233-.265-.461-.535-.689-.8a2.189,2.189,0,0,0-.335.691c.707-.191.217.583,1.09.249C2086.529,337.106,2086.536,337.051,2086.512,337.006ZM2073.629,311.7a.743.743,0,0,0-.236.194.667.667,0,0,0,.3.138C2073.673,311.919,2073.654,311.808,2073.629,311.7Zm-.136-.662c-.25.027-.444.066-.16.2a1.808,1.808,0,0,0,.227.122C2073.537,311.25,2073.516,311.143,2073.494,311.035Zm-.8-2.568a1.029,1.029,0,0,1,.315-.049q-.056-.35-.108-.7c-.839-.358.344-.935-.56-1.295a1.341,1.341,0,0,1,.348-.237c-.01-.089-.017-.178-.027-.267-.365-.155-.235-.347-.056-.543-.023-.212-.046-.424-.066-.636a1.262,1.262,0,0,0-.187-.069,4.753,4.753,0,0,0-.59,2.359,12.049,12.049,0,0,0,.435,2.279C2072.4,309.019,2072.84,308.7,2072.694,308.467Zm-16.7,3.586c.727-.428.215-.691.458-1.052-.358-.329-1.978.458-1.2-.428-.14-.134-.263-.051-.377.042l-.413-.243a1.145,1.145,0,0,1-.491.782C2054.655,311.546,2055.286,311.474,2055.993,312.053Zm-5.23,1.3c.854.338.074.891.762,1.57,1.043-.87-.139-1.4.131-2.145C2051.321,312.661,2051.052,313.109,2050.763,313.348Zm1.756-1.433a2.2,2.2,0,0,0,.644-3.452c.51.064,1.157-.122,1.128-.666-1.154-.286-.6-.4-.406-1.412-.871-.355-.7-.995-1.352-.955-.578.422-.385,1.326.394.858.06.555-.636.62.4.854-.316.073-.64-.147-.947.2.08.63.146.676.969.666a1.865,1.865,0,0,1-1.518.409A3.08,3.08,0,0,1,2052.519,311.916Zm-10.928,3.5c-.345.446.821.681,1.094,1.033C2043.142,315.912,2042.093,315.332,2041.592,315.413Zm14.479-19.872c-.73.688-.07,1.482-.963,2.173.285.036.8.213.536.452A1.847,1.847,0,0,0,2056.071,295.542Zm2.036,2.889c1.072-.046.818-1.292.932-1.826C2057.694,296.6,2058.626,297.917,2058.106,298.43Zm-5.4,6.266c1.169.39.778-.629.563-1.031C2052.177,303.467,2053.613,304.412,2052.711,304.7Zm-6.536,5.419c-.257-.618-.147-1.264-.45-1.884C2044.786,308.343,2045.63,310.119,2046.175,310.115Zm4.7-1.771c1.029.537.823-.93,1.126-.676a1.737,1.737,0,0,0-.6-1.3A12.826,12.826,0,0,1,2050.875,308.344Zm43,37.38c-.662.693.166,1.1.822.761C2094.826,345.734,2093.733,346.488,2093.875,345.724Zm81.088-7.783c.063.014.083.017.136.028-.008-.045-.015-.088-.024-.136A1.062,1.062,0,0,1,2174.962,337.941Zm42.292-58.644-.468.6.845.535C2217.682,280.022,2218.115,279.538,2217.255,279.3Zm-1.085-2.35c-.413.943.229,1.658.337,2.49A1.516,1.516,0,0,0,2216.17,276.947Zm-1.182-1.787c-.288.691,1.04,1.016.583,1.745C2216.543,276.741,2216.093,275.418,2214.988,275.16Zm-14.6-25.551c.611.318.19,1.286,1.074,1.436C2201.551,250.289,2201.32,249.721,2200.391,249.609ZM2187.3,237.138c.135.858.871-.165,1.153.668C2189.506,237.069,2187.513,236.7,2187.3,237.138Zm-.865-2.124c-.03.5-.7.4-.551,1.049.92-.319,1.3.3,1.749-.181C2187.342,235.489,2187.173,234.957,2186.439,235.014Zm-14.273-9.969c-1.023,1.3.622.421.726,1.575C2173.566,225.84,2172.264,225.63,2172.166,225.045Zm-4.96-1.456.141.744a2.729,2.729,0,0,0,2.214,0c-.027-.816-.507-.854-.74-1.331C2167.988,223.752,2168.191,223.677,2167.206,223.59Zm-106.019,51.676c.415,0,.6.566,1.17.166-1.091-.612-.966-1.01-.152-1.522-.666-.281-.068-.383-.572-.984l-.949.2c1.219.582-.17,1.041.257,1.747-1.044-.191-1.241,1.056-1.311,1.724.634-.944.917-.112,2.195-.357Zm-15.527,9.291c-.344-.2-.9.417-1.2.071-.5.776.9.491,1.1,1.057C2046.2,285.434,2046.1,285.038,2045.661,284.556Zm-1.724-2.4c-.642.239-.552.665-.114,1.159C2044.467,283.065,2044.373,282.655,2043.937,282.151Zm18.769-9.66c1.162,1.155-.1.322-.382,1.172.236.24.6.223.818.489A.859.859,0,1,0,2062.706,272.491Zm4.582-1.827c.74-.064.509-.61.373-1.12C2067.033,269.658,2066.869,270.021,2067.288,270.664Zm-3.875,1.7c.582.012.12-.442.481-.525-.456-.639-.771-1.558-1.715-1.246C2063.3,271.469,2062.476,271.4,2063.412,272.359Zm-20.124,14.029c.836-.669-.1-1.688-.38-2.609-.585.266-1.135.55-.851,1.011-.815.054-1.274-.713-1.554-.852C2039.236,285.318,2042.626,284.99,2043.288,286.389Zm-1.4.24c-1.062.253-.068.894-.616,1.247C2042.01,288.206,2042.4,287.077,2041.884,286.628Zm.891,1.509c.142-.536.823-.961-.08-1.694C2042.149,286.9,2042.67,287.563,2042.775,288.138Zm118.281-66.965c.914-.874-.415-.722-.492-1.7C2160,220.156,2161.064,220.452,2161.056,221.172Zm-96.893,55.39c-.845.005-.139.6-.524.784C2064.252,277.781,2064.858,277.077,2064.163,276.562Zm-4.752,4.9c.345-.327.443-.719-.142-1.334C2058.165,280.242,2058.73,281.253,2059.411,281.463Zm-.84,2.185c-.752-.514-.677-.112-1.1-1.007-1.1.67,1.274,1.349.054,1.885C2058.45,285.17,2058.512,284.05,2058.571,283.648Zm.582,2.109c.268-.86,1.624-2.053.606-2.785-.866.574.214,1.634-1.569,2C2058.424,285.542,2058.887,285.3,2059.153,285.757Zm2.155.086c.254-.3.495-.6-.077-1.1C2060.73,285.013,2060.717,285.709,2061.308,285.843Zm-5.952,2.523c-1.195.221-.364,2.044-1.49,2.789C2055.829,291.493,2054.774,289.156,2055.356,288.367Zm2.21,1.658c.309-.32.137-.715-.17-1.144A.589.589,0,0,0,2057.566,290.025Zm-3.958,2.549c-1.013.658.511,1.6-.352,2.283C2054.981,295.265,2053.438,293.251,2053.609,292.574Zm-.968,4.847c.333-.711.693-1.089,1.6-.756l.4-.253a1.634,1.634,0,0,1-.907-.5C2052.789,296.431,2051.831,296.536,2052.641,297.421Zm-13.457,8.8.387.33c.681-.477-.173-.907.737-1.381a1.808,1.808,0,0,0-1.16-.661C2038.979,305.368,2039.917,305.684,2039.184,306.222Zm-.892,2.28c-.467-.677-.9-.218-1.351-.454-.251-.707,1.134.195,1.506-.767-.118-.771-1.356-.429-1.562-1.341-.986.967-.107,1.885-.3,2.833C2037.159,308.818,2037.739,309.031,2038.292,308.5Zm1.34.1a1.165,1.165,0,0,0-.433-1.693C2038.764,307.5,2039.41,308.045,2039.632,308.6Zm-.244,2.767c.63-.509-.08-.909.292-1.4-.325-.188-.616.5-.941.242C2038.365,310.643,2038.835,311.011,2039.388,311.365Zm13.886-7.988c.746-.834-.478-1.259,1.138-1.437-.447-.42-.892-.076-1.338.138-.174-1.142-.02-2.575-.528-3.5-.9,1.378.667,3.1-1.383,4.08C2052.5,302.419,2052.516,302.856,2053.274,303.377Zm-13.7,11.263c-.164-1.029.2-2.1-.358-3.086-.409.9.126,1.72-.276,2.639Zm-.286,2.312c.8.04.424-1.215.748-1.677a1.315,1.315,0,0,1-.8-.244C2038.5,315.771,2039.754,316.247,2039.288,316.951Zm-.046,2.487c1.1-.149.507-1.49.678-2.054-.757-.24-.483.139-.87.667-.771-.3-.339-.775-1.106-1.077C2037.461,318.193,2038.588,318.8,2039.242,319.439Zm1.375,2.045c-.363-.279-1.277-.464-.594-.947-1.134-.151-1.171-1.265-2.018-.342.2.508,2.145.8,1.563,1.856C2040,322.233,2040.335,321.993,2040.617,321.484Zm13.13-7.213c.165-.723-.556-.619-1.266-1.005-.034.406.17.774.14,1.178C2053.042,314.771,2053.342,314.066,2053.748,314.271Zm-1.687,3.156c0-.668.3-1.375-.461-1.907-.571.319-.005,1.2-.636,1.03C2051.012,316.971,2051.633,317.525,2052.06,317.427Zm-.312,4.9c1.047-.122.116-1.063-.112-1.395C2051.2,321.506,2051.853,321.823,2051.748,322.323Zm-4.731,4.055c.449-.524.173-.837-.454-1.071C2046.114,325.824,2046.394,326.154,2047.018,326.378Zm9.131-1.378c.67-.852-1.381-.733.031-1.23a2.9,2.9,0,0,0-2.032-.351,3.006,3.006,0,0,1-.193-3.493l-1.088-.519c.181-.653,2.418-1.692,1.229-2.522-.28.3-.249.544-.038.755-1.265.635-1.06-1.046-1.051-1.6-.638.16-1.038,2.255.36,2.042-.8.84-2.472.028-2.12-.808-1.154.279.357,1.366-.156,2.051.5.056.316-.329.466-.568.721.42.63,1.009,1.281,1.428-.3.43-.842-.287-1.245-.342.452,1.186,2.641,2.388,1.232,3.783A11.854,11.854,0,0,1,2056.148,325Zm3.657-3.3.461-.559-.856-.344C2058.94,321.261,2059.206,321.533,2059.805,321.7Zm-7.437,3.327c-.193.537.385.845.22,1.378C2053.6,326.238,2052.962,325.243,2052.368,325.027Zm.254,3.975c.679-.558-.036-.645.073-1.007C2052.135,327.877,2051.609,329.1,2052.623,329Zm2.758-.777c-.7-.241-.6-.755-.962-1.113.444-.281,1.093.08,1.36-.754-.559-.746-1.009-.053-1.867-.2-.357.857.712,1.254-.072,2.268C2054.468,328.712,2055.067,328.905,2055.381,328.225Zm1.864-3.558-.553.781c.181-.006,1.209-.175.906.323C2058.541,325.644,2057.99,324.754,2057.244,324.666Zm-.6,1.258c.126.811-1.425,1.226-.271,1.645A1.027,1.027,0,0,0,2056.64,325.925Zm-8.6,7.969a.743.743,0,0,0-.8-1.142C2047.234,333.232,2047.244,333.711,2048.038,333.894Zm.218,2.8c-.338.746.874.854,1.379,1.239C2050.021,337.167,2049.058,336.977,2048.256,336.7Zm-.342-2.578a3.462,3.462,0,0,0,.7,2.433C2049.477,335.927,2048.528,334.738,2047.913,334.117Zm5.733-2.661c.01.383-.315.9.528.968l.382-.65Zm1.426-.538c.614.432.975.108,1.392-.039C2056.815,330.159,2055.323,329.994,2055.072,330.918Zm1.911.89c.148-.439.473-.937-.163-1.064-.457.227-.809.772-1.323.831C2055.36,332.068,2056.535,331.556,2056.983,331.808Zm.583-1.829c-.773.254.605,1.03,0,1.759C2059.113,331.539,2057.819,330.438,2057.566,329.978Zm19.992,4.372c-.648-.116-.591-.663-1.451-.662-.638.991.576.878.6,1.475C2077.118,335.123,2077.385,334.817,2077.558,334.35Zm-11.136,8.865c-.131-1.382.241-1.5.665-2.276C2065.927,341.207,2064.942,343.016,2066.422,343.215Zm-3.548,2.97c.146-.9,1.149-1.285.023-1.463C2062.4,345.02,2061.9,346.266,2062.875,346.185Zm2.562-1.643-1.178-.134c-.715.867.989.2.691.806C2065.239,345.207,2065.3,344.81,2065.436,344.541Zm1.664,3.2a3.436,3.436,0,0,0-2-2.269C2065.1,346.689,2065.572,348.662,2067.1,347.739Zm.565-1.844c-.313.811-.023,1.222.848,1.206-.582,1.146,1.021.711.721,1.665.76-.592.455-1.9-.721-1.665a1.694,1.694,0,0,0,.522-.914C2067.958,346.627,2068.753,345.835,2067.665,345.9Zm12.141-3.9a1.535,1.535,0,0,0-1.528-1.191C2078.536,341.391,2078.766,342.022,2079.805,342Zm-13.484,7.6c.274-.484.906-.726.574-1.163-.9.528-1.139.289-2.265.1.237-.437.822-.376.833-1.13-.48-.134-.7.114-1.049.159-.176.886-.525,1.666.378,2.185.483-.146.152-.426.2-.71C2065.463,349.209,2065.524,349.672,2066.321,349.6Zm1.629.315c-.353-.242-.152-.888-1.009-.763C2066.649,349.914,2067.252,350.449,2067.95,349.916Zm.895,2.2c.285-.811-.94-.428-1.265-.765C2067.673,351.857,2068.113,352.107,2068.845,352.113Zm.306.737a1.33,1.33,0,0,0-.009,1.2C2069.891,354,2070.066,352.635,2069.151,352.85Zm4.773,2.909a1.7,1.7,0,0,0,.4-.98c-1,.13-.919-.226-.549-.914-.9.078-.733.312-1.444.079.136.417.563.573.229,1.419C2073.042,355.472,2073.149,355.927,2073.924,355.758Zm1.693,3.234a1.808,1.808,0,0,0,1.236-.394c.071-.616-.151-.268-.462-.175-.927-.675-1.1-1.816-2.448-1.222C2074.292,358.008,2075.545,357.915,2075.617,358.993Zm11.641-6.759c.525-.456-.2-.5.311-.75-.413-.36-1.65.172-1.328-1.005A1.073,1.073,0,0,0,2087.258,352.234Zm-9.4,3.647c-.143.624-.031,1.006.605.841C2078.6,356.092,2078.5,355.72,2077.862,355.881Zm-4.842,4.829c.206-.794-.579-.619-.584-1.207C2071.9,359.753,2072.356,360.9,2073.019,360.71Zm.722.175c-.235-.618-1.314.1-1.057.833C2073.473,361.854,2073.089,360.88,2073.741,360.886Zm15.131-5.69c.1-.62-.012-.96-.6-.716C2088.163,355.095,2088.283,355.445,2088.872,355.2Zm-11.2,10.12c.051-.961-.6-1.087-1.429-1.047C2076.631,364.715,2076.865,365.344,2077.67,365.317Zm16.929-5.6c.645-.442.647.139,1.284-.308A.66.66,0,1,0,2094.6,359.716Zm-11.938,9.628c.159-.75-.375-.566-.31-1.189-1.274.707-1.086-.509-1.977-.317.047.808.736.8.586,1.886A3.88,3.88,0,0,1,2082.661,369.343Zm2.212,3.06c1.068-.715-1.11-2.577-1.639-1.922C2083.287,371.813,2084.755,371.134,2084.873,372.4Zm19.48-7.406c-.169-1.07-.875-.876-1.485-.95a1.75,1.75,0,0,0-.031,1.04C2103.625,364.44,2103.6,365.6,2104.354,365Zm-3.146,4.349c-.19-.859-.815-.753-1.176-1.219C2099.722,368.678,2100.5,369.814,2101.208,369.347Zm-2.5,3.621-1.762.822a1.256,1.256,0,0,0,2.149-.209C2099.064,373.166,2098.792,373.27,2098.709,372.969Zm11.722-4.477c-.271-1.1-.793-1.347-1.6-.817C2109.2,368.393,2109.7,368.826,2110.431,368.492Zm-11.843,8.841c-1.1-1.249.833-2.839,1.889-3.08-.906-1.143-1.489.992-3.067,1.456-.722-.091-.959-1.15-1.755-1.082-.272,1.13,1.494.749.346,1.44.468.708,1.621.387,1.4,1.532C2097.906,377.526,2098.318,377.967,2098.588,377.333Zm5.469-3.39c-.41-.457-1.051-.333-1.609-.428C2102.889,373.882,2103.208,374.594,2104.057,373.943Zm1.164,2.074.83-.5c-.085-.8-.718-.1-.795-.912C2105.009,374.992,2105.2,375.535,2105.221,376.017Zm5.485-3.211c.518-.308-.125.577.34.889.338-.623,1.444-1.03,1-1.879-.493.254-.257.713-.872.932-.214-.325-.008-.528.216-.725-.208-.47-.662-.1-1.12.24.257.432-.123.623-.422.85l.33.922C2110.554,373.685,2110.334,373.16,2110.706,372.805Zm11.847-.537c.359.119.728.194,1.09.3.533-.864-.691-.929-.135-1.468,0-.556-.808-.153-.875-.623q-.593-.14-.641.735c-1.351.685-2.7-1.377-4.042-1.887-.333-.125-.849-.006-1.266-.2a6.532,6.532,0,0,0-1.524.236,6.816,6.816,0,0,0,.729-1.078,2.754,2.754,0,0,0-1.188-1.259,7.811,7.811,0,0,1-3.756-4.289c-.362-.225-.5.359-.9,0a27.646,27.646,0,0,1-1.559-6.033.61.61,0,0,0-.16.161,1.419,1.419,0,0,1,.128-.378c-.041-.313-.1-.622-.127-.94-.173-.031-.359.068-.509.42-.038-1.047-.61-.11-.341-1.235a1.329,1.329,0,0,0-1.444.953c-.622-.044.534-1.16-.113-1.126-.249.642-.708,1.043-1.151.258-.028-.37.5-.45.518-.8-.412-.208-.355.328-.725.691.008-.449-.251-.363-.257-.776.3-.91.687.354.93-.584-.349-.711-1.378-.313-1.7.822.142-1.052-.059-2.274-.807-.938-.389-.261.072-.5.166-1.017-1.544-.247-1.725-1.419-3.437-1.33-.146-.624.331-.84.429-1.3-.879-.07-1.95.75-1.468-.612-.843.4-.837-.447-1.315-.079.237-.138.249-.448.263-.76-.525.315-2.863.348-1.8-.949-.973.308-1.939.152-2.607.55.582-1.91-2.506-1.99-.829-2.9-.082-.758-1.1.561-.855-.565.226-.745.462.662.832-.249-.135-.607-.777-1.5-1.689-.317.326,0,.823.639.392.908-.409-.773-1.373-1.3-1.008-2.362-.592-.116-.353.75-.95.632.224-1.051-.344-.4-.523-.915a2.9,2.9,0,0,1-.586,1.363c.612.054,1.073.227.652,1.321-.666.062-.17-1.038-.983-.833-.025-.883,1.131-1.878.347-1.934-.606.072-.8.626-1.407.688l.131-.437c-.128.014-.246.015-.15-.176a2.239,2.239,0,0,0,1.622-.726c-.67-.3.181-.506.688-.949-.115-.724-.912.111-1.558-.082.155-1.072-.677-2.193-2.1-1.025.28-.931,1.346-.714,1.752-1.457-.562.294-1.314.315-1.845.655.058-.68-.083-1.173-.983-1.1.25-.756,1.305-.333,1.384-1.345l-1.5.163c1.018-.754.194-.944.391-1.787-.282.036-.42.286-.744.259.089-.917-.385-1.811-1.905-1.25.781-.644.229-1.381-.539-.982,1.229-1.5-.777-1-.414-1.956-.722.382-.212-.051-.54-.2a1.792,1.792,0,0,1-.552.579c-.437-.178-1.166-.2-.868-.8.6.017.556.832,1.318.026-.747-.4-.026-1.6-.121-2.339-.074-.129-.142-.26-.215-.389a1.313,1.313,0,0,0-1.467.3c-.466,1.206,1.344-.232,1.107.67-.867-.107-1.377.642-2.108.86,1.01-.758.389-1.15.487-1.773a2.175,2.175,0,0,0,1.606-.733c-.024-.045-.049-.088-.074-.133-.389.036-1.058.408-.893-.068a3.447,3.447,0,0,0,.716-.252c-.088-.165-.186-.327-.273-.492a3.221,3.221,0,0,1-.605-.634,1.269,1.269,0,0,0,.187-.217c-.1-.2-.2-.409-.3-.614-.664.685-1.877,1.174-1.575.256.279,0,.595.105.786-.1a3.349,3.349,0,0,1-1.525-2c1.455.018,1.1,1.053,2.194,1.6-.231-.481-.461-.962-.677-1.447a.955.955,0,0,0-.261.062c.015-.136.1-.3.105-.426l-.047-.109c-.05-.083-.157-.144-.458-.129a2.876,2.876,0,0,0,.295-.254c-.164-.383-.336-.764-.491-1.15a.988.988,0,0,1-.31-.273.476.476,0,0,0,.179-.055c-.423-1.074-.8-2.156-1.154-3.243a2.708,2.708,0,0,0-.278.269l-1.023-.281c.33-.424.758-.348,1.147-.479-.156-.493-.321-.984-.462-1.479a.838.838,0,0,0-.281,1.047c-1.141-.083.271-1.167-.955-.892a2.23,2.23,0,0,1,1.156-.461c-.219-.787-.426-1.575-.61-2.366a3.88,3.88,0,0,0-.68.145,2.061,2.061,0,0,1,1.039,1.341c-.9.18-.17-.645-1.2-.182.386-.942-.839-2.164-.186-2.77-.158.176-.054.308.041.44.483-.3.4-.611.654-.586-.054-.268-.115-.535-.165-.8-.052.147-.13.3-.2.45-1.141-.019-.058-.334-1.013-.622-.241.6.206,1.088-.032,1.693-.259-.068-.533-.249-.77-.093.1.4.2.687.991.394-.378.705-.4,1.318.218,1.541-.646-.132-.528.468.086.438a1.786,1.786,0,0,1-.7.382c.1.208.34.386.874.49-1.171.852-.373,1.255.143,1.7-.408-.094-.678.5-1.063.515,1.515.493-.548,2.611,1.56,2.5-.8.614.161.665.475.914-.294.551-.755.571-1.1.978,1.643-.181-.04,1.781.542,2.393.34.016.594-.227.922-.238a3.144,3.144,0,0,0,.3,1.485c-.586.3-.7-.455-1.365.2,2.734-.046,1.793,2.389,2.241,3.348a1.634,1.634,0,0,1,1.237-.483c-.344.641.372.753.323,1.247a2.824,2.824,0,0,0-1.536.27,7.2,7.2,0,0,0,1.764,3.014,3.6,3.6,0,0,1,.884,3.251c-.042-.307,0-.659-.569-.632-.108.591-.575.533-.726,1.037,1.55-.263.213,1.025.5,1.28.608.15.815-.366,1.439-.241-.672.84-.287.9-.39,1.453.419.043.561-.3.849-.451-.028.578,1.5.784.741,1.408-.305-.179-.054-.762-.862-.575.4.991-.461.752-1.112,1.733.647.153.921-.231,1.281-.489.7.351.975,1.657,1.41,2.676.681-.561,1.079-.076,1.787-.208-.058.72-1,.392-1,1.174a3,3,0,0,1,2.107.125c.2-.392-.167-.511.189-.657-.1.681.825.284,1.1-.177-.036.573.75.388.5,1.168-.75.376-.435-.253-.748-.29-.053.71-.549.431-.718.329a1.246,1.246,0,0,1,.082,1.5c.1-.372-.7-.274-.717.087.12,1.1,1.832.676,2.4,1.324-.568.118-1.312.032-1.238.885,1.007-.5,2.719-.8,2.254.383a.313.313,0,1,0-.622-.071c.46.419.759,1.023,1.481,1.16a2.078,2.078,0,0,1-.4,1.195c.648.087.494-.1,1.305-.331-.112.446.167.446.084.863-.042.308-.408.314-.494.58.591,1.617,2.21,1.133,3.39,1.67a7.533,7.533,0,0,0-1.362,1.344c.5.124.593.809,1.469.426,0-.607-1.4-.285-.367-1.011.624.117.663.966.748,2.028,1.146-.286.044-.832.686-1.385.7,1.645,2.527,1.681,3.709,2.01-.565.415-.431-.271-.845-.095.169.638-.573.688-.4,1.326,2.391-.9,2.583,1.735,4.158,2.184-.536.114-.725.442-.547,1,.78-.409,1.458-.67,1.871-.433a1.113,1.113,0,0,0-.353.676c1.409-.09,2.035,1.434,3.6.982a.967.967,0,0,0-.511.8c2,.354,1.512.813,2.774,1.968-.459.225-.726.526-.679.953.99-.677.23.737,1.011.4a1.866,1.866,0,0,0,.912-.862c.131.4.321.673.617.65.315-.214-.057-.7.205-.936.766.808.252.831,1.241,1.3-.071-.43-.5-1,.123-1.167.5,1.825,3.064,1.815,1.7,3.483.51.693,1.433.005,2.029.419-.2.2-.536.37-.472.653.919-.329.454,1.125,1.333.968.5-.709.275-1.621.75-2.34-.034,1.171,1.133,2.336,1.749.887A22.22,22.22,0,0,0,2122.553,372.268Zm-1.515,2.9c-.309-.856-.856-.169-1.389.323C2119.961,376.268,2120.6,375.154,2121.038,375.167Zm-15.074,4.363c.581.951,1.707.263,2.288,1.243.2-.2-.045-.555.227-.725C2107.94,378.955,2106.717,379.989,2105.963,379.53Zm7.523-4.158c-.492-.664-1.547.392-1.419-.987C2111.261,375.673,2112.689,376.923,2113.486,375.372Zm.508,2.3a12.459,12.459,0,0,1,2.121-.407,8.628,8.628,0,0,0-1.1-1.273l-.944.72C2114.339,377.108,2114.352,377.437,2113.994,377.669Zm-3-2.218c-.665-.756-1.067-.307-1.569.522C2110.345,376.421,2110.039,375.14,2110.991,375.451Zm-11.033,7.877c.489-.284.272-.843.035-1.409C2099.312,382.215,2099.635,383.222,2099.958,383.328Zm4.14,4.182c-.555.2.049.824-.369,1.073C2104.425,389.16,2104.955,387.567,2104.1,387.51Zm1-3.455c-.294.225.215.746-.146.951-.8-.288-1.047-.616-1.208-1.655-.827.29-.988-1.181-2.019-.358.071-.735-1.023-.638-.436-1.182-.76-.6-.659.806-.648,1.173.337.68,1.013.488,1.174,1.666-.573.373-.534-.828-1.189-.249.051.594.945.427.045.828a4.24,4.24,0,0,0,1.486.966c.042.406-.33.052-.692.351.114.856.573.8.958.956.124-1.02.341-.234,1.138-.588a1.556,1.556,0,0,0-.172-1.071c.344-.115.374.668.747.474-.042.323-.413.522-.146.954C2105.148,386.011,2106.178,385.545,2105.1,384.055Zm14.6-1.632-.759.637c.454.994.676-.153.954.165C2120.1,383,2119.825,382.7,2119.7,382.423Zm-2.975.232c-.57.968,2.006.737.466,1.818.2.7.644.123.9.548a2.968,2.968,0,0,1,.464-1.645l.255.427C2118.95,382.36,2117.264,383.322,2116.729,382.655Zm-2.9-.331c.9-.317,1.422,1.042,2.308.8-.183-.307-.363-.611-.156-.821C2115.054,382,2114.667,381.7,2113.831,382.323Zm-1.212.848c.248.586.669.481.977.847C2114.256,383.326,2113.227,382.634,2112.619,383.171Zm-3.358,1.042c.93.869,1.62.836,1.98,2.31.813.014,1.493.624,2.563-.5a3.587,3.587,0,0,0-.552,1.616,1.973,1.973,0,0,0,1.331.34c.3-.379.789-.711.774-1.168.692.332.617-.411,1.327.259-.335-1.888-2.755-1.823-3.558-1.81.583-.491.377-.881-.579-1.132a.816.816,0,0,0-.069.961C2111.519,384.6,2110.013,383.4,2109.26,384.214Zm3.8-3.465c-.347.778.723,1.485,1.255.919C2113.984,381,2113.426,381.276,2113.064,380.749Zm-2.855,1.37c.211.388-.036.647.212,1.042l.831-.555C2111.029,381.975,2110.721,381.685,2110.209,382.119Zm-1.256.236-1.063.679c.635.728-.4,1.285.408,1.5.877-.277-.237-1.118.121-1.544.387.041.625.589,1.054.5C2110,382.892,2109.007,382.838,2108.952,382.355Zm.954-2.091c.58.557-.593.618-.009,1.177a1.219,1.219,0,0,0,1.233-.834A.76.76,0,0,0,2109.907,380.264Zm8.413-3.284c.453-.3-.119-.793.214-1.116l.538-.477-.329-.64c-.669.517-.665,1.159-1.229,1.7C2117.64,377.329,2118.189,376.094,2118.32,376.979Zm9.062-3.45a5.237,5.237,0,0,1-.013-.846c-.6-1.419-1.9-1.854-1.634-4.334-.458.8-.1.654-.731.2-.148.038-.2.252-.378.234.439,1.1-.487,2.872.306,4.128C2125.742,373.114,2126.56,373.335,2127.381,373.529Zm.411,1.641a3.91,3.91,0,0,1-.265-.768c-.175.143-.39.146-.194.7C2127.5,374.923,2127.641,375.14,2127.792,375.17Zm-2.409,2.04-.383-.6-.672.666C2124.657,377.447,2124.959,377.949,2125.383,377.209Zm6.411-1.307a2.985,2.985,0,0,1-.519-.721,1.864,1.864,0,0,0-1.35.517A3.027,3.027,0,0,0,2131.793,375.9Zm-1.334,1.35c-.467-.835-.983-.177-1.486-.114C2129.43,377.858,2129.929,378.148,2130.459,377.252Zm1.348-2c0,.2-.007.409.005.653a4.743,4.743,0,0,1,1.033-.026A1.776,1.776,0,0,0,2131.807,375.248Zm-1.042-4.666c-.993,1.486-1.415-1.186-2.745-.83.9.4.716,1.8,1.444,1.893-.174.467-.36.926-.952.789,0,.484.02.949.062,1.381.14.036.277.063.417.1-.134.23-.259.292-.379.284a1.579,1.579,0,0,0,.627,1.187,1.323,1.323,0,0,1-.187.174,1.2,1.2,0,0,0,.581.113,2.321,2.321,0,0,0,.182-.933,4.232,4.232,0,0,1-.9-2.159c.355.42.76-.242,1.1.47-.226.36-.883.687-.326,1.113a1.467,1.467,0,0,1,1.291.33c-.068-.184-.131-.377-.188-.586a1.3,1.3,0,0,0-.1.145.749.749,0,0,1-.08-.9,13.2,13.2,0,0,1-.223-1.776c.251.268.373.724.758.8C2131.564,371.6,2130.815,371.3,2130.765,370.582Zm33.368-13.724c-.368-.58-.732-1.172-1.117-.894a1.781,1.781,0,0,1,.26.783C2163.561,356.738,2163.843,356.868,2164.133,356.858Zm2.775-.773c-.863.346-.441-.353-.586-.9-.175.351-1.015,1.21-.588,1.319.57-.437.763-.1,1.015.629.2-.175.6-.263.45-.6C2166.564,356.893,2167.076,356.4,2166.908,356.085Zm.137-1.361c.1.334-.189,1.725.452,1.3C2166.962,355.51,2168.048,354.933,2167.045,354.724Zm.709-.775c.5-.076.623-.3.6.567a.684.684,0,0,1,.587-.063c-.525-.526-.029-.631-.34-1.072C2168.418,353.876,2167.463,353.162,2167.754,353.95Zm-3.439.6c-.287.535-.568-.15-.848-.11.249.986.485.869,1.119,1.514a.136.136,0,0,0,.139.227C2164.79,355.52,2164.435,355.434,2164.315,354.547Zm3.517-3.937c-.253.172-.156.376.185.53-.32.277-.174.745-.192,1.152C2168.374,351.947,2168.344,351.372,2167.833,350.61Zm-4.651,2.112c.9.879.936,1.8,1.844,1.7a1.808,1.808,0,0,1-.291-.765C2164.314,353.79,2163.894,352.89,2163.181,352.722Zm4.761-4.891c-.471.16-.029,1.447.606,1.566-.395-.7-.293-1.046.349-.607a1.873,1.873,0,0,1-.373-.729C2168.354,348.154,2168.178,348.226,2167.943,347.83Zm.881-2.39c0,.618,1.879,2.028,1.357.632A5.1,5.1,0,0,1,2168.824,345.441Zm1.068-2.717c-.4.69-1.287.66-.762,1.424.216-.464.707.358.923-.113-1.383-1.383.852-.031.314-1.021C2170.167,343.221,2169.991,343.082,2169.892,342.724Zm2.392-1.889c.252-.253.658.013.847-.45C2172.661,339.647,2171.994,340.546,2172.283,340.835Zm2.925-2.155a1.424,1.424,0,0,0-.852-.306c-.065.114-.113.246-.172.366a2.349,2.349,0,0,1,1.148.616C2175.275,339.1,2175.237,338.878,2175.208,338.68Zm1.431-5.475-.02.026c.015,0,.024.012.039.013C2176.647,333.228,2176.648,333.22,2176.638,333.2Zm5.228-6.247c.831-.477.381-1.395-.066-2.185-.105.212-.219.42-.327.631C2181.614,325.875,2181.7,326.37,2181.867,326.958Zm39.51-15.6c-.107-.719.115-1.389-.779-2.22C2220.087,309.728,2220.657,311.1,2221.377,311.362Zm-31.146,27.129c-.726-.053-.586.761-.123,1.08C2191.134,339.543,2190.423,339.2,2190.231,338.491Zm2.84,1.3c-.208-.379-1.168-1.339-.741-1.523-.4-.3-1.09-.476-1.281-.2,1.251.467.752.851.5,1.518.292.034.413-.049.414-.22C2192.372,339.451,2192.389,340.053,2193.071,339.788Zm31.381-13.877a1.394,1.394,0,0,0-.231-1.042c-1.35.77-2.473.055-2.062-1.031-1.045.352-.415,1.236-.486,1.909C2222.962,324.8,2223.285,326.513,2224.452,325.911Zm-12.5,15.719c-.884-.04-.107.878-.8.943C2211.644,343.171,2212.519,342.314,2211.953,341.631Zm-3.385,5.039c1-.377.519-1.726.907-2.487C2208.5,344.588,2208.528,345.6,2208.568,346.67Zm.493,5.068c-.457-.4-.347-.55.433-.572a1.32,1.32,0,0,1-.407-.729C2208.371,350.291,2208.071,352.017,2209.061,351.737Zm-2.037-3.613c-.909-.072-.864.515-.834,1.1A.861.861,0,0,0,2207.024,348.125Zm-2.8,4.587c.293,1.262,1.649,2.5,2.871,1.582-.765-.253-1.756-.225-1.8-1.4a5.033,5.033,0,0,0,2.157.325c-.18-.663-.307-1.267.608-1.1-.436-1.458-.529-1.664-.262-2.807-.615-.406-1.141.441-1.1,1.146-.751-.157.327-.973-.712-.949C2204.745,350.067,2206.069,352.6,2204.223,352.712ZM2183.153,366a1.312,1.312,0,0,0-.4,1.672C2183.464,367.845,2183.462,366.413,2183.153,366Zm-44.12,18.846c-.716-.9-1.357-.846-1.991-.327C2137.684,384.3,2138.41,385.567,2139.033,384.849Zm-36.852-.669c-.686.146.6,1.035-.082,1.18.2.29.647-.092,1-.228C2102.9,384.522,2102.455,384.581,2102.182,384.18Zm22.683-11.788a.963.963,0,0,1,.517.449,1.713,1.713,0,0,1,.508-.9C2125.648,371.07,2125.219,372.186,2124.865,372.392Zm-11.8-5.6c-.343.359-.329.824-.5,1.233.16.255.519-.176.8-.358C2112.915,367.469,2113.286,367.373,2113.063,366.79Zm38.073,22.64c-1.192-.175-1.029.448-1.482.8-.125.383.324.124.627.485C2150.146,390.029,2150.825,390.324,2151.136,389.43Zm-89.458-38.474c-1.044.674,1.056.588,1.247.111C2062.862,350.08,2061.551,351.674,2061.679,350.956Zm-18.66-11c.549.359.132,1.119,1.186,1.256-.258-.923-1.526-1.438-1.155-2.616-2.08.635-.525-2.838-1.924-3.7-.3.093-.475.577-.843.486.428.693,1.592,1.094.609,2.3,1.057.837,1,2.079,1.466,3.135C2042.729,340.874,2042.821,340.3,2043.019,339.96Zm19.2.1h0Zm84.565,51.5c.714-.492,1.506-.488,2.108-1.606C2148.318,389.8,2147.618,390.44,2146.779,391.556Zm-86.1-41.683c.09.522.546.807,1.308.867C2061.916,350.2,2061.607,349.841,2060.683,349.873Zm-1.57-7.936c.3.014.412.126.394.312,0,.464.477-.181.091-.226a1.4,1.4,0,0,1,1.151-.289C2060.707,341.193,2059.2,341.277,2059.113,341.937Zm1.61-2.6c-.49,0-.72.561-1.375.2C2059.446,340.316,2061.171,340.343,2060.723,339.338Zm1.491.722a6.506,6.506,0,0,0-.434-.775C2061.044,339.371,2061.5,340.2,2062.214,340.061Zm-17.371,3.03c-1.387.213-1.237-1.226-2.089-1.844.128.13.129,2.921,1.2,2.648a1.657,1.657,0,0,0,.582,2.148C2045.127,344.806,2044.477,344.185,2044.843,343.091Zm67.44,56.781c-.229-.315-.452-.628-.206-.827-.267-.271-.7.153-1.072.316a7.091,7.091,0,0,0,1.422.743C2112.664,399.9,2112.413,399.8,2112.284,399.872Zm-55.49-41.044-.776-.1c-.2.573-.459,1.155-.831.158-.683-.028.274.491-.186,1.032.6-.365.332.07,1.045.136C2055.992,359.235,2057,359.846,2056.794,358.827Zm-17.068-19.31c.529,1.658,2.4,3.559,1.3,5.309C2042.734,343.73,2040.858,340.02,2039.725,339.517Zm44.671,50.161c.644.167,1.027.811,1.865.6C2085.961,389.5,2085.344,389.313,2084.4,389.678Zm22.213,8.145c.77.015,2.088.615,2.432-.137C2108.423,397.04,2107.579,397.266,2106.61,397.823Zm-30.9-27.39c.1-.823-.684-.6-.767-1.194C2074.506,369.419,2074.844,370.9,2075.707,370.434Zm1.536.266c-.338.135-.175.662-.194,1.05l1.01-.182C2077.955,371.067,2077.344,371.2,2077.243,370.7Zm-3.042-.078c.447-.54-.779-1.361-1.025-1.951.888-.718.406-2.235.293-2.822a13.306,13.306,0,0,0-1.564,2.945c1.377-1.336.61.948,1.535,1.651C2073.8,370.118,2074.052,370.1,2074.2,370.621Zm6.5,4.831c.321.54.646,1.1,1.395,1.023C2081.714,376.012,2081.549,375.255,2080.706,375.452Zm5.13,6.931c.793.308,1.775.255,2.16,1.285C2088.391,382.8,2086.526,381.394,2085.836,382.384Zm8.695,6.429c.486.715,1.719-.273,2,.913.444-.3-1.584-2.319-2.835-1.727C2093.87,388.268,2095.2,388.128,2094.531,388.813Zm-23.574-23.232c-.353.105-.238.647-.292,1.029a.849.849,0,0,1,1,.932c.835.106.4-.542.011-.509a.794.794,0,0,1,.528-.807c-.079-.322-.434-.356-.481-.712C2071.724,365.961,2071.024,367.032,2070.956,365.58Zm17.659,18.446c.89.038-.03-.861.861-.834-.5-.64-.1-2.059-1.467-1.718C2087.452,382.885,2089.575,382.664,2088.615,384.026Zm5.559,2.944c.262.441,1-.175,1.067.713.836-1.1,1.313.354,2.42-.163-.481-.835-1.463-.533-1.731-1.813-.467.267-.254.854-.381,1.284C2094.951,387.105,2094.536,386.149,2094.174,386.971Zm-21.642-22.778c.386-.726-1.075-1.549-1.327-2.377-.828.121.539,1.074-.369,1.281C2071.212,363.145,2072.4,363.255,2072.533,364.192Zm-6.186-3.514c.053.329.4.394.419.756.756.178.567-.695,1.32-.52C2067.676,360.558,2067.323,360.873,2066.347,360.678Zm2.85,1.47c.278-.07.221-.509.551-.522-.493-.291-.612-.924-1.382-.966C2068.588,361.2,2069.1,361.475,2069.2,362.148Zm.767,2.757c-.422-.83-.841-2.157-2.148-1.451C2068.677,363.8,2068.378,365.29,2069.964,364.9Zm.7-2.561c-.314-.681-1.242.3-1.314.812C2069.915,363.781,2070.179,362.64,2070.663,362.344Zm-2.177-4.418c.873.132,1.246-.312,1.812-.536C2069.1,356.6,2069.353,355.923,2068.485,357.926Zm116.8-10.145a7.685,7.685,0,0,0-1.963,2.554C2183.974,349.748,2185.422,348.673,2185.29,347.781ZM2168.867,363.7c.114-.687,1.512-.839,1.519-1.568C2170.008,362.5,2168.387,362.645,2168.867,363.7Zm17.08-15.853c-.052.149-.242.287-.049.463.181-.713,1.748-2.11.337-2.441.545,1.081-.527.608-1.06.818C2185.929,347.365,2185.641,347.543,2185.947,347.851Zm-8.865,5.4c-.814.506-1.029.208-1.686-.008.637.589.264.851.868,1.03C2176.25,353.505,2177.26,354,2177.082,353.252Zm10.106-5.6c-.26-.032-1.416.528-.555,1.046C2186.74,348.347,2187.627,348.058,2187.188,347.654Zm-17.169,22.824.735-.4C2170.386,369.114,2169.37,369.656,2170.018,370.479Zm-.577-.6c-.142-.358.079-.553-.031-.9-.778-.205-.973-.027-1.58.527C2168.522,370.838,2168.86,369.079,2169.441,369.874Zm-29.807,4.947c-.772-.432-.764-.232-1.454-.658a3.247,3.247,0,0,0,2.364,2.981C2140.959,376.163,2139.467,376.364,2139.634,374.821Zm8.071,1.03c-.434-.757-.635-2.012-1.447-1.89.062.336-.168.413-.024.823C2147.3,374.441,2146.384,376.422,2147.706,375.851Zm-3.57-.4a8.235,8.235,0,0,1-1.4-1.107c.077,1.019.361,1.634.908,1.741C2143.567,375.654,2144.16,375.842,2144.135,375.452Zm13.138-2.153c-.766-.747-.942-.134-1.781-.2.1.329-.123.437.07.828C2156.387,373.358,2157.182,374.49,2157.273,373.3Zm12.834-21.042c.616-.054,1.621.231,1.385-.725a.513.513,0,0,1-.873-.005c.447-1.029,1.92-.827,1.491-2.185-.813.941-1.079.5-1.822.41C2170.362,350.625,2169.889,351.3,2170.107,352.257Zm8.35-2.09c-.874-1.493.848-.667,1.056-1.745-1.449-.869-1.4,1.227-2.37,1.136C2177.67,350.3,2178.012,349.95,2178.457,350.167Z" transform="translate(0)"/></g></svg>