<svg xmlns="http://www.w3.org/2000/svg" width="48.933" height="39.146" viewBox="0 0 48.933 39.146"><defs><style>.a,.b{fill:#ee7600;}.a{opacity:0.4;}</style></defs><g transform="translate(0.004)"><path class="a" d="M135.549,35.476v2.447a1.223,1.223,0,0,1-1.223,1.223H117.2a1.223,1.223,0,0,1-1.223-1.223V11.717a6.153,6.153,0,0,1-.994-.544l-10.857,3.642a1.223,1.223,0,0,1-1.549-.771l-.778-2.32a1.223,1.223,0,0,1,.771-1.549l9.813-3.294a6.05,6.05,0,0,1-.076-.765,6.1,6.1,0,0,1,11.4-3.03L132.72.064a1.223,1.223,0,0,1,1.549.771l.778,2.32a1.223,1.223,0,0,1-.771,1.549L124.183,8.088a6.112,6.112,0,0,1-3.314,3.629V34.253h13.456A1.223,1.223,0,0,1,135.549,35.476Z" transform="translate(-93.96)"/><path class="b" d="M48.929,111.9c0-1.237.1-.667-6.5-13.878a3.673,3.673,0,0,0-6.565,0c-6.662,13.323-6.5,12.68-6.5,13.878,0,3.378,4.382,6.117,9.786,6.117S48.929,115.277,48.929,111.9Zm-15.291-1.223,5.5-11.01,5.5,11.01Zm-20.572-2.868a3.673,3.673,0,0,0-6.565,0C-.161,121.132,0,120.488,0,121.686c0,3.378,4.382,6.117,9.786,6.117s9.786-2.739,9.786-6.117C19.569,120.449,19.67,121.019,13.065,107.808ZM4.278,120.463l5.5-11.01,5.5,11.01Z" transform="translate(0 -88.657)"/></g></svg>