<svg xmlns="http://www.w3.org/2000/svg" width="42.79" height="38.038" viewBox="0 0 42.79 38.038"><defs><style>.a,.b{fill:#ee7600;}.a{opacity:0.4;}</style></defs><g transform="translate(0 0.013)"><path class="a" d="M7.066,0H2.355A2.366,2.366,0,0,0,0,2.377V7.132H9.421V2.377A2.366,2.366,0,0,0,7.066,0ZM0,28.527H9.421V9.509H0Zm0,7.132a2.366,2.366,0,0,0,2.355,2.377H7.066a2.366,2.366,0,0,0,2.355-2.377V30.9H0Zm37.8-1.321L29.521,3.173l-4.435,1.2,8.269,31.112c.008.029.015.059.021.088l4.438-1.2C37.812,34.361,37.808,34.35,37.8,34.338ZM11.777,35.659a2.366,2.366,0,0,0,2.355,2.377h4.711A2.366,2.366,0,0,0,21.2,35.659V30.9H11.777ZM18.843,0H14.132a2.366,2.366,0,0,0-2.355,2.377V7.132h9.185l-.589-2.2A1.785,1.785,0,0,1,21.2,2.923V2.377A2.366,2.366,0,0,0,18.843,0ZM11.777,28.527H21.2V9.509H11.777Z" transform="translate(0 -0.012)"/><path class="b" d="M0,30.892H9.509V28.515H0ZM0,9.5H9.509V7.12H0ZM42.729,33.1,34.2,1.309A1.775,1.775,0,0,0,32.035.046h-.007L30.885.359A1.783,1.783,0,0,0,29.629,2.54l8.528,31.786a1.775,1.775,0,0,0,2.168,1.263h.007l1.143-.314A1.783,1.783,0,0,0,42.729,33.1Zm-30.843-2.2H21.4V28.515H11.886ZM25.139,3.686a1.775,1.775,0,0,0-2.168-1.263h-.007l-1.143.314a1.783,1.783,0,0,0-1.255,2.181l.594,2.2H11.886V9.5H21.4V8.011l7.7,28.692a1.775,1.775,0,0,0,2.168,1.263h.007l1.143-.314a1.783,1.783,0,0,0,1.256-2.179Z" transform="translate(0 0)"/></g></svg>