<svg xmlns="http://www.w3.org/2000/svg" width="47.021" height="37.616" viewBox="0 0 47.021 37.616"><defs><style>.a,.b{fill:#ee7600;}.a{opacity:0.4;}</style></defs><path class="a" d="M12.931,0C5.731,0,0,2.032,0,4.618V23.706a2.155,2.155,0,0,0,2.156,2.155h.783v2.351A2.351,2.351,0,0,0,5.29,30.563h1.7a2.351,2.351,0,0,0,2.351-2.351V25.861h4.922A6.509,6.509,0,0,1,17.2,21.505l1.322-3.635a9.877,9.877,0,0,1,.705-1.413H14.106V5.878h5.976a1.078,1.078,0,0,1,1.077,1.078v7.205a9.644,9.644,0,0,1,4.7-2.245v-7.3C25.861,2.032,20.134,0,12.931,0ZM5.878,22.922a1.763,1.763,0,1,1,1.763-1.763A1.763,1.763,0,0,1,5.878,22.922Zm5.878-6.465H5.779A1.078,1.078,0,0,1,4.7,15.379V6.955A1.078,1.078,0,0,1,5.779,5.878h5.976Z"/><path class="b" d="M251.989,201.077l-.336-.835-1.313-3.606A7.341,7.341,0,0,0,243.492,192h-8.365a7.341,7.341,0,0,0-6.85,4.637l-1.311,3.606-.334.835a4.216,4.216,0,0,0-2.6,3.894v2.108a4.188,4.188,0,0,0,1.581,3.266v2.813a2.351,2.351,0,0,0,2.351,2.351h1.621a2.351,2.351,0,0,0,2.351-2.351v-2.351h14.752v2.351a2.351,2.351,0,0,0,2.351,2.351h1.621a2.351,2.351,0,0,0,2.351-2.351v-2.814a4.188,4.188,0,0,0,1.581-3.266v-2.108a4.216,4.216,0,0,0-2.6-3.893Zm-19.8-2.319a3.164,3.164,0,0,1,2.939-2.057h8.362a3.173,3.173,0,0,1,2.939,2.057l.887,2.645H231.3Zm-2.58,9.1a1.758,1.758,0,1,1,0-3.516,3.392,3.392,0,0,1,2.645,2.637C232.256,208.034,230.669,207.858,229.611,207.858Zm19.4,0c-1.058,0-2.645.176-2.645-.882a3.386,3.386,0,0,1,2.645-2.634,1.758,1.758,0,1,1,0,3.516Z" transform="translate(-207.571 -177.893)"/></svg>