<svg xmlns="http://www.w3.org/2000/svg" width="39.51" height="39.507" viewBox="0 0 39.51 39.507"><defs><style>.a,.b{fill:#ee7600;}.a{opacity:0.4;}</style></defs><g transform="translate(0 -0.022)"><path class="a" d="M10.325,213.176a1.338,1.338,0,0,1,.466-1.815l2.162-1.262a1.2,1.2,0,0,1,1.637.464,17.957,17.957,0,0,0,2.753,3.449l-2.513,4.58a23.034,23.034,0,0,1-4.5-5.416Zm37.5,0a1.338,1.338,0,0,0-.466-1.815L45.2,210.1a1.2,1.2,0,0,0-1.637.464,16.821,16.821,0,0,1-19.85,7.4l-2.505,4.567a21.157,21.157,0,0,0,7.869,1.521A21.973,21.973,0,0,0,47.828,213.176Z" transform="translate(-9.322 -194.14)"/><path class="b" d="M35.282,26.624a24.588,24.588,0,0,1-6.393,3.743l4.206,7.285,4.163,1.775a1.235,1.235,0,0,0,1.712-.985l.54-4.5ZM26.307,11.078a7.447,7.447,0,1,0-13.064-.068L0,33.947l.54,4.5a1.235,1.235,0,0,0,1.711.988l4.167-1.775L19.545,14.909c.083,0,.165,0,.248,0h.173l3.9,6.75a14.794,14.794,0,0,0,6.378-3.77ZM19.794,9.9a2.431,2.431,0,1,1,2.431-2.431A2.431,2.431,0,0,1,19.794,9.9Z"/></g></svg>