<svg xmlns="http://www.w3.org/2000/svg" width="38.737" height="38.737" viewBox="0 0 38.737 38.737"><defs><style>.a,.b{fill:#ee7600;}.a{opacity:0.4;}</style></defs><g transform="translate(0 -8)"><path class="a" d="M38.233,31.774A19.37,19.37,0,1,1,4.373,15.107v3.57a3.9,3.9,0,0,0,.668,2.183c.915,1.358,2.216,3.286,2.786,4.121a8.965,8.965,0,0,0,1.41,1.62l.062.056a11.266,11.266,0,0,0,2.472,1.7c1.093.551,2.69,1.418,3.812,2.039a2.491,2.491,0,0,1,1.285,2.187v2.5a2.5,2.5,0,0,0,.732,1.768,5.845,5.845,0,0,1,1.767,4v2.27A1.64,1.64,0,0,0,21.2,44.749c.137-.016.273-.034.408-.055a1.633,1.633,0,0,0,1.341-1.231l1.1-4.5c.156-.429.255-.875.373-1.318a1.867,1.867,0,0,1,.487-.836c.259-.26.579-.578.883-.881a3.628,3.628,0,0,0,1.072-2.577,2.381,2.381,0,0,0-.7-1.687L25.1,30.6a2.5,2.5,0,0,0-1.767-.729H18.118c-.735-.368-1.678-2.5-2.5-2.5a5.289,5.289,0,0,1-2.367-.559l-.865-.433a.937.937,0,0,1,.122-1.718l2.434-.811a1.25,1.25,0,0,1,1.215.241l.725.629a.625.625,0,0,0,.409.156h.44a.625.625,0,0,0,.558-.9l-1.218-2.436a.625.625,0,0,1,.123-.726l.775-.754a.625.625,0,0,1,.436-.184h.7a.625.625,0,0,0,.442-.183l.625-.625a.625.625,0,0,0,0-.883l-.366-.366a.625.625,0,0,1,0-.883l.807-.808.366-.365a1.25,1.25,0,0,0,0-1.767h0l-1.906-1.906a.967.967,0,0,0-.746-.282c-.2.013-.394.03-.592.051a.969.969,0,0,0-.872.963,1.277,1.277,0,0,1-.905,1.236,1.25,1.25,0,0,1-.9-.084,5.162,5.162,0,0,1-1.25-.878l-3.169-3.018A19.384,19.384,0,0,1,37.3,20.048l-2.851.246a5.953,5.953,0,0,0-2.146.6,1.878,1.878,0,0,0-.722.636l-1.53,2.295a1.874,1.874,0,0,0,0,2.079l1.406,2.109a1.874,1.874,0,0,0,.823.686l1.6.789Z" transform="translate(0 0)"/><path class="b" d="M76.726,55.066a2.5,2.5,0,0,0-1.767-.731H69.745c-.735-.368-1.678-2.5-2.5-2.5a5.289,5.289,0,0,1-2.367-.559l-.865-.433a.937.937,0,0,1,.122-1.718l2.434-.811a1.25,1.25,0,0,1,1.215.241l.725.629a.625.625,0,0,0,.409.156h.44a.625.625,0,0,0,.558-.9L68.7,46a.625.625,0,0,1,.123-.726l.775-.754a.625.625,0,0,1,.436-.184h.7a.625.625,0,0,0,.442-.183l.625-.625a.625.625,0,0,0,0-.883l-.366-.366a.625.625,0,0,1,0-.883l.807-.808.366-.366a1.25,1.25,0,0,0,0-1.767h0l-1.906-1.906a.967.967,0,0,0-.746-.282c-.2.013-.394.03-.592.051a.969.969,0,0,0-.872.963,1.277,1.277,0,0,1-.905,1.236,1.25,1.25,0,0,1-.9-.084,5.162,5.162,0,0,1-1.25-.878L62.268,34.54A19.446,19.446,0,0,0,56,39.574v3.57a3.9,3.9,0,0,0,.668,2.183c.915,1.358,2.216,3.286,2.786,4.121a8.965,8.965,0,0,0,1.41,1.62l.062.056a11.266,11.266,0,0,0,2.472,1.7c1.093.551,2.69,1.418,3.812,2.039A2.491,2.491,0,0,1,68.5,57.049v2.5a2.5,2.5,0,0,0,.732,1.768,5.845,5.845,0,0,1,1.767,4v2.27a1.64,1.64,0,0,0,1.835,1.628c.137-.016.273-.034.408-.055a1.633,1.633,0,0,0,1.341-1.231l1.1-4.5c.156-.429.255-.875.373-1.318a1.867,1.867,0,0,1,.487-.836c.259-.26.579-.578.883-.881a3.628,3.628,0,0,0,1.072-2.577,2.381,2.381,0,0,0-.7-1.687Zm12.205-10.55-2.851.246a5.953,5.953,0,0,0-2.146.6,1.878,1.878,0,0,0-.722.636L81.683,48.3a1.874,1.874,0,0,0,0,2.079l1.406,2.109a1.874,1.874,0,0,0,.823.686l1.6.789,4.345,2.282a19.463,19.463,0,0,0-.928-11.726Z" transform="translate(-51.627 -24.468)"/></g></svg>