<svg xmlns="http://www.w3.org/2000/svg" width="39.414" height="39.414" viewBox="0 0 39.414 39.414"><defs><style>.a,.b{fill:#ee7600;}.a{opacity:0.4;}</style></defs><g transform="translate(0.001)"><path class="a" d="M32.023,2.463a7.326,7.326,0,0,0-4.444,1.52,9.772,9.772,0,0,0-15.746,0A7.356,7.356,0,0,0,0,9.854c0,3.213,4.927,14.78,4.927,14.78H9.552l-.931-11.6a.616.616,0,0,1,.564-.663l1.232-.1a.616.616,0,0,1,.663.565l.944,11.8h6.4v-11.7a.616.616,0,0,1,.616-.616h1.232a.616.616,0,0,1,.616.616v11.7h6.5l.945-11.8A.616.616,0,0,1,29,12.268l1.232.1a.616.616,0,0,1,.564.663l-.931,11.6h4.626s4.927-11.567,4.927-14.78A7.39,7.39,0,0,0,32.023,2.463Z" transform="translate(0)"/><path class="b" d="M64,361.853a2.463,2.463,0,0,0,2.463,2.463H91.1a2.463,2.463,0,0,0,2.463-2.463V352H64Z" transform="translate(-59.074 -324.903)"/></g></svg>