<svg xmlns="http://www.w3.org/2000/svg" width="40.704" height="40.706" viewBox="0 0 40.704 40.706"><defs><style>.a,.b{fill:#ee7600;}.a{opacity:0.4;}</style></defs><path class="a" d="M40.484,21.864C38.819,18.117,36.633,9.8,34.674,7.016A16.537,16.537,0,0,0,21.155,0h-5.89A15.249,15.249,0,0,0,5.09,26.621l0,14.085H25.441V35.618H30.53a5.088,5.088,0,0,0,5.088-5.088V25.441h2.544a2.544,2.544,0,0,0,2.322-3.578ZM26.713,16.537h-4.05a3.777,3.777,0,0,1,.234,1.272,3.816,3.816,0,0,1-3.816,3.816,3.776,3.776,0,0,1-1.272-.234v4.05H12.721v-4.05a3.776,3.776,0,0,1-1.272.234,3.816,3.816,0,0,1-3.816-3.816c0-.08.018-.15.023-.227A3.807,3.807,0,0,1,8.9,10.177,3.816,3.816,0,0,1,12.721,6.36a3.771,3.771,0,0,1,1.871.509,3.8,3.8,0,0,1,6.435,0A3.767,3.767,0,0,1,26.48,8.9h.234a3.816,3.816,0,1,1,0,7.632Z"/><path class="b" d="M64.2,71.657a3.807,3.807,0,0,1,3.609-2.567,3.816,3.816,0,0,1,3.816-3.816,3.771,3.771,0,0,1,1.871.509,3.8,3.8,0,0,1,6.435,0,3.767,3.767,0,0,1,5.453,2.035h.234a3.816,3.816,0,1,1,0,7.632h-4.05a3.776,3.776,0,0,1,.234,1.272,3.816,3.816,0,0,1-3.816,3.816A3.776,3.776,0,0,1,76.71,80.3v4.05H71.621V80.3a3.776,3.776,0,0,1-1.272.234,3.816,3.816,0,0,1-3.816-3.816c0-.079.018-.15.023-.227A3.807,3.807,0,0,1,64.2,71.657Z" transform="translate(-58.901 -58.913)"/></svg>