<svg xmlns="http://www.w3.org/2000/svg" width="46.352" height="37.081" viewBox="0 0 46.352 37.081"><defs><style>.a,.b{fill:#ee7600;}.a{opacity:0.4;}</style></defs><path class="a" d="M97.6,0H67.476A3.487,3.487,0,0,0,64,3.476V27.811h37.081V3.476A3.487,3.487,0,0,0,97.6,0ZM96.446,23.176H68.635V4.635H96.446Z" transform="translate(-59.365)"/><path class="b" d="M45.193,89.493H27.633a2.283,2.283,0,0,1-2.371,2.318h-4.4a2.461,2.461,0,0,1-2.373-2.318H1.159A1.159,1.159,0,0,0,0,90.652v1.159a4.649,4.649,0,0,0,4.635,4.635H41.716a4.649,4.649,0,0,0,4.635-4.635V90.652A1.159,1.159,0,0,0,45.193,89.493ZM37.081,64H9.27V82.541H37.081ZM20.931,77.5l-.819.819a1.159,1.159,0,0,1-1.639,0l-4.226-4.225a1.159,1.159,0,0,1,0-1.639l4.222-4.225a1.159,1.159,0,0,1,1.639,0l.823.819a1.159,1.159,0,0,1,0,1.639L18.341,73.27l2.589,2.586A1.159,1.159,0,0,1,20.931,77.5Zm11.179-3.4-4.226,4.224a1.159,1.159,0,0,1-1.639,0l-.823-.819a1.159,1.159,0,0,1,0-1.639L28.01,73.27l-2.589-2.586a1.159,1.159,0,0,1,0-1.639l.819-.819a1.159,1.159,0,0,1,1.639,0L32.1,72.451a1.159,1.159,0,0,1,0,1.639Z" transform="translate(0 -59.365)"/></svg>