<svg xmlns="http://www.w3.org/2000/svg" width="48.406" height="38.725" viewBox="0 0 48.406 38.725"><defs><style>.a,.b{fill:#ee7600;}.a{opacity:0.4;}</style></defs><path class="a" d="M164.3,0H130.42A2.42,2.42,0,0,0,128,2.42V9.681h12.1V4.841h14.522v24.2H164.3a2.42,2.42,0,0,0,2.42-2.42V2.42A2.42,2.42,0,0,0,164.3,0ZM135.866,7.79a.681.681,0,0,1-.681.681h-2.269a.681.681,0,0,1-.681-.681V5.521a.681.681,0,0,1,.681-.681h2.269a.681.681,0,0,1,.681.681Zm26.623,15.732a.681.681,0,0,1-.681.681H159.54a.681.681,0,0,1-.681-.681V21.253a.681.681,0,0,1,.681-.681h2.269a.681.681,0,0,1,.681.681Zm0-7.866a.681.681,0,0,1-.681.681H159.54a.681.681,0,0,1-.681-.681V13.387a.681.681,0,0,1,.681-.681h2.269a.681.681,0,0,1,.681.681Zm0-7.866a.681.681,0,0,1-.681.681H159.54a.681.681,0,0,1-.681-.681V5.521a.681.681,0,0,1,.681-.681h2.269a.681.681,0,0,1,.681.681Z" transform="translate(-118.319)"/><path class="b" d="M31.464,160H2.42A2.42,2.42,0,0,0,0,162.42V184.2a2.42,2.42,0,0,0,2.42,2.42H31.464a2.42,2.42,0,0,0,2.42-2.42V162.42A2.42,2.42,0,0,0,31.464,160Zm-24.2,4.841a2.42,2.42,0,1,1-2.42,2.42A2.42,2.42,0,0,1,7.261,164.841Zm21.783,16.942H4.841v-2.42l4.841-4.841,2.42,2.42,9.681-9.681,7.261,7.261Z" transform="translate(0 -147.898)"/></svg>