<svg xmlns="http://www.w3.org/2000/svg" width="39.51" height="40.025" viewBox="0 0 39.51 40.025"><defs><style>.a,.b{fill:#ee7600;}.a{opacity:0.4;}</style></defs><g transform="translate(0 -0.003)"><path class="a" d="M9.877,20.015a10.007,10.007,0,0,0,0,20.013,10.007,10.007,0,0,0,0-20.013Zm29.286-6.254L31.833,1.253a2.559,2.559,0,0,0-4.4,0L20.1,13.761a2.5,2.5,0,0,0,2.2,3.752h14.66A2.5,2.5,0,0,0,39.163,13.761Z"/><path class="b" d="M305.511,290.5V303.01a2.5,2.5,0,0,1-2.5,2.5H290.5a2.5,2.5,0,0,1-2.5-2.5V290.5a2.5,2.5,0,0,1,2.5-2.5H303.01A2.5,2.5,0,0,1,305.511,290.5Z" transform="translate(-266.001 -265.483)"/></g></svg>