<svg xmlns="http://www.w3.org/2000/svg" width="38.795" height="38.795" viewBox="0 0 38.795 38.795"><defs><style>.a,.b{fill:#ee7600;}.a{opacity:0.4;}</style></defs><path class="a" d="M154.764,231.42v8.53c0,7.016-5.986,12.73-13.336,12.73-7.228,0-13.13-5.515-13.328-12.364h4.857a8.248,8.248,0,0,0,8.479,7.517c4.683,0,8.486-3.539,8.486-7.88v-8.529C149.915,231.464,154.764,231.464,154.764,231.42Z" transform="translate(-118.394 -213.885)"/><path class="b" d="M33.946,8.486a4.849,4.849,0,1,0,4.849,4.849A4.849,4.849,0,0,0,33.946,8.486Zm0,6.062a1.212,1.212,0,1,1,1.212-1.212A1.212,1.212,0,0,1,33.946,14.548ZM22.784.99,18.018.036A1.814,1.814,0,0,0,15.882,1.46l-.242,1.192a1.814,1.814,0,0,0,1.425,2.137l2.326.462.008,9.3a7.274,7.274,0,1,1-14.548,0L4.842,9.093V5.256l2.326-.462A1.814,1.814,0,0,0,8.592,2.657l-.235-1.19A1.814,1.814,0,0,0,6.221.043L1.462.985A1.825,1.825,0,0,0,0,2.771V14.548a12.123,12.123,0,1,0,24.247,0V2.771A1.819,1.819,0,0,0,22.784.99Z" transform="translate(0 0)"/></svg>