<svg xmlns="http://www.w3.org/2000/svg" width="44.117" height="35.294" viewBox="0 0 44.117 35.294"><defs><style>.a,.b{fill:#ee7600;}.a{opacity:0.4;}</style></defs><g transform="translate(0 -0.003)"><path class="a" d="M134.64,30.365V28.679h-4.412v1.685L128.14,33.7a1.1,1.1,0,0,0,.985,1.6h6.618a1.1,1.1,0,0,0,.986-1.6Zm28.284-4.274-5.507-6.236h2.111a1.567,1.567,0,0,0,1.432-.9,1.517,1.517,0,0,0-.226-1.654l-5.386-6.273h1.992a1.564,1.564,0,0,0,1.438-.938,1.535,1.535,0,0,0-.292-1.66l-7.6-8.1a1.135,1.135,0,0,0-1.608,0l-6.553,6.98a3.709,3.709,0,0,1,.437,3.654,3.755,3.755,0,0,1-1.259,1.563l2.864,3.331a3.761,3.761,0,0,1-.418,5.3q-.138.116-.283.219l2.869,3.25c.6.674.92.974.941,1.838v3.891L145.787,33.7a1.1,1.1,0,0,0,.985,1.6h6.618a1.1,1.1,0,0,0,.986-1.6l-2.089-3.335V28.679h9.435a1.6,1.6,0,0,0,1.448-.913,1.527,1.527,0,0,0-.245-1.672Z" transform="translate(-119.198)"/><path class="b" d="M26.324,27.766a1.6,1.6,0,0,1-1.448.913H1.595a1.6,1.6,0,0,1-1.448-.913,1.523,1.523,0,0,1,.245-1.672L5.9,19.855H3.792a1.566,1.566,0,0,1-1.436-.9A1.521,1.521,0,0,1,2.581,17.3l5.387-6.267H5.976a1.563,1.563,0,0,1-1.439-.938,1.534,1.534,0,0,1,.292-1.66l7.6-8.1a1.135,1.135,0,0,1,1.608,0l7.6,8.1a1.535,1.535,0,0,1,.292,1.66,1.564,1.564,0,0,1-1.438.938H18.5L23.89,17.3a1.517,1.517,0,0,1,.226,1.654,1.567,1.567,0,0,1-1.432.9H20.572l5.506,6.239A1.525,1.525,0,0,1,26.324,27.766Z" transform="translate(0)"/></g></svg>