<svg xmlns="http://www.w3.org/2000/svg" width="45.475" height="31.832" viewBox="0 0 45.475 31.832"><defs><style>.a,.b{fill:#ee7600;}.a{opacity:0.4;}</style></defs><g transform="translate(0 -32)"><path class="a" d="M6.821,105.095a4.547,4.547,0,1,0-4.547-4.547A4.547,4.547,0,0,0,6.821,105.095Zm34.106,2.274H36.38a4.534,4.534,0,0,0-3.2,1.322,10.393,10.393,0,0,1,5.336,7.773H43.2a2.274,2.274,0,0,0,2.274-2.274v-2.274A4.552,4.552,0,0,0,40.927,107.369Zm-36.38,0A4.552,4.552,0,0,0,0,111.916v2.274a2.274,2.274,0,0,0,2.274,2.274H6.956A10.419,10.419,0,0,1,12.3,108.69a4.534,4.534,0,0,0-3.2-1.322Zm34.106-2.274a4.547,4.547,0,1,0-4.547-4.547A4.547,4.547,0,0,0,38.653,105.095Z" transform="translate(0 -59.453)"/><path class="b" d="M147.1,50.19h-.59a10.987,10.987,0,0,1-9.734,0h-.59A8.188,8.188,0,0,0,128,58.375v2.046a3.411,3.411,0,0,0,3.411,3.411h20.464a3.411,3.411,0,0,0,3.411-3.411V58.375A8.188,8.188,0,0,0,147.1,50.19Zm-5.457-2.274a7.954,7.954,0,1,0-5.628-2.33A7.958,7.958,0,0,0,141.642,47.916Z" transform="translate(-118.905)"/></g></svg>