<svg xmlns="http://www.w3.org/2000/svg" width="36.335" height="41.525" viewBox="0 0 36.335 41.525"><defs><style>.a,.b{fill:#ee7600;}.a{opacity:0.4;}</style></defs><g transform="translate(0 -0.005)"><path class="a" d="M116.972,168a10.381,10.381,0,0,1-20.722,0Z" transform="translate(-88.444 -154.37)"/><path class="b" d="M1.1,6.479l.519.122v4.737a1.872,1.872,0,0,0-.073,3.243L.284,19.632c-.138.56.17,1.135.616,1.135H4.29c.446,0,.754-.576.616-1.135l-1.265-5.05a1.875,1.875,0,0,0-.073-3.246V7.07L7.786,8.087v2.948H28.549V8.087l6.675-1.607a1.291,1.291,0,0,0,0-2.555L19.781.194a6.967,6.967,0,0,0-3.22,0L1.1,3.916A1.3,1.3,0,0,0,1.1,6.479ZM25.9,26.008l-7.737,7.736L10.43,26.007A10.88,10.88,0,0,0,0,36.86v.777A3.893,3.893,0,0,0,3.893,41.53H32.442a3.893,3.893,0,0,0,3.893-3.893v-.779A10.877,10.877,0,0,0,25.9,26.008Z"/></g></svg>