<svg xmlns="http://www.w3.org/2000/svg" width="47.415" height="37.932" viewBox="0 0 47.415 37.932"><defs><style>.a,.b{fill:#ee7600;}.a{opacity:0.4;}</style></defs><path class="a" d="M192,0H163.556A3.621,3.621,0,0,0,160,3.674V7.112a9.375,9.375,0,0,1,4.741,1.319V4.741h26.078V26.078H170.947a9.442,9.442,0,0,1,2.94,4.741H192a3.621,3.621,0,0,0,3.556-3.674V3.674A3.621,3.621,0,0,0,192,0ZM171.261,16.146l4.075,4.075a1.778,1.778,0,0,0,2.519,0l5.334-5.334,1.8,1.8a1.334,1.334,0,0,0,2.277-.943V9.187a.889.889,0,0,0-.889-.889h-6.562a1.334,1.334,0,0,0-.943,2.277l1.8,1.8L176.6,16.447l-4.075-4.075a1.778,1.778,0,0,0-2.519,0l-1.093,1.093a9.27,9.27,0,0,1,.574,3.13,9.351,9.351,0,0,1-.148,1.478Z" transform="translate(-148.146)"/><path class="b" d="M11.854,142.224a7.112,7.112,0,1,0-7.112-7.112,7.112,7.112,0,0,0,7.112,7.112ZM15.41,144.6h-.282a9.947,9.947,0,0,1-3.274.593A9.947,9.947,0,0,1,8.58,144.6H8.3a8.3,8.3,0,0,0-8.3,8.3,3.556,3.556,0,0,0,3.556,3.556h16.6a3.556,3.556,0,0,0,3.556-3.556,8.3,8.3,0,0,0-8.3-8.3Z" transform="translate(0 -118.517)"/></svg>