<svg xmlns="http://www.w3.org/2000/svg" width="128" height="127.976" viewBox="0 0 128 127.976">
  <g id="Group_12392" data-name="Group 12392" transform="translate(0.017 0)">
    <path id="Path_30_4_" d="M25.281,82.964h0a4.457,4.457,0,0,0-4.415,4.112V96.5A56.16,56.16,0,0,1,9.979,63.246,55.244,55.244,0,0,1,64.984,8.527h.59a52.146,52.146,0,0,1,17.948,3.236,4.184,4.184,0,1,0,2.807-7.883c-.054-.018-.107-.036-.179-.054A70.4,70.4,0,0,0,65.27,0H64.7a63.693,63.693,0,0,0-50,102.967H4.4a4.275,4.275,0,1,0-.286,8.545l20.307.286h0a4.014,4.014,0,0,0,4.112-3.915v-.2l.286-20.307a3.525,3.525,0,0,0-2.556-4.29A2.615,2.615,0,0,0,25.281,82.964Z" fill="#f95261"/>
    <g id="Group_12390" data-name="Group 12390" transform="translate(27.923 39.532)">
      <path id="Path_31_2_" d="M436.687,265.343a4.191,4.191,0,0,0,.59,5.881l10.011,8.527-10.011,8.527a4.191,4.191,0,0,0-.59,5.881,4.708,4.708,0,0,0,3.236,1.466,4.138,4.138,0,0,0,2.646-.876l13.818-11.763a4.3,4.3,0,0,0,.411-6.06,4.469,4.469,0,0,0-.411-.411l-13.818-11.763A4.175,4.175,0,0,0,436.687,265.343Z" transform="translate(-385.79 -256.18)" fill="#f95261"/>
      <path id="Path_32_2_" d="M174.234,295.9a4.708,4.708,0,0,0,3.236-1.466,4.191,4.191,0,0,0-.59-5.881l-10.011-8.527,10.011-8.527a4.186,4.186,0,0,0-5.309-6.471L157.752,276.79a4.3,4.3,0,0,0-.411,6.06,4.459,4.459,0,0,0,.411.411l13.818,11.763A4.331,4.331,0,0,0,174.234,295.9Z" transform="translate(-156.283 -256.437)" fill="#f95261"/>
      <path id="Path_33_2_" d="M327.119,224.995l-6.471,40.311a4.064,4.064,0,0,0,3.522,4.7h.59a4.11,4.11,0,0,0,4.112-3.522l6.471-40.311a4.476,4.476,0,0,0-3.522-5.005C329.6,220.883,327.637,222.8,327.119,224.995Z" transform="translate(-291.221 -221.141)" fill="#f95261"/>
    </g>
    <path id="Path_30_1_" d="M281.044,119.329h0a4.457,4.457,0,0,0,4.415-4.112V105.8a56.16,56.16,0,0,1,10.887,33.25,55.244,55.244,0,0,1-55.005,54.719h-.59A52.146,52.146,0,0,1,222.8,190.53,4.184,4.184,0,1,0,220,198.413c.054.018.107.036.179.054a70.4,70.4,0,0,0,20.879,3.826h.59A63.71,63.71,0,0,0,291.663,99.325h10.3a4.275,4.275,0,1,0,.286-8.545l-20.307-.286h0a4.014,4.014,0,0,0-4.112,3.915v.2l-.286,20.307a3.525,3.525,0,0,0,2.556,4.29A3.28,3.28,0,0,0,281.044,119.329Z" transform="translate(-178.395 -74.317)" fill="#f95261"/>
  </g>
</svg>
